<?xml version="1.0" encoding="UTF-8"?>
<svg width="200px" height="200px" viewBox="0 0 200 200" version="1.1" xmlns="http://www.w3.org/2000/svg" xmlns:xlink="http://www.w3.org/1999/xlink">
    <!-- Generator: Sketch 53.2 (72643) - https://sketchapp.com -->
    <title>gym</title>
    <desc>Created with Sketch.</desc>
    <g id="Page-1" stroke="none" stroke-width="1" fill="none" fill-rule="evenodd">
        <g id="gym" fill="#4A7CB2" fill-rule="nonzero">
            <path d="M193.908843,73.7551867 L196.255835,71.408195 C200.145876,67.5181535 200.145876,61.2130448 196.255835,57.3230033 L191.561851,52.6290199 C187.67181,48.7389784 181.366701,48.7389784 177.47666,52.6290199 L168.088693,62.0169867 L137.57618,31.5044734 L146.964147,22.1165066 C150.854188,18.2280863 150.854188,11.9213564 146.964147,8.03131494 L142.270163,3.33895228 C138.381743,-0.551089212 132.075013,-0.551089212 128.184971,3.33895228 L125.839601,5.68432324 L123.489367,3.33895228 C119.549079,-0.426283817 113.344463,-0.426283817 109.404175,3.33895228 L95.3254668,17.4192817 C91.4354253,21.3093232 91.4354253,27.614432 95.3254668,31.5044734 L97.6724585,33.8514651 L95.3254668,36.1984568 C91.4386672,40.0868776 91.4386672,46.3903656 95.3254668,50.2787863 L100.01945,54.9760116 C103.909492,58.8660531 110.214601,58.8660531 114.104642,54.9760116 L123.489367,45.5848029 L154.005122,76.1054199 L144.613913,85.491766 C140.723872,89.3818075 140.723872,95.6885373 144.613913,99.5769581 L149.307897,104.270941 C153.196317,108.160983 159.503047,108.160983 163.393089,104.270941 L165.73846,101.92395 L168.085451,104.270941 C171.975493,108.157741 178.278981,108.157741 182.167402,104.270941 L196.252593,90.1889913 C200.142635,86.3005705 200.142635,79.9938407 196.252593,76.1054199 L193.908843,73.7551867 Z M100.01945,26.8072485 C98.7260116,25.510568 98.7260116,23.4131871 100.01945,22.1165066 L114.104642,8.03131494 C115.417531,6.77677635 117.485737,6.77677635 118.798626,8.03131494 L121.145617,10.3783066 L102.366442,29.1574817 L100.01945,26.8072485 Z M109.407417,50.2787863 C108.110737,51.5754668 106.010114,51.5754668 104.713434,50.2787863 L100.01945,45.5848029 C98.7243905,44.2897432 98.7243905,42.1875 100.01945,40.8924402 L132.882197,8.02807303 C133.506224,7.40566639 134.350687,7.05556266 135.230809,7.05556266 C136.112552,7.05556266 136.957015,7.40566639 137.579422,8.02807303 L142.273405,12.7220564 C142.897432,13.3444631 143.247536,14.1905473 143.247536,15.0706689 C143.247536,15.9524116 142.897432,16.7968751 142.273405,17.4192817 L130.538446,29.1509983 L125.846084,33.8449817 L109.407417,50.2787863 Z M128.184971,40.8924402 L132.878955,36.1984568 L163.39633,66.7109701 L158.699105,71.408195 L128.184971,40.8924402 Z M191.561851,85.4885245 L177.47666,99.5737162 C176.163771,100.829876 174.095565,100.829876 172.782676,99.5737162 L170.435685,97.2267245 L175.414938,92.2474714 C176.674339,90.9459286 176.654888,88.8744813 175.374417,87.5940091 C174.093944,86.3135373 172.024118,86.2957079 170.722575,87.553488 L158.702347,99.5737162 C157.389458,100.829876 155.321253,100.829876 154.008363,99.5737162 L149.311139,94.8797328 C148.687111,94.2573261 148.337007,93.4128631 148.337007,92.5311203 C148.337007,91.6509983 148.687111,90.8049145 149.311139,90.1825079 L161.049339,78.4491701 L170.435685,69.0612033 L182.167402,57.3294863 C182.789808,56.7070797 183.634271,56.3569759 184.516014,56.3569759 C185.397757,56.3569759 186.24222,56.7070797 186.864627,57.3294863 L191.55861,62.0234697 C192.181017,62.6458763 192.53112,63.4903398 192.53112,64.3720826 C192.53112,65.2538253 192.181017,66.0982884 191.55861,66.720695 L180.092713,78.1865925 C178.834933,79.4881353 178.852762,81.5595826 180.133234,82.8400544 C181.413706,84.1205266 183.483532,84.138356 184.786696,82.8805759 L189.21486,78.4491701 L191.561851,80.7961618 C192.856911,82.0912216 192.856911,84.1934647 191.561851,85.4885245 Z" id="Shape"></path>
            <path d="M23.239756,169.714406 C25.0729382,169.714406 26.5592581,168.228086 26.5592581,166.394904 L26.5592581,139.838888 C26.5592581,138.005705 25.0729382,136.519385 23.239756,136.519385 C21.4065743,136.519385 19.9202539,138.005705 19.9202539,139.838888 L19.9202539,143.15839 L9.96174772,143.15839 C8.12856598,143.15839 6.64224564,144.64471 6.64224564,146.477892 L6.64224564,166.394904 C6.71194232,166.628307 6.7394971,166.873055 6.72166763,167.116183 L13.3606718,196.991701 C13.6978087,198.510438 15.0447353,199.589925 16.6007519,199.589925 C16.8438797,199.589925 17.0870075,199.563991 17.3236515,199.513745 C19.1146913,199.116637 20.2428033,197.340184 19.8440743,195.550765 L13.2812498,166.033454 L13.2812498,149.797394 L19.9202539,149.797394 L19.9202539,166.394904 C19.9202539,168.228086 21.4065743,169.714406 23.239756,169.714406 L23.239756,169.714406 Z" id="Path"></path>
            <path d="M61.2308739,183.549987 C60.30861,184.16591 59.7542788,185.203255 59.7542788,186.311917 L59.7542788,196.270423 C59.7542788,198.103605 61.2405992,199.589925 63.0737809,199.589925 C64.9069631,199.589925 66.393283,198.103605 66.393283,196.270423 L66.393283,188.088369 L74.8751946,182.444567 C75.6386149,181.937241 76.1572871,181.133299 76.3047846,180.227243 L79.6242867,160.310231 C79.7879925,159.347446 79.5189315,158.360348 78.8868,157.614756 C78.2562888,156.867544 77.3291622,156.436398 76.3517892,156.436398 L66.393283,156.436398 L66.393283,139.838888 C66.393283,138.005705 64.9069631,136.519385 63.0737809,136.519385 L53.1152747,136.519385 L53.1152747,133.199883 C53.1152747,131.366701 51.6289548,129.880381 49.7957726,129.880381 L36.5177643,129.880381 C34.6845826,129.880381 33.1982622,131.366701 33.1982622,133.199883 L33.1982622,166.394904 C33.1982622,168.228086 34.6845826,169.714406 36.5177643,169.714406 C38.3509465,169.714406 39.8372664,168.228086 39.8372664,166.394904 L39.8372664,136.519385 L46.4762705,136.519385 L46.4762705,166.394904 C46.4762705,168.228086 47.9625909,169.714406 49.7957726,169.714406 C51.6289548,169.714406 53.1152747,168.228086 53.1152747,166.394904 L53.1152747,143.15839 L59.7542788,143.15839 L59.7542788,166.394904 C59.7542788,168.228086 61.2405992,169.714406 63.0737809,169.714406 C64.9069631,169.714406 66.393283,168.228086 66.393283,166.394904 L66.393283,163.075402 L72.4309519,163.075402 L69.9948133,177.708441 L61.2308739,183.549987 Z" id="Path"></path>
            <path d="M26.5592581,182.992415 L49.7957726,182.992415 C51.6289548,182.992415 53.1152747,181.506095 53.1152747,179.672912 C53.1152747,177.83973 51.6289548,176.35341 49.7957726,176.35341 L26.5592581,176.35341 C24.7260763,176.35341 23.239756,177.83973 23.239756,179.672912 C23.239756,181.506095 24.7260763,182.992415 26.5592581,182.992415 Z" id="Path"></path>
            <path d="M9.96174772,116.602373 L23.239756,116.602373 C26.878566,116.594269 30.3569112,115.099844 32.865988,112.46272 C35.3864108,109.825597 36.6992996,106.259725 36.4918307,102.617674 C35.9601917,95.4210971 29.8901062,89.8988589 22.6757004,90.0463564 L19.9202539,90.0463564 L19.9202539,80.0878502 C19.9008041,75.183156 16.3138614,71.0224324 11.4658971,70.2833245 C11.4188925,70.0369552 11.3443336,69.7970697 11.2389784,69.5685295 C1.45066141,51.9369166 7.80763734,29.7069502 25.4408714,19.9186332 C31.663317,16.4597382 36.935944,11.5177643 40.790327,5.53196307 C41.7790456,3.98567178 41.328449,1.9304332 39.7821577,0.940093361 C38.2358664,-0.050246473 36.1806274,0.400350124 35.190288,1.94664149 C31.9339992,7.01017884 27.4782805,11.1903527 22.2169996,14.115988 C1.87208257,25.4538382 -5.81399129,50.8833635 4.84634357,71.5897303 C1.85101162,73.3759079 0.012966805,76.6014004 0.00324170124,80.0878502 L0.00324170124,106.643867 C0.00324170124,112.145034 4.46220166,116.602373 9.96174772,116.602373 Z M13.2812498,80.0878502 L13.2812498,93.3658585 C13.2812498,95.1990407 14.7675701,96.6853606 16.6007519,96.6853606 L22.6757004,96.6853606 C26.346927,96.5767635 29.4848938,99.3111386 29.8787602,102.962915 C29.9776324,104.786372 29.3228087,106.569307 28.0666494,107.893543 C26.81049,109.217778 25.064834,109.96661 23.239756,109.963369 L9.96174772,109.963369 C8.12856598,109.963369 6.64224564,108.477049 6.64224564,106.643867 L6.64224564,80.0878502 C6.64224564,78.254668 8.12856598,76.7683481 9.96174772,76.7683481 C11.7949299,76.7683481 13.2812498,78.254668 13.2812498,80.0878502 Z" id="Shape"></path>
            <path d="M46.4762705,50.2123315 L46.4762705,60.1708378 L43.7208249,60.1708378 C36.5031768,60.0200988 30.4298498,65.5423365 29.8982108,72.7421552 C29.6923627,76.3858274 31.0068722,79.9516988 33.5305369,82.5872017 C36.0396137,85.222705 39.5179589,86.717129 43.1567685,86.7268544 L56.4347768,86.7268544 C61.9343232,86.7268544 66.393283,82.2695149 66.393283,76.7683481 L66.393283,50.2123315 C66.3868,45.4292012 62.978151,41.3252075 58.2776842,40.4402232 C51.0389651,32.6034104 51.2626427,20.4551349 58.7817685,12.8890041 C61.023405,10.6392635 62.8419996,8.00700207 64.1532676,5.11378382 C64.9134465,3.44430747 64.1775805,1.47497427 62.5081041,0.714795021 C60.8386282,-0.0470045643 58.8692946,0.688861411 58.1074946,2.35833776 C57.130122,4.53027759 55.7686075,6.50771535 54.0877851,8.19502075 C45.0872017,17.2264004 43.7629668,31.3764266 50.93361,41.9200598 C48.1522303,43.7629668 46.4795124,46.8766207 46.4762705,50.2123315 Z M53.1152747,63.4903398 L53.1152747,50.2123315 C53.1152747,48.3791494 54.601595,46.8928295 56.4347768,46.8928295 C58.2679589,46.8928295 59.7542788,48.3791494 59.7542788,50.2123315 L59.7542788,76.7683481 C59.7542788,78.6015303 58.2679589,80.0878502 56.4347768,80.0878502 L43.1567685,80.0878502 C41.3316909,80.0910917 39.5860349,79.3422589 38.3298755,78.0180241 C37.0737162,76.6937888 36.4188925,74.9108531 36.5177643,73.0873963 C36.9116311,69.4356199 40.0495979,66.7012448 43.7208249,66.8098419 L49.7957726,66.8098419 C51.6289548,66.8098419 53.1152747,65.323522 53.1152747,63.4903398 Z" id="Shape"></path>
            <path d="M136.407547,128.20118 L131.713563,132.895163 L127.017959,128.20118 C125.714795,126.9434 123.644969,126.961229 122.364497,128.241701 C121.084025,129.522173 121.066195,131.592 122.323976,132.895163 L129.368193,139.936139 C130.663252,141.231198 132.765495,141.231198 134.060555,139.936139 L141.10153,132.895163 C142.35931,131.592 142.341481,129.522173 141.061009,128.241701 C139.780537,126.961229 137.71071,126.9434 136.407547,128.20118 L136.407547,128.20118 Z" id="Path"></path>
            <path d="M187.939251,179.7264 C188.247212,180.061917 188.621629,180.329357 189.038187,180.512513 C189.19541,180.56438 189.357495,180.60328 189.51958,180.629214 C189.775674,180.71674 190.041494,180.770228 190.310555,180.791299 C190.33811,180.801024 190.367285,180.807508 190.39646,180.81237 C190.66228,180.796162 190.924857,180.747536 191.179331,180.669735 C191.296032,180.638939 191.412734,180.645423 191.511605,180.606522 C192.550571,180.228864 193.333441,179.358467 193.600882,178.285464 C193.866701,177.212461 193.581432,176.077866 192.839082,175.257715 L158.177191,137.120721 C158.008623,122.797264 146.442233,111.226012 132.118776,111.05258 L94.044995,76.4539029 C92.7337266,75.2609568 90.7173884,75.3095826 89.464471,76.5625 L70.6852954,95.3578838 C69.432378,96.6108012 69.3837527,98.6271394 70.575078,99.9384075 L105.178618,137.979772 C105.366637,152.337266 116.95896,163.932832 131.316455,164.120851 L169.380511,198.727632 C170.737163,199.9611 172.837785,199.862228 174.071253,198.505576 C175.30472,197.148924 175.205848,195.048301 173.849196,193.814834 L156.754085,178.272498 L172.395293,162.628047 L187.939251,179.7264 Z M106.426673,129.486515 L95.5021394,117.466286 L111.590703,101.379344 L123.607689,112.303877 C115.443465,114.921551 109.044346,121.320669 106.426673,129.486515 Z M91.9200598,83.494878 L106.671421,96.9090378 L91.0302124,112.550246 L77.6160531,97.7972639 L91.9200598,83.494878 Z M139.780537,162.830654 C141.031834,162.441649 142.252334,161.958636 143.432313,161.389717 C145.077477,160.579292 145.754992,158.588888 144.944567,156.943724 C144.134141,155.29694 142.143737,154.621045 140.496953,155.431471 C134.327995,158.477049 127.022822,158.120461 121.179655,154.486515 C115.336489,150.854188 111.785205,144.459933 111.786826,137.579422 C111.786826,137.346019 111.811139,137.120721 111.820863,136.888939 L111.820863,136.85166 C112.174209,126.424728 120.545902,118.053034 130.974456,117.70131 L131.006872,117.70131 C131.240275,117.70131 131.468815,117.668893 131.700597,117.668893 C137.098029,117.667272 142.26368,119.857041 146.012707,123.738978 C149.763356,127.619295 151.776452,132.856263 151.591676,138.248833 L151.591676,138.352568 C151.463628,141.642894 150.520293,144.850558 148.845954,147.687046 C147.912344,149.265755 148.435879,151.301543 150.014588,152.235153 C151.593296,153.167142 153.629085,152.645228 154.562695,151.06652 C155.553034,149.343556 156.344009,147.513615 156.919411,145.612357 L167.920124,157.712007 L151.836424,173.800571 L139.780537,162.830654 Z" id="Shape"></path>
        </g>
    </g>
</svg>