<?xml version="1.0" encoding="UTF-8"?>
<svg width="200px" height="211px" viewBox="0 0 200 211" version="1.1" xmlns="http://www.w3.org/2000/svg" xmlns:xlink="http://www.w3.org/1999/xlink">
    <!-- Generator: Sketch 53.2 (72643) - https://sketchapp.com -->
    <title>005-hockey</title>
    <desc>Created with Sketch.</desc>
    <g id="Page-1" stroke="none" stroke-width="1" fill="none" fill-rule="evenodd">
        <g id="005-hockey" fill-rule="nonzero">
            <path d="M177.145769,152.894615 L115.519615,152.894615 L107.855,137.851538 L173.271154,9.46615385 L154.692308,0 L96.1538462,114.887692 L37.6157692,0 L19.0369231,9.46615385 L84.4530769,137.851538 L76.7884615,152.894615 L37.2623077,152.894615 L37.2623077,158.745 L58.8146154,158.745 L58.8146154,164.591154 L37.2623077,164.591154 L37.2623077,170.441538 L58.8146154,170.441538 L58.8146154,191.072692 L15.1623077,191.072692 C10.1969231,191.072692 6.15692308,187.032692 6.15692308,182.067308 L6.15692308,167.749615 C6.15692308,162.784615 10.1969231,158.745 15.1623077,158.745 L29.4611538,158.745 L29.4611538,152.894615 L15.1623077,152.894615 C6.97076923,152.894615 0.306538462,159.558462 0.306538462,167.749615 L0.306538462,182.067308 C0.306538462,190.258846 6.97076923,196.923077 15.1623077,196.923077 L68.6542308,196.923077 C74.3223077,196.923077 79.5715385,193.625385 82.0376923,188.519615 L96.1534615,160.815385 L110.269615,188.52 C112.735769,193.625769 117.985,196.923077 123.653077,196.923077 L177.145,196.923077 C185.336538,196.923077 192.000769,190.258846 192.000769,182.067308 L192.000769,167.749615 C192.001538,159.558462 185.337308,152.894615 177.145769,152.894615 Z M157.248462,7.86846154 L165.401538,12.0226923 L104.571923,131.408077 L103.021923,128.366538 L99.4373077,121.330385 L157.248462,7.86846154 Z M76.8103846,185.893077 L76.7796154,185.955385 C75.2876923,189.063846 72.0984615,191.072692 68.6542308,191.072692 L64.6646154,191.072692 L64.6646154,158.744615 L80.3726923,158.744615 L87.7357692,144.294615 L92.8707692,154.372308 L76.8103846,185.893077 Z M127.642692,191.072692 L123.653077,191.072692 C120.209615,191.072692 117.020385,189.063846 115.528462,185.955385 L99.4361538,154.372692 L99.4365385,154.371923 L87.7361538,131.408462 L87.7357692,131.408846 L26.9061538,12.0226923 L35.0592308,7.86846154 L92.8707692,121.330769 L104.571154,144.294615 L104.571154,144.294231 L111.934231,158.745 L127.642308,158.745 L127.642692,191.072692 L127.642692,191.072692 Z M186.151538,182.067308 C186.151538,187.033077 182.111538,191.072692 177.146154,191.072692 L133.493462,191.072692 L133.493462,158.744615 L177.146154,158.744615 C182.111538,158.744615 186.151538,162.784231 186.151538,167.749231 L186.151538,182.067308 Z" id="Shape" fill="#4A7CB2"></path>
            <g id="Group" transform="translate(151.923077, 175.961538)">
                <path d="M40.3713794,2.88829944 C35.974286,1.0255319 30.1740041,0 24.0384615,0 C17.9029189,0 12.102637,1.0255319 7.70554371,2.88829944 C2.73659917,4.9928502 0,8.01268402 0,11.3910993 L0,23.2242853 C0,26.6027006 2.73659917,29.6225344 7.70554371,31.7270852 C12.102637,33.5898527 17.9029189,34.6153846 24.0384615,34.6153846 C30.1740041,34.6153846 35.974286,33.5898527 40.3713794,31.7270852 C45.3403239,29.6225344 48.0769231,26.6027006 48.0769231,23.2242853 L48.0769231,11.3910993 C48.0769231,8.01268402 45.3403239,4.9928502 40.3713794,2.88829944 Z" id="Path-Copy" fill="#FFFFFF"></path>
                <path d="M40.3713794,2.88829944 C35.974286,1.0255319 30.1740041,0 24.0384615,0 C17.9029189,0 12.102637,1.0255319 7.70554371,2.88829944 C2.73659917,4.9928502 0,8.01268402 0,11.3910993 L0,23.2242853 C0,26.6027006 2.73659917,29.6225344 7.70554371,31.7270852 C12.102637,33.5898527 17.9029189,34.6153846 24.0384615,34.6153846 C30.1740041,34.6153846 35.974286,33.5898527 40.3713794,31.7270852 C45.3403239,29.6225344 48.0769231,26.6027006 48.0769231,23.2242853 L48.0769231,11.3910993 C48.0769231,8.01268402 45.3403239,4.9928502 40.3713794,2.88829944 Z M38.1556844,28.1956205 C34.2903479,29.855146 29.1058927,30.7692308 23.5576923,30.7692308 C18.0094919,30.7692308 12.8250368,29.855146 8.95970023,28.1956205 C5.80561587,26.8415225 3.84615385,25.0507073 3.84615385,23.5230211 L3.84615385,18.2692308 C4.84374739,18.9624849 6.01076401,19.6008062 7.34016697,20.17156 C11.7061947,22.0458733 17.4654975,23.0786133 23.5576923,23.0786133 C29.6498871,23.0786133 35.4091899,22.0458733 39.7752176,20.17156 C41.1046206,19.6008062 42.2716372,18.9624849 43.2692308,18.2692308 L43.2692308,23.5230211 C43.2692308,25.0507073 41.3097687,26.8415225 38.1556844,28.1956205 Z M38.1556844,15.7080316 C34.2903479,17.3595541 29.1058927,18.2692308 23.5576923,18.2692308 C18.0094919,18.2692308 12.8250368,17.3595541 8.95970023,15.7080316 C5.80561587,14.3604637 3.84615385,12.5782846 3.84615385,11.057419 C3.84615385,9.53709986 5.80561587,7.75492092 8.95970023,6.40735289 C12.8250368,4.75583053 18.0094919,3.84615385 23.5576923,3.84615385 C29.1058927,3.84615385 34.2903479,4.75583053 38.1556844,6.40735289 C41.3097687,7.75492092 43.2692308,9.53709986 43.2692308,11.057419 C43.2692308,12.5782846 41.3097687,14.3604637 38.1556844,15.7080316 Z" id="Shape" fill="#4A7CB2"></path>
            </g>
        </g>
    </g>
</svg>