<?xml version="1.0" encoding="UTF-8"?>
<svg width="200px" height="198px" viewBox="0 0 200 198" version="1.1" xmlns="http://www.w3.org/2000/svg" xmlns:xlink="http://www.w3.org/1999/xlink">
    <!-- Generator: Sketch 54.1 (76490) - https://sketchapp.com -->
    <title>005-denim-jacket</title>
    <desc>Created with Sketch.</desc>
    <g id="Page-1" stroke="none" stroke-width="1" fill="none" fill-rule="evenodd">
        <g id="005-denim-jacket" fill="#487BB4" fill-rule="nonzero">
            <path d="M104.850769,10.2142336 L96.2234496,10.2142336 C94.5816039,10.2142336 93.2525633,11.5448 93.2525633,13.1851195 C93.2525633,14.8254395 94.5816039,16.1544801 96.2234496,16.1544801 L104.850769,16.1544801 C106.491089,16.1544801 107.821655,14.8254395 107.821655,13.1851195 C107.821655,11.5448 106.491089,10.2142336 104.850769,10.2142336 Z" id="Path"></path>
            <path d="M185.766602,77.2705078 C179.614258,56.0577391 173.893738,42.7246094 173.654175,42.1661375 C173.504639,41.8228148 173.292541,41.508484 173.027039,41.2429809 C160.913086,29.1290281 143.295288,21.7636109 138.308716,19.8364258 C138.374329,15.4724121 137.390137,11.4151 135.343933,7.77893047 C135.211182,7.54394531 135.047912,7.32727031 134.855652,7.13500977 C131.800842,4.0802 125.111389,2.06298828 114.402771,0.968933203 C106.907654,0.204467969 100.276184,0.1953125 99.9984742,0.1953125 C99.7192383,0.1953125 93.0892945,0.204467969 85.5941773,0.970458984 C74.8870852,2.06298828 68.1961059,4.0802 65.1412965,7.13653555 C64.9490355,7.32727031 64.7857664,7.54394531 64.6530152,7.78045664 C62.6068117,11.4166258 61.6226195,15.4724121 61.6897582,19.8379516 C56.7001344,21.7666625 39.0808105,29.1320801 26.9683836,41.2429809 C26.7028809,41.508484 26.4907836,41.8228148 26.3427734,42.1676637 C26.1016844,42.7246094 20.3811645,56.0577391 14.2303469,77.2705078 C8.55560312,96.8399047 1.48162852,126.99585 0.00305175781,159.529114 C-0.0305175781,160.270691 0.213623047,160.997009 0.688171484,161.566162 C1.01928711,161.964416 7.71789531,169.805908 19.8043824,169.805908 C22.17865,169.805908 24.7634887,169.503784 27.545166,168.782043 C28.5736086,168.515015 29.3792727,167.721558 29.6630859,166.699219 L36.9537352,140.342713 C37.3916625,138.761902 36.4639281,137.124634 34.8831176,136.688232 C33.3007812,136.250305 31.6650391,137.178039 31.2286375,138.75885 L28.9031984,147.164917 C22.541809,147.103882 13.0889891,146.565246 7.32421875,141.807556 C8.26873789,133.021545 9.55963125,124.501038 11.0610961,116.392517 C17.3400879,114.031982 21.8505859,108.71582 23.8540648,101.211548 C26.1169434,92.7291871 24.6261598,83.2015992 20.3430176,77.6550293 C24.9526977,61.9445801 29.2877195,50.7019043 31.0119629,46.4263914 C38.8229371,47.3144531 43.4432984,53.8009645 46.2677,67.6345824 C46.5545656,69.041443 47.7920531,70.0103758 49.1744996,70.0103758 C49.3713379,70.0103758 49.5712281,69.9905395 49.771118,69.9508668 C51.3793945,69.6228027 52.4154664,68.0526734 52.0889281,66.4459227 C50.8346559,60.3042602 47.7905273,45.4055785 35.6674195,41.3879395 C45.4055785,33.4014891 57.2769164,28.0563355 62.4267578,25.9475707 C63.0874633,28.9398195 64.1876219,32.0419313 65.7302855,35.2218629 C69.3573,42.7032469 74.1302492,48.0010984 74.3316648,48.223877 C75.0289918,48.9929199 76.0772703,49.3423461 77.0980836,49.143982 C78.1173707,48.9456176 78.9596559,48.2299805 79.3182375,47.2549438 C80.7907105,43.257141 83.0535891,38.8809203 85.168457,35.1745605 L85.168457,78.6407469 L51.6601562,74.4400023 C51.6540527,74.4400023 51.649475,74.4400023 51.6433715,74.4400023 C50.1907348,74.2660523 48.8204957,75.1785277 48.4283445,76.5960695 L34.3917848,127.320862 C33.9553832,128.901672 34.8815918,130.537414 36.4639281,130.975342 C38.0432129,131.413269 39.6804809,130.485535 40.1184082,128.904724 L48.3215332,99.2599488 L48.3215332,105.278015 L48.3215332,105.282593 L48.3215332,182.995605 C48.3215332,183.755493 48.61145,184.484863 49.1348266,185.037231 C49.4094848,185.328674 52.0034789,187.965393 58.088684,190.837097 C66.0507203,194.601441 76.0787965,197.001648 87.8967285,197.972107 C87.9776,197.978211 88.0584719,197.981262 88.1393434,197.981262 C88.8824461,197.981262 89.6011352,197.703552 90.1519773,197.195434 C90.7623289,196.633911 91.1087035,195.840454 91.1087035,195.010376 L91.1087035,168.666077 C93.8735961,168.055725 96.9024656,167.732239 100,167.732239 C103.088379,167.732239 106.115723,168.057251 108.886719,168.667602 L108.886719,195.010376 C108.886719,195.840454 109.234619,196.633911 109.844971,197.195434 C110.395813,197.703552 111.114502,197.981262 111.857605,197.981262 C111.938477,197.981262 112.019348,197.978211 112.10022,197.972107 C123.921204,197.001648 133.947754,194.601441 141.900635,190.838623 C147.993469,187.965393 150.585938,185.328674 150.862121,185.037231 C151.383972,184.484863 151.675415,183.753967 151.675415,182.995605 L151.675415,105.314636 C151.675415,105.291748 151.675415,105.26886 151.675415,105.245972 L151.675415,99.2614746 L170.332336,166.699219 C170.61615,167.721558 171.42334,168.515015 172.450256,168.782043 C189.399719,173.175049 198.9151,162.042236 199.311829,161.566162 C199.786377,160.997009 200.030518,160.270691 199.996948,159.529114 C198.516846,126.99585 191.441345,96.8399047 185.766602,77.2705078 Z M27.2659301,153.08075 L24.4094848,163.404846 C19.4931031,164.361572 14.8941039,163.803101 10.7116699,161.740112 C8.45947266,160.627746 6.86187734,159.320068 5.99975586,158.51593 C6.16760234,155.166626 6.39648437,151.841736 6.67572031,148.545837 C13.1256102,152.241516 21.1944578,152.947998 27.2659301,153.08075 Z M18.1137086,99.6780395 C17.4392699,102.207947 15.9057617,106.108093 12.5503539,108.799744 C14.2333984,100.663757 16.0934449,93.0252074 17.9763793,86.0534668 C19.1864016,90.0924684 19.3206789,95.1583863 18.1137086,99.6780395 Z M187.451172,108.802795 C184.092713,106.111145 182.557678,102.207947 181.88324,99.6780395 C180.67627,95.1568602 180.812073,90.0863648 182.023621,86.0473633 C183.906555,93.0206297 185.768127,100.662231 187.451172,108.802795 L187.451172,108.802795 Z M85.168457,174.21875 C77.3925781,173.368836 71.2860109,171.897888 66.5985109,170.3125 L66.5985109,118.847656 L77.0843508,108.363342 C77.5695801,107.878113 77.8701781,107.241821 77.938843,106.558227 L80.1895141,84.0042113 L85.168457,84.6282961 L85.168457,174.21875 Z M63.6291504,113.417053 L54.2617797,104.049683 L54.2617797,80.7525633 L74.293518,83.2641602 L72.1328734,104.91333 L63.6291504,113.417053 Z M54.2617797,112.451172 L60.6582641,118.847656 L60.6582641,167.93518 C57.3394773,166.371155 55.2902223,164.938355 54.2617797,164.125061 L54.2617797,112.451172 Z M60.6262207,185.466004 C57.3333742,183.912659 55.2886961,182.472229 54.2617797,181.654358 L54.2617797,171.284485 C59.5230102,174.391174 69.2230227,178.538513 85.168457,180.194092 L85.168457,191.743469 C73.1582641,190.431213 65.2542113,187.654114 60.6262207,185.466004 L60.6262207,185.466004 Z M145.733643,164.144898 C144.711304,164.970398 142.674255,166.415405 139.338684,167.987061 L139.338684,118.847656 L145.733643,112.452698 L145.733643,164.144898 Z M145.733643,104.051209 L136.367798,113.417053 L127.864075,104.91333 L125.70343,83.2641602 L145.733643,80.7525633 L145.733643,104.051209 Z M119.807434,84.0042113 L122.058105,106.558227 C122.12677,107.241821 122.428894,107.879639 122.914123,108.364868 L133.398437,118.849182 L133.398437,170.352173 C128.729248,171.922302 122.63031,173.371887 114.826965,174.220276 L114.826965,84.6282961 L119.807434,84.0042113 Z M139.363098,185.467529 C134.739685,187.654114 126.838684,190.431213 114.826965,191.743469 L114.826965,180.194092 C130.7724,178.540039 140.472412,174.3927 145.735168,171.286011 L145.735168,181.652832 C144.699097,182.476807 142.654419,183.915711 139.363098,185.467529 Z M151.567078,76.5945434 C151.174927,75.1785277 149.804687,74.2660523 148.350525,74.4400023 C148.345947,74.4400023 148.34137,74.4400023 148.336792,74.4400023 L148.3078,74.4430543 C148.306274,74.4430543 148.306274,74.4430543 148.304748,74.4445801 L148.303223,74.4445801 L114.826965,78.6407469 L114.826965,66.1392211 C114.826965,64.4989016 113.497925,63.1698609 111.857605,63.1698609 C110.215759,63.1698609 108.886719,64.4989016 108.886719,66.1392211 L108.886719,162.606812 C106.056213,162.07428 103.045654,161.791992 100,161.791992 C96.9451906,161.791992 93.9346312,162.07428 91.1087035,162.605286 L91.1087035,24.7177125 C91.1087035,24.699402 91.1041258,24.6810914 91.1026,24.6627809 C91.0949707,24.2401125 91.0018922,23.815918 90.811157,23.4222414 C90.3457641,22.4655152 89.4042969,21.8292234 88.3422852,21.7559813 C88.2675172,21.7498781 80.769348,21.09375 78.7902832,15.916443 C78.2043457,14.3844605 76.487732,13.6169434 74.9542234,14.2028809 C73.4222414,14.7888184 72.6547242,16.505432 73.2406617,18.0374145 C75.2075195,23.1826781 79.7683715,25.5996703 83.2946777,26.724243 C81.2149047,30.0415039 78.1677246,35.1806641 75.7431031,40.4220582 C71.3088988,34.2178344 64.0762328,21.5698242 69.6151734,11.0870359 C73.6938477,7.67822266 89.6728516,6.13861094 99.9984742,6.13555898 C110.322571,6.13555898 126.301575,7.67364492 130.383301,11.0870359 C135.90393,21.5377809 128.678894,34.1995238 124.250793,40.4144289 C121.827698,35.1745605 118.782043,30.0384523 116.703796,26.724243 C120.228577,25.5981445 124.789429,23.1811523 126.756287,18.0374145 C127.342224,16.505432 126.574707,14.7888184 125.042725,14.2028809 C123.507691,13.6154176 121.792602,14.3844605 121.208191,15.916443 C119.218445,21.1181641 111.720276,21.7498781 111.654663,21.7544555 C110.592652,21.8292234 109.651184,22.4639891 109.187317,23.4222414 C108.998108,23.8128664 108.903504,24.2324828 108.894348,24.6536254 C108.892822,24.6749879 108.886719,24.6948242 108.886719,24.7177125 L108.886719,54.2617797 C108.886719,55.9020996 110.217285,57.232666 111.857605,57.232666 C113.497925,57.232666 114.828491,55.9020996 114.828491,54.2617797 L114.828491,35.168457 C116.940308,38.8748168 119.204712,43.2495117 120.678711,47.253418 C121.037293,48.2284547 121.879578,48.9440918 122.898865,49.1424562 C123.088074,49.1790773 123.277283,49.1973875 123.466492,49.1973875 C124.295044,49.1973875 125.097656,48.8494875 125.665283,48.223877 C125.866699,48.0010984 130.639648,42.7032469 134.268188,35.2203367 C135.810852,32.0404055 136.911011,28.9382934 137.571716,25.9445191 C142.71698,28.0487062 154.580688,33.3862305 164.329529,41.3879395 C152.206421,45.4055785 149.163818,60.3042602 147.909546,66.4459227 C147.581482,68.0526734 148.61908,69.621277 150.22583,69.9493406 C150.42572,69.9905395 150.627136,70.0103758 150.823975,70.0103758 C152.204895,70.0103758 153.442383,69.041443 153.730774,67.6345824 C156.555176,53.8024902 161.174011,47.3144531 168.984985,46.4263914 C170.710754,50.7003785 175.047302,61.9400023 179.658508,77.6519773 C175.372314,83.1970215 173.881531,92.7276609 176.144409,101.210022 C178.147888,108.717346 182.659912,114.033508 188.94043,116.394043 C190.441895,124.499512 191.732788,133.018494 192.675781,141.80603 C186.911011,146.565246 177.455139,147.103882 171.09375,147.163391 L151.567078,76.5945434 Z M175.584412,163.40332 L172.727966,153.08075 C178.800964,152.947998 186.872864,152.241516 193.322754,148.545838 C193.603516,151.844787 193.833923,155.174255 194.00177,158.528137 C191.911316,160.499573 185.594177,165.344238 175.584412,163.40332 L175.584412,163.40332 Z" id="Shape"></path>
            <path d="M192.3172,154.719543 C192.06543,153.503418 191.07666,152.545166 189.840698,152.362061 C188.50708,152.165222 187.178039,152.922058 186.662293,154.165649 C185.632324,156.648254 188.331604,159.169006 190.739441,157.949829 C191.911316,157.357788 192.588806,156.015015 192.3172,154.719543 L192.3172,154.719543 Z" id="Path"></path>
            <path d="M8.49151602,157.400512 C9.44061289,158.320618 10.8810426,158.535766 12.0437621,157.89032 C13.0859375,157.310486 13.6917113,156.115723 13.5421754,154.933166 C13.3880617,153.726196 12.4923707,152.720642 11.3143922,152.420044 C10.0601195,152.099609 8.70056172,152.670288 8.04138203,153.781128 C7.35473633,154.93927 7.54241953,156.445312 8.49151602,157.400512 L8.49151602,157.400512 Z" id="Path"></path>
            <path d="M66.3726805,88.0981445 C65.3854371,85.7131957 61.8682859,85.7025148 60.8840941,88.0981445 C60.4171754,89.2349242 60.7116699,90.5776977 61.6119383,91.4123535 C62.5686645,92.2988891 64.0380859,92.4468992 65.1550293,91.7785645 C66.4108277,91.027832 66.9128418,89.4500734 66.3726805,88.0981445 Z" id="Path"></path>
            <path d="M133.624268,90.3671266 C134.07898,91.4642336 135.179138,92.2058105 136.369324,92.2042848 C137.666321,92.2042848 138.827515,91.3269043 139.207459,90.0939941 C139.57367,88.9083863 139.129639,87.5854492 138.136291,86.8469238 C137.14447,86.11145 135.768127,86.0794066 134.736633,86.7507934 C133.564758,87.5137328 133.081055,89.0762328 133.624268,90.3671266 L133.624268,90.3671266 Z" id="Path"></path>
        </g>
    </g>
</svg>