<?xml version="1.0" encoding="UTF-8"?>
<svg width="202px" height="108px" viewBox="0 0 202 108" version="1.1" xmlns="http://www.w3.org/2000/svg" xmlns:xlink="http://www.w3.org/1999/xlink">
    <!-- Generator: Sketch 53.2 (72643) - https://sketchapp.com -->
    <title>Group</title>
    <desc>Created with Sketch.</desc>
    <g id="Page-1" stroke="none" stroke-width="1" fill="none" fill-rule="evenodd">
        <g id="Group" transform="translate(1.000000, 1.000000)" fill-rule="nonzero">
            <path d="M3.6939314,3.6939314 L3.6939314,101.846966 L49.0765172,101.846966 L49.0765172,3.6939314 L3.6939314,3.6939314 Z M0,0 L52.7704485,0 L52.7704485,105.540897 L0,105.540897 L0,0 Z" id="Rectangle" stroke="#4A7CB2" stroke-width="2" fill="#4A7CB2"></path>
            <path d="M52.7704485,3.6939314 L52.7704485,101.846966 L98.1530343,101.846966 L98.1530343,3.6939314 L52.7704485,3.6939314 Z M49.0765172,0 L101.846966,0 L101.846966,105.540897 L49.0765172,105.540897 L49.0765172,0 Z" id="Rectangle-Copy" stroke="#4A7CB2" stroke-width="2" fill="#4A7CB2"></path>
            <path d="M101.846966,3.6939314 L101.846966,101.846966 L147.229551,101.846966 L147.229551,3.6939314 L101.846966,3.6939314 Z M98.1530343,0 L150.923483,0 L150.923483,105.540897 L98.1530343,105.540897 L98.1530343,0 Z" id="Rectangle-Copy-2" stroke="#4A7CB2" stroke-width="2" fill="#4A7CB2"></path>
            <path d="M150.923483,3.6939314 L150.923483,101.846966 L196.306069,101.846966 L196.306069,3.6939314 L150.923483,3.6939314 Z M147.229551,0 L200,0 L200,105.540897 L147.229551,105.540897 L147.229551,0 Z" id="Rectangle-Copy-3" stroke="#4A7CB2" stroke-width="2" fill="#4A7CB2"></path>
            <g id="knight" transform="translate(62.796834, 17.941953)">
                <path d="M69.5862979,54.4350144 C71.7977829,56.9586865 72.7641583,59.8130582 71.9628109,62.7106205 C71.136516,65.7161269 68.7363128,67.7128056 65.3714058,68.7676266 C63.5371379,69.3429243 61.3315643,69.6569921 59.2227285,69.6569921 C56.7771706,69.6569921 55.239578,69.1001364 51.7956622,67.4248602 C50.8437244,66.9630925 50.4064067,66.7552942 49.843582,66.5031136 C45.2126247,64.4281552 40.5585444,63.6048931 33.2074393,64.3089637 C31.0474344,64.5129837 28.9651845,63.4405554 27.8818835,61.5645688 C26.7960469,59.6916086 26.8973724,57.356724 28.1436261,55.5863509 C28.1649811,55.5553749 28.1777305,55.536935 28.1890593,55.5204456 C28.2343407,55.4545369 28.2863326,55.3779961 28.3455673,55.2896984 C28.5190539,55.0310923 28.7126876,54.7343344 28.9220658,54.4031255 C29.5213927,53.4550688 30.1202415,52.4308261 30.6752191,51.3747725 C31.4056386,49.9848746 32.0000815,48.65145 32.4097733,47.4421912 C32.4395914,47.3541794 32.4683486,47.2670529 32.4960528,47.1807733 C32.4662184,47.0793763 32.427585,46.959033 32.3799593,46.8222279 C32.1568867,46.1814509 31.8734125,45.5197572 31.1976121,44.0265259 C29.8862748,41.1212108 28.9975929,38.9047255 28.4804021,36.8690003 C27.0423295,37.9756179 25.3367568,38.7779412 23.3865766,39.2658844 C21.9943757,39.6134386 20.5935363,39.7921799 19.2208901,39.7921799 C13.4807184,39.7921799 8.38615742,36.7206912 4.60500333,31.253355 C3.46918212,29.6115032 2.53069154,27.8827299 1.76721939,26.1556554 C1.29059902,25.0774773 0.946340613,24.1447867 0.784475385,23.616647 C-0.0694467831,20.9066134 1.26171743,17.9883342 3.87123857,16.8543788 C6.47377611,15.726838 9.50321884,16.7405088 10.9060581,19.2029297 C10.9462285,19.2709887 10.9845092,19.3344699 11.0386189,19.4220203 C11.1735139,19.6402829 11.3333972,19.8872895 11.5163554,20.1557442 C12.0401837,20.9243581 12.6317269,21.691965 13.2657211,22.3931426 C13.2959662,22.4265927 13.3262475,22.4598204 13.3586268,22.4950694 C14.4356029,23.6691473 15.4988003,24.4685616 16.2512545,24.776814 C16.2988202,23.8630756 16.240954,22.7028822 16.0596495,20.2904444 C15.7723498,16.4962362 15.7119349,14.7122946 15.9313152,12.4846972 C16.2644433,9.10209794 17.3017239,6.27916447 19.3724308,4.0452693 C21.9117052,1.30818646 25.5787734,0 30.0239768,0 C34.9017942,0 39.053552,1.68313221 42.0911468,5.00105196 C44.5719081,7.71180253 45.9913181,11.0527526 46.659976,14.6813956 C47.3830224,14.6734192 48.1159742,14.7050933 48.8555531,14.7763084 C51.8607641,15.0656645 54.8960461,15.9826771 57.6630569,17.4280149 C61.4492263,19.4043497 64.2962194,22.1456157 65.5280851,25.2773966 C66.3661071,26.0912197 67.256285,27.0143121 68.1160972,27.9916293 C71.196733,31.4993432 72.823219,34.4824624 72.823219,37.4886658 C72.823219,40.8708036 70.9502699,43.7606397 67.4340585,47.7240513 C66.5883056,48.678953 65.7309161,49.5855099 64.8857046,50.4372958 C66.874855,51.7962702 68.424435,53.1062942 69.5862979,54.4350144 Z" id="Path" fill="#FFFFFF"></path>
                <path d="M60.6200223,52.7066381 L60.6200223,48.7105823 C61.3215376,48.0380234 62.7889206,46.6014593 64.2737636,44.9249898 C66.1326233,42.8297147 68.6015831,39.779059 68.6015831,37.4886658 C68.6015831,35.7722743 67.4032079,33.577444 64.9441004,30.777423 C63.6793774,29.3398609 62.4303683,28.143951 61.8438392,27.6011381 C61.3020823,25.2892868 59.0572332,22.917927 55.7095397,21.1704713 C53.4200431,19.9745614 50.9101771,19.2152971 48.450945,18.9785104 C46.4673714,18.7875092 44.5870609,18.9550563 42.9072902,19.4619395 C42.8352056,16.5848193 42.2155026,11.390109 38.976809,7.85115883 C36.771993,5.44287124 33.7595303,4.22163588 30.0239768,4.22163588 C26.6665556,4.22163588 24.1256359,5.12898543 22.467316,6.91648774 C19.522947,10.0928973 19.9185393,15.3402546 20.2692346,19.971692 C20.5732869,24.0174006 20.8636208,27.8407942 18.8546056,28.7122141 C18.1998579,28.9957842 17.5256549,29.1391287 16.8474611,29.1401267 C14.2713721,29.1401267 11.8337154,27.077912 10.2476049,25.3487954 C8.41393731,23.3527013 7.25060665,21.3138158 7.23888355,21.2943539 C6.90178205,20.7007654 6.17494981,20.4571172 5.54950992,20.728087 C4.92594073,20.9990567 4.60642388,21.6988125 4.81095458,22.3479174 C4.85186071,22.4812814 5.86129451,25.6489581 8.07683581,28.8515664 C11.1167356,33.2470905 14.9710167,35.570544 19.2208901,35.570544 C20.2439177,35.570544 21.3021146,35.4350592 22.3640529,35.1699529 C25.2226188,34.4547274 27.1888571,32.8952789 28.3696477,30.4031553 C29.3459076,28.3485506 29.6265138,25.9481227 29.873946,23.830142 C30.407846,19.2572151 30.8892414,17.5290966 33.8725211,17.5290966 C35.9068532,17.5290966 38.1633006,19.5436546 39.5165704,21.0641793 C37.2805761,22.4160341 35.5404439,23.9295725 34.3343364,25.5787205 C33.0248411,27.3710883 32.2960134,29.3816541 32.1712996,31.5522818 C31.9473136,35.4243301 33.6658702,39.2332521 35.0454547,42.2897712 C36.02371,44.4512917 37.0311484,46.6851705 36.7252253,47.7749132 C35.3533731,52.6715817 31.6354043,57.9578628 31.598489,58.0125058 C31.2984275,58.435553 31.2731106,58.9969545 31.5341366,59.4471985 C31.7952874,59.8994386 32.294018,60.1548139 32.810458,60.1060343 C44.1465716,59.0202839 49.6317356,61.6830735 53.6381676,63.6265206 C55.6334642,64.5971214 57.3580072,65.4353562 59.2227285,65.4353562 C60.9160929,65.4353562 62.6971312,65.181977 64.1080189,64.7394679 C66.2280294,64.0748933 67.5004847,63.0163396 67.8922108,61.5915026 C68.2663523,60.2386498 67.767497,58.7650333 66.411234,57.2173118 C65.1973942,55.8291531 63.2975036,54.3496731 60.6200223,52.7066381 Z M62.2977975,43.1434757 C61.1110207,44.484352 59.91065,45.6889948 59.1585008,46.4200643 L57.4184934,45.2016983 L62.5842652,38.8199358 L65.4935896,38.8199358 C65.0356404,39.7088215 64.1217374,41.0850036 62.2977975,43.1434757 Z M57.2937796,38.8199358 L59.1604963,38.8199358 L55.2342553,43.6715674 L54.1956384,42.9447396 L57.2937796,38.8199358 Z M54.6494721,33.0063116 L56.2531673,32.1437494 L59.2812193,36.1591423 L57.2547441,36.1591423 L54.6494721,33.0063116 Z M60.40963,29.9060031 C61.0331992,30.5005897 62.0035976,31.4615842 62.9623976,32.5531982 C64.1666344,33.9253882 65.0570912,35.1805571 65.5364912,36.1591423 L62.6115775,36.1591423 L58.6227302,30.8679957 L60.40963,29.9060031 Z M33.8725211,14.8674298 C31.3607844,14.8674298 29.5660276,15.8693443 28.5372631,17.8438557 C27.7071678,19.4373626 27.4752001,21.4208564 27.231634,23.5211217 C26.9977955,25.5289429 26.7542294,27.6040075 25.9689064,29.2617637 C25.1368157,31.0142096 23.7864142,32.0707672 21.7209037,32.5872566 C20.8674869,32.8007139 20.0275392,32.9087525 19.2208901,32.9087525 C17.4223919,32.9087525 15.727032,32.3786647 14.1525198,31.3269726 C15.0119228,31.6271353 15.9141027,31.8006707 16.8474611,31.8006707 C17.8919395,31.8006707 18.922824,31.583346 19.9106823,31.1534372 C21.6722653,30.3893074 22.6874359,28.811395 23.0168051,26.3290024 C23.2720944,24.4070132 23.1026083,22.1546705 22.9212743,19.7707103 C22.5977667,15.4843476 22.2645313,11.050773 24.4197111,8.7261966 C25.569448,7.48637262 27.4011201,6.88317792 30.0239768,6.88317792 C32.9780734,6.88317792 35.3280562,7.81111219 37.0098223,9.64140577 C39.1522813,11.9785825 39.8985689,15.3761843 40.142135,17.9062336 C40.1186888,17.8857736 40.0973628,17.8653137 40.0739166,17.8438557 C37.9274667,15.8693443 35.8425008,14.8674298 33.8725211,14.8674298 Z M65.3279696,60.8856339 C65.0512296,61.8914158 62.1984006,62.7725666 59.2228532,62.7725666 C57.969978,62.7725666 56.5708134,62.0941441 54.7996275,61.23258 C51.064074,59.4197522 45.5709283,56.7530952 35.2539762,57.2598536 C36.5517484,55.1234091 38.3639652,51.7825712 39.2865981,48.4940061 C39.8516765,46.4725865 38.7488321,44.0262484 37.4713882,41.1940403 C36.144433,38.2545421 34.6401347,34.9251819 34.82521,31.705981 C35.035727,28.0909297 37.4323528,25.1203674 42.1588825,22.6252497 C46.0463375,20.5727659 51.2238324,21.8290576 54.479986,23.5287318 C56.7441657,24.7129147 58.4316686,26.2401762 59.0532424,27.614487 L51.97012,31.4272764 C51.9681246,31.4282744 51.9642585,31.4301457 51.9623878,31.4321418 L47.5390374,33.8111118 C47.0616328,33.6083835 46.5374606,33.4963527 45.985976,33.4963527 C43.7860239,33.4963527 41.9952579,35.2875977 41.9952579,37.4884163 C41.9952579,39.6892348 43.7860239,41.4806046 45.985976,41.4806046 C46.4088806,41.4806046 46.8160713,41.4143592 47.1980698,41.2934707 L57.9582549,48.8273538 L57.9582549,56.1175887 C57.9582549,56.854397 58.554387,57.4509796 59.2870808,57.4509796 C60.0236407,57.4509796 60.6200223,56.8545217 60.6200223,56.1175887 L60.6200223,55.8642095 C62.3251099,56.9987395 63.593699,58.0397026 64.4082051,58.9695082 C65.1097204,59.7666983 65.4429558,60.4665788 65.3279696,60.8856339 Z M49.7468464,38.8199358 L53.9656661,38.8199358 L52.015017,41.4163553 L49.3862987,39.576206 C49.5324634,39.3384213 49.6533111,39.0850421 49.7468464,38.8199358 Z M49.5713741,35.7390892 L52.2585831,34.2927943 L53.8019168,36.1591423 L49.7467217,36.1591423 C49.6960879,36.0149245 49.6395925,35.8745741 49.5713741,35.7390892 Z M47.3169221,37.488541 C47.3169221,38.2234779 46.7206652,38.8199358 45.985976,38.8199358 C45.2532822,38.8199358 44.6571501,38.2234779 44.6571501,37.488541 C44.6571501,36.7556002 45.2532822,36.1591423 45.985976,36.1591423 C46.7206652,36.1591423 47.3169221,36.7556002 47.3169221,37.488541 Z" id="Shape" stroke="#4A7CB2" fill="#4A7CB2"></path>
            </g>
        </g>
    </g>
</svg>