<?xml version="1.0" encoding="UTF-8"?>
<svg width="200px" height="117px" viewBox="0 0 200 117" version="1.1" xmlns="http://www.w3.org/2000/svg" xmlns:xlink="http://www.w3.org/1999/xlink">
    <!-- Generator: Sketch 53.2 (72643) - https://sketchapp.com -->
    <title>020-gym</title>
    <desc>Created with Sketch.</desc>
    <g id="Page-1" stroke="none" stroke-width="1" fill="none" fill-rule="evenodd">
        <g id="020-gym" fill="#4A7CB2" fill-rule="nonzero">
            <path d="M169.613672,0.26796875 L150.428906,0.26796875 C150.423438,0.26796875 150.417969,0.267578125 150.4125,0.267578125 C136.725781,0.267578125 125.123047,16.7238281 121.299609,41.3722656 L78.6949219,41.3722656 C78.0171875,37.0113281 77.0773438,32.8121094 75.8851562,28.8734375 C75.4160156,27.3246094 73.778125,26.4503906 72.2320312,26.9179688 C70.6832031,27.3867187 69.8078125,29.0226563 70.2765625,30.5710938 C72.7871094,38.8632813 74.1136719,48.4183594 74.1136719,58.2035156 C74.1136719,86.4320312 62.8820313,110.279687 49.5871094,110.279687 L43.9179688,110.279687 C53.9871094,100.944922 60.7722656,81.3648437 60.7722656,58.2035156 C60.7722656,35.0421875 53.9871094,15.4621094 43.9179688,6.12734375 L49.5875,6.12734375 C55.0367188,6.12734375 60.4691406,10.2902344 64.884375,17.8496094 C65.4292969,18.7820312 66.409375,19.3019531 67.4167969,19.3019531 C67.9183594,19.3019531 68.4273437,19.1730469 68.8914063,18.9019531 C70.2886719,18.0855469 70.7597656,16.2914062 69.94375,14.8945312 C64.434375,5.4625 57.2050781,0.268359375 49.5871094,0.268359375 L30.3863281,0.268359375 C13.3472656,0.267578125 0,25.715625 0,58.203125 C0,90.690625 13.3472656,116.138672 30.3863281,116.138672 L49.5875,116.138672 C63.5433594,116.138672 75.0207031,99.0640625 78.7179687,75.0339844 L89.0277344,75.0339844 C90.6460938,75.0339844 91.9574219,73.7226562 91.9574219,72.1042969 C91.9574219,70.4859375 90.6460938,69.1746094 89.0277344,69.1746094 L79.4496094,69.1746094 C79.7925781,65.6300781 79.9738281,61.9644531 79.9738281,58.2027344 C79.9738281,54.5011719 79.7898438,50.8285156 79.4355469,47.2308594 L145.210938,47.2308594 C146.5875,47.2308594 149.220313,51.5035156 149.220313,58.2027344 C149.220313,64.9019531 146.587891,69.1746094 145.210938,69.1746094 L102.378516,69.1746094 C100.760156,69.1746094 99.4488281,70.4859375 99.4488281,72.1042969 C99.4488281,73.7226562 100.760156,75.0339844 102.378516,75.0339844 L121.308594,75.0339844 C122.350391,81.7359375 123.9875,87.9507812 126.197266,93.5125 C126.653516,94.6609375 127.755078,95.3609375 128.920703,95.3609375 C129.280859,95.3609375 129.646484,95.2941406 130.001953,95.153125 C131.505469,94.5558594 132.239844,92.8523438 131.642578,91.3488281 C129.692187,86.4402344 128.215625,80.959375 127.2375,75.0339844 L132.215234,75.0339844 C135.001953,90.0753906 141.248047,99.3492188 148.680859,99.3492188 C160.336328,99.3492188 166.625391,78.1496094 166.625391,58.2027344 C166.625391,38.2558594 160.336328,17.05625 148.680859,17.05625 C141.242969,17.05625 135.003125,26.3273438 132.216406,41.3714844 L127.236328,41.3714844 C128.889844,31.3960938 132.028906,22.5 136.167578,16.1367188 C141.546094,7.86757813 146.878906,6.128125 150.407031,6.12617188 C150.408984,6.12617188 150.410937,6.1265625 150.412891,6.1265625 L150.426562,6.1265625 C163.715234,6.14296875 174.939453,29.9839844 174.939453,58.2023438 C174.939453,86.4308594 163.707422,110.278516 150.412891,110.278516 C144.8125,110.278516 140.389844,105.99375 137.665625,102.399219 C136.687891,101.109375 134.850781,100.856641 133.560937,101.833984 C132.271484,102.811328 132.018359,104.648828 132.995703,105.938672 C138.052344,112.610938 144.075,116.137891 150.412891,116.137891 L169.614062,116.137891 C186.652734,116.138672 200,90.690625 200,58.203125 C200,25.7160156 186.652734,0.26796875 169.613672,0.26796875 Z M30.3863281,110.279297 C17.0914062,110.279297 5.859375,86.4316406 5.859375,58.203125 C5.859375,29.9746094 17.0914063,6.12695313 30.3863281,6.12695313 C43.68125,6.12695313 54.9128906,29.9746094 54.9128906,58.203125 C54.9128906,86.4316406 43.68125,110.279297 30.3863281,110.279297 Z M148.680469,22.9160156 C153.726562,22.9160156 160.765625,36.3402344 160.765625,58.203125 C160.765625,80.0660156 153.726562,93.4902344 148.680469,93.4902344 C145.193359,93.4902344 140.614844,87.1617187 138.182031,75.034375 L145.210938,75.034375 C150.836719,75.034375 155.079688,67.7988281 155.079688,58.203125 C155.079688,48.6074219 150.837109,41.371875 145.210938,41.371875 L138.181641,41.371875 C140.613672,29.24375 145.1875,22.9160156 148.680469,22.9160156 Z M169.613672,110.279297 L163.944141,110.279297 C174.013281,100.944531 180.798437,81.3644531 180.798437,58.203125 C180.798437,35.0421875 174.013672,15.4621094 163.944531,6.12734375 L169.613672,6.12734375 C182.908594,6.12734375 194.140625,29.975 194.140625,58.203125 C194.140625,86.4316406 182.908594,110.279297 169.613672,110.279297 Z" id="Shape"></path>
            <path d="M28.6542969,17.0566406 C16.9988281,17.0566406 10.7101563,38.2566406 10.7101563,58.203125 C10.7101563,78.1496094 16.9992188,99.3496094 28.6546875,99.3496094 C40.3101563,99.3496094 46.5988281,78.1496094 46.5988281,58.203125 C46.5988281,38.2566406 40.3097656,17.0566406 28.6542969,17.0566406 Z M28.6542969,93.4902344 C23.6082031,93.4902344 16.5691406,80.0660156 16.5691406,58.203125 C16.5691406,36.3402344 23.6082031,22.9160156 28.6542969,22.9160156 C33.7003906,22.9160156 40.7394531,36.3402344 40.7394531,58.203125 C40.7394531,80.0660156 33.7003906,93.4902344 28.6542969,93.4902344 Z" id="Shape"></path>
        </g>
    </g>
</svg>