<?xml version="1.0" encoding="UTF-8"?>
<svg width="200px" height="200px" viewBox="0 0 200 200" version="1.1" xmlns="http://www.w3.org/2000/svg" xmlns:xlink="http://www.w3.org/1999/xlink">
    <!-- Generator: Sketch 53.2 (72643) - https://sketchapp.com -->
    <title>018-big-frisbee</title>
    <desc>Created with Sketch.</desc>
    <g id="Page-1" stroke="none" stroke-width="1" fill="none" fill-rule="evenodd">
        <g id="018-big-frisbee" fill="#4A7CB2" fill-rule="nonzero">
            <path d="M99.7605701,0.00142517815 C44.7524941,0.00142517815 0,44.7548694 0,99.7648456 C0,154.772922 44.7524941,199.525416 99.7605701,199.525416 C154.771971,199.525416 199.526841,154.772922 199.526841,99.7648456 C199.526841,44.7548694 154.771971,0.00142517815 99.7605701,0.00142517815 Z M99.7605701,190.024228 C49.9914489,190.024228 9.50118765,149.533967 9.50118765,99.7648456 C9.50118765,49.9938242 49.9914489,9.50261283 99.7605701,9.50261283 C149.533017,9.50261283 190.025653,49.9938242 190.025653,99.7648456 C190.025653,149.533967 149.533017,190.024228 99.7605701,190.024228 Z" id="Shape"></path>
            <path d="M156.973397,44.4574822 C155.149644,42.5710214 152.142518,42.5211401 150.256057,44.3448931 C148.369596,46.1686461 148.31924,49.176247 150.143468,51.0622328 C162.841805,64.1947743 169.835629,81.4907363 169.835629,99.7648456 C169.835629,138.4019 138.400475,169.835154 99.7615202,169.835154 C61.1244656,169.835154 29.6912114,138.4019 29.6912114,99.7648456 C29.6912114,61.1268409 61.1244656,29.6926366 99.7615202,29.6926366 C111.621378,29.6926366 123.339192,32.7087886 133.647031,38.4142518 C135.940618,39.6845606 138.832779,38.8536817 140.104038,36.5586698 C141.374822,34.2631829 140.543943,31.3724466 138.248456,30.1016627 C126.535867,23.6185273 113.227078,20.1914489 99.7615202,20.1914489 C55.8859857,20.1909739 20.1900238,55.8874109 20.1900238,99.7643705 C20.1900238,143.639905 55.8859857,179.335867 99.7615202,179.335867 C143.63943,179.335867 179.336817,143.639905 179.336817,99.7643705 C179.336817,79.0123515 171.394774,59.3710214 156.973397,44.4574822 Z" id="Path"></path>
            <path d="M99.7619952,39.9073634 C66.7577197,39.9073634 39.9068884,66.7591449 39.9068884,99.7643705 C39.9068884,132.768646 66.7577197,159.619477 99.7619952,159.619477 C105.862233,159.619477 111.88266,158.703563 117.656057,156.897387 C120.160095,156.114489 121.554869,153.448931 120.771971,150.945368 C119.989074,148.44133 117.32399,147.047031 114.819952,147.829454 C109.965321,149.347743 104.899287,150.117815 99.7624703,150.117815 C71.9971496,150.117815 49.4085511,127.529216 49.4085511,99.7638955 C49.4085511,71.9976247 71.9971496,49.408076 99.7624703,49.408076 C124.110214,49.408076 144.944418,66.7624703 149.301663,90.6726841 C149.771971,93.2536817 152.243705,94.9619952 154.827078,94.4945368 C157.408551,94.024228 159.11924,91.5505938 158.648931,88.9691211 C153.467933,60.5406176 128.702613,39.9073634 99.7619952,39.9073634 Z" id="Path"></path>
            <path d="M149.470784,107.867933 C147.461758,120.298337 140.877435,131.466508 130.932542,139.314964 C128.873159,140.940143 128.52114,143.927316 130.146793,145.987173 C131.084561,147.175297 132.474584,147.794774 133.87886,147.794774 C134.909264,147.794774 135.946793,147.461283 136.818527,146.773397 C148.635629,137.447506 156.460333,124.169121 158.850356,109.384323 C159.268884,106.794299 157.508789,104.355344 154.918765,103.936342 C152.335392,103.520665 149.889786,105.27696 149.470784,107.867933 Z" id="Path"></path>
        </g>
    </g>
</svg>