<?xml version="1.0" encoding="UTF-8"?>
<svg width="166px" height="200px" viewBox="0 0 166 200" version="1.1" xmlns="http://www.w3.org/2000/svg" xmlns:xlink="http://www.w3.org/1999/xlink">
    <!-- Generator: Sketch 54.1 (76490) - https://sketchapp.com -->
    <title>007-tank-top</title>
    <desc>Created with Sketch.</desc>
    <g id="Page-1" stroke="none" stroke-width="1" fill="none" fill-rule="evenodd">
        <g id="007-tank-top" fill="#487BB4" fill-rule="nonzero">
            <path d="M160.869565,86.9565217 C148.043478,86.9565217 147.826087,65.426087 147.826087,65.2173913 L147.826087,8.69565217 C147.826087,3.9 143.926087,0 139.130435,0 L108.695652,0 C106.295652,0 104.347826,1.94782609 104.347826,4.34782609 L104.347826,11.0086957 C101.630435,13.0521739 94.4913043,17.3913043 82.6086957,17.3913043 C70.7173913,17.3913043 63.5826087,13.0478261 60.8695652,11.0043478 L60.8695652,4.34782609 C60.8695652,1.94782609 58.9217391,0 56.5217391,0 L26.0869565,0 C21.2913043,0 17.3913043,3.9 17.3913043,8.69565217 L17.3913043,65.2130435 C17.3913043,65.426087 17.173913,86.9565217 4.34782609,86.9565217 C1.94782609,86.9565217 0,88.9043478 0,91.3043478 L0,191.3 C0,193.626087 0.904347826,195.808696 2.54347826,197.456522 C4.18695652,199.095652 6.36956522,200 8.69565217,200 L156.521739,200 C161.317391,200 165.217391,196.1 165.217391,191.304348 L165.217391,91.3043478 C165.217391,88.9043478 163.269565,86.9565217 160.869565,86.9565217 Z M60.8695652,21.1478261 C65.7391304,23.626087 72.9782609,26.0869565 82.6086957,26.0869565 C92.2391304,26.0869565 99.4782609,23.626087 104.347826,21.1434783 L104.347826,47.826087 C104.347826,59.8130435 94.5956522,69.5652174 82.6086957,69.5652174 C70.6217391,69.5652174 60.8695652,59.8130435 60.8695652,47.826087 L60.8695652,21.1478261 Z M156.521739,191.304348 L8.69565217,191.304348 L8.69565217,95.1869565 C22.326087,92.1391304 26.0869565,74.7956522 26.0869565,65.2173913 L26.0869565,8.69565217 L52.173913,8.69565217 L52.173913,47.826087 C52.173913,64.6086957 65.826087,78.2608696 82.6086957,78.2608696 C99.3913043,78.2608696 113.043478,64.6086957 113.043478,47.826087 L113.043478,8.69565217 L139.130435,8.69130435 L139.130435,65.2173913 C139.130435,74.7956522 142.891304,92.1391304 156.521739,95.1869565 L156.521739,191.304348 Z" id="Shape"></path>
        </g>
    </g>
</svg>