<?xml version="1.0" encoding="UTF-8"?>
<svg width="202px" height="202px" viewBox="0 0 102 102" version="1.1" xmlns="http://www.w3.org/2000/svg" xmlns:xlink="http://www.w3.org/1999/xlink">
    <!-- Generator: Sketch 53.1 (72631) - https://sketchapp.com -->
    <title>Fill 1</title>
    <desc>Created with Sketch.</desc>
    <g id="design" stroke="none" stroke-width="1" fill="none" fill-rule="evenodd">
        <g id="catalogue-v2" transform="translate(-974.000000, -491.000000)" fill="#4A7CB2" stroke="#4A7CB2">
            <g id="icons" transform="translate(120.000000, 468.000000)">
                <g id="Group-2">
                    <g id="beach-volleyball" transform="translate(813.000000, 0.000000)">
                        <path d="M128.679199,39.9852852 C119.281062,29.8618657 105.839518,24 92.028859,24 C75.533018,24 60.1037257,32.130053 50.7542014,45.7489482 C46.2530039,52.3094693 43.3589581,59.9404478 42.3835276,67.8176657 C42.1287383,69.8635535 42,71.9534127 42,74.0298362 C42,78.8649715 42.6881512,83.6456312 44.046865,88.2401457 C50.1178387,108.767913 68.5669836,123.144336 89.9563441,124.016678 C96.9907783,124.303713 104.070405,123.118686 110.607964,120.495553 C110.621155,120.48969 110.633614,120.482117 110.648026,120.476254 C123.80107,114.730912 134.308261,104.468006 139.170268,90.8185751 C145.35459,73.4601633 141.200766,53.4725108 128.679199,39.9852852 Z M102.191608,28.313098 C102.425389,28.2720581 102.66088,28.2310182 102.897592,28.1919326 C108.221298,29.4485352 113.209112,31.59287 117.769426,34.5794998 C117.681728,34.6005084 117.593785,34.6244483 117.506087,34.6454568 C115.663444,35.0548787 113.838879,35.5844888 112.034344,36.1351075 C111.494474,36.2999999 110.955337,36.4680681 110.421818,36.6427319 C109.651832,36.8936127 109.230928,37.7210064 109.481809,38.490016 C109.732934,39.260247 110.560084,39.6799288 111.330315,39.4300251 C111.864566,39.2553613 112.400772,39.0882702 112.939176,38.9243549 C114.849486,38.3422235 116.801813,37.8172548 118.754139,37.3611745 C118.974729,37.3086532 119.196051,37.2590633 119.416396,37.2084963 C119.934525,37.0922165 120.452654,36.9796011 120.972737,36.8716271 C125.703074,40.5654623 129.737443,45.1878253 132.753875,50.3578755 C129.537129,50.821773 126.313787,51.5736825 123.229687,52.60139 C111.686238,56.4488806 100.927189,63.1913941 92.2255086,71.6803019 C92.1844687,71.7203647 92.1424516,71.7606717 92.1043431,71.7978031 C89.9038228,71.1155147 83.47888,68.9599429 76.0892552,64.9634384 C76.0863238,64.9624612 76.0843695,64.9614841 76.0816823,64.9597741 C75.7572717,64.7812017 75.4309068,64.6048278 75.1064962,64.4243011 C75.1170004,64.4301639 75.7133004,63.5932431 75.7572717,63.5341261 C78.7678415,59.5234531 82.3852155,55.9517604 86.2862045,52.8082995 C90.1967207,49.6565329 94.435556,46.9227382 98.8944922,44.6144881 C101.00536,43.5218008 103.165818,42.5082619 105.369025,41.619064 C106.118247,41.3107762 106.476125,40.4548012 106.167837,39.705823 C105.859549,38.9566006 105.003574,38.5997 104.254596,38.9079878 C102.894661,39.4661793 101.549383,40.0607693 100.22096,40.6905363 C95.626446,42.8651624 91.2293139,45.4606918 87.1326524,48.4715058 C83.7852135,50.9324341 80.6361341,53.6681831 77.7677382,56.6750886 C76.0643381,58.4613014 74.4537663,60.3430297 72.9985599,62.3383505 C72.8515002,62.5415957 72.7044406,62.7448409 72.5615338,62.9500404 C71.0498975,62.0415441 69.569774,61.082725 68.1194532,60.0816446 C65.9963713,58.616911 63.9666063,57.0537306 62.0218524,55.3591247 C61.7641316,55.134871 61.5076323,54.908663 61.25382,54.6807449 C61.26237,54.6663321 61.2718971,54.6509422 61.2804471,54.6367736 C61.4167582,54.4125199 61.5572222,54.1902204 61.698419,53.9686538 C65.4467298,48.1268195 70.4687432,43.1219061 76.1044009,39.0951102 C82.0322235,34.8582292 88.7148871,31.717944 95.7322214,29.7712359 C97.8601891,29.1805545 100.016738,28.6966257 102.191608,28.313098 Z M92.028859,26.9314214 C92.9288054,26.9314214 93.8275304,26.9570713 94.7245453,27.0076384 C94.6920554,27.0161883 94.6605426,27.0266926 94.628297,27.0354869 C94.5288729,27.0630911 94.4326246,27.0926496 94.3341777,27.1202538 C92.0317905,27.784465 89.7672674,28.5688645 87.5476929,29.471498 C78.9329782,32.9870052 71.1090145,38.3754463 64.8110999,45.2298423 C62.6975451,47.5305196 60.7537684,49.9914478 59.0789496,52.6309485 C57.4969592,51.0660581 56.00169,49.4151793 54.6207463,47.668785 C54.3307798,47.3023573 54.046432,46.9322653 53.7677026,46.5582648 C62.6201067,34.2494706 76.8460505,26.9314214 92.028859,26.9314214 Z M46.7701555,87.1095942 C45.549707,82.8783317 44.9304443,78.4792453 44.9304443,74.0298362 C44.9304443,73.1433255 44.9553613,72.2538834 45.0049512,71.3673727 C45.0640682,71.4274668 46.4362177,72.8015706 46.8837481,73.2339553 C52.1322138,78.30849 57.9845523,82.7657162 64.3359654,86.3718531 C67.4476692,88.1380345 70.6768741,89.701215 73.9937774,91.043806 C74.7437328,91.3481852 75.5987307,90.9856661 75.9021328,90.2347337 C76.2057792,89.4845341 75.8430158,88.6305133 75.0930605,88.3271112 C71.9488667,87.0551186 68.8867528,85.5749951 65.9333457,83.9070163 C58.5131853,79.717038 51.8078031,74.3246883 45.9649917,68.131572 C45.7693194,67.9234411 45.5746241,67.7155545 45.380906,67.5057136 C46.2815852,61.0111495 48.5680939,54.7120134 52.041584,49.1344957 C52.1234195,49.2405154 52.2094079,49.345558 52.293442,49.4513335 C56.6666341,54.9831699 62.069488,59.6265414 67.9408808,63.5026134 C70.743564,65.3528288 73.654954,67.0379076 76.6437824,68.5685981 C83.5133242,72.0877695 89.2205573,73.9839106 91.3025994,74.6212504 C91.734984,76.4648702 92.7846772,81.3925896 93.3238144,87.8461138 C93.4706298,89.5609953 93.6167123,91.2995725 93.6167123,93.0220269 C93.6167123,93.0276454 93.6167123,93.0335083 93.6167123,93.0381497 C93.4440027,93.023004 93.261766,93.0056598 93.0680479,92.9856284 C92.1214431,92.88938 91.1538298,92.7577104 90.2042935,92.6086964 C87.6041227,92.1956103 85.0361976,91.6010203 82.5056481,90.8796464 C81.9071495,90.7098682 81.3059638,90.4721788 80.6972053,90.348082 C79.9702128,90.1993123 79.2278304,90.640247 79.0062638,91.3481852 C78.7688186,92.1086448 79.2104861,92.9465428 79.9692357,93.183255 C82.4712038,93.9647231 85.0161662,94.6164758 87.5887328,95.1194589 C88.7930584,95.3549497 90.0049568,95.5564849 91.2214967,95.7186903 C91.9927048,95.8208014 92.7666001,95.9075227 93.5412282,95.9734796 C93.5786038,95.9761668 93.6167123,95.9800753 93.6528665,95.9830068 C93.6518894,96.0382152 93.6518894,96.0936679 93.6511565,96.1488764 C93.6281937,100.681587 93.2493075,105.270483 92.405791,109.74603 C92.3962639,109.798307 92.3857596,109.850829 92.3762325,109.902373 C90.4705643,109.850829 86.4933583,109.585535 81.3719208,108.381454 C79.0157909,107.826926 76.6950823,107.138042 74.4163907,106.324084 C67.0822186,103.701684 60.4244721,99.8629873 54.5205894,94.8568524 C54.5110623,94.8492795 54.500558,94.8407296 54.4910309,94.8321796 C51.8163531,92.5525109 49.3180492,90.0656884 47.024212,87.4044463 C46.9392008,87.3069766 46.8551667,87.2087739 46.7701555,87.1095942 Z M91.1184084,115.19652 C90.5545984,117.163259 89.8684015,119.136594 89.0708106,121.0364 C71.8247699,119.966675 56.7382097,109.566481 49.4726817,94.2500481 C50.1654743,94.9152365 50.8724354,95.5640578 51.5920994,96.1994434 C57.6132389,101.519485 64.4055866,105.640819 71.8982997,108.51581 C74.2695753,109.425284 76.6904408,110.209683 79.1484377,110.848 C84.7765225,112.314688 89.3072786,112.714583 91.7464654,112.81474 C91.5537245,113.613552 91.3455936,114.407479 91.1184084,115.19652 Z M109.010583,117.703374 C108.974185,117.807439 108.937053,117.91126 108.900655,118.015326 C103.576949,120.060236 97.9632774,121.106998 92.2025458,121.12703 C92.2570213,120.990718 92.3102755,120.853186 92.3627968,120.715898 C97.6129725,107.085521 97.5453055,91.5113677 94.8696507,77.3208453 C94.6568783,76.1910266 94.4230975,75.0651165 94.158781,73.9458021 C94.1548724,73.9323664 94.1509638,73.9162436 94.1482767,73.9037851 C95.3618852,72.7185137 98.4765204,69.8063908 102.966237,66.5197788 C102.977718,66.512206 102.988222,66.503656 102.999704,66.4960832 C104.86995,65.1315065 106.80249,63.6552916 108.852042,62.5721314 C108.894059,62.5540543 109.586852,64.4321182 109.662336,64.640982 C114.226315,77.3027682 114.880022,91.3787209 112.476256,104.561567 C111.663275,109.022702 110.490462,113.41788 109.010583,117.703374 Z M129.786055,99.1711718 C129.46653,100.653982 129.104744,102.12922 128.695566,103.590045 C128.381416,103.979436 128.053341,104.373468 127.716472,104.764812 C127.706945,104.776294 127.69644,104.788752 127.686913,104.800967 C123.480568,109.670546 118.283891,113.653615 112.517296,116.446527 C112.56029,116.312903 112.600353,116.179523 112.64237,116.046876 C113.659573,112.804236 114.504067,109.507364 115.154842,106.172383 C116.694083,98.2941882 117.14259,90.2183666 116.411445,82.2229147 C115.755051,75.035558 114.264423,67.7575715 111.424609,61.099825 C111.41899,61.0863893 111.412394,61.0712436 111.406532,61.0578079 C111.687215,60.8995112 111.967655,60.7419473 112.251025,60.5863376 C115.365661,58.8763418 118.597797,57.3754541 121.934732,56.1510971 C122.918468,55.7905322 123.910998,55.4546402 124.911834,55.1443981 C124.963378,55.1378024 125.110438,55.5643242 125.134378,55.6195326 C128.01792,62.1390138 129.98759,69.0019599 130.843566,76.0823197 C131.770139,83.7658195 131.41788,91.6049289 129.786055,99.1711718 Z M133.207024,96.9276573 C133.216551,96.875136 133.223391,96.8226147 133.232918,96.7700934 C134.117475,91.5990661 134.446771,86.3347218 134.203219,81.0940732 C133.969438,76.0764569 133.217528,71.0800934 131.968498,66.2144224 C130.927355,62.1646638 129.542747,58.2018706 127.800506,54.4000613 C127.790734,54.3810071 127.782184,54.3599986 127.772657,54.3409443 C127.925336,54.3018587 128.078014,54.261796 128.230692,54.2244203 C129.739397,53.8562827 131.261537,53.5584991 132.794915,53.3171454 C133.005733,53.2836784 133.969438,53.1510315 134.240594,53.1185416 C137.439997,59.5710887 139.127274,66.7784768 139.127274,74.0298362 C139.127274,82.1828519 137.098486,89.9731043 133.207024,96.9276573 Z" id="Fill-1"></path>
                    </g>
                </g>
            </g>
        </g>
    </g>
</svg>