<?xml version="1.0" encoding="UTF-8"?>
<svg width="182px" height="200px" viewBox="0 0 182 200" version="1.1" xmlns="http://www.w3.org/2000/svg" xmlns:xlink="http://www.w3.org/1999/xlink">
    <!-- Generator: Sketch 53.2 (72643) - https://sketchapp.com -->
    <title>036-shopping-bag</title>
    <desc>Created with Sketch.</desc>
    <g id="Page-1" stroke="none" stroke-width="1" fill="none" fill-rule="evenodd">
        <g id="036-shopping-bag" fill="#4A7CB2" fill-rule="nonzero">
            <path d="M181.614907,194.534161 L166.708075,55.6521739 C166.459627,53.4161491 164.47205,51.6770186 162.236025,51.6770186 L134.658385,51.6770186 L134.658385,43.2298137 C134.658385,19.378882 115.279503,0 91.4285714,0 C67.5776398,0 48.1987578,19.378882 48.1987578,43.2298137 L48.1987578,51.6770186 L19.8757764,51.6770186 C17.6397516,51.6770186 15.6521739,53.4161491 15.4037267,55.6521739 L0.49689441,194.534161 C0.248447205,195.776398 0.745341615,197.018634 1.49068323,198.012422 C2.23602484,199.006211 3.47826087,199.503106 4.72049689,199.503106 L177.391304,199.503106 C178.63354,199.503106 179.875776,199.006211 180.621118,198.012422 C181.36646,197.018634 181.863354,195.776398 181.614907,194.534161 Z M130.186335,76.7701863 C132.42236,76.7701863 134.161491,78.5093168 134.161491,80.7453416 C134.161491,82.9813665 132.42236,84.7204969 130.186335,84.7204969 C127.950311,84.7204969 126.21118,82.9813665 126.21118,80.7453416 C126.21118,78.5093168 127.950311,76.7701863 130.186335,76.7701863 Z M57.1428571,43.2298137 C57.1428571,24.3478261 72.5465839,8.94409938 91.4285714,8.94409938 C110.310559,8.94409938 125.714286,24.3478261 125.714286,43.2298137 L125.714286,51.6770186 L57.1428571,51.6770186 L57.1428571,43.2298137 Z M52.6708075,76.7701863 C54.9068323,76.7701863 56.6459627,78.5093168 56.6459627,80.7453416 C56.6459627,82.9813665 54.9068323,84.7204969 52.6708075,84.7204969 C50.4347826,84.7204969 48.6956522,82.9813665 48.6956522,80.7453416 C48.6956522,78.5093168 50.4347826,76.7701863 52.6708075,76.7701863 Z M9.9378882,190.310559 L23.8509317,60.3726708 L48.1987578,60.3726708 L48.1987578,68.5714286 C43.2298137,70.310559 39.7515528,75.0310559 39.7515528,80.4968944 C39.7515528,87.4534161 45.4658385,93.1677019 52.4223602,93.1677019 C59.378882,93.1677019 65.0931677,87.4534161 65.0931677,80.4968944 C65.0931677,75.0310559 61.6149068,70.310559 56.6459627,68.5714286 L56.6459627,60.3726708 L125.217391,60.3726708 L125.217391,68.5714286 C120.248447,70.310559 116.770186,75.0310559 116.770186,80.4968944 C116.770186,87.4534161 122.484472,93.1677019 129.440994,93.1677019 C136.397516,93.1677019 142.111801,87.4534161 142.111801,80.4968944 C142.111801,75.0310559 138.63354,70.310559 133.664596,68.5714286 L133.664596,60.3726708 L159.006211,60.3726708 L172.919255,190.310559 L9.9378882,190.310559 Z" id="Shape"></path>
        </g>
    </g>
</svg>