<?xml version="1.0" encoding="UTF-8"?>
<svg width="200px" height="174px" viewBox="0 0 200 174" version="1.1" xmlns="http://www.w3.org/2000/svg" xmlns:xlink="http://www.w3.org/1999/xlink">
    <!-- Generator: Sketch 53.2 (72643) - https://sketchapp.com -->
    <title>home-icon__score-tables</title>
    <desc>Created with Sketch.</desc>
    <defs>
        <polygon id="path-1" points="0.0319148936 0.211180341 200 0.211180341 200 171.704475 0.0319148936 171.704475"></polygon>
    </defs>
    <g id="Page-1" stroke="none" stroke-width="1" fill="none" fill-rule="evenodd">
        <g id="home-icon__score-tables">
            <path d="M64.2276422,154.445528 C62.8813008,154.445528 61.7886179,155.754309 61.7886179,157.372358 L61.7886179,166.152845 C61.7886179,167.768456 62.8813008,169.079675 64.2276422,169.079675 C65.5739837,169.079675 66.6666667,167.768456 66.6666667,166.152845 L66.6666667,157.372358 C66.6666667,155.754309 65.5739837,154.445528 64.2276422,154.445528 Z" id="Fill-1" fill="#4A7CB2" fill-rule="nonzero"></path>
            <path d="M134.146341,154.445528 C132.8,154.445528 131.707317,155.899729 131.707317,157.697561 L131.707317,170.705691 C131.707317,172.500813 132.8,173.957723 134.146341,173.957723 C135.492683,173.957723 136.585366,172.500813 136.585366,170.705691 L136.585366,157.697561 C136.585366,155.899729 135.492683,154.445528 134.146341,154.445528 Z" id="Fill-2" fill="#4A7CB2" fill-rule="nonzero"></path>
            <path d="M27.5958189,134.933333 L170.778165,134.933333 C172.547642,134.933333 173.983739,133.50444 173.983739,131.74384 L173.983739,82.8382739 C173.983739,81.0750157 172.547642,79.6487805 170.778165,79.6487805 L148.606272,79.6487805 C146.836794,79.6487805 145.400697,81.0750157 145.400697,82.8382739 C145.400697,84.5988742 146.836794,86.0277674 148.606272,86.0277674 L167.57259,86.0277674 L167.57259,128.554346 L30.8013938,128.554346 L30.8013938,86.0277674 L135.783972,86.0277674 C137.553449,86.0277674 138.989547,84.5988742 138.989547,82.8382739 C138.989547,81.0750157 137.553449,79.6487805 135.783972,79.6487805 L27.5958189,79.6487805 C25.8263414,79.6487805 24.3902438,81.0750157 24.3902438,82.8382739 L24.3902438,131.74384 C24.3902438,133.50444 25.8263414,134.933333 27.5958189,134.933333 Z" id="Fill-5" fill="#4A7CB2" fill-rule="nonzero"></path>
            <g id="Group-9">
                <g id="Fill-6-Clipped">
                    <mask id="mask-2" fill="white">
                        <use xlink:href="#path-1"></use>
                    </mask>
                    <g id="path-1"></g>
                    <path d="M69.3898936,46.4713483 C71.1457446,46.6103666 72.6851064,45.3066728 72.8265957,43.553027 L75.0271277,16.3452523 C75.4547872,11.0514175 80.3148936,6.57842682 85.6382979,6.57842682 L114.361702,6.57842682 C119.685106,6.57842682 124.545213,11.0514175 124.972872,16.3452523 L127.173404,43.553027 C127.306383,45.2196539 128.704787,46.4819605 130.350532,46.4819605 C130.435638,46.4819605 130.522872,46.4777157 130.610106,46.4713483 C132.365957,46.3280853 133.676596,44.7946402 133.533511,43.0409944 L131.335106,15.8332196 C130.639362,7.21886568 123.023936,0.211180341 114.361702,0.211180341 L85.6382979,0.211180341 C76.9760638,0.211180341 69.3606382,7.21886568 68.6648936,15.8332196 L66.4664894,43.0409944 C66.3234043,44.7946402 67.6340426,46.3280853 69.3898936,46.4713483 Z" id="Fill-6" fill="#4A7CB2" fill-rule="nonzero" mask="url(#mask-2)"></path>
                </g>
                <g id="Fill-8-Clipped" transform="translate(0.000000, 52.800000)" fill="#4A7CB2" fill-rule="nonzero">
                    <path d="M196.80851,0.04920688 C198.570213,0.04920688 200,1.47281712 200,3.23283024 L200,15.967323 C200,17.7246832 198.570213,19.1509464 196.80851,19.1509464 L187.234043,19.1509464 L187.234043,115.720851 C187.234043,117.478211 185.804256,118.904475 184.042554,118.904475 C182.280851,118.904475 180.851064,117.478211 180.851064,115.720851 L180.851064,93.4354885 L19.1489362,93.4354885 L19.1489362,115.720851 C19.1489362,117.478211 17.719149,118.904475 15.9574468,118.904475 C14.1957447,118.904475 12.7659574,117.478211 12.7659574,115.720851 L12.7659574,19.1509464 L3.19148936,19.1509464 C1.42978723,19.1509464 0,17.7246832 0,15.967323 L0,3.23283024 C0,1.47281712 1.42978723,0.04920688 3.19148936,0.04920688 L151.06383,0.04920688 L174.468085,0.04920688 L196.80851,0.04920688 Z M19.1489362,87.0682421 L180.851064,87.0682421 L180.851064,19.1509464 L19.1489362,19.1509464 L19.1489362,87.0682421 Z M6.38297872,12.7836998 L193.617021,12.7836998 L193.617021,6.41645344 L6.38297872,6.41645344 L6.38297872,12.7836998 Z" id="Fill-8"></path>
                </g>
            </g>
        </g>
    </g>
</svg>