<?xml version="1.0" encoding="UTF-8"?>
<svg width="200px" height="76px" viewBox="0 0 200 76" version="1.1" xmlns="http://www.w3.org/2000/svg" xmlns:xlink="http://www.w3.org/1999/xlink">
    <!-- Generator: Sketch 53.2 (72643) - https://sketchapp.com -->
    <title>043-sunglasses</title>
    <desc>Created with Sketch.</desc>
    <g id="Page-1" stroke="none" stroke-width="1" fill="none" fill-rule="evenodd">
        <g id="043-sunglasses" fill="#4A7CB2" fill-rule="nonzero">
            <path d="M76.7705882,12.4487395 C61.4184874,9.19327731 45.1768908,8.7407563 28.497479,11.1037815 C24.9247899,11.610084 21.792437,13.4953782 19.6768908,16.4134454 C17.5710084,19.3176471 16.7558824,22.8609244 17.3815126,26.389916 C17.6663866,27.9957983 17.947479,29.4970588 18.2168067,30.8512605 C19.4344538,36.9714286 20.7554622,42.4886555 22.1432773,47.25 C24.2613445,54.5163866 30.1096639,59.9533613 37.4113445,61.439916 L37.9142857,61.5411765 C40.6705882,62.0840336 43.4819328,62.3592437 46.2697479,62.3592437 C64.862605,62.3592437 81.3836134,50.462605 87.3802521,32.7558824 L87.7445378,31.6789916 C89.0970588,27.6798319 88.6739496,23.2831933 86.5844538,19.6155462 C84.4911765,15.9390756 80.9134454,13.3268908 76.7705882,12.4487395 Z M83.757563,30.3554622 L83.4012605,31.407563 C77.9827731,47.4071429 63.0609244,58.1571429 46.2701681,58.1571429 C43.7542017,58.1571429 41.2163866,57.9084034 38.7348739,57.4197479 L38.244958,57.3214286 C32.4815126,56.1483193 27.8571429,51.8382353 26.1773109,46.0739496 C24.8235294,41.4294118 23.5319328,36.0319328 22.3378151,30.0310924 C22.0739496,28.7054622 21.7983193,27.2336134 21.5189076,25.6567227 C21.0941176,23.2596639 21.6478992,20.8529412 23.0785714,18.8798319 C24.5189076,16.8928571 26.6529412,15.6092437 29.0865546,15.2642857 C45.2781513,12.9705882 61.0281513,13.4063025 75.8987395,16.5592437 C78.8689076,17.1890756 81.4331933,19.0613445 82.9344538,21.6953782 C84.4306723,24.3210084 84.7336134,27.4693277 83.757563,30.3554622 Z" id="Shape"></path>
            <path d="M75.4453782,18.6983193 C67.0403361,16.9159664 58.2092437,16.0121849 49.1978992,16.0121849 C46.8092437,16.0121849 44.3647059,16.0777311 41.9323529,16.2067227 C40.7739496,16.2680672 39.8844538,17.2571429 39.9457983,18.4159664 C40.0071429,19.5747899 40.9991597,20.4621849 42.155042,20.402521 C44.5134454,20.2773109 46.8827731,20.2138655 49.1978992,20.2138655 C57.9168067,20.2138655 66.4542017,21.0869748 74.5739496,22.8084034 C75.7789916,23.0638655 76.7768908,23.7915966 77.3844538,24.857563 C77.9869748,25.9151261 78.1037815,27.1327731 77.7138655,28.2861345 C77.3420168,29.3852941 77.9319328,30.5777311 79.0310924,30.9491597 C79.2542017,31.0247899 79.4810924,31.0605042 79.7042017,31.0605042 C80.5802521,31.0605042 81.3978992,30.5079832 81.6941176,29.6319328 C82.4739496,27.3260504 82.239916,24.8920168 81.0352941,22.7773109 C79.8252101,20.6546218 77.839916,19.2058824 75.4453782,18.6983193 Z" id="Path"></path>
            <path d="M181.369328,30.8508403 C181.638235,29.4978992 181.919328,27.9970588 182.204202,26.3894958 C182.829832,22.8605042 182.014706,19.3172269 179.909244,16.4134454 C177.793697,13.4953782 174.660924,11.6096639 171.088235,11.1037815 C154.408824,8.74117647 138.167227,9.19369748 122.815546,12.4487395 C118.672689,13.3268908 115.094958,15.9390756 113.00084,19.6151261 C110.911345,23.2827731 110.488655,27.6794118 111.840336,31.6777311 L112.205042,32.7554622 C118.201261,50.4621849 134.722689,62.3588235 153.315546,62.3588235 C156.103361,62.3588235 158.914286,62.0836134 161.678571,61.5390756 L162.178571,61.4386555 C169.47521,59.9533613 175.32395,54.5163866 177.441597,47.25 C178.829412,42.4915966 180.15084,36.9743697 181.369328,30.8508403 Z M173.408824,46.0739496 C171.728571,51.8382353 167.104622,56.1478992 161.346218,57.3201681 L160.858824,57.4180672 C158.369748,57.9084034 155.831933,58.1571429 153.315966,58.1571429 C136.52521,58.1571429 121.603361,47.407563 116.184874,31.407563 L115.821429,30.3323529 C114.852941,27.4689076 115.155882,24.3205882 116.652101,21.6945378 C118.152941,19.060084 120.717647,17.1882353 123.687815,16.5584034 C132.305042,14.7315126 141.215546,13.8168067 150.337815,13.8168067 C156.957983,13.8168067 163.690756,14.2987395 170.49958,15.2634454 C172.933613,15.6084034 175.067647,16.892437 176.507983,18.8789916 C177.938655,20.8521008 178.492857,23.2588235 178.068067,25.655042 C177.787815,27.2336134 177.512185,28.7058824 177.248739,30.0298319 C176.053782,36.0348739 174.761765,41.4323529 173.408824,46.0739496 Z" id="Shape"></path>
            <path d="M170.192857,17.4289916 C163.555462,16.4890756 156.892437,16.0121849 150.388235,16.0121849 C147.868487,16.0121849 145.328992,16.0840336 142.840336,16.2256303 C141.681933,16.2915966 140.796639,17.2840336 140.862185,18.442437 C140.928151,19.6008403 141.918908,20.4890756 143.078992,20.4205882 C145.488235,20.2836134 147.947479,20.2138655 150.388235,20.2138655 C156.695798,20.2138655 163.160504,20.6764706 169.603361,21.5890756 C170.306303,21.6886555 170.921429,22.0579832 171.335714,22.6294118 C171.745798,23.194958 171.898319,23.8558824 171.777311,24.5407563 C171.57479,25.6831933 172.336555,26.7735294 173.479412,26.9760504 C173.603361,26.9978992 173.726471,27.0088235 173.848319,27.0088235 C174.847899,27.0088235 175.734034,26.292437 175.914286,25.2743697 C176.234874,23.4668067 175.816807,21.6516807 174.737395,20.1634454 C173.648319,18.6605042 172.034454,17.6894958 170.192857,17.4289916 Z" id="Path"></path>
            <path d="M199.095798,70.7689076 L182.793697,51.3210084 C183.085294,50.5760504 183.348319,49.8155462 183.57521,49.037395 C186.818487,37.9113445 188.905042,25.5058824 189.616387,20.9415966 L193.770588,20.9415966 C194.931092,20.9415966 195.871429,20.0008403 195.871429,18.8407563 L195.871429,8.6197479 C195.871429,7.68865546 195.258403,6.86848739 194.365126,6.60462185 C155.344538,-4.90630252 125.261765,1.33571429 110.803782,6.08193277 C103.60084,8.44621849 95.9861345,8.44663866 88.7823529,6.08193277 C74.3243697,1.33613445 44.2432773,-4.90672269 5.2210084,6.60462185 C4.32773109,6.86806723 3.71470588,7.68865546 3.71470588,8.6197479 L3.71470588,18.8407563 C3.71470588,20.0008403 4.65546218,20.9415966 5.81554622,20.9415966 L9.9697479,20.9415966 C10.6810924,25.5058824 12.7680672,37.9113445 16.0109244,49.0378151 C16.2378151,49.8159664 16.5008403,50.5764706 16.792437,51.3214286 L0.490756303,70.7689076 C0.0962184874,71.239916 -0.0726890756,71.860084 0.0289915966,72.4663866 C0.131092437,73.0722689 0.492857143,73.6037815 1.02016807,73.9197479 C3.33697479,75.310084 5.89495798,75.9865546 8.4302521,75.9865546 C12.2369748,75.9865546 15.9911765,74.4592437 18.7941176,71.5268908 L26.4331933,63.5336134 C29.3605042,65.5592437 32.7147059,67.010084 36.3403361,67.739916 L36.6802521,67.807563 C39.8647059,68.4352941 43.0466387,68.7382353 46.1957983,68.7378151 C64.5365546,68.7369748 81.6558824,58.45 90.2932773,42.1004202 L108.087395,39.6357143 C116.255042,57.4084034 134.146218,68.7386555 153.391176,68.7378151 C156.538235,68.7378151 159.723109,68.4348739 162.906303,67.807563 L163.201681,67.7487395 C166.844118,67.0172269 170.212185,65.5621849 173.15042,63.5294118 L180.792857,71.5264706 C183.595798,74.4592437 187.34958,75.9861345 191.156723,75.9861345 C193.691597,75.9861345 196.25,75.3088235 198.566807,73.9193277 C199.094118,73.6029412 199.455882,73.0718487 199.557563,72.4659664 C199.659244,71.860084 199.490336,71.239916 199.095798,70.7689076 Z M15.7563025,68.6243697 C13.0495798,71.4563025 9.08991597,72.4352941 5.49159664,71.3436975 L18.8235294,55.4390756 C20.0361345,57.4420168 21.4987395,59.2642857 23.1701681,60.8663866 L15.7563025,68.6243697 Z M92.3932773,37.5680672 C92.7617647,36.6605042 93.1138655,35.742437 93.4315126,34.8046218 C94.510084,31.6197479 95.4621849,28.7920168 96.1760504,26.6647059 C96.6978992,25.1096639 98.1516807,24.0647059 99.7928571,24.0647059 C101.434034,24.0647059 102.887815,25.1096639 103.409664,26.6647059 C104.123529,28.7915966 105.07563,31.6193277 106.154202,34.8042017 C106.247479,35.0794118 106.351681,35.3483193 106.44916,35.6210084 L92.3932773,37.5680672 Z M162.376471,63.6294118 L162.094118,63.6852941 C139.796639,68.0802521 117.459244,55.0840336 110.134034,33.4567227 C109.057143,30.2760504 108.106723,27.4516807 107.393697,25.3277311 C106.296218,22.0592437 103.242017,19.8634454 99.7932773,19.8634454 C96.3445378,19.8634454 93.289916,22.0596639 92.1932773,25.3277311 C91.4802521,27.4516807 90.5294118,30.2760504 89.4521008,33.4567227 C82.1273109,55.0844538 59.7886555,68.0798319 37.4920168,63.6852941 L37.1701681,63.6210084 C28.9584034,61.9680672 22.3966387,55.9298319 20.044958,47.8621849 C16.0865546,34.2823529 13.8802521,18.7054622 13.8584034,18.5495798 C13.7130252,17.5121849 12.8256303,16.739916 11.7777311,16.739916 L7.91638655,16.739916 L7.91638655,10.1978992 C45.1092437,-0.393697479 73.6647059,5.54117647 87.4718487,10.0739496 C95.5327731,12.7205882 104.054202,12.7197479 112.114286,10.0739496 C125.921429,5.54201681 154.478571,-0.392857143 191.669748,10.1978992 L191.669748,16.739916 L187.808403,16.739916 C186.760924,16.739916 185.873109,17.5117647 185.727731,18.5495798 C185.705882,18.7054622 183.502941,34.2718487 179.542017,47.8617647 C177.188655,55.9340336 170.610504,61.9760504 162.376471,63.6294118 Z M183.830252,68.6243697 L176.413445,60.8634454 C178.085294,59.2613445 179.548739,57.439916 180.761765,55.4378151 L194.094958,71.3441176 C190.497059,72.4357143 186.536555,71.4563025 183.830252,68.6243697 Z" id="Shape"></path>
        </g>
    </g>
</svg>