<?xml version="1.0" encoding="UTF-8"?>
<svg width="200px" height="182px" viewBox="0 0 200 182" version="1.1" xmlns="http://www.w3.org/2000/svg" xmlns:xlink="http://www.w3.org/1999/xlink">
    <!-- Generator: Sketch 54.1 (76490) - https://sketchapp.com -->
    <title>015-helmet</title>
    <desc>Created with Sketch.</desc>
    <g id="Page-1" stroke="none" stroke-width="1" fill="none" fill-rule="evenodd">
        <g id="015-helmet" fill="#487BB4" fill-rule="nonzero">
            <path d="M81.5994262,169.34967 L75.7400512,169.34967 L75.7400512,163.490295 L81.5994262,163.490295 L81.5994262,169.34967 Z M71.8338012,169.34967 L65.9744262,169.34967 L65.9744262,163.490295 L71.8338012,163.490295 L71.8338012,169.34967 Z" id="Shape"></path>
            <path d="M183.999634,108.221436 L140.614319,108.221436 L133.731079,83.8180543 L178.181457,66.4657594 L177.375793,63.8626098 C166.096496,27.3986816 131.996155,0 90.7089234,0 C40.5303953,0 0.00152587891,40.3411867 5.68434189e-14,90.5548094 C5.68434189e-14,119.126892 6.72454844,141.920471 12.3657227,156.011963 C15.6890867,164.312744 20.4010008,174.043274 25.7476805,181.417847 L113.026428,181.417847 C134.895325,181.417847 148.76709,157.933045 138.290405,138.851929 L143.167114,138.851929 L155.046082,180.970764 L187.921143,180.970764 L200,168.890381 L200,121.554566 L183.999634,108.221436 Z M181.877136,114.080811 L194.140625,124.299621 L194.140625,132.992554 L147.601318,132.992554 L142.266846,114.080811 L181.877136,114.080811 Z M134.526062,108.221436 L122.389221,108.221436 L104.56543,99.308777 C106.401062,96.0174563 109.353638,93.3334352 113.119507,91.8640137 L128.24707,85.9588625 L134.526062,108.221436 Z M113.026428,175.558472 L28.7979125,175.558472 C24.6185305,169.151306 5.85784922,137.75177 5.859375,90.5548094 C5.86090078,43.8537598 43.92395,5.859375 90.7089234,5.859375 C127.233887,5.859375 159.135437,28.7109375 170.933533,63.005066 L110.98938,86.4044188 C100.18158,90.6234742 94.3359375,102.244568 97.392273,113.438416 C99.7283938,121.994019 106.896973,128.424072 115.655518,129.818726 L116.635132,129.974365 C125.970459,131.462097 133.54187,138.677979 135.475159,147.930908 C138.456726,162.191773 127.565002,175.558472 113.026428,175.558472 Z M134.039307,132.992554 C129.745484,128.405762 123.986816,125.213623 117.556763,124.188232 L116.578674,124.032593 C107.463074,122.579956 101.234436,113.993836 102.642822,104.898071 L121.005249,114.080811 L136.178589,114.080811 L141.513062,132.992554 L134.039307,132.992554 Z M185.493469,175.111389 L159.480286,175.111389 L149.253845,138.851929 L194.140625,138.851929 L194.140625,166.464234 L185.493469,175.111389 Z" id="Shape"></path>
            <path d="M55.9173586,139.5401 C68.0068969,139.5401 77.8427125,129.702759 77.8427125,117.61322 C77.8427125,105.523682 68.0068969,95.6878664 55.9173586,95.6878664 C43.8262937,95.6878664 33.9904785,105.523682 33.9904785,117.61322 C33.9904785,129.702759 43.8262937,139.5401 55.9173586,139.5401 Z M55.9173586,101.547241 C64.7750855,101.547241 71.9833375,108.753967 71.9833375,117.61322 C71.9833375,126.472473 64.7750855,133.680725 55.9173586,133.680725 C47.0581055,133.680725 39.8498535,126.472473 39.8498535,117.61322 C39.8498535,108.753967 47.0581055,101.547241 55.9173586,101.547241 Z" id="Shape"></path>
            <path d="M60.5484008,76.4083863 L64.5614625,79.3228148 L81.5994262,66.9448852 L98.6358641,79.3228148 L102.648926,76.4083863 L96.1410523,56.3796996 L113.179016,44.0002441 L111.647034,39.2837523 L90.5868531,39.2837523 L84.0789797,19.255066 L79.1183473,19.255066 L72.6119996,39.2837523 L51.5518188,39.2837523 L50.0183105,44.0002441 L67.0562742,56.3796996 L60.5484008,76.4083863 Z M61.5585328,45.1431273 L76.8676758,45.1431273 L81.5979004,30.5816648 L86.3296508,45.1431273 L101.638794,45.1431273 L89.2532348,54.1412352 L93.9834594,68.7011719 L81.5979004,59.7030641 L69.2123414,68.7011719 L73.942566,54.1412352 L61.5585328,45.1431273 Z" id="Shape"></path>
            <polygon id="Path" points="24.5697023 151.423645 129.8172 151.423645 129.8172 157.28302 24.5697023 157.28302"></polygon>
        </g>
    </g>
</svg>