<?xml version="1.0" encoding="UTF-8"?>
<svg width="200px" height="174px" viewBox="0 0 200 174" version="1.1" xmlns="http://www.w3.org/2000/svg" xmlns:xlink="http://www.w3.org/1999/xlink">
    <!-- Generator: Sketch 54.1 (76490) - https://sketchapp.com -->
    <title>Group 2</title>
    <desc>Created with Sketch.</desc>
    <g id="Page-1" stroke="none" stroke-width="1" fill="none" fill-rule="evenodd">
        <g id="Group-2" transform="translate(0.500000, 0.500000)" fill="#487BB4" fill-rule="nonzero">
            <path d="M99.6291644,84.7208838 C76.2680874,84.7208838 57.2687225,65.7215189 57.2687225,42.3604419 C57.2687225,18.9993649 76.2680874,0 99.6291644,0 C115.638675,0 130.083679,9.00512272 137.306074,23.0102216 C142.521125,33.1642059 143.406267,45.1912849 139.73083,55.9950219 C138.73281,58.9285527 137.406246,61.7544833 135.775359,64.4293011 C128.120706,76.9244863 114.529375,84.7208838 99.6291644,84.7208838 Z M99.6291644,76.7913684 C111.738804,76.7913684 122.784765,70.4550717 129.009401,60.2942127 C130.335045,58.1200105 131.41399,55.8215734 132.223852,53.4411035 C135.206726,44.6731176 134.485634,34.8751091 130.255491,26.6387816 C124.382456,15.2502654 112.639333,7.92951542 99.6291644,7.92951542 C80.6474378,7.92951542 65.1982379,23.3787153 65.1982379,42.3604419 C65.1982379,61.3421685 80.6474378,76.7913684 99.6291644,76.7913684 Z" id="Path"></path>
            <path d="M42.3604419,172.826611 C18.9993649,172.826611 -5.68434189e-14,153.827246 -5.68434189e-14,130.466169 C-5.68434189e-14,107.105092 18.9993649,88.1057269 42.3604419,88.1057269 C58.3699526,88.1057269 72.8149567,97.1108496 80.0373515,111.115948 C85.2524024,121.269933 86.1375447,133.297012 82.4621078,144.100749 C81.4640872,147.03428 80.1375237,149.86021 78.5066363,152.535028 C70.851983,165.030213 57.2606525,172.826611 42.3604419,172.826611 Z M42.3604419,164.897095 C54.470081,164.897095 65.5160421,158.560799 71.7406781,148.39994 C73.0663223,146.225737 74.145267,143.9273 74.95513,141.54683 C77.9380033,132.778844 77.2169112,122.980836 72.9867682,114.744509 C67.1137337,103.355992 55.3706107,96.0352423 42.3604419,96.0352423 C23.3787153,96.0352423 7.92951542,111.484442 7.92951542,130.466169 C7.92951542,149.447895 23.3787153,164.897095 42.3604419,164.897095 Z" id="Path"></path>
            <path d="M156.897887,172.826611 C133.53681,172.826611 114.537445,153.827246 114.537445,130.466169 C114.537445,107.105092 133.53681,88.1057269 156.897887,88.1057269 C172.907398,88.1057269 187.352402,97.1108496 194.574796,111.115948 C199.789847,121.269933 200.67499,133.297012 196.999553,144.100749 C196.001532,147.03428 194.674969,149.86021 193.044081,152.535028 C185.389428,165.030213 171.798097,172.826611 156.897887,172.826611 Z M156.897887,164.897095 C169.007526,164.897095 180.053487,158.560799 186.278123,148.39994 C187.603767,146.225737 188.682712,143.9273 189.492575,141.54683 C192.475448,132.778844 191.754356,122.980836 187.524213,114.744509 C181.651179,103.355992 169.908056,96.0352423 156.897887,96.0352423 C137.91616,96.0352423 122.46696,111.484442 122.46696,130.466169 C122.46696,149.447895 137.91616,164.897095 156.897887,164.897095 Z" id="Path"></path>
        </g>
    </g>
</svg>