<?xml version="1.0" encoding="UTF-8"?>
<svg width="196px" height="198px" viewBox="0 0 196 198" version="1.1" xmlns="http://www.w3.org/2000/svg" xmlns:xlink="http://www.w3.org/1999/xlink">
    <!-- Generator: Sketch 53.2 (72643) - https://sketchapp.com -->
    <title>003-rugby</title>
    <desc>Created with Sketch.</desc>
    <g id="Page-1" stroke="none" stroke-width="1" fill="none" fill-rule="evenodd">
        <g id="003-rugby" fill="#4A7CB2" fill-rule="nonzero">
            <path d="M43.4666667,96.2491228 C40.2245614,100.694737 37.1333333,105.17193 34.3824561,109.631579 C32.8526316,112.105263 33.6210526,115.347368 36.0947368,116.873684 C36.9578947,117.407018 37.9122807,117.659649 38.8561404,117.659649 C40.6210526,117.659649 42.3438596,116.77193 43.3368421,115.161404 C45.6701754,111.378947 48.277193,107.578947 50.9929825,103.789474 L57.1157895,109.922807 C58.1438596,110.954386 59.4947368,111.470175 60.8421053,111.470175 C62.1859649,111.470175 63.5333333,110.957895 64.5578947,109.933333 C66.6175439,107.880702 66.6245614,104.547368 64.5719298,102.487719 L57.3719298,95.277193 C61.5964912,89.9403509 66.1719298,84.6877193 71.0561404,79.5789474 L81.8912281,90.4175439 C82.9192982,91.445614 84.2666667,91.9578947 85.6140351,91.9578947 C86.9614035,91.9578947 88.3087719,91.445614 89.3368421,90.4175439 C91.3929825,88.3614035 91.3929825,85.0280702 89.3368421,82.9754386 L78.5017544,72.1403509 C83.5789474,67.2947368 88.8350877,62.722807 94.2210526,58.4666667 L102.978947,67.2210526 C104.007018,68.2491228 105.354386,68.7614035 106.701754,68.7614035 C108.049123,68.7614035 109.396491,68.2491228 110.424561,67.2210526 C112.480702,65.1649123 112.480702,61.8315789 110.424561,59.7789474 L102.722807,52.077193 C106.389474,49.4421053 110.164912,46.845614 114.136842,44.3684211 C116.603509,42.8315789 117.354386,39.5824561 115.817544,37.1157895 C114.280702,34.6491228 111.031579,33.8982456 108.568421,35.4350877 C103.891228,38.3508772 99.4561404,41.4245614 95.1929825,44.5438596 L87.5649123,36.9192982 C85.5087719,34.8631579 82.1789474,34.8631579 80.122807,36.9192982 C78.0666667,38.9719298 78.0666667,42.3087719 80.122807,44.3614035 L86.7298246,50.9684211 C81.3684211,55.2526316 76.1298246,59.845614 71.0631579,64.6982456 L62.8982456,56.5333333 C60.8421053,54.477193 57.5122807,54.4807018 55.4561404,56.5333333 C53.4,58.5894737 53.4,61.922807 55.4561404,63.9789474 L63.6210526,72.1438596 C58.7403509,77.2385965 54.1438596,82.4666667 49.8912281,87.7824561 L43.322807,81.2035088 C41.2666667,79.1473684 37.9368421,79.1473684 35.8807018,81.2035088 C33.8245614,83.2561404 33.8245614,86.5894737 35.8807018,88.645614 L43.4666667,96.2491228 L43.4666667,96.2491228 Z" id="Path"></path>
            <path d="M186.736842,8.14035088 C186,7.89473684 185.45614,7.65263158 184.85614,7.49824561 C168.459649,2.53333333 152.315789,-0.0842105263 135.319298,0.877192982 C135.192982,0.884210526 128.480702,1.3754386 125.263158,1.78596491 C122.038596,2.19298246 118.859649,3.04912281 115.747368,3.67368421 C115.736842,3.67719298 115.726316,3.84912281 115.715789,3.85263158 C87.8280702,9.29473684 62.4,22.9368421 42.1894737,43.154386 C37.1298246,48.2140351 32.2965934,53.6607239 28.0631579,59.3052632 C12.6679687,79.8320313 5.64561404,103.312012 2.50877193,116.835088 C-1.63623047,152.542969 0.771929825,169.838596 5.64561404,185.933333 C5.85614035,186.712281 6.47368421,187.449123 6.71929825,188.185965 C7.25263158,189.77193 8.70175439,191.010526 10.2947368,191.519298 C24.445614,196.045614 39.1578947,197.642105 53.9508772,197.642105 C56.7508772,197.642105 72.3684211,196.8 72.5368421,196.775439 C75.5929825,196.378947 78.6701754,196.066667 81.754386,195.466667 C81.7614035,195.466667 81.7684211,195.547368 81.7754386,195.54386 C92.2350877,193.508772 102.347368,190.37193 111.968421,186.126316 C128.017544,179.049123 142.701754,169.02807 155.347368,156.378947 C175.585965,136.14386 189.207193,110.847937 193.810526,82.7964912 C197.097656,62.765625 197.097656,29.7460937 189.698246,11.5263158 C189.185965,9.92982456 188.326316,8.67368421 186.736842,8.14035088 Z M125.905263,13.0105263 C126.449123,12.9368421 127,12.877193 127.547368,12.8105263 C129.178947,12.6175439 130.838596,12.4947368 132.494737,12.3614035 C138.768421,23.4385965 146.501754,33.722807 155.666667,42.8912281 C164.873684,52.0982456 175.164912,59.8280702 186.22807,66.0666667 C186.098246,67.6385965 185.982456,69.2105263 185.792982,70.8 C185.722807,71.3964912 185.652632,71.9964912 185.57193,72.5964912 C185.505263,73.1052632 185.4,73.6210526 185.326316,74.1333333 C172.182456,67.6912281 160.259649,59.1649123 149.814035,48.7192982 C139.357895,38.2350877 130.849123,26.3263158 124.449123,13.2526316 C124.940351,13.1789474 125.410526,13.077193 125.905263,13.0105263 L125.905263,13.0105263 Z M172.621053,14.8421053 C175.505263,15.4912281 178.382456,16.3614035 181.245614,17.2070175 C182.045614,19.8947368 182.729825,22.677193 183.357895,25.4 C183.484211,25.9473684 183.614035,26.5298246 183.733333,27.0807018 C184.305263,29.722807 184.803509,32.3964912 185.210526,35.0666667 C185.287719,35.5649123 185.347368,36.077193 185.417544,36.5754386 C185.77193,39.0736842 186.05614,41.5894737 186.266667,44.1087719 C186.294737,44.4631579 186.340351,44.8140351 186.364912,45.1684211 C186.568421,47.8807018 186.666667,50.6035088 186.701754,53.3333333 C186.705263,53.6315789 186.705263,53.9298246 186.708772,54.2280702 C178.245614,48.9684211 170.329825,42.1157895 163.105263,34.8912281 C155.912281,27.6947368 149.621053,21.277193 144.336842,10.7508772 C144.515789,10.7473684 144.691228,10.7473684 144.866667,10.7473684 C153.880702,10.7473684 172.329825,14.7754386 172.621053,14.8421053 Z M49.6350877,50.6807018 C51.9789474,48.3368421 54.3964912,46.0912281 56.8877193,43.9438596 C73.2631579,29.8140351 92.7157895,20.0631579 113.792982,15.2736842 C120.824561,30.4105263 130.4,44.1578947 142.368421,56.154386 C154.329825,68.1157895 168.101754,77.7157895 183.319298,84.8 C182.4,88.8526316 181.301754,92.8491228 180.014035,96.7719298 C175.621053,110.133333 169.192982,122.708772 160.792982,134.035088 C160.231579,134.792982 159.6,135.501754 159.021053,136.245614 C155.589474,140.673684 151.922807,144.947368 147.908772,148.957895 C143.221053,153.645614 138.231579,157.94386 132.982456,161.838596 C118.329825,172.705263 101.610526,180.312281 83.7508772,184.368421 C76.6631579,169.133333 67.0596491,155.37193 55.1122807,143.452632 C43.154386,131.463158 29.4070175,121.870175 14.2245614,114.831579 C19.7368421,90.5719298 31.8666667,68.445614 49.6350877,50.6807018 Z M71.522807,186.621053 C70.9368421,186.698246 70.3508772,186.768421 69.7649123,186.838596 C68.1684211,187.02807 66.5964912,187.14386 65.0210526,187.273684 C58.7719298,176.189474 51.0245614,165.894737 41.8070175,156.712281 C32.6,147.505263 22.3298246,139.785965 11.3157895,133.57193 C11.445614,131.989474 11.5614035,130.414035 11.754386,128.814035 C11.8245614,128.235088 11.8912281,127.65614 11.9684211,127.073684 C12.0385965,126.550877 12.1438596,126.021053 12.2210526,125.498246 C25.322807,131.898246 37.2210526,140.421053 47.6666667,150.898246 C58.1087719,161.312281 66.6350877,173.224561 73.0807018,186.375439 C72.5649123,186.445614 72.0385965,186.554386 71.522807,186.621053 L71.522807,186.621053 Z M52.4666667,187.757895 C49.6280702,187.722807 46.7964912,187.617544 43.9789474,187.403509 C43.8175439,187.392982 43.6596491,187.37193 43.4982456,187.357895 C40.7578947,187.140351 38.0315789,186.824561 35.3122807,186.435088 C34.9333333,186.378947 34.5508772,186.336842 34.1719298,186.277193 C31.445614,185.863158 28.7298246,185.354386 26.0280702,184.768421 C25.5157895,184.65614 25.0035088,184.536842 24.4912281,184.417544 C21.7473684,183.789474 19.0140351,183.098246 16.3017544,182.294737 C15.5017544,179.592982 14.8175439,176.873684 14.1929825,174.14386 C14.0666667,173.592982 13.9368421,173.042105 13.8175439,172.487719 C13.2421053,169.831579 12.7473684,167.164912 12.3368421,164.487719 C12.2631579,164.010526 12.2070175,163.533333 12.1403509,163.05614 C11.7824561,160.522807 11.4912281,157.985965 11.277193,155.438596 C11.2491228,155.112281 11.2105263,154.782456 11.1859649,154.45614 C10.9824561,151.747368 10.8807018,149.02807 10.8421053,146.308772 C10.8385965,146.010526 10.8385965,145.715789 10.8350877,145.417544 C19.2596491,150.659649 27.1508772,156.940351 34.3719298,164.161404 C41.6070175,171.37193 47.9087719,179.280702 53.1824561,187.761404 C52.9438596,187.761404 52.7052632,187.761404 52.4666667,187.757895 L52.4666667,187.757895 Z" id="Shape"></path>
        </g>
    </g>
</svg>