<?xml version="1.0" encoding="UTF-8"?>
<svg width="168px" height="200px" viewBox="0 0 168 200" version="1.1" xmlns="http://www.w3.org/2000/svg" xmlns:xlink="http://www.w3.org/1999/xlink">
    <!-- Generator: Sketch 54.1 (76490) - https://sketchapp.com -->
    <title>004-hoodie</title>
    <desc>Created with Sketch.</desc>
    <g id="Page-1" stroke="none" stroke-width="1" fill="none" fill-rule="evenodd">
        <g id="004-hoodie" fill="#487BB4" fill-rule="nonzero">
            <path d="M167.615984,154.067057 L164.05731,49.2003899 C163.751267,40.1797271 158.169981,32.1072125 149.837817,28.6358674 L136.120468,22.920078 L125.111891,4.72397661 C123.349318,1.81013645 120.139181,0 116.733333,0 L50.9083821,0 C47.502924,0 44.2920078,1.81013645 42.5294347,4.72397661 L31.5208577,22.920078 L17.8035088,28.6358674 C9.47173489,32.1076023 3.89044834,40.1793372 3.58401559,49.2003899 L0.0253411306,154.066667 C-0.0651072125,156.720468 1.51111111,159.187524 3.95009747,160.226511 L3.391423,171.960624 C3.26549708,174.608967 4.81091618,177.107602 7.23703704,178.177778 L30.6888889,188.520858 L30.6888889,193.151267 C30.6888889,196.71306 33.5863548,199.610526 37.1481481,199.610526 L130.493957,199.610526 C134.05575,199.610526 136.953216,196.71306 136.953216,193.151267 L136.953216,188.520858 L160.404678,178.177778 C162.830799,177.107602 164.376218,174.609357 164.250292,171.960624 L163.691618,160.226511 C166.130214,159.187135 167.706433,156.720078 167.615984,154.067057 Z M119.614035,7.74424951 C119.664717,7.81559454 119.718519,7.88382066 119.764522,7.95984405 L126.352827,18.8502924 L124.904873,18.2467836 C121.952437,17.0167641 118.578947,17.3076023 115.880702,19.0249513 L87.5126706,37.077193 C85.5263158,38.3415205 83.025731,38.4838207 80.9216374,37.5076023 L119.614035,7.74424951 Z M111.303704,6.25068226 L84.7964912,26.6405458 L56.7606238,6.25068226 L111.303704,6.25068226 Z M47.8775828,7.95945419 C47.9391813,7.85730994 48.0101365,7.76218324 48.0814815,7.66783626 L79.6319688,30.6136452 L75.2588694,33.9773879 L51.7614035,19.0245614 C49.0631579,17.3072125 45.6896686,17.0163743 42.737232,18.2463938 L41.2892788,18.8499025 L47.8775828,7.95945419 Z M9.75867446,172.45809 C9.68109162,172.423782 9.63157895,172.34308 9.63547758,172.2577 L10.0869396,162.778168 L24.4194932,168.732164 L24.1968811,176.230799 C24.1727096,177.167251 24.2818713,178.084211 24.5107212,178.964522 L9.75867446,172.45809 Z M130.702144,186.519688 C130.702144,186.526316 130.702144,186.532554 130.702144,186.539181 L130.702144,193.150877 C130.702144,193.265497 130.608967,193.359064 130.493957,193.359064 L37.1477583,193.359064 C37.0327485,193.359064 36.9395712,193.265107 36.9395712,193.150877 L36.9395712,186.539181 C36.9395712,186.532554 36.9395712,186.526316 36.9395712,186.519688 L36.9395712,186.275244 L130.702144,186.275244 L130.702144,186.519688 Z M157.881871,172.45848 L143.129045,178.965302 C143.358674,178.082261 143.467836,177.160624 143.443665,176.218713 L143.221442,168.732554 L157.554386,162.778558 L158.005848,172.25809 C158.010136,172.34308 157.960234,172.424172 157.881871,172.45848 Z M161.240546,154.478363 L143.023392,162.046004 L140.28499,69.7083821 C140.233918,67.9832359 138.780507,66.6210526 137.068226,66.677193 C135.34269,66.7282651 133.985575,68.1688109 134.037037,69.8939571 L137.194932,176.391423 C137.219883,177.354386 136.863158,178.264717 136.190643,178.954386 C135.518519,179.644444 134.617544,180.024172 133.654191,180.024172 L33.9875244,180.024172 C33.0241715,180.024172 32.1231969,179.644055 31.4510721,178.954386 C30.7785575,178.264717 30.4218324,177.353996 30.4463938,176.403899 L33.6046784,69.8939571 C33.6557505,68.1684211 32.2986355,66.7282651 30.5734893,66.677193 C28.8549708,66.6214425 27.4081871,67.982846 27.3567251,69.7083821 L24.6183236,162.046004 L6.40116959,154.478363 C6.32163743,154.445614 6.27017544,154.365302 6.27290448,154.278752 L9.83157895,49.4124756 C10.0549708,42.8300195 14.1278752,36.9391813 20.2077973,34.405848 L45.1411306,24.0167641 C46.208577,23.5719298 47.4288499,23.677193 48.4054581,24.2978558 L74.0276803,40.6035088 L74.0276803,86.4697856 C74.0276803,88.1957115 75.4269006,89.5953216 77.1532164,89.5953216 C78.8795322,89.5953216 80.2787524,88.1961014 80.2787524,86.4697856 L80.2787524,43.9076023 C82.5929825,44.5516569 85.0491228,44.5516569 87.362963,43.9076023 L87.362963,86.4697856 C87.362963,88.1957115 88.7621832,89.5953216 90.488499,89.5953216 C92.2148148,89.5953216 93.6140351,88.1961014 93.6140351,86.4697856 L93.6140351,40.6038986 L119.236647,24.2982456 C120.212086,23.677193 121.433138,23.5723197 122.500585,24.0167641 L147.433918,34.405848 C153.51384,36.9391813 157.586745,42.8300195 157.810136,49.4124756 L161.368811,154.279142 C161.37154,154.365302 161.320078,154.445224 161.240546,154.478363 Z" id="Shape"></path>
            <path d="M123.17232,161.538791 C123.075634,161.376998 113.45848,145.151267 110.251462,122.699415 C110.031579,121.159454 108.71306,120.015984 107.157115,120.015984 L60.4846004,120.015984 C58.9294347,120.015984 57.6105263,121.159454 57.3902534,122.699415 C54.1929825,145.079922 44.5649123,161.378947 44.4693957,161.538791 C43.8900585,162.504094 43.8748538,163.706433 44.4296296,164.68655 C44.9844055,165.666667 46.0230019,166.272125 47.1493177,166.272125 L120.492398,166.272125 C121.618324,166.272125 122.65731,165.666667 123.212086,164.68655 C123.766862,163.706433 123.751657,162.504483 123.17232,161.538791 Z M52.3493177,160.021442 C55.4518519,153.716569 60.6081871,141.578947 63.162963,126.267057 L104.479532,126.267057 C107.033918,141.578947 112.190643,153.716569 115.293177,160.021442 L52.3493177,160.021442 Z" id="Shape"></path>
        </g>
    </g>
</svg>