<?xml version="1.0" encoding="UTF-8"?>
<svg width="173px" height="200px" viewBox="0 0 173 200" version="1.1" xmlns="http://www.w3.org/2000/svg" xmlns:xlink="http://www.w3.org/1999/xlink">
    <!-- Generator: Sketch 54.1 (76490) - https://sketchapp.com -->
    <title>014-directors-chair</title>
    <desc>Created with Sketch.</desc>
    <g id="Page-1" stroke="none" stroke-width="1" fill="none" fill-rule="evenodd">
        <g id="014-directors-chair" fill="#487BB4" fill-rule="nonzero">
            <path d="M164.816338,73.8045201 L151.868604,73.8045201 L151.868604,46.5460526 C151.868604,44.9302511 150.560429,43.622076 148.944627,43.622076 C147.330349,43.622076 146.020651,44.9302511 146.020651,46.5460526 L146.020651,73.8045201 L142.595638,73.8045201 C142.058053,73.8045201 141.372746,73.8745735 140.759016,74.0253411 L140.759016,8.47953216 C140.759016,8.4216616 140.763584,8.36683743 140.76663,8.31048967 C140.772722,8.24805068 140.780336,8.17952008 140.792519,8.10032904 C140.794042,8.086623 140.794042,8.07291657 140.795565,8.05921053 C140.998112,6.80738324 142.082419,5.84795322 143.390595,5.84795322 C144.841922,5.84795322 146.020651,7.02820429 146.020651,8.47953216 L146.020651,32.9008285 C146.020651,34.5151072 147.330349,35.8248051 148.944627,35.8248051 C150.560429,35.8248051 151.868604,34.5151072 151.868604,32.9008285 L151.868604,8.47953216 C151.868604,3.8042152 148.064388,0 143.389072,0 C139.826998,0 136.773575,2.2097345 135.518701,5.33016569 C103.249878,14.6670932 69.2525583,14.668616 36.9822125,5.33016569 C35.728862,2.2097345 32.6754386,0 29.1118421,0 C24.4365255,0 20.6338327,3.8042152 20.6338327,8.47953216 L20.6338327,73.8045201 L7.68609903,73.8045201 C3.44785575,73.8045201 -8.52651283e-14,77.2523758 -8.52651283e-14,81.4890959 L-8.52651283e-14,91.0133407 C-8.52651283e-14,95.2500608 3.44785575,98.6979166 7.68609903,98.6979166 L12.6979774,98.6979166 L12.6979774,128.708273 C12.6979774,134.696333 17.5697489,139.568104 23.5578094,139.568104 C25.6137306,139.568104 27.5386819,138.993969 29.1803727,137.996467 C33.2754628,139.81786 37.4649731,141.4428 41.72606,142.863669 L72.2069934,168.000731 L53.0519006,183.796296 C49.2568226,186.938048 48.7268519,192.581932 51.8686039,196.37701 C55.0103556,200.172088 60.6557626,200.702059 64.4447489,197.564876 L86.2512183,179.582419 L108.051596,197.560307 C111.848197,200.703582 117.492081,200.170565 120.63231,196.37701 C123.775585,192.581932 123.244091,186.938048 119.449013,183.796296 C119.44749,183.794773 119.445967,183.793251 119.444444,183.791727 L100.295443,167.999208 L130.774854,142.863669 C135.035941,141.441277 139.226974,139.81786 143.322064,137.994944 C144.962232,138.992446 146.888706,139.568104 148.944627,139.568104 C154.932688,139.568104 159.804459,134.696333 159.804459,128.708273 L159.804459,98.6979166 L164.816338,98.6979166 C169.054581,98.6979166 172.502437,95.2500608 172.502437,91.0118175 L172.502437,81.4890959 C172.502437,77.250853 169.054581,73.8045201 164.816338,73.8045201 L164.816338,73.8045201 Z M34.4176413,101.181774 C49.1014862,104.893092 64.191947,107.028204 79.3326632,107.524671 C80.9408503,107.585587 82.2977583,106.310916 82.35106,104.696637 C82.4043618,103.083881 81.1388281,101.733065 79.5230261,101.679764 C64.8802998,101.200049 50.2847832,99.1471735 36.080653,95.5744398 C37.0141934,94.3180433 37.5913743,92.6854897 37.5913743,91.0133407 C37.5913743,87.0888156 37.5913743,14.2787524 37.5913743,11.5862573 C69.512975,20.390168 102.987938,20.390168 134.90954,11.5862573 L134.90954,91.0133407 C134.90954,92.6885357 135.491289,94.3226121 136.421784,95.5744398 C122.216131,99.1471735 107.620614,101.200049 92.9778873,101.679764 C91.3636086,101.733065 90.0980749,103.083881 90.1513766,104.696637 C90.2031556,106.278935 91.5006702,107.526194 93.0707844,107.526194 C93.1042885,107.526194 93.1362694,107.526194 93.1682503,107.524671 C108.31049,107.028204 123.40095,104.893092 138.084795,101.181774 L138.084795,118.690607 C105.040814,134.489218 67.4616226,134.489218 34.4176413,118.690607 L34.4176413,101.181774 Z M28.5696881,128.708273 C28.5696881,131.425134 26.3432016,133.720151 23.5578094,133.720151 C20.793738,133.720151 18.5459306,131.472344 18.5459306,128.708273 L18.5459306,98.6979166 L28.5696881,98.6979166 L28.5696881,128.708273 Z M31.7434211,91.0118175 C31.7434211,92.0108429 30.8875485,92.8499634 29.9067984,92.8499634 C27.5325903,92.8499634 9.97350136,92.8499634 7.68609903,92.8499634 C6.6901193,92.8499634 5.84795322,92.0093201 5.84795322,91.0118175 L5.84795322,81.4890959 C5.84795322,80.4931166 6.6901193,79.6524733 7.68609903,79.6524733 L29.9067984,79.6524733 C30.9027778,79.6524733 31.7434211,80.4931166 31.7434211,81.4890959 L31.7434211,91.0118175 Z M31.7434211,74.0253411 C31.1373053,73.8776195 30.4398148,73.8045201 29.9067984,73.8045201 L26.481786,73.8045201 L26.481786,8.47953216 C26.481786,7.02820429 27.662037,5.84795322 29.1118421,5.84795322 C30.4200172,5.84795322 31.5043251,6.80738324 31.7068713,8.05921053 C31.7083942,8.07291657 31.7083942,8.086623 31.7099173,8.10032904 C31.7221006,8.17952008 31.729715,8.24805068 31.7358066,8.31048967 C31.7388522,8.36683743 31.7434211,8.4216616 31.7434211,8.47953216 L31.7434211,74.0253411 Z M55.6179945,146.739462 C59.7115618,147.657773 63.8447248,148.393336 67.9900706,148.940058 L81.6550924,160.209552 L76.8031189,164.210222 L55.6179945,146.739462 Z M78.3640959,149.914717 C83.6744639,150.220821 88.8203583,150.220821 94.1368179,149.914717 L86.2512183,156.419042 L78.3640959,149.914717 Z M115.720943,188.301048 C117.030641,189.386879 117.219481,191.330105 116.129081,192.647417 C115.043251,193.958638 113.09241,194.141386 111.77662,193.05251 L90.8473442,175.79191 L95.6993177,171.789717 L115.720943,188.301048 Z M60.7197248,193.055556 C59.4085037,194.142909 57.459186,193.957115 56.3733552,192.647417 C55.2890472,191.336196 55.4717957,189.386879 56.778448,188.304094 L104.510843,148.940058 C108.659235,148.393336 112.790875,147.657773 116.884442,146.739462 L60.7197248,193.055556 Z M33.3363789,133.429276 C34.0704191,131.913986 34.4176413,130.263158 34.4176413,128.708273 L34.4176413,125.135538 C67.5057871,140.043251 104.961623,140.05848 138.084795,125.135538 L138.084795,128.708273 C138.084795,130.394128 138.483796,132.023635 139.166058,133.429276 C106.167763,147.528326 68.0646932,148.268458 33.3363789,133.429276 Z M153.956506,128.708273 C153.956506,131.472344 151.708699,133.720151 148.944627,133.720151 C146.16685,133.720151 143.932749,131.434271 143.932749,128.708273 C143.932749,125.411184 143.932749,102.404666 143.932749,98.6979166 L153.956506,98.6979166 L153.956506,128.708273 Z M166.654483,91.0118175 C166.654483,92.0093201 165.812317,92.8499634 164.816338,92.8499634 C162.527412,92.8499634 144.975938,92.8499634 142.595638,92.8499634 C141.63164,92.8499634 140.759016,92.0260721 140.759016,91.0118175 L140.759016,81.4890959 C140.759016,80.4931166 141.599659,79.6524733 142.595638,79.6524733 L164.816338,79.6524733 C165.812317,79.6524733 166.654483,80.4931166 166.654483,81.4890959 L166.654483,91.0118175 Z" id="Shape"></path>
        </g>
    </g>
</svg>