<?xml version="1.0" encoding="UTF-8"?>
<svg width="200px" height="200px" viewBox="0 0 200 200" version="1.1" xmlns="http://www.w3.org/2000/svg" xmlns:xlink="http://www.w3.org/1999/xlink">
    <!-- Generator: Sketch 54.1 (76490) - https://sketchapp.com -->
    <title>013-seats</title>
    <desc>Created with Sketch.</desc>
    <g id="Page-1" stroke="none" stroke-width="1" fill="none" fill-rule="evenodd">
        <g id="013-seats" fill="#487BB4" fill-rule="nonzero">
            <path d="M133.455078,192.151953 L3.9296875,192.151953 C1.77304687,192.151953 0.024609375,193.900391 0.024609375,196.057422 C0.024609375,198.214453 1.7734375,199.9625 3.9296875,199.9625 L133.455078,199.9625 C135.611719,199.9625 137.360156,198.214063 137.360156,196.057422 C137.360156,193.900781 135.612109,192.151953 133.455078,192.151953 Z" id="Path"></path>
            <path d="M153.400781,193.296875 C152.674219,192.570312 151.666797,192.152734 150.639844,192.152734 C149.608984,192.152734 148.605078,192.570703 147.875,193.296875 C147.148828,194.023438 146.734766,195.030859 146.734766,196.057812 C146.734766,197.084766 147.148828,198.092578 147.875,198.81875 C148.605469,199.544922 149.612891,199.962891 150.639844,199.962891 C151.666797,199.962891 152.670703,199.544922 153.400781,198.81875 C154.126953,198.092578 154.544922,197.084766 154.544922,196.057812 C154.544922,195.026953 154.126953,194.023047 153.400781,193.296875 Z" id="Path"></path>
            <path d="M196.069531,192.151953 L166.93125,192.151953 C164.774609,192.151953 163.026172,193.900391 163.026172,196.057422 C163.026172,198.214453 164.775,199.9625 166.93125,199.9625 L196.069531,199.9625 C198.226172,199.9625 199.974609,198.214063 199.974609,196.057422 C199.974609,193.900781 198.226562,192.151953 196.069531,192.151953 Z" id="Path"></path>
            <path d="M192.853516,123.019141 C192.879297,122.838281 192.896875,122.654687 192.896875,122.466797 L192.896875,88.54375 L192.896875,76.828125 L196.094531,76.828125 C198.251172,76.828125 199.999609,75.0796875 199.999609,72.9226563 C199.999609,70.765625 198.250781,69.0175781 196.094531,69.0175781 L192.847656,69.0175781 C192.205469,59.4117188 184.589062,51.6894531 175.028906,50.8808594 L175.028906,26.059375 L196.06875,26.059375 C198.225391,26.059375 199.973828,24.3109375 199.973828,22.1539063 C199.973828,19.996875 198.225,18.2488281 196.06875,18.2488281 L175.101953,18.2488281 C175.757812,12.4054688 180.728516,7.84726563 186.744922,7.84726563 L196.06875,7.84726563 C198.225391,7.84726563 199.973828,6.09882813 199.973828,3.9421875 C199.973828,1.78554687 198.225,0.037109375 196.06875,0.037109375 L186.744922,0.037109375 C175.978125,0.037109375 167.218359,8.79648438 167.218359,19.5636719 L167.218359,22.1546875 L167.218359,50.8058594 L160.874609,50.8058594 L160.874609,22.1539062 L160.874609,19.5628906 C160.874609,8.79609375 152.115234,0.036328125 141.348047,0.036328125 L122.700391,0.036328125 C111.933594,0.036328125 103.173828,8.79570312 103.173828,19.5628906 L103.173828,22.1539062 L103.173828,50.8050781 L96.8253906,50.8050781 L96.8253906,22.1539062 L96.8253906,19.5628906 C96.8253906,8.79609375 88.0660156,0.036328125 77.2988281,0.036328125 L58.6511719,0.036328125 C47.884375,0.036328125 39.1246094,8.79570312 39.1246094,19.5628906 L39.1246094,22.1539062 L39.1246094,50.8050781 L32.78125,50.8050781 L32.78125,22.1539062 L32.78125,19.5628906 C32.78125,8.79609375 24.021875,0.036328125 13.2546875,0.036328125 L3.93085938,0.036328125 C1.77421875,0.036328125 0.02578125,1.78476562 0.02578125,3.94140625 C0.02578125,6.09804687 1.77460938,7.84648437 3.93085938,7.84648437 L13.2546875,7.84648437 C19.2703125,7.84648437 24.2417969,12.4042969 24.8976563,18.2480469 L3.93085938,18.2480469 C1.77421875,18.2480469 0.02578125,19.9964844 0.02578125,22.153125 C0.02578125,24.3101562 1.77460938,26.0585938 3.93085938,26.0585938 L24.9707031,26.0585938 L24.9707031,50.8796875 C15.4105469,51.6882813 7.79414063,59.4105469 7.15195313,69.0164063 L3.90507813,69.0164063 C1.7484375,69.0164063 0,70.7648438 0,72.9214844 C0,75.0785156 1.74882812,76.8269531 3.90507813,76.8269531 L7.10273437,76.8269531 L7.10273437,88.5429688 L7.10273437,122.466016 C7.10273437,122.653906 7.12070312,122.8375 7.14609375,123.018359 C2.8,126.602734 0.024609375,132.026953 0.024609375,138.087109 L0.024609375,153.708203 C0.024609375,155.865234 1.7734375,157.613281 3.9296875,157.613281 L24.2371094,157.613281 L24.2371094,176.529688 L3.9296875,176.529688 C1.77304688,176.529688 0.024609375,178.278125 0.024609375,180.435156 C0.024609375,182.592187 1.7734375,184.340234 3.9296875,184.340234 L196.069531,184.340234 C198.226172,184.340234 199.974609,182.591797 199.974609,180.435156 C199.974609,178.278125 198.225781,176.529688 196.069531,176.529688 L175.762109,176.529688 L175.762109,157.613281 L196.069531,157.613281 C198.226172,157.613281 199.974609,155.864844 199.974609,153.708203 L199.974609,138.087109 C199.975,132.028125 197.2,126.603516 192.853516,123.019141 Z M191.494922,134.182812 L136.597656,134.182812 C138.209375,129.637109 142.552734,126.372266 147.644141,126.372266 L180.448437,126.372266 C185.539844,126.372266 189.883203,129.636719 191.494922,134.182812 Z M143.006641,118.561719 L143.006641,92.4492188 L185.085938,92.4492188 L185.085938,118.561719 L143.006641,118.561719 Z M185.085938,84.6386719 L143.006641,84.6386719 L143.006641,76.828125 L185.085938,76.828125 L185.085938,84.6386719 Z M173.370703,58.615625 C179.386328,58.615625 184.357422,63.1738281 185.013281,69.0171875 L143.080078,69.0171875 C143.735937,63.1738281 148.706641,58.615625 154.723047,58.615625 L173.370703,58.615625 L173.370703,58.615625 Z M122.700391,7.846875 L141.348047,7.846875 C147.363672,7.846875 152.335156,12.4046875 152.991016,18.2484375 L111.057813,18.2484375 C111.713672,12.4054687 116.684766,7.846875 122.700391,7.846875 Z M110.984375,26.059375 L153.064062,26.059375 L153.064062,50.8804688 C143.503906,51.6890625 135.8875,59.4113281 135.245312,69.0171875 L128.850391,69.0171875 C128.207031,59.3953125 120.566797,51.6640625 110.984375,50.8765625 L110.984375,26.059375 L110.984375,26.059375 Z M135.239453,123.019531 C134.039062,124.009375 132.958594,125.140234 132.023047,126.385938 C131.099219,125.155859 130.033203,124.038281 128.850391,123.056641 C128.879687,122.863672 128.899609,122.667969 128.899609,122.467187 L128.899609,88.5441406 L128.899609,76.828125 L135.196094,76.828125 L135.196094,88.5441406 L135.196094,122.467187 C135.196094,122.655469 135.214062,122.838672 135.239453,123.019531 Z M121.089062,92.4492188 L121.089062,118.561719 L116.401953,118.561719 L83.5976562,118.561719 L79.0097656,118.561719 L79.0097656,92.4492188 L121.089062,92.4492188 Z M79.0097656,84.6386719 L79.0097656,76.828125 L121.089062,76.828125 L121.089062,84.6386719 L79.0097656,84.6386719 Z M83.5976562,126.372266 L116.401953,126.372266 C121.493359,126.372266 125.836719,129.636719 127.448437,134.182812 L72.5511719,134.182812 C74.1628906,129.637109 78.50625,126.372266 83.5976562,126.372266 Z M128.117969,141.993359 L128.117969,149.803906 L71.93125,149.803906 L71.93125,141.993359 L128.117969,141.993359 Z M109.373438,58.615625 C115.389062,58.615625 120.360547,63.1734375 121.016406,69.0171875 L79.0832031,69.0171875 C79.7390625,63.1738281 84.7097656,58.615625 90.7261719,58.615625 L109.373438,58.615625 L109.373438,58.615625 Z M58.6519531,7.846875 L77.2996094,7.846875 C83.3152344,7.846875 88.2867188,12.4046875 88.9425781,18.2484375 L47.0089844,18.2484375 C47.6648438,12.4054687 52.6359375,7.846875 58.6519531,7.846875 Z M46.9355469,26.059375 L89.0152344,26.059375 L89.0152344,50.8847656 C79.4792969,51.7167969 71.8894531,59.4292969 71.2484375,69.0171875 L64.7542969,69.0171875 C64.1121094,59.4113281 56.4957031,51.6890625 46.9355469,50.8804687 L46.9355469,26.059375 L46.9355469,26.059375 Z M71.2375,122.984375 C70.0195312,123.982812 68.9234375,125.125391 67.9765625,126.385938 C67.0410156,125.140234 65.9605469,124.009766 64.7601562,123.019141 C64.7859375,122.838281 64.8035156,122.655078 64.8035156,122.466797 L64.8035156,88.54375 L64.8035156,76.828125 L71.1992187,76.828125 L71.1992187,88.5441406 L71.1992187,122.467188 C71.1992188,122.642969 71.2148438,122.814844 71.2375,122.984375 Z M26.6292969,58.615625 L45.2769531,58.615625 C51.2925781,58.615625 56.2640625,63.1734375 56.9199219,69.0171875 L14.9867187,69.0171875 C15.6425781,63.1738281 20.6136719,58.615625 26.6292969,58.615625 Z M14.9136719,92.4492188 L21.2433594,92.4492188 C23.4,92.4492188 25.1484375,90.7007813 25.1484375,88.5441406 C25.1484375,86.3871094 23.3996094,84.6386719 21.2433594,84.6386719 L14.9136719,84.6386719 L14.9136719,76.828125 L56.9929687,76.828125 L56.9929687,84.6386719 L50.6632812,84.6386719 C48.5066406,84.6386719 46.7582031,86.3871094 46.7582031,88.5441406 C46.7582031,90.7011719 48.5070312,92.4492188 50.6632812,92.4492188 L56.9929687,92.4492188 L56.9929687,118.561719 L14.9136719,118.561719 L14.9136719,92.4492188 Z M19.5511719,126.372266 L52.3554688,126.372266 C57.446875,126.372266 61.7902344,129.636719 63.4019531,134.182812 L8.5046875,134.182812 C10.1164062,129.637109 14.4597656,126.372266 19.5511719,126.372266 Z M7.83515625,149.803906 L7.83515625,141.993359 L64.0710938,141.993359 L64.0710938,149.803906 L7.83515625,149.803906 Z M39.8585938,176.530859 L32.0480469,176.530859 L32.0480469,157.614453 L39.8585938,157.614453 L39.8585938,176.530859 L39.8585938,176.530859 Z M88.3332031,176.530859 L47.6691406,176.530859 L47.6691406,157.614453 L67.9765625,157.614453 C67.9847656,157.614453 67.9929687,157.613281 68.0011719,157.613281 C68.009375,157.613281 68.0175781,157.614453 68.0257812,157.614453 L88.3332031,157.614453 L88.3332031,176.530859 L88.3332031,176.530859 Z M103.954688,176.530859 L96.1441406,176.530859 L96.1441406,157.614453 L103.954688,157.614453 L103.954688,176.530859 Z M152.330469,176.530859 L111.765234,176.530859 L111.765234,157.614453 L132.023047,157.614453 L132.072656,157.614453 L152.330469,157.614453 L152.330469,176.530859 L152.330469,176.530859 Z M167.951562,176.530859 L160.141016,176.530859 L160.141016,157.614453 L167.951562,157.614453 L167.951562,176.530859 Z M192.164453,149.803906 L135.978125,149.803906 L135.978125,141.993359 L192.164453,141.993359 L192.164453,149.803906 Z" id="Shape"></path>
            <path d="M38.7136719,85.784375 C37.9875,85.0539063 36.9800781,84.6402344 35.953125,84.6402344 C34.9261719,84.6402344 33.9183594,85.0542969 33.1921875,85.784375 C32.465625,86.5109375 32.0480469,87.5144531 32.0480469,88.5453125 C32.0480469,89.5722656 32.465625,90.5800781 33.1921875,91.30625 C33.9191406,92.0328125 34.9261719,92.4503906 35.953125,92.4503906 C36.9800781,92.4503906 37.9878906,92.0324219 38.7136719,91.30625 C39.4402344,90.5800781 39.8582031,89.5722656 39.8582031,88.5453125 C39.8585938,87.5144531 39.440625,86.5109375 38.7136719,85.784375 Z" id="Path"></path>
        </g>
    </g>
</svg>