<?xml version="1.0" encoding="UTF-8"?>
<svg width="126px" height="200px" viewBox="0 0 126 200" version="1.1" xmlns="http://www.w3.org/2000/svg" xmlns:xlink="http://www.w3.org/1999/xlink">
    <!-- Generator: Sketch 53.2 (72643) - https://sketchapp.com -->
    <title>035-apron</title>
    <desc>Created with Sketch.</desc>
    <g id="Page-1" stroke="none" stroke-width="1" fill="none" fill-rule="evenodd">
        <g id="035-apron" fill="#4A7CB2" fill-rule="nonzero">
            <path d="M107.435608,145.889282 C105.818176,145.889282 104.50592,147.200012 104.50592,148.81897 L104.50592,184.809875 C104.50592,186.05957 103.717041,187.171936 102.54364,187.579346 C77.2613523,196.336365 48.260498,196.337891 22.9782105,187.579346 C21.8048094,187.171936 21.0159301,186.05957 21.0159301,184.809875 L21.0159301,116.993713 C24.2218016,110.977173 26.6937258,105.815125 28.7887574,100.764465 C29.4082641,99.2691039 28.7002562,97.5555422 27.2048949,96.9360352 C25.7110594,96.3165281 23.9959719,97.0260621 23.3764648,98.5198977 C21.3302613,103.451538 18.9025879,108.514404 15.7318117,114.450073 C15.3564453,115.155029 15.1565551,115.948486 15.1565551,116.746521 L15.1565551,120.381164 C14.729309,120.462036 9.51538086,119.71283 5.56640625,124.223328 C3.42712422,126.663208 2.44598398,129.908752 2.87323008,133.126831 L5.73883047,154.692078 C6.20422344,158.197021 4.98962422,161.781311 2.49023437,164.282227 L0.85754375,165.913391 C-0.286865234,167.0578 -0.285339453,168.913269 0.85754375,170.057678 C1.42974844,170.628357 2.18048086,170.915222 2.9296875,170.915222 C3.67889414,170.915222 4.42962656,170.628357 5.00030508,170.056152 L6.6329957,168.424988 C10.4141234,164.64386 12.2512816,159.220886 11.5463258,153.918457 L8.680725,132.353211 C8.47320547,130.787659 8.93249531,129.270935 9.97314453,128.082275 C12.0147703,125.752258 14.6209719,126.324463 15.1565551,126.240539 L15.1565551,184.809875 C15.1565551,188.552856 17.5292969,191.889954 21.0601805,193.113709 C34.3109133,197.705078 48.536682,200 62.7609254,200 C76.9866945,200 91.2124633,197.705078 104.463196,193.115234 C107.99408,191.89148 110.365295,188.554382 110.365295,184.809875 L110.365295,148.81897 C110.365295,147.200012 109.053039,145.889282 107.435608,145.889282 L107.435608,145.889282 Z" id="Path"></path>
            <path d="M60.7452391,132.03125 C61.3586426,132.441711 62.0605469,132.646179 62.7624512,132.646179 C63.4628297,132.646179 64.164734,132.441711 64.7766113,132.032776 C68.185425,129.751587 79.5898438,121.763611 83.203125,114.678955 C85.3195191,110.528564 85.4354859,105.271912 83.5052492,100.96283 C81.8252562,97.2091676 78.8101195,94.5907594 75.0152586,93.5928344 C70.7305906,92.4652102 65.925598,93.8339234 62.7624512,96.7895508 C59.5977781,93.8323977 54.7943117,92.463684 50.5081176,93.5928344 C46.713257,94.5907594 43.6981203,97.2091676 42.0166016,100.96283 C40.0878906,105.271912 40.2038574,110.528564 42.3202516,114.678955 C45.932007,121.763611 57.3379516,129.751587 60.7452391,132.03125 Z M47.364807,103.356934 C48.0316164,101.867676 49.3759156,99.9481203 52.0004273,99.2584227 C52.545166,99.1149902 53.1066895,99.0463258 53.6727906,99.0463258 C56.1889648,99.0463258 58.7509156,100.396729 59.8754883,102.490234 C60.4492188,103.555298 61.5539551,104.217529 62.7624512,104.217529 C63.9694215,104.217529 65.0756836,103.555298 65.6478883,102.490234 C67.025757,99.9267578 70.5581664,98.4756469 73.5229492,99.2584227 C76.1459352,99.9481203 77.4917602,101.867676 78.1585695,103.356934 C79.3624879,106.047058 79.2938234,109.446716 77.9830934,112.017822 C75.7781984,116.342163 68.675232,122.224426 62.7609254,126.316834 C56.8496703,122.225952 49.7451781,116.342163 47.5402832,112.017822 C46.2295531,109.446716 46.1608887,106.047058 47.364807,103.356934 Z" id="Shape"></path>
            <path d="M124.664307,165.914917 L123.033142,164.282227 C120.532227,161.781311 119.317627,158.197021 119.78302,154.692078 L122.648621,133.126831 C123.077393,129.908752 122.094727,126.664734 119.95697,124.223328 C116.007996,119.714355 110.794067,120.462036 110.365295,120.382691 L110.365295,116.746521 C110.365295,115.948486 110.166931,115.155029 109.791565,114.450073 C101.560974,99.0356445 93.7393188,81.0501098 92.2485352,54.0496828 C91.9921875,49.395752 88.1378172,45.7489016 83.4762574,45.7489016 L83.0566406,45.7489016 L83.0566406,20.2941895 C83.0551148,9.10339375 73.9517211,0 62.7609254,0 C51.5716555,0 42.4667359,9.10339375 42.4667359,20.2941895 L42.4667359,45.7489016 L42.0471191,45.7489016 C37.385559,45.7489016 33.5311891,49.3942262 33.2748414,54.0481566 C32.7636719,63.3087156 31.4987184,71.9421387 29.4311523,80.2383422 C29.3975828,80.3436281 29.3701172,80.4534914 29.3487547,80.5633547 C28.7689211,82.8674316 28.1265258,85.144043 27.4200438,87.4023438 C26.9378664,88.9465332 27.7984617,90.5899047 29.3426516,91.0720824 C30.8868406,91.5557859 32.5302125,90.6951906 33.0123902,89.1510008 C33.5418703,87.4603273 34.0362547,85.7574461 34.4970703,84.0438844 L91.0247805,84.0438844 C94.4946289,96.9406129 99.420166,107.447815 104.507446,116.992188 L104.507446,137.101746 C104.507446,138.719177 105.818176,140.031433 107.437134,140.031433 C109.054566,140.031433 110.366821,138.719177 110.366821,137.101746 L110.366821,126.240539 C110.89325,126.322937 113.508606,125.752258 115.550232,128.082275 C116.590881,129.270935 117.050171,130.787659 116.841125,132.353211 L113.975525,153.919983 C113.270569,159.220886 115.109253,164.64386 118.890381,168.424988 L120.521545,170.056152 C121.09375,170.628357 121.844482,170.915222 122.593689,170.915222 C123.342895,170.915222 124.092102,170.628357 124.664307,170.057678 C125.808716,168.913269 125.808716,167.059326 124.664307,165.914917 L124.664307,165.914917 Z M48.3261109,20.2941895 C48.3261109,12.3336793 54.801941,5.859375 62.7609254,5.859375 C70.7214355,5.859375 77.1972656,12.3336793 77.1972656,20.2941895 L77.1972656,49.9649047 C77.1972656,53.8223266 75.6958008,57.4493406 72.972107,60.1715086 C67.478943,65.6555176 58.5372926,65.9439086 52.7542113,60.2035523 C49.9404906,57.4127195 48.3261109,53.5690309 48.3261109,49.6566773 L48.3261109,20.2941895 Z M35.9329223,78.1860352 C37.6113891,70.5978395 38.6627195,62.7258301 39.1250609,54.371643 C39.2105102,52.82135 40.4953004,51.6067504 42.0486449,51.6067504 L42.5338746,51.6067504 C43.2952883,61.0656738 50.7461547,69.7250367 62.4313355,70.2560426 C73.2894898,70.4315187 82.1594238,62.0986937 82.9910277,51.6067504 L83.4762574,51.6067504 C85.029602,51.6067504 86.3128664,52.82135 86.3983156,54.371643 C86.8835449,63.1622312 88.0111695,71.0327148 89.5919801,78.1860352 L35.9329223,78.1860352 Z" id="Shape"></path>
        </g>
    </g>
</svg>