<?xml version="1.0" encoding="UTF-8"?>
<svg width="147px" height="200px" viewBox="0 0 147 200" version="1.1" xmlns="http://www.w3.org/2000/svg" xmlns:xlink="http://www.w3.org/1999/xlink">
    <!-- Generator: Sketch 53.2 (72643) - https://sketchapp.com -->
    <title>015-handball</title>
    <desc>Created with Sketch.</desc>
    <g id="Page-1" stroke="none" stroke-width="1" fill="none" fill-rule="evenodd">
        <g id="015-handball" fill="#4A7CB2" fill-rule="nonzero">
            <path d="M142.977305,116.448936 C140.987943,118.10922 138.570922,118.91844 136.167376,118.91844 C133.121277,118.91844 130.097163,117.617021 127.993617,115.095035 L124.770922,111.232624 C116.541135,101.369504 107.514184,92.1340426 97.8368794,83.6602837 C97.8368794,83.6602837 99.5276596,151.007801 55.5283688,191.326241 L50.2723404,196.44539 C48.2042553,198.459574 45.5262411,199.462411 42.8503546,199.462411 C40.0808511,199.462411 37.3134752,198.387234 35.2283688,196.246809 C31.1297872,192.037589 31.2184397,185.302128 35.4269504,181.202837 L40.6836879,176.082979 C53.0241135,164.066667 61.5460993,148.795035 65.3588652,132.177305 C58.3865248,134.312766 51.151773,135.391489 43.9148936,135.391489 C30.4276596,135.391489 16.9439716,131.684397 5.16879433,124.267376 C0.19787234,121.13617 -1.29361702,114.567376 1.83829787,109.595745 C4.96879433,104.625532 11.5375887,103.132624 16.5099291,106.265248 C30.4397163,115.039007 47.7574468,116.466667 62.7943262,110.567376 L66.9546099,72.4659574 C65.9673759,72.5134752 64.9808511,72.5453901 63.9957447,72.5453901 C48.6900709,72.5453901 33.8106383,66.8361702 22.2184397,56.1262411 L21.5269504,55.4879433 C20.6460993,55.6156028 19.7460993,55.6843972 18.8297872,55.6843972 C8.52978723,55.6843972 0.179432624,47.3347518 0.179432624,37.0340426 C0.179432624,26.7333333 8.52907801,18.3836879 18.8297872,18.3836879 C29.1304965,18.3836879 37.4801418,26.7333333 37.4801418,37.0340426 C37.4801418,38.3524823 37.341844,39.6382979 37.0815603,40.8787234 C47.2879433,50.0503546 61.2390071,53.4177305 74.5297872,49.8815603 L80.8319149,48.2035461 C80.9028369,48.1843972 80.9737589,48.1758865 81.0439716,48.158156 C81.2319149,48.1120567 81.4205674,48.0730496 81.6113475,48.0375887 C81.7744681,48.0070922 81.9375887,47.977305 82.1007092,47.9546099 C82.2723404,47.9304965 82.4439716,47.9141844 82.6170213,47.8985816 C82.7964539,47.8822695 82.9751773,47.8666667 83.1539007,47.8595745 C83.3148936,47.8531915 83.4758865,47.8546099 83.6375887,47.8553191 C83.8212766,47.8567376 84.0042553,47.8574468 84.1865248,47.8680851 C84.3531915,47.877305 84.5184397,47.8957447 84.6851064,47.9134752 C84.8567376,47.9319149 85.0276596,47.948227 85.1971631,47.9751773 C85.3801418,48.0035461 85.5617021,48.041844 85.7439716,48.0794326 C85.8921986,48.1106383 86.0404255,48.1397163 86.187234,48.1765957 C86.3851064,48.2269504 86.5794326,48.287234 86.7751773,48.3489362 C86.9042553,48.3900709 87.0333333,48.4283688 87.1609929,48.4744681 C87.358156,48.5453901 87.551773,48.6262411 87.7453901,48.7092199 C87.8702128,48.7624113 87.9950355,48.8141844 88.1170213,48.8723404 C88.2964539,48.9574468 88.4730496,49.051773 88.6489362,49.1475177 C88.7851064,49.2212766 88.9198582,49.2957447 89.0524823,49.3751773 C89.2049645,49.4673759 89.3539007,49.5652482 89.5028369,49.6659574 C89.6546099,49.7680851 89.8042553,49.8723404 89.9510638,49.9822695 C90.0120567,50.0283688 90.0765957,50.0659574 90.1368794,50.1134752 L100.764539,58.4524823 C115.520567,70.0304965 129.094326,83.2014184 141.108511,97.6014184 L144.331206,101.46383 C148.095035,105.977305 147.488652,112.685816 142.977305,116.448936 Z M82.964539,43.5113475 C94.9801418,43.5113475 104.719858,33.770922 104.719858,21.7560284 C104.719858,9.74042553 94.9801418,0 82.964539,0 C70.9489362,0 61.2092199,9.74042553 61.2092199,21.7553191 C61.2092199,33.770922 70.9489362,43.5113475 82.964539,43.5113475 Z" id="Shape"></path>
        </g>
    </g>
</svg>