<?xml version="1.0" encoding="UTF-8"?>
<svg width="200px" height="200px" viewBox="0 0 200 200" version="1.1" xmlns="http://www.w3.org/2000/svg" xmlns:xlink="http://www.w3.org/1999/xlink">
    <!-- Generator: Sketch 53.2 (72643) - https://sketchapp.com -->
    <title>009-focus</title>
    <desc>Created with Sketch.</desc>
    <g id="Page-1" stroke="none" stroke-width="1" fill="none" fill-rule="evenodd">
        <g id="Artboard" transform="translate(-724.000000, -382.000000)" fill="#4A7CB2" fill-rule="nonzero">
            <g id="009-focus" transform="translate(724.000000, 382.000000)">
                <path d="M118.907422,43.9183594 C110.369141,43.91875 102.333203,46.725 95.6679688,52.0347656 C94.4015625,53.0433594 94.1929687,54.8875 95.2015625,56.1539062 C96.2101562,57.4203125 98.0542969,57.6285156 99.3207031,56.6203125 C104.937109,52.1460937 111.709766,49.78125 118.907422,49.78125 C136.254687,49.78125 150.367578,63.8941406 150.367578,81.2414062 C150.367578,89.6445312 147.095313,97.5449219 141.153125,103.487109 C140.086328,104.554297 140.015234,106.316797 140.997656,107.464062 C142.09375,108.744141 144.10625,108.824609 145.298437,107.632031 C152.347266,100.582812 156.229687,91.2101562 156.229687,81.2410156 C156.229687,60.6609375 139.486719,43.9183594 118.907422,43.9183594 Z" id="Path"></path>
                <path d="M194.697266,172.769531 L172.283594,157.232813 L166.5875,146.832031 C187.537891,131.577344 199.999609,107.188672 199.999609,81.2414062 C199.999609,36.5265625 163.621484,0.148828125 118.907031,0.148828125 C106.000391,0.148828125 93.1558594,3.25742188 81.7628906,9.1375 C71.0574219,14.6632813 61.5785156,22.6511719 54.2757813,32.2707031 L42.6128906,26.4167969 L26.284375,4.5734375 C25.5289062,3.56328125 24.2121094,3.14960938 23.0140625,3.54648437 L10.4238281,7.72148437 C9.6859375,7.96601562 9.07539062,8.49414062 8.72695312,9.18867188 L0.311328125,25.9539062 C-0.037109375,26.6484375 -0.095703125,27.4535156 0.148828125,28.1914062 L4.32382812,40.78125 C4.72070312,41.9785156 5.83984375,42.7878906 7.10117188,42.7898437 L34.3730469,42.8324219 L44.8789062,48.1054687 C40.1945312,58.5453125 37.8148438,69.6832031 37.8148438,81.240625 C37.8148438,101.212109 45.0742187,120.251562 58.2996094,135.113672 L34.4273437,158.985937 L8.5546875,167.610156 C7.3578125,168.008984 6.55078125,169.129297 6.55078125,170.390625 L6.55078125,183.655078 C6.55078125,184.432422 6.859375,185.178125 7.409375,185.727734 L20.6738281,198.992187 C21.2234375,199.542187 21.9691406,199.850781 22.7460938,199.850781 L36.0105469,199.850781 C37.271875,199.850781 38.3921875,199.043359 38.7910156,197.846875 L47.4152344,171.974219 L71.9964844,147.393359 C85.7511719,157.173047 101.930078,162.333594 118.907813,162.333594 C129.927734,162.333594 140.582813,160.169922 150.6125,155.900391 L156.173438,166.054687 L157.192578,193.308203 C157.239844,194.56875 158.088281,195.658203 159.299219,196.011719 L172.030859,199.732812 C172.300391,199.811719 172.577344,199.850391 172.853125,199.850391 C173.341016,199.850391 173.825391,199.728516 174.261328,199.490234 L190.714844,190.479687 C191.396484,190.10625 191.901953,189.477734 192.120703,188.73125 L195.841797,175.999609 C196.194531,174.789453 195.734375,173.488281 194.697266,172.769531 Z M118.907422,6.01054688 C160.389844,6.01054688 194.137891,39.7589844 194.137891,81.2410156 C194.137891,105.060938 182.821094,127.471094 163.750391,141.651563 L155.957813,127.421875 C162.474219,122.182422 167.887891,115.542969 171.677344,108.116016 C175.948828,99.7449219 178.114844,90.7027344 178.114844,81.2414063 C178.114844,61.834375 168.582422,43.6355469 152.615234,32.5601563 C151.285156,31.6375 149.458984,31.9679688 148.536328,33.2980469 C147.613672,34.6285156 147.94375,36.4546875 149.274219,37.3773438 C163.662109,47.3582031 172.252734,63.75625 172.252734,81.2421875 C172.252734,97.4972656 165.082422,112.482422 152.514844,122.668359 L138.401953,108.382813 L131.164063,95.1664063 C135.026953,91.7621094 137.470703,86.7835938 137.470703,81.2421875 C137.470703,71.0066406 129.142969,62.6789063 118.907422,62.6789063 C114.833594,62.6789063 111.064844,64.0015625 108,66.2347656 L92.6472656,58.5285156 L78.9355469,45.9203125 C89.0769531,34.4441406 103.540234,27.8964844 118.907422,27.8964844 C126.359766,27.8964844 133.568359,29.4027344 140.332031,32.3722656 C141.814844,33.0230469 143.54375,32.3488281 144.194531,30.8667969 C144.845313,29.3847656 144.171094,27.6554688 142.689063,27.0046875 C135.177344,23.7066406 127.176172,22.0339844 118.907031,22.0339844 C101.724219,22.0339844 85.5582031,29.4058594 74.2914062,42.3175781 L59.6066406,34.9460938 C73.8128906,16.7902344 95.8226563,6.01054688 118.907422,6.01054688 Z M147.208594,125.636719 L145.132422,126.773438 L143.056641,127.910156 L141.153516,119.506641 L147.208594,125.636719 Z M130.899219,113.617578 C130.46875,112.057031 128.855078,111.141016 127.294531,111.571875 C124.577344,112.321484 121.755078,112.701562 118.907031,112.701562 C112.892188,112.701562 107.267969,111.002344 102.484375,108.062109 L106.615625,103.930859 C107.760156,102.786328 107.760156,100.930078 106.615625,99.7859375 C105.471094,98.6414062 103.615234,98.6414062 102.470313,99.7859375 L97.7507813,104.505469 C91.4242188,98.746875 87.446875,90.45 87.446875,81.2414062 C87.446875,77.3503906 88.1476563,73.5539062 89.5300781,69.9570312 C90.1109375,68.4460937 89.3570313,66.75 87.8457031,66.1695312 C86.334375,65.5882812 84.6386719,66.3425781 84.0582031,67.8539062 C82.4167969,72.1242187 81.584375,76.6289062 81.584375,81.2414062 C81.584375,92.0660156 86.2183594,101.827734 93.6042969,108.651172 L82.2570313,119.998437 C71.6375,109.948437 65.5609375,95.8753906 65.5609375,81.2414062 C65.5609375,73.8308594 67.0449219,66.6863281 69.9695313,59.9757812 L90.0152344,63.7667969 L103.688281,70.6296875 C101.582813,73.6398437 100.342578,77.2976562 100.342578,81.2417969 C100.342578,91.4773437 108.670313,99.8050781 118.905859,99.8050781 C121.494531,99.8050781 123.960156,99.2707031 126.200781,98.309375 L133.258594,111.198047 L137.777734,131.151172 C131.761719,133.430859 125.425391,134.587109 118.905469,134.587109 C107.138672,134.587109 96.0539063,130.8625 86.7429688,123.802344 L98.2421875,112.304687 C104.162891,116.256641 111.270313,118.563672 118.907031,118.563672 C122.282031,118.563672 125.628125,118.1125 128.853125,117.222656 C130.413672,116.792187 131.330078,115.178125 130.899219,113.617578 Z M72.9632812,54.575 L74.8375,50.8414062 L75.0867188,50.3441406 L81.4292969,56.1761719 L72.9632812,54.575 Z M120.222266,72.3683594 L114.314062,69.4027344 C115.739844,68.8476562 117.287891,68.5398437 118.907031,68.5398437 C125.910547,68.5398437 131.608203,74.2378906 131.608203,81.2410156 C131.608203,84.5542969 130.331641,87.5742187 128.246484,89.8378906 L123.58125,81.3195312 C122.804297,79.9 121.023828,79.3789062 119.602344,80.1566406 C118.182422,80.9339844 117.662109,82.7152344 118.439453,84.1355469 L123.366406,93.1324219 C121.977734,93.6550781 120.475781,93.9425781 118.906641,93.9425781 C111.903125,93.9425781 106.205469,88.2445313 106.205469,81.2414062 C106.205469,78.2371094 107.255859,75.4753906 109.005859,73.2984375 L117.592188,77.6074219 C119.117578,78.3734375 121.015625,77.6367188 121.6375,76.053125 C122.183984,74.6628906 121.555859,73.0375 120.222266,72.3683594 Z M33.2628906,36.9683594 L9.22304688,36.93125 L6.0953125,27.4984375 L8.44335938,22.8203125 L33.940625,35.6183594 L33.2628906,36.9683594 Z M36.5703125,30.3792969 L11.0730469,17.58125 L13.4210938,12.9035156 L22.8539063,9.77539062 L37.2476563,29.0292969 L36.5703125,30.3792969 Z M39.0042969,38.5980469 L41.9847656,32.6601562 L70.2761719,46.8609375 L67.2957031,52.7988281 L39.0042969,38.5980469 Z M43.6765625,81.240625 C43.6765625,70.6035156 45.846875,60.3511719 50.1210938,50.7371094 L64.4671875,57.9382813 C61.3054687,65.3023438 59.6996094,73.1292969 59.6996094,81.2410156 C59.6996094,97.084375 66.1167969,112.334766 77.3703125,123.426562 L62.8972656,131.467187 C50.4890625,117.644141 43.6765625,99.8792969 43.6765625,81.240625 Z M12.4117187,182.441797 L12.4117187,172.503906 L12.4121094,172.503906 L35.2179687,164.901953 L36.2859375,165.969922 L16.1128906,186.142969 L12.4117187,182.441797 Z M33.8972656,193.989063 L23.959375,193.989063 L20.2585937,190.287891 L40.4316406,170.114844 L41.4996094,171.182813 L33.8972656,193.989063 Z M44.853125,166.246094 L40.1550781,161.548047 L62.5390625,139.164062 L67.2371094,143.862109 L44.853125,166.246094 Z M70.7066406,139.041797 L67.3589844,135.694141 L74.8910156,131.509375 L70.7066406,139.041797 Z M118.907422,156.471484 C103.167578,156.471484 88.1703125,151.691797 75.4179688,142.633203 L83.2613281,128.514453 C93.4789063,136.220703 106.063281,140.448047 118.907422,140.448047 C126.203516,140.448047 133.29375,139.140625 140.024609,136.566406 L147.779297,150.727344 C138.635156,154.537109 128.936328,156.471484 118.907422,156.471484 Z M145.034766,133.510938 L147.948047,131.915234 L150.861328,130.319531 L166.066016,158.083984 L160.238672,161.275391 L145.034766,133.510938 Z M172.509766,193.766406 L162.971484,190.978516 L162.073047,166.955469 L163.398047,166.230078 L170.249609,178.741406 L177.101172,191.252734 L172.509766,193.766406 Z M186.833203,185.922266 L182.242187,188.436328 L168.539062,163.414062 L168.704297,163.323437 L169.864062,162.688281 L189.621484,176.383203 L186.833203,185.922266 Z" id="Shape"></path>
            </g>
        </g>
    </g>
</svg>