<?xml version="1.0" encoding="UTF-8"?>
<svg width="200px" height="200px" viewBox="0 0 200 200" version="1.1" xmlns="http://www.w3.org/2000/svg" xmlns:xlink="http://www.w3.org/1999/xlink">
    <!-- Generator: Sketch 53.2 (72643) - https://sketchapp.com -->
    <title>010-diving</title>
    <desc>Created with Sketch.</desc>
    <g id="Page-1" stroke="none" stroke-width="1" fill="none" fill-rule="evenodd">
        <g id="010-diving" fill="#4A7CB2" fill-rule="nonzero">
            <path d="M113.504028,97.3587035 C114.230347,96.6323852 114.648438,95.6253051 114.648438,94.5983887 C114.648438,93.5699461 114.230347,92.5628664 113.504028,91.8365477 C112.77771,91.1087035 111.769104,90.6921387 110.742188,90.6921387 C109.715271,90.6921387 108.706665,91.1087035 107.980347,91.8365477 C107.254028,92.5628664 106.835938,93.5699461 106.835938,94.5983887 C106.835938,95.6253051 107.254028,96.6323852 107.980347,97.3587035 C108.708191,98.0865477 109.715271,98.5046387 110.742188,98.5046387 C111.769104,98.5046387 112.77771,98.0865477 113.504028,97.3587035 Z" id="Path"></path>
            <path d="M196.534729,19.8516844 C191.966248,15.2816773 184.532166,15.2816773 179.962158,19.8516844 L174.436951,25.3753664 C174.436951,25.3768922 174.436951,25.3768922 174.435425,25.378418 L154.003906,45.8099367 L148.756409,46.9757078 C149.630738,44.8623656 150.115967,42.5506594 150.115967,40.1260375 C150.115967,30.2185059 142.054748,22.1572875 132.147217,22.1572875 C122.239685,22.1572875 114.178467,30.2185059 114.178467,40.1260375 C114.178467,45.3552246 116.424561,50.0686645 120.002746,53.3554078 L115.357971,54.3853758 C115.257263,54.4082641 115.159607,54.4448852 115.060425,54.473877 C114.41803,52.0065309 113.134766,49.6704102 111.204529,47.7401734 C105.418396,41.9525148 96.0006715,41.9525148 90.2130125,47.7401734 L68.9468383,69.0063477 C68.9453125,69.0078734 68.9453125,69.0078734 68.9437867,69.0093992 C68.9437867,69.0093992 68.9437867,69.0093992 68.9422609,69.0109254 L64.3035891,73.6495973 C58.5159301,79.4372559 58.5159301,88.8549805 64.3035891,94.6426391 C66.0675047,96.4050293 68.1961059,97.6699828 70.5200195,98.3657836 L60.1257324,108.760071 C56.2393188,112.644959 51.4129641,115.568543 46.1700438,117.21344 L22.8912352,124.51477 C22.1084594,124.758911 21.4324953,125.245666 20.9457398,125.889588 C20.907593,125.935364 20.8679199,125.987244 20.8267211,126.048279 L0.6729125,155.766296 C0.0289917188,156.718445 -0.164794922,157.905579 0.144958594,159.013367 C0.456237891,160.121155 1.23901367,161.035156 2.28576641,161.512756 L23.3795164,171.131897 C23.8952637,171.366882 24.447632,171.484375 25,171.484375 C25.6408691,171.484375 26.2802125,171.327209 26.8585203,171.014404 C27.9342652,170.433045 28.6758422,169.378662 28.8619996,168.16864 L32.2280883,146.150207 L62.1139527,136.776734 C62.413025,136.683655 62.6998902,136.553955 62.9684449,136.390686 L69.342041,132.530213 C69.4061281,132.492066 69.4686891,132.450867 69.53125,132.408142 L72.3937988,130.439758 L72.163391,131.829834 C71.4309691,136.274719 69.3573,140.309143 66.1712648,143.495178 L48.0911254,161.575317 C48.0819703,161.584473 48.0728148,161.593628 48.0636598,161.602783 L48.0606078,161.607361 C48.0560305,161.611938 48.0514527,161.616516 48.0453492,161.62262 C47.8744508,161.795044 47.7142336,161.984253 47.5738523,162.193298 L30.6503297,187.214661 C29.9545289,188.246155 29.789734,189.546204 30.2078246,190.716553 C30.6259156,191.888428 31.5765383,192.790222 32.7682496,193.145752 L55.1498414,199.836731 C55.5160523,199.946594 55.8929445,200 56.2683105,200 C56.9274902,200 57.5820922,199.833679 58.1680297,199.507141 C59.0881348,198.994446 59.7625734,198.132324 60.0387574,197.116089 L65.3701781,177.444458 L86.2960816,156.517029 C90.6433105,152.1698 93.4707641,146.664429 94.4717406,140.596008 L99.2538453,111.611938 L103.283691,107.580566 C104.80957,106.054688 104.80957,103.581238 103.283691,102.055359 C101.757813,100.531006 99.2843629,100.531006 97.758484,102.056885 L93.095398,106.719971 L65.1977539,125.906372 L59.3246461,129.463196 L31.2942504,138.25531 L28.9550781,130.799866 L48.5076906,124.668884 C54.9484254,122.648621 60.8764648,119.058227 65.6494141,114.285278 L82.9010008,97.0336914 C82.9208375,97.0138551 82.9376219,96.9924926 82.9574586,96.9726563 L85.0875855,94.8425293 C85.15625,94.7753906 85.2279664,94.7113039 85.2966309,94.6426391 L111.206055,68.7332152 C111.273193,68.6660766 111.334229,68.5974121 111.399841,68.5302734 L118.162537,61.7660523 L156.806946,53.1921387 C157.533264,53.0303953 158.198547,52.6657105 158.72345,52.139282 L177.200317,33.6624145 L182.725525,39.1860961 L161.779785,60.1318359 L144.732666,65.4785156 C134.82666,68.5852051 125.709534,74.1088867 118.367004,81.4498902 C116.841125,82.9757691 116.841125,85.4492188 118.367004,86.9750977 C119.892883,88.4994508 122.364807,88.4994508 123.890686,86.9750977 C130.345154,80.5206297 138.360596,75.6637574 147.070313,72.9339602 L165.052795,67.2943117 C165.736389,67.0791625 166.337586,66.682434 166.801453,66.1605836 L191.009521,41.9509887 C191.011047,41.9509887 191.011047,41.9494629 191.012573,41.9494629 L196.536255,36.4242555 C201.104736,31.8557738 201.104736,24.4216918 196.534729,19.8516844 L196.534729,19.8516844 Z M132.147217,29.9713133 C137.747192,29.9713133 142.303467,34.5275879 142.303467,40.1275633 C142.303467,45.7275391 137.747192,50.2838133 132.147217,50.2838133 C126.547241,50.2838133 121.990967,45.7275391 121.990967,40.1275633 C121.990967,34.5275879 126.547241,29.9713133 132.147217,29.9713133 Z M53.5476684,191.203308 L40.1031492,187.184143 L51.4038086,170.474243 L57.5103758,176.579285 L53.5476684,191.203308 Z M80.7724,150.991821 L61.8713379,169.892883 L56.3476562,164.369202 L71.6964723,149.020386 C76.0437012,144.671631 78.8711547,139.16626 79.8721312,133.100891 L81.324768,124.29657 L90.2557375,118.154907 L86.7630004,139.324951 C86.0305785,143.771363 83.9584352,147.805786 80.7724,150.991821 L80.7724,150.991821 Z M21.9192504,161.880493 L9.73510742,156.323242 L22.7523805,137.129211 L24.7375488,143.455505 L21.9192504,161.880493 Z M90.045166,58.9569094 L99.9847414,68.8949586 L87.1704102,81.7108156 L77.2308352,71.7712402 L90.045166,58.9569094 Z M105.680847,53.2653809 C108.389282,55.9722898 108.416748,60.3546141 105.776977,63.104248 L105.508423,63.371277 L95.5703734,53.4317016 L95.7382203,53.2653809 C98.4786988,50.5233766 102.940369,50.5249023 105.680847,53.2653809 Z M69.8272703,79.1748047 L71.7071531,77.2964477 L81.6452027,87.2344969 L79.6615602,89.2166137 C78.3477781,90.4800414 76.6281129,91.177368 74.8001098,91.177368 C72.9217531,91.177368 71.1563109,90.4464723 69.8272703,89.1189574 C67.0867922,86.3769531 67.0867922,81.916809 69.8272703,79.1748047 Z M191.011047,25.3768922 C192.533875,26.8997191 192.533875,29.3777465 191.011047,30.9005738 L188.249207,33.6624145 L182.723999,28.1387328 L185.48584,25.3768922 C187.008667,23.8525391 189.48822,23.8525391 191.011047,25.3768922 Z" id="Shape"></path>
            <path d="M178.90625,128.242493 C178.90625,126.0849 177.157593,124.336243 175,124.336243 C172.842407,124.336243 171.09375,126.0849 171.09375,128.242493 C171.09375,132.678223 168.339539,136.480713 164.453125,138.035584 L164.453125,118.711853 C164.453125,116.55426 162.704468,114.805603 160.546875,114.805603 C158.389282,114.805603 156.640625,116.55426 156.640625,118.711853 L156.640625,138.035584 C152.754211,136.480713 150,132.678223 150,128.242493 C150,126.0849 148.251343,124.336243 146.09375,124.336243 C143.936157,124.336243 142.1875,126.0849 142.1875,128.242493 C142.1875,137.025452 148.388672,144.38324 156.640625,146.179199 L156.640625,160.523987 C152.754211,158.969116 150,155.166626 150,150.730896 C150,148.573303 148.251343,146.824646 146.09375,146.824646 C143.936157,146.824646 142.1875,148.573303 142.1875,150.730896 C142.1875,159.513855 148.388672,166.871643 156.640625,168.667602 L156.640625,183.01239 C152.754211,181.455994 150,177.653504 150,173.217773 C150,171.061707 148.251343,169.311523 146.09375,169.311523 C143.936157,169.311523 142.1875,171.061707 142.1875,173.217773 C142.1875,182.000732 148.388672,189.360046 156.640625,191.156006 L156.640625,196.09375 C156.640625,198.251343 158.389282,200 160.546875,200 C162.704468,200 164.453125,198.251343 164.453125,196.09375 L164.453125,191.15448 C172.705078,189.35852 178.90625,182.000732 178.90625,173.217773 C178.90625,171.06018 177.157593,169.311523 175,169.311523 C172.842407,169.311523 171.09375,171.06018 171.09375,173.217773 C171.09375,177.653504 168.339539,181.455994 164.453125,183.010864 L164.453125,168.666077 C172.705078,166.871643 178.90625,159.512329 178.90625,150.72937 C178.90625,148.573303 177.157593,146.82312 175,146.82312 C172.842407,146.82312 171.09375,148.573303 171.09375,150.72937 C171.09375,155.1651 168.339539,158.96759 164.453125,160.523987 L164.453125,146.179199 C172.705078,144.38324 178.90625,137.025452 178.90625,128.242493 L178.90625,128.242493 Z" id="Path"></path>
            <path d="M7.8125,58.4121703 C7.8125,56.2561035 6.06384297,54.5059203 3.90625,54.5059203 C1.74865703,54.5059203 0,56.2561035 0,58.4121703 C0,67.1951293 6.20117187,74.5544434 14.453125,76.3504027 L14.453125,81.2896727 C14.453125,83.4457398 16.201782,85.1959227 18.359375,85.1959227 C20.516968,85.1959227 22.265625,83.4457398 22.265625,81.2896727 L22.265625,76.3504027 C30.5175781,74.5544434 36.71875,67.1966555 36.71875,58.4121703 C36.71875,56.2561035 34.970093,54.5059203 32.8125,54.5059203 C30.654907,54.5059203 28.90625,56.2561035 28.90625,58.4121703 C28.90625,62.8479004 26.1520387,66.6503906 22.265625,68.2067871 L22.265625,53.8619996 C30.5175781,52.0660398 36.71875,44.708252 36.71875,35.925293 C36.71875,33.7677 34.970093,32.019043 32.8125,32.019043 C30.654907,32.019043 28.90625,33.7677 28.90625,35.925293 C28.90625,40.361023 26.1520387,44.1635133 22.265625,45.7183836 L22.265625,31.3735961 C30.5175781,29.5791625 36.71875,22.2198484 36.71875,13.4368898 C36.71875,11.2792969 34.970093,9.53063984 32.8125,9.53063984 C30.654907,9.53063984 28.90625,11.2792969 28.90625,13.4368898 C28.90625,17.8726195 26.1520387,21.6751098 22.265625,23.2315063 L22.265625,3.90625 C22.265625,1.74865703 20.516968,0 18.359375,0 C16.201782,0 14.453125,1.74865703 14.453125,3.90625 L14.453125,23.2315063 C10.5667113,21.6751098 7.8125,17.8726195 7.8125,13.4368898 C7.8125,11.2808227 6.06384297,9.53063984 3.90625,9.53063984 C1.74865703,9.53063984 0,11.2808227 0,13.4368898 C0,22.2198484 6.20117187,29.5791625 14.453125,31.3751219 L14.453125,45.7183836 C10.5667113,44.1635133 7.8125,40.361023 7.8125,35.925293 C7.8125,33.7677 6.06384297,32.019043 3.90625,32.019043 C1.74865703,32.019043 0,33.7677 0,35.925293 C0,44.708252 6.20117187,52.0660398 14.453125,53.8619996 L14.453125,68.2067871 C10.5667113,66.6503906 7.8125,62.8479004 7.8125,58.4121703 Z" id="Path"></path>
            <path d="M175,81.3171387 C167.677307,81.3171387 161.71875,87.2756957 161.71875,94.5983887 C161.71875,101.922607 167.677307,107.879639 175,107.879639 C182.324219,107.879639 188.28125,101.922607 188.28125,94.5983887 C188.28125,87.2756957 182.324219,81.3171387 175,81.3171387 Z M175,100.067139 C171.984863,100.067139 169.53125,97.6135254 169.53125,94.5983887 C169.53125,91.583252 171.984863,89.1296387 175,89.1296387 C178.015137,89.1296387 180.46875,91.583252 180.46875,94.5983887 C180.46875,97.6135254 178.015137,100.067139 175,100.067139 Z" id="Shape"></path>
            <path d="M118.084717,139.01062 C111.62262,139.01062 106.365967,144.268799 106.365967,150.72937 C106.365967,157.191467 111.62262,162.44812 118.084717,162.44812 C124.546814,162.44812 129.803467,157.191467 129.803467,150.72937 C129.803467,144.268799 124.546814,139.01062 118.084717,139.01062 Z M118.084717,154.63562 C115.930176,154.63562 114.178467,152.883911 114.178467,150.72937 C114.178467,148.576355 115.930176,146.82312 118.084717,146.82312 C120.237732,146.82312 121.990967,148.576355 121.990967,150.72937 C121.990967,152.883911 120.237732,154.63562 118.084717,154.63562 Z" id="Shape"></path>
            <path d="M69.6838379,36.71875 C76.1459352,36.71875 81.4025879,31.4620973 81.4025879,25 C81.4025879,18.5379027 76.1459352,13.28125 69.6838379,13.28125 C63.2232664,13.28125 57.9650879,18.5379027 57.9650879,25 C57.9650879,31.4620973 63.2232664,36.71875 69.6838379,36.71875 Z M69.6838379,21.09375 C71.8383789,21.09375 73.5900879,22.845459 73.5900879,25 C73.5900879,27.154541 71.8383789,28.90625 69.6838379,28.90625 C67.5308227,28.90625 65.7775879,27.154541 65.7775879,25 C65.7775879,22.845459 67.5308227,21.09375 69.6838379,21.09375 Z" id="Shape"></path>
            <path d="M100.050354,176.538086 C99.0234375,176.538086 98.0163574,176.953125 97.2885133,177.684021 C96.559143,178.410339 96.1441039,179.41742 96.1441039,180.444336 C96.1441039,181.472778 96.559143,182.479859 97.2885133,183.206177 C98.0163574,183.932495 99.0234375,184.350586 100.050354,184.350586 C101.078796,184.350586 102.085877,183.934021 102.812195,183.206177 C103.538513,182.476807 103.956604,181.472778 103.956604,180.444336 C103.956604,179.41742 103.538513,178.410339 102.812195,177.684021 C102.085877,176.953125 101.078796,176.538086 100.050354,176.538086 Z" id="Path"></path>
            <path d="M129.910278,114.019775 C128.883362,114.019775 127.874756,114.437866 127.148438,115.164184 C126.422119,115.890503 126.004028,116.899109 126.004028,117.926025 C126.004028,118.952942 126.422119,119.961548 127.148438,120.687866 C127.879334,121.414184 128.883362,121.832275 129.910278,121.832275 C130.937195,121.832275 131.945801,121.414184 132.672119,120.687866 C133.401489,119.961548 133.816528,118.95752 133.816528,117.926025 C133.816528,116.899109 133.401489,115.890503 132.672119,115.164184 C131.945801,114.437866 130.941773,114.019775 129.910278,114.019775 Z" id="Path"></path>
            <path d="M42.6132203,95.1477051 C43.6401367,95.1477051 44.6487426,94.7311402 45.3750609,94.0032961 C46.1013793,93.2769773 46.5194703,92.2698977 46.5194703,91.2414551 C46.5194703,90.2145387 46.1013793,89.2074586 45.3750609,88.4811402 C44.6441648,87.7532961 43.6401367,87.3352051 42.6132203,87.3352051 C41.5817262,87.3352051 40.5776977,87.7532961 39.8483277,88.4811402 C39.1220094,89.2074586 38.7069703,90.2145387 38.7069703,91.2414551 C38.7069703,92.2698977 39.1220094,93.2769773 39.8483277,94.0032961 C40.5776977,94.7311402 41.5817262,95.1477051 42.6132203,95.1477051 Z" id="Path"></path>
        </g>
    </g>
</svg>