<?xml version="1.0" encoding="UTF-8"?>
<svg width="200px" height="81px" viewBox="0 0 200 81" version="1.1" xmlns="http://www.w3.org/2000/svg" xmlns:xlink="http://www.w3.org/1999/xlink">
    <!-- Generator: Sketch 53.2 (72643) - https://sketchapp.com -->
    <title>007-car</title>
    <desc>Created with Sketch.</desc>
    <g id="Page-1" stroke="none" stroke-width="1" fill="none" fill-rule="evenodd">
        <g id="007-car" fill="#4A7CB2" fill-rule="nonzero">
            <polygon id="Path" points="83.3333333 30.1703559 96.6661243 30.1703559 96.6661243 36.8381076 83.3333333 36.8381076"></polygon>
            <path d="M197.139486,20.2039931 L174.496799,16.9704861 C170.36811,14.4341361 166.083442,12.1636285 161.665853,10.1711698 C147.077094,3.56309687 131.243218,0.153265972 115.226237,0.170898611 L111.29286,0.170898611 C92.3909507,0.184461806 73.7915038,4.92757153 57.1899413,13.9675562 L45.7628038,20.2012806 C32.3866104,20.3518337 19.2681208,23.9095052 7.64702708,30.5338542 C2.92426215,33.2424587 0.00813802083,38.2676868 0,43.7106663 L0,63.5036892 C0,65.3455944 1.49197049,66.8375653 3.33387569,66.8375653 L14.5263674,66.8375653 C18.166775,77.2230361 29.5369465,82.6917861 39.9224174,79.0513781 C45.6393771,77.0480687 50.1329208,72.5531684 52.1362306,66.8375653 L141.193305,66.8375653 C144.833713,77.2230361 156.203885,82.6917861 166.589356,79.0513781 C172.304959,77.0480687 176.799859,72.5531684 178.803168,66.8375653 L179.999458,66.8375653 C180.423991,66.8375653 180.844455,66.7575413 181.239149,66.6002062 L192.03559,62.2680663 C196.858724,60.3583441 200.017632,55.689833 200,50.5045573 L200,23.5039604 C200,21.846517 198.780653,20.4399958 197.139486,20.2039931 Z M46.3962132,62.8377278 C44.921875,70.0520833 37.8784181,74.705675 30.6640625,73.2313368 C23.4483507,71.7569986 18.794759,64.7135417 20.2690972,57.4978299 C21.7447917,50.2834743 28.7882486,45.6298826 36.0026042,47.1042208 C42.2105576,48.3723958 46.6674806,53.8343642 46.6661243,60.1711698 C46.6661243,61.0663521 46.5752497,61.9601778 46.3962132,62.8377278 Z M106.666395,60.1711698 L53.3325194,60.1711698 C53.3325194,49.1251628 44.3793403,40.1706271 33.3333333,40.1706271 C22.2873264,40.1706271 13.332791,49.1251628 13.332791,60.1711698 L6.66639549,60.1711698 L6.66639549,43.7106663 C6.67046458,40.6575521 8.3062066,37.8377278 10.9564889,36.3213434 C21.8343097,30.1106771 34.1417101,26.8419056 46.6661243,26.8378365 L106.666395,26.8378365 L106.666395,60.1711698 Z M106.666395,20.171441 L59.7398545,20.171441 L60.3827583,19.8201497 C74.6337889,12.0754667 90.4635958,7.68500417 106.666395,6.98377812 L106.666395,20.171441 Z M113.332791,6.83722866 L115.219455,6.83729375 C128.652615,6.82237431 141.963705,9.3722875 154.440647,14.3513997 L148.620606,20.171441 L113.332791,20.171441 L113.332791,6.83722866 Z M173.063151,62.8377278 C171.588813,70.0520833 164.545356,74.705675 157.329644,73.2313368 C150.115289,71.7569986 145.461697,64.7135417 146.936035,57.4978299 C148.410373,50.2834743 155.455187,45.6298826 162.669542,47.1042208 C168.877496,48.3723958 173.334418,53.8343642 173.333062,60.1711698 C173.333062,61.0663521 173.242187,61.9601778 173.063151,62.8377278 Z M193.333605,30.1703559 L183.333333,30.1703559 L183.333333,36.8381076 L193.333605,36.8381076 L193.333605,50.5045573 C193.341743,52.9608833 191.844347,55.1717122 189.560276,56.0736764 L179.999458,59.9134656 C179.999458,59.6069337 179.960124,59.3031142 179.939778,58.9965819 C179.919434,58.69005 179.912652,58.3306208 179.8801,57.9969618 C179.846191,57.6633028 179.779731,57.3296441 179.726834,56.9973417 C179.67258,56.6636826 179.633247,56.330024 179.566786,56.0275608 C179.500326,55.7237413 179.402669,55.3873698 179.315864,55.0699868 C179.229058,54.7539604 179.162598,54.4338649 179.062229,54.1232639 C178.963216,53.8140191 178.842502,53.5169812 178.729926,53.2131618 C178.615994,52.9106986 178.512912,52.5973851 178.396267,52.2962781 C178.279622,51.9965278 178.122287,51.7239042 177.982585,51.4404299 C177.842882,51.1569552 177.705892,50.8463542 177.549913,50.560167 C177.392578,50.2739799 177.216254,50.0298396 177.065701,49.7639972 C176.916504,49.496799 176.733399,49.1929795 176.543511,48.9203559 C176.352268,48.6463757 176.175944,48.4307184 175.992839,48.1838649 C175.809733,47.9370118 175.602214,47.6467556 175.389269,47.390408 C175.176324,47.1340604 174.976942,46.9333226 174.769423,46.7230903 C174.56326,46.5142146 174.332682,46.2307399 174.103461,45.99745 C173.872884,45.7641601 173.646376,45.5796983 173.417155,45.3735351 C173.186578,45.1673719 172.939724,44.9232312 172.68609,44.7062174 C172.433811,44.4905597 172.176107,44.3237306 171.923828,44.1338434 C171.670193,43.9439562 171.416558,43.7405056 171.150716,43.5628257 C170.883518,43.3865017 170.583767,43.2305229 170.29758,43.0433486 C170.010037,42.856174 169.776747,42.7096896 169.506836,42.5672743 C169.236925,42.4235028 168.900553,42.2729493 168.594021,42.1264649 C168.287489,41.9799806 168.047417,41.8497722 167.763943,41.7304146 C167.480469,41.6097007 167.096625,41.4835611 166.764323,41.3642035 C166.430664,41.2434896 166.21365,41.1499024 165.930176,41.060384 C165.550401,40.9437392 165.161133,40.8596462 164.77322,40.7633465 C164.519585,40.7036674 164.276801,40.6236437 164.020453,40.5707465 C163.61084,40.4866535 163.190375,40.4405382 162.77398,40.3795031 C162.527127,40.346951 162.291124,40.2926976 162.044271,40.2696396 C161.376953,40.2031792 160.710992,40.1665583 160.011122,40.1665583 C148.969184,40.177409 140.02143,49.1251628 140.01058,60.1671007 L113.334147,60.1671007 L113.334147,26.8364799 L150,26.8364799 C150.884332,26.8364799 151.732042,26.4851889 152.355957,25.8599174 L160.999892,17.215983 C164.628092,18.9426 168.155924,20.872667 171.567111,22.9966906 C171.960449,23.2421875 172.399902,23.4035917 172.859701,23.4700521 L193.333605,26.392958 L193.333605,30.1703559 Z" id="Shape"></path>
        </g>
    </g>
</svg>