<?xml version="1.0" encoding="UTF-8"?>
<svg width="200px" height="200px" viewBox="0 0 200 200" version="1.1" xmlns="http://www.w3.org/2000/svg" xmlns:xlink="http://www.w3.org/1999/xlink">
    <!-- Generator: Sketch 53.2 (72643) - https://sketchapp.com -->
    <title>010-croquet</title>
    <desc>Created with Sketch.</desc>
    <g id="Page-1" stroke="none" stroke-width="1" fill="none" fill-rule="evenodd">
        <g id="Artboard" transform="translate(-1043.000000, -382.000000)" fill="#4A7CB2" fill-rule="nonzero">
            <g id="010-croquet" transform="translate(1043.000000, 382.000000)">
                <polygon id="Path" points="55.7821952 160.345262 60.3436871 155.78377 66.7953 162.233808 62.2338081 166.7953"></polygon>
                <polygon id="Path" points="26.7499371 131.311429 31.311429 126.749937 53.8904992 149.329007 49.3290073 153.892074"></polygon>
                <path d="M169.391066,44.8478452 L182.294292,41.6220387 L195.044733,28.8715976 C198.242188,25.6772935 200,21.4323968 200,16.9102823 C200,7.58726048 192.41274,0 183.086568,0 C178.573904,0 174.325857,1.7578125 171.128402,4.95211694 L158.377961,17.7057081 L155.152155,30.6057839 L75.8064516,109.954637 L43.2711694,77.4193548 L41.9354839,77.4193548 C18.813004,77.4193548 8.52651283e-14,96.2323589 8.52651283e-14,119.354839 L8.52651283e-14,120.690524 L79.3094758,200 L80.6451613,200 C103.767641,200 122.580645,181.186996 122.580645,158.064516 L122.580645,156.728831 L90.0453629,124.193548 L169.391066,44.8478452 Z M160.976877,33.9103452 L164.202684,21.0039694 L175.689894,9.51675887 C177.668221,7.53843226 180.297064,6.4516129 183.086568,6.4516129 C188.854587,6.4516129 193.548387,11.1422629 193.548387,16.9102823 C193.548387,19.7060863 192.461568,22.331779 190.483241,24.3069556 L178.992881,35.7973161 L166.089655,39.0231226 L85.483871,119.632056 L80.3679435,114.516129 L160.976877,33.9103452 Z M78.0745968,189.638987 L74.2581274,185.822518 C74.9196698,167.274131 89.8579258,152.339025 108.403163,151.677482 L112.219632,155.493952 C94.8131931,158.492944 81.0735887,172.232548 78.0745968,189.638987 L78.0745968,189.638987 Z M68.3971774,179.961568 L16.1936113,127.758002 C16.8551536,109.209615 31.7934097,94.2745085 50.3386468,93.6129661 L102.542213,145.816532 C85.1357738,148.815524 71.3961694,162.555129 68.3971774,179.961568 L68.3971774,179.961568 Z M40.62185,83.8961694 L44.4776968,87.7520161 C27.0712577,90.7541581 13.3316532,104.493763 10.3326613,121.897052 L6.47681452,118.041205 C7.15095766,99.5195944 22.1002395,84.5734629 40.62185,83.8961694 Z M84.045804,193.345199 C85.6681577,176.513672 99.0943169,163.084363 115.928994,161.465159 C114.312941,178.312437 100.893082,191.732296 84.045804,193.345199 Z" id="Shape"></path>
                <path d="M158.064516,83.8709677 C134.942036,83.8709677 116.129032,102.683972 116.129032,125.806452 C116.129032,148.928931 134.942036,167.741935 158.064516,167.741935 C181.186996,167.741935 200,148.928931 200,125.806452 C200,102.683972 181.186996,83.8709677 158.064516,83.8709677 Z M122.580645,125.806452 C122.580645,119.677734 124.14472,113.906565 126.890121,108.870968 L175,156.980847 C169.961252,159.726248 164.193233,161.290323 158.064516,161.290323 C138.500189,161.290323 122.580645,145.370779 122.580645,125.806452 Z M180.448274,153.306137 L130.564831,103.422694 C132.094254,101.548324 133.806389,99.8361895 135.680758,98.3067665 L185.564201,148.193359 C184.034778,150.064579 182.322644,151.779864 180.448274,153.306137 Z M189.238911,142.741935 L141.129032,94.6320565 C146.164629,91.8866556 151.935799,90.3225806 158.064516,90.3225806 C177.628843,90.3225806 193.548387,106.242125 193.548387,125.806452 C193.548387,131.935169 191.984312,137.706338 189.238911,142.741935 Z" id="Shape"></path>
            </g>
        </g>
    </g>
</svg>