<?xml version="1.0" encoding="UTF-8"?>
<svg width="200px" height="202px" viewBox="0 0 200 202" version="1.1" xmlns="http://www.w3.org/2000/svg" xmlns:xlink="http://www.w3.org/1999/xlink">
    <!-- Generator: Sketch 53.2 (72643) - https://sketchapp.com -->
    <title>009-whistle</title>
    <desc>Created with Sketch.</desc>
    <g id="Page-1" stroke="none" stroke-width="1" fill="none" fill-rule="evenodd">
        <g id="009-whistle" transform="translate(0.000000, -0.000000)" fill="#4A7CB2" fill-rule="nonzero">
            <path d="M199.498819,19.5854331 L188.280709,1.40275591 C187.425984,0.0173228346 185.611811,-0.414566929 184.224803,0.435826772 L99.846063,52.1531496 C98.4708661,52.9964567 98.0291339,54.8484252 98.876378,56.2212598 L103.616929,63.9047244 L88.7535433,73.073622 L83.9775591,65.3326772 C83.1232283,63.9480315 81.3090551,63.5153543 79.9216535,64.365748 C69.5181102,70.742126 59.0984252,77.1102362 48.7224409,83.5133858 C34.2232283,92.4574803 24.0751969,106.512598 20.1480315,123.088583 C16.9625984,136.534252 18.1795276,150.333071 23.526378,162.80315 C23.0874016,162.663386 22.6429134,162.534646 22.1897638,162.427165 C12.5350394,160.141339 2.81732283,166.133858 0.52992126,175.788583 C-0.578346457,180.466142 0.201574803,185.294882 2.72559055,189.385433 C11.588189,203.750394 34.2728346,198.414567 35.95,181.69685 C48.1767717,194.583465 65.0901575,201.551181 82.3145669,201.551181 C93.7330709,201.551181 105.286614,198.491339 115.697638,192.068504 C130.19685,183.124016 140.344882,169.069291 144.272047,152.493307 C148.2,135.916929 145.43622,118.803543 136.491339,104.305512 C134.994488,101.879134 132.245669,98.4098425 130.462992,96.2299213 L161.279134,63.4401575 C163.887402,60.6645669 159.584646,56.6200787 156.975984,59.3956693 L124.372047,94.0874016 C123.34252,95.1826772 123.3,96.8767717 124.273622,98.0220472 C124.324803,98.0818898 129.41378,104.080709 131.465354,107.406299 C139.58189,120.561811 142.088976,136.090551 138.525591,151.13189 C134.961811,166.173228 125.753937,178.927165 112.597244,187.043307 C85.4374016,203.797244 49.7098425,195.333858 32.9543307,168.175984 C24.8377953,155.020472 22.330315,139.491732 25.8940945,124.450394 C29.457874,109.409055 38.6661417,96.6555118 51.8228346,88.5393701 C61.361811,82.6582677 70.9354331,76.8003937 80.4972441,70.9397638 L85.2775591,78.6877953 C86.1338583,80.0751969 87.9527559,80.5074803 89.3405512,79.65 L109.230315,67.3807087 C110.600394,66.5358268 111.038189,64.6870079 110.192913,63.3173228 L105.457087,55.6413386 L184.800787,7.00905512 L193.285433,20.761811 L171.037008,44.4350394 C168.42874,47.2106299 172.73189,51.2559055 175.340157,48.4795276 L199.137402,23.1582677 C200.051181,22.1854331 200.199606,20.7208661 199.498819,19.5854331 Z M29.8062992,182.724409 C28.2692913,189.211417 21.7385827,193.236614 15.253937,191.701575 C12.1114173,190.957087 9.44685039,189.033858 7.7511811,186.285039 C6.05551181,183.537008 5.53188976,180.29252 6.27598425,177.150787 C7.59173228,171.597638 12.5661417,167.84685 18.0409449,167.84685 C18.9606299,167.84685 19.8952756,167.952756 20.8283465,168.173622 C23.9708661,168.91811 26.6354331,170.841339 28.3311024,173.590157 C30.0267717,176.338189 30.5503937,179.582283 29.8062992,182.724409 Z" id="Shape"></path>
            <path d="M52.4866142,122.827165 C50.9610236,122.254331 49.2574803,123.025197 48.6834646,124.551969 C44.7661417,134.972441 45.8681102,146.376378 51.7066929,155.840157 C61.8929134,172.350394 84.2405512,177.661811 100.773228,167.463386 C117.301181,157.267717 122.60748,134.948425 112.397638,118.4 C102.074016,101.668898 80.0633858,96.4543307 63.3311024,106.776772 C60.0897638,108.776772 63.1897638,113.801181 66.4314961,111.802756 C80.3933071,103.190157 98.7582677,107.541339 107.371654,121.501575 C115.891732,135.310236 111.459843,153.93189 97.6724409,162.438189 C83.7110236,171.050394 65.3452756,166.699606 56.7322835,152.73937 C51.8606299,144.843307 50.9417323,135.326772 54.2110236,126.631102 C54.7854331,125.103543 54.0129921,123.401181 52.4866142,122.827165 Z" id="Path"></path>
            <path d="M46.1082677,52.1129921 L72.8102362,58.438189 C76.4433071,59.2984252 77.8917323,53.573622 74.1716535,52.6917323 L47.469685,46.3665354 C43.7633858,45.4874016 42.4023622,51.2346457 46.1082677,52.1129921 Z" id="Path"></path>
            <path d="M78.4082677,47.1527559 C80.3807087,50.3503937 85.4385827,47.3007874 83.434252,44.0515748 L66.4925197,16.592126 C64.4925197,13.3511811 59.4669291,16.4515748 61.4665354,19.6933071 L78.4082677,47.1527559 Z" id="Path"></path>
            <path d="M92.1074803,46.534252 C93.6476378,46.8988189 95.2956693,45.8858268 95.6614173,44.342126 L101.987402,17.642126 C102.865354,13.9358268 97.1192913,12.5748031 96.2409449,16.280315 L89.9149606,42.980315 C89.5389764,44.5673228 90.5208661,46.1582677 92.1074803,46.534252 Z" id="Path"></path>
        </g>
    </g>
</svg>