<?xml version="1.0" encoding="UTF-8"?>
<svg width="200px" height="200px" viewBox="0 0 200 200" version="1.1" xmlns="http://www.w3.org/2000/svg" xmlns:xlink="http://www.w3.org/1999/xlink">
    <!-- Generator: Sketch 53.2 (72643) - https://sketchapp.com -->
    <title>050-world</title>
    <desc>Created with Sketch.</desc>
    <g id="Page-1" stroke="none" stroke-width="1" fill="none" fill-rule="evenodd">
        <g id="050-world" fill="#4A7CB2" fill-rule="nonzero">
            <path d="M100,26.6859375 C57.7265625,26.6859375 23.3332031,61.0792969 23.3332031,103.352734 C23.3332031,145.626172 57.7265625,180.019141 100,180.019141 C142.273438,180.019141 176.666797,145.625781 176.666797,103.352344 C176.666797,61.0789062 142.273438,26.6859375 100,26.6859375 Z M100,173.352344 C61.4035156,173.352344 30,141.952344 30,103.352344 C30,64.7523437 61.4035156,33.3523437 100,33.3523437 C138.6,33.3523437 170,64.7523437 170,103.352344 C170,141.952344 138.6,173.352344 100,173.352344 Z" id="Shape"></path>
            <path d="M132.173437,33.7691406 C131.866797,33.6292969 131.543359,33.5324219 131.210156,33.4890625 L130.440234,33.3855469 C129.253516,33.215625 128.076953,33.7121094 127.353516,34.6621094 C126.626953,35.6121094 126.463672,36.8722656 126.923437,37.9753906 C129.213281,43.4488281 131.940234,54.5121094 128.453516,57.0519531 L120.726953,60.1417969 C114.876953,62.4816406 110.776953,67.8550781 110.026953,74.1851562 L109.976953,74.5683594 C109.79375,75.8949219 108.710156,76.2550781 108.253516,76.3484375 C107.426953,76.5152344 106.323437,76.3152344 105.690234,75.2550781 L102.380078,69.7382812 C101.163281,67.7082031 98.9167969,66.5015625 96.5835937,66.6449219 C94.2335937,66.7648437 92.1570312,68.1617187 91.1570312,70.2949219 C88.1804687,76.6515625 84.44375,85.825 83.5371094,93.4214844 C83.2570312,95.778125 83.6769531,98.1582031 84.7503906,100.308203 L88.59375,107.994922 C89.9570312,110.714844 92.0472656,113.021484 94.64375,114.661719 C97.0371094,116.171875 101.473828,119.218359 104.300391,122.631641 C107.517187,126.521484 111.850391,129.035156 116.503906,129.785156 C116.317187,136.028516 116.727344,146.291797 120.977344,150.825 C122.464062,152.408203 124.327344,153.278516 126.390625,153.348437 C126.764062,153.398437 127.420703,153.465234 128.270703,153.465234 C130.744141,153.465234 134.874219,152.905078 138.650781,149.785156 C143.910937,145.438672 146.607422,137.791797 146.667578,127.055078 L151.441016,105.568359 L153.254297,108.588281 C154.727734,111.044922 157.191016,112.771484 160.004297,113.325 C162.817578,113.878516 165.750781,113.205078 168.047656,111.485156 L175.334375,106.018359 C176.174219,105.388281 176.667578,104.401562 176.667578,103.351562 C176.666797,73.5957031 159.2,46.2824219 132.173437,33.7691406 Z M164.046484,106.152344 C163.246484,106.748828 162.263281,106.972266 161.286328,106.782422 C160.30625,106.592578 159.482813,106.0125 158.969531,105.155859 L155.512891,99.3925781 C154.373047,97.4890625 152.226172,96.4890625 150.026172,96.8460937 C147.836328,97.2027344 146.109375,98.8328125 145.626172,100.999609 L140.079688,125.962891 C140.026172,126.199609 139.999609,126.442969 139.999609,126.686328 C139.999609,135.342969 138.092969,141.529687 134.486328,144.579688 C131.189844,147.366406 127.419531,146.762891 127.299609,146.746484 C126.869531,146.666406 126.542969,147.013281 125.842969,146.266406 C123.766406,144.049609 122.716406,136.312891 123.289844,127.446484 C123.356641,126.392969 122.979688,125.342969 122.256641,124.573047 C121.530078,123.796484 120.496484,123.353125 119.430078,123.353125 C115.693359,123.353125 112.05,121.542969 109.433594,118.386328 C106.190234,114.462891 101.533594,111.129688 98.2003906,109.026172 C96.6335938,108.036328 95.3738281,106.649609 94.5570313,105.016016 L90.7136719,97.3292969 C90.2238281,96.3492188 90.0304688,95.2691406 90.1570313,94.209375 C90.9738281,87.3894531 94.6605469,78.6027344 96.9535156,73.6460938 L99.9769531,78.6828125 C101.976953,82.0160156 105.746875,83.6527344 109.59375,82.8761719 C113.323828,82.1128906 116.070313,79.209375 116.583594,75.4726563 L116.653516,74.9460938 C117.110156,71.0628906 119.620313,67.7628906 123.203516,66.3292969 L131.240234,63.1160156 C131.407031,63.0492188 131.573438,62.9660156 131.730078,62.8726563 C138.063281,59.0261719 137.243359,49.8191406 135.580078,43.0792969 C156.223438,55.3027344 169.403516,77.5226563 169.980078,101.702734 L164.046484,106.152344 Z" id="Shape"></path>
            <path d="M84.2832031,149.589062 L82.2632813,147.572266 C79.8132813,145.11875 76.953125,143.185547 73.7667969,141.81875 L63.4867187,137.412109 C59.3433594,135.635547 56.6667969,131.575391 56.6667969,127.065625 L56.6667969,122.048828 C56.6667969,118.978906 55.1601562,116.105469 52.6367188,114.355469 C50.1132812,112.608984 46.8902344,112.212109 44.0167969,113.285547 L28.0101562,119.285547 C26.4035156,119.889062 25.5136719,121.612109 25.9601562,123.272266 C33.4632812,151.215625 56.6335937,172.912109 84.9902344,178.542187 C85.2101562,178.585547 85.4300781,178.605469 85.64375,178.605469 C87.1070312,178.605469 88.4335937,177.642187 88.8503906,176.188672 L90.0703125,171.915234 C92.3367187,163.979297 90.1199219,155.422656 84.2832031,149.589062 Z M83.6601562,170.082422 L83.3,171.335938 C59.7566406,165.552734 40.5667969,147.575781 33.25,124.442578 L46.3566406,119.529297 C47.2,119.209375 48.103125,119.322656 48.8398438,119.835938 C49.5765625,120.346094 50,121.152734 50,122.049219 L50,127.066016 C50,134.246094 54.2632812,140.7125 60.8601563,143.539453 L71.1402344,147.946094 C73.546875,148.979297 75.7035156,150.439453 77.5503906,152.285937 L79.5703125,154.302734 C83.6933594,158.425781 85.2632812,164.472266 83.6601562,170.082422 Z" id="Shape"></path>
            <path d="M65.0566406,38.2492187 C64.0132813,36.9625 62.1832031,36.6390625 60.7597656,37.4890625 C38.7464844,50.6324219 24.7964844,73.7191406 23.4464844,99.2425781 C23.3863281,100.372656 23.903125,101.455859 24.8199219,102.119141 C25.3964844,102.539062 26.0800781,102.752344 26.7734375,102.752344 C27.1835937,102.752344 27.5933594,102.675781 27.9800781,102.528906 L48.6566406,94.36875 C53.6101563,92.3855469 56.1667969,86.8722656 54.4800781,81.8121094 C54.0699219,80.5753906 54.3867187,79.2355469 55.3066406,78.3121094 L64.9132812,68.7054687 C68.1933594,65.4289062 70,61.06875 70,56.4289062 L70,52.0921875 C70,47.0925781 68.2433594,42.1757812 65.0566406,38.2492187 Z M63.3332031,56.4257812 C63.3332031,59.2859375 62.2199219,61.9691406 60.1964844,63.9890625 L50.5898438,73.5957031 C47.8730469,76.315625 46.9398438,80.2691406 48.1566406,83.915625 C48.7300781,85.6324219 47.8601563,87.5023437 46.1832031,88.1722656 L30.5765625,94.3589844 C33.1664063,74.1957031 44.4132813,56.1523437 61.503125,44.8890625 C62.6964844,47.1058594 63.3332031,49.5855469 63.3332031,52.0890625 L63.3332031,56.4257812 Z" id="Shape"></path>
            <path d="M100,0.019140625 C96.5535156,0.019140625 93.0765625,0.195703125 89.6667969,0.545703125 C87.8367187,0.732421875 86.5035156,2.37226562 86.6902344,4.20234375 C86.8667969,5.91914063 88.3167969,7.19570312 90.0035156,7.19570312 C90.1167969,7.19570312 90.2335937,7.1890625 90.346875,7.17578125 C93.5300781,6.85234375 96.7769531,6.6859375 100.000391,6.6859375 C101.840234,6.6859375 103.333594,5.19257812 103.333594,3.35273438 C103.333594,1.51289063 101.839844,0.019140625 100,0.019140625 Z" id="Path"></path>
            <path d="M7.98007813,115.705859 C7.11015625,110.558984 6.66679688,105.282422 6.66679688,100.019141 C6.66679688,98.9058594 6.68671875,97.7957031 6.72695313,96.6859375 C6.79023437,94.8460937 5.35039063,93.3058594 3.51015625,93.2394531 C1.68671875,93.1429687 0.130078125,94.6160156 0.063671875,96.45625 C0.019921875,97.6390625 0,98.8257813 0,100.019141 C0,105.652344 0.4734375,111.305859 1.40351563,116.819141 C1.68007813,118.445703 3.09023438,119.595703 4.68671875,119.595703 C4.8734375,119.595703 5.06015625,119.582422 5.25,119.549219 C7.06328125,119.242578 8.28671875,117.522266 7.98007813,115.705859 Z" id="Path"></path>
            <path d="M21.8070313,150.999219 C18.3265625,145.672266 15.3867188,139.975781 13.0699219,134.065625 C12.3964844,132.352344 10.4632813,131.505469 8.75,132.178906 C7.03671875,132.848828 6.18984375,134.782422 6.86328125,136.498828 C9.34648438,142.832031 12.4964844,148.935547 16.2234375,154.642188 C16.8632813,155.622266 17.9300781,156.152344 19.0167969,156.152344 C19.6433594,156.152344 20.2769531,155.975781 20.8402344,155.6125 C22.3800781,154.605859 22.8136719,152.539062 21.8070313,150.999219 Z" id="Path"></path>
            <path d="M14.1464844,55.4257813 C12.4863281,54.6359375 10.4964844,55.3390625 9.703125,56.9992188 C6.76640625,63.1492188 4.45976563,69.6226563 2.84648438,76.2359375 C2.41015625,78.0257812 3.50351563,79.8292969 5.29335938,80.265625 C5.56015625,80.3289063 5.8265625,80.3589844 6.08671875,80.3589844 C7.58671875,80.3589844 8.95,79.3355469 9.3234375,77.815625 C10.8300781,71.6457031 12.9800781,65.6054688 15.7199219,59.8691406 C16.5132813,58.2058594 15.8097656,56.2191406 14.1464844,55.4257813 Z" id="Path"></path>
            <path d="M38.9734375,24.9753906 C37.7632813,23.5886719 35.6601563,23.4421875 34.2699219,24.6554687 C29.1398438,29.1355469 24.45,34.1554687 20.3332031,39.5722656 C19.2199219,41.0355469 19.503125,43.1289062 20.9699219,44.2421875 C21.5730469,44.7023437 22.2800781,44.9222656 22.9832031,44.9222656 C23.9898438,44.9222656 24.9832031,44.465625 25.6398438,43.6054688 C29.4832031,38.5457031 33.8632813,33.8589844 38.6535156,29.6789062 C40.0402344,28.46875 40.1835938,26.3621094 38.9734375,24.9753906 Z" id="Path"></path>
            <path d="M83.7367187,191.945703 C77.4734375,190.842187 71.3066406,189.092187 65.4132812,186.739062 C63.7,186.055859 61.7632812,186.885547 61.0800781,188.599219 C60.396875,190.305859 61.2300781,192.245703 62.9402344,192.929297 C69.2570312,195.452734 75.8667969,197.329297 82.5800781,198.509375 C82.7734375,198.542578 82.9667969,198.559375 83.1601562,198.559375 C84.75,198.559375 86.1570313,197.419531 86.4433594,195.80625 C86.7601562,193.992578 85.55,192.265625 83.7367187,191.945703 Z" id="Path"></path>
            <path d="M125.656641,193.305859 C125.230078,191.5125 123.426562,190.4125 121.643359,190.832422 C115.483203,192.295703 109.126562,193.132422 102.746875,193.315625 C100.907031,193.365625 99.4570312,194.902344 99.5101562,196.742188 C99.5636719,198.548828 101.043359,199.978906 102.840234,199.978906 C102.870312,199.978906 102.903516,199.978906 102.940234,199.975781 C109.773437,199.779297 116.583594,198.885937 123.183594,197.319141 C124.973438,196.892578 126.080078,195.095703 125.656641,193.305859 Z" id="Path"></path>
            <path d="M73.8433594,6.87226562 C73.2867187,5.11875 71.4101562,4.15234375 69.6566406,4.70546875 C63.1699219,6.76875 56.8699219,9.515625 50.9332031,12.865625 C49.3296875,13.7722656 48.7664063,15.8054688 49.6699219,17.4089844 C50.2832031,18.4921875 51.4132813,19.1023437 52.5765625,19.1023437 C53.1300781,19.1023437 53.6933594,18.9625 54.2097656,18.6722656 C59.7464844,15.5457031 65.6265625,12.9824219 71.6765625,11.0589844 C73.4300781,10.5023438 74.4,8.62578125 73.8433594,6.87226562 Z" id="Path"></path>
            <path d="M48.5332031,177.889062 C43.2398437,174.385547 38.2832031,170.319141 33.7964844,165.805859 C32.5,164.502344 30.3863281,164.492578 29.0832031,165.792578 C27.7796875,167.092578 27.7730469,169.202734 29.0699219,170.509375 C33.8765625,175.342578 39.1867187,179.699219 44.853125,183.452734 C45.4199219,183.826172 46.0597656,184.00625 46.6898437,184.00625 C47.7699219,184.00625 48.8296875,183.482812 49.4699219,182.509766 C50.4867187,180.975781 50.0667969,178.905859 48.5332031,177.889062 Z" id="Path"></path>
            <path d="M152.853516,181.035937 C151.896875,179.4625 149.846875,178.955859 148.273437,179.9125 C145.533594,181.572656 142.673437,183.105859 139.773437,184.475781 C138.110156,185.2625 137.393359,187.245703 138.180078,188.9125 C138.75,190.119141 139.946875,190.825781 141.196875,190.825781 C141.673437,190.825781 142.157031,190.722266 142.620312,190.505859 C145.730469,189.039063 148.79375,187.395703 151.730469,185.616016 C153.303516,184.658984 153.806641,182.608984 152.853516,181.035937 Z" id="Path"></path>
            <path d="M199.296875,147.972266 C198.163672,146.515625 196.066797,146.255469 194.620313,147.385547 L164.620313,170.71875 C163.810156,171.351953 163.333594,172.322266 163.333594,173.351953 L163.333594,183.351953 C163.333594,185.191797 164.826953,186.685156 166.666797,186.685156 C168.506641,186.685156 170,185.191797 170,183.351953 L170,174.982031 L198.710156,152.648828 C200.163281,151.519141 200.426562,149.425781 199.296875,147.972266 Z" id="Path"></path>
            <path d="M167.723438,170.189063 L157.723437,166.855859 C155.969922,166.266016 154.086719,167.219141 153.506641,168.9625 C152.923438,170.708984 153.866797,172.595703 155.613281,173.179297 L165.613281,176.5125 C165.963281,176.629297 166.319922,176.685938 166.666797,176.685938 C168.063281,176.685938 169.363281,175.802734 169.830078,174.405859 C170.413281,172.658984 169.469922,170.772266 167.723438,170.189063 Z" id="Path"></path>
            <path d="M193.093359,175.442578 L186.426562,158.775781 C186.156641,158.099219 185.669922,157.529297 185.046484,157.155859 L168.379687,147.155859 C166.799609,146.209375 164.753125,146.719141 163.80625,148.299219 C162.859375,149.879297 163.369531,151.925781 164.949609,152.872656 L180.653125,162.296094 L186.903125,177.922656 C187.426562,179.226172 188.676563,180.019141 189.999609,180.019141 C190.412891,180.019141 190.832813,179.942578 191.236328,179.775781 C192.946875,179.092578 193.776562,177.152344 193.093359,175.442578 Z" id="Path"></path>
        </g>
    </g>
</svg>