<?xml version="1.0" encoding="UTF-8"?>
<svg width="197px" height="200px" viewBox="0 0 197 200" version="1.1" xmlns="http://www.w3.org/2000/svg" xmlns:xlink="http://www.w3.org/1999/xlink">
    <!-- Generator: Sketch 53.2 (72643) - https://sketchapp.com -->
    <title>003-clean</title>
    <desc>Created with Sketch.</desc>
    <g id="Page-1" stroke="none" stroke-width="1" fill="none" fill-rule="evenodd">
        <g id="Artboard" transform="translate(-101.000000, -700.000000)" fill="#4A7CB2" fill-rule="nonzero">
            <g id="003-clean" transform="translate(101.000000, 700.000000)">
                <rect id="Rectangle" x="179.9591" y="73.0316973" width="6.54396728" height="16.3750961"></rect>
                <path d="M192.726106,99.3046217 C192.673783,99.3046217 192.62146,99.3034274 192.56854,99.3010307 C190.82384,99.2180271 189.451943,97.7793113 189.451943,96.032638 L189.451943,95.4886421 C189.451941,93.7086019 190.874943,92.255127 192.654584,92.2174181 C194.434224,92.1797092 195.917517,93.5716023 195.992916,95.350045 C195.999305,95.4986258 196.004098,95.6336278 196.004098,95.7750184 C196.004098,95.9643395 195.999104,96.1536605 195.981133,96.3433824 C195.820933,98.0215794 194.411932,99.303409 192.726106,99.3046217 L192.726106,99.3046217 Z" id="Path"></path>
                <rect id="Rectangle" x="163.599182" y="36.400818" width="6.54396728" height="6.54396728"></rect>
                <rect id="Rectangle" x="150.511247" y="46.2167689" width="6.54396728" height="6.54396728"></rect>
                <rect id="Rectangle" x="150.511247" y="33.1288344" width="6.54396728" height="6.54396728"></rect>
                <rect id="Rectangle" x="137.423313" y="36.400818" width="6.54396728" height="6.54396728"></rect>
                <path d="M196.319018,56.0327198 L196.319018,42.9447853 C196.304769,30.3012257 186.058693,20.0551494 173.415133,20.0408998 L127.607362,20.0408998 L127.607362,26.5848671 L133.134127,26.5848671 C127.460728,30.9115992 124.335378,36.7120654 124.335378,42.9447853 C124.335378,49.1775051 127.460728,54.9779714 133.134127,59.3047035 L117.791411,59.3047035 L117.791411,52.7607362 L111.247444,52.7607362 L111.247444,62.5766871 C111.247462,64.3837463 112.712368,65.8486527 114.519427,65.8486708 L173.415133,65.8486708 C179.416205,65.8516124 185.177026,63.491122 189.45063,59.2781431 C187.896712,66.902168 181.195898,72.3823719 173.415133,72.392638 L127.607362,72.392638 C126.310675,72.3929675 125.136581,73.1591682 124.614168,74.3459632 L119.620519,73.3472311 C115.068525,72.4389704 110.638814,75.3816829 109.711595,79.9298538 C108.784376,84.4780248 111.708607,88.919958 116.252875,89.8661186 L124.335378,91.5500368 L124.335378,92.0245399 L104.703476,92.0245399 L104.703476,85.4805726 L98.1595092,85.4805726 L98.1595092,95.2965235 C98.1595273,97.1035827 99.6244337,98.5684891 101.431493,98.5685072 L127.607362,98.5685072 C129.414421,98.5684891 130.879328,97.1035827 130.879346,95.2965235 L130.879346,92.9134315 L179.90373,103.127297 C179.223835,111.631166 172.13018,118.189058 163.599182,118.200409 L88.3435583,118.200409 L88.3435583,124.744376 L163.599182,124.744376 C175.241287,124.729005 185.02474,115.99318 186.35299,104.427084 C186.667972,104.461795 186.984604,104.479394 187.301493,104.479804 C191.934291,104.463735 195.748323,100.832792 195.992098,96.2063845 C195.994695,96.1540613 195.995894,96.1013374 195.995894,96.0490143 L195.995894,85.1574642 C195.990347,80.0616845 192.958681,75.4559805 188.280352,73.4360204 C193.380847,69.0932908 196.319364,62.7315518 196.319018,56.0327198 L196.319018,56.0327198 Z M153.783231,26.5848671 C166.412442,26.5848671 176.687117,33.9240654 176.687117,42.9447853 C176.687117,47.3912393 174.187395,51.4268998 170.143149,54.3786544 L170.143149,49.4887526 L163.599182,49.4887526 L163.599182,57.7229325 C157.225142,59.8319605 150.34132,59.8319605 143.96728,57.7229325 L143.96728,49.4887526 L137.423313,49.4887526 L137.423313,54.3786544 C133.379067,51.4269162 130.879346,47.3912393 130.879346,42.9447853 C130.879346,33.9240654 141.15402,26.5848671 153.783231,26.5848671 Z M174.481166,59.2661595 C180.123108,54.9435215 183.231084,49.1592393 183.231084,42.9447853 C183.231084,36.7303313 180.123108,30.9460491 174.481166,26.623411 C183.083787,27.1831725 189.775044,34.323972 189.775044,42.9447853 C189.775044,51.5655986 183.083787,58.7063981 174.481166,59.2661595 L174.481166,59.2661595 Z M189.451943,95.9515583 C189.420625,96.3158533 189.295396,96.6658062 189.088479,96.9672638 C188.599404,97.7051663 187.709828,98.0702705 186.843382,97.8887076 L117.586532,83.459546 C116.570284,83.2476445 115.916486,82.2541445 116.123912,81.2369738 C116.331338,80.2198032 117.321951,79.5616385 118.340025,79.7645849 L182.589448,92.615272 C183.550662,92.8074176 184.547389,92.5585235 185.305436,91.9370589 C186.063483,91.3155943 186.502995,90.3870245 186.503067,89.4067935 L186.503067,79.8684335 C188.335507,81.0019256 189.451078,83.0027863 189.451943,85.1574642 L189.451943,95.9515583 Z M179.9591,85.4154683 L147.566184,78.9366053 L173.415133,78.9366053 C175.63138,78.9368394 177.835844,78.6142561 179.9591,77.9790143 L179.9591,85.4154683 Z" id="Shape"></path>
                <path d="M55.6237219,74.8125767 L55.6237219,98.5685072 L62.1676892,98.5685072 L62.1676892,77.9790143 C64.2909457,78.6142561 66.4954095,78.9368394 68.7116564,78.9366053 L71.9836401,78.9366053 L71.9836401,72.392638 L68.7116564,72.392638 C60.9308911,72.3823719 54.230077,66.902168 52.6761595,59.2781431 C56.9497629,63.491122 62.7105842,65.8516124 68.7116564,65.8486708 L75.2556237,65.8486708 L75.2556237,59.3047035 L68.7116564,59.3047035 L68.7116564,36.400818 L62.1676892,36.400818 L62.1676892,57.9345194 C55.0674521,54.8366175 51.1139418,47.1829295 52.696866,39.5997432 C54.2797902,32.0165569 60.9650209,26.5836135 68.7116564,26.5848671 L91.7519427,26.5848671 L91.7519427,20.0408998 L68.7116564,20.0408998 C56.0680968,20.0551494 45.8220205,30.3012257 45.807771,42.9447853 L45.807771,56.0327198 C45.8105743,63.5215194 49.4765871,70.5353274 55.6237219,74.8125767 L55.6237219,74.8125767 Z" id="Path"></path>
                <path d="M94.8875256,147.648262 L88.9854151,147.648262 L91.2802372,146.323411 C94.3164556,144.568426 96.1857637,141.32695 96.1840113,137.820015 C96.1822589,134.31308 94.3097121,131.073474 91.2717413,129.321524 C88.2337705,127.569574 84.4919157,127.571444 81.4556973,129.326429 L72.3155501,134.64101 L124.172401,13.0392065 C125.445634,10.0581059 125.031107,6.62412244 123.085069,4.03162979 C121.13903,1.43913714 117.957355,0.0822963665 114.739314,0.472542305 C111.521272,0.862788244 108.756134,2.94078813 107.486164,5.92328016 L59.6239346,118.158573 C57.2697292,115.555543 53.7043819,114.408312 50.2739382,115.15 C46.8434945,115.891687 44.0705164,118.409312 43.0019018,121.75238 C40.1248639,117.828982 34.8084406,116.60428 30.5048503,118.873533 C26.2012601,121.142787 24.2085957,126.221521 25.8207935,130.811861 L23.2387894,129.321256 C20.2016741,127.56721 16.4594481,127.566874 13.4220178,129.320374 C10.3845876,131.073874 8.51350727,134.314755 8.51371788,137.821997 C8.5139285,141.329239 10.385398,144.569896 13.4230389,146.323031 L15.7180613,147.648262 L9.81595092,147.648262 C4.39475092,147.648262 1.45305263e-15,152.043013 0,157.464213 C-1.45305263e-15,162.885413 4.39475092,167.280164 9.81595092,167.280164 L15.7180613,167.280164 L13.4232393,168.605014 C10.3860937,170.35843 8.5150916,173.598951 8.51502135,177.105904 C8.51495111,180.612857 10.3858234,183.853452 13.4228987,185.60699 C16.459974,187.360527 20.2018484,187.360602 23.2389939,185.607186 L25.8207935,184.116581 C24.76605,187.1196 25.2320693,190.447556 27.0711045,193.045354 C28.9101398,195.643153 31.8941053,197.188602 35.0769652,197.191734 C38.2064046,197.186839 41.1475349,195.696002 43.001501,193.174847 C44.3026986,197.240939 48.0825201,199.999998 52.3517382,199.999998 C56.6209564,199.999998 60.4007779,197.240939 61.7019755,193.174847 C64.6608049,197.21766 70.1901972,198.381997 74.5280941,195.875673 C78.6181402,193.51282 80.447281,188.573435 78.8826953,184.116573 L81.4642904,185.606777 C84.5014072,187.362031 88.2443586,187.363146 91.2825202,185.609701 C94.3206819,183.856256 96.1922148,180.614798 96.1917851,177.10695 C96.1913555,173.599103 94.3190287,170.358103 91.2804376,168.605403 L88.9854151,167.280164 L94.8875256,167.280164 C100.308726,167.280164 104.703476,162.885413 104.703476,157.464213 C104.703476,152.043013 100.308726,147.648262 94.8875256,147.648262 Z M62.1676892,156.13337 C62.1676892,160.64393 57.7641718,164.313329 52.3517382,164.313329 C46.9393047,164.313329 42.5357873,160.64393 42.5357873,156.13337 C42.5357873,153.230245 44.4293497,150.630871 47.2385644,149.176213 C47.2770942,152.688322 49.3410775,155.862062 52.5357769,157.321614 C55.7304763,158.781167 59.4808064,158.263795 62.160998,155.993779 C62.1619632,156.040491 62.1676892,156.08654 62.1676892,156.13337 Z M64.9464499,135.239027 L60.3028834,133.248671 L103.134188,32.8108016 L107.82638,34.6873415 L64.9464499,135.239027 Z M57.7360123,139.267894 L62.3795787,141.258262 L58.6251043,150.062303 C58.3304957,150.753363 57.7435673,151.277424 57.0236837,151.492193 C56.3038001,151.706961 55.525674,151.590147 54.9005849,151.173468 C53.8890871,150.498597 53.5014676,149.199149 53.9779427,148.080421 L57.7360123,139.267894 Z M113.505718,8.48990184 C113.7965,7.79602305 114.385073,7.27056192 115.107354,7.06000818 C115.346666,6.9888184 115.594991,6.95249806 115.844667,6.95216769 C116.339023,6.95225463 116.821925,7.10102099 117.23063,7.37913701 C118.242165,8.0539916 118.629653,9.35356389 118.152871,10.472184 L110.394,28.6665031 L105.701759,26.7899632 L113.505718,8.48990184 Z M94.8875256,160.736196 L76.7741881,160.736196 C75.2932893,160.736141 73.9969933,161.730777 73.6136972,163.161212 C73.230401,164.591648 73.8556843,166.101186 75.1381963,166.841607 L88.0086503,174.272671 C89.5735086,175.176204 90.1096202,177.17723 89.20609,178.74209 C88.6185146,179.754533 87.5368611,180.378119 86.3662699,180.37928 C85.79361,180.380277 85.2310329,180.22862 84.7364663,179.939926 L71.8660123,172.508867 C70.5834513,171.768457 68.9634917,171.981784 67.9163357,173.028987 C66.8691798,174.07619 66.6559251,175.696159 67.3963926,176.978687 L72.4539468,185.738605 C73.0372524,186.750233 73.0375572,187.99597 72.4547467,189.007883 C71.8719361,190.019796 70.7942552,190.644668 69.6265112,190.647779 C68.4559464,190.64652 67.3743382,190.02296 66.7866912,189.010589 L61.7293333,180.250671 C60.9888771,178.968151 59.4793167,178.342866 58.0488547,178.726157 C56.6183927,179.109448 55.6237165,180.405739 55.6237219,181.886663 L55.6237219,190.184049 C55.6237219,191.991116 54.1588049,193.456033 52.3517382,193.456033 C50.5446716,193.456033 49.0797546,191.991116 49.0797546,190.184049 L49.0797546,181.886663 C49.07976,180.405739 48.0850838,179.109448 46.6546218,178.726157 C45.2241597,178.342866 43.7145993,178.968151 42.9741431,180.250671 L37.9167853,189.010589 C37.3292117,190.023033 36.247557,190.64662 35.0769652,190.647779 C33.9090031,190.645181 32.8309291,190.020398 32.2480103,189.008297 C31.6650915,187.996196 31.6656705,186.750164 32.2495297,185.738605 L37.3070838,176.978687 C38.0475513,175.696159 37.8342967,174.07619 36.7871407,173.028987 C35.7399848,171.981784 34.1200252,171.768457 32.8374642,172.508867 L19.967407,179.939542 C18.9550485,180.524099 17.7077335,180.524164 16.6953133,179.939715 C15.6828932,179.355265 15.0591786,178.275091 15.059117,177.106085 C15.0590553,175.937078 15.6826558,174.856839 16.6950143,174.272282 L29.5652679,166.841607 C30.8477799,166.101186 31.4730632,164.591648 31.089767,163.161212 C30.7064709,161.730777 29.4101749,160.736141 27.9292761,160.736196 L9.81595092,160.736196 C8.00888425,160.736196 6.54396728,159.271279 6.54396728,157.464213 C6.54396728,155.657146 8.00888425,154.192229 9.81595092,154.192229 L27.9292883,154.192229 C29.4101872,154.192285 30.7064831,153.197648 31.0897793,151.767213 C31.4730755,150.336778 30.8477922,148.82724 29.5652802,148.086818 L16.6948262,140.655755 C15.1315896,139.751368 14.5966947,137.751461 15.4997328,136.187445 C16.4027709,134.623429 18.4022162,134.08681 19.9670102,134.988499 L32.8374642,142.419558 C34.1200252,143.159968 35.7399848,142.946641 36.7871407,141.899438 C37.8342967,140.852235 38.0475513,139.232266 37.3070838,137.949738 L32.2495297,129.18982 C31.6650461,128.177462 31.6650474,126.930187 32.2495331,125.91783 C32.8340188,124.905474 33.9141916,124.281837 35.0831609,124.281839 C36.2521302,124.28184 37.3323017,124.905479 37.9167853,125.917836 L42.9741431,134.677755 C43.7145993,135.960275 45.2241597,136.585559 46.6546218,136.202268 C48.0850838,135.818978 49.07976,134.522686 49.0797546,133.041763 L49.0797546,124.744376 C49.0797546,122.93731 50.5446716,121.472393 52.3517382,121.472393 C54.1588049,121.472393 55.6237219,122.93731 55.6237219,124.744376 L55.6237219,127.538863 L49.6208589,141.615542 C41.8262822,142.779227 35.99182,148.819337 35.99182,156.13337 C35.99182,164.252221 43.330818,170.857297 52.3517382,170.857297 C61.3726585,170.857297 68.7116564,164.252221 68.7116564,156.13337 C68.6990525,153.433263 67.8882477,150.797181 66.3812352,148.556724 L68.022953,144.706793 L84.7364499,134.988499 C86.3014223,134.086132 88.3015752,134.622706 89.2047705,136.187201 C90.1079658,137.751696 89.5724499,139.752132 88.0084335,140.656155 L75.13818,148.08683 C73.8556679,148.827252 73.2303847,150.33679 73.6136808,151.767225 C73.996977,153.197661 75.293273,154.192297 76.7741718,154.192241 L94.8875256,154.192241 C96.6945922,154.192241 98.1595092,155.657158 98.1595092,157.464225 C98.1595092,159.271292 96.6945922,160.736209 94.8875256,160.736209 L94.8875256,160.736196 Z" id="Shape"></path>
            </g>
        </g>
    </g>
</svg>