<?xml version="1.0" encoding="UTF-8"?>
<svg width="200px" height="200px" viewBox="0 0 200 200" version="1.1" xmlns="http://www.w3.org/2000/svg" xmlns:xlink="http://www.w3.org/1999/xlink">
    <!-- Generator: Sketch 53.2 (72643) - https://sketchapp.com -->
    <title>011-towel</title>
    <desc>Created with Sketch.</desc>
    <g id="Page-1" stroke="none" stroke-width="1" fill="none" fill-rule="evenodd">
        <g id="011-towel" fill="#4A7CB2" fill-rule="nonzero">
            <path d="M200,20 L186.666667,20 C186.655642,8.95887477 177.707792,0.0110245966 166.666667,0 L40,0 C29.9066667,-1.48029737e-15 20,8.25666667 20,16.6666667 L20,20 L0,20 L0,43.3333333 L20,43.3333333 L20,200 L153.333333,200 L153.333333,173.333333 L186.666667,173.333333 L186.666667,46.6666667 L200,46.6666667 L200,20 Z M180,20 L153.333333,20 C153.333333,12.6362033 159.30287,6.66666667 166.666667,6.66666667 C174.030463,6.66666667 180,12.6362033 180,20 L180,20 Z M6.66666667,36.6666667 L6.66666667,26.6666667 L20,26.6666667 L20,36.6666667 L6.66666667,36.6666667 Z M146.666667,193.333333 L53.3333333,193.333333 L53.3333333,140 L46.6666667,140 L46.6666667,193.333333 L40,193.333333 L40,113.333333 L33.3333333,113.333333 L33.3333333,193.333333 L26.6666667,193.333333 L26.6666667,16.6666667 C26.6666667,12 33.77,6.66666667 40,6.66666667 L151.77,6.66666667 C148.482964,10.3297716 146.665457,15.0783192 146.666667,20 L146.666667,193.333333 Z M180,166.666667 L153.333333,166.666667 L153.333333,160 L170,160 L170,153.333333 L153.333333,153.333333 L153.333333,146.666667 L163.333333,146.666667 L163.333333,140 L153.333333,140 L153.333333,46.6666667 L180,46.6666667 L180,166.666667 Z M193.333333,40 L153.333333,40 L153.333333,26.6666667 L193.333333,26.6666667 L193.333333,40 Z" id="Shape"></path>
            <rect id="Rectangle" x="33.3333333" y="30" width="6.66666667" height="6.66666667"></rect>
            <rect id="Rectangle" x="33.3333333" y="16.6666667" width="6.66666667" height="6.66666667"></rect>
            <polygon id="Path" points="133.333333 180 116.666667 180 116.666667 186.666667 140 186.666667 140 143.333333 133.333333 143.333333"></polygon>
            <rect id="Rectangle" x="103.333333" y="180" width="6.66666667" height="6.66666667"></rect>
        </g>
    </g>
</svg>