<?xml version="1.0" encoding="UTF-8"?>
<svg width="200px" height="200px" viewBox="0 0 200 200" version="1.1" xmlns="http://www.w3.org/2000/svg" xmlns:xlink="http://www.w3.org/1999/xlink">
    <!-- Generator: Sketch 53.2 (72643) - https://sketchapp.com -->
    <title>008-lacrosse-stick</title>
    <desc>Created with Sketch.</desc>
    <g id="Page-1" stroke="none" stroke-width="1" fill="none" fill-rule="evenodd">
        <g id="008-lacrosse-stick" fill="#4A7CB2" fill-rule="nonzero">
            <path d="M180.376606,19.3954128 C164.345413,3.3646789 151.021101,0 142.666514,0 C129.785321,0 119.490367,8.00366972 115.799083,20.8880734 C113.667431,28.3288991 113.047248,33.7050459 112.549541,38.0247706 C111.764679,44.8311927 111.336697,48.5302752 105.174771,54.9110092 C105.077982,54.9926606 104.982569,55.0761468 104.891284,55.1669725 C104.775229,55.2825688 104.66789,55.4036697 104.566972,55.5279817 C102.922477,57.1784404 100.908257,59.0082569 98.4151376,61.1142202 C90.7142202,67.6201835 86.0889908,76.3357798 85.7238532,85.0261468 C85.5706422,88.6720183 86.1481651,92.1889908 87.4045872,95.5004587 L3.4912844,179.414679 C-1.1587156,184.064679 -1.1587156,191.631193 3.49174312,196.281651 C5.81697248,198.606422 8.8706422,199.769266 11.9247706,199.769266 C14.9788991,199.769266 18.0330275,198.606422 20.3587156,196.281651 L104.261468,112.361927 C107.231651,113.490367 110.369266,114.072477 113.611927,114.072477 C113.612385,114.072477 113.611468,114.072477 113.611927,114.072477 C122.701376,114.072477 131.831193,109.437615 138.657339,101.356881 C140.763303,98.8642202 142.592661,96.85 144.243119,95.2059633 C144.36789,95.1050459 144.488991,94.9972477 144.605046,94.8811927 C144.696789,94.7894495 144.780275,94.6931193 144.862844,94.5963303 C151.242661,88.4357798 154.941743,88.0073394 161.747706,87.2224771 C164.145413,86.9458716 166.870642,86.6307339 170.091743,86.0417431 C170.107339,86.0389908 170.122936,86.0362385 170.138532,86.0334862 C172.708716,85.5619266 175.594495,84.9155963 178.884862,83.9729358 C189.124771,81.0394495 196.407339,73.9068807 198.866514,64.4045872 C200.901376,56.5362385 201.206881,40.2256881 180.376606,19.3954128 Z M180.197706,32.9110092 C176.45367,36.6674312 169.149541,43.8706422 159.83578,52.4541284 C157.983945,50.3348624 155.965138,48.1775229 153.779817,45.9922018 C151.587615,43.8 149.422936,41.7747706 147.296789,39.9178899 C155.88945,30.6082569 163.100917,23.3100917 166.858716,19.5711009 C169.202752,21.440367 171.552752,23.5477064 173.888532,25.8830275 C176.227523,28.2211009 178.331193,30.5706422 180.197706,32.9110092 Z M100.587615,99.1844037 C100.56422,99.1610092 100.542661,99.1366972 100.519725,99.1133028 C105.415596,91.0743119 111.383486,82.703211 117.745413,74.509633 L125.222936,81.987156 C117.025688,88.3463303 108.651835,94.3123853 100.612385,99.2082569 C100.604128,99.1995413 100.595872,99.1922018 100.587615,99.1844037 Z M123.490826,67.2798165 C129.383028,60.0261468 135.426606,53.0426606 141.119725,46.7022936 C143.066514,48.3972477 145.122477,50.3091743 147.293119,52.4793578 C149.45367,54.6399083 151.357798,56.6876147 153.047248,58.6266055 C146.701835,64.3155963 139.713761,70.3555046 132.455963,76.2444954 L123.490826,67.2798165 Z M121.663761,39.0761468 C121.807339,37.8311927 121.957339,36.5353211 122.146789,35.1550459 C124.807798,35.7600917 128.751376,37.4486239 133.855046,40.993578 C128.391284,47.0889908 122.616972,53.7692661 116.945413,60.7334862 L114.443119,58.2311927 C119.91789,51.5449541 120.820642,46.3862385 121.663761,39.0761468 Z M142.666514,9.17431193 C147.761468,9.17431193 153.369725,10.9366972 159.159633,14.2770642 C155.008716,18.4178899 148.119266,25.4284404 140.07156,34.1555046 C134.11422,29.8743119 128.616972,27.1463303 123.884404,26.1431193 C124.105046,25.2688073 124.346789,24.3633028 124.618349,23.4146789 C127.173394,14.4977064 133.920183,9.17431193 142.666514,9.17431193 Z M94.8899083,85.4114679 C95.1472477,79.2784404 98.5899083,72.9770642 104.33578,68.1229358 C105.692661,66.9766055 106.934404,65.8853211 108.075229,64.8385321 L111.18945,67.9527523 C105.494954,75.2568807 100.06055,82.7486239 95.3348624,90.1013761 C94.9738532,88.5793578 94.8224771,87.0110092 94.8899083,85.4114679 Z M13.8711009,189.794037 C12.7977064,190.867431 11.0518349,190.866972 9.97889908,189.794495 C8.9059633,188.721101 8.9059633,186.974771 9.97889908,185.901835 L92.240367,103.640367 C92.8243119,104.333486 93.4412844,105.012385 94.1009174,105.672018 C94.7573394,106.32844 95.4325688,106.944954 96.1229358,107.527064 L13.8711009,189.794037 Z M113.611927,104.898624 C112.244495,104.898624 110.901376,104.731651 109.591284,104.413761 C116.955963,99.683945 124.461009,94.243578 131.779817,88.543578 L134.933945,91.6977064 C133.887615,92.8385321 132.79633,94.0798165 131.649541,95.437156 C126.569725,101.45 119.994954,104.898624 113.611927,104.898624 Z M160.69633,78.1087156 C153.386239,78.9518349 148.227523,79.8545872 141.541284,85.3298165 L139.002294,82.7908257 C145.97156,77.1211009 152.657339,71.3495413 158.758257,65.8885321 C162.316514,71.006422 164.01055,74.959633 164.616972,77.6256881 C163.237156,77.8151376 161.940826,77.9655963 160.69633,78.1087156 Z M189.983945,62.1068807 C188.336239,68.4752294 183.496789,73.1082569 176.357798,75.1536697 C175.408716,75.4256881 174.502752,75.6674312 173.627982,75.8880734 C172.622936,71.1495413 169.889908,65.6440367 165.599541,59.6775229 C174.333028,51.6366972 181.348624,44.7536697 185.492202,40.6077982 C189.988991,48.4013761 191.606881,55.8334862 189.983945,62.1068807 Z" id="Shape"></path>
        </g>
    </g>
</svg>