<?xml version="1.0" encoding="UTF-8"?>
<svg width="173px" height="200px" viewBox="0 0 173 200" version="1.1" xmlns="http://www.w3.org/2000/svg" xmlns:xlink="http://www.w3.org/1999/xlink">
    <!-- Generator: Sketch 53.2 (72643) - https://sketchapp.com -->
    <title>011-compass</title>
    <desc>Created with Sketch.</desc>
    <g id="Page-1" stroke="none" stroke-width="1" fill="none" fill-rule="evenodd">
        <g id="011-compass" transform="translate(0.000000, 0.000000)" fill="#4A7CB2" fill-rule="nonzero">
            <path d="M98.8202942,27.4861279 C101.48537,24.488526 102.964706,20.6214897 102.979305,16.6100886 C102.979305,7.43723193 95.5420727,0 86.3692165,0 C77.1963599,0 69.759128,7.43723193 69.759128,16.6100886 C69.7737266,20.6214897 71.2530626,24.488526 73.918138,27.4861279 C29.1130732,34.016618 -3.0446421,74.039794 0.23033542,119.200095 C3.50369055,164.362017 41.0969925,199.327551 86.3757044,199.327551 C131.654417,199.327551 169.247719,164.362017 172.522696,119.200095 C175.796051,74.039794 143.639958,34.016618 98.8332708,27.4861279 L98.8202942,27.4861279 Z M76.4031634,16.6100886 C76.4031634,11.1063747 80.8655023,6.64403542 86.3692165,6.64403542 C91.8729303,6.64403542 96.3352697,11.1063747 96.3352697,16.6100886 C96.3352697,22.1138024 91.8729303,26.5761417 86.3692165,26.5761417 C80.8655023,26.5761417 76.4031634,22.1138024 76.4031634,16.6100886 Z M86.3692165,192.677027 C42.3362609,192.677027 6.64079147,156.981557 6.64079147,112.948602 C6.64079147,68.9156469 42.3362609,33.2201771 86.3692165,33.2201771 C130.402172,33.2201771 166.097642,68.9156469 166.097642,112.948602 C166.047357,156.96047 130.381085,192.625121 86.3692165,192.677027 Z" id="Shape"></path>
            <path d="M86.3692165,56.4743011 C88.2037875,56.4743011 89.6912342,54.9868548 89.6912342,53.1522834 L89.6912342,39.8642125 C89.6912342,38.0296411 88.2037875,36.5421948 86.3692165,36.5421948 C84.5346451,36.5421948 83.0471988,38.0296411 83.0471988,39.8642125 L83.0471988,53.1522834 C83.0471988,54.9868548 84.5346451,56.4743011 86.3692165,56.4743011 Z" id="Path"></path>
            <path d="M65.1086275,46.4222779 C65.496304,47.8740382 66.8118102,48.8845935 68.3138555,48.8862155 C68.6058297,48.8878379 68.8961815,48.8472856 69.1784235,48.7710482 C70.9481117,48.2957792 71.9992189,46.4758064 71.5271938,44.7044961 L70.6658698,41.4960242 C70.1857344,39.7312023 68.369006,38.686583 66.6025621,39.1602305 C64.8361182,39.6322551 63.7833887,41.4441176 64.2473035,43.2121835 L65.1086275,46.4222779 Z" id="Path"></path>
            <path d="M48.6120843,54.1920359 C49.200899,55.2285444 50.2990464,55.8692657 51.4912745,55.8725097 C52.6835027,55.8741321 53.7865163,55.2382771 54.380197,54.2050125 C54.9738781,53.1717483 54.9673898,51.8984164 54.3655984,50.8700182 L52.7045896,47.9924503 C51.7800044,46.4174115 49.7588942,45.8837477 48.1773671,46.7969778 C46.5958404,47.7102084 46.0475775,49.7280746 46.9510754,51.314468 L48.6120843,54.1920359 Z" id="Path"></path>
            <path d="M37.0401732,58.9220181 C36.2064244,58.0590721 34.9720224,57.7119474 33.8106138,58.0168983 C32.6492053,58.3202267 31.7408411,59.2285909 31.4375122,60.3899999 C31.1341834,61.551408 31.4796865,62.7858104 32.3426325,63.6195588 L34.6914028,65.9683291 C35.9955543,67.2270624 38.066949,67.2092194 39.3483912,65.9277773 C40.6298338,64.6463351 40.6476768,62.5749399 39.3889435,61.2707885 L37.0401732,58.9220181 Z" id="Path"></path>
            <path d="M21.4146862,79.2839756 L24.2906325,80.9449845 C25.3190304,81.5467755 26.5923623,81.5532638 27.6256269,80.9595831 C28.6588911,80.365902 29.296368,79.2628883 29.293124,78.0706601 C29.2898797,76.8784324 28.6491588,75.7802851 27.6126502,75.1898479 L24.7367039,73.5288391 C23.1486889,72.6269636 21.1308227,73.1752261 20.2175922,74.7567531 C19.3043616,76.3382802 19.8380259,78.3593904 21.4146862,79.2839756 Z" id="Path"></path>
            <path d="M14.9166381,97.2420115 L18.1251105,98.1017135 C19.8931764,98.5672503 21.7050385,97.5145207 22.1786855,95.7480769 C22.6507106,93.981633 21.6077137,92.1649045 19.8428918,91.6847692 L16.6327979,90.8234451 C14.8647316,90.3595303 13.0528695,91.4122599 12.5808444,93.1787038 C12.1071974,94.9451477 13.1518162,96.7618761 14.9166381,97.2420115 Z" id="Path"></path>
            <path d="M33.2169332,112.948602 C33.2169332,111.114031 31.7294864,109.626584 29.8949154,109.626584 L13.2848269,109.626584 C11.4502555,109.626584 9.96280918,111.114031 9.96280918,112.948602 C9.96280918,114.783174 11.4502555,116.27062 13.2848269,116.27062 L29.8949154,116.27062 C31.7294864,116.27062 33.2169332,114.783174 33.2169332,112.948602 Z" id="Path"></path>
            <path d="M22.1916622,130.142639 C21.7163931,128.372951 19.8964203,127.321844 18.1251105,127.795491 L14.9166381,128.655193 C13.7649623,128.956899 12.8630859,129.852287 12.5532692,131.002341 C12.24183,132.152395 12.5711121,133.378687 13.4129708,134.220545 C14.2564519,135.060783 15.4843655,135.38682 16.6327979,135.073759 L19.8428918,134.212435 C21.6158244,133.737166 22.6669316,131.915571 22.1916622,130.142639 L22.1916622,130.142639 Z" id="Path"></path>
            <path d="M24.2906325,144.95222 L21.4146862,146.613229 C20.3781781,147.203666 19.7358348,148.301813 19.7342128,149.494041 C19.7309685,150.686269 20.3668234,151.789283 21.4017096,152.382964 C22.4349742,152.976645 23.7083061,152.970156 24.7367039,152.368365 L27.6126502,150.707356 C28.6491588,150.116919 29.2898797,149.018772 29.293124,147.826544 C29.296368,146.634316 28.6588911,145.531302 27.6256269,144.937621 C26.5923623,144.343941 25.3190304,144.350429 24.2906325,144.95222 Z" id="Path"></path>
            <path d="M34.6914028,159.928875 L32.3426325,162.277646 C31.4796865,163.111394 31.1341834,164.345796 31.4375122,165.507204 C31.7408411,166.668613 32.6492053,167.576978 33.8106138,167.880306 C34.9720224,168.185257 36.2064244,167.838132 37.0401732,166.975186 L39.3889435,164.626416 C40.6476768,163.322264 40.6298338,161.250869 39.3483912,159.969427 C38.066949,158.687985 35.9955543,158.670142 34.6914028,159.928875 Z" id="Path"></path>
            <path d="M53.1490394,170.485365 C51.5594016,169.56889 49.5269368,170.115531 48.6120843,171.705168 L46.9510754,174.582736 C46.347662,175.611135 46.3411737,176.882844 46.9348548,177.916109 C47.5285355,178.950995 48.6315492,179.58685 49.8237773,179.583606 C51.0160055,179.581984 52.1141528,178.939641 52.7045896,177.904754 L54.3655984,175.027186 C54.8068039,174.263187 54.926838,173.356445 54.6981245,172.504853 C54.4710335,171.653262 53.9130383,170.926571 53.1490394,170.485365 L53.1490394,170.485365 Z" id="Path"></path>
            <path d="M69.1751795,177.126156 C67.4022469,176.650887 65.5806526,177.703616 65.1053831,179.474926 L64.2440595,182.685021 C63.7720344,184.456331 64.8231416,186.276304 66.5928298,186.74995 C66.8750714,186.82781 67.1654236,186.86674 67.4573978,186.86674 C68.9610647,186.865118 70.2749489,185.854563 70.6626258,184.40118 L71.5239499,181.192708 C71.9959745,179.421398 70.9448674,177.601425 69.1751795,177.126156 L69.1751795,177.126156 Z" id="Path"></path>
            <path d="M86.3692165,166.100886 C84.5346451,166.100886 83.0471988,167.588332 83.0471988,169.422903 L83.0471988,186.032992 C83.0471988,187.867563 84.5346451,189.355009 86.3692165,189.355009 C88.2037875,189.355009 89.6912342,187.867563 89.6912342,186.032992 L89.6912342,169.422903 C89.6912342,167.588332 88.2037875,166.100886 86.3692165,166.100886 Z" id="Path"></path>
            <path d="M107.629805,179.474926 C107.14967,177.711727 105.332941,176.667108 103.566497,177.139133 C101.800054,177.61278 100.747324,179.424642 101.212861,181.192708 L102.072563,184.40118 C102.46024,185.854563 103.775746,186.865118 105.277791,186.86674 C105.569765,186.86674 105.860117,186.82781 106.142359,186.74995 C107.912047,186.276304 108.964776,184.456331 108.491129,182.685021 L107.629805,179.474926 Z" id="Path"></path>
            <path d="M124.12797,171.705168 C123.537534,170.66866 122.439386,170.027939 121.247158,170.024695 C120.05493,170.023072 118.951916,170.658927 118.358236,171.692192 C117.764554,172.725456 117.771043,173.998788 118.374456,175.027186 L120.035465,177.904754 C120.958428,179.479793 122.979538,180.013457 124.561066,179.100227 C126.142593,178.186996 126.690855,176.16913 125.788979,174.582736 L124.12797,171.705168 Z" id="Path"></path>
            <path d="M138.04703,159.928875 C136.742878,158.670142 134.671484,158.687985 133.390041,159.969427 C132.108599,161.250869 132.090756,163.322264 133.349489,164.626416 L135.698259,166.975186 C137.000789,168.233919 139.073806,168.216076 140.355248,166.934634 C141.636691,165.653192 141.654533,163.580175 140.3958,162.277646 L138.04703,159.928875 Z" id="Path"></path>
            <path d="M151.325368,146.613229 L148.4478,144.95222 C147.419402,144.350429 146.147692,144.343941 145.112806,144.937621 C144.079542,145.531302 143.443687,146.634316 143.445309,147.826544 C143.448553,149.018772 144.089274,150.116919 145.125782,150.707356 L148.003351,152.368365 C149.589744,153.270241 151.609232,152.721978 152.52084,151.140451 C153.434071,149.558924 152.900407,147.537814 151.325368,146.613229 L151.325368,146.613229 Z" id="Path"></path>
            <path d="M157.823416,128.655193 L154.613323,127.795491 C152.845256,127.329954 151.033394,128.382684 150.561369,130.149127 C150.087722,131.915571 151.132341,133.7323 152.895541,134.212435 L156.105635,135.073759 C156.386255,135.148375 156.674985,135.185683 156.965337,135.185683 C158.632834,135.185683 160.040799,133.949659 160.258157,132.29676 C160.473894,130.643861 159.432519,129.086666 157.823416,128.655193 L157.823416,128.655193 Z" id="Path"></path>
            <path d="M159.453606,109.626584 L142.843518,109.626584 C141.008946,109.626584 139.5215,111.114031 139.5215,112.948602 C139.5215,114.783174 141.008946,116.27062 142.843518,116.27062 L159.453606,116.27062 C161.288177,116.27062 162.775624,114.783174 162.775624,112.948602 C162.775624,111.114031 161.288177,109.626584 159.453606,109.626584 Z" id="Path"></path>
            <path d="M150.54677,95.7545652 C151.02204,97.5242534 152.842012,98.5753606 154.613323,98.1017135 L157.823416,97.2420115 C159.586616,96.7618761 160.631235,94.9451477 160.157588,93.1787038 C159.685563,91.4122599 157.873701,90.3595303 156.105635,90.8234451 L152.895541,91.6847692 C151.124231,92.1600382 150.071501,93.981633 150.54677,95.7545652 Z" id="Path"></path>
            <path d="M146.786791,81.3894339 C147.37074,81.3894339 147.943334,81.2353363 148.4478,80.9449845 L151.325368,79.2839756 C152.900407,78.3593904 153.434071,76.3382802 152.52084,74.7567531 C151.609232,73.1752261 149.589744,72.6269636 148.003351,73.5288391 L145.125782,75.1898479 C143.823253,75.9424926 143.18902,77.4753575 143.578319,78.9271178 C143.967618,80.3788786 145.283124,81.3894339 146.786791,81.3894339 Z" id="Path"></path>
            <path d="M135.698259,66.9415765 C136.579048,66.9415765 137.424151,66.5912074 138.04703,65.9683291 L140.3958,63.6195588 C141.654533,62.3170293 141.636691,60.2440126 140.355248,58.9625704 C139.073806,57.6811278 137.000789,57.6632849 135.698259,58.9220181 L133.349489,61.2707885 C132.398951,62.2213269 132.115087,63.6503784 132.629286,64.8912687 C133.143485,66.132159 134.355178,66.9415765 135.698259,66.9415765 L135.698259,66.9415765 Z" id="Path"></path>
            <path d="M119.589394,55.4118393 C121.179031,56.3283142 123.211496,55.7816733 124.12797,54.1920359 L125.788979,51.314468 C126.690855,49.7280746 126.142593,47.7102084 124.561066,46.7969778 C122.979538,45.8837477 120.958428,46.4174115 120.035465,47.9924503 L118.374456,50.8700182 C117.931629,51.6340175 117.811595,52.5407597 118.040308,53.3923511 C118.269021,54.2439424 118.825394,54.9706338 119.589394,55.4118393 L119.589394,55.4118393 Z" id="Path"></path>
            <path d="M103.564875,48.7710482 C103.845495,48.8472856 104.135847,48.8878379 104.427821,48.8862155 C105.931488,48.8845935 107.245373,47.8740382 107.63305,46.4222779 L108.494374,43.2121835 C108.958288,41.4441176 107.905559,39.6322551 106.139114,39.1602305 C104.372671,38.686583 102.557564,39.7312023 102.075807,41.4960242 L101.216105,44.7044961 C100.742458,46.4758064 101.793565,48.2957792 103.564875,48.7710482 Z" id="Path"></path>
            <path d="M86.3692165,122.914655 C89.013205,122.921144 91.5501365,121.871658 93.4155275,119.998157 C97.3052727,116.10679 97.3052727,109.796903 93.4155275,105.905535 C89.4706315,102.142312 83.2645572,102.142312 79.3196612,105.905535 C76.4729125,108.75715 75.6213211,113.042683 77.1655403,116.763732 C78.7081375,120.486403 82.339972,122.913033 86.3692165,122.914655 Z M84.0204462,110.599832 C84.8541946,109.736886 86.0902185,109.389761 87.2516275,109.694712 C88.4130356,109.99804 89.3197778,110.904783 89.6247287,112.066191 C89.9280576,113.2276 89.5809324,114.463624 88.7179869,115.297372 C87.4041027,116.552862 85.3343299,116.552862 84.0204462,115.297372 C82.724405,113.999709 82.724405,111.897495 84.0204462,110.599832 Z" id="Shape"></path>
            <path d="M124.867638,70.0186606 L70.8426763,95.8567563 C70.1370723,96.1941487 69.5742108,96.7699864 69.2514169,97.4820792 L45.7604697,149.158271 C45.1878755,150.418626 45.4571408,151.902828 46.4368765,152.880942 C47.4149902,153.860678 48.8991921,154.129943 50.1595478,153.557349 L101.837361,130.066401 C102.547832,129.743608 103.12367,129.180746 103.461062,128.475142 L129.299158,74.4501799 C129.90906,73.17847 129.649527,71.6618265 128.65357,70.6642478 C127.655992,69.6682915 126.139348,69.4087589 124.867638,70.0186606 Z M97.9962785,124.518891 L55.4751004,143.842718 L74.798927,101.32154 L119.256867,80.0609511 L97.9962785,124.518891 Z" id="Shape"></path>
            <path d="M84.0107135,14.2515855 C82.7211606,15.5508711 82.7276489,17.6498411 84.0236901,18.9426383 C85.3197313,20.2354351 87.4187013,20.2354351 88.7147425,18.9426383 C90.0124057,17.6498411 90.017272,15.5508711 88.7277191,14.2515855 C87.392748,13.0301602 85.3456846,13.0301602 84.0107135,14.2515855 Z" id="Path"></path>
        </g>
    </g>
</svg>