<?xml version="1.0" encoding="UTF-8"?>
<svg width="202px" height="202px" viewBox="0 0 101 101" version="1.1" xmlns="http://www.w3.org/2000/svg" xmlns:xlink="http://www.w3.org/1999/xlink">
    <!-- Generator: Sketch 53.1 (72631) - https://sketchapp.com -->
    <title>archery icon</title>
    <desc>Created with Sketch.</desc>
    <g id="design" stroke="none" stroke-width="1" fill="none" fill-rule="evenodd">
        <g id="catalogue-v2" transform="translate(-161.000000, -491.000000)" fill="#4A7CB2">
            <g id="icons" transform="translate(120.000000, 468.000000)">
                <g id="Group-2">
                    <g id="archery">
                        <g id="archery-icon" transform="translate(41.500000, 23.200000)">
                            <path d="M73.1773171,44.0239024 C74.5941463,47.6080488 75.312439,51.392439 75.312439,55.2739024 C75.312439,72.1441463 61.5873171,85.8692683 44.7170732,85.8692683 C27.844878,85.8692683 14.1187805,72.1441463 14.1187805,55.2739024 C14.1187805,38.4026829 27.844878,24.6773171 44.7170732,24.6773171 C48.6126829,24.6773171 52.4065854,25.4004878 55.9917073,26.8278049 C57.2007317,27.3087805 57.7914634,28.6797561 57.3104878,29.8890244 C56.8282927,31.0980488 55.4582927,31.6895122 54.2492683,31.207561 C51.2204878,30.0021951 48.0134146,29.3914634 44.7170732,29.3914634 C30.4439024,29.3914634 18.8319512,41.0026829 18.8319512,55.2739024 C18.8319512,69.544878 30.4439024,81.155122 44.7170732,81.155122 C58.9882927,81.155122 70.5982927,69.544878 70.5982927,55.2739024 C70.5982927,51.9887805 69.9914634,48.7865854 68.7939024,45.7578049 C68.3156098,44.5468293 68.9080488,43.1778049 70.1190244,42.6985366 C71.33,42.2212195 72.6990244,42.8139024 73.1773171,44.0239024 Z M87.7085366,42.9480488 C88.8509756,46.9412195 89.4302439,51.087561 89.4302439,55.2739024 C89.4302439,79.9297561 69.3721951,99.99 44.7160976,99.99 C20.06,99.99 3.90798505e-14,79.9297561 3.90798505e-14,55.2739024 C3.90798505e-14,30.6168293 20.06,10.5568293 44.7160976,10.5568293 C48.9119512,10.5568293 53.0668293,11.1390244 57.0646341,12.2870732 C58.3156098,12.6460976 59.0387805,13.9514634 58.6795122,15.202439 C58.3202439,16.4541463 57.015122,17.1763415 55.7641463,16.8182927 C52.1885366,15.7912195 48.4717073,15.2709756 44.7160976,15.2709756 C22.6590244,15.2709756 4.71414634,33.2158537 4.71414634,55.2729268 C4.71414634,77.3307317 22.6590244,95.2756098 44.7160976,95.2756098 C66.7721951,95.2756098 84.7160976,77.3307317 84.7160976,55.2729268 C84.7160976,51.5265854 84.1978049,47.8158537 83.1763415,44.244878 C82.8182927,42.9929268 83.5421951,41.6885366 84.7941463,41.3304878 C86.0460976,40.9731707 87.3504878,41.6963415 87.7085366,42.9480488 Z M61.1270732,53.8341463 C61.17,54.3087805 61.1919512,54.7926829 61.1919512,55.2729268 C61.1919512,64.3573171 53.8014634,71.7478049 44.7170732,71.7478049 C35.6307317,71.7478049 28.2382927,64.3573171 28.2382927,55.2729268 C28.2382927,46.187561 35.6307317,38.795122 44.7170732,38.795122 C45.2229268,38.795122 45.7231707,38.8180488 46.2043902,38.8619512 C47.5,38.9819512 48.4546341,40.13 48.3346341,41.4256098 C48.2156098,42.722439 47.0682927,43.675122 45.7717073,43.5560976 C45.4334146,43.5256098 45.0790244,43.5092683 44.7160976,43.5092683 C38.2297561,43.5092683 32.952439,48.7865854 32.952439,55.2739024 C32.952439,61.7582927 38.2297561,67.0343902 44.7160976,67.0343902 C51.2014634,67.0343902 56.4778049,61.7590244 56.4778049,55.2739024 C56.4778049,54.9326829 56.462439,54.5887805 56.4319512,54.2534146 C56.3165854,52.9568293 57.2741463,51.8114634 58.57,51.6963415 C59.8665854,51.5858537 61.0117073,52.537561 61.1270732,53.8341463 Z M99.5417073,15.9541463 C100.273415,17.7214634 99.872439,19.7373171 98.5185366,21.0902439 L84.7865854,34.8221951 C83.4517073,36.1570732 81.6768293,36.892439 79.7885366,36.892439 L66.45,36.892439 L47.295122,56.047561 C46.834878,56.507561 46.2319512,56.7382927 45.6287805,56.7382927 C45.0256098,56.7382927 44.4226829,56.507561 43.962439,56.047561 C43.0421951,55.1270732 43.0421951,53.635122 43.962439,52.7146341 L63.1173171,33.5587805 L63.1173171,20.2214634 C63.1173171,18.3331707 63.8519512,16.5580488 65.1878049,15.2234146 L78.9195122,1.4904878 C80.272439,0.137560976 82.2885366,-0.263414634 84.0558537,0.46902439 C85.8241463,1.20073171 86.9663415,2.91097561 86.9663415,4.82512195 L86.9663415,13.0434146 L95.184878,13.0434146 C97.0987805,13.0434146 98.8090244,14.1858537 99.5417073,15.9541463 Z M67.8314634,20.2214634 L67.8304878,20.2214634 L67.8304878,28.8456098 L82.2521951,14.4239024 L82.2521951,4.82609756 L68.5204878,18.5560976 C68.0763415,19.0009756 67.8314634,19.5926829 67.8314634,20.2214634 Z M81.4539024,31.4895122 L95.184878,17.7585366 L85.5858537,17.757561 L71.1641463,32.1782927 L79.7885366,32.1782927 C80.4087805,32.1782927 81.0156098,31.9268293 81.4539024,31.4895122 Z" id="Combined-Shape"></path>
                        </g>
                    </g>
                </g>
            </g>
        </g>
    </g>
</svg>