<?xml version="1.0" encoding="UTF-8"?>
<svg width="200px" height="163px" viewBox="0 0 200 163" version="1.1" xmlns="http://www.w3.org/2000/svg" xmlns:xlink="http://www.w3.org/1999/xlink">
    <!-- Generator: Sketch 53.2 (72643) - https://sketchapp.com -->
    <title>022-cap</title>
    <desc>Created with Sketch.</desc>
    <g id="Page-1" stroke="none" stroke-width="1" fill="none" fill-rule="evenodd">
        <g id="022-cap" fill="#4A7CB2" fill-rule="nonzero">
            <path d="M199.186719,138.832031 L193.313672,119.744141 L193.313672,96.834375 C193.313672,51.2363281 157.903125,13.7550781 113.137109,10.4414063 C113.14375,10.2917969 113.151562,10.1425781 113.151562,9.9921875 C113.151562,4.58203125 108.75,0.180859375 103.340234,0.180859375 L96.6601562,0.180859375 C91.25,0.180859375 86.8488281,4.58242188 86.8488281,9.9921875 C86.8488281,10.1425781 86.8566406,10.2917969 86.8632812,10.4414063 C42.0972656,13.7558594 6.68671875,51.2367187 6.68671875,96.8347656 L6.68671875,119.744531 L0.81328125,138.832031 C-1.03671875,144.84375 0.31328125,151.279687 4.4234375,156.047656 C8.50234375,160.779687 14.6152344,163.046094 20.7757812,162.111719 C43.8988281,158.601953 71.2941406,156.747266 100,156.747266 C128.705859,156.747266 156.101562,158.602344 179.224219,162.111719 C180.139453,162.250781 181.052734,162.31875 181.959375,162.31875 C187.154687,162.31875 192.103125,160.076562 195.576562,156.047266 C199.687109,151.279687 201.036719,144.844141 199.186719,138.832031 Z M187.051172,96.834375 L187.051172,116.132812 C179.921875,114.308203 171.914062,112.732422 163.253125,111.430078 L163.253125,96.834375 C163.253125,73.91875 157.276172,52.3328125 146.422266,36.0523438 C142.347656,29.9402344 137.762109,24.8402344 132.803906,20.8253906 C164.335156,31.6929687 187.051172,61.659375 187.051172,96.834375 Z M172.591016,119.355469 L179.731641,142.348828 C156.182031,138.928906 128.679297,137.124219 100,137.124219 C71.3207031,137.124219 43.8195313,138.928906 20.2683594,142.348828 L27.4089844,119.355469 C47.8863281,115.479297 73.3601563,113.326172 100,113.326172 C126.639844,113.326172 152.114062,115.478906 172.591016,119.355469 Z M96.6601562,6.44335938 L103.340234,6.44335938 C105.297266,6.44335938 106.889062,8.03515625 106.889062,9.9921875 C106.889062,10.0632813 106.879297,10.1328125 106.875391,10.2035156 C106.810156,10.2035156 106.745703,10.2011719 106.680469,10.2011719 L104.453906,10.2011719 L95.546875,10.2011719 L93.3203125,10.2011719 C93.2550781,10.2011719 93.190625,10.2035156 93.1253906,10.2035156 C93.1207031,10.1328125 93.1113281,10.0632813 93.1113281,9.9921875 C93.1113281,8.03554688 94.703125,6.44335938 96.6601562,6.44335938 Z M95.5464844,16.4636719 L104.453125,16.4636719 C133.422266,16.4636719 156.989844,52.5179688 156.989844,96.834375 L156.989844,110.550391 C139.690625,108.287109 120.157813,107.063281 99.9996094,107.063281 C79.8414063,107.063281 60.3085938,108.287109 43.009375,110.550391 L43.009375,96.834375 C43.0101563,52.5179688 66.578125,16.4636719 95.5464844,16.4636719 Z M12.9492188,96.8347656 C12.9492188,61.6589844 35.6652344,31.6925781 67.1964844,20.8257813 C62.2382812,24.8410156 57.6527344,29.9414063 53.578125,36.0527344 C42.7246094,52.3328125 36.7472656,73.91875 36.7472656,96.8347656 L36.7472656,111.430469 C28.0863281,112.733594 20.0785156,114.308984 12.9492187,116.133203 L12.9492188,96.8347656 Z M190.833203,151.958594 C188.169531,155.048437 184.180078,156.528906 180.164063,155.919922 C156.735547,152.364062 129.015234,150.484375 100,150.484375 C70.9847656,150.484375 43.2640625,152.364062 19.8359375,155.919922 C15.8195312,156.530078 11.8308594,155.048437 9.16679687,151.958594 C6.471875,148.832812 5.58671875,144.613672 6.79921875,140.673828 L12.30625,122.775391 C14.8792969,122.078516 17.5859375,121.417969 20.4050781,120.792187 L13.5828125,142.760156 C12.9613281,144.779687 13.7683594,146.300391 14.3046875,147.026172 C15.3671875,148.465625 17.021875,149.16875 18.7707031,148.901953 C42.5449219,145.293359 70.6339844,143.386719 100,143.386719 C129.366016,143.386719 157.454688,145.29375 181.227344,148.901953 C181.483984,148.941016 181.740234,148.960938 181.987109,148.960938 C183.435156,148.960938 184.786719,148.255859 185.694141,147.026563 C186.230469,146.300391 187.0375,144.78125 186.414453,142.753516 L179.594531,120.792188 C182.413672,121.418359 185.120703,122.078906 187.693359,122.775391 L193.200391,140.673828 C194.413672,144.614062 193.528516,148.832422 190.833203,151.958594 Z" id="Shape"></path>
            <path d="M110.020312,77.0027344 L89.9796875,77.0027344 C84.5695312,77.0027344 80.1683594,81.4042969 80.1683594,86.8140625 C80.1683594,92.2238281 84.5699219,96.6253906 89.9796875,96.6253906 L110.020312,96.6253906 C115.430469,96.6253906 119.831641,92.2238281 119.831641,86.8140625 C119.831641,81.4042969 115.430469,77.0027344 110.020312,77.0027344 Z M110.020312,90.3628906 L89.9796875,90.3628906 C88.0226562,90.3628906 86.4308594,88.7710938 86.4308594,86.8140625 C86.4308594,84.8570313 88.0226562,83.2652344 89.9796875,83.2652344 L110.020312,83.2652344 C111.977344,83.2652344 113.569141,84.8570313 113.569141,86.8140625 C113.569141,88.7710938 111.977344,90.3628906 110.020312,90.3628906 Z" id="Shape"></path>
        </g>
    </g>
</svg>