<?xml version="1.0" encoding="UTF-8"?>
<svg width="195px" height="200px" viewBox="0 0 195 200" version="1.1" xmlns="http://www.w3.org/2000/svg" xmlns:xlink="http://www.w3.org/1999/xlink">
    <!-- Generator: Sketch 53.2 (72643) - https://sketchapp.com -->
    <title>023-varsity-jacket</title>
    <desc>Created with Sketch.</desc>
    <g id="Page-1" stroke="none" stroke-width="1" fill="none" fill-rule="evenodd">
        <g id="023-varsity-jacket" fill="#4A7CB2" fill-rule="nonzero">
            <path d="M194.309172,172.905145 C194.267114,171.208054 194.212081,169.498434 194.146756,167.824609 C192.440716,124.185235 182.882327,81.69217 165.738255,41.5252796 L161.996868,32.7592841 C161.768233,32.2237136 161.339597,31.7986577 160.802685,31.5736018 L117.720805,13.5498881 L117.048322,12.2044743 C114.200895,6.50917226 109.034004,2.3212528 102.872931,0.71409396 C99.2263982,-0.237583893 95.3709172,-0.237136465 91.7261745,0.71409396 C85.5646532,2.3212528 80.3982103,6.50917226 77.5498881,12.2044743 L76.8774049,13.5498881 L33.7959732,31.5731544 C33.2590604,31.7977629 32.8304251,32.2232662 32.6017897,32.7588367 L28.8604027,41.5248322 C11.7158837,81.6926174 2.15749441,124.18613 0.451454139,167.824609 C0.386129754,169.509172 0.331096197,171.218345 0.289485459,172.905145 C0.205369128,176.270694 2.5064877,179.217897 5.72572707,180.000895 C5.3163311,184.712304 4.27829978,189.360179 2.63087248,193.845638 C2.22237136,194.957942 2.75212528,196.195973 3.83847875,196.668456 C8.88187919,198.862192 14.1668904,199.967785 19.5928412,199.967785 C20.7297539,199.967785 21.8738255,199.919463 23.0223714,199.821924 C24.2035794,199.722148 25.1011186,198.718568 25.0697987,197.533781 C24.941387,192.668009 25.4662192,187.854586 26.6268456,183.195973 C26.7275168,183.200447 26.8277405,183.207606 26.9284116,183.207606 C28.5369128,183.207606 30.1208054,182.668456 31.3977629,181.665324 C32.9646532,180.434004 33.9610738,178.587919 34.1324385,176.600895 C35.0912752,165.473826 39.2814318,134.449217 48.1928412,102.948993 C47.7217002,108.271588 47.3064877,114.102908 47.0769575,119.959284 C46.0644295,145.781208 48.9610738,160.216107 55.9167785,163.929754 L54.3668904,175.166443 C54.258613,175.952125 54.5744966,176.736465 55.1964206,177.22774 C55.5686801,177.5217 64.6823266,184.420582 97.2988814,184.420582 C129.915436,184.420582 139.029083,177.5217 139.401342,177.22774 C140.023714,176.736465 140.339597,175.951678 140.230872,175.166443 L138.680984,163.929754 C145.636689,160.216107 148.533333,145.781208 147.520805,119.959284 C147.291275,114.103356 146.876063,108.271588 146.404922,102.949441 C155.316779,134.452349 159.50604,165.475168 160.464877,176.601342 C160.636242,178.588367 161.63311,180.434004 163.200447,181.665324 C164.557047,182.731544 166.259955,183.271141 167.971365,183.199105 C169.131544,187.856823 169.656376,192.669799 169.527964,197.534228 C169.496644,198.718568 170.394631,199.722595 171.575391,199.822371 C172.724385,199.919911 173.867562,199.968233 175.004922,199.968233 C180.430425,199.968233 185.715884,198.863087 190.759284,196.668904 C191.846085,196.196421 192.375391,194.958389 191.96689,193.846085 C190.319463,189.360179 189.281879,184.711857 188.872483,180.000895 C192.09217,179.217897 194.392841,176.270694 194.309172,172.905145 Z M110.495749,27.9118568 C109.321253,29.3807606 107.932886,30.6053691 106.389262,31.563311 C108.272036,26.9910515 111.009396,20.409396 112.630425,16.8076063 C112.94094,16.1176734 113.169128,15.4393736 113.331544,14.7753915 L113.914541,15.9409396 C114.427293,20.2621924 113.223266,24.5011186 110.495749,27.9118568 Z M92.855481,5.04295302 C95.7619687,4.28456376 98.8357942,4.28456376 101.743177,5.04295302 C103.113199,5.40044743 104.420134,5.91946309 105.642953,6.57941834 C107.590157,7.63042506 108.993289,9.52751678 109.155257,11.7342282 C109.226398,12.7024609 109.079642,13.793736 108.549888,14.9713647 C106.300224,19.9709172 102.076957,30.2684564 100.663535,33.7297539 C100.191946,33.8107383 99.7149888,33.8756152 99.2313199,33.9163311 L97.2993289,34.0774049 L95.3673378,33.9163311 C94.8836689,33.8760626 94.406264,33.8111857 93.9342282,33.7297539 C92.5208054,30.2684564 88.298434,19.9709172 86.0483221,14.9713647 C85.4519016,13.6465324 85.3422819,12.4295302 85.4823266,11.3736018 C85.7565996,9.3082774 87.1163311,7.57315436 88.9489933,6.58255034 C90.1740492,5.9212528 91.4832215,5.40089485 92.855481,5.04295302 Z M80.6841163,15.941387 L81.2680089,14.7731544 C81.4299776,15.4375839 81.6572707,16.1167785 81.9682327,16.8076063 C83.5892617,20.409396 86.3261745,26.9910515 88.2089485,31.563311 C86.6653244,30.6053691 85.2769575,29.3807606 84.1024609,27.9118568 C81.3749441,24.5011186 80.1709172,20.2621924 80.6841163,15.941387 Z M7.54183445,193.336018 C8.88322148,189.221029 9.75167785,184.990157 10.1480984,180.710067 L22.1807606,182.561074 C21.166443,186.776734 20.6255034,191.102908 20.5798658,195.479195 C16.1055928,195.600895 11.7387025,194.883669 7.54183445,193.336018 Z M29.6751678,176.216555 C29.6089485,176.985235 29.2384787,177.671141 28.6331096,178.146756 C28.0290828,178.621477 27.2805369,178.819687 26.5190157,178.701566 L7.00536913,175.699329 C5.69306488,175.497539 4.72885906,174.344072 4.76152125,173.016107 C4.80313199,171.350336 4.85727069,169.661745 4.92170022,167.998658 C6.60715884,124.906935 16.0456376,82.9458613 32.9753915,43.2814318 L34.5673378,39.5516779 L50.6147651,80.649217 C36.9248322,118.671588 30.8604027,162.463087 29.6751678,176.216555 Z M51.6778523,139.807159 L63.0425056,107.029978 L64.7346756,107.61745 L53.3006711,140.590604 L51.6944072,140.034452 C51.6885906,139.957942 51.682774,139.884116 51.6778523,139.807159 Z M52.1642058,144.931544 L53.9498881,145.549888 C54.1923937,145.634004 54.4393736,145.673826 54.6818792,145.673826 C55.6085011,145.673826 56.4751678,145.093512 56.7955257,144.169128 L69.6948546,106.970022 C70.0997763,105.802685 69.4814318,104.528412 68.3145414,104.12349 L62.3950783,102.069799 C61.8344519,101.875168 61.2192394,101.911409 60.685906,102.17047 C60.1521253,102.42953 59.7427293,102.889933 59.5485459,103.450559 L51.3700224,127.038031 C51.3950783,124.886353 51.4519016,122.60179 51.5472036,120.165548 C52.3145414,100.547651 55.1883669,81.141387 55.2170022,80.947651 C55.2747204,80.5615213 55.2299776,80.1668904 55.0881432,79.803132 L37.5378076,34.8581655 L76.1051454,18.7230425 C76.2791946,23.0684564 77.8246085,27.2246085 80.6076063,30.7055928 C84.1816555,35.1758389 89.2917226,37.8993289 94.9955257,38.3749441 L95.061745,38.3803132 L95.061745,163.446532 C89.1803132,163.545861 72.3472036,163.506488 58.8881432,160.319016 C57.0809843,159.891275 53.7087248,157.352573 52.1642058,144.931544 Z M60.2577181,165.204474 C73.7834452,168.002685 89.2621924,168.03311 95.061745,167.926622 L95.061745,179.934228 C71.8174497,179.698434 61.9646532,175.816555 59.0017897,174.308277 L60.2577181,165.204474 Z M99.5364653,179.934228 L99.5364653,167.926622 C100.439821,167.943177 101.577181,167.9566 102.90604,167.9566 C110.110962,167.9566 122.922595,167.565996 134.340492,165.204027 L135.595526,174.305145 C132.602237,175.829083 122.742729,179.698881 99.5364653,179.934228 Z M135.70962,160.319463 C122.261298,163.504251 105.419687,163.544966 99.5360179,163.446532 L99.5360179,38.3803132 L99.6022371,38.3749441 C105.30604,37.8993289 110.41566,35.1758389 113.989709,30.7060403 C116.773154,27.2250559 118.319016,23.0689038 118.492617,18.7230425 L157.059955,34.8581655 L139.510962,79.803132 C139.369128,80.1668904 139.324385,80.5615213 139.382103,80.947651 C139.410738,81.141387 142.280984,100.516779 143.050559,120.134228 C143.146756,122.58255 143.204027,124.877405 143.229083,127.038479 L135.050112,103.450559 C134.855928,102.889933 134.446532,102.42953 133.912752,102.17047 C133.378971,101.911409 132.764653,101.875168 132.203579,102.069799 L126.284564,104.12349 C125.117673,104.528412 124.499329,105.802685 124.904251,106.970022 L137.803579,144.169128 C138.123937,145.09396 138.990157,145.673826 139.917226,145.673826 C140.159732,145.673826 140.407159,145.634004 140.649217,145.549888 L142.434899,144.931544 C140.89038,157.352125 137.518121,159.891275 135.70962,160.319463 Z M142.904251,140.034004 L141.297987,140.590157 L129.863982,107.617002 L131.555705,107.029978 L142.920805,139.807606 C142.915436,139.884564 142.90962,139.957942 142.904251,140.034004 Z M174.018345,195.479195 C173.972707,191.102908 173.431767,186.776734 172.41745,182.561074 L184.450559,180.710067 C184.84698,184.990157 185.715436,189.220582 187.056823,193.336018 C182.85906,194.883669 178.491723,195.603579 174.018345,195.479195 Z M187.592841,175.699329 L168.079642,178.701566 C167.318568,178.818345 166.569128,178.621477 165.965101,178.146756 C165.359284,177.670694 164.988814,176.984787 164.922595,176.216107 C163.738255,162.46443 157.67472,118.67651 143.983445,80.649217 L160.030872,39.5516779 L161.622819,43.2814318 C178.552573,82.9454139 187.991051,124.906488 189.675615,167.999553 C189.740492,169.652796 189.794631,171.34094 189.836242,173.016107 C189.869351,174.344072 188.904698,175.497539 187.592841,175.699329 Z" id="Shape"></path>
            <path d="M104.75481,39.3033557 C104.168233,39.3033557 103.591051,39.5449664 103.175391,39.9610738 C102.759284,40.3771812 102.517673,40.9543624 102.517673,41.5404922 C102.517673,42.1310962 102.759284,42.7082774 103.175391,43.1243848 C103.591499,43.5404922 104.16868,43.7776286 104.75481,43.7776286 C105.344966,43.7776286 105.922148,43.5404922 106.338702,43.1243848 C106.75481,42.7082774 106.991946,42.1310962 106.991946,41.5404922 C106.991946,40.9498881 106.75481,40.3771812 106.338702,39.9610738 C105.922148,39.5449664 105.344966,39.3033557 104.75481,39.3033557 Z" id="Path"></path>
            <path d="M104.75481,68.0147651 C104.168233,68.0147651 103.591051,68.2519016 103.175391,68.6724832 C102.759284,69.0885906 102.517673,69.6612975 102.517673,70.2519016 C102.517673,70.8425056 102.759284,71.4152125 103.175391,71.8313199 C103.591499,72.2519016 104.16868,72.489038 104.75481,72.489038 C105.344966,72.489038 105.922148,72.2519016 106.338702,71.8313199 C106.75481,71.4196868 106.991946,70.8425056 106.991946,70.2519016 C106.991946,69.6612975 106.75481,69.0841163 106.338702,68.6724832 C105.922148,68.2519016 105.344966,68.0147651 104.75481,68.0147651 Z" id="Path"></path>
            <path d="M104.75481,96.7257271 C104.168233,96.7257271 103.591051,96.9628635 103.175391,97.3789709 C102.759284,97.7950783 102.517673,98.3722595 102.517673,98.9628635 C102.517673,99.5489933 102.759284,100.126174 103.175391,100.542282 C103.591499,100.958389 104.16868,101.2 104.75481,101.2 C105.344966,101.2 105.922148,100.958389 106.338702,100.542282 C106.75481,100.126174 106.991946,99.5534676 106.991946,98.9628635 C106.991946,98.3722595 106.75481,97.7950783 106.338702,97.3789709 C105.922148,96.963311 105.344966,96.7257271 104.75481,96.7257271 Z" id="Path"></path>
            <path d="M104.75481,125.43311 C104.168233,125.43311 103.591051,125.67472 103.175391,126.090828 C102.759284,126.506935 102.517673,127.084116 102.517673,127.670246 C102.517673,128.26085 102.759284,128.838031 103.175391,129.254139 C103.591499,129.670246 104.16868,129.907383 104.75481,129.907383 C105.344966,129.907383 105.922148,129.670246 106.338702,129.254139 C106.75481,128.838031 106.991946,128.26085 106.991946,127.670246 C106.991946,127.079642 106.75481,126.506935 106.338702,126.090828 C105.922148,125.67472 105.344966,125.43311 104.75481,125.43311 Z" id="Path"></path>
            <path d="M104.75481,154.144519 C104.168233,154.144519 103.591051,154.381655 103.175391,154.802237 C102.759284,155.21387 102.517673,155.791051 102.517673,156.381655 C102.517673,156.97226 102.759284,157.544966 103.175391,157.961074 C103.591499,158.381655 104.16868,158.618792 104.75481,158.618792 C105.344966,158.618792 105.922148,158.381655 106.338702,157.965548 C106.75481,157.549441 106.991946,156.97226 106.991946,156.381655 C106.991946,155.791051 106.75481,155.21387 106.338702,154.802237 C105.922148,154.381655 105.344966,154.144519 104.75481,154.144519 Z" id="Path"></path>
            <path d="M106.338702,172.099329 C105.922148,171.683221 105.344966,171.446085 104.75481,171.446085 C104.168233,171.446085 103.591051,171.683221 103.175391,172.099329 C102.759284,172.515436 102.517673,173.092617 102.517673,173.683221 C102.517673,174.269351 102.759284,174.846532 103.175391,175.26264 C103.591499,175.678747 104.16868,175.920358 104.75481,175.920358 C105.344966,175.920358 105.922148,175.678747 106.338702,175.26264 C106.75481,174.846532 106.991946,174.273826 106.991946,173.683221 C106.991946,173.093065 106.75481,172.515884 106.338702,172.099329 Z" id="Path"></path>
            <path d="M84.2742729,61.9091723 C84.2742729,55.1248322 78.7548098,49.6053691 71.9704698,49.6053691 C65.1861298,49.6053691 59.6666667,55.1248322 59.6666667,61.9091723 C59.6666667,68.6935123 65.1861298,74.2129754 71.9704698,74.2129754 C78.7548098,74.2129754 84.2742729,68.6935123 84.2742729,61.9091723 Z M64.1409396,61.9091723 C64.1409396,57.5919463 67.6532438,54.0796421 71.9704698,54.0796421 C76.2876957,54.0796421 79.8,57.5919463 79.8,61.9091723 C79.8,66.2263982 76.2876957,69.7387025 71.9704698,69.7387025 C67.6532438,69.7387025 64.1409396,66.2263982 64.1409396,61.9091723 Z" id="Shape"></path>
        </g>
    </g>
</svg>