<?xml version="1.0" encoding="UTF-8"?>
<svg width="200px" height="200px" viewBox="0 0 200 200" version="1.1" xmlns="http://www.w3.org/2000/svg" xmlns:xlink="http://www.w3.org/1999/xlink">
    <!-- Generator: Sketch 53.2 (72643) - https://sketchapp.com -->
    <title>006-football</title>
    <desc>Created with Sketch.</desc>
    <g id="Page-1" stroke="none" stroke-width="1" fill="none" fill-rule="evenodd">
        <g id="006-football" fill="#4A7CB2" fill-rule="nonzero">
            <path d="M100,0 C44.859375,0 0,44.859375 0,100 C0,155.140625 44.859375,200 100,200 C155.140625,200 200,155.140625 200,100 C200,44.859375 155.140625,0 100,0 Z M192.575,114.784375 L180.434375,94.6625 L188.8125,70.0375 C191.996875,79.453125 193.75,89.521875 193.75,100 C193.75,105.03125 193.340625,109.965625 192.575,114.784375 Z M168.95625,163.43125 C168.553125,163.328125 168.121875,163.296875 167.68125,163.36875 L137.4375,168.21875 C137.371875,167.85 137.259375,167.48125 137.053125,167.140625 L119.859375,138.484375 L147.659375,95.671875 L173.996875,95.671875 C174.06875,96.009375 174.14375,96.34375 174.325,96.646875 L190.6875,123.765625 C186.753125,138.78125 179.171875,152.3375 168.95625,163.43125 Z M137.440625,174.546875 L161.465625,170.696875 C151.034375,179.778125 138.5875,186.59375 124.884375,190.371875 L137.440625,174.546875 Z M39.53125,28.4375 C55.33125,15.065625 75.596875,6.834375 97.74375,6.30625 C97.90625,6.7375 98.1375,7.14375 98.49375,7.48125 L115.759375,23.775 L108.93125,49.2625 L64.440625,66.340625 C64.278125,66.209375 64.15,66.046875 63.959375,65.946875 L36.240625,51.25625 L39.53125,28.4375 Z M119.95625,19.1375 L106.571875,6.50625 C118.809375,7.359375 130.409375,10.546875 140.9125,15.665625 L119.95625,19.1375 Z M68.53125,121.053125 L65.98125,72.446875 L111.421875,55 L142.05625,92.83125 L115.546875,133.653125 L68.53125,121.053125 Z M185.328125,61.2375 C185.23125,61.40625 185.103125,61.54375 185.0375,61.734375 L175.615625,89.421875 L147.340625,89.421875 L115.25625,49.803125 L121.859375,25.15625 L147.703125,20.871875 C148.253125,20.78125 148.7125,20.515625 149.11875,20.190625 C164.9,29.940625 177.571875,44.2375 185.328125,61.2375 Z M32.221875,35.334375 L29.715625,52.7125 L13,65.134375 C17.484375,53.98125 24.05,43.890625 32.221875,35.334375 Z M9.55,75.396875 C9.6875,75.325 9.83125,75.28125 9.959375,75.184375 L34.1375,57.2125 L59.63125,70.721875 L62.40625,123.646875 C62.4125,123.725 62.446875,123.796875 62.45625,123.875 L38.3625,147.715625 C38.15625,147.91875 38.034375,148.16875 37.896875,148.409375 L14.79375,138.5 C14.70625,138.4625 14.615625,138.471875 14.528125,138.44375 C9.228125,126.703125 6.25,113.696875 6.25,100 C6.25,91.484375 7.4125,83.24375 9.55,75.396875 Z M18.99375,147.1 L35.915625,154.35625 L48.85625,178.509375 C36.625,170.5125 26.375,159.746875 18.99375,147.1 Z M58.865625,184.221875 C58.80625,184.021875 58.7875,183.8125 58.684375,183.621875 L42.06875,152.609375 C42.30625,152.475 42.553125,152.359375 42.75625,152.15625 L67.840625,127.3375 L113.175,139.4875 L131.696875,170.359375 C131.853125,170.61875 132.040625,170.840625 132.253125,171.0375 L115.225,192.496875 C110.265625,193.309375 105.184375,193.75 100,193.75 C85.25,193.75 71.29375,190.315625 58.865625,184.221875 Z" id="Football-ball"></path>
        </g>
    </g>
</svg>