<?xml version="1.0" encoding="UTF-8"?>
<svg width="200px" height="189px" viewBox="0 0 200 189" version="1.1" xmlns="http://www.w3.org/2000/svg" xmlns:xlink="http://www.w3.org/1999/xlink">
    <!-- Generator: Sketch 53.2 (72643) - https://sketchapp.com -->
    <title>007-broom</title>
    <desc>Created with Sketch.</desc>
    <g id="Page-1" stroke="none" stroke-width="1" fill="none" fill-rule="evenodd">
        <g id="Artboard" transform="translate(-102.000000, -393.000000)" fill="#4A7CB2" fill-rule="nonzero">
            <g id="007-broom" transform="translate(102.000000, 393.000000)">
                <path d="M167.830409,157.247953 L157.407407,146.824561 C156.265107,145.682651 154.413645,145.682261 153.272515,146.824172 C152.130214,147.966472 152.130214,149.817544 153.272125,150.959064 L163.694737,161.382456 C164.265887,161.953606 165.014035,162.238986 165.762573,162.238986 C166.510721,162.238986 167.259259,161.953606 167.830019,161.382846 C168.97232,160.240546 168.97232,158.389474 167.830409,157.247953 Z" id="Path"></path>
                <path d="M161.061209,164.017544 L150.638207,153.594152 C149.496296,152.452242 147.644834,152.451852 146.503314,153.593762 C145.361014,154.736062 145.361014,156.587135 146.502924,157.728655 L156.925536,168.152047 C157.496686,168.723197 158.244834,169.008577 158.993372,169.008577 C159.74152,169.008577 160.490058,168.723197 161.060819,168.152437 C162.203119,167.010136 162.203119,165.159064 161.061209,164.017544 Z" id="Path"></path>
                <path d="M172.246004,40.854191 C173.021442,40.854191 173.764912,40.5461988 174.31384,39.9980507 L197.232359,17.0791423 C198.766082,15.5450292 199.610526,13.5060429 199.610526,11.3368421 C199.610526,9.16803119 198.766082,7.12904483 197.232359,5.59532164 L194.337232,2.6994152 C191.17115,-0.465497076 186.019493,-0.466276803 182.853411,2.6994152 L165.639766,19.9126706 C165.638596,19.9138402 165.637037,19.9150097 165.635867,19.9161793 C165.634698,19.9173489 165.633528,19.9189084 165.632359,19.920078 L159.934503,25.6183236 C158.904873,26.6483431 158.807018,28.2534113 159.634308,29.3964912 L134.966082,54.0651072 C133.824172,55.2074074 133.824172,57.0584795 134.966082,58.2003899 C135.537232,58.7711501 136.28577,59.0565302 137.033918,59.0565302 C137.782066,59.0565302 138.530604,58.7711501 139.101754,58.2003899 L163.74152,33.5606238 L166.373879,36.1929825 L124.287719,78.279922 L121.654971,75.6471735 L130.91462,66.3883041 C132.05692,65.2463938 132.05692,63.3949318 130.91501,62.2534113 C129.773099,61.1118908 127.921637,61.1111111 126.780117,62.2530214 L115.490838,73.5415205 C115.477583,73.5539961 115.463548,73.5649123 115.450292,73.5781676 C115.437427,73.5910331 115.426511,73.6054581 115.413645,73.6187135 L109.454581,79.5773879 C109.444055,79.5875244 109.432359,79.5964912 109.421832,79.6070175 C109.411306,79.6175439 109.402339,79.6292398 109.392203,79.6397661 L103.422612,85.6089669 C103.413255,85.6183236 103.402729,85.6261209 103.393372,85.6354776 C103.384016,85.6448343 103.376218,85.6553606 103.366862,85.6647173 L99.8074074,89.2237817 L84.162963,73.5793372 C84.1625731,73.5789474 84.1621832,73.5785575 84.1617934,73.5781676 C84.1614035,73.5777778 84.1610136,73.5773879 84.1606238,73.5773879 L39.9773879,29.3949318 C40.8031189,28.2518519 40.7048733,26.6483431 39.6756335,25.6187135 L33.9781676,19.9204678 C33.9769981,19.9192982 33.9758285,19.9177388 33.9746589,19.9165692 C33.9734893,19.9153996 33.9719298,19.91423 33.9707602,19.9130604 L16.757115,2.69980507 C13.5906433,-0.46588694 8.43898635,-0.465497076 5.27329435,2.70019493 L2.37816764,5.59493177 C0.844444444,7.12904483 0,9.16842105 0,11.3368421 C0,13.505653 0.844444444,15.5450292 2.37816764,17.0791423 L25.2966862,39.9980507 C25.8452242,40.5461988 26.588694,40.854191 27.3645224,40.854191 C27.9820663,40.854191 28.5773879,40.6561404 29.0721248,40.2998051 L37.7563353,48.9840156 C38.3274854,49.5547758 39.0760234,49.8401559 39.8241715,49.8401559 C40.5723197,49.8401559 41.3208577,49.5547758 41.8920078,48.9840156 C43.0339181,47.8417154 43.0339181,45.9906433 41.8920078,44.8487329 L33.237037,36.1937622 L35.871345,33.5594542 L77.9578947,75.645614 L75.3235867,78.279922 L49.7871345,52.7430799 C48.6448343,51.6019493 46.7937622,51.6011696 45.6518519,52.7430799 C44.5099415,53.8853801 44.5099415,55.7364522 45.6518519,56.8783626 L88.9017544,100.128655 L57.2253411,131.803509 C54.5621832,130.008577 51.1013645,129.730214 48.1446394,131.196881 L16.6038986,146.833918 C13.9578947,148.146199 12.165692,150.57037 11.6881092,153.48538 C11.2101365,156.4 12.1341131,159.269396 14.2222222,161.357895 L38.5758285,185.711501 C40.3033138,187.438596 42.5641326,188.368811 44.9434698,188.368811 C45.4413255,188.368811 45.9442495,188.328265 46.4487329,188.245614 C49.3633528,187.767251 51.7871345,185.975828 53.0994152,183.329435 L68.7368421,151.789084 C70.202729,148.832359 69.9247563,145.37193 68.1306043,142.709162 L99.8062378,111.033528 L131.481871,142.709162 C129.687719,145.37193 129.410136,148.832359 130.876023,151.789084 L146.51384,183.329435 C147.825731,185.975828 150.249903,187.767641 153.164522,188.245614 C153.669006,188.328265 154.17193,188.368811 154.669786,188.368811 C157.049123,188.368811 159.309942,187.438207 161.037427,185.711501 L185.391033,161.357895 C187.479142,159.269396 188.403119,156.39961 187.925146,153.48538 C187.447173,150.57037 185.655361,148.146589 183.008967,146.833918 L151.469006,131.197271 C148.511501,129.730214 145.050682,130.008577 142.387914,131.803509 L134.042495,123.45809 C132.900975,122.316569 131.049513,122.316179 129.907602,123.45848 C128.765692,124.60039 128.765692,126.451852 129.907992,127.593372 L138.130214,135.815595 L135.495517,138.450292 L103.94269,106.897466 L106.577388,104.262768 L122.219103,119.904483 C122.790253,120.475244 123.538791,120.760624 124.28694,120.760624 C125.035088,120.760624 125.783626,120.475244 126.354776,119.904483 C127.496686,118.762183 127.496686,116.911111 126.354776,115.769201 L110.71306,100.127485 L170.540741,40.2998051 C171.032749,40.6561404 171.62846,40.854191 172.246004,40.854191 Z M21.662768,28.0931774 L6.51345029,12.9434698 C6.08382066,12.5146199 5.84795322,11.9438596 5.84795322,11.3368421 C5.84795322,10.7302144 6.08382066,10.1594542 6.51345029,9.73021442 L9.408577,6.83508772 C9.85146199,6.39181287 10.4331384,6.17037037 11.0148148,6.17037037 C11.5968811,6.17037037 12.1785575,6.39181287 12.6214425,6.83508772 L27.7711501,21.9844055 L21.662768,28.0931774 Z M27.3641326,33.7949318 L25.7976608,32.22846 L31.9068226,26.120078 L33.4732943,27.6865497 L27.3641326,33.7949318 Z M81.3512671,84.3087719 L79.4580897,82.4155945 L82.0927875,79.7808967 L83.9859649,81.6740741 L81.3512671,84.3087719 Z M136.720468,145.493567 L137.546589,144.667446 C137.551267,144.662768 137.556725,144.658869 137.561404,144.653801 C137.566082,144.649123 137.569981,144.643665 137.575049,144.638986 L145.17193,137.042885 C145.788304,136.425731 146.609747,136.101365 147.442885,136.101365 C147.926706,136.101365 148.414815,136.210916 148.869396,136.436257 L180.409357,152.073294 C181.347758,152.538402 181.982846,153.397661 182.152437,154.431189 C182.322027,155.464717 181.994542,156.482261 181.253801,157.222222 L156.900195,181.575828 C156.159844,182.316569 155.1423,182.642495 154.109162,182.474464 C153.076023,182.304873 152.216764,181.670175 151.751657,180.731774 L136.11423,149.191423 C135.501365,147.955166 135.745029,146.469006 136.720468,145.493567 Z M94.1504873,91.8382066 L95.6709552,93.3590643 L93.0362573,95.9937622 L91.5157895,94.4729045 L94.1504873,91.8382066 Z M87.380117,90.337232 L85.4873294,88.4444444 L88.1220273,85.8097466 L90.0148148,87.7025341 L87.380117,90.337232 Z M63.4959064,149.191423 L47.8584795,180.731774 C47.3937622,181.669786 46.5345029,182.304873 45.5009747,182.474464 C44.4674464,182.642885 43.4499025,182.316569 42.7099415,181.575828 L18.3563353,157.222222 C17.6159844,156.482261 17.288499,155.464327 17.4576998,154.431189 C17.6269006,153.398051 18.2619883,152.538791 19.2003899,152.073294 L50.7411306,136.435867 C51.1953216,136.210916 51.6834308,136.101365 52.1672515,136.101365 C53.0003899,136.101365 53.8214425,136.425731 54.4385965,137.042885 L62.0378168,144.642105 C62.0417154,144.646004 62.0448343,144.650292 62.0483431,144.653801 C62.0518519,144.65731 62.0565302,144.660819 62.060039,144.664327 L62.8888889,145.493177 C63.8654971,146.468616 64.1091618,147.955166 63.4959064,149.191423 Z M64.1169591,138.450292 L61.4822612,135.815595 L105.460819,91.8393762 L108.094347,94.4729045 L64.1169591,138.450292 Z M112.22963,90.337232 L109.596491,87.7040936 L111.489279,85.811306 L114.122417,88.4444444 L112.22963,90.337232 Z M118.25848,84.3083821 L115.625341,81.6752437 L117.518519,79.7820663 L120.151657,82.4152047 L118.25848,84.3083821 Z M186.988694,6.83508772 C187.874074,5.94931774 189.315789,5.94892788 190.201559,6.83469786 L193.096686,9.73060429 C193.526316,10.1598441 193.762183,10.7302144 193.762183,11.3368421 C193.762183,11.9438596 193.526316,12.5146199 193.096686,12.9434698 L177.947758,28.0927875 L171.838986,21.9840156 L186.988694,6.83508772 Z M166.137232,27.6865497 L167.703704,26.120078 L173.812476,32.2288499 L172.246004,33.7953216 L166.137232,27.6865497 Z" id="Shape"></path>
                <path d="M46.3380117,146.823782 C45.1964912,145.682261 43.3450292,145.681871 42.2031189,146.824172 L31.780117,157.247563 C30.6382066,158.389474 30.6382066,160.240546 31.7805068,161.382456 C32.3512671,161.953216 33.0998051,162.238596 33.8479532,162.238596 C34.5961014,162.238596 35.3446394,161.953216 35.9157895,161.382066 L46.3387914,150.958674 C47.4803119,149.816764 47.4803119,147.965692 46.3380117,146.823782 Z" id="Path"></path>
                <path d="M53.1079922,153.592982 C51.9664717,152.451462 50.1150097,152.451072 48.9727096,153.593372 L38.5497076,164.016764 C37.4077973,165.158674 37.4077973,167.009747 38.5500975,168.151657 C39.1208577,168.722417 39.8693957,169.007797 40.6175439,169.007797 C41.365692,169.007797 42.11423,168.722417 42.6853801,168.151267 L53.1083821,157.727875 C54.2502924,156.586355 54.2502924,154.734893 53.1079922,153.592982 Z" id="Path"></path>
                <path d="M99.8050682,29.3044834 C88.9052632,29.3044834 80.037037,38.1723197 80.037037,49.0725146 C80.037037,59.9727096 88.9048733,68.8409357 99.8050682,68.8409357 C110.705263,68.8409357 119.573099,59.9730994 119.573099,49.0725146 C119.573099,38.1723197 110.704873,29.3044834 99.8050682,29.3044834 Z M99.8050682,62.9925926 C92.1298246,62.9925926 85.8853801,56.7477583 85.8853801,49.0725146 C85.8853801,41.397271 92.1298246,35.1528265 99.8050682,35.1528265 C107.480702,35.1528265 113.724756,41.397271 113.724756,49.0725146 C113.724756,56.7473684 107.480312,62.9925926 99.8050682,62.9925926 Z" id="Shape"></path>
                <path d="M94.1500975,43.3380117 C92.5348928,43.3380117 91.2261209,44.6467836 91.2261209,46.2619883 L91.2261209,50.2307992 C91.2261209,51.845614 92.5352827,53.1547758 94.1500975,53.1547758 C95.7653021,53.1547758 97.0740741,51.8460039 97.0740741,50.2307992 L97.0740741,46.2619883 C97.0740741,44.6467836 95.7653021,43.3380117 94.1500975,43.3380117 Z" id="Path"></path>
            </g>
        </g>
    </g>
</svg>