<?xml version="1.0" encoding="UTF-8"?>
<svg width="200px" height="200px" viewBox="0 0 200 200" version="1.1" xmlns="http://www.w3.org/2000/svg" xmlns:xlink="http://www.w3.org/1999/xlink">
    <!-- Generator: Sketch 53.2 (72643) - https://sketchapp.com -->
    <title>034-coach</title>
    <desc>Created with Sketch.</desc>
    <g id="Page-1" stroke="none" stroke-width="1" fill="none" fill-rule="evenodd">
        <g id="034-coach" fill="#4A7CB2" fill-rule="nonzero">
            <path d="M188.542969,124.003906 C181.152344,114.941406 170.78125,108.667969 159.335938,106.335937 L135.941406,101.570312 C137.949219,96.8632812 139.0625,91.6835937 139.0625,86.2460938 L139.0625,24.5117188 C139.0625,10.9960938 128.085938,0 114.59375,0 L85.40625,0 C71.9140625,0 60.9375,10.9960938 60.9375,24.5117188 L60.9375,86.2460938 C60.9375,91.6796875 62.0507812,96.8632812 64.0585938,101.570312 L54.2226562,103.574219 C54.1601562,103.585937 54.0976562,103.601562 54.0390625,103.613281 L40.6679688,106.335938 C29.21875,108.667969 18.8476563,114.941406 11.4570313,124.003906 C4.0703125,133.0625 0,144.492188 0,156.191406 L0,196.09375 C0,198.25 1.75,200 3.90625,200 L196.09375,200 C198.25,200 200,198.25 200,196.09375 L200,156.191406 C200,144.492188 195.929688,133.0625 188.542969,124.003906 Z M68.75,24.5117188 C68.75,15.3046875 76.2226562,7.8125 85.40625,7.8125 L114.59375,7.8125 C123.777344,7.8125 131.25,15.3046875 131.25,24.5117188 L131.25,28.2148438 L68.75,28.2148438 L68.75,24.5117188 Z M127.34375,36.0273438 L127.34375,36.34375 C127.34375,40.6523438 119.757812,43.8710938 112.972656,43.8710938 L87.0273438,43.8710938 C80.2421875,43.8710938 72.65625,40.6523438 72.65625,36.34375 L72.65625,36.0273438 L127.34375,36.0273438 Z M68.75,45.1445313 C72.71875,49.125 79.359375,51.6835938 87.0273438,51.6835938 L112.972656,51.6835938 C120.640625,51.6835938 127.28125,49.125 131.25,45.1445313 L131.25,86.2460938 C131.25,91.1640625 130.113281,95.8203125 128.082031,99.96875 C126.839844,102.519531 125.257812,104.878906 123.390625,106.984375 C117.664062,113.46875 109.300781,117.5625 99.9921875,117.566406 C90.6953125,117.5625 82.3320312,113.472656 76.609375,106.988281 C74.7421875,104.882812 73.1601562,102.523438 71.9140625,99.96875 C69.8867188,95.8242188 68.75,91.1640625 68.75,86.2460938 L68.75,45.1445313 Z M68.046875,108.730469 C75.125,118.789063 86.8125,125.375 100.015625,125.378906 C113.199219,125.371094 124.878906,118.789063 131.949219,108.730469 L135.316406,109.414063 L108.125,138.996094 C105.691406,137.71875 102.929687,136.996094 100,136.996094 C97.0859375,136.996094 94.3320312,137.710938 91.90625,138.976563 L62.8476562,109.789063 L68.046875,108.730469 Z M109.765625,154.601562 C109.765625,160.003906 105.386719,164.398437 100,164.398437 C94.6132812,164.398437 90.234375,160.003906 90.234375,154.601562 C90.234375,149.203125 94.6132812,144.808594 100,144.808594 C105.386719,144.808594 109.765625,149.203125 109.765625,154.601562 Z M41.3789062,192.1875 L7.8125,192.1875 L7.8125,184.289062 L41.3789062,184.289062 L41.3789062,192.1875 Z M154.660156,156.960938 C152.503906,156.960938 150.753906,158.707031 150.753906,160.867188 L150.753906,192.1875 L49.1914063,192.1875 L49.1914063,160.867188 C49.1914063,158.707031 47.4414062,156.960938 45.2851563,156.960938 C43.1289062,156.960938 41.3789063,158.707031 41.3789063,160.867188 L41.3789063,176.476562 L7.8125,176.476562 L7.8125,156.191406 C7.8125,146.289062 11.2578125,136.609375 17.5117188,128.9375 C23.765625,121.273438 32.5429688,115.964844 42.2265625,113.992188 L53.6796875,111.660156 L85.9375,144.054688 C83.7304688,146.996094 82.421875,150.648438 82.421875,154.601562 C82.421875,164.3125 90.3085938,172.210937 100,172.210937 C103.609375,172.210937 106.972656,171.113281 109.765625,169.234375 L109.765625,183.078125 C109.765625,185.234375 111.515625,186.984375 113.671875,186.984375 C115.828125,186.984375 117.578125,185.234375 117.578125,183.078125 L117.578125,154.601562 C117.578125,154.53125 117.578125,154.464844 117.574219,154.398438 C117.53125,150.53125 116.234375,146.957031 114.070312,144.070312 L144.253906,111.238281 L157.777344,113.992188 C167.457031,115.964844 176.234375,121.273438 182.488281,128.9375 C188.742188,136.609375 192.1875,146.289062 192.1875,156.191406 L192.1875,176.480469 L158.566406,176.472656 L158.566406,160.867188 C158.566406,158.707031 156.816406,156.960938 154.660156,156.960938 Z M192.1875,192.1875 L158.566406,192.1875 L158.566406,184.285156 L192.1875,184.292969 L192.1875,192.1875 Z" id="Shape"></path>
            <path d="M100.007812,158.509375 C97.8503906,158.509375 96.0996094,156.760156 96.0996094,154.603125 C96.0996094,152.446094 97.8464844,150.696875 100.003906,150.696875 L100.007812,150.696875 C102.165234,150.696875 103.914062,152.446094 103.914062,154.603125 C103.914062,156.760156 102.165234,158.509375 100.007812,158.509375 Z" id="Path"></path>
        </g>
    </g>
</svg>