<?xml version="1.0" encoding="UTF-8"?>
<svg width="202px" height="202px" viewBox="0 0 100 100" version="1.1" xmlns="http://www.w3.org/2000/svg" xmlns:xlink="http://www.w3.org/1999/xlink">
    <!-- Generator: Sketch 53.1 (72631) - https://sketchapp.com -->
    <title>Combined Shape</title>
    <desc>Created with Sketch.</desc>
    <g id="design" stroke="none" stroke-width="1" fill="none" fill-rule="evenodd">
        <g id="catalogue-v2" transform="translate(-772.000000, -491.000000)" fill="#4A7CB2">
            <g id="icons" transform="translate(120.000000, 468.000000)">
                <g id="Group-2">
                    <g id="basketball" transform="translate(610.000000, 0.000000)">
                        <path d="M141.843263,69.0484684 L141.843263,69.0449528 C140.071695,46.4991328 123.276513,28.1107999 101.490356,23.9076101 C101.391919,23.8812431 101.290259,23.8616144 101.187135,23.8490168 C98.2070804,23.2929665 95.1379638,23 92,23 C83.894204,23 76.233424,24.9409028 69.4553519,28.3785713 C69.2699041,28.4485902 69.0947102,28.5399958 68.9321138,28.6486863 C56.2660018,35.2632831 46.7709588,47.1445379 43.3687393,61.3683526 C43.3353411,61.4770431 43.3080952,61.5857337 43.2896384,61.6955961 C42.4461879,65.3289662 42,69.1135069 42,73 C42,83.9496215 45.5407927,94.086847 51.5351794,102.332095 C51.6403544,102.526625 51.7718963,102.707385 51.9277545,102.869981 C59.5697846,113.096269 71.0300466,120.310568 84.1769166,122.385356 C84.2352169,122.396782 84.2935172,122.406157 84.3518176,122.414067 C86.8455481,122.798439 89.3999227,122.998828 92,122.998828 C103.890337,122.998828 114.822673,118.824056 123.413622,111.867274 C123.611667,111.74833 123.793599,111.599503 123.953852,111.425481 C134.973199,102.246256 142,88.4287857 142,73 C141.998828,71.6702252 141.946094,70.3518762 141.843263,69.0484684 Z M103.279209,29.4314927 C118.619812,33.4061687 130.807802,45.2894743 135.216948,60.4528324 C131.409555,56.71751 127.673061,54.6608855 123.919575,54.2158694 C119.426641,53.6835493 115.622765,55.4275787 112.1391,57.6054914 C109.857185,54.6816861 107.383083,51.8355169 104.762205,49.1244053 C106.001746,48.3348607 107.216971,47.6024445 108.403778,46.9350669 C109.606405,46.2577285 110.033258,44.733424 109.355919,43.5305037 C108.67946,42.3267045 107.153983,41.9010242 105.951356,42.5771908 C104.384571,43.4596058 102.770912,44.4460239 101.122097,45.5253123 C99.0815853,43.6037453 96.9733986,41.7738768 94.8221459,40.0515269 C99.7888063,36.6607331 102.675991,34.189854 103.279209,29.4314927 Z M92,27.9997656 C94.1606277,27.9997656 96.2869782,28.1567957 98.3673331,28.4518129 C98.1019055,31.6000305 96.2925446,33.0431833 90.6072374,36.8643448 C86.3237748,33.8213022 82.2278107,31.5109687 78.5692456,30.0473082 C82.8125718,28.7175335 87.3239623,27.9997656 92,27.9997656 Z M46.9997656,73 C46.9997656,69.6182881 47.3773994,66.3247592 48.088136,63.1536902 C49.3997469,61.3832939 55.6686432,53.58189 65.2175921,52.2588534 C67.0990227,51.9978203 71.0060234,51.3137436 76.0365505,49.6587761 C77.3481613,49.2272365 78.0624136,47.8139663 77.6297021,46.5026484 C77.1981625,45.1910376 75.7860642,44.4779572 74.4735744,44.9094968 C69.8157007,46.4420044 66.2441465,47.0701245 64.5308787,47.3071343 C59.4921485,48.0041015 55.2611269,50.1269365 51.9538285,52.4844376 C56.1722526,44.2845993 62.8372396,37.5431481 70.9749689,33.2239436 C75.3375325,33.4117351 82.4818126,36.9159069 89.8610519,42.5212342 C92.2701151,44.3511027 94.6264443,46.3365364 96.9025008,48.4330044 C88.9443598,54.1918462 80.4163991,61.8373919 72.4752502,70.4101765 C63.8980711,79.6685026 57.04207,88.8694073 53.3307709,95.9899571 C49.3127358,89.2572949 46.9997656,81.394075 46.9997656,73 Z M120.100757,108.119355 C112.394274,114.298017 102.622378,117.999063 92,117.999063 C91.1735416,117.999063 90.3544074,117.975918 89.5393747,117.931387 C91.9988281,114.375653 94.6241006,109.008508 96.8110952,100.039925 C97.1383388,98.698725 96.315396,97.3460989 94.9741955,97.0185624 C93.6318232,96.6924907 92.2803689,97.5142616 91.9531254,98.8554621 C89.4034383,109.311728 86.3328568,114.254365 83.7591464,117.241451 C72.7980992,115.204455 63.2192678,109.183702 56.5911946,100.740115 C59.5481051,93.9356763 66.8939461,83.7940563 76.1431903,73.8091734 C84.1218389,65.1962524 92.6717721,57.5723862 100.554328,51.9647151 C103.185167,54.6415497 105.669815,57.4625237 107.954075,60.3669932 C102.829505,63.7794666 98.7575644,66.928856 95.8771181,78.5628472 C95.5451871,79.9028758 96.3634425,81.2590175 97.703764,81.5909485 C97.905032,81.6401669 98.1074718,81.6641901 98.306689,81.6641901 C99.4281646,81.6641901 100.449153,80.9033562 100.731572,79.7645956 C103.194541,69.8128179 106.151452,67.5651792 110.944383,64.3838564 C111.457075,65.1115851 111.960684,65.8416575 112.444664,66.5752455 C119.557011,77.3567042 126.597581,93.2559941 120.100757,108.119355 Z M127.285174,100.894802 C127.908899,96.436145 127.720229,91.7431153 126.71301,86.854091 C125.174936,79.3925282 121.778283,71.6438583 116.618265,63.8219467 C116.13194,63.086015 115.628331,62.3524269 115.11564,61.6223545 C120.723311,58.106757 126.913399,56.2950524 136.91088,70.2089085 C136.966836,71.1323388 136.99877,72.0628003 136.99877,73 C136.99877,83.5274568 133.364228,93.2214241 127.285174,100.894802 Z M114.263107,43.8463215 C113.26292,43.8463215 112.319861,43.2433965 111.934317,42.2558066 C111.431879,40.9705627 112.065859,39.5206717 113.352275,39.0170624 C113.767701,38.8556378 114.179612,38.7000727 114.580097,38.5579839 C115.879989,38.0956828 117.310544,38.7733143 117.772846,40.0743783 C118.23749,41.3757353 117.557808,42.8051187 116.256744,43.2685917 C115.905184,43.3931024 115.54132,43.5293318 115.172768,43.6734713 C114.873063,43.7903649 114.565156,43.8463215 114.263107,43.8463215 Z M81.8958797,47.2110413 C80.9428598,47.2110413 80.0317341,46.6617292 79.6151358,45.7356622 C79.0488316,44.4770783 79.6107413,42.9973047 80.8696182,42.4307076 C81.2504746,42.2590292 81.631624,42.0817845 82.0139452,41.9010242 C83.2625683,41.309232 84.7523027,41.8412591 85.344095,43.0898821 C85.9347154,44.3373333 85.4023953,45.8285326 84.1549441,46.41886 C83.7430333,46.6145616 83.3311224,46.8058687 82.9203834,46.9901446 C82.5872806,47.1398505 82.2392364,47.2110413 81.8958797,47.2110413 Z M97.3123608,83.6487449 C98.6717252,83.8831181 99.5860735,85.1753932 99.3517004,86.5359294 C99.2702557,87.0084843 99.2072679,87.3931493 99.1422294,87.7983219 C98.944184,89.0273162 97.8821806,89.9027 96.6772096,89.9027 C96.5442028,89.9027 96.411489,89.8924462 96.2764314,89.8707666 C94.9135515,89.6522137 93.9866056,88.3693135 94.2051586,87.0052617 C94.2728338,86.5816322 94.3390442,86.181147 94.4237115,85.6880845 C94.6583777,84.3272553 95.9503598,83.4152507 97.3123608,83.6487449 Z" id="Combined-Shape"></path>
                    </g>
                </g>
            </g>
        </g>
    </g>
</svg>