<?xml version="1.0" encoding="UTF-8"?>
<svg width="200px" height="141px" viewBox="0 0 200 141" version="1.1" xmlns="http://www.w3.org/2000/svg" xmlns:xlink="http://www.w3.org/1999/xlink">
    <!-- Generator: Sketch 53.2 (72643) - https://sketchapp.com -->
    <title>005-scoreboard</title>
    <desc>Created with Sketch.</desc>
    <g id="Page-1" stroke="none" stroke-width="1" fill="none" fill-rule="evenodd">
        <g id="005-scoreboard" fill="#4A7CB2" fill-rule="nonzero">
            <path d="M100,85.9375 C102.156067,85.9375 103.90625,84.1873168 103.90625,82.03125 C103.90625,79.8751832 102.156067,78.125 100,78.125 C97.8439332,78.125 96.09375,79.8751832 96.09375,82.03125 C96.09375,84.1873168 97.8439332,85.9375 100,85.9375 Z" id="Path"></path>
            <path d="M100,109.375 C102.156067,109.375 103.90625,107.624817 103.90625,105.46875 C103.90625,103.312683 102.156067,101.5625 100,101.5625 C97.8439332,101.5625 96.09375,103.312683 96.09375,105.46875 C96.09375,107.624817 97.8439332,109.375 100,109.375 Z" id="Path"></path>
            <path d="M41.40625,50.78125 C41.40625,48.6251832 39.6560668,46.875 37.5,46.875 C35.3439332,46.875 33.59375,48.6251832 33.59375,50.78125 C33.59375,52.9373168 35.3439332,54.6875 37.5,54.6875 C39.6560668,54.6875 41.40625,52.9373168 41.40625,50.78125 Z" id="Path"></path>
            <path d="M11.71875,140.625 L188.28125,140.625 C194.743347,140.625 200,135.368347 200,128.90625 L200,11.71875 C200,5.25665273 194.743347,0 188.28125,0 L11.71875,0 C5.25665273,0 0,5.25665273 0,11.71875 L0,128.90625 C0,135.368347 5.25665273,140.625 11.71875,140.625 Z M11.71875,7.8125 L188.28125,7.8125 C190.435791,7.8125 192.1875,9.56420898 192.1875,11.71875 L192.1875,46.875 L53.125,46.875 C50.967407,46.875 49.21875,48.623657 49.21875,50.78125 C49.21875,52.938843 50.967407,54.6875 53.125,54.6875 L192.1875,54.6875 L192.1875,128.90625 C192.1875,131.060791 190.435791,132.8125 188.28125,132.8125 L11.71875,132.8125 C9.56420898,132.8125 7.8125,131.060791 7.8125,128.90625 L7.8125,54.6875 L21.875,54.6875 C24.032593,54.6875 25.78125,52.938843 25.78125,50.78125 C25.78125,48.623657 24.032593,46.875 21.875,46.875 L7.8125,46.875 L7.8125,11.71875 C7.8125,9.56420898 9.56420898,7.8125 11.71875,7.8125 Z" id="Shape"></path>
            <path d="M37.5,39.0625 L68.75,39.0625 C75.2258301,39.0625 80.46875,33.8180543 80.46875,27.34375 C80.46875,20.8816527 75.2120973,15.625 68.75,15.625 L37.5,15.625 C31.0241699,15.625 25.78125,20.8694457 25.78125,27.34375 C25.78125,33.8058473 31.0379027,39.0625 37.5,39.0625 Z M72.65625,27.34375 C72.65625,29.4998168 70.907593,31.25 68.75,31.25 L57.03125,31.25 L57.03125,23.4375 L68.75,23.4375 C70.904541,23.4375 72.65625,25.189209 72.65625,27.34375 Z M37.5,23.4375 L49.21875,23.4375 L49.21875,31.25 L37.5,31.25 C35.345459,31.25 33.59375,29.498291 33.59375,27.34375 C33.59375,25.1876832 35.342407,23.4375 37.5,23.4375 Z" id="Shape"></path>
            <path d="M131.25,39.0625 L162.5,39.0625 C168.974304,39.0625 174.21875,33.8180543 174.21875,27.34375 C174.21875,20.8816527 168.962097,15.625 162.5,15.625 L131.25,15.625 C124.775696,15.625 119.53125,20.8694457 119.53125,27.34375 C119.53125,33.8058473 124.787903,39.0625 131.25,39.0625 Z M166.40625,27.34375 C166.40625,29.501343 164.656067,31.25 162.5,31.25 L150.78125,31.25 L150.78125,23.4375 L162.5,23.4375 C164.654541,23.4375 166.40625,25.189209 166.40625,27.34375 Z M131.25,23.4375 L142.96875,23.4375 L142.96875,31.25 L131.25,31.25 C129.095459,31.25 127.34375,29.498291 127.34375,27.34375 C127.34375,25.186157 129.093933,23.4375 131.25,23.4375 Z" id="Shape"></path>
            <path d="M57.03125,78.125 C54.873657,78.125 53.125,79.873657 53.125,82.03125 L49.21875,82.03125 C47.061157,82.03125 45.3125,83.779907 45.3125,85.9375 C45.3125,88.095093 47.061157,89.84375 49.21875,89.84375 L53.125,89.84375 L53.125,105.46875 C53.125,107.626343 54.873657,109.375 57.03125,109.375 C59.188843,109.375 60.9375,107.626343 60.9375,105.46875 L60.9375,82.03125 C60.9375,79.873657 59.188843,78.125 57.03125,78.125 Z" id="Path"></path>
            <path d="M25.78125,66.40625 L25.78125,121.09375 C25.78125,123.251343 27.529907,125 29.6875,125 L84.375,125 C86.532593,125 88.28125,123.251343 88.28125,121.09375 L88.28125,66.40625 C88.28125,64.248657 86.532593,62.5 84.375,62.5 L29.6875,62.5 C27.529907,62.5 25.78125,64.248657 25.78125,66.40625 Z M33.59375,70.3125 L80.46875,70.3125 L80.46875,117.1875 L33.59375,117.1875 L33.59375,70.3125 Z" id="Shape"></path>
            <path d="M115.625,125 L170.3125,125 C172.470093,125 174.21875,123.251343 174.21875,121.09375 L174.21875,66.40625 C174.21875,64.248657 172.470093,62.5 170.3125,62.5 L115.625,62.5 C113.467407,62.5 111.71875,64.248657 111.71875,66.40625 L111.71875,121.09375 C111.71875,123.251343 113.467407,125 115.625,125 Z M119.53125,70.3125 L166.40625,70.3125 L166.40625,117.1875 L119.53125,117.1875 L119.53125,70.3125 Z" id="Shape"></path>
            <path d="M142.96875,78.125 C136.506653,78.125 131.25,83.3816527 131.25,89.84375 L131.25,97.65625 C131.25,104.118347 136.506653,109.375 142.96875,109.375 C149.430847,109.375 154.6875,104.118347 154.6875,97.65625 L154.6875,89.84375 C154.6875,83.3694457 149.443054,78.125 142.96875,78.125 Z M146.875,97.65625 C146.875,99.810791 145.123291,101.5625 142.96875,101.5625 C140.814209,101.5625 139.0625,99.810791 139.0625,97.65625 L139.0625,89.84375 C139.0625,87.689209 140.814209,85.9375 142.96875,85.9375 C145.124817,85.9375 146.875,87.6876832 146.875,89.84375 L146.875,97.65625 Z" id="Shape"></path>
        </g>
    </g>
</svg>