<?xml version="1.0" encoding="UTF-8"?>
<svg width="202px" height="108px" viewBox="0 0 202 108" version="1.1" xmlns="http://www.w3.org/2000/svg" xmlns:xlink="http://www.w3.org/1999/xlink">
    <!-- Generator: Sketch 53.2 (72643) - https://sketchapp.com -->
    <title>category-wall-pads</title>
    <desc>Created with Sketch.</desc>
    <g id="Page-1" stroke="none" stroke-width="1" fill="none" fill-rule="evenodd">
        <g id="category-wall-pads" transform="translate(1.000000, 1.000000)" fill="#4A7CB2" fill-rule="nonzero" stroke="#4A7CB2" stroke-width="2">
            <path d="M3.6939314,3.6939314 L3.6939314,101.846966 L49.0765172,101.846966 L49.0765172,3.6939314 L3.6939314,3.6939314 Z M0,0 L52.7704485,0 L52.7704485,105.540897 L0,105.540897 L0,0 Z" id="Rectangle"></path>
            <path d="M52.7704485,3.6939314 L52.7704485,101.846966 L98.1530343,101.846966 L98.1530343,3.6939314 L52.7704485,3.6939314 Z M49.0765172,0 L101.846966,0 L101.846966,105.540897 L49.0765172,105.540897 L49.0765172,0 Z" id="Rectangle-Copy"></path>
            <path d="M101.846966,3.6939314 L101.846966,101.846966 L147.229551,101.846966 L147.229551,3.6939314 L101.846966,3.6939314 Z M98.1530343,0 L150.923483,0 L150.923483,105.540897 L98.1530343,105.540897 L98.1530343,0 Z" id="Rectangle-Copy-2"></path>
            <path d="M150.923483,3.6939314 L150.923483,101.846966 L196.306069,101.846966 L196.306069,3.6939314 L150.923483,3.6939314 Z M147.229551,0 L200,0 L200,105.540897 L147.229551,105.540897 L147.229551,0 Z" id="Rectangle-Copy-3"></path>
        </g>
    </g>
</svg>