<?xml version="1.0" encoding="UTF-8"?>
<svg width="190px" height="200px" viewBox="0 0 190 200" version="1.1" xmlns="http://www.w3.org/2000/svg" xmlns:xlink="http://www.w3.org/1999/xlink">
    <!-- Generator: Sketch 53.2 (72643) - https://sketchapp.com -->
    <title>001-maple-leaf</title>
    <desc>Created with Sketch.</desc>
    <g id="Page-1" stroke="none" stroke-width="1" fill="none" fill-rule="evenodd">
        <g id="Artboard" transform="translate(-118.000000, -169.000000)" fill="#4A7CB2" fill-rule="nonzero">
            <g id="001-maple-leaf" transform="translate(118.000000, 169.000000)">
                <path d="M188.254688,105.966406 L176.424609,97.0953125 L185.864453,75.0664062 C186.398828,73.8207031 186.167578,72.3800781 185.273438,71.3640625 C184.375781,70.3464844 182.970703,69.9402344 181.675391,70.3105469 L160.160156,76.4578125 L154.319531,61.8539062 C153.880859,60.7589844 152.921484,59.9574219 151.766797,59.7207031 C150.610156,59.4910156 149.414453,59.8441406 148.580078,60.6765625 L125.521484,83.7351562 L136.942187,32.3394531 C137.228516,31.0542969 136.770703,29.7179687 135.756641,28.8769531 C134.744141,28.0355469 133.344531,27.8351562 132.134766,28.3542969 L110.984766,37.4171875 L98.2191406,2.309375 C97.7144531,0.9234375 96.396875,0 94.921875,0 C93.446875,0 92.1292969,0.9234375 91.6238281,2.309375 L78.8582031,37.4171875 L57.7082031,28.3542969 C56.496875,27.8351563 55.1007812,28.0355469 54.0863281,28.8769531 C53.071875,29.7183594 52.6144531,31.0542969 52.9007812,32.3394531 L64.3214844,83.7351563 L41.2628906,60.6765625 C40.4300781,59.84375 39.2378906,59.4910156 38.0761719,59.7207031 C36.9214844,59.9570312 35.9621094,60.7589844 35.5234375,61.8539063 L29.6828125,76.4578125 L8.16796875,70.3101563 C6.86601563,69.9402344 5.46796875,70.3460938 4.56992188,71.3636719 C3.67578125,72.3796875 3.44414063,73.8203125 3.97890625,75.0660156 L13.41875,97.0949219 L1.58867188,105.966016 C0.73359375,106.606641 0.21796875,107.600391 0.187109375,108.669531 C0.15625,109.738672 0.612109375,110.759766 1.42734375,111.451953 L45.4613281,148.711719 L42.3585937,164.223437 C42.1324219,165.354297 42.475,166.526172 43.2785156,167.351953 C44.0800781,168.18125 45.0140625,168.551172 46.1566406,168.373047 L83.95625,162.0375 L83.95625,189.453125 C83.95625,195.267969 88.678125,200 94.4824219,200 C100.287109,200 105.008594,195.267969 105.008594,189.453125 L105.008594,162.0375 L143.246875,168.373047 C144.386328,168.551172 145.652344,168.18125 146.453906,167.351953 C147.257422,166.526172 147.655078,165.354297 147.428906,164.223438 L144.353516,148.711719 L188.401172,111.451953 C189.216797,110.759766 189.685937,109.738672 189.655078,108.669531 C189.625391,107.600781 189.109766,106.607031 188.254688,105.966406 Z M138.26875,144.689453 C137.29375,145.515234 136.844922,146.803516 137.095313,148.057813 L139.607031,160.616016 L102.516797,154.434766 C101.499219,154.263281 100.239844,154.551172 99.4519531,155.219531 C98.665625,155.884375 97.9921875,156.864453 97.9921875,157.895703 L97.9921875,189.453125 C97.9921875,191.399609 96.4175781,192.982422 94.4835937,192.982422 C92.5492187,192.982422 90.975,191.399609 90.975,189.453125 L90.975,157.894922 C90.975,156.863672 90.7402344,155.883594 89.9539062,155.21875 C89.3148437,154.677344 88.6195312,154.385938 87.7953125,154.385938 C87.6035156,154.385938 87.4644531,154.403125 87.2726562,154.433984 L50.2097656,160.615234 L52.7351562,148.057031 C52.9851562,146.802734 52.5433594,145.514453 51.5683594,144.688672 L9.31914063,108.937109 L19.8332031,101.052734 C21.1265625,100.083203 21.5902344,98.3527344 20.9527344,96.865625 L13.334375,79.0855469 L30.7996094,84.0746094 C32.5453125,84.578125 34.3546875,83.6753906 35.0226562,82.0050781 L40.0628906,69.4007812 L67.8792969,97.21875 C68.9824219,98.3222656 70.6804687,98.5652344 72.0476562,97.8148438 C73.4164062,97.0644531 74.1242187,95.4984375 73.7847656,93.9773438 L61.2359375,37.4996094 L79.5042969,45.3292969 C80.3933594,45.7113281 81.3957031,45.7128906 82.2816406,45.3242187 C83.165625,44.9421875 83.8542969,44.2105469 84.1851562,43.3042969 L94.921875,13.7761719 L105.658984,43.3039063 C105.989844,44.2101563 106.678516,44.9417969 107.5625,45.3238281 C108.45,45.709375 109.452344,45.7074219 110.339844,45.3289063 L128.608203,37.4992188 L116.058594,93.9765625 C115.719531,95.4980469 116.426953,97.0636719 117.795703,97.8140625 C119.159375,98.5644531 120.8625,98.3210938 121.964062,97.2179688 L149.780469,69.4 L154.820703,82.0042969 C155.489063,83.6746094 157.299609,84.5742188 159.04375,84.0738281 L176.508594,79.0847656 L168.889844,96.8648438 C168.252734,98.3519531 168.715234,100.082422 170.008594,101.051953 L180.521094,108.936328 L138.26875,144.689453 Z" id="Shape"></path>
            </g>
        </g>
    </g>
</svg>