<?xml version="1.0" encoding="UTF-8"?>
<svg width="132px" height="200px" viewBox="0 0 132 200" version="1.1" xmlns="http://www.w3.org/2000/svg" xmlns:xlink="http://www.w3.org/1999/xlink">
    <!-- Generator: Sketch 53.2 (72643) - https://sketchapp.com -->
    <title>004-golf</title>
    <desc>Created with Sketch.</desc>
    <g id="Page-1" stroke="none" stroke-width="1" fill="none" fill-rule="evenodd">
        <g id="004-golf" fill="#4A7CB2" fill-rule="nonzero">
            <path d="M91.2402344,36.5832519 L85.3808594,36.5832519 L85.3808594,30.7238769 L91.2402344,30.7238769 L91.2402344,36.5832519 Z M81.4746094,36.5832519 L75.6152344,36.5832519 L75.6152344,30.7238769 L81.4746094,30.7238769 L81.4746094,36.5832519 Z" id="Shape"></path>
            <path d="M90.2539062,170.573731 C84.6313475,168.127441 77.1435547,166.427002 68.9440919,165.709228 L68.9440919,60.3747559 L132.06665,33.6535644 L68.9440919,6.92993156 L68.9440919,0 L50.9179688,0 L50.9179688,134.935303 L56.7773438,134.935303 L56.7773438,5.859375 L63.0847169,5.859375 L63.0847169,194.090576 C60.9863281,194.155273 58.8757325,194.155273 56.7773438,194.090576 L56.7773438,186.345215 L50.9179688,186.345215 L50.9179688,193.724365 C47.2607422,193.38501 43.7817381,192.843018 40.5456544,192.102051 L39.23584,197.813721 C42.8845216,198.649903 46.8041994,199.248047 50.9179688,199.605713 L50.9179688,199.650879 C53.5510253,199.807129 54.1210938,199.84375 55.1757813,199.892578 C58.3398438,200.0354 61.5185547,200.0354 64.6850588,199.892578 C64.9414063,199.892578 67.9528809,199.708252 68.9440919,199.648438 L68.9440919,199.605713 C85.2526856,198.150635 101.323242,192.510986 101.323242,182.658691 C101.323242,179.34082 99.4030763,174.550781 90.2539062,170.573731 L90.2539062,170.573731 Z M117.036133,33.6535644 L68.9440919,54.0112306 L68.9440919,13.2934569 L117.036133,33.6535644 Z M68.9440919,193.731689 L68.9440919,171.586914 C86.2683106,173.173828 95.4638672,178.876953 95.4638672,182.658691 C95.4638672,186.420898 86.0705566,192.155762 68.9440919,193.731689 Z" id="Shape"></path>
            <path d="M56.7773438,160.638428 C56.7773438,144.991455 44.0490722,132.263184 28.4020997,132.263184 C12.7563475,132.263184 0.0256346875,144.991455 0.0256346875,160.638428 C0.0256346875,176.286621 12.7551269,189.014892 28.4020997,189.014892 C44.0490722,189.014892 56.7773438,176.286621 56.7773438,160.638428 L56.7773438,160.638428 Z M28.4020997,183.155517 C15.9863281,183.155517 5.88500969,173.05542 5.88500969,160.638428 C5.88500969,148.223877 15.9863281,138.122559 28.4020997,138.122559 C40.8190919,138.122559 50.9179688,148.223877 50.9179688,160.638428 C50.9179688,173.054199 40.8190919,183.155517 28.4020997,183.155517 Z" id="Shape"></path>
            <path d="M28.4020997,143.981934 L28.4020997,149.841309 C34.3566894,149.841309 39.1992188,154.686279 39.1992188,160.639648 L45.0585938,160.639648 C45.0585938,151.453857 37.58667,143.981934 28.4020997,143.981934 Z" id="Path"></path>
        </g>
    </g>
</svg>