<?xml version="1.0" encoding="UTF-8"?>
<svg width="195px" height="196px" viewBox="0 0 195 196" version="1.1" xmlns="http://www.w3.org/2000/svg" xmlns:xlink="http://www.w3.org/1999/xlink">
    <!-- Generator: Sketch 53.2 (72643) - https://sketchapp.com -->
    <title>047-coffee</title>
    <desc>Created with Sketch.</desc>
    <g id="Page-1" stroke="none" stroke-width="1" fill="none" fill-rule="evenodd">
        <g id="047-coffee" transform="translate(0.000000, -2.000000)" fill="#4A7CB2" fill-rule="nonzero">
            <path d="M190.952632,173.65 L141.542105,173.65 C145.736951,169.67476 148.293839,164.274694 148.710526,158.510526 C166.199843,156.864468 179.571931,142.193032 179.593735,124.626439 C179.615539,107.059845 166.279913,92.3552588 148.794737,90.6657895 L148.794737,80.5026316 C148.794737,78.6859054 147.321989,77.2131579 145.505263,77.2131579 L49.2315789,77.2131579 C47.4148528,77.2131579 45.9421053,78.6859054 45.9421053,80.5026316 L45.9421053,156.818421 C45.9436231,163.185749 48.5667765,169.271541 53.1947368,173.644737 L3.78157895,173.644737 C1.9648528,173.644737 0.492105263,175.117484 0.492105263,176.934211 C0.505159785,188.333053 9.74326148,197.569977 21.1421053,197.581579 L38.4868421,197.581579 C40.3035683,197.581579 41.7763158,196.108831 41.7763158,194.292105 C41.7763158,192.475379 40.3035683,191.002632 38.4868421,191.002632 L21.1421053,191.002632 C14.6375281,190.994555 8.98323609,186.536363 7.45789474,180.213158 L187.273684,180.213158 C185.748343,186.536363 180.094051,190.994555 173.589474,191.002632 L53.6184211,191.002632 C51.8016949,191.002632 50.3289474,192.475379 50.3289474,194.292105 C50.3289474,196.108831 51.8016949,197.581579 53.6184211,197.581579 L173.594737,197.581579 C184.993581,197.569977 194.231682,188.333053 194.244737,176.934211 C194.241832,175.118512 192.768332,173.648545 190.952632,173.65 L190.952632,173.65 Z M69.1842105,173.489474 C59.9862113,173.477875 52.5326516,166.024315 52.5210526,156.826316 L52.5210526,83.7921053 L142.215789,83.7921053 L142.215789,105.921053 C142.215789,107.737779 143.688537,109.210526 145.505263,109.210526 C147.321989,109.210526 148.794737,107.737779 148.794737,105.921053 L148.794737,97.2947368 C162.613392,98.948448 173.015468,110.669587 173.015468,124.586842 C173.015468,138.504098 162.613392,150.225236 148.794737,151.878947 L148.794737,120.394737 C148.794737,118.578011 147.321989,117.105263 145.505263,117.105263 C143.688537,117.105263 142.215789,118.578011 142.215789,120.394737 L142.215789,156.826316 C142.20419,166.024315 134.750631,173.477875 125.552632,173.489474 C125.283584,173.509908 125.018265,173.564741 124.763158,173.652632 L69.9868421,173.652632 C69.7275155,173.563633 69.4577028,173.508786 69.1842105,173.489474 Z" id="Shape"></path>
            <path d="M71.5789474,44.9526316 C70.9913159,48.1287979 69.1844927,50.9490667 66.5447368,52.8105263 C65.5242769,53.4247615 64.915562,54.542637 64.9533133,55.7330983 C64.9910645,56.9235597 65.6693842,58.0006213 66.7267113,58.5489668 C67.7840384,59.0973124 69.0551868,59.0312738 70.05,58.3763158 C74.3058781,55.4949626 77.2063051,51.0060935 78.0842105,45.9421053 C78.9473684,39.8710526 76.4842105,33.5236842 70.7578947,27.0710526 C67.5631579,23.4736842 66.4842105,20.1210526 67.4578947,16.8263158 C67.7911859,15.6981087 67.4972683,14.4777936 66.6868579,13.6250514 C65.8764475,12.7723092 64.6726648,12.4166917 63.5289632,12.6921566 C62.3852615,12.9676215 61.4753965,13.8323192 61.1421053,14.9605263 C60.0105263,18.7921053 59.9052632,24.7605263 65.8342105,31.4394737 C70.1842105,36.3552632 72.1052632,40.9 71.5789474,44.9526316 Z" id="Path"></path>
            <path d="M71.8421053,9.64210526 C72.514281,9.6418301 73.1701596,9.43514566 73.7210526,9.05 C74.1526316,8.75 74.4394737,8.57368421 74.4947368,8.54473684 C76.0606845,7.62926652 76.590025,5.61893766 75.6779877,4.05098808 C74.7659504,2.4830385 72.7567861,1.94929482 71.1868421,2.85789474 C71.1868421,2.85789474 70.7105263,3.12105263 69.9578947,3.64736842 C68.7796888,4.46976091 68.2715766,5.96170364 68.7029266,7.33226402 C69.1342765,8.7028244 70.4052691,9.63483787 71.8421053,9.63421053 L71.8421053,9.64210526 Z" id="Path"></path>
            <path d="M99.5578947,44.9526316 C98.9702633,48.1287979 97.1634401,50.9490667 94.5236842,52.8105263 C93.5032243,53.4247615 92.8945093,54.542637 92.9322606,55.7330983 C92.9700119,56.9235597 93.6483316,58.0006213 94.7056587,58.5489668 C95.7629857,59.0973124 97.0341342,59.0312738 98.0289474,58.3763158 C102.280252,55.4935399 105.176621,51.0060208 106.052632,45.9447368 C106.915789,39.8736842 104.452632,33.5263158 98.7263158,27.0736842 C96.2117629,24.7199977 94.9060656,21.3492065 95.1789474,17.9157895 C96.0447368,12.4131579 102.328947,8.62631579 102.465789,8.54473684 C104.031737,7.62926652 104.561078,5.61893766 103.64904,4.05098808 C102.737003,2.4830385 100.727839,1.94929482 99.1578947,2.85789474 C98.7868421,3.07105263 90.0736842,8.21842105 88.6868421,16.8473684 C88.0286191,22.2445252 89.9206559,27.640478 93.8052632,31.4447368 C98.1763158,36.3552632 100.105263,40.9 99.5578947,44.9526316 Z" id="Path"></path>
            <path d="M127.547368,44.9526316 C126.961331,48.1294277 125.154152,50.9502517 122.513158,52.8105263 C121.492698,53.4247615 120.883983,54.542637 120.921734,55.7330983 C120.959486,56.9235597 121.637805,58.0006213 122.695132,58.5489668 C123.752459,59.0973124 125.023608,59.0312738 126.018421,58.3763158 C130.274965,55.4956138 133.175593,51.0064325 134.052632,45.9421053 C134.915789,39.8710526 132.452632,33.5236842 126.726316,27.0710526 C124.211763,24.7173661 122.906066,21.3465749 123.178947,17.9131579 C124.052632,12.3868421 130.405263,8.57631579 130.468421,8.53947368 C132.003601,7.609776 132.510211,5.62112514 131.606961,4.07023652 C130.703712,2.51934789 128.724037,1.97872816 127.157895,2.85526316 C126.784211,3.07105263 118.073684,8.21578947 116.686842,16.8447368 C116.031505,22.2415805 117.923105,27.6362888 121.805263,31.4421053 C126.163158,36.3552632 128.097368,40.9 127.547368,44.9526316 Z" id="Path"></path>
        </g>
    </g>
</svg>