<?xml version="1.0" encoding="UTF-8"?>
<svg width="200px" height="200px" viewBox="0 0 200 200" version="1.1" xmlns="http://www.w3.org/2000/svg" xmlns:xlink="http://www.w3.org/1999/xlink">
    <!-- Generator: Sketch 53.2 (72643) - https://sketchapp.com -->
    <title>046-darts</title>
    <desc>Created with Sketch.</desc>
    <g id="Page-1" stroke="none" stroke-width="1" fill="none" fill-rule="evenodd">
        <g id="046-darts" fill="#4A7CB2" fill-rule="nonzero">
            <path d="M185.676575,48.4024047 C184.840393,47.0169066 183.039856,46.57135 181.654358,47.4075316 C180.270386,48.2437133 179.824829,50.0442504 180.661011,51.4297484 C189.479065,66.0430906 194.140625,82.8384398 194.140625,100 C194.140625,125.146484 184.34906,148.786926 166.567993,166.567993 C148.786926,184.34906 125.146484,194.140625 100,194.140625 C74.8535156,194.140625 51.2130738,184.34906 33.432007,166.567993 C15.6509398,148.786926 5.859375,125.146484 5.859375,100 C5.859375,74.8535156 15.6509398,51.2130738 33.432007,33.432007 C51.2130738,15.6509398 74.8535156,5.859375 100,5.859375 C117.170715,5.859375 133.972168,10.5255125 148.590088,19.3511961 C149.975586,20.1889039 151.776123,19.7433473 152.612305,18.3578492 C153.448486,16.9723512 153.004455,15.1718141 151.618957,14.3356324 C136.087036,4.95758047 118.237305,0 100,0 C73.2894898,0 48.1765746,10.4019164 29.2892457,29.2892457 C10.4019164,48.1765746 -2.84217094e-14,73.2894898 -2.84217094e-14,100 C-2.84217094e-14,126.71051 10.4019164,151.823425 29.2892457,170.710754 C48.1765746,189.598084 73.2894898,200 100,200 C126.71051,200 151.823425,189.598084 170.710754,170.710754 C189.598084,151.823425 200,126.71051 200,100 C200,81.7718508 195.046997,63.9282227 185.676575,48.4024047 Z" id="Path"></path>
            <path d="M141.488648,42.6040648 C140.827942,46.4523316 141.397095,49.9633789 143.084717,52.7725219 L119.743347,76.1138914 C118.511963,75.4989625 117.123413,75.1510621 115.655518,75.1510621 C110.588074,75.1510621 106.463623,79.2755125 106.463623,84.3429566 C106.463623,85.810852 106.811523,87.1978758 107.426453,88.4307859 L97.9278563,97.9278563 C96.7834473,99.0722656 96.7834473,100.927734 97.9278563,102.070618 C98.5000609,102.642822 99.2492676,102.929688 100,102.929688 C100.749207,102.929688 101.499939,102.642822 102.070618,102.070618 L111.569214,92.5735473 C112.800598,93.1884766 114.187622,93.5348512 115.655518,93.5348512 C120.724488,93.5348512 124.847412,89.4119262 124.847412,84.3429566 C124.847412,82.8750609 124.501038,81.4880371 123.886109,80.2566527 L147.224426,56.916809 C149.267578,58.1451414 151.683045,58.7814332 154.328918,58.7814332 C155.32074,58.7814332 156.34613,58.6914063 157.394409,58.5113523 C162.025452,57.7178953 166.651916,55.2032469 170.422363,51.4343262 C174.19281,47.6638793 176.705933,43.0374145 177.500916,38.4063719 C178.160095,34.5581055 177.590942,31.0470582 175.904846,28.2379148 L177.22168,26.9195555 C178.366089,25.7766723 178.366089,23.9212035 177.22168,22.7767945 C176.07727,21.6339109 174.223328,21.6339109 173.078918,22.7767945 L171.762085,24.0951539 C168.952942,22.4075316 165.440369,21.8383789 161.592102,22.4990844 C156.962586,23.2940672 152.336121,25.8071898 148.565674,29.5776367 C144.796753,33.3465578 142.282105,37.9730227 141.488648,42.6040648 L141.488648,42.6040648 Z M115.657043,87.677002 C113.818359,87.677002 112.324524,86.1816406 112.324524,84.3444824 C112.324524,82.5057984 113.819885,81.0104371 115.657043,81.0104371 C117.494202,81.0104371 118.989563,82.5057984 118.989563,84.3444824 C118.989563,86.1816406 117.494202,87.677002 115.657043,87.677002 Z M166.279602,47.2900391 C161.720276,51.8493652 155.72052,53.8253785 151.634216,52.5085449 L171.498108,32.6446531 C172.814941,36.7324828 170.838928,42.7307129 166.279602,47.2900391 Z M164.640808,28.0990602 C165.606689,28.0990602 166.516113,28.2363891 167.350769,28.5064695 L147.491455,48.3657836 C146.174621,44.2794801 148.150635,38.2797242 152.709961,33.720398 C156.336975,30.0918578 160.877991,28.0990602 164.640808,28.0990602 L164.640808,28.0990602 Z" id="Shape"></path>
            <path d="M163.981629,67.3461914 C163.244629,65.9057617 161.480713,65.3350828 160.040283,66.0720824 C158.599854,66.8075562 158.029175,68.572998 158.764648,70.0134277 C163.095093,78.4820555 165.481567,87.5717164 165.888977,97.0703125 L140.39917,97.0703125 C140.055847,92.2317504 138.864136,87.5549316 136.836243,83.1329344 C136.161804,81.6619875 134.423828,81.0165406 132.952881,81.6909789 C131.481934,82.3654176 130.836487,84.1049195 131.510925,85.5758668 C133.184814,89.2257691 134.19342,93.0801391 134.524536,97.0703125 L112.52594,97.0703125 C110.908508,97.0703125 109.596252,98.3825684 109.596252,100 C109.596252,105.291748 105.291748,109.594727 100.001526,109.594727 C94.7097777,109.594727 90.4052734,105.290222 90.4052734,100 C90.4052734,94.7097777 94.7097777,90.4052734 100.001526,90.4052734 C101.618957,90.4052734 102.931213,89.0930176 102.931213,87.4755859 L102.931213,65.4754641 C106.921387,65.8065797 110.777283,66.8167113 114.428711,68.4921266 C115.899658,69.1665648 117.637634,68.521118 118.313598,67.0501711 C118.988037,65.5792234 118.34259,63.8397219 116.871643,63.1652832 C112.44812,61.1373902 107.771301,59.9441527 102.931213,59.6008301 L102.931213,34.111023 C112.425232,34.5184328 121.511841,36.9033812 129.975891,41.229248 C131.417847,41.9662477 133.181763,41.3955687 133.918762,39.9536133 C134.654236,38.5131836 134.083557,36.7477418 132.643127,36.012268 C122.476196,30.8166504 111.494446,28.1814574 100,28.1814574 C60.3988648,28.1814574 28.1814574,60.3988648 28.1814574,100 C28.1814574,139.601135 60.3988648,171.818543 100,171.818543 C139.601135,171.818543 171.818543,139.601135 171.818543,100 C171.818543,88.5009766 169.181824,77.5146484 163.981629,67.3461914 L163.981629,67.3461914 Z M148.641968,144.499207 L130.625916,126.481629 C136.178589,120.068359 139.753723,111.898804 140.39917,102.929688 L165.890503,102.929688 C165.188598,118.910217 158.77533,133.433533 148.641968,144.499207 L148.641968,144.499207 Z M34.1094969,102.929688 L37.373352,102.929688 C38.9923094,102.929688 40.3030395,101.617432 40.3030395,100 C40.3030395,98.3825684 38.9923094,97.0703125 37.373352,97.0703125 L34.1094969,97.0703125 C34.8114016,81.0897828 41.2246703,66.5664672 51.358032,55.5007934 L69.3740844,73.5183715 C63.8214109,79.9316406 60.246277,88.1011961 59.6008301,97.0703125 L49.8992922,97.0703125 C48.2803344,97.0703125 46.9696047,98.3825684 46.9696047,100 C46.9696047,101.617432 48.2803344,102.929688 49.8992922,102.929688 L59.6008301,102.929688 C60.2447508,111.898804 63.8214109,120.068359 69.3740844,126.481629 L51.358032,144.499207 C41.2246703,133.433533 34.8114016,118.910217 34.1094969,102.929688 Z M97.0703125,84.8266602 C94.9829102,85.2294922 93.043518,86.0504148 91.3452148,87.2024535 L77.6733398,73.5305785 C83.0062867,69.0246582 89.7155762,66.0980227 97.0703125,65.4800414 L97.0703125,84.8266602 Z M97.0703125,115.17334 L97.0703125,134.519959 C89.7155762,133.901977 83.0062867,130.975342 77.6733398,126.469421 L91.3452148,112.797546 C93.043518,113.949585 94.9829102,114.770508 97.0703125,115.17334 L97.0703125,115.17334 Z M108.654785,112.797546 L122.32666,126.469421 C116.993713,130.975342 110.284424,133.901977 102.929688,134.519959 L102.929688,115.17334 C105.01709,114.770508 106.956482,113.949585 108.654785,112.797546 Z M115.17334,102.929688 L134.519959,102.929688 C133.901977,110.284424 130.975342,116.993713 126.469421,122.32666 L112.797546,108.654785 C113.949585,106.956482 114.770508,105.01709 115.17334,102.929688 Z M87.2024535,91.3452148 C86.0504148,93.043518 85.2294922,94.9829102 84.8266602,97.0703125 L65.4800414,97.0703125 C66.0980227,89.7155762 69.0246582,83.0062867 73.5305785,77.6733398 L87.2024535,91.3452148 Z M84.8266602,102.929688 C85.2294922,105.01709 86.0504148,106.956482 87.2024535,108.654785 L73.5305785,122.32666 C69.0246582,116.992188 66.0980227,110.284424 65.4800414,102.929688 L84.8266602,102.929688 Z M73.5183715,69.3740844 L55.5007934,51.358032 C66.5664672,41.2246703 81.0897828,34.8114016 97.0703125,34.1094969 L97.0703125,59.6008301 C88.1011961,60.246277 79.9316406,63.8214109 73.5183715,69.3740844 Z M73.5183715,130.625916 C79.9316406,136.178589 88.1011961,139.755249 97.0703125,140.39917 L97.0703125,165.890503 C81.0897828,165.188598 66.5664672,158.77533 55.5007934,148.641968 L73.5183715,130.625916 Z M102.929688,140.39917 C111.898804,139.753723 120.068359,136.178589 126.481629,130.62439 L144.499207,148.641968 C133.433533,158.77533 118.910217,165.188598 102.929688,165.890503 L102.929688,140.39917 Z" id="Shape"></path>
            <path d="M102.929688,18.5867309 L102.929688,15.4556273 C102.929688,13.8366699 101.617432,12.5259398 100,12.5259398 C98.3825684,12.5259398 97.0703125,13.8366699 97.0703125,15.4556273 L97.0703125,18.5867309 C97.0703125,20.2041625 98.3825684,21.5164184 100,21.5164184 C101.617432,21.5164184 102.929688,20.2041625 102.929688,18.5867309 Z" id="Path"></path>
            <path d="M97.0703125,181.413269 L97.0703125,184.544373 C97.0703125,186.16333 98.3825684,187.47406 100,187.47406 C101.617432,187.47406 102.929688,186.16333 102.929688,184.544373 L102.929688,181.413269 C102.929688,179.795838 101.617432,178.483582 100,178.483582 C98.3825684,178.483582 97.0703125,179.795838 97.0703125,181.413269 Z" id="Path"></path>
            <path d="M184.545898,102.929688 C186.16333,102.929688 187.475586,101.617432 187.475586,100 C187.475586,98.3825684 186.16333,97.0703125 184.545898,97.0703125 L181.414795,97.0703125 C179.795838,97.0703125 178.485107,98.3825684 178.485107,100 C178.485107,101.617432 179.795838,102.929688 181.414795,102.929688 L184.545898,102.929688 Z" id="Path"></path>
            <path d="M21.5164184,100 C21.5164184,98.3825684 20.2041625,97.0703125 18.5867309,97.0703125 L15.4556273,97.0703125 C13.8366699,97.0703125 12.5259398,98.3825684 12.5259398,100 C12.5259398,101.617432 13.8366699,102.929688 15.4556273,102.929688 L18.5867309,102.929688 C20.2041625,102.929688 21.5164184,101.617432 21.5164184,100 Z" id="Path"></path>
            <path d="M40.3594969,155.496216 L38.1454469,157.710266 C37.0025633,158.854675 37.0025633,160.710144 38.1454469,161.854553 C38.7176516,162.426758 39.4683836,162.712097 40.2175902,162.712097 C40.9667969,162.712097 41.7175293,162.426758 42.289734,161.854553 L44.5037844,159.640503 C45.6466676,158.496094 45.6466676,156.640625 44.5037844,155.496216 C43.359375,154.353332 41.5039062,154.353332 40.3594969,155.496216 L40.3594969,155.496216 Z" id="Path"></path>
            <path d="M155.496216,155.496216 C154.351807,156.640625 154.351807,158.496094 155.496216,159.640503 L157.710266,161.854553 C158.282471,162.426758 159.031677,162.712097 159.78241,162.712097 C160.531616,162.712097 161.282348,162.426758 161.853027,161.854553 C162.997437,160.710144 162.997437,158.854675 161.853027,157.710266 L159.638977,155.496216 C158.496094,154.353332 156.640625,154.353332 155.496216,155.496216 L155.496216,155.496216 Z" id="Path"></path>
            <path d="M42.4316406,45.3613281 C43.1808473,45.3613281 43.9315797,45.0759887 44.5037844,44.5037844 C45.6466676,43.359375 45.6466676,41.5039063 44.5037844,40.3594969 L42.289734,38.1454469 C41.1453246,37.0010375 39.2898559,37.0025633 38.1454469,38.1454469 C37.0025633,39.2898559 37.0025633,41.1453246 38.1454469,42.289734 L40.3594969,44.5037844 C40.9317016,45.0759887 41.682434,45.3613281 42.4316406,45.3613281 Z" id="Path"></path>
            <path d="M68.8446047,27.7145387 C69.2184449,27.7145387 69.5983887,27.6428223 69.9645996,27.4902344 C71.4599609,26.8707273 72.1694945,25.1571656 71.5515137,23.6618043 L70.3521727,20.7702637 C69.7341918,19.2749023 68.0191039,18.5653687 66.5252688,19.1833496 C65.029907,19.8028562 64.3203734,21.5164184 64.9398805,23.0117797 L66.1376953,25.9048461 C66.6046141,27.0324707 67.6956176,27.7145387 68.8446047,27.7145387 Z" id="Path"></path>
            <path d="M130.0354,172.509766 C128.540039,173.129273 127.82898,174.842834 128.448486,176.338196 L129.646301,179.229736 C130.114746,180.358887 131.20575,181.039429 132.354736,181.039429 C132.728577,181.039429 133.10852,180.967713 133.474731,180.81665 C134.970093,180.197144 135.679627,178.483582 135.06012,176.98822 L133.862305,174.095154 C133.242798,172.599793 131.529236,171.890259 130.0354,172.509766 L130.0354,172.509766 Z" id="Path"></path>
            <path d="M174.095154,66.1376953 C172.599793,66.7572023 171.890259,68.4707641 172.509766,69.9645996 C172.976684,71.09375 174.067688,71.7742922 175.218201,71.7742922 C175.592041,71.7742922 175.970459,71.7025758 176.338196,71.5515137 L179.229736,70.3521727 C180.725098,69.732666 181.434631,68.0191039 180.81665,66.5252687 C180.197144,65.029907 178.482055,64.3203734 176.98822,64.9383547 L174.095154,66.1376953 Z" id="Path"></path>
            <path d="M21.8917848,135.284424 C22.265625,135.284424 22.6455687,135.212707 23.0117797,135.06012 L25.9048461,133.862305 C27.3986816,133.242798 28.1097414,131.529236 27.4902344,130.033875 C26.8707273,128.540039 25.1571656,127.830505 23.6618043,128.448486 L20.7687379,129.647827 C19.2749023,130.265808 18.563843,131.97937 19.1833496,133.474731 C19.6517945,134.603882 20.7412719,135.284424 21.8917848,135.284424 L21.8917848,135.284424 Z" id="Path"></path>
            <path d="M131.155395,27.7145387 C132.304382,27.7145387 133.395386,27.0324707 133.862305,25.9048461 L135.06012,23.0117797 C135.679627,21.5164184 134.970093,19.8028562 133.474731,19.1833496 C131.97937,18.5653687 130.265808,19.2749023 129.647827,20.7702637 L128.448486,23.6618043 C127.830505,25.1571656 128.540039,26.8707273 130.0354,27.4902344 C130.401611,27.6412965 130.781555,27.7145387 131.155395,27.7145387 L131.155395,27.7145387 Z" id="Path"></path>
            <path d="M66.1376953,174.095154 L64.9398805,176.98822 C64.3203734,178.483582 65.029907,180.197144 66.5252688,180.81665 C66.8914797,180.967713 67.2714234,181.040955 67.6452637,181.040955 C68.7942504,181.040955 69.8852539,180.358887 70.3536988,179.231262 L71.5515137,176.338196 C72.1710203,174.842834 71.4599609,173.129273 69.9645996,172.509766 C68.4707641,171.890259 66.7572023,172.599793 66.1376953,174.095154 Z" id="Path"></path>
            <path d="M176.338196,128.448486 C174.842834,127.82898 173.129273,128.540039 172.509766,130.033875 C171.890259,131.529236 172.599793,133.242798 174.095154,133.862305 L176.98822,135.06012 C177.354431,135.212707 177.734375,135.284424 178.108215,135.284424 C179.257202,135.284424 180.348205,134.603882 180.81665,133.474731 C181.434631,131.97937 180.725098,130.265808 179.229736,129.647827 L176.338196,128.448486 Z" id="Path"></path>
            <path d="M25.9048461,66.1376953 L23.0117797,64.9383547 C21.5164184,64.3203734 19.8028563,65.029907 19.1833496,66.5252687 C18.5653688,68.0191039 19.2749023,69.732666 20.7702637,70.3521727 L23.6618043,71.5515137 C24.029541,71.7025758 24.4094848,71.7742922 24.7817992,71.7742922 C25.9323121,71.7742922 27.0233156,71.09375 27.4902344,69.9645996 C28.1097414,68.4707641 27.4002074,66.7572023 25.9048461,66.1376953 Z" id="Path"></path>
        </g>
    </g>
</svg>