<?xml version="1.0" encoding="UTF-8"?>
<svg width="202px" height="202px" viewBox="0 0 101 101" version="1.1" xmlns="http://www.w3.org/2000/svg" xmlns:xlink="http://www.w3.org/1999/xlink">
    <!-- Generator: Sketch 53.1 (72631) - https://sketchapp.com -->
    <title>badminton icon</title>
    <desc>Created with Sketch.</desc>
    <g id="design" stroke="none" stroke-width="1" fill="none" fill-rule="evenodd">
        <g id="catalogue-v2" transform="translate(-364.000000, -491.000000)" fill="#4A7CB2">
            <g id="icons" transform="translate(120.000000, 468.000000)">
                <g id="Group-2">
                    <g id="badminton" transform="translate(203.000000, 0.000000)">
                        <g id="badminton-icon" transform="translate(41.500000, 23.157500)">
                            <path d="M92.2195081,8.02455308 C98.0261982,13.8302643 100.728857,22.0185148 99.8311523,31.0807303 C98.9449504,40.029876 94.6390031,48.7763775 87.7070006,55.7086247 C80.774998,62.6406273 72.0292308,66.9465746 63.0791061,67.8327765 C61.9405778,67.9456014 60.8152654,68.0018915 59.7063506,68.0018915 C52.5401323,68.0018915 46.0765613,65.6634052 41.1242568,61.2563805 L26.0230934,76.3575439 C27.3796846,77.7552514 27.3691608,79.9941286 25.9878509,81.3756833 L8.16567337,99.198595 C7.43830748,99.9259609 6.45249664,100.300902 5.4152905,100.238738 C4.52052276,100.18514 3.68400304,99.7739777 3.05012765,99.140347 L1.04620035,97.1364197 C-0.348570248,95.7416491 -0.348570248,93.4729136 1.04522139,92.078143 L2.75937708,90.3649663 C3.35017832,89.7741651 4.30735463,89.7741651 4.8971769,90.3649663 C5.48699918,90.9547886 5.48699918,91.9117202 4.8971769,92.5017872 L3.18302121,94.2156981 C2.96691621,94.4318031 2.96691621,94.7827596 3.18302121,94.9998436 L5.24519652,97.0607952 C5.38567701,97.2024994 5.55112094,97.223547 5.63604555,97.223547 C5.72219387,97.223547 5.88763779,97.2024994 6.02811829,97.0607952 L23.8500511,79.2388624 C24.0661561,79.0227574 24.0661561,78.6710667 23.8500511,78.4549617 L21.7888547,76.3937653 C21.6473953,76.2523059 21.4819514,76.2312583 21.3970267,76.2312583 C21.3108784,76.2312583 21.1464135,76.2523059 21.004954,76.3937653 L9.5854074,87.812333 C8.99558512,88.4031342 8.03865355,88.4031342 7.44883128,87.812333 C6.85876426,87.2225107 6.85876426,86.2655791 7.44883128,85.6757569 L18.8683779,74.2562103 C19.5441037,73.5812186 20.4418083,73.2092145 21.3970267,73.2092145 C22.3348686,73.2092145 23.2151967,73.5687369 23.8865173,74.220723 L38.9867017,59.1205386 C33.8978326,53.4017099 31.5688912,45.6674512 32.4112847,37.1637314 C33.2984655,28.2145856 37.6041681,19.4688184 44.5354364,12.5368159 C46.4042675,10.66774 48.4263055,8.97291877 50.5611685,7.48539189 C51.2562287,6.99958392 52.2168314,7.19855716 52.675718,7.9107492 C53.115515,8.5923488 52.945421,9.50620621 52.2799742,9.96998763 C50.2953813,11.3552134 48.4138238,12.9325597 46.6729915,14.6736367 C40.2334049,21.1132233 36.2370531,29.2060254 35.4188888,37.4620689 C34.6119826,45.6052873 37.0067589,52.9293626 42.1607287,58.0833324 C52.8852151,68.8068398 72.3591397,66.7830886 85.5704244,53.5708249 C98.7834224,40.358806 100.807174,20.8856155 90.0826872,10.1611292 C86.0559877,6.13442967 80.6841997,3.77587479 74.5493138,3.34097264 C68.9070886,2.94033402 63.0247739,4.17455549 57.4520548,6.91539352 C56.72836,7.2712448 55.8517029,6.98049423 55.4691751,6.27026011 L55.465504,6.2634074 C55.0638864,5.51695182 55.353658,4.57910993 56.1145532,4.20514793 C62.1681856,1.22617833 68.5847666,-0.112057436 74.7624819,0.325781589 C81.6345233,0.813302739 87.6707791,3.47582412 92.2195081,8.02455308 Z M87.0339668,13.2098496 C91.2567028,17.4335644 93.2097242,23.5234182 92.5330194,30.3570355 C91.8129957,37.6235969 88.2576645,44.7851652 82.5217041,50.5211256 C76.7845199,56.2583097 69.6229517,59.8136409 62.3573692,60.5334199 C61.4701884,60.6215261 60.5945104,60.6655792 59.7349851,60.6655792 C53.9730823,60.6655792 48.8851921,58.7093762 45.2094491,55.0336331 C40.9857342,50.8099182 39.032468,44.7200644 39.7094176,37.8864472 C40.4301755,30.6189068 43.9857514,23.4583175 49.7217119,17.7223571 C55.457917,11.9851729 62.6192405,8.42984175 69.8860467,7.71006278 C76.718685,7.03311323 82.809273,8.9861347 87.0339668,13.2098496 Z M29.0267817,6.7357547 C33.5057599,6.7357547 37.1501763,10.3801711 37.1501763,14.8589045 C37.1501763,19.3378827 33.5057599,22.9822991 29.0267817,22.9822991 L25.606302,22.9822991 L6.2077571,29.6370118 C6.04818693,29.6915887 5.88176404,29.7182653 5.71729908,29.7182653 C5.40672461,29.7182653 5.09884228,29.6228169 4.83868416,29.4373043 C4.44196137,29.1534064 4.20676668,28.6954988 4.20603246,28.2077329 L4.20603246,1.51105515 C4.20603246,1.02255504 4.44196137,0.564647373 4.83868416,0.281728473 C5.2363859,-0.0021693856 5.7459336,-0.0768149432 6.2077571,0.0820210138 L25.606302,6.7357547 L29.0267817,6.7357547 Z M85.9106124,16.4697801 L84.5168208,17.8638165 L88.8954557,22.2414726 C88.2740621,20.0836041 87.2711195,18.1342537 85.9106124,16.4697801 Z M51.9999922,34.121619 L57.9921949,40.1140664 L63.9843976,34.121619 L57.9921949,28.1294162 L51.9999922,34.121619 Z M55.8556188,42.2516215 L49.8621924,36.2594188 L43.8699896,42.2516215 L49.8621924,48.244069 L55.8556188,42.2516215 Z M60.12975,25.9928401 L66.1221974,31.9850428 L72.1134212,25.9938191 L66.1202395,20.0013716 L60.12975,25.9928401 Z M66.1212185,36.2594188 L60.1290158,42.2516215 L66.1212185,48.24309 L72.1134212,42.2506426 L66.1212185,36.2594188 Z M68.2587736,34.121619 L74.251221,40.1130875 L80.2414658,34.121619 L74.2502421,28.1303952 L68.2587736,34.121619 Z M76.3868182,25.9938191 L82.3782867,31.9850428 L88.3714684,25.9928401 L82.3799999,20.0003927 L76.3868182,25.9938191 Z M83.7720784,14.334183 C82.1095627,12.9746549 80.1621702,11.9746491 78.0062597,11.3532555 L82.3799999,15.7269957 L83.7720784,14.334183 Z M74.2502421,11.8713691 L68.2577946,17.8638165 L74.2502421,23.8560193 L80.2424448,17.8638165 L74.2502421,11.8713691 Z M70.1841395,10.7176669 C67.7254861,10.9614275 65.2771118,11.5674026 62.8994673,12.5062234 L66.1202395,15.7269957 L71.2091086,10.6391055 C70.8696549,10.6581952 70.528488,10.6831586 70.1841395,10.7176669 Z M59.9692008,13.849354 C57.4902341,15.1486761 55.1250713,16.8168208 52.95105,18.8141401 L57.9921949,23.8550403 L63.9836634,17.8647955 L59.9692008,13.849354 Z M50.8134949,20.9507163 C48.8164203,23.1257165 47.1480309,25.4918583 45.8489535,27.970825 L49.8631713,31.9850428 L55.8556188,25.9928401 L50.8134949,20.9507163 Z M42.7170217,38.1847847 C42.6825134,38.5288885 42.6568158,38.8703001 42.6377261,39.2097539 L47.7256162,34.121619 L44.504844,30.9008467 C43.5670021,33.2775123 42.9607823,35.7268656 42.7170217,38.1847847 Z M46.3315798,51.7744367 L47.7246373,50.3816241 L43.3479602,46.003968 C43.9693539,48.1618365 44.9722965,50.1102079 46.3315798,51.7744367 Z M48.4693797,53.9112576 C50.1338532,55.2707857 52.0812457,56.2734836 54.2388694,56.8948773 L49.8621924,52.5182002 L48.4693797,53.9112576 Z M57.9912159,56.3728478 L63.9836634,50.3796661 L57.9921949,44.3884424 L51.9990132,50.3806451 L57.9912159,56.3728478 Z M62.0590317,57.5267947 C64.5169509,57.2830342 66.9653251,56.6760801 69.3419907,55.7382382 L66.1212185,52.517466 L61.0323494,57.6053561 C61.3727821,57.5860217 61.713949,57.560324 62.0590317,57.5267947 Z M72.2722572,54.3948629 C74.7522029,53.0948065 77.1173657,51.4266619 79.2921212,49.4293425 L74.2502421,44.3874634 L68.2577946,50.3796661 L72.2722572,54.3948629 Z M81.429921,47.2917875 C83.4260167,45.1177662 85.0941613,42.7526033 86.3934835,40.2736366 L82.3792657,36.2594188 L76.3877972,42.2496636 L81.429921,47.2917875 Z M89.5263943,30.0596769 C89.5596788,29.7145942 89.5856212,29.3731825 89.6047109,29.0329946 L84.5158418,34.121619 L87.737593,37.3436149 C88.6754349,34.9669493 89.2826337,32.5175961 89.5263943,30.0596769 Z M7.22881043,3.62682841 L7.22881043,13.3476379 L23.8424642,13.3476379 L23.8424642,9.3265674 L7.22881043,3.62682841 Z M23.8434431,20.3924654 L23.8434431,16.3704159 L7.22881043,16.3704159 L7.22881043,26.0922044 L23.8434431,20.3924654 Z M29.0267817,19.9602554 C31.8395731,19.9602554 34.1281325,17.671696 34.1281325,14.8589045 C34.1281325,12.0463578 31.8395731,9.75877741 29.0267817,9.75877741 L26.8652421,9.75877741 L26.8652421,19.9602554 L29.0267817,19.9602554 Z" id="Combined-Shape"></path>
                        </g>
                    </g>
                </g>
            </g>
        </g>
    </g>
</svg>