<?xml version="1.0" encoding="UTF-8"?>
<svg width="200px" height="185px" viewBox="0 0 200 185" version="1.1" xmlns="http://www.w3.org/2000/svg" xmlns:xlink="http://www.w3.org/1999/xlink">
    <!-- Generator: Sketch 54.1 (76490) - https://sketchapp.com -->
    <title>001-karate</title>
    <desc>Created with Sketch.</desc>
    <g id="Page-1" stroke="none" stroke-width="1" fill="none" fill-rule="evenodd">
        <g id="001-karate" transform="translate(0.000000, 0.000000)" fill="#487BB4" fill-rule="nonzero">
            <path d="M193.430799,20.5781676 C185.191033,12.3387914 171.784795,12.3387914 163.545029,20.5781676 L161.331384,22.7918129 C158.340741,25.7824561 156.441326,29.4545809 155.621832,33.3130604 L154.958285,32.6495127 C149.724756,27.4159844 142.109942,25.611306 135.08499,27.939961 L118.42729,33.460039 C117.044834,33.9181287 115.545809,33.5633528 114.5154,32.5329435 L103.069786,21.0877193 C101.54152,19.5594542 99.0635478,19.5594542 97.5352827,21.0877193 L97.1306043,21.4923977 L91.9590643,16.3208577 C92.1766082,13.1586745 91.0826511,9.92241715 88.6705653,7.51072125 L84.5216374,3.36179337 C80.0962963,-1.06315789 72.897076,-1.06315789 68.4717349,3.36179337 L62.0596491,9.77387914 C57.6346979,14.1988304 57.6346979,21.3988304 62.0596491,25.8237817 L66.2089669,29.9730994 C68.4214425,32.1851852 71.3278752,33.2916179 74.2339181,33.2916179 C74.4962963,33.2916179 74.7578947,33.2795322 75.0194932,33.2615984 L80.1910331,38.4331384 L79.8612086,38.762963 C78.3329435,40.2912281 78.3329435,42.7692008 79.8612086,44.2978558 L82.7910331,47.2276803 L36.1204678,21.6335283 C35.6561404,21.3785575 35.1575049,21.2280702 34.6538012,21.1746589 L18.2093567,10.911501 C13.4818713,7.96062378 7.4288499,8.65185185 3.48849903,12.5922027 C0.907212476,15.1734893 -0.336062378,18.7341131 0.0783625731,22.3606238 C0.492787524,25.9871345 2.50604288,29.1758285 5.60272904,31.1087719 L17.8709552,38.7660819 C18.1146199,39.6074074 18.6335283,40.3516569 19.3598441,40.8674464 L34.5567251,51.662768 C36.3185185,52.91423 38.7614035,52.5005848 40.0132554,50.7387914 C41.2647173,48.9769981 40.851462,46.5337232 39.0892788,45.2822612 L27.668616,37.1695906 L34.9306043,29.9076023 L97.2035088,64.0569201 L80.5676413,74.5040936 L60.3306043,60.6031189 C58.5489279,59.3793372 56.1130604,59.8315789 54.8888889,61.6132554 C53.6651072,63.3945419 54.1173489,65.8311891 55.8990253,67.0549708 L73.3461988,79.0397661 L73.2838207,79.0787524 C72.2736842,79.7130604 71.6081871,80.7734893 71.4760234,81.9590643 C71.3438596,83.1446394 71.7598441,84.3255361 72.6050682,85.1668616 L93.1746589,105.631969 L93.1746589,164.016374 L93.1746589,174.969591 C93.1746589,180.364133 97.5633528,184.753216 102.958285,184.753216 L136.196881,184.753216 C138.358285,184.753216 140.110331,183.00117 140.110331,180.839766 L140.110331,179.670175 C140.110331,169.31306 132.020273,160.814425 121.82807,160.150097 L133.590253,107.168811 L136.830799,110.409357 C139.043275,112.621442 141.949708,113.727875 144.85575,113.727875 C147.761793,113.727875 150.668226,112.621442 152.880702,110.409357 L156.239376,107.050682 C156.462768,106.82729 156.673294,106.594542 156.875634,106.355945 L176.981287,86.4120858 C181.352047,82.0764133 183.766472,76.2982456 183.778947,70.1415205 C183.787524,65.9465887 182.677973,61.9247563 180.594932,58.4093567 C184.490058,57.6015595 188.20078,55.694347 191.217544,52.6775828 L193.431189,50.4639376 C201.670175,42.2241715 201.670175,28.817154 193.430799,20.5781676 Z M21.7859649,31.9832359 L9.74658869,24.4690058 C8.68615984,23.8070175 7.99610136,22.7146199 7.8545809,21.4725146 C7.71306043,20.2304094 8.13879142,19.0105263 9.02261209,18.1267057 C9.81325536,17.3360624 10.851462,16.9274854 11.9017544,16.9274854 C12.6448343,16.9274854 13.3937622,17.1321637 14.0647173,17.5508772 L27.7048733,26.0639376 L21.7859649,31.9832359 Z M157.407797,47.245614 C158.393762,49.2050682 159.697856,51.0436647 161.331384,52.677193 C162.05653,53.4023392 162.823392,54.060039 163.621832,54.6576998 L153.157895,56.6518519 L157.407797,47.245614 Z M76.7243665,24.4382066 C75.3512671,25.8116959 73.1165692,25.8116959 71.7434698,24.4382066 L67.594152,20.2888889 C66.2210526,18.9157895 66.2210526,16.6810916 67.594152,15.3079922 L74.0062378,8.89590643 C74.6927875,8.20896686 75.5945419,7.86588694 76.4966862,7.86588694 C77.3988304,7.86588694 78.3001949,8.20896686 78.9871345,8.89590643 L83.1364522,13.0452242 C84.5095517,14.4183236 84.5095517,16.6530214 83.1364522,18.0261209 L76.7243665,24.4382066 Z M82.5282651,29.7017544 L88.4,23.8307992 L91.5555556,26.9863548 L85.6842105,32.8576998 L82.5282651,29.7017544 Z M131.959064,176.925926 L102.957895,176.925926 C101.879142,176.925926 101.00117,176.047953 101.00117,174.969201 L101.00117,167.929435 L116.960234,167.929435 L120.54269,167.929435 C126.071735,167.929435 130.720468,171.77115 131.959064,176.925926 Z M113.820273,160.102924 L101.00078,160.102924 L101.00078,113.418324 L111.705263,124.068616 C112.442885,124.802339 113.437037,125.207797 114.465497,125.207797 C114.612865,125.207797 114.761404,125.19961 114.909552,125.182846 C116.091228,125.047953 117.147758,124.382456 117.780117,123.375049 L124.269396,113.035478 L113.820273,160.102924 Z M121.636257,102.507212 L112.187914,93.0588694 C110.659649,91.5306043 108.181676,91.5306043 106.653411,93.0588694 C105.125146,94.5871345 105.125146,97.0651072 106.653411,98.5937622 L117.368031,109.308382 L113.753996,115.067057 L81.6136452,83.0900585 L104.37193,68.7984405 L128.024172,92.3309942 L121.636257,102.507212 Z M131.759064,85.0054581 L109.304483,62.6647173 L125.166472,59.0959064 C127.274854,58.6214425 128.59961,56.5274854 128.125926,54.4191033 C127.651072,52.3103314 125.557115,50.9859649 123.449123,51.4596491 L102.749708,56.1165692 L88.1621832,41.5290448 L100.302534,29.388694 L108.980507,38.0674464 C112.116179,41.2031189 116.679142,42.2849903 120.888889,40.8892788 L137.546589,35.3688109 C141.74425,33.9773879 146.295906,35.0557505 149.423002,38.1832359 L151.82729,40.5871345 L131.759064,85.0054581 Z M151.044834,101.11423 L149.769201,102.379337 C149.621053,102.526316 149.491228,102.6846 149.37115,102.848343 L147.344639,104.874854 C145.97271,106.247953 143.738012,106.247953 142.364912,104.874464 L136.865107,99.3746589 C136.213645,98.7235867 135.874854,97.8783626 135.841715,97.0230019 L136.235088,95.2510721 C136.396491,94.9426901 136.606238,94.6530214 136.865107,94.394152 L140.223782,91.0354776 C140.910721,90.348538 141.812476,90.0054581 142.71423,90.0054581 C143.105263,90.0054581 143.495127,90.0740741 143.868226,90.2031189 C144.248343,90.5465887 144.677583,90.8035088 145.133333,90.9711501 C145.156335,90.9929825 145.181287,91.0124756 145.204288,91.0354776 L150.704094,96.5352827 C151.369201,97.2003899 151.735673,98.0849903 151.735673,99.025731 C151.735283,99.7883041 151.490838,100.512281 151.044834,101.11423 Z M171.469006,80.8553606 L158.334113,93.8842105 C157.798441,92.8327485 157.097466,91.8588694 156.238986,91.0003899 L152.283041,87.0444444 L158.518129,80.8093567 C160.046394,79.2810916 160.046394,76.8031189 158.518129,75.2744639 C156.989864,73.7461988 154.511891,73.7461988 152.983236,75.2744639 L145.680702,82.5769981 C144.348148,82.2187135 142.963743,82.1033138 141.598441,82.237037 L149.219103,65.3703704 L172.821053,60.8717349 C174.85653,63.51423 175.958674,66.7337232 175.951657,70.1247563 C175.94347,74.1859649 174.351657,77.9961014 171.469006,80.8553606 Z M187.896296,44.9290448 L185.682651,47.1426901 C180.495127,52.3306043 172.053411,52.3306043 166.865887,47.1426901 C161.677973,41.9551657 161.677973,33.5134503 166.865887,28.3259259 L169.079532,26.1122807 C171.673294,23.5185185 175.080702,22.2210526 178.488109,22.2210526 C181.895517,22.2210526 185.302924,23.5181287 187.896686,26.1122807 C193.084211,31.3001949 193.084211,39.7411306 187.896296,44.9290448 Z" id="Shape"></path>
            <path d="M50.5384016,53.3512671 C49.8105263,52.6233918 48.8007797,52.2046784 47.77154,52.2046784 C46.7423002,52.2046784 45.7325536,52.6233918 45.0046784,53.3512671 C44.2768031,54.0791423 43.8580897,55.0888889 43.8580897,56.1181287 C43.8580897,57.1512671 44.2768031,58.1610136 45.0046784,58.8849903 C45.7325536,59.6167641 46.7423002,60.0315789 47.77154,60.0315789 C48.8007797,60.0315789 49.8105263,59.6167641 50.5384016,58.8849903 C51.2662768,58.1610136 51.6849903,57.1512671 51.6849903,56.1181287 C51.6849903,55.088499 51.2662768,54.0791423 50.5384016,53.3512671 Z" id="Path"></path>
            <path d="M101.326316,82.1964912 C100.598441,81.468616 99.588694,81.0499025 98.5594542,81.0499025 C97.5263158,81.0499025 96.5204678,81.468616 95.7925926,82.1964912 C95.0647173,82.9243665 94.6460039,83.9341131 94.6460039,84.9633528 C94.6460039,85.9925926 95.0647173,87.0023392 95.7925926,87.7302144 C96.5204678,88.4580897 97.5263158,88.8768031 98.5594542,88.8768031 C99.588694,88.8768031 100.598441,88.4580897 101.326316,87.7302144 C102.054191,87.0023392 102.472904,85.9925926 102.472904,84.9633528 C102.472904,83.9341131 102.054191,82.9243665 101.326316,82.1964912 Z" id="Path"></path>
            <path d="M55.8389864,79.4744639 L23.8818713,56.9321637 C22.1157895,55.6865497 19.6740741,56.1083821 18.4280702,57.8740741 C17.1820663,59.6401559 17.6038986,62.0818713 19.3699805,63.3278752 L51.3270955,85.8701754 C52.0128655,86.3539961 52.7996101,86.5863548 53.5793372,86.5863548 C54.8081871,86.5863548 56.0187135,86.008577 56.7805068,84.9282651 C58.0269006,83.1617934 57.6054581,80.720078 55.8389864,79.4744639 Z" id="Path"></path>
        </g>
    </g>
</svg>