<?xml version="1.0" encoding="UTF-8"?>
<svg width="200px" height="200px" viewBox="0 0 200 200" version="1.1" xmlns="http://www.w3.org/2000/svg" xmlns:xlink="http://www.w3.org/1999/xlink">
    <!-- Generator: Sketch 53.2 (72643) - https://sketchapp.com -->
    <title>003-park</title>
    <desc>Created with Sketch.</desc>
    <g id="Page-1" stroke="none" stroke-width="1" fill="none" fill-rule="evenodd">
        <g id="Artboard" transform="translate(-669.000000, -85.000000)" fill="#4A7CB2" fill-rule="nonzero">
            <g id="003-park" transform="translate(669.000000, 85.000000)">
                <path d="M72.4175781,193.332031 C71.6914062,192.605469 70.6835938,192.1875 69.6558594,192.1875 C68.6285156,192.1875 67.6207031,192.605469 66.8945313,193.332031 C66.1679688,194.058594 65.7496094,195.066406 65.7496094,196.09375 C65.7496094,197.121094 66.1675781,198.128906 66.8945313,198.855469 C67.6207031,199.582031 68.6285156,200 69.6558594,200 C70.6835938,200 71.6914063,199.582031 72.4175781,198.855469 C73.1441406,198.128906 73.5621094,197.121094 73.5621094,196.09375 C73.5621094,195.066406 73.1445312,194.058594 72.4175781,193.332031 Z" id="Path"></path>
                <path d="M138.641406,162.175781 C136.484375,162.175781 134.735156,163.924609 134.735156,166.082031 C134.735156,173.350781 128.821484,179.264844 121.552734,179.264844 C119.395703,179.264844 117.646484,181.013672 117.646484,183.171094 C117.646484,185.328516 119.395703,187.077344 121.552734,187.077344 C133.129297,187.077344 142.547656,177.658984 142.547656,166.082031 C142.547656,163.924609 140.798437,162.175781 138.641406,162.175781 Z" id="Path"></path>
                <path d="M167.1875,0 C149.094922,0 134.375,14.7195313 134.375,32.8125 L134.375,79.6875 C134.375,96.4578125 147.024219,110.321094 163.28125,112.259375 L163.28125,146.484375 L149.221484,146.484375 C143.069922,137.824609 132.960156,132.163672 121.552734,132.163672 C118.566016,132.163672 115.668359,132.553516 112.907031,133.281641 L99.878125,100 L115.763672,100 C116.68125,100 117.488281,100.585938 117.772266,101.458984 C118.061719,102.349219 117.708594,103.027734 117.472266,103.352734 C117.236328,103.678125 116.7,104.223438 115.763672,104.223438 L111.770703,104.223438 C109.613672,104.223438 107.864453,105.972266 107.864453,108.129688 C107.864453,110.287109 109.613672,112.035938 111.770703,112.035938 L115.763672,112.035938 C118.977734,112.035938 121.904297,110.544531 123.793359,107.944141 C125.682031,105.344141 126.195312,102.099609 125.201953,99.04375 C123.86875,94.9429688 120.076172,92.1875 115.763281,92.1875 L94.1535156,92.1875 C92.8621094,92.1875 91.6550781,92.8253906 90.9269531,93.8917969 C90.1988281,94.9582031 90.0453125,96.315625 90.5160156,97.5175781 L97.8523438,116.257422 L65.3886719,116.257422 L62.4488281,109.532813 L61.3382813,106.702734 C60.7515625,105.207031 59.3089844,104.223438 57.7019531,104.223438 L40.7167969,104.223438 C37.4332031,104.223438 34.3679688,105.842969 32.5183594,108.55625 C30.6683594,111.269531 30.2800781,114.714453 31.4796875,117.771484 C32.98125,121.597266 36.6070313,124.069922 40.7167969,124.069922 L53.6628906,124.069922 L47.3796875,134.952734 C43.2503906,133.160156 38.6984375,132.163672 33.9175781,132.163672 C15.215625,132.164062 0,147.379687 0,166.082031 C0,176.570313 4.78554687,185.960938 12.2875,192.1875 L3.90625,192.1875 C1.74921875,192.1875 0,193.936328 0,196.09375 C0,198.251172 1.74921875,200 3.90625,200 L33.9179688,200 C51.2992187,200 65.6664062,186.857422 67.6097656,169.988281 L82.9074219,169.988281 C84.2253906,169.988281 85.4546875,169.323438 86.1761719,168.220703 C86.8980469,167.117578 87.0144531,165.725 86.4867188,164.517578 L68.8042969,124.070312 L100.910938,124.070312 L105.635547,136.138672 C94.934375,141.85 87.634375,153.128906 87.634375,166.082031 C87.634375,176.570312 92.4199219,185.960937 99.921875,192.1875 L86.0625,192.1875 C83.9054688,192.1875 82.15625,193.936328 82.15625,196.09375 C82.15625,198.251172 83.9054688,200 86.0625,200 L121.552344,200 C140.254688,200 155.470313,184.784375 155.470313,166.082031 C155.470313,161.939844 154.722656,157.969531 153.357422,154.297266 L181.379687,154.297266 C183.536719,154.297266 185.285937,152.548438 185.285937,150.391016 C185.285937,148.233594 183.536719,146.484766 181.379687,146.484766 L171.09375,146.484766 L171.09375,112.259766 C187.350781,110.321484 200,96.4582031 200,79.6878906 L200,32.8125 C200,14.7195313 185.280078,0 167.1875,0 Z M40.7167969,116.257812 C39.8425781,116.257812 39.0714844,115.731641 38.7519531,114.917969 C38.3976562,114.014453 38.7382812,113.301953 38.9730469,112.957813 C39.2078125,112.613672 39.7460938,112.036328 40.7167969,112.036328 L55.0386719,112.036328 L56.6953125,116.257813 L40.7167969,116.257813 L40.7167969,116.257812 Z M33.9179688,192.1875 C19.5230469,192.1875 7.8125,180.476562 7.8125,166.082031 C7.8125,151.6875 19.5230469,139.976562 33.9179688,139.976562 C37.2765625,139.976562 40.4855469,140.621094 43.4375,141.781641 L30.5351563,164.128906 C29.8375,165.3375 29.8375,166.826562 30.5351563,168.035156 C31.2328125,169.24375 32.5226562,169.988281 33.9179688,169.988281 L46.5097656,169.988281 C44.8410156,175.355859 39.8273437,179.264844 33.9179688,179.264844 C31.7609375,179.264844 30.0117188,181.013672 30.0117188,183.171094 C30.0117188,185.328516 31.7609375,187.077344 33.9179688,187.077344 C44.1597656,187.077344 52.7066406,179.704297 54.5433594,169.988281 L59.7304688,169.988281 C57.8394531,182.536328 46.9851563,192.1875 33.9179688,192.1875 Z M40.6835938,162.175781 L50.1980469,145.696875 C55.2171875,149.713281 58.7296875,155.536719 59.7304688,162.175781 L40.6835938,162.175781 Z M76.9363281,162.175781 L67.6097656,162.175781 C66.5128906,152.655469 61.4605469,144.322266 54.1402344,138.868359 L61.3144531,126.442188 L76.9363281,162.175781 Z M121.552734,192.1875 C107.157812,192.1875 95.446875,180.476562 95.446875,166.082031 C95.446875,156.436328 100.709766,148.001953 108.510547,143.482422 L117.915234,167.50625 C118.518359,169.047266 119.992578,169.989453 121.553516,169.989453 C122.026953,169.989453 122.508594,169.902734 122.976562,169.719531 C124.985547,168.932812 125.976562,166.667187 125.189844,164.657812 L115.782422,140.626953 C117.640234,140.205859 119.569531,139.976172 121.552734,139.976172 C135.947656,139.976172 147.658203,151.687109 147.658203,166.081641 C147.658203,180.476172 135.947266,192.1875 121.552734,192.1875 Z M192.1875,79.6875 C192.1875,92.14375 183.029687,102.499219 171.09375,104.380469 L171.09375,88.1367188 L181.502734,77.0238281 C182.977344,75.4492187 182.896484,72.9773437 181.321875,71.5027344 C179.748047,70.028125 177.275781,70.1089844 175.800391,71.6832031 L171.09375,76.7078125 L171.09375,64.140625 L181.502734,53.0277344 C182.977344,51.453125 182.896484,48.98125 181.321875,47.50625 C179.748047,46.0316406 177.275781,46.1125 175.800391,47.6867187 L171.09375,52.7121094 L171.09375,45.8984375 C171.09375,43.7410156 169.344531,41.9921875 167.1875,41.9921875 C165.030469,41.9921875 163.28125,43.7410156 163.28125,45.8984375 L163.28125,63.4875 L159.259766,59.1941406 C157.784766,57.6195312 155.312891,57.5390625 153.738281,59.0136719 C152.163672,60.4882812 152.082812,62.9605469 153.557422,64.5347656 L163.28125,74.9160156 L163.28125,104.380078 C151.345313,102.498828 142.1875,92.1433594 142.1875,79.6871094 L142.1875,32.8125 C142.1875,19.0273438 153.402344,7.8125 167.1875,7.8125 C180.972656,7.8125 192.1875,19.0273438 192.1875,32.8125 L192.1875,79.6875 Z" id="Shape"></path>
                <path d="M196.09375,146.484375 L196.042578,146.484375 C193.885547,146.484375 192.136328,148.233203 192.136328,150.390625 C192.136328,152.548047 193.885547,154.296875 196.042578,154.296875 L196.09375,154.296875 C198.250781,154.296875 200,152.548047 200,150.390625 C200,148.233203 198.250781,146.484375 196.09375,146.484375 Z" id="Path"></path>
                <path d="M93.2941406,54.1667969 L86.8128906,54.1667969 C88.3507812,51.0425781 89.178125,47.5773438 89.178125,44.0359375 C89.178125,31.3855469 78.8863281,21.0941406 66.2363281,21.0941406 C56.8160156,21.0941406 48.5695312,26.8390625 45.0761719,35.1707031 C42.8355469,34.0929688 40.3589844,33.5144531 37.8253906,33.5144531 C28.5996094,33.5140625 21.09375,41.0199219 21.09375,50.2457031 C21.09375,53.9757812 22.2980469,57.5074219 24.5757812,60.459375 C25.315625,61.4175781 26.4574219,61.9792969 27.6683594,61.9792969 L93.2941406,61.9792969 C95.4511719,61.9792969 97.2003906,60.2304687 97.2003906,58.0730469 C97.2003906,55.915625 95.4511719,54.1667969 93.2941406,54.1667969 Z M77.4691406,54.1664062 L29.8117188,54.1664062 C29.2160156,52.95625 28.90625,51.6265625 28.90625,50.2457031 C28.90625,45.3277344 32.9074219,41.3265625 37.8253906,41.3265625 C40.3460938,41.3265625 42.7617188,42.4019531 44.4523438,44.2773438 C45.4761719,45.4128906 47.0675781,45.846875 48.5261719,45.3875 C49.984375,44.9285156 51.0410156,43.6613281 51.2300781,42.1441406 C52.1691406,34.5972656 58.6203125,28.90625 66.2359375,28.90625 C74.578125,28.90625 81.3652344,35.6933594 81.3652344,44.0355469 C81.3652344,47.7816406 79.9601563,51.4003906 77.4691406,54.1664062 Z" id="Shape"></path>
            </g>
        </g>
    </g>
</svg>