<?xml version="1.0" encoding="UTF-8"?>
<svg width="200px" height="147px" viewBox="0 0 200 147" version="1.1" xmlns="http://www.w3.org/2000/svg" xmlns:xlink="http://www.w3.org/1999/xlink">
    <!-- Generator: Sketch 53.2 (72643) - https://sketchapp.com -->
    <title>048-heart</title>
    <desc>Created with Sketch.</desc>
    <g id="Page-1" stroke="none" stroke-width="1" fill="none" fill-rule="evenodd">
        <g id="048-heart" fill="#4A7CB2" fill-rule="nonzero">
            <path d="M196.484561,70.3087886 L179.572447,70.3087886 C186.603325,54.3467933 185.84323,41.4251781 183.182898,32.6840855 C178.622328,17.1021378 163.230404,0.190023753 140.427553,0.190023753 C134.346793,0.190023753 128.266033,1.33016627 121.995249,3.61045131 C111.163895,7.60095012 103.942993,11.9714964 100.712589,14.2517815 C97.4821853,11.9714964 90.4513064,7.60095012 79.4299287,3.61045131 C73.1591449,1.33016627 66.888361,0.190023753 60.9976247,0.190023753 C38.1947743,0.190023753 22.8028504,17.1021378 18.2422803,32.6840855 C15.5819477,41.9952494 14.631829,56.0570071 23.5629454,73.7292162 L3.04038005,73.7292162 C1.33016627,73.7292162 0,75.0593824 0,76.7695962 C0,78.47981 1.33016627,79.8099762 3.04038005,79.8099762 L27.1733967,79.8099762 C28.1235154,81.52019 29.263658,83.2304038 30.5938242,84.9406176 C50.3562945,113.444181 93.3016627,144.418052 101.092637,146.31829 L101.092637,146.508314 C101.092637,146.508314 101.28266,146.508314 101.472684,146.31829 C101.662708,146.31829 101.852732,146.31829 102.042755,146.31829 L102.042755,146.128266 C108.693587,142.897862 149.928741,116.294537 171.591449,84.7505938 C173.68171,81.9002375 175.391924,79.0498812 176.912114,76.1995249 L196.864608,76.1995249 C198.574822,76.1995249 199.904988,74.8693587 199.904988,73.1591449 C199.904988,71.4489311 198.194774,70.3087886 196.484561,70.3087886 Z M166.08076,81.52019 C145.938242,110.973872 108.88361,134.726841 100.902613,139.857482 C92.7315914,134.726841 55.8669834,110.783848 35.5344418,81.52019 C35.1543943,80.9501188 34.7743468,80.3800475 34.3942993,79.8099762 L62.327791,79.8099762 C63.4679335,79.8099762 64.608076,79.239905 65.1781473,78.0997625 L77.9097387,53.0166271 L97.8622328,104.133017 C98.2422803,105.273159 99.5724466,106.033254 100.712589,106.033254 C100.712589,106.033254 100.712589,106.033254 100.902613,106.033254 C102.232779,106.033254 103.372922,105.083135 103.752969,103.752969 L121.235154,43.8954869 L130.546318,74.1092637 C130.926366,75.2494062 131.876485,76.0095012 133.016627,76.1995249 C134.15677,76.3895487 135.296912,75.8194774 136.057007,74.8693587 L143.467933,64.0380048 L149.738717,74.6793349 C150.308789,75.6294537 151.258907,76.1995249 152.39905,76.1995249 L169.501188,76.1995249 C168.361045,78.0997625 167.220903,79.8099762 166.08076,81.52019 Z M172.921615,70.3087886 L154.299287,70.3087886 L146.508314,57.0071259 C145.938242,56.0570071 144.988124,55.4869359 143.847981,55.4869359 C142.707838,55.4869359 141.75772,55.8669834 141.187648,56.8171021 L134.726841,66.3182898 L124.275534,32.304038 C123.895487,30.9738717 122.565321,30.2137767 121.235154,30.023753 C119.904988,30.023753 118.574822,30.9738717 118.194774,32.304038 L100.522565,93.3016627 L81.3301663,44.2755344 C80.9501188,43.1353919 79.8099762,42.3752969 78.6698337,42.3752969 C77.3396675,42.3752969 76.3895487,42.9453682 75.8194774,44.0855107 L60.807601,73.5391924 L30.5938242,73.5391924 C22.9928741,59.6674584 20.9026128,46.3657957 24.3230404,34.3942993 C28.3135392,20.9026128 41.4251781,6.4608076 61.1876485,6.4608076 C66.5083135,6.4608076 72.0190024,7.60095012 77.5296912,9.50118765 C91.4014252,14.631829 98.8123515,20.5225653 99.0023753,20.5225653 C100.142518,21.4726841 101.662708,21.4726841 102.80285,20.5225653 C102.80285,20.5225653 110.213777,14.631829 124.275534,9.50118765 C129.786223,7.41092637 135.296912,6.4608076 140.617577,6.4608076 C160.190024,6.4608076 173.491686,20.9026128 177.482185,34.3942993 C180.712589,45.415677 179.002375,57.5771971 172.921615,70.3087886 Z" id="Shape"></path>
        </g>
    </g>
</svg>