<?xml version="1.0" encoding="UTF-8"?>
<svg width="200px" height="161px" viewBox="0 0 200 161" version="1.1" xmlns="http://www.w3.org/2000/svg" xmlns:xlink="http://www.w3.org/1999/xlink">
    <!-- Generator: Sketch 53.2 (72643) - https://sketchapp.com -->
    <title>025-short</title>
    <desc>Created with Sketch.</desc>
    <g id="Page-1" stroke="none" stroke-width="1" fill="none" fill-rule="evenodd">
        <g id="025-short" fill="#4A7CB2" fill-rule="nonzero">
            <path d="M199.467567,120.359479 L178.175459,28.1023804 L178.175459,3.56695412 C178.175459,1.59903964 176.58164,0.00347995546 174.611985,0.00347995546 L24.9460606,0.00347995546 C22.9781461,0.00347995546 21.3825862,1.59903964 21.3825862,3.56695412 L21.3825862,28.1023804 L0.0922187082,120.359479 C-0.214017372,121.683603 0.257516704,123.065145 1.31020312,123.922954 L7.30094655,128.822731 C29.4665229,147.012458 56.651935,158.014338 85.2293292,160.359827 C86.7987889,160.523385 88.2812499,159.608157 88.8363029,158.132656 L99.7790227,130.754106 L110.723483,158.118736 C111.264616,159.472439 112.574819,160.359827 114.03292,160.359827 C114.132099,160.365047 114.231278,160.365047 114.328717,160.359827 C142.906111,158.017817 170.091523,147.019418 192.258839,128.833171 L198.249582,123.933394 C199.305749,123.073845 199.779023,121.687082 199.467567,120.359479 Z M28.509535,7.13042851 L35.6364837,7.13042851 L35.6364837,14.2573773 C35.6364837,16.2252922 37.2320437,17.8208517 39.1999581,17.8208517 C41.1696129,17.8208517 42.7634325,16.2252922 42.7634325,14.2573773 L42.7634325,7.13042851 L49.8903813,7.13042851 L49.8903813,14.2573773 C49.8903813,16.2252922 51.4859412,17.8208517 53.4538557,17.8208517 C55.4235105,17.8208517 57.0173301,16.2252922 57.0173301,14.2573773 L57.0173301,7.13042851 L64.1442788,7.13042851 L64.1442788,14.2573773 C64.1442788,16.2252922 65.7398388,17.8208517 67.7077532,17.8208517 C69.677408,17.8208517 71.2712276,16.2252922 71.2712276,14.2573773 L71.2712276,7.13042851 L128.286818,7.13042851 L128.286818,14.2573773 C128.286818,16.2252922 129.882378,17.8208517 131.850292,17.8208517 C133.819947,17.8208517 135.413767,16.2252922 135.413767,14.2573773 L135.413767,7.13042851 L142.540715,7.13042851 L142.540715,14.2573773 C142.540715,16.2252922 144.136275,17.8208517 146.10419,17.8208517 C148.073845,17.8208517 149.667664,16.2252922 149.667664,14.2573773 L149.667664,7.13042851 L156.794613,7.13042851 L156.794613,14.2573773 C156.794613,16.2252922 158.390173,17.8208517 160.358087,17.8208517 C162.327742,17.8208517 163.921562,16.2252922 163.921562,14.2573773 L163.921562,7.13042851 L171.04851,7.13042851 L171.04851,24.9478004 L114.03292,24.9478004 L114.03292,17.8208517 C114.03292,15.8529372 112.439101,14.2573773 110.469446,14.2573773 C108.501531,14.2573773 106.905971,15.8529372 106.905971,17.8208517 L106.905971,24.9478004 L92.6520739,24.9478004 L92.6520739,17.8208517 C92.6520739,15.8529372 91.0582543,14.2573773 89.0885996,14.2573773 C87.1206851,14.2573773 85.5251252,15.8529372 85.5251252,17.8208517 L85.5251252,24.9478004 L28.509535,24.9478004 L28.509535,7.13042851 Z M177.138433,131.060343 L150.737751,32.0747492 L157.579343,32.0747492 L181.561456,128.003202 C180.106835,129.057628 178.629594,130.070295 177.138433,131.060343 L177.138433,131.060343 Z M17.9983296,128.003202 L41.9804428,32.0747492 L48.8220352,32.0747492 L22.4196129,131.060343 C20.930192,130.070295 19.4512111,129.057628 17.9983296,128.003202 Z M27.7978842,32.0747492 L34.6394766,32.0747492 L11.8335884,123.300042 L11.8127087,123.300042 L7.53584365,119.800947 L27.7978842,32.0747492 Z M103.0902,119.839226 C102.550807,118.483784 101.238864,117.594655 99.7790227,117.594655 C98.3209216,117.594655 97.0089782,118.483784 96.4695853,119.839226 L83.205735,153.004942 C63.9633212,151.037027 45.3768793,144.921005 28.7235523,135.081431 L56.190841,32.0747492 L85.5251252,32.0747492 L85.5251252,36.8562085 C85.5286053,49.8294824 83.4371519,62.7157572 79.3360245,75.0226196 L75.0208797,87.9645742 C74.3997078,89.83331 75.4106347,91.8534245 77.279371,92.4763363 C79.1498468,93.0975082 81.1699608,92.0865813 81.7911332,90.2161051 L86.1097577,77.2776307 C90.4510022,64.2434575 92.6607742,50.5950726 92.6520739,36.8562085 L92.6520739,32.0747492 L106.905971,32.0747492 L106.905971,41.0826143 C106.916412,52.1123332 109.477659,62.9906735 114.389616,72.8650472 C115.270045,74.6276445 117.410217,75.3427755 119.172815,74.462347 C120.933672,73.581918 121.648803,71.4417457 120.768374,69.6808882 C116.345351,60.7965617 114.03988,51.0074472 114.03292,41.0826143 L114.03292,32.0747492 L143.368945,32.0747492 L170.836233,135.081431 C154.182906,144.921005 135.596464,151.037027 116.354051,153.004942 L103.0902,119.839226 Z M187.750557,123.303522 L187.729677,123.303522 L164.920309,32.0747492 L171.761902,32.0747492 L192.010022,119.804427 L187.750557,123.303522 Z" id="Shape"></path>
        </g>
    </g>
</svg>