<?xml version="1.0" encoding="UTF-8"?>
<svg width="163px" height="201px" viewBox="0 0 163 201" version="1.1" xmlns="http://www.w3.org/2000/svg" xmlns:xlink="http://www.w3.org/1999/xlink">
    <!-- Generator: Sketch 53.2 (72643) - https://sketchapp.com -->
    <title>010-hoodie-1</title>
    <desc>Created with Sketch.</desc>
    <g id="Page-1" stroke="none" stroke-width="1" fill="none" fill-rule="evenodd">
        <g id="010-hoodie-1" transform="translate(0.028700, 0.509984)" fill-rule="nonzero">
            <polygon id="Path-3" fill="#FFFFFF" points="105.789001 198.335552 135.935945 196.444634 136.071818 172.61909 160.08151 166.767262 160.850063 66.4025669 156.538278 43.3989438 138.698423 29.0628596 117.640416 3.93628106 46.693265 3.52806952 40.0298229 10.1724615 33.0002856 17.5416186 28.5558217 25.8475367 13.2342189 36.0848867 6.24042267 45.6864194 4.02369485 59.6822877 3.1515961 146.758869 3.79595742 165.762253 26.0028938 172.150938 26.1385415 196.837253"></polygon>
            <path d="M159.326298,102.642591 C157.574851,102.642591 156.153087,104.055684 156.153087,105.799345 L156.153087,146.011943 L139.361267,150.545657 L139.361267,71.6614827 C139.361267,69.9178219 137.940975,68.504729 136.187565,68.504729 C134.436118,68.504729 133.015826,69.9178219 133.015826,71.6614827 L133.015826,180.05459 L55.8476312,180.05459 C54.0942212,180.05459 52.6744202,181.468171 52.6744202,183.213297 C52.6744202,184.95647 54.0961835,186.370051 55.8476312,186.370051 L133.015826,186.370051 L133.015826,193.684539 L29.481721,193.684539 L29.481721,186.371515 L45.4836727,186.371515 C47.235611,186.371515 48.6554121,184.95647 48.6554121,183.213297 C48.6554121,181.468171 47.235611,180.05459 45.4836727,180.05459 L29.481721,180.05459 L29.481721,71.6614827 C29.481721,69.9178219 28.06192,68.504729 26.3099817,68.504729 C24.5565717,68.504729 23.1367706,69.9178219 23.1367706,71.6614827 L23.1367706,150.54761 L6.34495027,146.011943 L6.34495027,52.4372677 C6.34495027,42.9611473 17.6670536,35.4747825 27.8818692,30.8531779 C27.9353448,30.83267 27.9927452,30.817045 28.0462206,30.7940956 C32.8663813,28.6466242 37.141974,27.2598988 39.1137019,26.6627279 L58.5425056,36.6652181 L58.5425056,86.9374363 C58.5425056,88.6825619 59.9642692,90.09419 61.7157167,90.09419 C63.467655,90.09419 64.8894183,88.6825619 64.8894183,86.9374363 L64.8894183,39.932324 L79.7914415,47.6037481 C80.7054323,48.0749419 81.7921148,48.0749419 82.706596,47.6037481 L98.5378185,39.4538058 L98.5378185,86.9374363 C98.5378185,88.6806088 99.9600725,90.09419 101.71152,90.09419 C103.462968,90.09419 104.885222,88.6806088 104.885222,86.9374363 L104.885222,36.1862119 L123.384336,26.6627279 C125.415426,27.2769888 129.882844,28.7267027 134.876678,30.9830615 C134.928682,31.0060108 134.980195,31.0231006 135.034161,31.0421438 C145.137119,35.6769321 156.153087,43.0910306 156.153087,52.4372677 L156.153087,95.064429 C156.153087,96.8100429 157.572888,98.2231358 159.326298,98.2231358 C161.080199,98.2231358 162.5,96.8100429 162.5,95.064429 L162.5,52.4372677 C162.5,39.703319 149.636917,30.941069 138.748015,25.8028604 C131.067157,4.24171994 116.322126,0.25927861 115.685816,0.0991215777 C115.624491,0.0820316506 115.563165,0.0761722469 115.50184,0.0649417233 C115.442477,0.053222916 115.383115,0.0400392579 115.323752,0.0322267198 C115.220235,0.0170899272 115.116718,0.0112305236 115.013201,0.00976567269 C114.974934,0.00781253815 114.93863,0 114.900362,0 L47.969551,0 C47.935209,0 47.9023385,0.0058594036 47.8679965,0.00781253815 C47.7605548,0.0112305236 47.6531129,0.0170899272 47.5441994,0.0302735854 C47.4848367,0.0380861235 47.4249833,0.053222916 47.3656204,0.0649417233 C47.3042952,0.0761722469 47.24297,0.0820316506 47.1836073,0.0991215777 C46.5512219,0.25927861 31.9043115,4.21925888 24.2023573,25.5909452 C13.2192597,30.6969273 0,39.5260719 0,52.4372677 L0,166.294757 C0,167.721522 0.960107298,168.969087 2.34164135,169.342624 L23.1367706,174.957886 L23.1367706,196.843246 C23.1367706,198.586419 24.558534,200 26.3099817,200 L136.187565,200 C137.940975,200 139.361267,198.586419 139.361267,196.843246 L139.361267,174.957886 L160.158359,169.341159 C161.539893,168.969087 162.5,167.719569 162.5,166.294757 L162.5,105.799345 C162.5,104.055684 161.080199,102.642591 159.326298,102.642591 Z M81.4339756,33.0123681 L69.5177538,20.763285 L93.3521598,20.763285 L81.4339756,33.0123681 Z M115.739782,6.83401775 C118.754038,8.19193452 125.367838,12.1690047 130.415638,22.3409294 C126.983389,21.0933648 124.520569,20.4029316 123.953434,20.248634 C123.917129,20.2388684 123.890146,20.2315441 123.878372,20.2276378 C123.687037,20.1758798 123.491287,20.143653 123.29799,20.1285162 C122.71123,20.0845707 122.122999,20.2007822 121.594131,20.4737328 L104.697321,29.172994 C104.256271,27.952285 103.089129,27.0787454 101.71152,27.0787454 C99.9600725,27.0787454 98.539781,28.4923267 98.539781,30.2374523 L98.539781,32.3429315 L83.2717692,40.2033212 L83.7142917,39.7492175 L110.304407,12.4204708 L115.739782,6.83401775 Z M107.410839,6.31546052 L99.4959635,14.4483127 L63.3714971,14.4483127 L55.4585842,6.31546052 L107.410839,6.31546052 Z M47.1281694,6.8320646 L77.016599,37.5519413 L76.2919804,38.2960854 L76.0353958,38.5612235 L64.8894183,32.8219377 L64.8894183,30.2354992 C64.8894183,28.4923267 63.4696175,27.0787454 61.7157167,27.0787454 C60.1865117,27.0787454 58.9104569,28.1544344 58.61119,29.5890117 L40.9034165,20.4737328 C40.80039,20.4200216 40.6949106,20.3746112 40.587469,20.3326188 C40.5550894,20.3209 40.5202565,20.3096695 40.4878769,20.2979507 C40.4113429,20.2715834 40.3323563,20.248634 40.25386,20.2276378 C40.2175554,20.2178722 40.1812508,20.2085948 40.1449463,20.1988291 C40.0586004,20.179786 39.9702921,20.1646493 39.881984,20.1529304 C39.8574538,20.1495125 39.8324331,20.143653 39.80545,20.1397468 C39.6945742,20.1285163 39.5812452,20.1207037 39.4684067,20.1207037 C39.4605571,20.1207037 39.4527075,20.1187506 39.4473108,20.1187506 C39.4281775,20.1187506 39.4110065,20.1226569 39.3913823,20.1226569 C39.2898277,20.12461 39.1882733,20.1319342 39.088681,20.143653 C39.054339,20.1475593 39.0219594,20.1514656 38.989089,20.1548836 C38.8644763,20.1719735 38.7437883,20.1949228 38.6211379,20.2276378 C38.2492619,20.3287125 35.9036956,20.9693406 32.5386594,22.176866 C37.5746846,12.1079693 44.1212721,8.180704 47.1281694,6.8320646 Z M23.1367706,168.413908 L6.34495027,163.880195 L6.34495027,152.556409 L23.1367706,157.092076 L23.1367706,168.413908 Z M156.153087,163.880195 L139.361267,168.413908 L139.361267,157.092076 L156.153087,152.556409 L156.153087,163.880195 Z" id="Fill-1" fill="#4A7CB2"></path>
            <path d="M102.939567,117.691931 C102.939567,115.97487 101.521499,114.583333 99.7721883,114.583333 L60.6444783,114.583333 C58.8951679,114.583333 57.4766096,115.97487 57.4766096,117.691931 C57.4766096,127.346136 52.0635477,136.151187 43.3547267,140.672478 C42.3154304,141.211494 41.6666667,142.26885 41.6666667,143.419969 L41.6666667,167.722812 C41.6666667,169.441797 43.084735,170.833333 44.8360052,170.833333 L115.582131,170.833333 C117.331932,170.833333 118.75,169.441797 118.75,167.722812 L118.75,143.421893 C118.75,142.26885 118.101236,141.211494 117.0639,140.672478 C108.352629,136.151187 102.939567,127.346136 102.939567,117.691931 Z M112.412303,164.614214 L48.003874,164.614214 L48.003874,145.230794 C56.8984063,139.943532 62.6735802,130.897584 63.662896,120.801972 L96.7552406,120.801972 C97.7450465,130.899507 103.51777,139.943532 112.414263,145.232717 L112.414263,164.614214 L112.412303,164.614214 Z" id="Fill-2" fill="#4A7CB2"></path>
        </g>
    </g>
</svg>