<?xml version="1.0" encoding="UTF-8"?>
<svg width="141px" height="200px" viewBox="0 0 141 200" version="1.1" xmlns="http://www.w3.org/2000/svg" xmlns:xlink="http://www.w3.org/1999/xlink">
    <!-- Generator: Sketch 53.2 (72643) - https://sketchapp.com -->
    <title>004-climbing</title>
    <desc>Created with Sketch.</desc>
    <g id="Page-1" stroke="none" stroke-width="1" fill="none" fill-rule="evenodd">
        <g id="Artboard" transform="translate(-428.000000, -700.000000)" fill="#4A7CB2" fill-rule="nonzero">
            <g id="004-climbing" transform="translate(428.000000, 700.000000)">
                <path d="M137.39375,182.302734 L128.485547,182.302734 L128.485547,101.520703 C128.485547,99.9023438 127.174219,98.5910156 125.555859,98.5910156 C123.9375,98.5910156 122.626172,99.9023438 122.626172,101.520703 L122.626172,182.303125 L17.9988281,182.303125 L17.9988281,147.684375 C17.9988281,146.066016 16.6875,144.754687 15.0691406,144.754687 C13.4507812,144.754687 12.1394531,146.066016 12.1394531,147.684375 L12.1394531,182.303125 L3.23125,182.303125 C1.61289062,182.303125 0.3015625,183.614453 0.3015625,185.232813 L0.3015625,197.070312 C0.3015625,198.688672 1.61289062,200 3.23125,200 L137.393359,200 C139.011719,200 140.323047,198.688672 140.323047,197.070312 L140.323047,185.232422 C140.323437,183.614453 139.011719,182.302734 137.39375,182.302734 L137.39375,182.302734 Z M134.464062,194.140625 L6.1609375,194.140625 L6.1609375,188.162109 L134.464062,188.162109 L134.464062,194.140625 L134.464062,194.140625 Z" id="Shape"></path>
                <path d="M9.78320313,47.3414063 C9.78515625,47.3796875 9.78828125,47.384375 9.8046875,47.5589844 L12.1398438,63.1265625 L12.1398438,134.010156 C12.1398438,135.628516 13.4511719,136.939844 15.0695313,136.939844 C16.6878906,136.939844 17.9992188,135.628516 17.9992188,134.010156 L17.9992188,65.8378906 L122.626172,65.8378906 L122.623437,87.846875 C122.623047,89.4652344 123.934766,90.7765625 125.552734,90.7769531 L125.553125,90.7769531 C127.171094,90.7769531 128.482422,89.465625 128.482812,87.8476563 L128.485937,63.1269531 L130.821094,47.559375 C130.830469,47.4632813 130.842969,47.3878906 130.853516,47.125 L130.853516,2.9296875 C130.853516,1.31132813 129.542187,2.84217094e-14 127.923828,2.84217094e-14 L107.314453,2.84217094e-14 C105.696094,2.84217094e-14 104.384766,1.31132813 104.384766,2.9296875 C104.384766,4.54804688 105.696094,5.859375 107.314453,5.859375 L124.994141,5.859375 L124.994141,44.1949219 L15.6316406,44.1949219 L15.6316406,5.859375 L93.6382812,5.859375 C95.2566406,5.859375 96.5679687,4.54804688 96.5679687,2.9296875 C96.5679687,1.31132813 95.2566406,2.84217094e-14 93.6382812,2.84217094e-14 L12.7019531,2.84217094e-14 C11.0835937,2.84217094e-14 9.77226562,1.31132813 9.77226562,2.9296875 L9.77226562,47.1246094 C9.77578125,47.2152344 9.77382813,47.1679688 9.78320313,47.3414063 Z M17.5921875,59.9785156 L16.1035156,50.0542969 L124.521094,50.0542969 L123.032422,59.9785156 L17.5921875,59.9785156 Z" id="Shape"></path>
                <path d="M59.4910156,94.08125 C59.4910156,99.0429688 64.2445313,102.929688 70.3125,102.929688 C76.3804687,102.929688 81.1339844,99.0429688 81.1339844,94.08125 C81.1339844,89.1195313 76.3804687,85.2324219 70.3125,85.2324219 C64.2445312,85.2324219 59.4910156,89.1195313 59.4910156,94.08125 L59.4910156,94.08125 Z M70.3125,91.0917969 C73.1527344,91.0917969 75.2746094,92.6699219 75.2746094,94.0808594 C75.2746094,95.4917969 73.1527344,97.0703125 70.3125,97.0703125 C67.4722656,97.0703125 65.3503906,95.4921875 65.3503906,94.08125 C65.3503906,92.6703125 67.4722656,91.0917969 70.3125,91.0917969 L70.3125,91.0917969 Z" id="Shape"></path>
                <path d="M70.3125,176.324609 C76.3804687,176.324609 81.1339844,172.437891 81.1339844,167.476172 C81.1339844,162.514063 76.3804687,158.627344 70.3125,158.627344 C64.2445312,158.627344 59.4910156,162.514062 59.4910156,167.476172 C59.4910156,172.4375 64.2445312,176.324609 70.3125,176.324609 L70.3125,176.324609 Z M70.3125,164.486328 C73.1527344,164.486328 75.2746094,166.064844 75.2746094,167.475781 C75.2746094,168.886719 73.1523437,170.464844 70.3125,170.464844 C67.4726562,170.464844 65.3503906,168.886719 65.3503906,167.475781 C65.3503906,166.064844 67.4722656,164.486328 70.3125,164.486328 L70.3125,164.486328 Z" id="Shape"></path>
                <path d="M84.940625,123.394141 C84.9402344,123.394141 84.9402344,123.394141 84.940625,123.394141 C81.4324219,119.886328 75.3226562,120.498828 71.03125,124.789063 C66.740625,129.080078 66.1277344,135.189453 69.6363281,138.698047 C71.1660156,140.227344 73.1890625,140.973437 75.3410156,140.973437 C78.1257812,140.973437 81.1257813,139.723437 83.5460937,137.303125 C87.8363281,133.012109 88.4492188,126.902734 84.940625,123.394141 Z M81.2933594,129.645312 C81.121875,130.848828 80.4324219,132.129687 79.4019531,133.159766 C78.371875,134.190234 77.090625,134.879688 75.8875,135.051563 C75.3605469,135.126953 74.3859375,135.162109 73.7796875,134.555078 C73.1722656,133.948047 73.2078125,132.973828 73.2832031,132.447266 C73.4546875,131.24375 74.1441406,129.962891 75.1742187,128.932812 C76.4796875,127.627734 78.0414062,127.008594 79.2492187,127.008594 C79.9,127.008594 80.4480469,127.188281 80.7976562,127.5375 C81.4046875,128.144531 81.3691406,129.11875 81.2933594,129.645312 Z" id="Shape"></path>
                <path d="M25.2582031,15.4867187 C20.9679687,19.7773438 20.3550781,25.8867188 23.8636719,29.3957031 C25.3929687,30.925 27.4160156,31.6707031 29.5679687,31.6707031 C32.3523437,31.6707031 35.3523438,30.4207031 37.7726562,28.0003906 C42.0628906,23.7097656 42.6761719,17.6 39.1679688,14.0914062 L39.1675781,14.0910156 C35.6585937,10.5824219 29.5488281,11.1964844 25.2582031,15.4867187 Z M33.6289062,23.8570312 C31.6203125,25.8664063 29.0046875,26.2492187 28.0066406,25.2523438 C27.0085937,24.2542969 27.3933594,21.6378906 29.4015625,19.6292969 C30.7066406,18.3242188 32.2683594,17.7046875 33.4761719,17.7046875 C34.1269531,17.7046875 34.6746094,17.8847656 35.0242188,18.2339844 C36.021875,19.2324219 35.6371094,21.8492187 33.6289062,23.8570312 Z" id="Shape"></path>
                <path d="M32.8257812,71.8164063 C27.946875,71.8164063 23.9773438,75.7859375 23.9773438,80.6648438 C23.9773438,85.54375 27.946875,89.5132813 32.8257812,89.5132813 C37.7046875,89.5132813 41.6742187,85.54375 41.6742187,80.6648438 C41.6742187,75.7859375 37.7046875,71.8164063 32.8257812,71.8164063 L32.8257812,71.8164063 Z M32.8257812,83.6539063 C31.1773437,83.6539063 29.8367188,82.3128906 29.8367188,80.6648438 C29.8367188,79.0167969 31.1777344,77.6757813 32.8257812,77.6757813 C34.4738281,77.6757813 35.8148437,79.0167969 35.8148437,80.6648438 C35.8148437,82.3128906 34.4742187,83.6539063 32.8257812,83.6539063 Z" id="Shape"></path>
                <path d="M107.799219,135.345703 C102.920312,135.345703 98.9507813,139.315234 98.9507813,144.194531 C98.9507813,149.073438 102.920312,153.042969 107.799219,153.042969 C112.678125,153.042969 116.647656,149.073438 116.647656,144.194531 C116.647656,139.315234 112.678125,135.345703 107.799219,135.345703 Z M107.799219,147.183984 C106.150781,147.183984 104.810156,145.842969 104.810156,144.194922 C104.810156,142.546875 106.151172,141.205469 107.799219,141.205469 C109.447266,141.205469 110.788281,142.546875 110.788281,144.194922 C110.788281,145.842969 109.447656,147.183984 107.799219,147.183984 Z" id="Shape"></path>
                <path d="M61.4640625,29.3675781 C61.4640625,34.2464844 65.4335938,38.2160156 70.3125,38.2160156 C75.1914062,38.2160156 79.1609375,34.2464844 79.1609375,29.3675781 C79.1609375,24.4886719 75.1914062,20.51875 70.3125,20.51875 C65.4335938,20.51875 61.4640625,24.4882812 61.4640625,29.3675781 Z M73.3015625,29.3675781 C73.3015625,31.0160156 71.9605469,32.3566406 70.3125,32.3566406 C68.6644531,32.3566406 67.3234375,31.015625 67.3234375,29.3675781 C67.3234375,27.7195312 68.6644531,26.3785156 70.3125,26.3785156 C71.9605469,26.3785156 73.3015625,27.7191406 73.3015625,29.3675781 Z" id="Shape"></path>
                <path d="M107.799219,97.0703125 C102.920312,97.0703125 98.9507813,101.039844 98.9507813,105.91875 C98.9507813,110.797656 102.920312,114.767187 107.799219,114.767187 C112.678125,114.767187 116.647656,110.797656 116.647656,105.91875 C116.647656,101.039844 112.678125,97.0703125 107.799219,97.0703125 Z M107.799219,108.908203 C106.150781,108.908203 104.810156,107.567188 104.810156,105.919141 C104.810156,104.271094 106.151172,102.930078 107.799219,102.930078 C109.447266,102.930078 110.788281,104.271094 110.788281,105.919141 C110.788281,107.567188 109.447656,108.908203 107.799219,108.908203 Z" id="Shape"></path>
                <path d="M44.2691406,140.475781 C39.3902344,140.475781 35.4207031,144.445312 35.4207031,149.324219 C35.4207031,154.203125 39.3902344,158.172656 44.2691406,158.172656 C49.1480469,158.172656 53.1175781,154.203125 53.1175781,149.324219 C53.1175781,144.445312 49.1480469,140.475781 44.2691406,140.475781 Z M44.2691406,152.313672 C42.6207031,152.313672 41.2800781,150.972656 41.2800781,149.324609 C41.2800781,147.676563 42.6210938,146.335547 44.2691406,146.335547 C45.9171875,146.335547 47.2582031,147.676563 47.2582031,149.324609 C47.2582031,150.972656 45.9175781,152.313672 44.2691406,152.313672 Z" id="Shape"></path>
                <path d="M105.826172,71.8164063 C99.7578125,71.8164063 95.0042969,75.703125 95.0042969,80.6648438 C95.0042969,85.6265625 99.7578125,89.5132813 105.826172,89.5132813 C111.894141,89.5132813 116.647656,85.6265625 116.647656,80.6648438 C116.647656,75.703125 111.894141,71.8164063 105.826172,71.8164063 L105.826172,71.8164063 Z M105.826172,83.6539063 C102.985937,83.6539063 100.863672,82.0757813 100.863672,80.6648438 C100.863672,79.2539063 102.985937,77.6757813 105.826172,77.6757813 C108.666406,77.6757813 110.788281,79.2539063 110.788281,80.6648438 C110.788281,82.0757813 108.666406,83.6539063 105.826172,83.6539063 Z" id="Shape"></path>
                <path d="M108.19375,29.5347656 C114.261719,29.5347656 119.015234,25.6480469 119.015234,20.6863281 C119.015234,15.7246094 114.261719,11.8378906 108.19375,11.8378906 C102.125781,11.8378906 97.3722656,15.7246094 97.3722656,20.6863281 C97.3722656,25.6480469 102.125391,29.5347656 108.19375,29.5347656 Z M108.19375,17.6972656 C111.033984,17.6972656 113.155859,19.2753906 113.155859,20.6863281 C113.155859,22.0972656 111.033594,23.6753906 108.19375,23.6753906 C105.353906,23.6753906 103.231641,22.0972656 103.231641,20.6863281 C103.231641,19.2753906 105.353516,17.6972656 108.19375,17.6972656 Z" id="Shape"></path>
                <path d="M53.5535156,117.017969 C53.2011719,114.550391 51.940625,112.125 50.0050781,110.189062 C45.7140625,105.899219 39.6046875,105.285547 36.0964844,108.794141 C34.3363281,110.554297 33.5511719,113.134375 33.9425781,115.874219 C34.2949219,118.341797 35.5554687,120.767187 37.4910156,122.703125 C39.4269531,124.638672 41.8523437,125.899219 44.3199219,126.251562 C44.7828125,126.317969 45.2398437,126.350391 45.690625,126.350391 C47.9070312,126.350391 49.9371094,125.560937 51.3996094,124.098047 L51.4,124.097656 C53.1601562,122.338281 53.9449219,119.757422 53.5535156,117.017969 L53.5535156,117.017969 Z M47.2570312,119.954688 C46.6492187,120.562109 45.6746094,120.526172 45.1492188,120.451172 C43.9457031,120.279297 42.6648438,119.589844 41.6347656,118.559375 C40.6042969,117.529297 39.9152344,116.248438 39.7429688,115.044922 C39.6679688,114.518359 39.6324219,113.544141 40.2394531,112.937109 C40.6683594,112.507812 41.2804688,112.4 41.7886719,112.4 C41.9996094,112.4 42.1925781,112.41875 42.3472656,112.440625 C43.5507813,112.612109 44.8316406,113.301562 45.8617188,114.332031 C46.8921875,115.362109 47.58125,116.642969 47.7535156,117.846484 C47.828125,118.373437 47.8636719,119.347656 47.2570313,119.954687 L47.2570312,119.954688 Z" id="Shape"></path>
                <path d="M26.9070313,176.324609 L31.6421875,176.324609 C33.2605469,176.324609 34.571875,175.013281 34.571875,173.394922 C34.571875,171.776563 33.2605469,170.465234 31.6421875,170.465234 L26.9070313,170.465234 C25.2886719,170.465234 23.9773438,171.776563 23.9773438,173.394922 C23.9773438,175.013281 25.2886719,176.324609 26.9070313,176.324609 Z" id="Path"></path>
                <path d="M108.19375,170.465234 C106.575391,170.465234 105.264062,171.776563 105.264062,173.394922 C105.264062,175.013281 106.575391,176.324609 108.19375,176.324609 L113.718359,176.324609 C115.336719,176.324609 116.648047,175.013281 116.648047,173.394922 C116.648047,171.776563 115.336719,170.465234 113.718359,170.465234 L108.19375,170.465234 Z" id="Path"></path>
                <path d="M72.2855469,77.6757812 C73.9039062,77.6757812 75.2152344,76.3644531 75.2152344,74.7460938 C75.2152344,73.1277344 73.9039062,71.8164062 72.2855469,71.8164062 L68.3394531,71.8164062 C66.7210938,71.8164062 65.4097656,73.1277344 65.4097656,74.7460938 C65.4097656,76.3644531 66.7210938,77.6757812 68.3394531,77.6757812 L72.2855469,77.6757812 Z" id="Path"></path>
                <path d="M91.2261719,163.697266 L95.1722656,163.697266 C96.790625,163.697266 98.1019531,162.385937 98.1019531,160.767578 C98.1019531,159.149219 96.790625,157.837891 95.1722656,157.837891 L91.2261719,157.837891 C89.6078125,157.837891 88.2964844,159.149219 88.2964844,160.767578 C88.2964844,162.385937 89.6078125,163.697266 91.2261719,163.697266 Z" id="Path"></path>
                <path d="M69.690625,114.6 C69.690625,112.981641 68.3792969,111.670312 66.7609375,111.670312 L62.8148437,111.670312 C61.1964844,111.670312 59.8851562,112.981641 59.8851562,114.6 C59.8851562,116.218359 61.1964844,117.529687 62.8148437,117.529687 L66.7609375,117.529687 C68.3792969,117.529687 69.690625,116.218359 69.690625,114.6 Z" id="Path"></path>
                <path d="M68.7339844,153.043359 L74.2585937,153.043359 C75.8769531,153.043359 77.1882812,151.732031 77.1882812,150.113672 C77.1882812,148.495313 75.8769531,147.183984 74.2585937,147.183984 L68.7339844,147.183984 C67.115625,147.183984 65.8042969,148.495313 65.8042969,150.113672 C65.8042969,151.732031 67.115625,153.043359 68.7339844,153.043359 L68.7339844,153.043359 Z" id="Path"></path>
                <path d="M113.717969,121.930078 L108.982812,121.930078 C107.364453,121.930078 106.053125,123.241406 106.053125,124.859766 C106.053125,126.478125 107.364453,127.789453 108.982812,127.789453 L113.717969,127.789453 C115.336328,127.789453 116.647656,126.478125 116.647656,124.859766 C116.647656,123.241406 115.336328,121.930078 113.717969,121.930078 Z" id="Path"></path>
                <path d="M91.7882812,109.864844 C91.7882812,108.246484 90.4769531,106.935156 88.8585938,106.935156 L83.3339844,106.935156 C81.715625,106.935156 80.4042969,108.246484 80.4042969,109.864844 C80.4042969,111.483203 81.715625,112.794531 83.3339844,112.794531 L88.8585938,112.794531 C90.4765625,112.794531 91.7882813,111.482813 91.7882813,109.864844 L91.7882812,109.864844 Z" id="Path"></path>
                <path d="M90.2097656,14.7675781 C90.2097656,13.1492187 88.8984375,11.8378906 87.2800781,11.8378906 L82.5453125,11.8378906 C80.9269531,11.8378906 79.615625,13.1492187 79.615625,14.7675781 C79.615625,16.3859375 80.9269531,17.6972656 82.5453125,17.6972656 L87.2800781,17.6972656 C88.8980469,17.6972656 90.2097656,16.3855469 90.2097656,14.7675781 Z" id="Path"></path>
                <path d="M61.0097656,14.7675781 C61.0097656,13.1492187 59.6984375,11.8378906 58.0800781,11.8378906 L53.3453125,11.8378906 C51.7269531,11.8378906 50.415625,13.1492187 50.415625,14.7675781 C50.415625,16.3859375 51.7269531,17.6972656 53.3453125,17.6972656 L58.0800781,17.6972656 C59.6980469,17.6972656 61.0097656,16.3855469 61.0097656,14.7675781 Z" id="Path"></path>
                <path d="M37.39375,96.8433594 C37.39375,98.4617188 38.7050781,99.7730469 40.3234375,99.7730469 L45.8480469,99.7730469 C47.4664063,99.7730469 48.7777344,98.4617188 48.7777344,96.8433594 C48.7777344,95.225 47.4664063,93.9136719 45.8480469,93.9136719 L40.3234375,93.9136719 C38.7050781,93.9136719 37.39375,95.225 37.39375,96.8433594 Z" id="Path"></path>
                <path d="M46.6371094,32.3566406 C45.01875,32.3566406 43.7074219,33.6679688 43.7074219,35.2863281 C43.7074219,36.9046875 45.01875,38.2160156 46.6371094,38.2160156 L52.1613281,38.2160156 C53.7796875,38.2160156 55.0910156,36.9046875 55.0910156,35.2863281 C55.0910156,33.6679688 53.7796875,32.3566406 52.1613281,32.3566406 L46.6371094,32.3566406 Z" id="Path"></path>
                <path d="M88.4640625,38.2160156 L93.9882812,38.2160156 C95.6066406,38.2160156 96.9179688,36.9046875 96.9179688,35.2863281 C96.9179688,33.6679688 95.6066406,32.3566406 93.9882812,32.3566406 L88.4640625,32.3566406 C86.8457031,32.3566406 85.534375,33.6679688 85.534375,35.2863281 C85.534375,36.9046875 86.8457031,38.2160156 88.4640625,38.2160156 Z" id="Path"></path>
            </g>
        </g>
    </g>
</svg>