<?xml version="1.0" encoding="UTF-8"?>
<svg width="256px" height="200px" viewBox="0 0 256 200" version="1.1" xmlns="http://www.w3.org/2000/svg" xmlns:xlink="http://www.w3.org/1999/xlink">
    <!-- Generator: Sketch 53.2 (72643) - https://sketchapp.com -->
    <title>027-curtains</title>
    <desc>Created with Sketch.</desc>
    <g id="Page-1" stroke="none" stroke-width="1" fill="none" fill-rule="evenodd">
        <g id="027-curtains" fill="#4A7CB2">
            <path d="M244.25,0.25 C239.082,0.25 234.686,3.605 233.117,8.25 L22.883,8.25 C21.314,3.605 16.918,0.25 11.75,0.25 C5.271,0.25 0,5.521 0,12 C0,18.479 5.271,23.75 11.75,23.75 C16.918,23.75 21.314,20.395 22.883,15.75 L28.25,15.75 L28.25,140 L35.75,140 L35.75,27.4745 C39.1195,30.1475 43.375,31.75 48,31.75 C52.625,31.75 56.8805,30.1475 60.25,27.4745 L60.25,192.25 L35.75,192.25 L35.75,156 L28.25,156 L28.25,199.75 L227.75,199.75 L227.75,92 L220.25,92 L220.25,192.25 L195.75,192.25 L195.75,108 L188.25,108 L188.25,192.25 L163.75,192.25 L163.75,27.4745 C167.1195,30.1475 171.375,31.75 176,31.75 C180.625,31.75 184.8805,30.1475 188.25,27.4745 L188.25,76 L195.75,76 L195.75,27.4745 C199.1195,30.1475 203.375,31.75 208,31.75 C212.625,31.75 216.8805,30.1475 220.25,27.4745 L220.25,35 L227.75,35 L227.75,15.75 L233.117,15.75 C234.686,20.395 239.082,23.75 244.25,23.75 C250.729,23.75 256,18.479 256,12 C256,5.521 250.729,0.25 244.25,0.25 Z M11.75,16.25 C9.4065,16.25 7.5,14.3435 7.5,12 C7.5,9.6565 9.4065,7.75 11.75,7.75 C14.0935,7.75 16,9.6565 16,12 C16,14.3435 14.0935,16.25 11.75,16.25 Z M48,24.25 C42.553,24.25 37.927,20.676 36.3395,15.75 L59.661,15.75 C58.073,20.676 53.447,24.25 48,24.25 Z M155.6605,15.75 C154.0725,20.676 149.447,24.25 144,24.25 C138.553,24.25 133.927,20.676 132.3395,15.75 L155.6605,15.75 Z M123.6605,15.75 C122.0725,20.676 117.4465,24.25 112,24.25 C106.5535,24.25 101.927,20.676 100.3395,15.75 L123.6605,15.75 Z M91.6605,15.75 C90.0725,20.676 85.4465,24.25 80,24.25 C74.5535,24.25 69.927,20.676 68.3395,15.75 L91.6605,15.75 Z M156.25,192.25 L131.75,192.25 L131.75,172 L124.25,172 L124.25,192.25 L99.75,192.25 L99.75,76 L92.25,76 L92.25,192.25 L67.75,192.25 L67.75,27.4745 C71.1195,30.1475 75.375,31.75 80,31.75 C84.625,31.75 88.8805,30.1475 92.25,27.4745 L92.25,60 L99.75,60 L99.75,27.4745 C103.1195,30.1475 107.375,31.75 112,31.75 C116.625,31.75 120.8805,30.1475 124.25,27.4745 L124.25,140 L131.75,140 L131.75,27.4745 C135.1195,30.1475 139.375,31.75 144,31.75 C148.625,31.75 152.8805,30.1475 156.25,27.4745 L156.25,192.25 Z M176,24.25 C170.553,24.25 165.927,20.676 164.3395,15.75 L187.661,15.75 C186.073,20.676 181.447,24.25 176,24.25 Z M208,24.25 C202.553,24.25 197.927,20.676 196.3395,15.75 L219.661,15.75 C218.073,20.676 213.447,24.25 208,24.25 Z M244.25,16.25 C241.9065,16.25 240,14.3435 240,12 C240,9.6565 241.9065,7.75 244.25,7.75 C246.5935,7.75 248.5,9.6565 248.5,12 C248.5,14.3435 246.5935,16.25 244.25,16.25 Z" id="Shape" fill-rule="nonzero"></path>
            <rect id="Rectangle" x="220.25" y="46" width="7.5" height="34"></rect>
        </g>
    </g>
</svg>