<?xml version="1.0" encoding="UTF-8"?>
<svg width="197px" height="197px" viewBox="0 0 197 197" version="1.1" xmlns="http://www.w3.org/2000/svg" xmlns:xlink="http://www.w3.org/1999/xlink">
    <!-- Generator: Sketch 53.2 (72643) - https://sketchapp.com -->
    <title>045-toffee</title>
    <desc>Created with Sketch.</desc>
    <g id="Page-1" stroke="none" stroke-width="1" fill="none" fill-rule="evenodd">
        <g id="045-toffee" fill="#4A7CB2" fill-rule="nonzero">
            <path d="M193.183333,47.8666667 C191.696667,46.6833333 189.943333,46.2 188.176667,46.4566667 C187.743333,46.4166667 186.92,45.5933333 186.876667,45.2233333 L187.22,42.8266667 C187.536667,40.6333333 186.643333,38.24 184.833333,36.4333333 C183.023333,34.6233333 180.633333,33.72 178.44,34.0433333 L176.103333,34.3833333 C175.67,34.3433333 174.846667,33.5233333 174.803333,33.15 L175.146667,30.7533333 C175.463333,28.56 174.57,26.1666667 172.76,24.36 C170.95,22.5466667 168.563333,21.6366667 166.366667,21.97 L164.03,22.31 C163.596667,22.27 162.773333,21.45 162.73,21.0766667 L163.073333,18.68 C163.39,16.4866667 162.496667,14.0933333 160.686667,12.2866667 C158.876667,10.4733333 156.48,9.57666667 154.293333,9.89666667 L151.956667,10.2366667 C151.523333,10.1966667 150.7,9.37666667 150.656667,9.00333333 L150.716667,8.58333333 C150.973333,6.80333333 150.503333,5.09333333 149.353333,3.64666667 C147.5,1.31 144.326667,0.253333333 141.976667,0.0466666667 C138.95,-0.223333333 136.146667,0.726666667 133.856667,2.79 C131.27,5.12 129.793333,8.56333333 129.253333,10.5166667 C127.66,13.3166667 118.926667,29.6433333 115.353333,55.67 L110.036667,50.3533333 C104.206667,44.5266667 95.12,43.9733333 88.6133333,48.6 L88.4433333,48.3733333 L86.4666667,50.3533333 L86.4666667,50.3533333 L50.3566667,86.47 C43.86,92.9666667 43.86,103.54 50.3566667,110.036667 L54.1366667,113.816667 C44.0033333,114.903333 25.4966667,118.333333 10.12,129.216667 C3.38,131.66 -0.366666667,136.223333 0.0833333333,141.476667 C0.293333333,143.906667 1.37666667,147.186667 3.79,149.106667 C5.27333333,150.286667 7.02333333,150.776667 8.79666667,150.516667 C9.23,150.556667 10.0533333,151.376667 10.0966667,151.75 L9.75333333,154.146667 C9.44,156.343333 10.3333333,158.733333 12.1433333,160.543333 C13.95,162.353333 16.3433333,163.22 18.54,162.93 L20.8666667,162.586667 C21.3,162.626667 22.1266667,163.45 22.17,163.823333 L21.8266667,166.216667 C21.5133333,168.41 22.4033333,170.8 24.2133333,172.61 C26.02,174.423333 28.42,175.296667 30.6133333,175.003333 L32.94,174.66 C33.3733333,174.7 34.2,175.523333 34.2433333,175.896667 L33.9,178.29 C33.5833333,180.483333 34.4766667,182.873333 36.2833333,184.683333 C38.0933333,186.493333 40.4833333,187.383333 42.6833333,187.076667 L45.0166667,186.733333 C45.45,186.773333 46.2733333,187.593333 46.3166667,187.966667 L46.2566667,188.386667 C46,190.17 46.4733333,191.88 47.62,193.326667 C49.4733333,195.66 52.6433333,196.716667 54.9933333,196.923333 C55.33,196.953333 55.66,196.97 55.99,196.97 C58.6,196.97 61.02,196.04 63.04,194.25 C65.76,191.836667 67.1933333,188.36 67.7166667,186.456667 C69.3066667,183.66 78.04,167.33 81.6133333,141.296667 L86.4666667,146.15 C89.7166667,149.4 93.9833333,151.023333 98.25,151.023333 C102.52,151.023333 106.786667,149.4 110.036667,146.15 L110.093333,146.093333 L110.093333,146.093333 L139.29,116.896667 L139.29,116.896667 L146.15,110.036667 C152.646667,103.54 152.646667,92.9666667 146.15,86.47 L142.833333,83.1533333 C152.963333,82.0666667 171.473333,78.6366667 186.853333,67.7533333 C193.596667,65.32 197.34,60.7566667 196.89,55.4966667 C196.683333,53.0666667 195.6,49.7866667 193.183333,47.8666667 Z M110.843333,135.92 L68.0333333,78.22 L83.5333333,62.7166667 L87.6966667,58.55 L130.506667,116.253333 L110.843333,135.92 Z M61.76,183.446667 L61.32,184.19 L61.3033333,184.676667 C60.9733333,185.806667 59.34,190.526667 55.5833333,190.29 C54.1966667,190.166667 53.01,189.486667 52.8566667,189.336667 L52.9166667,188.916667 C53.2333333,186.723333 52.34,184.33 50.53,182.523333 C48.96,180.95 46.9533333,180.073333 45.0133333,180.073333 C44.7166667,180.073333 44.4233333,180.096667 44.13,180.136667 L41.8,180.48 C41.3666667,180.44 40.5433333,179.616667 40.4966667,179.243333 L40.84,176.85 C41.1533333,174.656667 40.2633333,172.266667 38.4533333,170.456667 C36.6433333,168.646667 34.25,167.76 32.0533333,168.063333 L29.7266667,168.406667 C29.2933333,168.366667 28.4666667,167.543333 28.4233333,167.17 L28.7666667,164.776667 C29.08,162.583333 28.19,160.193333 26.38,158.383333 C24.57,156.573333 22.1833333,155.693333 19.98,155.99 L17.65,156.333333 C17.2166667,156.293333 16.3933333,155.47 16.35,155.1 L16.6933333,152.703333 C17.01,150.51 16.1166667,148.12 14.3066667,146.31 C12.5,144.493333 10.11,143.606667 8,143.933333 C7.62666667,143.753333 6.85666667,142.47 6.72333333,140.91 C6.44666667,137.706667 11.6166667,135.753333 12.6566667,135.393333 L13.23,135.193333 L13.62,134.91 C31.28,122.223333 54.5233333,120.306667 60.3366667,120.023333 L64.0266667,123.713333 C63.65,123.91 63.3,124.173333 63.01,124.52 C58.7633333,129.543333 55.8966667,129.643333 50.1933333,129.84 C48.1566667,129.91 45.8466667,129.993333 43.18,130.326667 C41.3533333,130.553333 40.0566667,132.22 40.2866667,134.046667 C40.4966667,135.733333 41.9333333,136.966667 43.59,136.966667 C43.73,136.966667 43.8666667,136.956667 44.0066667,136.94 C46.3766667,136.643333 48.4333333,136.573333 50.4233333,136.503333 C53,136.413333 55.43,136.296667 57.8333333,135.703333 C52.02,143.446667 49.02,153.923333 50.2866667,164.046667 C50.4966667,165.733333 51.9333333,166.966667 53.59,166.966667 C53.73,166.966667 53.8666667,166.956667 54.0066667,166.94 C55.8333333,166.713333 57.13,165.046667 56.9,163.22 C55.3933333,151.18 61.3933333,138.106667 70.85,132.816667 C71.3466667,132.536667 71.7066667,132.13 71.9933333,131.68 L75.64,135.326667 C72.5566667,164.99 61.87,183.26 61.76,183.446667 Z M105.323333,141.436667 C101.423333,145.333333 95.08,145.336667 91.18,141.436667 L82.5733333,132.83 L63.04,113.296667 L55.0666667,105.323333 C51.17,101.423333 51.17,95.0833333 55.0666667,91.1833333 L63.2633333,82.9833333 L106.076667,140.683333 L105.323333,141.436667 Z M141.436667,105.323333 L135.273333,111.486667 L92.5733333,53.9333333 C94.2766667,52.7533333 96.26,52.1433333 98.2566667,52.1433333 C100.816667,52.1433333 103.376667,53.1166667 105.326667,55.0666667 L114.396667,64.1366667 L114.396667,64.1366667 L119.066667,68.8066667 L141.44,91.18 C143.316667,93.0566667 144.353333,95.5666667 144.353333,98.25 C144.353333,100.933333 143.316667,103.446667 141.436667,105.323333 Z M184.31,61.58 L183.353333,62.06 C165.693333,74.7533333 142.443333,76.6666667 136.633333,76.95 L133.013333,73.33 C133.446667,73.1333333 133.846667,72.84 134.176667,72.45 C138.423333,67.4233333 141.286667,67.3266667 146.99,67.13 C149.03,67.06 151.34,66.98 154.006667,66.6433333 C155.833333,66.4166667 157.13,64.75 156.9,62.9233333 C156.67,61.0966667 154.98,59.8233333 153.18,60.03 C150.81,60.3266667 148.75,60.3966667 146.76,60.4666667 C144.183333,60.5533333 141.756667,60.67 139.353333,61.2666667 C145.166667,53.5233333 148.166667,43.0466667 146.9,32.9266667 C146.673333,31.0966667 144.976667,29.82 143.18,30.0333333 C141.353333,30.26 140.056667,31.9266667 140.286667,33.7533333 C141.79,45.7933333 135.793333,58.8633333 126.336667,64.1566667 C125.786667,64.4666667 125.41,64.93 125.12,65.44 L121.333333,61.6466667 C124.416667,31.9833333 135.103333,13.7133333 135.213333,13.5266667 L135.666667,12.7633333 L135.673333,12.2833333 C136.02,11.1333333 137.716667,6.38666667 141.386667,6.68333333 C142.77,6.80666667 143.96,7.48666667 144.113333,7.63666667 L144.053333,8.05666667 C143.736667,10.25 144.63,12.6433333 146.44,14.45 C148.246667,16.26 150.633333,17.1466667 152.833333,16.84 L155.17,16.5 C155.603333,16.54 156.426667,17.36 156.47,17.7333333 L156.13,20.1333333 C155.813333,22.3266667 156.706667,24.72 158.516667,26.5266667 C160.326667,28.34 162.716667,29.2333333 164.91,28.9166667 L167.246667,28.5766667 C167.68,28.6166667 168.503333,29.4366667 168.546667,29.81 L168.203333,32.2066667 C167.886667,34.4 168.78,36.7933333 170.59,38.6 C172.4,40.41 174.786667,41.3133333 176.983333,40.99 L179.32,40.65 C179.753333,40.69 180.576667,41.51 180.62,41.8833333 L180.276667,44.28 C179.963333,46.4766667 180.856667,48.8666667 182.666667,50.6766667 C184.476667,52.4833333 186.876667,53.37 188.973333,53.0433333 C189.346667,53.2233333 190.116667,54.5033333 190.246667,56.0666667 C190.523333,59.2766667 185.35,61.2233333 184.31,61.58 Z" id="Shape"></path>
        </g>
    </g>
</svg>