<?xml version="1.0" encoding="UTF-8"?>
<svg width="200px" height="163px" viewBox="0 0 200 163" version="1.1" xmlns="http://www.w3.org/2000/svg" xmlns:xlink="http://www.w3.org/1999/xlink">
    <!-- Generator: Sketch 54.1 (76490) - https://sketchapp.com -->
    <title>008-bowling-pins</title>
    <desc>Created with Sketch.</desc>
    <g id="Page-1" stroke="none" stroke-width="1" fill="none" fill-rule="evenodd">
        <g id="008-bowling-pins" fill="#487BB4" fill-rule="nonzero">
            <path d="M199.25232,94.6075438 C198.954773,92.4713133 196.981812,90.9790039 194.844055,91.2780762 C192.707825,91.5740969 191.217041,93.5470582 191.514587,95.6848145 C191.96167,98.8983156 192.1875,101.96991 192.1875,104.8172 C192.1875,109.498596 191.899109,114.425659 191.436768,119.325256 L144.680786,119.325256 C144.218445,114.425659 143.93158,109.498596 143.93158,104.8172 C143.93158,82.7621461 153.727722,62.5610352 157.939148,54.8995973 C158.102417,54.6035766 158.256531,54.3029785 158.407593,54.0008547 L177.470398,54.0008547 C177.565002,54.2007445 177.650452,54.4021605 177.749634,54.5989992 C179.05426,57.2052 180.393982,60.0723266 181.620789,62.8921508 C182.481384,64.8696898 184.783936,65.7745359 186.761475,64.9139406 C188.739014,64.0533445 189.645386,61.7507934 188.783264,59.7732543 C187.483215,56.7855836 186.122131,53.8681031 184.735107,51.1001586 C181.983948,45.603943 182.171631,38.3621215 185.664368,33.2305906 C188.261414,29.4143676 189.524841,24.9465941 189.317322,20.3094484 C188.81073,8.96759023 179.512024,0.0473023438 168.148804,2.84217094e-14 C168.118286,2.84217094e-14 168.089295,2.84217094e-14 168.058777,2.84217094e-14 C162.391662,2.84217094e-14 157.060242,2.20031719 153.042602,6.20269766 C149.003601,10.2249145 146.780395,15.5792234 146.780395,21.279907 C146.780395,25.4470824 147.987366,29.4845582 150.27008,32.9544066 C153.814697,38.3422852 154.216004,45.4559328 151.094055,51.1352539 C148.309326,56.2011719 143.241882,66.4108277 139.779663,79.1091918 C139.24408,77.268982 138.661194,75.4013063 138.021851,73.5000609 C134.883118,64.1601563 131.201172,56.163025 128.665161,51.0986328 C125.933838,45.6420898 126.132202,38.3224488 129.592895,33.2305906 C132.191467,29.4174195 133.454895,24.9496461 133.247375,20.3094484 C132.740784,8.96911641 123.443604,0.0473023438 112.078857,2.84217094e-14 C112.049866,2.84217094e-14 112.020874,2.84217094e-14 111.990356,2.84217094e-14 C106.320191,2.84217094e-14 100.990295,2.20184336 96.9711305,6.20269766 C92.9321289,10.2264406 90.7073977,15.5807496 90.7073977,21.2814332 C90.7073977,25.4440309 91.9143676,29.4799805 94.1986086,32.9574586 C97.7630617,38.368225 98.1658937,45.4345703 95.0225828,51.1352539 C92.2576906,56.1706543 88.6032105,63.6795043 85.5804445,72.8149414 C76.4907836,64.7003172 64.5080566,59.7579957 51.3931273,59.7579957 C23.0545043,59.7579957 -1.13686838e-13,82.8125 -1.13686838e-13,111.151123 C-1.13686838e-13,129.502869 9.67254648,145.637512 24.1836547,154.730225 L8.52050781,154.730225 C6.36291484,154.730225 4.61425781,156.478882 4.61425781,158.636475 C4.61425781,160.794067 6.36291484,162.542725 8.52050781,162.542725 L51.3916016,162.542725 C64.3875121,162.542725 76.2680055,157.691955 85.3271484,149.710083 C85.6552125,151.350403 85.9481812,152.760315 86.1877441,153.88031 C87.2543336,158.898926 91.7572023,162.542725 96.8902586,162.542725 L127.085877,162.542725 C132.221985,162.542725 136.724854,158.900452 137.792969,153.88031 C138.450623,150.790405 139.237976,146.878052 140.023804,142.45758 C140.811157,146.878052 141.596985,150.790405 142.254639,153.881836 C143.322754,158.900452 147.825623,162.542725 152.961731,162.542725 L183.155823,162.542725 C188.290405,162.542725 192.793274,158.900452 193.861389,153.881836 C196.154785,143.11676 200,122.427368 200,104.8172 C200,101.611328 199.74823,98.1765746 199.25232,94.6075438 L199.25232,94.6075438 Z M175.236511,46.1883547 L160.826111,46.1883547 C160.827637,46.1700438 160.829162,46.1502074 160.832214,46.1318969 C161.082459,44.3054199 161.132812,42.4468992 160.972595,40.6097414 C160.948181,40.3274535 160.919189,40.0466918 160.88562,39.7659301 L175.216675,39.7659301 C175.186157,40.0390625 175.160217,40.3121949 175.137329,40.5883789 C175,42.2607422 175.022888,43.9575195 175.183105,45.6268313 C175.201416,45.8145141 175.215149,46.0006715 175.236511,46.1883547 L175.236511,46.1883547 Z M158.555603,11.7385863 C161.097717,9.20562734 164.471436,7.81402578 168.058777,7.81402578 L168.115234,7.81402578 C175.187683,7.84301758 181.196594,13.6047363 181.512451,20.6588746 C181.643677,23.5977172 180.845642,26.4251711 179.205322,28.8360594 C178.529358,29.8294066 177.935791,30.871582 177.420044,31.9534301 L158.639527,31.9534301 C158.10852,30.8242797 157.495117,29.7241211 156.796265,28.6621094 C155.352783,26.4694215 154.59137,23.9166258 154.59137,21.2814332 C154.59137,17.6727297 155.999756,14.2837523 158.555603,11.7385863 L158.555603,11.7385863 Z M190.551758,127.137756 C190.048218,131.033325 189.431762,135.105896 188.708496,139.309692 L147.409058,139.309692 C146.685791,135.102844 146.06781,131.031799 145.56427,127.137756 L190.551758,127.137756 Z M102.484131,11.7385863 C105.041504,9.19189453 108.451843,7.78656016 112.045288,7.8125 C119.117737,7.84301758 125.126648,13.6047363 125.440979,20.6604004 C125.57373,23.599243 124.775696,26.4251711 123.132324,28.8360594 C122.457886,29.8294066 121.864319,30.871582 121.350098,31.9534301 L102.56958,31.9534301 C102.038574,30.8242797 101.425171,29.7256469 100.724793,28.6636352 C99.2828367,26.4678953 98.5198977,23.9151 98.5198977,21.2814332 C98.5198977,17.6742555 99.9267578,14.2852781 102.484131,11.7385863 L102.484131,11.7385863 Z M119.065857,40.6173707 C118.920898,42.4606324 118.946838,44.3511961 119.166565,46.1883547 L104.756164,46.1883547 C104.893494,45.2011109 104.971313,44.2108156 104.99115,43.2220461 C105.015564,42.0684813 104.951477,40.9118652 104.815674,39.7659301 L117.358398,39.7659301 L119.146729,39.7659301 C119.114685,40.0497438 119.087219,40.333557 119.065857,40.6173707 Z M101.86615,54.9026488 C102.029419,54.6081543 102.175903,54.3029785 102.328491,54.0008547 L121.401977,54.0008547 C121.495056,54.1992188 121.580505,54.4006348 121.679687,54.5959473 C126.020813,63.2675172 136.117554,85.5194094 136.117554,104.815674 C136.117554,109.480286 135.820007,114.422607 135.354614,119.32373 L102.131653,119.32373 C103.230286,112.481689 102.935791,105.426025 101.255798,98.701477 C100.805664,96.8948363 100.256348,95.111084 99.6109008,93.3654785 C97.7523805,88.3255004 95.1049805,83.5784914 91.7388914,79.3182375 C94.9386598,68.3181762 99.4064332,59.3795777 101.86615,54.9026488 L101.86615,54.9026488 Z M132.633972,139.309692 L94.3801879,139.309692 C96.8521117,135.536194 98.8372805,131.42395 100.242615,127.137756 L134.472656,127.137756 C133.915711,131.448364 133.271789,135.583496 132.633972,139.309692 L132.633972,139.309692 Z M51.3916016,154.730225 C27.3620605,154.730225 7.8125,135.180664 7.8125,111.151123 C7.8125,87.121582 27.3620605,67.5720215 51.3916016,67.5720215 C68.2540895,67.5720215 82.9086305,77.1987914 90.1519773,91.244507 C95.5123902,101.681519 96.4263914,114.067078 92.6467895,125.177002 C91.6152953,128.208923 90.246582,131.115723 88.5803223,133.848572 C80.9143066,146.362305 67.112732,154.730225 51.3916016,154.730225 L51.3916016,154.730225 Z M127.085877,154.730225 L96.8902586,154.730225 C95.4208375,154.730225 94.1329957,153.689575 93.8278199,152.252197 C93.545532,150.926209 93.1838988,149.179077 92.779541,147.122192 L131.199646,147.122192 C130.805969,149.131775 130.445862,150.871277 130.151367,152.253723 C129.846191,153.689575 128.556824,154.730225 127.085877,154.730225 Z M183.155823,154.730225 L152.961731,154.730225 C151.490784,154.730225 150.201416,153.689575 149.89624,152.255249 C149.572754,150.735473 149.217224,149.008179 148.846436,147.122192 L187.271118,147.122192 C186.90033,149.008179 186.5448,150.735473 186.221313,152.255249 C185.916137,153.689575 184.62677,154.730225 183.155823,154.730225 L183.155823,154.730225 Z" id="Shape"></path>
            <path d="M28.7902832,99.6734617 C22.163391,99.6734617 16.7724609,105.065918 16.7724609,111.69281 C16.7724609,118.321228 22.163391,123.712158 28.7902832,123.712158 C35.4187012,123.712158 40.811157,118.321228 40.811157,111.69281 C40.811157,105.065918 35.4187012,99.6734617 28.7902832,99.6734617 L28.7902832,99.6734617 Z M28.7902832,115.899658 C26.4709473,115.899658 24.5849609,114.012146 24.5849609,111.69281 C24.5849609,109.373474 26.4709473,107.485962 28.7902832,107.485962 C31.1111449,107.485962 32.998657,109.373474 32.998657,111.69281 C32.998657,114.012146 31.1111449,115.899658 28.7902832,115.899658 Z" id="Shape"></path>
            <path d="M50.9185789,75.8026125 C44.2916871,75.8026125 38.8992309,81.1950684 38.8992309,87.8219605 C38.8992309,94.4503785 44.2916871,99.8413086 50.9185789,99.8413086 C57.5454711,99.8413086 62.9379273,94.4488523 62.9379273,87.8219605 C62.9379273,81.1950684 57.5454711,75.8026125 50.9185789,75.8026125 Z M50.9185789,92.0288086 C49.1821289,92.0288086 47.5830078,90.916443 46.9757078,89.2883301 C46.3607789,87.6403809 46.8673707,85.7376098 48.2101441,84.6069336 C49.5544434,83.4716797 51.5228273,83.3007812 53.0410766,84.1903688 C54.5501711,85.0769043 55.3726195,86.8545531 55.0582887,88.5772703 C54.6981812,90.550232 52.9220582,92.0288086 50.9185789,92.0288086 Z" id="Shape"></path>
            <path d="M20.5276488,58.2489016 C21.1746215,58.2489016 21.8307496,58.088684 22.4349977,57.7499391 C22.6486207,57.6309203 44.0124512,45.8938598 68.3364867,53.3660891 C70.399475,53.9978027 72.5845336,52.8411867 73.2177734,50.7781984 C73.8525391,48.7167359 72.6943969,46.5301516 70.6314086,45.8969117 C43.1442262,37.4526977 19.6029664,50.3799438 18.6126711,50.9353637 C16.7312621,51.9897461 16.0614016,54.3701172 17.1173094,56.2530516 C17.8329469,57.5302125 19.1604613,58.2489016 20.5276488,58.2489016 Z" id="Path"></path>
            <path d="M50.9185789,34.4131469 L50.9338379,34.4131469 C56.0974121,34.3933105 61.2762453,34.8937988 67.2012328,35.9893797 C67.4423219,36.0336305 67.680359,36.0549926 67.9168703,36.0549926 C69.7631836,36.0549926 71.4050293,34.7396852 71.7529297,32.8582766 C72.1450805,30.7373047 70.7443238,28.6987305 68.6218262,28.3065797 C62.2055055,27.1209719 56.5734863,26.5884398 50.9033203,26.6006469 C48.7457273,26.6098023 47.0046996,28.3645629 47.0123289,30.5221559 C47.0214844,32.6751711 48.7686156,34.4131469 50.9185789,34.4131469 Z" id="Path"></path>
            <path d="M188.328552,74.1271973 C186.825562,75.6301879 186.827088,78.1478883 188.328552,79.6508789 C189.834595,81.1584473 192.344666,81.1538695 193.852234,79.6508789 C195.35675,78.1494141 195.358277,75.6286621 193.852234,74.1271973 C192.346191,72.6287844 189.831543,72.6226805 188.328552,74.1271973 Z" id="Path"></path>
        </g>
    </g>
</svg>