<?xml version="1.0" encoding="UTF-8"?>
<svg width="200px" height="188px" viewBox="0 0 200 188" version="1.1" xmlns="http://www.w3.org/2000/svg" xmlns:xlink="http://www.w3.org/1999/xlink">
    <!-- Generator: Sketch 53.2 (72643) - https://sketchapp.com -->
    <title>044-first-aid-kit</title>
    <desc>Created with Sketch.</desc>
    <g id="Page-1" stroke="none" stroke-width="1" fill="none" fill-rule="evenodd">
        <g id="044-first-aid-kit" fill="#4A7CB2" fill-rule="nonzero">
            <path d="M154.6875,85.9375 C152.53125,85.9375 150.78125,87.6875 150.78125,89.84375 C150.78125,92 152.53125,93.75 154.6875,93.75 C156.84375,93.75 158.59375,92 158.59375,89.84375 C158.59375,87.6875 156.84375,85.9375 154.6875,85.9375 Z" id="Path"></path>
            <path d="M45.3125,85.9375 C43.15625,85.9375 41.40625,87.6875 41.40625,89.84375 C41.40625,92 43.15625,93.75 45.3125,93.75 C47.46875,93.75 49.21875,92 49.21875,89.84375 C49.21875,87.6875 47.46875,85.9375 45.3125,85.9375 Z" id="Path"></path>
            <path d="M135.15625,101.5625 L115.625,101.5625 L115.625,82.03125 C115.625,79.8742187 113.875781,78.125 111.71875,78.125 L88.28125,78.125 C86.1242188,78.125 84.375,79.8742187 84.375,82.03125 L84.375,101.5625 L64.84375,101.5625 C62.6867188,101.5625 60.9375,103.311719 60.9375,105.46875 L60.9375,128.90625 C60.9375,131.063281 62.6867188,132.8125 64.84375,132.8125 L84.375,132.8125 L84.375,152.34375 C84.375,154.500781 86.1242188,156.25 88.28125,156.25 L111.71875,156.25 C113.875781,156.25 115.625,154.500781 115.625,152.34375 L115.625,132.8125 L135.15625,132.8125 C137.313281,132.8125 139.0625,131.063281 139.0625,128.90625 L139.0625,105.46875 C139.0625,103.311719 137.313281,101.5625 135.15625,101.5625 Z M131.25,125 L111.71875,125 C109.561719,125 107.8125,126.749219 107.8125,128.90625 L107.8125,148.4375 L92.1875,148.4375 L92.1875,128.90625 C92.1875,126.749219 90.4382812,125 88.28125,125 L68.75,125 L68.75,109.375 L88.28125,109.375 C90.4382812,109.375 92.1875,107.625781 92.1875,105.46875 L92.1875,85.9375 L107.8125,85.9375 L107.8125,105.46875 C107.8125,107.625781 109.561719,109.375 111.71875,109.375 L131.25,109.375 L131.25,125 Z" id="Shape"></path>
            <path d="M180.46875,46.875 L150.78125,46.875 L150.78125,23.4375 C150.78125,10.5140625 140.267188,0 127.34375,0 L72.65625,0 C59.7328125,0 49.21875,10.5140625 49.21875,23.4375 L49.21875,46.875 L19.53125,46.875 C8.76171875,46.875 0,55.6367188 0,66.40625 L0,167.96875 C0,178.738281 8.76171875,187.5 19.53125,187.5 L180.46875,187.5 C191.238281,187.5 200,178.738281 200,167.96875 L200,66.40625 C200,55.6367188 191.238281,46.875 180.46875,46.875 Z M57.03125,23.4375 C57.03125,14.821875 64.040625,7.8125 72.65625,7.8125 L127.34375,7.8125 C135.959375,7.8125 142.96875,14.821875 142.96875,23.4375 L142.96875,46.875 L135.15625,46.875 L135.15625,27.34375 C135.15625,20.8820312 129.899219,15.625 123.4375,15.625 L76.5625,15.625 C70.1007812,15.625 64.84375,20.8820312 64.84375,27.34375 L64.84375,46.875 L57.03125,46.875 L57.03125,23.4375 Z M127.34375,27.34375 L127.34375,46.875 L72.65625,46.875 L72.65625,27.34375 C72.65625,25.1898438 74.4085937,23.4375 76.5625,23.4375 L123.4375,23.4375 C125.591406,23.4375 127.34375,25.1898438 127.34375,27.34375 Z M25.78125,179.6875 L19.53125,179.6875 C13.0695312,179.6875 7.8125,174.430469 7.8125,167.96875 L7.8125,66.40625 C7.8125,59.9445312 13.0695312,54.6875 19.53125,54.6875 L25.78125,54.6875 L25.78125,179.6875 Z M166.40625,179.6875 L158.59375,179.6875 L158.59375,105.46875 C158.59375,103.311719 156.844531,101.5625 154.6875,101.5625 C152.530469,101.5625 150.78125,103.311719 150.78125,105.46875 L150.78125,179.6875 L49.21875,179.6875 L49.21875,105.46875 C49.21875,103.311719 47.4695313,101.5625 45.3125,101.5625 C43.1554687,101.5625 41.40625,103.311719 41.40625,105.46875 L41.40625,179.6875 L33.59375,179.6875 L33.59375,54.6875 L41.40625,54.6875 L41.40625,74.21875 C41.40625,76.3757812 43.1554687,78.125 45.3125,78.125 C47.4695313,78.125 49.21875,76.3757812 49.21875,74.21875 L49.21875,54.6875 L150.78125,54.6875 L150.78125,74.21875 C150.78125,76.3757812 152.530469,78.125 154.6875,78.125 C156.844531,78.125 158.59375,76.3757812 158.59375,74.21875 L158.59375,54.6875 L166.40625,54.6875 L166.40625,179.6875 Z M192.1875,167.96875 C192.1875,174.430469 186.930469,179.6875 180.46875,179.6875 L174.21875,179.6875 L174.21875,54.6875 L180.46875,54.6875 C186.930469,54.6875 192.1875,59.9445312 192.1875,66.40625 L192.1875,167.96875 Z" id="Shape"></path>
        </g>
    </g>
</svg>