<?xml version="1.0" encoding="UTF-8"?>
<svg width="200px" height="113px" viewBox="0 0 200 113" version="1.1" xmlns="http://www.w3.org/2000/svg" xmlns:xlink="http://www.w3.org/1999/xlink">
    <!-- Generator: Sketch 53.2 (72643) - https://sketchapp.com -->
    <title>002-bicycle</title>
    <desc>Created with Sketch.</desc>
    <g id="Page-1" stroke="none" stroke-width="1" fill="none" fill-rule="evenodd">
        <g id="002-bicycle" fill="#4A7CB2" fill-rule="nonzero">
            <path d="M157.320824,27.3871854 C151.510297,27.3871854 145.968879,28.5578947 140.917162,30.6732265 L128.837529,7.23569794 L145.720824,7.23569794 C147.552403,7.23569794 149.042563,8.72585812 149.042563,10.5574371 C149.042563,12.389016 147.552403,13.8791762 145.720824,13.8791762 L142.118535,13.8791762 C140.222426,13.8791762 138.686041,15.4160183 138.686041,17.3116705 C138.686041,19.2073227 140.222426,20.7441648 142.118535,20.7441648 L145.720824,20.7441648 C151.337757,20.7441648 155.907551,16.1743707 155.907551,10.5574371 C155.907551,4.94050343 151.338215,0.370709382 145.720824,0.370709382 L123.207323,0.370709382 C122.010526,0.370709382 120.899771,0.994508009 120.27643,2.01647597 C119.653547,3.03844394 119.60778,4.31167048 120.156064,5.37574371 L126.162929,17.0311213 L76.6237986,17.0311213 L71.626087,7.23569794 L79.5295195,7.23569794 C81.4256293,7.23569794 82.9620137,5.69885584 82.9620137,3.80320366 C82.9620137,1.90755149 81.4256293,0.370709382 79.5295195,0.370709382 L57.0155606,0.370709382 C55.1194508,0.370709382 53.5830664,1.90755149 53.5830664,3.80320366 C53.5830664,5.69885584 55.1194508,7.23569794 57.0155606,7.23569794 L63.9189931,7.23569794 L70.5899314,20.3102975 L62.7491991,32.4581236 C56.7478261,29.224714 49.8883295,27.3871854 42.606865,27.3871854 C19.1135011,27.3871854 0,46.5002288 0,69.9935927 C0,93.4869565 19.1135011,112.600458 42.606865,112.600458 C64.9446224,112.600458 83.3212815,95.3203661 85.0750572,73.426087 L95.1469108,73.426087 L91.2343249,86.1574371 L88.9816934,86.1574371 C87.0855835,86.1574371 85.5491991,87.6942792 85.5491991,89.5899314 C85.5491991,91.4855835 87.0855835,93.0224256 88.9816934,93.0224256 L101.338673,93.0224256 C103.234783,93.0224256 104.771167,91.4855835 104.771167,89.5899314 C104.771167,87.6942792 103.234783,86.1574371 101.338673,86.1574371 L98.4160183,86.1574371 L102.932723,71.4599542 L131.493822,27.3743707 L134.820595,33.828833 C122.757895,41.3610984 114.713959,54.7546911 114.713959,69.9935927 C114.713959,93.4869565 133.82746,112.600458 157.321281,112.600458 C180.814645,112.600458 199.928146,93.4869565 199.928146,69.9935927 C199.927689,46.5002288 180.814188,27.3871854 157.320824,27.3871854 Z M74.197254,27.3803204 L94.1871854,66.5610984 L85.0745995,66.5610984 C84.0851259,54.210984 77.8059497,43.3308924 68.5102975,36.1908467 L74.197254,27.3803204 Z M78.1803204,66.5610984 L48.9080092,66.5610984 L64.771167,41.984897 C72.1894737,47.8681922 77.228833,56.6242563 78.1803204,66.5610984 Z M42.606865,105.735469 C22.8983982,105.735469 6.86498856,89.7020595 6.86498856,69.9935927 C6.86498856,50.2855835 22.8983982,34.2517162 42.606865,34.2517162 C48.5171625,34.2517162 54.0919908,35.7025172 59.008238,38.2530892 L39.7226545,68.1318078 C39.0411899,69.187643 38.9913043,70.5318078 39.5926773,71.6352403 C40.1935927,72.7386728 41.3501144,73.4256293 42.606865,73.4256293 L78.1803204,73.4256293 C76.4466819,91.5295195 61.1569794,105.735469 42.606865,105.735469 Z M100.145995,63.1345538 L80.1263158,23.8956522 L125.567506,23.8956522 L100.145995,63.1345538 Z M157.320824,105.735469 C137.612357,105.735469 121.57849,89.7016018 121.57849,69.9935927 C121.57849,57.4086957 128.122197,46.3304348 137.98032,39.9601831 L154.269565,71.5661327 C154.879176,72.7482838 156.079176,73.4265446 157.32357,73.4265446 C157.853089,73.4265446 158.390389,73.3034325 158.893364,73.0443936 C160.578947,72.1762014 161.240732,70.1061785 160.372082,68.420595 L144.077803,36.805492 C148.176659,35.1643021 152.642563,34.2512586 157.320824,34.2512586 C177.029291,34.2512586 193.0627,50.2851259 193.0627,69.993135 C193.0627,89.7020595 177.029291,105.735469 157.320824,105.735469 Z" id="Shape"></path>
        </g>
    </g>
</svg>