<?xml version="1.0" encoding="UTF-8"?>
<svg width="141px" height="200px" viewBox="0 0 141 200" version="1.1" xmlns="http://www.w3.org/2000/svg" xmlns:xlink="http://www.w3.org/1999/xlink">
    <!-- Generator: Sketch 53.2 (72643) - https://sketchapp.com -->
    <title>013-triangular-flag-waving</title>
    <desc>Created with Sketch.</desc>
    <g id="Page-1" stroke="none" stroke-width="1" fill="none" fill-rule="evenodd">
        <g id="013-triangular-flag-waving" fill="#4A7CB2" fill-rule="nonzero">
            <path d="M140.018672,51.9813278 C139.50332,51.3286307 138.646473,51.046888 137.846058,51.2655602 C137.648548,51.3186722 117.892116,56.4979253 96.7149378,44.9742739 C80.8004149,36.3149378 77.1634855,30.4626556 76.553112,29.2713693 L76.553112,19.0809129 C76.553112,19.0356846 76.5427386,18.993361 76.539834,18.9489627 C76.5369295,18.9041494 76.5419087,18.8605809 76.5360996,18.8153527 C76.5087137,18.6012448 75.8161826,13.5136929 72.0452282,8.67012448 C68.5684647,4.20497925 61.7485477,-0.900414938 48.9995851,0.13526971 C26.9941909,1.9219917 17.3377593,5.29294606 13.2427386,7.4780083 C12.9099585,7.25020747 12.5078838,7.11618257 12.0738589,7.11618257 L2.47261411,7.11618257 C1.32655602,7.11618257 0.397925311,8.04522822 0.397925311,9.19087137 L0.397925311,197.709544 C0.397925311,198.855187 1.32655602,199.784232 2.47261411,199.784232 L12.073444,199.784232 C13.2195021,199.784232 14.1481328,198.855187 14.1481328,197.709544 L14.1481328,86.4842324 C19.0755187,84.3626556 38.3925311,76.5875519 56.7742739,76.5875519 C57.280083,76.5875519 57.766805,76.5979253 58.240249,76.6153527 L58.240249,99.3008299 C58.240249,99.3103734 58.2414938,99.3195021 58.2419087,99.3290456 C58.2423237,99.3460581 58.2439834,99.3630705 58.2448133,99.379668 C58.2497925,99.5082988 58.2643154,99.6356846 58.2921162,99.7593361 C58.2925311,99.7605809 58.2921162,99.7622407 58.2925311,99.7634855 C58.2937759,99.7688797 58.2962656,99.773444 58.2975104,99.7788382 C58.3211618,99.8780083 58.353112,99.9742739 58.3908714,100.068465 C58.3995851,100.090456 58.4078838,100.112448 58.4170124,100.134025 C58.4572614,100.225726 58.5033195,100.314108 58.5564315,100.39917 C58.5697095,100.420332 58.5842324,100.439834 58.5979253,100.460166 C58.6448133,100.529461 58.6954357,100.595436 58.7502075,100.658921 C58.7651452,100.676349 58.7792531,100.694191 58.7946058,100.710788 C58.8518672,100.772614 58.9124481,100.83195 58.9780083,100.887137 C58.9858921,100.893776 58.9954357,100.89834 59.0033195,100.904979 C59.0614108,100.952697 59.1244813,100.992946 59.1871369,101.034025 C59.2236515,101.057676 59.2580913,101.084647 59.2958506,101.106224 C59.366805,101.146473 59.4423237,101.178008 59.5174274,101.209544 C59.5502075,101.223237 59.5813278,101.241079 59.6149378,101.253112 C59.7170124,101.290041 59.8228216,101.317427 59.9302905,101.337759 C59.9385892,101.339419 59.946473,101.342739 59.9547718,101.343983 C60.0717842,101.36473 60.1912863,101.375934 60.3124481,101.375934 C60.4161826,101.375934 60.5207469,101.365145 60.6257261,101.348963 C60.6390041,101.346888 60.6526971,101.347718 60.6659751,101.345643 C60.7232365,101.335685 61.1572614,101.257676 61.8514523,101.061411 C65.7863071,100.073859 80.0485477,96.2497925 96.5672199,88.8804979 C128.923651,74.4460581 139.765145,55.0784232 140.211203,54.2605809 C140.609959,53.5302905 140.534025,52.63361 140.018672,51.9813278 Z M4.5473029,195.63527 L4.5473029,87.2078838 L9.99875519,87.2078838 L9.99875519,195.63527 L4.5473029,195.63527 Z M72.4033195,85.1547718 C72.4041494,85.2319502 72.4190871,85.3049793 72.4282158,85.380083 C72.4352697,85.439834 72.4360996,85.5012448 72.4481328,85.5593361 C72.4639004,85.6356846 72.4921162,85.7062241 72.5161826,85.7792531 L72.5074689,85.7821577 C72.5074689,85.7821577 72.4925311,85.7485477 72.4784232,85.6813278 C72.4846473,85.7107884 73.0369295,88.6713693 67.460166,93.433195 C65.6585062,94.9717842 63.8033195,95.9236515 62.3896266,96.4929461 L62.3896266,77.0410788 C72.0676349,78.7576763 72.3937759,84.8145228 72.4033195,85.1547718 Z M94.8775934,85.0904564 C86.8377593,88.6771784 79.3560166,91.4033195 73.3846473,93.360166 C76.8850622,89.1630705 76.7647303,86.0448133 76.5526971,84.9070539 L76.5526971,50.946473 C76.5526971,49.8008299 75.6240664,48.8717842 74.4780083,48.8717842 C73.3319502,48.8717842 72.4033195,49.8008299 72.4033195,50.946473 L72.4033195,77.0078838 C68.9485477,73.9751037 63.7058091,72.4377593 56.7742739,72.4377593 C39.0547718,72.4377593 21.0813278,79.0962656 14.1481328,81.9705394 L14.1481328,30.6344398 C14.1481328,29.4887967 13.2195021,28.559751 12.073444,28.559751 C10.9273859,28.559751 9.99875519,29.4887967 9.99875519,30.6344398 L9.99875519,83.0585062 L4.5473029,83.0585062 L4.5473029,11.2659751 L9.99875519,11.2659751 L9.99875519,18.1784232 C9.99875519,19.3240664 10.9273859,20.253112 12.073444,20.253112 C13.2195021,20.253112 14.1481328,19.3240664 14.1481328,18.1784232 L14.1481328,11.7506224 C16.0643154,10.4560166 24,6.32821577 49.3348548,4.27095436 C69.2261411,2.65352697 72.1514523,17.6452282 72.4037344,19.2323651 L72.4037344,36.7871369 C72.4037344,37.9327801 73.3323651,38.8618257 74.4784232,38.8618257 C75.6244813,38.8618257 76.553112,37.9327801 76.553112,36.7871369 L76.553112,35.9240664 C79.679668,39.0751037 85.160166,43.4103734 94.7319502,48.6186722 C110.979253,57.4593361 126.237344,57.1547718 133.870954,56.1925311 C129.047303,62.4726141 117.292116,75.0912863 94.8775934,85.0904564 Z" id="Shape"></path>
        </g>
    </g>
</svg>