<?xml version="1.0" encoding="UTF-8"?>
<svg width="134px" height="200px" viewBox="0 0 134 200" version="1.1" xmlns="http://www.w3.org/2000/svg" xmlns:xlink="http://www.w3.org/1999/xlink">
    <!-- Generator: Sketch 53.2 (72643) - https://sketchapp.com -->
    <title>026-trousers</title>
    <desc>Created with Sketch.</desc>
    <g id="Page-1" stroke="none" stroke-width="1" fill="none" fill-rule="evenodd">
        <g id="026-trousers" fill="#4A7CB2" fill-rule="nonzero">
            <path d="M83.0239609,49.4171149 C83.8704156,51.6953545 82.7095355,54.2288509 80.4312958,55.0753056 C79.9261614,55.2630807 79.408313,55.3520782 78.8987775,55.3520782 C77.1124694,55.3520782 75.4317848,54.2557457 74.7726161,52.4826406 L66.609291,30.5163814 L58.4459658,52.4826406 C57.7872861,54.2557457 56.1066015,55.3520782 54.3202934,55.3520782 C53.8107579,55.3520782 53.2929095,55.2625917 52.7877751,55.0753056 C50.5095355,54.2288509 49.3486553,51.6953545 50.195599,49.4171149 L60.2787286,22.2845966 L57.9193154,22.2845966 C55.4885086,22.2845966 53.5183374,20.3144254 53.5183374,17.8836186 C53.5183374,15.4528117 55.4885086,13.4826406 57.9193154,13.4826406 L75.2982885,13.4826406 C77.7290954,13.4826406 79.6992665,15.4528117 79.6992665,17.8836186 C79.6992665,20.3144254 77.7290954,22.2845966 75.2982885,22.2845966 L72.9398533,22.2845966 L83.0239609,49.4171149 Z M127.933985,166.407824 L127.676773,169.1511 C128.2489,169.929095 129.752078,171.983863 129.752078,171.983863 C130.375061,172.835697 130.671883,173.88313 130.587775,174.934474 L129.508068,188.393643 C129.008313,194.639609 123.513447,199.72176 117.259658,199.72176 L80.5046455,199.72176 C74.0616137,199.72176 68.8195599,194.482152 68.8195599,188.042054 L68.8195599,158.959902 C68.8195599,158.220538 71.5462103,152.86357 72.00978,152.016626 C72.0239609,151.953056 72.0425428,151.889976 72.0596577,151.826895 C71.4787286,136.121271 71.005379,123.885575 70.5320293,112.30709 C70.1144254,102.088998 69.6831296,91.8709046 69.2523227,81.6533007 L68.9070905,73.4498778 C68.1520782,73.3633252 67.3848411,73.3178484 66.6102689,73.3178484 C65.8352078,73.3178484 65.0674817,73.3633252 64.3119804,73.4498778 L63.9183374,82.805379 C63.5041565,92.6386308 63.0899756,102.472861 62.6880196,112.306601 C62.2166259,123.827384 61.7295844,136.418093 61.1603912,151.830807 C61.1765281,151.891932 61.19511,151.953056 61.208802,152.01467 C61.7046455,152.920782 64.399022,158.220049 64.399022,158.959413 L64.399022,188.041565 C64.399022,194.481663 59.1574572,199.721271 52.7149144,199.721271 L15.9599022,199.721271 C9.70660147,199.721271 4.21173594,194.639609 3.71100244,188.393154 L2.63178484,174.933007 C2.54816626,173.88313 4.84694377,170.095844 5.54180929,169.150611 L5.28655257,166.430318 C3.27041565,144.959902 1.18533007,122.757457 0.413691932,100.831296 C-0.33398533,79.5139364 0.545232274,56.5119804 3.10122249,30.5105134 C3.10757946,30.4464548 3.11540342,30.3828851 3.12420538,30.3188264 C3.7799511,25.7276284 7.19755501,21.7804401 11.4899756,20.1036675 L11.4899756,4.400978 C11.4899756,1.97017115 13.4601467,0 15.8909535,0 L117.327139,0 C119.757946,0 121.728117,1.97017115 121.728117,4.400978 L121.728117,20.1046455 C126.020538,21.7814181 129.437653,25.7281174 130.09291,30.3193154 C130.1022,30.3828851 130.110024,30.4469438 130.116381,30.5110024 C132.672861,56.5080685 133.551589,79.5100244 132.802445,100.831785 C132.033741,122.750122 129.949633,144.944254 127.933985,166.407824 Z M121.68313,175.862103 C121.417115,175.498289 118.542787,174.028362 117.781418,172.975061 L108.689487,160.389731 C107.266504,158.41956 107.709535,155.66846 109.679707,154.244988 C111.650367,152.822494 114.401467,153.265526 115.82445,155.235208 L119.644499,160.523227 C121.492421,140.769682 123.305623,120.475795 124.006357,100.522249 C124.740342,79.6278729 123.877262,57.0459658 121.367726,31.4899756 C121.066504,29.7090465 119.093399,28.0464548 117.25868,28.0464548 L98.5222494,28.0464548 C96.0914425,28.0464548 94.1212714,26.0762836 94.1212714,23.6454768 C94.1212714,21.2146699 96.0914425,19.2444988 98.5222494,19.2444988 L112.926161,19.2444988 L112.926161,8.80195599 L20.2924205,8.80195599 L20.2924205,19.2440098 L34.6963325,19.2440098 C37.1271394,19.2440098 39.0973105,21.2141809 39.0973105,23.6449878 C39.0973105,26.0757946 37.1271394,28.0459658 34.6963325,28.0459658 L15.9599022,28.0459658 C14.1246944,28.0459658 12.1506112,29.7085575 11.8498778,31.4894866 C9.34132029,57.0498778 8.47775061,79.6312958 9.21124694,100.522249 C9.91344743,120.475306 11.7266504,140.768215 13.5740831,160.522738 L17.394132,155.234719 C18.8171149,153.264059 21.5687042,152.822005 23.5388753,154.244499 C25.5090465,155.667971 25.9525672,158.419071 24.5290954,160.389242 L15.4371638,172.974572 C14.6762836,174.027873 11.802445,175.4978 11.5369193,175.860636 L12.4850856,187.690954 C12.6229829,189.410758 14.2469438,190.919804 15.9599022,190.919804 L52.7149144,190.919804 C54.2772616,190.919804 55.597066,189.601956 55.597066,188.042054 L55.597066,182.782396 L27.1574572,182.782396 C24.7266504,182.782396 22.7564792,180.812225 22.7564792,178.381418 C22.7564792,175.950611 24.7266504,173.98044 27.1574572,173.98044 L55.597066,173.98044 L55.597066,160.088509 L54.9794621,158.962347 C54.2704156,157.670905 44.2533007,142.957457 44.2533007,142.957457 C42.8303178,140.987286 43.2738386,138.236675 45.2440098,136.813203 C47.2141809,135.39022 49.9657702,135.833741 51.3887531,137.803912 L52.802934,139.761858 C53.192176,129.455257 53.5466993,120.410758 53.8929095,111.947677 C54.2953545,102.110513 54.7095355,92.2733496 55.1242054,82.4361858 L55.3486553,77.0929095 C54.5608802,77.6845966 53.6347188,77.9775061 52.7114914,77.9775061 C51.4440098,77.9775061 50.1858191,77.4327628 49.3158924,76.3789731 C47.7677262,74.5046455 48.0322738,71.7310513 49.9066015,70.1828851 C54.3310513,66.5286064 60.2630807,64.5163814 66.60978,64.5163814 C72.9579462,64.5163814 78.8904645,66.5290954 83.3134474,70.1833741 C85.1872861,71.7315403 85.4513447,74.5056235 83.9031785,76.3794621 C82.398044,78.200489 79.7388753,78.4948655 77.8699267,77.0904645 L78.0464548,81.2831296 C78.4772616,91.5041565 78.9085575,101.725672 79.3261614,111.947188 C79.6753056,120.484597 80.0244499,129.386308 80.4166259,139.760391 L81.8308068,137.802934 C83.2537897,135.832763 86.00489,135.389242 87.9755501,136.812714 C89.9457213,138.236186 90.3892421,140.987286 88.9657702,142.957457 C88.9657702,142.957457 79.0112469,157.555501 78.3344743,158.788264 L77.6210269,160.08802 L77.6210269,173.979951 L106.061614,173.979951 C108.492421,173.979951 110.462592,175.950122 110.462592,178.380929 C110.462592,180.811736 108.492421,182.781907 106.061614,182.781907 L77.6210269,182.781907 L77.6210269,188.042054 C77.6210269,189.601467 78.9413203,190.919804 80.5041565,190.919804 L117.259169,190.919804 C118.972616,190.919804 120.595599,189.411247 120.733007,187.690954 L121.68313,175.862103 Z" id="XMLID_515_"></path>
        </g>
    </g>
</svg>