<?xml version="1.0" encoding="UTF-8"?>
<svg width="167px" height="200px" viewBox="0 0 167 200" version="1.1" xmlns="http://www.w3.org/2000/svg" xmlns:xlink="http://www.w3.org/1999/xlink">
    <!-- Generator: Sketch 53.2 (72643) - https://sketchapp.com -->
    <title>007-clothes</title>
    <desc>Created with Sketch.</desc>
    <g id="Page-1" stroke="none" stroke-width="1" fill="none" fill-rule="evenodd">
        <g id="Artboard" transform="translate(-1286.000000, -700.000000)" fill="#4A7CB2" fill-rule="nonzero">
            <g id="007-clothes" transform="translate(1286.000000, 700.000000)">
                <polygon id="Path" points="66.6666667 93.3333333 73.3333333 93.3333333 73.3333333 100 66.6666667 100"></polygon>
                <polygon id="Path" points="66.6666667 113.333333 73.3333333 113.333333 73.3333333 120 66.6666667 120"></polygon>
                <polygon id="Path" points="66.6666667 133.333333 73.3333333 133.333333 73.3333333 140 66.6666667 140"></polygon>
                <polygon id="Path" points="66.6666667 153.333333 73.3333333 153.333333 73.3333333 160 66.6666667 160"></polygon>
                <path d="M156.069167,25.4229167 L111.634167,0.427916667 L111.631667,0.432916667 C111.134062,0.150682378 110.57207,0.00157356343 110,0 L56.6666667,0 C56.0945968,0.00157356343 55.5326044,0.150682378 55.035,0.432916667 L55.0325,0.427916667 L10.5975,25.4229167 C4.02992777,29.0939379 0.0922375201,36.1531842 0.419166667,43.67 L6.66916667,196.8025 C6.74203636,198.589228 8.21178645,200.000144 10,200 L40,200 C41.8409492,200 43.3333333,198.507616 43.3333333,196.666667 L43.3333333,186.666667 L123.333333,186.666667 L123.333333,196.666667 C123.333333,198.507616 124.825718,200 126.666667,200 L156.666667,200 C158.454719,199.999921 159.92422,198.589067 159.997083,196.8025 L166.247083,43.67 C166.574095,36.1532737 162.636578,29.0940497 156.069167,25.4229167 L156.069167,25.4229167 Z M83.3333333,81.6 L65.0833333,20 L101.5875,20 L83.3333333,81.6 Z M105.535833,6.66666667 L103.560417,13.3333333 L63.10625,13.3333333 L61.1308333,6.66666667 L105.535833,6.66666667 Z M36.6666667,193.333333 L13.2,193.333333 L7.08,43.3983333 C6.86140217,38.3864973 9.48653946,33.6794657 13.8654167,31.2316667 L54.6570833,8.28583333 L80,93.81625 L80,166.666667 L33.3333333,166.666667 L33.3333333,87.2083333 L39.8291667,67.72125 L33.5041667,65.6129167 L30.6433333,74.19625 L26.5875,55.94625 L20.0791667,57.3920833 L26.6666667,87.0325 L26.6666667,170 C26.6665987,170.272508 26.7000442,170.54399 26.76625,170.808333 L30.0995833,184.141667 C30.4705045,185.625583 31.8037617,186.666626 33.3333333,186.666667 L36.6666667,186.666667 L36.6666667,193.333333 Z M80,180 L35.9358333,180 L34.2691667,173.333333 L80,173.333333 L80,180 Z M86.6666667,173.333333 L132.3975,173.333333 L130.730833,180 L86.6666667,180 L86.6666667,173.333333 Z M159.586667,43.3983333 L153.466667,193.333333 L130,193.333333 L130,186.666667 L133.333333,186.666667 C134.862905,186.666626 136.196162,185.625583 136.567083,184.141667 L139.900417,170.808333 C139.966622,170.54399 140.000068,170.272508 140,170 L140,87.0325 L146.5875,57.3895833 L140.079167,55.94375 L136.023333,74.19375 L133.1625,65.6104167 L126.8375,67.71875 L133.333333,87.2083333 L133.333333,166.666667 L86.6666667,166.666667 L86.6666667,93.81625 L112.008333,8.2875 L152.8,31.2333333 C157.178807,33.6805233 159.804376,38.3868171 159.586667,43.3983333 L159.586667,43.3983333 Z" id="Shape"></path>
            </g>
        </g>
    </g>
</svg>