<?xml version="1.0" encoding="UTF-8"?>
<svg width="182px" height="200px" viewBox="0 0 182 200" version="1.1" xmlns="http://www.w3.org/2000/svg" xmlns:xlink="http://www.w3.org/1999/xlink">
    <!-- Generator: Sketch 53.2 (72643) - https://sketchapp.com -->
    <title>006-referee</title>
    <desc>Created with Sketch.</desc>
    <g id="Page-1" stroke="none" stroke-width="1" fill="none" fill-rule="evenodd">
        <g id="Artboard" transform="translate(-1008.000000, -700.000000)" fill="#4A7CB2" fill-rule="nonzero">
            <g id="006-referee" transform="translate(1008.000000, 700.000000)">
                <path d="M173.977734,140.539844 C168.755469,133.558594 161.578516,128.563281 153.219531,126.091016 C153.217969,126.090625 153.216797,126.089844 153.215625,126.089453 L151.994531,125.708594 C151.99375,125.708203 151.992969,125.708203 151.991797,125.707812 L138.612891,121.536328 C138.601172,121.532812 138.589844,121.528906 138.578125,121.525391 L132.389844,119.596094 C132.389453,119.596094 132.389453,119.595703 132.389063,119.595703 L117.510156,114.956641 C116.864844,114.755469 116.201172,114.666797 115.544922,114.682031 C114.232031,113.292969 113.344141,111.195312 113.344141,109.312109 L113.344141,101.257813 C114.891797,100.228906 116.397266,99.0851562 117.858984,97.8265625 C124.882422,91.7792969 129.289453,83.0332031 130.201562,73.4996094 C135.329688,73.3542969 139.456641,69.1375 139.456641,63.9753906 L139.456641,56.6691406 C139.456641,53.8324219 138.199609,51.1925781 136.083203,49.4046875 L136.083203,40.1902344 C136.083203,38.5691406 134.769141,37.2554688 133.148438,37.2554688 C131.527734,37.2554688 130.213672,38.5695313 130.213672,40.1902344 L130.213672,46.2503906 L130.221094,46.2609375 C117.321875,41.8902344 104.153906,39.6695313 91.0152344,39.6695313 C77.8777344,39.6695313 64.7105469,41.890625 51.8117187,46.2609375 L51.8179687,46.2507813 L51.8179687,26.2140625 C51.8179687,19.2367188 56.5585937,13.2355469 63.3457031,11.6199219 L84.7707031,6.51992188 C88.3503906,5.66757813 92.1386719,5.65195313 95.7261719,6.47460938 L118.565234,11.7121094 C125.423828,13.2851563 130.213672,19.2980469 130.213672,26.334375 C130.213672,27.9554688 131.527734,29.2691406 133.148438,29.2691406 C134.769141,29.2691406 136.083203,27.9550781 136.083203,26.334375 C136.083203,16.5445313 129.419141,8.17929688 119.876953,5.990625 L97.0375,0.753515625 C92.5757812,-0.269921875 87.8636719,-0.250390625 83.4105469,0.809375 L61.9855469,5.90976563 C52.5425781,8.15742188 45.9472656,16.5070313 45.9472656,26.2140625 L45.9476563,49.4039062 C43.83125,51.1921875 42.5738281,53.8320312 42.5738281,56.66875 L42.5738281,63.975 C42.5738281,69.1375 46.7007812,73.3539062 51.8289063,73.4992187 C52.7410156,83.0328125 57.1480469,91.7789062 64.1714844,97.8261719 C65.6332031,99.0847656 67.1386719,100.228516 68.6863281,101.257422 L68.6863281,109.311328 C68.6863281,111.194922 67.7980469,113.292578 66.4851563,114.681641 C65.8285156,114.666406 65.1652344,114.755078 64.5199219,114.955859 L49.03125,119.785156 L43.4339844,121.530078 C43.4335938,121.530078 43.4328125,121.530469 43.4324219,121.530859 L30.0386719,125.707812 C30.0378906,125.708203 30.0371094,125.708203 30.0363281,125.708594 L28.8375,126.082422 C28.8324219,126.083984 28.8273438,126.085547 28.8222656,126.087109 C28.2902344,126.244141 27.7644531,126.414453 27.2425781,126.592187 C27.0542969,126.65625 26.8683594,126.725391 26.68125,126.792187 C26.346875,126.911719 26.0140625,127.033984 25.6839844,127.162109 C25.4597656,127.248828 25.2367188,127.337891 25.0140625,127.428516 C24.7257813,127.546094 24.4402344,127.668359 24.1554688,127.792187 C23.9203125,127.894531 23.6847656,127.995703 23.4519531,128.102344 C23.1679688,128.232812 22.8882813,128.369922 22.6078125,128.506641 C22.1960938,128.707031 21.7882813,128.914844 21.3839844,129.129688 C21.1390625,129.259766 20.8929688,129.388281 20.6511719,129.523047 C20.3964844,129.665234 20.1453125,129.813281 19.89375,129.960938 C19.6714844,130.091406 19.4496094,130.222656 19.2300781,130.357422 C18.984375,130.507812 18.740625,130.660547 18.4980469,130.816406 C18.2664063,130.965234 18.0378906,131.118359 17.8097656,131.271484 C17.5863281,131.421875 17.3617188,131.570312 17.1410156,131.725391 C16.7574219,131.994922 16.3789063,132.271094 16.0054688,132.553125 C15.9449219,132.598828 15.8824219,132.640625 15.8222656,132.686719 C15.7929688,132.709375 15.7671875,132.735156 15.7386719,132.758594 C7.46132813,139.124609 1.81210938,148.601953 0.399609375,159.323047 C0.187890625,160.930078 1.31875,162.404297 2.92617188,162.616016 C4.53359375,162.827344 6.00742188,161.696875 6.21914063,160.089453 C7.13789063,153.116406 10.159375,146.760938 14.6703125,141.725 L14.6703125,180.597656 L5.925,180.597656 L5.925,173.363281 C5.925,171.742188 4.6109375,170.428516 2.99023437,170.428516 C1.36953125,170.428516 0.05546875,171.742578 0.05546875,173.363281 L0.05546875,189.701953 C0.05546875,195.380078 4.675,199.999609 10.3535156,199.999609 L171.677734,199.999609 L171.677734,200 C172.564844,200 173.426562,199.887109 174.248437,199.675391 C178.687109,198.530859 181.975781,194.493359 181.975781,189.702344 L181.975781,164.584766 C181.975781,155.849609 179.210156,147.534766 173.977734,140.539844 Z M10.3527344,194.130078 C7.91132812,194.130078 5.92460938,192.14375 5.92460938,189.702344 L5.92460938,186.46875 L27.9746094,186.46875 L27.9746094,194.130078 L10.3527344,194.130078 Z M27.975,180.598828 L20.5398437,180.598828 L20.5398437,136.511719 C21.5132813,135.829688 22.5246094,135.195703 23.5714844,134.614844 C23.5953125,134.601562 23.6195312,134.588281 23.6433594,134.575391 C23.9734375,134.393359 24.3070312,134.216797 24.64375,134.044922 C24.6746094,134.029297 24.7058594,134.013281 24.7367187,133.997266 C25.0824219,133.822656 25.4316406,133.653125 25.7839844,133.489844 C25.7988281,133.483203 25.8132812,133.475781 25.828125,133.469141 C26.5300781,133.144922 27.246875,132.845313 27.975,132.567578 L27.975,180.598828 Z M41.3730469,194.130078 L33.8449219,194.130078 L33.8449219,183.683984 L33.8449219,183.533594 L33.8449219,130.669922 L41.3730469,128.322656 L41.3730469,194.130078 Z M127.352344,131.602344 L132.464453,125.767969 L134.7875,126.492187 L134.7875,154.403906 L127.352344,154.403906 L127.352344,131.602344 Z M91.0148437,45.5390625 C103.942969,45.5390625 116.915234,47.7964844 129.614062,52.2527344 L128.860156,55.05625 C128.582031,56.090625 127.9125,56.9457031 126.975,57.4636719 C126.049219,57.9753906 124.986328,58.0871094 123.981641,57.778125 C113.044531,54.4183594 102.030078,52.7386719 91.015625,52.7386719 C80.0011719,52.7386719 68.9867187,54.4183594 58.0492187,57.778125 C57.0441406,58.0871094 55.98125,57.9753906 55.0558594,57.4636719 C54.1183594,56.9453125 53.4488281,56.0902344 53.1707031,55.0554688 L52.4167969,52.2523438 C65.1152344,47.796875 78.0875,45.5394531 91.0148437,45.5390625 Z M68.0015625,93.3785156 C61.5394531,87.8144531 57.7226562,79.4773437 57.5300781,70.5054687 C57.4957031,68.9097656 56.1921875,67.6335937 54.5957031,67.6335937 L52.1019531,67.6335937 C50.0847656,67.6335937 48.44375,65.9925781 48.44375,63.9753906 L48.44375,58.8828125 C49.3214844,60.4324219 50.6117188,61.7140625 52.215625,62.6011719 C54.5476563,63.8902344 57.23125,64.1699219 59.7722656,63.3894531 C80.5035156,57.0214844 101.526953,57.0214844 122.257031,63.3894531 C123.200781,63.6792969 124.164063,63.8230469 125.121875,63.8230469 C126.743359,63.8230469 128.348047,63.4113281 129.814063,62.6011719 C131.418359,61.7144531 132.708203,60.4328125 133.585938,58.8832031 L133.585938,63.9753906 C133.585938,65.9925781 131.944922,67.6335937 129.927734,67.6335937 L127.433984,67.6335937 C125.8375,67.6335937 124.533984,68.9097656 124.499609,70.5054687 C124.307031,79.4773437 120.490234,87.8140625 114.028125,93.3785156 C112.376172,94.8011719 110.659375,96.0519531 108.882813,97.1335938 C108.843359,97.1578125 108.802734,97.1796875 108.764844,97.2058594 C103.374219,100.459375 97.4277344,102.142578 91.0148437,102.219922 C84.6015625,102.142578 78.6554687,100.459375 73.2648437,97.2058594 C73.2265625,97.1800781 73.1859375,97.1578125 73.146875,97.1335938 C71.3703125,96.0519531 69.6539063,94.8011719 68.0015625,93.3785156 Z M110.263281,117.494141 L91.0152344,135.735156 L71.7671875,117.494531 C73.5011719,115.146875 74.55625,112.170313 74.55625,109.312109 L74.55625,104.507813 C79.6636719,106.819141 85.1535156,108.025 90.9824219,108.089844 C90.9933594,108.090234 91.0042969,108.090234 91.0152344,108.090234 C91.0261719,108.090234 91.0371094,108.090234 91.0480469,108.089844 C96.8765625,108.025 102.366406,106.819141 107.474219,104.507813 L107.474219,109.312109 C107.473828,112.169922 108.528906,115.146484 110.263281,117.494141 Z M54.678125,194.130078 L54.678125,194.130078 L47.2429688,194.130078 L47.2429688,126.492188 L48.8789063,125.982031 L49.5660156,125.767969 L54.678125,131.602344 L54.678125,194.130078 L54.678125,194.130078 Z M68.0761719,194.130078 L60.5480469,194.130078 L60.5480469,138.301172 L65.4417969,143.885937 C66.2203125,144.774609 67.1109375,145.521094 68.0761719,146.124219 L68.0761719,194.130078 Z M73.9460938,194.130078 L73.9460938,147.901562 C74.0609375,147.905078 74.1757812,147.910547 74.2910156,147.910547 C74.4203125,147.910547 74.55,147.898828 74.6796875,147.894531 C74.8023438,147.891016 74.925,147.887109 75.0472656,147.879687 C75.1757813,147.871484 75.3039063,147.861328 75.4320313,147.848828 C75.6558594,147.827734 75.8792969,147.800391 76.1019531,147.766406 C76.1847656,147.753516 76.2671875,147.738672 76.3496094,147.723828 C76.6082031,147.678516 76.8660156,147.626563 77.1222656,147.563672 C77.1628906,147.553516 77.203125,147.541797 77.24375,147.53125 C77.53125,147.457422 77.8171875,147.374609 78.0996094,147.278516 C78.1027344,147.277344 78.1058594,147.276953 78.1089844,147.275781 L81.140625,146.242969 L81.38125,146.160937 L81.38125,194.130078 L73.9460938,194.130078 L73.9460938,194.130078 Z M76.2164063,141.719531 C76.2089844,141.722266 76.2011719,141.723828 76.1933594,141.726562 C76.0433594,141.776953 75.8917969,141.821094 75.7390625,141.858984 C75.7011719,141.868359 75.6628906,141.875391 75.625,141.883984 C75.4945313,141.913672 75.3632813,141.940625 75.2316406,141.961328 C75.2035156,141.966016 75.1753906,141.969531 75.1472656,141.973438 C74.9917969,141.995313 74.8363281,142.012891 74.6796875,142.022656 C74.6777344,142.022656 74.6753906,142.023047 74.6734375,142.023047 C73.8050781,142.075 72.9265625,141.935156 72.1039063,141.605078 C72.0714844,141.592187 72.0378906,141.584375 72.0054688,141.572656 C71.1988281,141.23125 70.4609375,140.708594 69.85625,140.018359 L59.8199219,128.564453 L59.7375,128.470312 L55.6957031,123.857422 L66.2667969,120.561328 C66.3128906,120.547266 66.3613281,120.546484 66.4074219,120.556641 C66.4105469,120.557812 66.4128906,120.559375 66.4160156,120.560156 C66.459375,120.571484 66.5011719,120.591406 66.5347656,120.623437 L85.4699219,138.567578 L76.2164063,141.719531 Z M94.7792969,194.130078 L87.2511719,194.130078 L87.2511719,144.161328 L91.0152344,142.878906 L94.7792969,144.161328 L94.7792969,194.130078 Z M108.084375,194.130078 L100.649219,194.130078 L100.649219,146.160937 L102.623828,146.833594 C102.833203,146.905078 103.043359,146.969531 103.253906,147.030469 C103.295703,147.042578 103.337891,147.053125 103.379688,147.064844 C103.562109,147.115625 103.744531,147.162891 103.927734,147.205859 C103.952344,147.211719 103.976953,147.217187 104.001563,147.222656 C105.032031,147.459766 106.072656,147.578906 107.105469,147.578906 C107.432813,147.578906 107.759375,147.562891 108.084375,147.539844 L108.084375,194.130078 L108.084375,194.130078 Z M110.064063,141.125391 C110.029688,141.137109 109.994531,141.145313 109.960156,141.158594 C108.662109,141.660938 107.262109,141.811719 105.906641,141.611719 C105.883594,141.608203 105.860938,141.605469 105.837891,141.601953 C105.648438,141.572266 105.460156,141.533594 105.273047,141.489844 C105.234375,141.480859 105.196094,141.474219 105.157422,141.464453 C104.944922,141.411719 104.734375,141.350781 104.526172,141.280469 C104.523047,141.279297 104.519531,141.278516 104.516406,141.277734 L98.6605469,139.282813 L98.6601563,139.282813 L96.5605469,138.567578 L115.496094,120.623047 C115.528516,120.592188 115.568359,120.573438 115.610156,120.561719 C115.614844,120.560156 115.619141,120.557422 115.624219,120.555859 C115.669531,120.545703 115.717578,120.546875 115.763281,120.560938 L126.334766,123.857031 L113.077734,138.986719 C112.233594,139.949609 111.196875,140.667969 110.064063,141.125391 Z M121.482422,154.404297 L120.413672,154.404297 C118.163281,154.404297 116.332422,156.235156 116.332422,158.485547 L116.332422,176.144922 C116.332422,177.471875 116.980469,178.719922 118.066016,179.483594 L121.482422,181.886328 L121.482422,194.130078 L113.954297,194.130078 L113.954297,145.751953 C115.260547,145.002734 116.459375,144.033984 117.492188,142.855469 L121.482422,138.301562 L121.482422,154.404297 Z M122.202344,160.274219 L124.417188,160.274219 L137.722266,160.274219 L140.828125,160.274219 L140.828125,175.216406 L131.515234,181.766406 L122.202344,175.216406 L122.202344,160.274219 Z M134.7875,194.130078 L134.7875,194.130078 L127.352344,194.130078 L127.352344,186.014844 L129.167578,187.291797 C129.869922,187.785547 130.692188,188.032422 131.515234,188.032422 C132.338281,188.032422 133.160938,187.785547 133.862891,187.291797 L134.7875,186.641797 L134.7875,194.130078 Z M148.185547,194.130078 L140.657422,194.130078 L140.657422,182.512891 L144.964844,179.483594 C144.965234,179.483594 144.965234,179.483203 144.965625,179.483203 C146.050391,178.719531 146.698047,177.471875 146.698047,176.145313 L146.698047,158.485938 C146.698047,156.235547 144.867188,154.404688 142.616797,154.404688 L140.657422,154.404688 L140.657422,128.323047 L148.185547,130.670313 L148.185547,194.130078 Z M154.055469,132.564453 C156.707813,133.572266 159.198438,134.891406 161.490625,136.495703 L161.490625,180.598828 L154.055469,180.598828 L154.055469,132.564453 Z M172.56875,194.039844 C172.280859,194.098828 171.982813,194.130078 171.677344,194.130078 L154.055078,194.130078 L154.055078,186.46875 L176.105078,186.46875 L176.105078,189.701953 L176.105469,189.701953 C176.105469,191.838281 174.584766,193.626172 172.56875,194.039844 Z M176.105469,180.598828 L167.360547,180.598828 L167.360547,141.717969 C168.028516,142.466016 168.669531,143.24375 169.276953,144.055859 C173.744141,150.028125 176.105469,157.126563 176.105469,164.584766 L176.105469,180.598828 Z" id="Shape"></path>
            </g>
        </g>
    </g>
</svg>