<?xml version="1.0" encoding="UTF-8"?>
<svg width="200px" height="200px" viewBox="0 0 200 200" version="1.1" xmlns="http://www.w3.org/2000/svg" xmlns:xlink="http://www.w3.org/1999/xlink">
    <!-- Generator: Sketch 53.2 (72643) - https://sketchapp.com -->
    <title>016-tennis-racket</title>
    <desc>Created with Sketch.</desc>
    <g id="Page-1" stroke="none" stroke-width="1" fill="none" fill-rule="evenodd">
        <g id="016-tennis-racket" fill="#4A7CB2" fill-rule="nonzero">
            <path d="M42.3242188,161.896972 L38.1799316,157.752686 L42.3229981,153.61084 L46.467285,157.755127 L42.3242188,161.896972 Z M49.2285156,154.991455 L45.0854494,150.848389 L49.2285156,146.706543 L53.3715819,150.848389 L49.2285156,154.991455 Z" id="Shape"></path>
            <path d="M9.07592781,170.523682 L0.076904375,179.520264 L0.079345625,185.849609 L14.227295,199.998779 L20.5578613,199.998779 L70.8605956,149.694824 L50.38208,129.215088 L9.07592781,170.523682 Z M18.1298828,194.139404 L16.6540528,194.139404 L5.93872063,183.421631 L5.93872063,181.945801 L9.07592781,178.808594 L21.2683106,191.000977 L18.1298828,194.139404 Z M25.4113769,186.85791 L13.2177734,174.665528 L50.38208,137.502441 L62.5756837,149.693603 L25.4113769,186.85791 Z" id="Shape"></path>
            <path d="M182.961426,16.7578125 C171.055908,4.85351562 154.67041,-1.0461425 136.834717,0.152587812 C119.481201,1.31591812 102.770996,9.1101075 89.782715,22.0983887 C78.3483887,33.5351562 71.0083006,47.6196288 68.5595703,62.8308106 L57.1972656,127.358398 L62.9675294,128.374023 C72.9614256,71.6137694 74.3310547,63.845215 74.3408203,63.7829591 C76.5893556,49.7888184 83.3618162,36.8066406 93.9270019,26.2426756 C105.911865,14.2578125 121.289062,7.06909187 137.229004,5.99975594 C170.593262,3.75366219 195.960693,29.1174316 193.721924,62.4926756 C192.652588,78.4313966 185.462647,93.8085938 173.479004,105.794678 C162.913818,116.359863 149.932861,123.131103 135.938721,125.380859 L71.3464356,136.75415 L72.3620606,142.523193 L136.890869,131.162109 C152.10083,128.713379 166.185303,121.373291 177.62085,109.936523 C190.609131,96.9494628 198.40332,80.2392578 199.567871,62.8857422 C200.76416,45.0451659 194.866943,28.66333 182.961426,16.7578125 L182.961426,16.7578125 Z" id="Path"></path>
            <path d="M126.136475,118.658447 C156.060791,118.658447 183.858642,93.21167 186.199951,62.4658203 C188.426514,33.2226562 166.49292,11.3012694 137.254639,13.5205078 C108.372803,15.7189941 83.4033203,40.6799316 81.2048341,69.5703125 C79.0771484,97.508545 98.9624025,118.658447 126.136475,118.658447 Z M150.227051,32.8002931 L156.501465,39.0747069 L147.172852,48.4033203 L140.898438,42.1276856 L150.227051,32.8002931 Z M136.755371,37.9846191 L130.480957,31.710205 L139.80835,22.3828125 L146.082764,28.6572266 L136.755371,37.9846191 Z M134.793701,89.9072266 L144.121094,80.5798341 L150.395508,86.8542481 L141.065674,96.1816406 L134.793701,89.9072266 Z M136.923828,100.324707 L127.595215,109.6521 L121.323242,103.378906 L130.649414,94.0515137 L136.923828,100.324707 Z M139.978027,76.4367675 L130.649414,85.76416 L124.375,79.4897462 L133.703613,70.1611328 L139.978027,76.4367675 Z M137.84668,66.0180663 L147.174072,56.6906738 L153.448486,62.9650878 L144.121094,72.2924806 L137.84668,66.0180663 Z M148.26416,76.4367675 L157.592773,67.109375 L163.867188,73.3813475 L154.538574,82.7111816 L148.26416,76.4367675 Z M161.73584,62.9650878 L171.063232,53.6364747 L177.337647,59.9108888 L168.010254,69.2395019 L161.73584,62.9650878 Z M157.592773,58.8220216 L151.317139,52.5463869 L160.645752,43.2189941 L166.920166,49.4921875 L157.592773,58.8220216 Z M143.029785,52.5463869 L133.702392,61.8737794 L127.427978,55.5993653 L136.755371,46.2719725 L143.029785,52.5463869 Z M129.559326,66.0180663 L120.230713,75.3454591 L113.956299,69.071045 L123.284912,59.7424316 L129.559326,66.0180663 Z M116.087647,79.4885253 L106.760254,88.8159181 L100.48584,82.5415038 L109.813232,73.2141113 L116.087647,79.4885253 Z M120.231934,83.6328125 L126.506347,89.9072266 L117.178955,99.2346191 L110.904541,92.960205 L120.231934,83.6328125 Z M113.034668,103.378906 L107.751465,108.660889 C105.058594,107.32666 102.520752,105.664062 100.187988,103.674316 L106.760254,97.1032716 L113.034668,103.378906 Z M117.178955,107.521973 L122.313232,112.65625 C119.360352,112.404785 116.469727,111.85791 113.688965,111.013184 L117.178955,107.521973 Z M141.068115,104.466553 L145.456543,108.856201 C141.452637,110.518799 137.347412,111.663818 133.255615,112.280273 L141.068115,104.466553 Z M145.209961,100.324707 L154.538574,90.9960938 L161.90918,98.3666994 C158.50708,101.451416 154.851074,104.052734 151.044922,106.158447 L145.209961,100.324707 Z M158.68042,86.8542481 L168.010254,77.5244141 L173.851318,83.3654784 C171.721191,87.2094725 169.107666,90.8581544 166.052246,94.2236328 L158.68042,86.8542481 Z M172.1521,73.3813475 L179.956055,65.5786131 C179.334717,69.7375487 178.184814,73.8317872 176.549072,77.7758787 L172.1521,73.3813475 Z M175.207519,49.4946287 L178.699951,46.0021972 C179.534912,48.7524412 180.084228,51.6381837 180.335693,54.6228028 L175.207519,49.4946287 Z M171.063232,45.3503419 L164.788818,39.0759278 L171.362305,32.5024412 C173.33374,34.8156737 175,37.3498534 176.348877,40.0659181 L171.063232,45.3503419 Z M160.644531,34.9316406 L154.370117,28.6572266 L159.655762,23.3715819 C162.371826,24.7192381 164.906006,26.3854981 167.219238,28.3581544 L160.644531,34.9316406 Z M150.227051,24.5129394 L145.097656,19.3823244 C148.082275,19.6350097 150.968017,20.1843262 153.720703,21.0205078 L150.227051,24.5129394 Z M126.337891,27.5671387 L121.942139,23.1726075 C125.888672,21.5356444 129.981689,20.3857422 134.141846,19.7644044 L126.337891,27.5671387 Z M122.196045,31.710205 L112.866211,41.0375975 L105.496826,33.6682128 C108.862305,30.6127931 112.510986,27.9992675 116.354981,25.8691406 L122.196045,31.710205 Z M126.337891,35.8544922 L132.612305,42.1276856 L123.284912,51.4562987 L117.010498,45.1818847 L126.337891,35.8544922 Z M119.140625,55.5993653 L109.813232,64.9267578 L103.538818,58.6523437 L112.866211,49.3249512 L119.140625,55.5993653 Z M105.670166,69.0698244 L96.3415528,78.3972169 L90.0683594,72.1240234 L99.3957519,62.7966309 L105.670166,69.0698244 Z M87.4487306,66.4575194 C88.0700684,62.2973631 89.2211912,58.2043456 90.8569337,54.2578125 L95.251465,58.6523437 L87.4487306,66.4575194 Z M92.1984862,82.5415037 L88.7060547,86.0339356 C87.8698731,83.2836912 87.3205566,80.3979494 87.0703125,77.41333 L92.1984862,82.5415037 Z M96.3415528,86.6845703 L102.617187,92.960205 L96.0437012,99.5336912 C94.071045,97.2204591 92.404785,94.6862794 91.0559081,91.9714356 L96.3415528,86.6845703 Z M101.352539,37.8112794 L108.724365,45.1818847 L99.3957519,54.5092775 L93.5546875,48.6694337 C95.6835937,44.8254394 98.2971191,41.1779784 101.352539,37.8112794 Z" id="Shape"></path>
            <path d="M76.6821288,94.0270997 L70.1867675,129.533691 L105.692139,123.03833 L98.8549806,119.049072 C91.3317872,114.663086 85.0585937,108.391113 80.6689453,100.865478 L76.6821288,94.0270997 Z M89.7937012,119.991455 L77.4768066,122.243653 L79.7302247,109.926758 C82.561035,113.582764 85.9130859,116.984863 89.7937012,119.991455 Z" id="Shape"></path>
        </g>
    </g>
</svg>