<?xml version="1.0" encoding="UTF-8"?>
<svg width="200px" height="216px" viewBox="0 0 200 216" version="1.1" xmlns="http://www.w3.org/2000/svg" xmlns:xlink="http://www.w3.org/1999/xlink">
    <!-- Generator: Sketch 53.2 (72643) - https://sketchapp.com -->
    <title>005-hockey</title>
    <desc>Created with Sketch.</desc>
    <g id="Page-1" stroke="none" stroke-width="1" fill="none" fill-rule="evenodd">
        <g id="005-hockey">
            <path d="M184.2316,159.0104 L120.1404,159.0104 L112.1692,143.3656 L180.202,9.8448 L160.88,0 L100,119.4832 L39.1204,0 L19.7984,9.8448 L87.8312,143.3656 L79.86,159.0104 L38.7528,159.0104 L38.7528,165.0948 L61.1672,165.0948 L61.1672,171.1748 L38.7528,171.1748 L38.7528,177.2592 L61.1672,177.2592 L61.1672,198.7156 L15.7688,198.7156 C10.6048,198.7156 6.4032,194.514 6.4032,189.35 L6.4032,174.4596 C6.4032,169.296 10.6048,165.0948 15.7688,165.0948 L30.6396,165.0948 L30.6396,159.0104 L15.7688,159.0104 C7.2496,159.0104 0.3188,165.9408 0.3188,174.4596 L0.3188,189.35 C0.3188,197.8692 7.2496,204.8 15.7688,204.8 L71.4004,204.8 C77.2952,204.8 82.7544,201.3704 85.3192,196.0604 L99.9996,167.248 L114.6804,196.0608 C117.2452,201.3708 122.7044,204.8 128.5992,204.8 L184.2308,204.8 C192.75,204.8 199.6808,197.8692 199.6808,189.35 L199.6808,174.4596 C199.6816,165.9408 192.7508,159.0104 184.2316,159.0104 Z M163.5384,8.1832 L172.0176,12.5036 L108.7548,136.6644 L107.1428,133.5012 L103.4148,126.1836 L163.5384,8.1832 Z M79.8828,193.3288 L79.8508,193.3936 C78.2992,196.6264 74.9824,198.7156 71.4004,198.7156 L67.2512,198.7156 L67.2512,165.0944 L83.5876,165.0944 L91.2452,150.0664 L96.5856,160.5472 L79.8828,193.3288 Z M132.7484,198.7156 L128.5992,198.7156 C125.018,198.7156 121.7012,196.6264 120.1496,193.3936 L103.4136,160.5476 L103.414,160.5468 L91.2456,136.6648 L91.2452,136.6652 L27.9824,12.5036 L36.4616,8.1832 L96.5856,126.184 L108.754,150.0664 L108.754,150.066 L116.4116,165.0948 L132.748,165.0948 L132.7484,198.7156 L132.7484,198.7156 Z M193.5976,189.35 C193.5976,194.5144 189.396,198.7156 184.232,198.7156 L138.8332,198.7156 L138.8332,165.0944 L184.232,165.0944 C189.396,165.0944 193.5976,169.2956 193.5976,174.4592 L193.5976,189.35 Z" id="Shape" fill="#4A7CB2" fill-rule="nonzero"></path>
            <circle id="Oval" stroke="#4A7CB2" stroke-width="6" fill="#FFFFFF" cx="164" cy="197" r="16"></circle>
        </g>
    </g>
</svg>