<?xml version="1.0" encoding="UTF-8"?>
<svg width="200px" height="200px" viewBox="0 0 200 200" version="1.1" xmlns="http://www.w3.org/2000/svg" xmlns:xlink="http://www.w3.org/1999/xlink">
    <!-- Generator: Sketch 54.1 (76490) - https://sketchapp.com -->
    <title>006-tennis</title>
    <desc>Created with Sketch.</desc>
    <g id="Page-1" stroke="none" stroke-width="1" fill="none" fill-rule="evenodd">
        <g id="006-tennis" fill="#487BB4" fill-rule="nonzero">
            <path d="M157.749698,160.972233 C150.647887,160.972233 144.872435,166.747686 144.872435,173.849497 C144.872435,180.951308 150.647887,186.726761 157.749698,186.726761 C164.851509,186.726761 170.626962,180.951308 170.626962,173.849497 C170.626962,166.747686 164.851509,160.972233 157.749698,160.972233 Z M157.749698,180.288129 C154.198793,180.288129 151.311066,177.400402 151.311066,173.849497 C151.311066,170.298592 154.198793,167.410865 157.749698,167.410865 C161.300604,167.410865 164.18833,170.298592 164.18833,173.849497 C164.18833,177.400402 161.300604,180.288129 157.749698,180.288129 Z" id="Shape"></path>
            <path d="M74.0474849,160.972233 C66.945674,160.972233 61.1702213,166.747686 61.1702213,173.849497 C61.1702213,180.951308 66.945674,186.726761 74.0474849,186.726761 C81.1492958,186.726761 86.9247485,180.951308 86.9247485,173.849497 C86.9247485,166.747686 81.1492958,160.972233 74.0474849,160.972233 Z M74.0474849,180.288129 C70.4965795,180.288129 67.6088531,177.400402 67.6088531,173.849497 C67.6088531,170.298592 70.4965795,167.410865 74.0474849,167.410865 C77.5983903,167.410865 80.4861167,170.298592 80.4861167,173.849497 C80.4861167,177.400402 77.5983903,180.288129 74.0474849,180.288129 Z" id="Shape"></path>
            <path d="M199.600805,70.8313883 L196.381489,70.8313883 C190.9666,70.8313883 186.073239,68.5843058 182.564185,64.9851107 C185.722334,63.5525151 188.639034,61.6016097 191.114688,59.1259557 C202.411268,47.8293763 202.411268,29.4470825 191.114688,18.150503 C179.814889,6.85392354 161.435815,6.85392354 150.136016,18.150503 C142.145674,26.1408451 139.653924,37.9331992 143.317505,48.2961771 L127.748893,48.2961771 C132.449095,43.0551308 135.214487,36.2301811 135.214487,28.9802817 C135.214487,13.0060362 122.218109,0.00643863179 106.240644,0.00643863179 C95.0277666,0.00643863179 85.3022133,6.42253521 80.489336,15.7617706 C75.6764588,6.41609658 65.9476861,0 54.7315895,0 C38.7541247,0 25.7577465,12.9995976 25.7577465,28.9738431 C25.7577465,38.6350101 30.6704225,47.6362173 38.6350101,52.993159 L38.6350101,97.3424547 L10.5529175,80.489336 L0.0032193159,80.489336 L0.0032193159,114.530382 L38.6350101,137.065594 L38.6350101,157.752918 L53.9750503,157.752918 C50.4273642,162.1666 48.2929577,167.761771 48.2929577,173.849497 C48.2929577,188.049899 59.8470825,199.604024 74.0474849,199.604024 C88.2478873,199.604024 99.8020121,188.049899 99.8020121,173.849497 C99.8020121,167.761771 97.6676056,162.1666 94.1199195,157.752918 L137.677264,157.752918 C134.129577,162.1666 131.995171,167.761771 131.995171,173.849497 C131.995171,188.049899 143.549296,199.604024 157.749698,199.604024 C171.950101,199.604024 183.504225,188.049899 183.504225,173.849497 C183.504225,167.761771 181.369819,162.1666 177.822133,157.752918 L199.600805,157.752918 L199.600805,70.8313883 Z M12.8804829,114.58833 L6.44185111,110.831388 L6.44185111,86.9279678 L8.7694165,86.9279678 L12.8804829,89.3939638 L12.8804829,114.58833 Z M38.6350101,129.612877 L19.3191147,118.345272 L19.3191147,93.2571429 L38.6350101,104.84668 L38.6350101,129.612877 Z M186.562575,54.5738431 C184.360563,56.7758551 181.730382,58.4756539 178.861972,59.6056338 C177.722334,57.1396378 177.065594,54.4064386 177.065594,51.515493 L177.065594,48.2961771 L169.696579,48.2961771 C168.969014,47.9002012 168.244668,47.5042254 167.517103,47.1404427 C165.324748,46.0458753 163.431791,45.0961771 161.525956,43.1871227 C159.365795,41.0301811 159.211268,39.6587525 159.314286,38.705835 C159.513883,36.8997988 161.023742,34.5818913 163.802012,31.8036217 C166.573843,29.0285714 168.898189,27.5219316 170.704225,27.3191147 C171.647485,27.2193159 173.022133,27.3641851 175.185513,29.5275654 C177.091348,31.4334004 178.037827,33.3263581 179.135614,35.5187123 C180.310664,37.8720322 181.64668,40.5408451 184.296177,43.1871227 C186.768612,45.6595573 189.453521,46.3517103 191.871227,46.0973843 C190.779879,49.1943662 189.031791,52.1046278 186.562575,54.5738431 Z M154.691348,22.7026157 C163.48008,13.9171026 177.780282,13.9171026 186.562575,22.7026157 C191.005231,27.1452716 193.194366,32.9979879 193.142857,38.8346076 C192.869215,39.0438632 192.392757,39.3690141 191.803622,39.5653924 C191.053521,39.816499 190.107042,39.9066398 188.838632,38.6350101 C186.929577,36.7291751 185.979879,34.832998 184.885312,32.6406439 C183.707042,30.2905433 182.374245,27.6217304 179.727968,24.978672 C170.626962,15.877666 162.057143,24.4410463 159.243461,27.2547284 C155.299799,31.1983903 153.287726,34.6108652 152.911066,37.9975855 C152.527968,41.4454728 153.854326,44.6325956 156.967404,47.7424547 C157.17666,47.9517103 157.382696,48.1030181 157.591952,48.2961771 L150.345272,48.2961771 C146.282495,39.7649899 147.911469,29.4857143 154.691348,22.7026157 Z M106.240644,6.44507042 C118.663984,6.44507042 128.775855,16.5537223 128.775855,28.9802817 C128.775855,35.1002012 126.284105,40.865996 122.034608,45.0511066 C120.630986,44.931992 119.117907,44.2559356 119.117907,41.8575453 C119.117907,39.1597586 119.787525,37.1541247 120.560161,34.8265594 C121.393964,32.3315895 122.337223,29.5018109 122.337223,25.7609658 C122.337223,12.8837022 110.219718,12.8837022 106.240644,12.8837022 C102.261569,12.8837022 90.1440644,12.8837022 90.1440644,25.7609658 C90.1440644,29.5018109 91.0873239,32.3315895 91.9211268,34.8265594 C92.6937626,37.1541247 93.3633803,39.1597586 93.3633803,41.8575453 C93.3633803,44.2720322 91.8309859,44.9416499 90.4498994,45.054326 C86.1971831,40.8692153 83.7054326,35.1034205 83.7054326,28.9802817 C83.7054326,16.5537223 93.8173038,6.44507042 106.240644,6.44507042 Z M114.984306,48.2961771 L97.4969819,48.2961771 C98.8555332,46.7830986 99.8020121,44.6969819 99.8020121,41.8575453 C99.8020121,38.1167002 98.8587525,35.2869215 98.0249497,32.7919517 C97.2523139,30.4643863 96.5826962,28.4587525 96.5826962,25.7609658 C96.5826962,22.7412475 96.5826962,19.322334 106.240644,19.322334 C115.898592,19.322334 115.898592,22.7412475 115.898592,25.7609658 C115.898592,28.4587525 115.228974,30.4643863 114.456338,32.7919517 C113.622535,35.2869215 112.679276,38.1167002 112.679276,41.8575453 C112.679276,44.6969819 113.625755,46.7830986 114.984306,48.2961771 Z M84.7323944,48.2961771 L76.2334004,48.2961771 C77.9171026,46.4193159 79.3432596,44.3428571 80.4828974,42.1054326 C81.6257545,44.3428571 83.0486922,46.4193159 84.7323944,48.2961771 Z M54.7315895,6.43863179 C58.2245473,6.43863179 61.5179074,7.25955734 64.4700201,8.68249497 C62.5802817,10.21167 61.1702213,12.6004024 61.1702213,16.0965795 C61.1702213,19.8374245 62.1134809,22.6672032 62.9472837,25.162173 C63.7199195,27.4865191 64.3895372,29.4953722 64.3895372,32.193159 C64.3895372,35.2128773 64.3895372,38.6317907 54.7315895,38.6317907 C45.0736419,38.6317907 45.0736419,35.2128773 45.0736419,32.193159 C45.0736419,29.4953722 45.7432596,27.4897384 46.5158954,25.162173 C47.3496982,22.6672032 48.2929577,19.8374245 48.2929577,16.0965795 C48.2929577,12.6036217 46.8828974,10.2148893 44.993159,8.68249497 C47.9452716,7.25955734 51.2386318,6.43863179 54.7315895,6.43863179 Z M32.1963783,28.9738431 C32.1963783,22.6865191 34.7911469,16.9979879 38.960161,12.9062374 C40.3573441,13.0285714 41.854326,13.7110664 41.854326,16.0965795 C41.854326,18.7943662 41.1847082,20.8 40.4120724,23.1275654 C39.5782696,25.6225352 38.6350101,28.4490946 38.6350101,32.193159 C38.6350101,45.0704225 50.7525151,45.0704225 54.7315895,45.0704225 C58.710664,45.0704225 70.828169,45.0704225 70.828169,32.193159 C70.828169,28.4523139 69.8849095,25.6225352 69.0511066,23.1275654 C68.2784708,20.8 67.6088531,18.7911469 67.6088531,16.0965795 C67.6088531,13.6949698 69.1251509,13.0189135 70.4997988,12.9030181 C74.6688129,16.9915493 77.2668008,22.6832998 77.2668008,28.9738431 C77.2668008,36.9158954 73.0527163,44.2334004 66.2631791,48.2961771 L43.1710262,48.2961771 C36.4008048,44.2334004 32.1963783,36.8740443 32.1963783,28.9738431 Z M45.0736419,67.6120724 L64.3895372,67.6120724 L64.3895372,86.9279678 L45.0736419,86.9279678 L45.0736419,67.6120724 L45.0736419,67.6120724 Z M45.0736419,151.314286 L45.0736419,106.243863 L70.828169,106.243863 C72.6052314,106.243863 74.0474849,107.689336 74.0474849,109.463179 L74.0474849,148.09497 C69.5372233,148.09497 65.2973843,149.266801 61.6080483,151.314286 L45.0736419,151.314286 Z M74.0474849,193.165392 C63.3947686,193.165392 54.7315895,184.502213 54.7315895,173.849497 C54.7315895,163.196781 63.3947686,154.533602 74.0474849,154.533602 C84.7002012,154.533602 93.3633803,163.196781 93.3633803,173.849497 C93.3633803,184.502213 84.7002012,193.165392 74.0474849,193.165392 Z M157.749698,193.165392 C147.096982,193.165392 138.433803,184.502213 138.433803,173.849497 C138.433803,163.196781 147.096982,154.533602 157.749698,154.533602 C168.402414,154.533602 177.065594,163.196781 177.065594,173.849497 C177.065594,184.502213 168.402414,193.165392 157.749698,193.165392 Z M193.162173,86.9279678 L186.723541,86.9279678 L186.723541,93.3665996 L193.162173,93.3665996 L193.162173,151.314286 L170.189135,151.314286 C166.496579,149.266801 162.25996,148.09497 157.749698,148.09497 C153.22334,148.09497 148.973843,149.276459 145.274849,151.333602 L145.274849,151.314286 L86.4869215,151.314286 C84.616499,150.277666 82.6012072,149.488934 80.4861167,148.94165 L80.4861167,109.463179 C80.4861167,104.138431 76.1529175,99.8052314 70.828169,99.8052314 L45.0736419,99.8052314 L45.0736419,93.3665996 L180.284909,93.3665996 L180.284909,86.9279678 L70.828169,86.9279678 L70.828169,61.1734406 L45.0736419,61.1734406 L45.0736419,54.7348089 L170.826559,54.7348089 C172.28169,66.3661972 181.527565,75.6120724 193.162173,77.0704225 L193.162173,86.9279678 Z" id="Shape"></path>
        </g>
    </g>
</svg>