<?xml version="1.0" encoding="UTF-8"?>
<svg width="144px" height="200px" viewBox="0 0 144 200" version="1.1" xmlns="http://www.w3.org/2000/svg" xmlns:xlink="http://www.w3.org/1999/xlink">
    <!-- Generator: Sketch 53.2 (72643) - https://sketchapp.com -->
    <title>002-notebook</title>
    <desc>Created with Sketch.</desc>
    <g id="Page-1" stroke="none" stroke-width="1" fill="none" fill-rule="evenodd">
        <g id="002-notebook" fill="#4A7CB2" fill-rule="nonzero">
            <path d="M130.453333,0 L123.776667,0 L100.443333,0 L0.443333333,0 L0.443333333,56.69 L0.443333333,123.356667 L0.443333333,179.986667 L13.7766667,179.986667 L13.7766667,199.546667 L27.11,190.66 L40.4433333,199.546667 L40.4433333,179.986667 L100.443333,179.986667 L123.776667,179.986667 L130.453333,179.986667 C137.8,179.986667 143.776667,174.01 143.776667,166.666667 L143.776667,123.356667 L143.776667,56.69 L143.776667,13.32 C143.773333,5.97666667 137.796667,0 130.453333,0 Z M7.10666667,6.66666667 L100.44,6.66666667 L100.44,56.69 L7.10666667,56.69 L7.10666667,6.66666667 Z M80.44,113.323333 C78.6,113.323333 77.1066667,114.816667 77.1066667,116.656667 C77.1066667,116.656667 77.1133333,116.68 77.1133333,116.69 L63.7666667,116.69 C63.7666667,116.68 63.7733333,116.666667 63.7733333,116.666667 C63.7733333,114.813333 62.28,113.323333 60.44,113.323333 C58.6,113.323333 57.1066667,114.816667 57.1066667,116.656667 C57.1066667,116.656667 57.1133333,116.68 57.1133333,116.69 L43.7666667,116.69 C43.7666667,116.68 43.7733333,116.666667 43.7733333,116.666667 C43.7733333,114.813333 42.28,113.323333 40.44,113.323333 C38.6,113.323333 37.1066667,114.816667 37.1066667,116.656667 C37.1066667,116.656667 37.1133333,116.68 37.1133333,116.69 L23.7666667,116.69 C23.7666667,116.68 23.7733333,116.666667 23.7733333,116.666667 C23.7733333,114.813333 22.28,113.323333 20.44,113.323333 C18.6,113.323333 17.1066667,114.816667 17.1066667,116.656667 C17.1066667,116.656667 17.1133333,116.68 17.1133333,116.69 L7.10666667,116.69 L7.10666667,106.656667 L7.10666667,86.6566667 L7.10666667,66.6566667 L7.10666667,63.3566667 L10.27,63.3566667 C8.51333333,63.45 7.10666667,64.8766667 7.10666667,66.6566667 C7.10666667,68.4966667 8.6,69.99 10.44,69.99 C12.28,69.99 13.7733333,68.4966667 13.7733333,66.6566667 C13.7733333,64.8766667 12.3666667,63.45 10.61,63.3566667 L30.27,63.3566667 C28.5133333,63.45 27.1066667,64.8766667 27.1066667,66.6566667 C27.1066667,68.4966667 28.6,69.99 30.44,69.99 C32.28,69.99 33.7733333,68.4966667 33.7733333,66.6566667 C33.7733333,64.8766667 32.3666667,63.45 30.61,63.3566667 L50.27,63.3566667 C48.5133333,63.45 47.1066667,64.8766667 47.1066667,66.6566667 C47.1066667,68.4966667 48.6,69.99 50.44,69.99 C52.28,69.99 53.7733333,68.4966667 53.7733333,66.6566667 C53.7733333,64.8766667 52.3666667,63.45 50.61,63.3566667 L70.27,63.3566667 C68.5133333,63.45 67.1066667,64.8766667 67.1066667,66.6566667 C67.1066667,68.4966667 68.6,69.99 70.44,69.99 C72.28,69.99 73.7733333,68.4966667 73.7733333,66.6566667 C73.7733333,64.8766667 72.3666667,63.45 70.61,63.3566667 L90.27,63.3566667 C88.5133333,63.45 87.1066667,64.8766667 87.1066667,66.6566667 C87.1066667,68.4966667 88.6,69.99 90.44,69.99 C92.28,69.99 93.7733333,68.4966667 93.7733333,66.6566667 C93.7733333,64.8766667 92.3666667,63.45 90.61,63.3566667 L100.44,63.3566667 L100.44,73.3233333 C98.6,73.3233333 97.1066667,74.8166667 97.1066667,76.6566667 C97.1066667,78.4966667 98.6,79.99 100.44,79.99 L100.44,93.3233333 C98.6,93.3233333 97.1066667,94.8166667 97.1066667,96.6566667 C97.1066667,98.4966667 98.6,99.99 100.44,99.99 L100.44,113.323333 C98.6,113.323333 97.1066667,114.816667 97.1066667,116.656667 C97.1066667,116.656667 97.1133333,116.68 97.1133333,116.69 L83.7666667,116.69 C83.7666667,116.68 83.7733333,116.666667 83.7733333,116.666667 C83.7733333,114.813333 82.28,113.323333 80.44,113.323333 Z M33.7733333,187.093333 L27.1066667,182.646667 L20.44,187.093333 L20.44,179.986667 L33.7733333,179.986667 L33.7733333,187.093333 Z M40.44,173.32 L13.7733333,173.32 L7.10666667,173.32 L7.10666667,123.356667 L100.44,123.356667 L100.44,173.32 L40.44,173.32 L40.44,173.32 Z M107.106667,173.32 L107.106667,123.356667 L107.106667,56.69 L107.106667,6.66666667 L117.106667,6.66666667 L117.106667,56.69 L117.106667,123.356667 L117.106667,173.32 L107.106667,173.32 Z M130.44,69.99 C132.28,69.99 133.773333,68.4966667 133.773333,66.6566667 C133.773333,64.8766667 132.366667,63.45 130.61,63.3566667 L137.106667,63.3566667 L137.106667,116.69 L123.773333,116.69 L123.773333,63.3566667 L130.27,63.3566667 C128.513333,63.45 127.106667,64.8766667 127.106667,66.6566667 C127.106667,68.4966667 128.6,69.99 130.44,69.99 Z M137.106667,166.666667 C137.106667,170.336667 134.12,173.32 130.45,173.32 L123.773333,173.32 L123.773333,123.356667 L137.106667,123.356667 L137.106667,166.666667 Z M123.773333,56.69 L123.773333,6.66666667 L130.45,6.66666667 C134.12,6.66666667 137.106667,9.65333333 137.106667,13.32 L137.106667,56.69 L123.773333,56.69 L123.773333,56.69 Z" id="Shape"></path>
            <circle id="Oval" cx="20.44" cy="76.6566667" r="3.33333333"></circle>
            <circle id="Oval" cx="40.44" cy="76.6566667" r="3.33333333"></circle>
            <circle id="Oval" cx="60.44" cy="76.6566667" r="3.33333333"></circle>
            <circle id="Oval" cx="80.44" cy="76.6566667" r="3.33333333"></circle>
            <circle id="Oval" cx="10.44" cy="86.6566667" r="3.33333333"></circle>
            <circle id="Oval" cx="30.44" cy="86.6566667" r="3.33333333"></circle>
            <circle id="Oval" cx="10.44" cy="106.656667" r="3.33333333"></circle>
            <circle id="Oval" cx="30.44" cy="106.656667" r="3.33333333"></circle>
            <circle id="Oval" cx="20.44" cy="96.6566667" r="3.33333333"></circle>
            <circle id="Oval" cx="40.44" cy="96.6566667" r="3.33333333"></circle>
            <circle id="Oval" cx="50.44" cy="86.6566667" r="3.33333333"></circle>
            <circle id="Oval" cx="70.44" cy="86.6566667" r="3.33333333"></circle>
            <circle id="Oval" cx="50.44" cy="106.656667" r="3.33333333"></circle>
            <circle id="Oval" cx="70.44" cy="106.656667" r="3.33333333"></circle>
            <circle id="Oval" cx="60.44" cy="96.6566667" r="3.33333333"></circle>
            <circle id="Oval" cx="80.44" cy="96.6566667" r="3.33333333"></circle>
            <circle id="Oval" cx="90.44" cy="86.6566667" r="3.33333333"></circle>
            <circle id="Oval" cx="90.44" cy="106.656667" r="3.33333333"></circle>
            <circle id="Oval" cx="130.44" cy="86.6566667" r="3.33333333"></circle>
            <circle id="Oval" cx="130.44" cy="106.656667" r="3.33333333"></circle>
        </g>
    </g>
</svg>