<?xml version="1.0" encoding="UTF-8"?>
<svg width="200px" height="140px" viewBox="0 0 200 140" version="1.1" xmlns="http://www.w3.org/2000/svg" xmlns:xlink="http://www.w3.org/1999/xlink">
    <!-- Generator: Sketch 53.2 (72643) - https://sketchapp.com -->
    <title>040-mat</title>
    <desc>Created with Sketch.</desc>
    <g id="Page-1" stroke="none" stroke-width="1" fill="none" fill-rule="evenodd">
        <g id="040-mat" fill="#4A7CB2" fill-rule="nonzero">
            <path d="M199.680859,76.1160156 C199.15,75.0234375 198.042188,74.3300781 196.827344,74.3300781 L91.1585938,74.3300781 L111.533984,53.49375 C111.70625,53.3175781 111.850781,53.1257813 111.973438,52.9242188 C112.091406,52.8179688 112.205859,52.7054688 112.309375,52.5785156 C116.997266,46.8660156 119.579297,39.6425781 119.579297,32.2390625 C119.579297,14.5492188 105.187891,0.15703125 87.4992188,0.15703125 C79.171875,0.15703125 71.334375,3.31640625 65.3371094,9.0546875 C65.3199219,9.07109375 65.3015625,9.08515625 65.2847656,9.10195313 L65.2289063,9.15742188 C65.0914063,9.29023438 64.9492188,9.4171875 64.8136719,9.553125 C64.7492188,9.61757813 64.6902344,9.68554688 64.6320313,9.75351563 L12.8933594,61.4449219 C12.8917969,61.4464844 12.8894531,61.4484375 12.8878906,61.45 C-4.29609375,78.6339844 -4.29609375,106.596094 12.8878906,123.781641 C23.0523438,133.947266 36.9695313,139.686719 51.3136719,139.686328 C51.8890625,139.686328 52.4652344,139.677344 53.0417969,139.658984 L123.001563,139.658984 C124.754297,139.658984 126.174219,138.239062 126.174219,136.486328 C126.174219,134.733594 124.754297,133.313672 123.001563,133.313672 L52.9898438,133.313672 C52.9546875,133.313672 52.9195313,133.314062 52.884375,133.315234 C39.4738281,133.772266 26.8601563,128.78125 17.375,119.295703 C2.66484375,104.583984 2.66484375,80.6480469 17.375,65.9375 C22.9550781,60.35625 30.3757813,57.2832031 38.2691406,57.2832031 C41.2863281,57.2832031 44.2332031,57.7359375 47.0359375,58.6027344 L30.7679688,73.6734375 C30.3464844,74.0199219 29.9398438,74.3886719 29.5488281,74.7796875 C25.7847656,78.5425781 23.7117188,83.5460937 23.7113281,88.86875 C23.7113281,94.1914062 25.784375,99.1953125 29.5480469,102.958594 C34.1023438,107.513281 40.1578125,110.021484 46.5984375,110.021875 C46.5988281,110.021875 46.5988281,110.021875 46.5992188,110.021875 C53.0398438,110.021875 59.0953125,107.513672 63.65,102.959766 C64.8101563,101.800391 65.8460938,100.563281 66.7707031,99.2714844 L84.9539063,80.6765625 L190.3,80.6765625 L148.941406,133.314063 L134.848828,133.314063 C133.096094,133.314063 131.676172,134.733984 131.676172,136.486719 C131.676172,138.239453 133.096094,139.659375 134.848828,139.659375 L150.483594,139.659375 C151.457422,139.659375 152.376953,139.212109 152.978125,138.446875 L199.321875,79.4636719 C200.072266,78.5078125 200.211719,77.2085938 199.680859,76.1160156 Z M53.3445313,61.4070312 C55.1128906,62.459375 56.7769531,63.7066406 58.3171875,65.1324219 L50.5503906,72.7648438 C48.5582031,71.4121094 46.3042969,70.5195312 43.9203125,70.1378906 L53.3445313,61.4070312 Z M61.8910156,95.1835938 L61.8859375,95.1886719 C61.6503906,95.4292969 61.4621094,95.6984375 61.31875,95.9839844 C60.6644531,96.8550781 59.9460937,97.6871094 59.1621094,98.4710938 C55.80625,101.827734 51.3445312,103.675781 46.5984375,103.675781 C41.8523438,103.675781 37.390625,101.826953 34.0347656,98.4707031 C31.4695313,95.9058594 30.0566406,92.4953125 30.0566406,88.8679688 C30.0566406,85.2410156 31.4695313,81.8308594 34.0351563,79.2664063 C35.9671875,77.334375 38.5355469,76.2699219 41.2675781,76.2699219 L41.2679688,76.2699219 C44.0003906,76.2703125 46.56875,77.3347656 48.5003906,79.2664063 C48.5390625,79.3050781 48.5800781,79.3382813 48.6195313,79.3742188 C48.6570313,79.4082031 48.69375,79.4445313 48.7324219,79.4761719 C48.7765625,79.5121094 48.8226563,79.54375 48.8679688,79.5773438 C48.9085938,79.6074219 48.9484375,79.6394531 48.9902344,79.6671875 C49.0363281,79.6980469 49.0847656,79.7242188 49.1324219,79.7523438 C49.1753906,79.7777344 49.2179688,79.8054688 49.2617188,79.8289063 C49.3113281,79.8550781 49.3625,79.8765625 49.4132813,79.9 C49.4570313,79.9203125 49.5,79.9425781 49.5445313,79.9609375 C49.5972656,79.9824219 49.6519531,79.9996094 49.7058594,80.0179688 C49.7496094,80.0332031 49.7925781,80.0503906 49.8367188,80.0636719 C49.8917969,80.0800781 49.9476563,80.0917969 50.003125,80.1046875 C50.0476563,80.1152344 50.0910156,80.1285156 50.1359375,80.1371094 C50.1917969,80.1480469 50.2480469,80.1539063 50.3042969,80.1617188 C50.3496094,80.1679688 50.3945313,80.1769531 50.4394531,80.18125 C50.4976563,80.1867188 50.5566406,80.1871094 50.615625,80.1898438 C50.6585938,80.1914063 50.7019531,80.1960938 50.7449219,80.1960938 C50.8460938,80.1960938 50.9472656,80.1910156 51.0476563,80.1816406 C51.0589844,80.1804688 51.0699219,80.1777344 51.0816406,80.1769531 C51.1703125,80.1675781 51.259375,80.1554688 51.3476563,80.1382813 C51.3777344,80.1324219 51.4070313,80.1234375 51.4371094,80.1167969 C51.50625,80.1015625 51.5753906,80.0863281 51.64375,80.0664063 C51.6808594,80.0554688 51.7167969,80.040625 51.7539063,80.0285156 C51.8136719,80.0085938 51.8742188,79.9894531 51.9324219,79.9664063 C51.9730469,79.95 52.0121094,79.9296875 52.0519531,79.9113281 C52.1058594,79.8871094 52.1597656,79.8644531 52.2125,79.8367188 C52.2535156,79.8152344 52.2929688,79.7898438 52.3332031,79.7664063 C52.3828125,79.7375 52.4332031,79.7105469 52.48125,79.6789063 C52.521875,79.6523438 52.5597656,79.621875 52.5996094,79.5929688 C52.6457031,79.559375 52.6925781,79.5277344 52.7371094,79.4917969 C52.7742188,79.4617188 52.8089844,79.4273438 52.8453125,79.3953125 C52.8863281,79.3589844 52.9285156,79.325 52.9679688,79.2863281 L62.4054688,70.0117188 C64.6785156,73.6332031 65.9003906,77.8242188 65.9,82.2054688 C65.9003906,86.9066406 64.4953125,91.3898438 61.8910156,95.1835938 Z M72.1203125,84.7234375 C72.7660156,77.1648437 70.4976562,69.4054687 65.3203125,63.2796875 C65.2378906,63.1699219 65.1503906,63.0636719 65.0515625,62.9632812 C65.0472656,62.9589844 65.0425781,62.9558594 65.0390625,62.9515625 C64.5945312,62.4410156 64.1367188,61.9375 63.6511719,61.4519531 C56.8722656,54.6722656 47.8582031,50.9378906 38.2699219,50.9378906 C38.2691406,50.9378906 38.2691406,50.9378906 38.2683594,50.9378906 C36.075,50.9378906 33.9144531,51.1425781 31.8011719,51.525 L69.7152344,13.6457031 C74.5277344,9.0390625 80.8167969,6.50273437 87.4996094,6.50273437 C101.689844,6.50273437 113.234375,18.0480469 113.234375,32.2390625 C113.234375,38.1785156 111.164062,43.971875 107.405078,48.5527344 C107.310156,48.6683594 107.228125,48.7902344 107.152344,48.9140625 C107.100391,48.9609375 107.046875,49.00625 106.997656,49.0570313 L72.1203125,84.7234375 Z" id="Shape"></path>
        </g>
    </g>
</svg>