<?xml version="1.0" encoding="UTF-8"?>
<svg width="200px" height="144px" viewBox="0 0 100 77" version="1.1" xmlns="http://www.w3.org/2000/svg" xmlns:xlink="http://www.w3.org/1999/xlink">
    <!-- Generator: Sketch 53.1 (72631) - https://sketchapp.com -->
    <title>Fill 1</title>
    <desc>Created with Sketch.</desc>
    <g id="design" stroke="none" stroke-width="1" fill="none" fill-rule="evenodd">
        <g id="catalogue-v2" transform="translate(-1179.000000, -508.000000)" fill="#4A7CB2">
            <g id="icons" transform="translate(120.000000, 468.000000)">
                <g id="Group-2">
                    <g id="boxing" transform="translate(1017.000000, 0.000000)">
                        <path d="M142,71.3192957 C141.859086,66.3105499 139.308268,62.576337 134.782555,60.6992404 C132.119566,47.3408324 122.893225,40.0014021 108.696696,40.0014021 C101.975252,40.0014021 96.3681493,41.6334772 92.0001753,44.8457486 C87.6774198,41.6758915 82.063306,40 75.3019023,40 C61.1067754,40 51.8807842,47.3394302 49.2174453,60.6992404 C44.6906804,62.576337 42.1395116,66.3105499 42,71.3192957 C42,71.3192957 42,72.3063926 42.0080622,72.4886691 C42.3533358,80.3360196 46.462267,87.5492585 53.2815084,92.2814348 C55.2585065,93.6534154 57.5699118,94.8280467 60.1687529,95.77974 L60.1687529,110.255643 C60.1687529,113.60357 62.8923833,116.32685 66.2399599,116.32685 L84.2404577,116.32685 C87.5883848,116.32685 90.3116646,113.60357 90.3116646,110.255643 L90.3116646,94.7582909 C90.8977534,94.4063572 91.459305,94.0284842 92.0040311,93.6299298 C92.5463035,94.0284842 93.1078551,94.4063572 93.6883354,94.7568888 L93.6883354,110.254241 C93.6883354,113.60357 96.4119657,116.328252 99.7595423,116.328252 L117.76004,116.328252 C121.107967,116.328252 123.831247,113.60357 123.831247,110.254241 L123.831247,95.77974 C126.428686,94.8280467 128.740091,93.6534154 130.71744,92.2814348 C137.537733,87.5492585 141.646664,80.3346174 141.99334,72.4679877 C142,72.2860618 142,71.3697723 142,71.3697723 L142,71.3192957 Z M76.8736859,96.8422012 L73.9765424,96.8422012 L73.9765424,92.5881499 C73.9765424,91.789639 74.6267785,91.1394029 75.4249389,91.1394029 C76.224852,91.1394029 76.8736859,91.789639 76.8736859,92.5881499 L76.8736859,96.8422012 Z M73.9765424,103.572408 L76.8736859,103.572408 L76.8736859,100.487379 L73.9765424,100.487379 L73.9765424,103.572408 Z M73.9765424,112.68062 L76.8736859,112.68062 L76.8736859,107.217235 L73.9765424,107.217235 L73.9765424,112.68062 Z M87.6265927,92.0924983 L86.6668373,92.6070786 L86.6668373,110.255643 C86.6668373,111.594673 85.5808904,112.68062 84.2404577,112.68062 L80.520266,112.68062 L80.520266,107.217235 L82.5466891,107.217235 C83.545003,107.217235 84.4157234,106.447818 84.4458692,105.450906 C84.4760149,104.418591 83.6487603,103.572408 82.6234555,103.572408 L80.520266,103.572408 L80.520266,100.487379 L82.5466891,100.487379 C83.545003,100.487379 84.4157234,99.7176118 84.4458692,98.7210505 C84.4760149,97.6883844 83.6487603,96.8422012 82.6234555,96.8422012 L80.520266,96.8422012 L80.520266,92.7139908 C80.520266,89.9549567 78.378518,87.6025393 75.6222882,87.4984314 C72.723392,87.3890655 70.3313645,89.713791 70.3313645,92.5881499 L70.3313645,96.8422012 L68.3049414,96.8422012 C67.3066275,96.8422012 66.4359071,97.6105664 66.4057613,98.6085298 C66.3756156,99.6411959 67.2025196,100.487379 68.228175,100.487379 L70.3313645,100.487379 L70.3313645,103.572408 L68.3035393,103.572408 C67.3052254,103.572408 66.4359071,104.341824 66.4057613,105.338736 C66.3742135,106.371052 67.2025196,107.217235 68.2267729,107.217235 L70.3299624,107.217235 L70.3299624,112.68062 L66.2399599,112.68062 C64.9009293,112.68062 63.8149824,111.594673 63.8149824,110.255643 L63.8149824,93.1630217 L62.5593783,92.7507966 C59.7814155,91.8404661 57.3588918,90.6752991 55.3598102,89.2868435 C49.4845503,85.2091096 45.9448824,79.0281862 45.6490338,72.327074 C45.6462295,72.2324305 45.6448274,71.7753373 45.6448274,71.3974643 C45.7531416,67.7715656 47.4963352,65.2768323 50.8302411,63.9798655 C52.0763808,63.4940287 54.3919925,63.2844108 55.6924646,63.2844108 C60.2837273,63.2844108 65.7565768,64.6031106 65.7565768,70.8839355 C65.7565768,77.1661625 60.2837273,78.4845118 55.6924646,78.4845118 C55.0408264,78.4845118 54.3986526,78.4557682 53.7810159,78.3996831 C52.7392361,78.303988 51.7696657,79.0993442 51.7314578,80.1456809 C51.6971057,81.1026321 52.4160459,81.9323404 53.3814099,82.0241797 C54.1301454,82.0939355 54.9065728,82.1296897 55.6924646,82.1296897 C60.8368661,82.1296897 64.7379321,80.617847 67.0384708,77.893165 C67.4328189,77.9615186 69.6976034,78.3285252 72.7661569,78.3285252 C77.1176559,78.3285252 83.0738886,77.5892541 87.563497,74.2125834 C87.9059664,73.9549427 88.2305586,73.6839818 88.5439339,73.4046081 L91.7768866,76.2060565 C92.1218097,76.5047094 92.5463035,76.6512316 92.9693951,76.6512316 C93.4979967,76.6512316 94.0237941,76.4237366 94.3851921,75.9775099 C95.0150974,75.2038867 94.860513,74.0551947 94.1072206,73.4018038 L90.9524364,70.667307 C92.4232669,68.497166 93.3297416,65.8997269 93.6539833,62.898125 C93.7608954,61.9001616 93.0763072,60.9498705 92.0821997,60.8226275 C91.0621528,60.6922298 90.1420074,61.4248408 90.0364973,62.4410318 C89.6284786,66.3434999 88.1071715,69.2378392 85.3824895,71.2919542 C80.1585174,75.2284239 72.0048023,74.8011259 68.8952366,74.4632135 C69.2292932,73.3716581 69.4031569,72.1763454 69.4031569,70.8853376 C69.4031569,63.8431581 64.2780346,59.6395834 55.6924646,59.6395834 C54.8161357,59.6395834 53.9755609,59.6844515 53.1703899,59.7696306 C55.8761432,49.2084646 63.4756679,43.64658 75.3019023,43.64658 C82.9259642,43.64658 88.7959661,45.9330975 92.746457,50.4433874 C96.5872315,54.8278364 98.5340839,61.1510756 98.5340839,69.2378392 C98.5340839,76.9908967 96.6419145,87.2492034 87.6265927,92.0924983 Z M138.350966,72.327074 C138.055118,79.0267841 134.5158,85.2077075 128.638788,89.2868435 C126.641108,90.6724948 124.221389,91.8376618 121.450086,92.7483429 C121.132504,92.8398316 118.274971,93.6506112 114.209506,94.0723006 C113.208738,94.1764085 112.481385,95.0720167 112.585493,96.0727844 C112.682941,97.0108069 113.472688,97.7090658 114.395638,97.7090658 C114.458734,97.7090658 114.521829,97.7048594 114.585977,97.6981993 C116.876701,97.46124 118.803222,97.1121105 120.18642,96.8134576 L120.18642,110.254241 C120.18642,111.593271 119.097669,112.682022 117.76004,112.682022 L99.7595423,112.682022 C98.4219138,112.682022 97.3345649,111.593271 97.3345649,110.254241 L97.3345649,96.2711853 C99.2312913,96.8586762 101.228971,97.2996449 103.308675,97.5818228 C103.392452,97.5940914 103.474476,97.5996999 103.5565,97.5996999 C104.454913,97.5996999 105.236598,96.9354426 105.359985,96.0209057 C105.495641,95.0225918 104.797032,94.1052506 103.799068,93.9695949 C101.119254,93.6067947 98.5957775,92.9576102 96.2941871,92.0458776 C95.7901227,91.7721124 95.3025333,91.4762638 94.8303673,91.1611359 C99.661043,86.134513 102.180664,78.6885211 102.180664,69.2378392 C102.180664,59.7338764 99.611618,52.3082154 94.8209029,47.3173468 C98.462926,44.8829049 103.118336,43.6476316 108.696696,43.6476316 C121.417136,43.6476316 129.250816,50.077783 131.361016,62.2436825 C131.648452,64.4579905 131.848255,69.0271697 129.280962,72.0613711 C128.630725,72.8293858 128.726421,73.9798304 129.494435,74.6300665 C129.836905,74.9203066 130.254388,75.0615709 130.670819,75.0615709 C131.188554,75.0615709 131.703135,74.8424886 132.063481,74.4165928 C134.493717,71.5450381 135.118013,67.9058192 135.137293,65.0139336 C137.188604,66.4335865 138.270344,68.569726 138.355173,71.3974643 C138.355173,71.538378 138.355173,72.1956247 138.350966,72.327074 Z" id="Fill-1"></path>
                    </g>
                </g>
            </g>
        </g>
    </g>
</svg>