<?xml version="1.0" encoding="UTF-8"?>
<svg width="200px" height="140px" viewBox="0 0 200 140" version="1.1" xmlns="http://www.w3.org/2000/svg" xmlns:xlink="http://www.w3.org/1999/xlink">
    <!-- Generator: Sketch 53.2 (72643) - https://sketchapp.com -->
    <title>032-scoreboard</title>
    <desc>Created with Sketch.</desc>
    <g id="Page-1" stroke="none" stroke-width="1" fill="none" fill-rule="evenodd">
        <g id="032-scoreboard" fill="#4A7CB2" fill-rule="nonzero">
            <path d="M0,140 L200,140 L200,0 L0,0 L0,140 Z M6.66666667,6.66666667 L193.333333,6.66666667 L193.333333,133.333333 L6.66666667,133.333333 L6.66666667,6.66666667 Z" id="Shape"></path>
            <polygon id="Path" points="20 20 30 20 30 13.3333333 13.3333333 13.3333333 13.3333333 33.3333333 20 33.3333333"></polygon>
            <rect id="Rectangle" x="13.3333333" y="40" width="6.66666667" height="6.66666667"></rect>
            <polygon id="Path" points="46.6666667 90 53.3333333 90 53.3333333 86.6666667 60 86.6666667 60 91.2733333 46.6666667 97.94 46.6666667 113.333333 66.6666667 113.333333 66.6666667 106.666667 53.3333333 106.666667 53.3333333 102.06 66.6666667 95.3933333 66.6666667 80 46.6666667 80"></polygon>
            <polygon id="Path" points="130 90 136.666667 90 136.666667 86.6666667 143.333333 86.6666667 143.333333 91.2733333 130 97.94 130 113.333333 150 113.333333 150 106.666667 136.666667 106.666667 136.666667 102.06 150 95.3933333 150 80 130 80"></polygon>
            <path d="M173.333333,46.6666667 L116.666667,46.6666667 L116.666667,66.6666667 L110,66.6666667 L110,40 L140,40 L140,13.3333333 L60,13.3333333 L60,40 L90,40 L90,66.6666667 L83.3333333,66.6666667 L83.3333333,46.6666667 L26.6666667,46.6666667 L26.6666667,66.6666667 L13.3333333,66.6666667 L13.3333333,126.666667 L186.666667,126.666667 L186.666667,66.6666667 L173.333333,66.6666667 L173.333333,46.6666667 Z M123.333333,53.3333333 L166.666667,53.3333333 L166.666667,66.6666667 L123.333333,66.6666667 L123.333333,53.3333333 Z M66.6666667,33.3333333 L66.6666667,20 L133.333333,20 L133.333333,33.3333333 L66.6666667,33.3333333 Z M33.3333333,53.3333333 L76.6666667,53.3333333 L76.6666667,66.6666667 L33.3333333,66.6666667 L33.3333333,53.3333333 Z M96.6666667,120 L20,120 L20,73.3333333 L96.6666667,73.3333333 L96.6666667,120 Z M96.6666667,66.6666667 L96.6666667,40 L103.333333,40 L103.333333,66.6666667 L96.6666667,66.6666667 Z M180,73.3333333 L180,120 L103.333333,120 L103.333333,73.3333333 L180,73.3333333 Z" id="Shape"></path>
            <rect id="Rectangle" x="180" y="13.3333333" width="6.66666667" height="6.66666667"></rect>
            <rect id="Rectangle" x="166.666667" y="13.3333333" width="6.66666667" height="6.66666667"></rect>
        </g>
    </g>
</svg>