<?xml version="1.0" encoding="UTF-8"?>
<svg width="286px" height="222px" viewBox="0 0 286 222" version="1.1" xmlns="http://www.w3.org/2000/svg" xmlns:xlink="http://www.w3.org/1999/xlink">
    <!-- Generator: Sketch 53.2 (72643) - https://sketchapp.com -->
    <title>017-speed</title>
    <desc>Created with Sketch.</desc>
    <g id="Page-1" stroke="none" stroke-width="1" fill="none" fill-rule="evenodd">
        <g id="017-speed" fill="#4A7CB2" fill-rule="nonzero">
            <path d="M271.875,113.321 L243.084,113.321 L235.031,60.962 C240.22,64.407 246.44,66.418 253.125,66.418 C271.219,66.418 285.938,51.69 285.938,33.601 C285.938,15.512 271.219,0.788 253.125,0.788 C235.031,0.788 220.312,15.507 220.312,33.601 C220.312,37.403 220.996,41.04 222.192,44.439 L204.258,29.083 C200.611,25.961 195.966,24.26 191.17,24.26 L126.562,24.26 C118.809,24.26 112.499,30.569 112.499,38.323 C112.499,46.077 118.808,52.386 126.562,52.386 L184.598,52.386 L135.815,90.697 C126.956,97.658 121.874,108.106 121.874,119.375 C121.874,131.844 128.137,143.309 138.632,150.059 L182.132,178.02 L145.462,193.301 C141.778,194.834 138.881,197.862 137.512,201.603 C136.143,205.353 136.401,209.539 138.229,213.092 C140.76,218.004 145.776,220.864 150.993,220.864 C152.929,220.864 154.893,220.47 156.763,219.641 L207.313,197.328 C215.207,193.653 220.311,185.642 220.311,176.923 C220.311,170.989 217.906,165.185 213.711,161 L184.981,132.266 L212.065,108.561 L214.156,125.281 C215.304,134.492 223.165,141.448 232.442,141.448 L271.873,141.448 C279.626,141.448 285.936,135.139 285.936,127.385 C285.938,119.63 279.629,113.321 271.875,113.321 Z M253.125,10.158 C266.048,10.158 276.563,20.672 276.563,33.596 C276.563,46.52 266.049,57.034 253.125,57.034 C240.202,57.034 229.687,46.52 229.687,33.596 C229.687,20.672 240.202,10.158 253.125,10.158 Z M271.875,132.071 L232.444,132.071 C227.888,132.071 224.025,128.644 223.458,124.121 L219.178,89.893 L171.262,131.809 L207.084,167.631 C209.536,170.073 210.937,173.458 210.937,176.926 C210.937,182.012 207.956,186.69 203.437,188.799 L152.971,211.069 C150.571,212.142 147.758,211.139 146.558,208.81 C145.916,207.558 145.831,206.152 146.31,204.83 C146.793,203.518 147.768,202.496 149.062,201.957 L188.901,185.359 C191.512,184.276 193.289,181.853 193.537,179.036 C193.785,176.219 192.464,173.519 190.087,171.995 L143.7,142.172 C135.905,137.152 131.25,128.63 131.25,119.363 C131.25,110.991 135.028,103.219 141.609,98.044 L199.237,52.786 L189.44,43.008 L126.562,43.008 C123.979,43.008 121.874,40.908 121.874,38.32 C121.874,35.732 123.979,33.632 126.562,33.632 L191.17,33.632 C193.729,33.632 196.209,34.532 198.154,36.196 L225.318,59.493 L235.04,122.695 L271.874,122.695 C274.457,122.695 276.562,124.795 276.562,127.383 C276.562,129.971 274.458,132.071 271.875,132.071 Z" id="Shape"></path>
            <path d="M68.991,209.4 C66.638,212.077 62.677,212.536 59.785,210.473 C58.201,209.343 57.188,207.656 56.94,205.729 C56.692,203.798 57.24,201.918 58.487,200.423 L120.793,125.657 L113.593,119.652 L51.282,194.422 C48.39,197.891 47.063,202.452 47.64,206.933 C48.217,211.414 50.659,215.488 54.338,218.113 C57.207,220.157 60.511,221.15 63.797,221.15 C68.335,221.15 72.83,219.247 76.041,215.581 L130.088,153.875 L123.033,147.697 L68.991,209.4 Z" id="Path"></path>
            <rect id="Rectangle" x="37.5" y="61.758" width="103.125" height="9.375"></rect>
            <rect id="Rectangle" x="9.375" y="61.758" width="18.75" height="9.375"></rect>
            <rect id="Rectangle" x="46.875" y="80.508" width="70.313" height="9.375"></rect>
            <rect id="Rectangle" x="18.75" y="80.508" width="18.75" height="9.375"></rect>
            <rect id="Rectangle" x="51.563" y="99.258" width="60.938" height="9.375"></rect>
            <rect id="Rectangle" x="28.125" y="99.258" width="14.063" height="9.375"></rect>
            <rect id="Rectangle" x="28.125" y="43.008" width="79.688" height="9.375"></rect>
            <rect id="Rectangle" x="0" y="43.008" width="18.75" height="9.375"></rect>
        </g>
    </g>
</svg>