<?xml version="1.0" encoding="UTF-8"?>
<svg width="200px" height="200px" viewBox="0 0 200 200" version="1.1" xmlns="http://www.w3.org/2000/svg" xmlns:xlink="http://www.w3.org/1999/xlink">
    <!-- Generator: Sketch 53.2 (72643) - https://sketchapp.com -->
    <title>008-squash</title>
    <desc>Created with Sketch.</desc>
    <g id="Page-1" stroke="none" stroke-width="1" fill="none" fill-rule="evenodd">
        <g id="Artboard" transform="translate(-405.000000, -382.000000)" fill="#4A7CB2" fill-rule="nonzero">
            <g id="008-squash" transform="translate(405.000000, 382.000000)">
                <path d="M156.145455,137.208754 C140.391246,137.208754 127.574411,150.026263 127.574411,165.779798 C127.574411,181.533333 140.391919,194.350842 156.145455,194.350842 C171.89899,194.350842 184.716498,181.533333 184.716498,165.779798 C184.716498,150.026263 171.899663,137.208754 156.145455,137.208754 Z M156.145455,181.062626 C147.718519,181.062626 140.8633,174.207407 140.8633,165.780471 C140.8633,157.353535 147.718519,150.498316 156.145455,150.498316 C164.572391,150.498316 171.427609,157.353535 171.427609,165.780471 C171.427609,174.207407 164.572391,181.062626 156.145455,181.062626 Z" id="Shape"></path>
                <path d="M191.476094,41.4074074 L158.591919,8.52323232 C152.758249,2.68956229 144.847138,-0.316498316 136.317845,0.0276094276 C127.002694,0.414814815 118.091582,4.85387205 111.870034,12.2060606 L81.2545455,48.3878788 C76.1050505,54.4734007 72.6579125,61.5461279 70.1521886,68.8094276 C64.7212121,84.5515152 45.8080808,130.812121 45.8080808,130.812121 L4.84242424,171.778451 C1.71919192,174.900337 0,179.051852 0,183.468013 C0,187.883502 1.71919192,192.034343 4.84175084,195.156902 L4.84242424,195.157576 C7.96498316,198.280135 12.1158249,199.999327 16.5313131,199.999327 C20.9474747,199.999327 25.0989899,198.280135 28.2208754,195.157576 L69.1878788,154.190572 C69.1878788,154.190572 115.448485,135.277441 131.190572,129.846465 C138.453199,127.340741 145.525926,123.893603 151.611448,118.744108 L187.793939,88.1286195 C195.145455,81.9070707 199.584512,72.9959596 199.971717,63.6808081 C200.326599,55.1515152 197.309091,47.2410774 191.476094,41.4074074 Z M186.694276,63.1299663 C186.630976,64.6505051 186.379125,66.1548822 185.963636,67.6188552 L175.973064,57.6282828 L182.428283,51.173064 C185.37037,54.3131313 186.884848,58.5367003 186.694276,63.1299663 Z M159.909091,94.3158249 L149.597306,84.0040404 L157.147475,76.4538721 L168.088889,87.3952862 L159.909091,94.3158249 Z M143.959596,78.36633 L135.614815,70.0215488 L143.164983,62.4713805 L151.509764,70.8161616 L143.959596,78.36633 Z M67.0909091,140.7367 L59.2626263,132.908418 L71.2922559,102.270034 C73.6410774,108.239057 77.1602694,113.67138 81.7447811,118.255219 C86.3292929,122.839057 91.7616162,126.358249 97.7299663,128.707744 L67.0909091,140.7367 Z M88.5993266,60.6552189 L97.1710438,69.226936 L89.620202,76.7777778 L83.4828283,70.640404 C84.7104377,67.1979798 86.4161616,63.8377104 88.5993266,60.6552189 Z M100.515825,46.1973064 L110.358249,56.0397306 L102.808081,63.5892256 L93.5952862,54.376431 L100.515825,46.1973064 Z M112.604714,31.9104377 L123.545455,42.8511785 L115.995286,50.4013468 L105.683502,40.0902357 L112.604714,31.9104377 Z M122.014815,20.789899 C122.917845,19.7232323 123.911111,18.7602694 124.972391,17.9023569 L136.734007,29.6639731 L129.183838,37.2141414 L117.773064,25.803367 L122.014815,20.789899 Z M105.070707,117.255892 C101.142761,116.030976 97.4390572,114.115825 94.1306397,111.505724 L103.601347,102.035017 L111.946128,110.380471 L105.070707,117.255892 Z M117.584512,116.016835 L120.210774,118.643098 C118.377778,118.847811 116.547475,118.924579 114.73266,118.868013 L117.584512,116.016835 Z M88.4929293,105.868013 C85.8828283,102.559596 83.9683502,98.8558923 82.7434343,94.9286195 L89.6195286,88.0525253 L97.9643098,96.3973064 L88.4929293,105.868013 Z M95.2572391,82.4148148 L102.808081,74.8639731 L111.152862,83.2087542 L103.60202,90.759596 L95.2572391,82.4148148 Z M108.445791,69.226936 L115.99596,61.6767677 L124.340741,70.0215488 L116.790572,77.5717172 L108.445791,69.226936 Z M121.632997,56.0397306 L129.183165,48.4895623 L137.527946,56.8343434 L129.977778,64.3838384 L121.632997,56.0397306 Z M134.820875,42.8518519 L142.371044,35.3016835 L150.715825,43.6464646 L143.165657,51.196633 L134.820875,42.8518519 Z M83.9824916,82.4148148 L81.1306397,85.2666667 C81.0740741,83.4518519 81.1508418,81.6215488 81.356229,79.7885522 L83.9824916,82.4148148 Z M129.358923,116.516498 L123.221549,110.379125 L130.772391,102.828283 L139.344108,111.4 C136.161616,113.583165 132.801347,115.288889 129.358923,116.516498 Z M117.584512,104.742088 L109.239731,96.3973064 L116.790572,88.8464646 L125.135354,97.1912458 L117.584512,104.742088 Z M122.427609,83.2087542 L129.977778,75.6585859 L138.322559,84.003367 L130.772391,91.5535354 L122.427609,83.2087542 Z M148.802694,56.83367 L156.352862,49.2835017 L164.697643,57.6282828 L157.147475,65.1784512 L148.802694,56.83367 Z M161.990572,43.6457912 L168.455892,37.1804714 L176.800673,45.5252525 L170.335354,51.9905724 L161.990572,43.6457912 Z M162.818182,31.5434343 L156.352862,38.0087542 L148.008081,29.6639731 L154.473401,23.1986532 L162.818182,31.5434343 Z M136.86936,13.3050505 C137.127946,13.2942761 137.386532,13.2888889 137.643098,13.2888889 C141.9367,13.2888889 145.863973,14.7939394 148.827609,17.5703704 L142.371717,24.0262626 L132.381145,14.0356902 C133.844444,13.6208754 135.348822,13.3683502 136.86936,13.3050505 Z M18.823569,185.760943 C17.9973064,186.587205 17.0329966,186.710438 16.5313131,186.710438 C16.0296296,186.710438 15.0646465,186.587205 14.2390572,185.760943 C14.2390572,185.760269 14.2390572,185.760269 14.2383838,185.760269 C13.4121212,184.934007 13.2888889,183.969697 13.2888889,183.468013 C13.2888889,182.96633 13.4121212,182.001347 14.2390572,181.175758 L51.4868687,143.927946 L56.0720539,148.513131 L18.823569,185.760943 Z M145.622896,106.40404 L136.410101,97.1912458 L143.960269,89.6410774 L153.802694,99.4835017 L145.622896,106.40404 Z M179.210101,77.9845118 L174.196633,82.226936 L162.785185,70.8154882 L170.335354,63.2653199 L182.09697,75.026936 C181.239057,76.0882155 180.276768,77.0821549 179.210101,77.9845118 Z" id="Shape"></path>
            </g>
        </g>
    </g>
</svg>