<?xml version="1.0" encoding="UTF-8"?>
<svg width="200px" height="177px" viewBox="0 0 200 177" version="1.1" xmlns="http://www.w3.org/2000/svg" xmlns:xlink="http://www.w3.org/1999/xlink">
    <!-- Generator: Sketch 53.2 (72643) - https://sketchapp.com -->
    <title>012-football-jersey</title>
    <desc>Created with Sketch.</desc>
    <defs>
        <polygon id="path-1" points="0.0291815899 0.104440888 199.21336 0.104440888 199.21336 175.565133 0.0291815899 175.565133"></polygon>
        <polygon id="path-3" points="0.0291815899 0.104440888 199.21336 0.104440888 199.21336 175.565133 0.0291815899 175.565133"></polygon>
    </defs>
    <g id="Page-1" stroke="none" stroke-width="1" fill="none" fill-rule="evenodd">
        <g id="012-football-jersey" transform="translate(0.764455, 0.475732)">
            <g id="Group-4">
                <g id="Fill-1-Clipped">
                    <mask id="mask-2" fill="white">
                        <use xlink:href="#path-1"></use>
                    </mask>
                    <g id="path-1"></g>
                    <path d="M84.0434653,150.49932 C81.8947274,150.49932 80.1525865,152.371945 80.1525865,154.676955 C80.1525865,156.981966 81.8947274,158.854591 84.0434653,158.854591 C86.1902575,158.854591 87.9343438,156.981966 87.9343438,154.676955 C87.9343438,152.371945 86.1902575,150.49932 84.0434653,150.49932 Z" id="Fill-1" fill="#90B5DD" fill-rule="nonzero" mask="url(#mask-2)"></path>
                </g>
                <g id="Fill-3-Clipped">
                    <mask id="mask-4" fill="white">
                        <use xlink:href="#path-3"></use>
                    </mask>
                    <g id="path-1"></g>
                    <path d="M198.284526,62.5668806 C193.286206,56.2617842 158.73569,12.6718129 153.821024,6.47063522 C153.752447,6.38499368 153.681925,6.30352981 153.607998,6.22415474 C149.93355,2.27890017 145.047092,0.104440888 139.849365,0.104440888 L115.170494,0.104440888 C113.021757,0.104440888 111.279616,1.97497719 111.279616,4.28207642 L111.279616,12.6373475 C111.279616,19.548201 106.043466,25.1702541 99.6069798,25.1702541 C93.1700074,25.1702541 87.9343438,19.548201 87.9343438,12.6373475 L87.9343438,4.28207642 C87.9343438,1.97497719 86.1922029,0.104440888 84.0434653,0.104440888 L59.3626493,0.104440888 C54.1663808,0.104440888 49.2799236,2.27890017 45.604016,6.22415474 C45.5315484,6.30352981 45.4595672,6.38499368 45.3929358,6.47063522 C40.4763242,12.6739018 5.92580819,56.2617842 0.927001838,62.5668806 C-0.385683345,64.2254019 -0.294247699,66.6896846 1.14002744,68.2296657 L24.4852994,93.2954787 C26.0032284,94.9273676 28.4671274,94.9273676 29.9870017,93.2954787 L49.0255573,72.8537859 L49.0255573,171.387497 C49.0255573,173.694597 50.7676983,175.565133 52.916436,175.565133 L146.297524,175.565133 C148.446261,175.565133 150.188402,173.694597 150.188402,171.387497 L150.188402,72.8537859 C154.44016,77.4194194 164.851179,88.5977276 169.224526,93.2954787 C170.7444,94.9273676 173.208786,94.9273676 174.72866,93.2954787 L198.073932,68.2296657 C199.508207,66.6896846 199.599643,64.2254019 198.284526,62.5668806 Z M72.3708293,8.45971194 L80.1525865,8.45971194 L80.1525865,12.6373475 C80.1525865,24.1545663 88.8783682,33.5255251 99.6069798,33.5255251 C110.33316,33.5255251 119.061373,24.1545663 119.061373,12.6373475 L119.061373,8.45971194 L126.84313,8.45971194 L126.84313,12.6373475 C126.84313,28.7624983 114.625285,41.8807962 99.6069798,41.8807962 C84.5886745,41.8807962 72.3708293,28.7624983 72.3708293,12.6373475 L72.3708293,8.45971194 Z M27.2361505,84.4341916 L9.18198726,65.0473518 L14.8548883,57.8894954 L33.407084,77.8089838 L27.2361505,84.4341916 Z M160.305173,71.9012851 L149.048375,59.8153855 C147.935097,58.6200594 146.261533,58.2628716 144.807803,58.9093606 C143.35456,59.556372 142.406645,61.0801646 142.406645,62.7689737 L142.406645,150.49932 L99.6069798,150.49932 C97.4582421,150.49932 95.7161011,152.369856 95.7161011,154.676955 C95.7161011,156.984055 97.4582421,158.854591 99.6069798,158.854591 L142.406645,158.854591 L142.406645,167.209862 L56.8073147,167.209862 L56.8073147,159.201335 L68.4799505,159.201335 C70.6286884,159.201335 72.3708293,157.330798 72.3708293,155.023699 C72.3708293,152.7166 70.6286884,150.846064 68.4799505,150.846064 L56.8073147,150.846064 L56.8073147,62.7689737 C56.8073147,61.0801646 55.8593994,59.556372 54.4056699,58.9093606 C52.9524265,58.2628716 51.2788625,58.6200594 50.1655848,59.8153855 L38.9087865,71.9012851 L19.9140033,51.5071128 L51.2102857,12.023235 C53.4047413,9.72449109 56.2942051,8.45971194 59.3626493,8.45971194 L64.589072,8.45971194 L64.589072,12.6373475 C64.589072,33.3683415 80.2970354,50.2360672 99.6069798,50.2360672 C118.914979,50.2360672 134.624888,33.3683415 134.624888,12.6373475 L134.624888,8.45971194 L139.849365,8.45971194 C142.919268,8.45971194 145.809218,9.72449109 148.001728,12.023235 L179.297524,51.5071128 L160.305173,71.9012851 Z M171.977809,84.4341916 L165.806876,77.8089838 L184.359071,57.8894954 L190.031972,65.0473518 L171.977809,84.4341916 Z" id="Fill-3" fill="#4A7CB2" fill-rule="nonzero" mask="url(#mask-4)"></path>
                </g>
            </g>
            <path d="M122.504239,92.4529865 L110.910778,92.4529865 L110.910778,84.0256364 L122.504239,84.0256364 C124.638402,84.0256364 126.368726,82.1389636 126.368726,79.8119615 C126.368726,77.4849596 124.638402,75.5982865 122.504239,75.5982865 L107.046291,75.5982865 C104.912128,75.5982865 103.181804,77.4849596 103.181804,79.8119615 L103.181804,96.6666615 C103.181804,98.9936634 104.912128,100.880336 107.046291,100.880336 L118.639752,100.880336 L118.639752,109.307686 L107.046291,109.307686 C104.912128,109.307686 103.181804,111.194359 103.181804,113.521361 C103.181804,115.848363 104.912128,117.735036 107.046291,117.735036 L122.504239,117.735036 C124.638402,117.735036 126.368726,115.848363 126.368726,113.521361 L126.368726,96.6666615 C126.368726,94.3396594 124.638402,92.4529865 122.504239,92.4529865 Z" id="Fill-5" fill="#4A7CB2" fill-rule="nonzero"></path>
            <path d="M91.2018939,75.5982865 C93.3360568,75.5982865 95.0663811,77.4849596 95.0663811,79.8119615 L95.0663811,113.521361 C95.0663811,115.848363 93.3360568,117.735036 91.2018939,117.735036 L75.7439459,117.735036 C73.6097829,117.735036 71.8794587,115.848363 71.8794587,113.521361 L71.8794587,79.8119615 C71.8794587,77.4849596 73.6097829,75.5982865 75.7439459,75.5982865 L91.2018939,75.5982865 Z M79.6084328,109.307686 L87.3374069,109.307686 L87.3374069,84.0256364 L79.6084328,84.0256364 L79.6084328,109.307686 Z" id="Fill-6" fill="#4A7CB2" fill-rule="nonzero"></path>
        </g>
    </g>
</svg>