<?xml version="1.0" encoding="UTF-8"?>
<svg width="189px" height="200px" viewBox="0 0 189 200" version="1.1" xmlns="http://www.w3.org/2000/svg" xmlns:xlink="http://www.w3.org/1999/xlink">
    <!-- Generator: Sketch 53.2 (72643) - https://sketchapp.com -->
    <title>024-shirt</title>
    <desc>Created with Sketch.</desc>
    <g id="Page-1" stroke="none" stroke-width="1" fill="none" fill-rule="evenodd">
        <g id="024-shirt" fill="#4A7CB2" fill-rule="nonzero">
            <path d="M86.1089844,17.1769531 L102.4,17.1769531 C104.144531,17.1769531 105.557812,15.7628906 105.557812,14.0191406 C105.557812,12.275 104.144531,10.8613281 102.4,10.8613281 L86.1089844,10.8613281 C84.3644531,10.8613281 82.9511719,12.2753906 82.9511719,14.0191406 C82.9511719,15.7628906 84.3644531,17.1769531 86.1089844,17.1769531 Z" id="Path"></path>
            <path d="M188.169141,75.2710937 L177.303125,30.5027344 C177.195312,30.0597656 174.552344,19.6011719 164.161719,15.1851563 C156.640625,11.9890625 132.854688,2.95898438 126.899219,0.70390625 C126.356641,0.264453125 125.666016,0 124.913281,0 L124.460938,0 L63.8210938,0 C63.7199219,0 63.6195312,0.00546875 63.51875,0.015234375 C63.4753906,0.01953125 63.4328125,0.026953125 63.3898437,0.0328125 C63.3347656,0.040234375 63.2796875,0.04765625 63.2246094,0.058203125 C63.1734375,0.06796875 63.1230469,0.080859375 63.0726562,0.09296875 C63.0277344,0.10390625 62.9824219,0.11484375 62.9375,0.12734375 C62.8851562,0.142578125 62.834375,0.16015625 62.7828125,0.177734375 C62.7566406,0.187109375 62.7300781,0.19375 62.7039062,0.203515625 C61.4773437,0.6671875 32.5585937,11.5984375 24.1195312,15.1851563 C14.1296875,19.43125 11.303125,29.2578125 11.0042969,30.4023438 C11.0042969,30.4027344 11.0042969,30.403125 11.0039062,30.4035156 C10.9984375,30.425 10.9941406,30.4417969 10.9898437,30.4570312 C10.984375,30.4777344 10.9804687,30.4941406 10.9785156,30.5019531 L3.25664062,62.3164062 C3.25664062,62.3164062 3.25664062,62.3164062 3.25664062,62.3167969 L0.112109375,75.2714844 C-0.259375,76.8007812 0.55234375,78.3699219 2.01523437,78.9511719 L33.0582031,91.2832031 L33.0582031,184.004297 L33.0582031,196.842187 C33.0582031,198.586719 34.471875,200 36.2160156,200 L152.064844,200 C153.809375,200 155.222656,198.586719 155.222656,196.842187 L155.222656,184.004297 L155.222656,123.878125 C155.222656,122.133984 153.809375,120.720312 152.064844,120.720312 C150.320312,120.720312 148.907031,122.134375 148.907031,123.878125 L148.907031,180.846094 L71.296875,180.846094 C69.5523438,180.846094 68.1390625,182.259766 68.1390625,184.003906 C68.1390625,185.748047 69.5523438,187.161719 71.296875,187.161719 L148.907422,187.161719 L148.907422,193.683984 L39.3746094,193.683984 L39.3746094,187.161719 L60.7707031,187.161719 C62.5152344,187.161719 63.9285156,185.747656 63.9285156,184.003906 C63.9285156,182.259375 62.5152344,180.846094 60.7707031,180.846094 L39.3746094,180.846094 L39.3746094,89.1390625 L39.3746094,75.5976562 L39.3746094,51.1273438 C39.3746094,50.5511719 39.2171875,49.9863281 38.9191406,49.4933594 L22.9933594,23.1554688 C24.0214844,22.3292969 25.2132812,21.5835937 26.5910156,20.9980469 C33.05625,18.2503906 52.4429687,10.8542969 60.9085937,7.63945312 C62.9394531,26.3023438 77.434375,41.3117187 94.3675781,41.3117187 C111.250391,41.3117187 125.711328,26.390625 127.809375,7.80429687 C136.487109,11.1011719 155.334766,18.2960937 161.691797,20.9976562 C163.069531,21.5832031 164.260938,22.3289062 165.289453,23.1550781 L149.364063,49.4925781 C149.066016,49.9855469 148.908594,50.5507812 148.908594,51.1265625 L148.908594,75.596875 L148.908594,89.1386719 L148.908594,113.351562 C148.908594,115.096094 150.322266,116.509375 152.066406,116.509375 C153.810937,116.509375 155.224219,115.096094 155.224219,113.351562 L155.224219,91.2820313 L186.267188,78.95 C187.728516,78.3695313 188.540234,76.8003906 188.169141,75.2710937 Z M33.0589844,84.4867187 L6.89765625,74.09375 L8.52109375,67.40625 L33.0585937,77.6972656 L33.0585937,84.4867187 L33.0589844,84.4867187 Z M33.0589844,52.0074219 L33.0589844,70.8484375 L10.0300781,61.1902344 L17.1136719,32.00625 C17.1226562,31.9707031 17.5527344,30.3421875 18.7128906,28.2820313 L33.0589844,52.0074219 Z M94.3671875,34.9957031 C81.8855469,34.9957031 68.5714844,23.603125 67.1113281,6.315625 L121.623828,6.315625 C120.162891,23.6035156 106.848828,34.9957031 94.3671875,34.9957031 Z M155.223437,52.0074219 L169.569922,28.28125 C170.329687,29.6300781 170.776953,30.7933594 170.995703,31.4417969 C170.996094,31.44375 170.996875,31.4457031 170.997656,31.4476562 C171.018359,31.5089844 171.036328,31.5648437 171.053125,31.6164063 C171.05625,31.6261719 171.059375,31.6363281 171.0625,31.6457031 C171.075391,31.6867188 171.087109,31.7234375 171.097266,31.7574219 C171.101562,31.7703125 171.105859,31.7847656 171.109375,31.796875 C171.117969,31.8246094 171.125,31.8492188 171.13125,31.8710938 C171.134375,31.88125 171.1375,31.8933594 171.140234,31.9023438 C171.145312,31.9199219 171.149219,31.9335938 171.152344,31.9460937 C171.154297,31.9535156 171.157422,31.9636719 171.158984,31.9695312 C171.162109,31.9804688 171.164453,31.990625 171.164844,31.9921875 L178.251953,61.190625 L155.223047,70.8488281 L155.223047,52.0074219 L155.223437,52.0074219 Z M155.223438,84.4867187 L155.223438,77.6972656 L179.760938,67.40625 L181.383984,74.0941406 L155.223438,84.4867187 Z" id="Shape"></path>
        </g>
    </g>
</svg>