<?xml version="1.0" encoding="UTF-8"?>
<svg width="114px" height="200px" viewBox="0 0 114 200" version="1.1" xmlns="http://www.w3.org/2000/svg" xmlns:xlink="http://www.w3.org/1999/xlink">
    <!-- Generator: Sketch 53.2 (72643) - https://sketchapp.com -->
    <title>041-food-and-restaurant</title>
    <desc>Created with Sketch.</desc>
    <g id="Page-1" stroke="none" stroke-width="1" fill="none" fill-rule="evenodd">
        <g id="041-food-and-restaurant" fill="#4A7CB2" fill-rule="nonzero">
            <path d="M94.3007813,163.601562 C92.6917969,163.398438 91.2300781,164.535937 91.0273438,166.141016 L88.8160156,183.658203 C88.7644531,184.066016 88.415625,184.373828 88.0042969,184.373828 L25.2769531,184.373828 C24.865625,184.373828 24.5167969,184.066016 24.4652344,183.658203 L15.9421875,116.141016 C15.7394531,114.535938 14.2738281,113.4 12.66875,113.601562 C11.0636719,113.804297 9.92617188,115.269922 10.1292969,116.875 L18.6523438,184.392187 C19.04375,187.491797 21.5394531,189.879297 24.5898438,190.195312 L24.5898438,193.322266 C24.5898438,197.004297 27.5851563,200 31.2675781,200 L82.0144531,200 C85.6964844,200 88.6921875,197.004687 88.6921875,193.322266 L88.6921875,190.195312 C91.7425781,189.879687 94.2382813,187.491797 94.6296875,184.392187 L96.8410156,166.875 C97.0429688,165.269922 95.9058594,163.804297 94.3007813,163.601562 Z M82.0140625,194.140625 L31.2671875,194.140625 C30.8160156,194.140625 30.4488281,193.773438 30.4488281,193.322266 L30.4488281,190.233594 L82.8324219,190.233594 L82.8324219,193.322266 C82.8324219,193.773438 82.4652344,194.140625 82.0140625,194.140625 Z" id="XMLID_616_"></path>
            <path d="M106.978125,58.6066406 L101.248047,58.6066406 L101.248047,41.7960937 C101.248047,39.7871094 100.356641,37.9046875 98.8027344,36.63125 C97.2484375,35.3578125 95.2273438,34.8535156 93.2578125,35.2488281 L42.4199219,45.4386719 L18.7101562,45.4386719 C15.028125,45.4386719 12.0324219,48.4339844 12.0324219,52.1164063 L12.0324219,58.60625 L6.30234375,58.60625 C2.83632812,58.60625 0.016796875,61.4257812 0.016796875,64.8917969 L0.016796875,77.3574219 C0.016796875,80.6980469 2.63828125,83.4304688 5.93125,83.6242188 L8.42617187,103.389063 C8.61328125,104.869922 9.87460937,105.952344 11.3292969,105.952344 C11.4515625,105.952344 11.5753906,105.944531 11.7,105.928906 C13.3050781,105.726172 14.4421875,104.260547 14.2394531,102.655469 L11.8394531,83.6433594 L75.2878906,83.6433594 C76.9058594,83.6433594 78.2175781,82.3316406 78.2175781,80.7136719 C78.2175781,79.0957031 76.9058594,77.7839844 75.2878906,77.7839844 L6.303125,77.7839844 C6.06796875,77.7839844 5.87695313,77.5925781 5.87695313,77.3578125 L5.87695313,64.8921875 C5.87695313,64.6570313 6.06796875,64.4660156 6.303125,64.4660156 L106.978516,64.4660156 C107.213672,64.4660156 107.404688,64.6570313 107.404688,64.8921875 L107.404688,77.3578125 C107.404688,77.5929688 107.213672,77.7839844 106.978516,77.7839844 L88.7742188,77.7839844 C87.15625,77.7839844 85.8445313,79.0957031 85.8445313,80.7136719 C85.8445313,82.3316406 87.15625,83.6433594 88.7742188,83.6433594 L101.441406,83.6433594 L92.7296875,152.655469 C92.5269531,154.260937 93.6640625,155.726563 95.2691406,155.928906 C95.39375,155.944922 95.5175781,155.952344 95.6398437,155.952344 C97.0945312,155.952344 98.3558594,154.869922 98.5429688,153.389063 L107.349609,83.6242188 C110.642578,83.4304688 113.264063,80.6980469 113.264063,77.3574219 L113.264063,64.8917969 C113.263672,61.4265625 110.444141,58.6066406 106.978125,58.6066406 Z M17.8925781,52.1167969 C17.8925781,51.665625 18.259375,51.2984375 18.7109375,51.2984375 L42.7113281,51.2984375 C42.9046875,51.2984375 43.0976563,51.2792969 43.2871094,51.2414063 L71.4800781,45.5902344 L71.4800781,49.4933594 C71.4800781,51.1113281 72.7917969,52.4230469 74.4097656,52.4230469 C76.0277344,52.4230469 77.3394531,51.1113281 77.3394531,49.4933594 L77.3394531,44.4160156 L82.8539063,43.3105469 L82.8539063,46.3425781 C82.8539063,47.9605469 84.165625,49.2722656 85.7835938,49.2722656 C87.4015625,49.2722656 88.7132813,47.9605469 88.7132813,46.3425781 L88.7132813,42.1359375 L94.4101563,40.9941406 C94.7417969,40.928125 94.9777344,41.071875 95.0894531,41.1636719 C95.2015625,41.2554688 95.3890625,41.459375 95.3890625,41.7964844 L95.3890625,58.6070313 L17.8925781,58.6070313 L17.8925781,52.1167969 Z" id="XMLID_619_"></path>
            <path d="M32.8996094,33.503125 C33.6492188,33.503125 34.3992188,33.2171875 34.9710938,32.6453125 C36.1152344,31.5011719 36.1152344,29.6460938 34.9710938,28.5019531 C34.165625,27.6964844 34.165625,26.3863281 34.9710938,25.58125 L48.4875,12.0652344 C51.5773437,8.97539063 51.5773437,3.94804687 48.4875,0.858203125 C47.3433594,-0.2859375 45.4882812,-0.2859375 44.3445313,0.858203125 C43.2003906,2.00234375 43.2003906,3.85742188 44.3445313,5.00117187 C45.15,5.80664062 45.15,7.11679687 44.3445313,7.921875 L30.828125,21.4378906 C27.7386719,24.5277344 27.7386719,29.5550781 30.828125,32.6449219 C31.4,33.2167969 32.15,33.503125 32.8996094,33.503125 Z" id="XMLID_631_"></path>
            <path d="M61.3269531,7.921875 L47.8105469,21.4378906 C44.7207031,24.5277344 44.7207031,29.5550781 47.8105469,32.6449219 C48.3824219,33.2167969 49.1324219,33.503125 49.8820313,33.503125 C50.6316406,33.503125 51.3816406,33.2171875 51.9535156,32.6449219 C53.0976562,31.5007812 53.0976562,29.6457031 51.9535156,28.5019531 C51.1480469,27.6964844 51.1480469,26.3863281 51.9535156,25.58125 L65.4699219,12.0652344 C66.9667969,10.5683594 67.7910156,8.57851562 67.7910156,6.46171875 C67.7910156,4.34492187 66.9667969,2.3546875 65.4699219,0.858203125 C64.3257813,-0.2859375 62.4707031,-0.2859375 61.3269531,0.858203125 C60.1828125,2.00234375 60.1828125,3.85742187 61.3269531,5.00117187 C62.1324219,5.80664062 62.1324219,7.11679687 61.3269531,7.921875 Z" id="XMLID_632_"></path>
            <path d="M78.3101562,7.921875 L64.79375,21.4378906 C61.7039062,24.5277344 61.7039062,29.5550781 64.79375,32.6449219 C65.365625,33.2167969 66.115625,33.503125 66.8652344,33.503125 C67.6148437,33.503125 68.3648438,33.2171875 68.9367187,32.6449219 C70.0808594,31.5007812 70.0808594,29.6457031 68.9367187,28.5019531 C68.13125,27.6964844 68.13125,26.3863281 68.9367187,25.58125 L82.453125,12.0652344 C85.5425781,8.97539063 85.5425781,3.94804687 82.453125,0.858203125 C81.3085937,-0.285546875 79.4539062,-0.2859375 78.3097656,0.858203125 C77.165625,2.00234375 77.165625,3.85742187 78.3097656,5.0015625 C79.1152344,5.80664062 79.1152344,7.11679688 78.3101562,7.921875 Z" id="XMLID_633_"></path>
        </g>
    </g>
</svg>