<?xml version="1.0" encoding="UTF-8"?>
<svg width="184px" height="200px" viewBox="0 0 184 200" version="1.1" xmlns="http://www.w3.org/2000/svg" xmlns:xlink="http://www.w3.org/1999/xlink">
    <!-- Generator: Sketch 53.2 (72643) - https://sketchapp.com -->
    <title>042-flag</title>
    <desc>Created with Sketch.</desc>
    <g id="Page-1" stroke="none" stroke-width="1" fill="none" fill-rule="evenodd">
        <g id="042-flag" fill="#4A7CB2" fill-rule="nonzero">
            <path d="M148.046667,83.3333333 L183.413333,31.8866667 C184.113333,30.8666667 184.19,29.5433333 183.616667,28.4466667 C183.04,27.3533333 181.903333,26.6666667 180.666667,26.6666667 L80.6666667,26.6666667 L80.6666667,13.3333333 C80.6666667,11.49 79.1766667,10 77.3333333,10 L7.33333333,10 L7.33333333,3.33333333 C7.33333333,1.49 5.84333333,0 4,0 C2.15666667,0 0.666666667,1.49 0.666666667,3.33333333 L0.666666667,13.3333333 L0.666666667,110 L0.666666667,196.666667 C0.666666667,198.51 2.15666667,200 4,200 C5.84333333,200 7.33333333,198.51 7.33333333,196.666667 L7.33333333,113.333333 L44.0866667,113.333333 C41.97,116.126667 40.6666667,119.566667 40.6666667,123.333333 C40.6666667,132.523333 48.1433333,140 57.3333333,140 L180.666667,140 C181.903333,140 183.04,139.313333 183.616667,138.22 C184.193333,137.123333 184.113333,135.796667 183.413333,134.78 L148.046667,83.3333333 Z M7.33333333,16.6666667 L74,16.6666667 L74,30 L74,106.666667 L57.3333333,106.666667 L7.33333333,106.666667 L7.33333333,16.6666667 Z M57.3333333,133.333333 C51.82,133.333333 47.3333333,128.846667 47.3333333,123.333333 C47.3333333,117.82 51.82,113.333333 57.3333333,113.333333 L77.3333333,113.333333 C79.1766667,113.333333 80.6666667,111.843333 80.6666667,110 L80.6666667,33.3333333 L174.33,33.3333333 L141.253333,81.4466667 C140.473333,82.5833333 140.473333,84.0866667 141.253333,85.2233333 L174.33,133.333333 L57.3333333,133.333333 Z" id="Shape"></path>
        </g>
    </g>
</svg>