<?xml version="1.0" encoding="UTF-8"?>
<svg width="200px" height="178px" viewBox="0 0 200 178" version="1.1" xmlns="http://www.w3.org/2000/svg" xmlns:xlink="http://www.w3.org/1999/xlink">
    <!-- Generator: Sketch 53.2 (72643) - https://sketchapp.com -->
    <title>002-art-and-design</title>
    <desc>Created with Sketch.</desc>
    <g id="Page-1" stroke="none" stroke-width="1" fill="none" fill-rule="evenodd">
        <g id="Artboard" transform="translate(-597.000000, -771.000000)" fill="#4A7CB2" fill-rule="nonzero">
            <g id="002-art-and-design" transform="translate(597.000000, 771.000000)">
                <path d="M200,12.8253906 L80.859375,12.8253906 L80.859375,0.325390625 L29.1667969,0.325390625 L29.1667969,12.8253906 L24.609375,12.8253906 C14.85625,12.8253906 6.41015625,18.5285156 2.43046875,26.775 C0.8734375,30.0019531 0,33.6183594 0,37.4347656 L0,152.408594 C0,165.978125 11.0398437,177.017969 24.609375,177.017969 L85.4167969,177.017969 C98.5496094,177.017969 109.311719,166.677344 109.991016,153.710547 L200,153.710547 L200,12.8253906 Z M85.4167969,165.299609 L24.609375,165.299609 C17.5015625,165.299609 11.71875,159.516797 11.71875,152.408984 L11.71875,116.210937 L98.3074219,116.210937 L98.3074219,152.408984 C98.3074219,159.516797 92.5246094,165.299609 85.4167969,165.299609 Z M69.140625,12.0441406 L69.140625,25.3253906 L40.8855469,25.3253906 L40.8855469,12.0441406 L69.140625,12.0441406 Z M80.859375,37.0441406 L80.859375,24.5441406 L85.4167969,24.5441406 C92.5246094,24.5441406 98.3074219,30.3269531 98.3074219,37.4347656 C98.3074219,44.5425781 92.5246094,50.3253906 85.4167969,50.3253906 L24.609375,50.3253906 C17.5015625,50.3253906 11.71875,44.5425781 11.71875,37.4347656 C11.71875,34.7691406 12.5320312,32.2902344 13.9234375,30.2324219 C16.2421875,26.803125 20.1667969,24.5441406 24.609375,24.5441406 L29.1667969,24.5441406 L29.1667969,37.0441406 L80.859375,37.0441406 Z M11.71875,58.3871094 C15.4703125,60.7039063 19.8855469,62.0445312 24.609375,62.0445312 L85.4167969,62.0445312 C90.140625,62.0445312 94.5558594,60.7039063 98.3074219,58.3871094 L98.3074219,104.492187 L11.71875,104.492187 L11.71875,58.3871094 Z M110.026172,89.1277344 L188.28125,89.1277344 L188.28125,141.992188 L110.026172,141.992188 L110.026172,89.1277344 Z M188.28125,77.4089844 L110.026172,77.4089844 L110.026172,37.4347656 C110.026172,32.7109375 108.685547,28.2957031 106.36875,24.5441406 L188.28125,24.5441406 L188.28125,77.4089844 Z" id="Shape"></path>
            </g>
        </g>
    </g>
</svg>