<?xml version="1.0" encoding="UTF-8"?>
<svg width="187px" height="200px" viewBox="0 0 187 200" version="1.1" xmlns="http://www.w3.org/2000/svg" xmlns:xlink="http://www.w3.org/1999/xlink">
    <!-- Generator: Sketch 53.2 (72643) - https://sketchapp.com -->
    <title>005-safe</title>
    <desc>Created with Sketch.</desc>
    <g id="Page-1" stroke="none" stroke-width="1" fill="none" fill-rule="evenodd">
        <g id="Artboard" transform="translate(-1294.000000, -85.000000)" fill="#4A7CB2" fill-rule="nonzero">
            <g id="005-safe" transform="translate(1294.000000, 85.000000)">
                <path d="M184.381339,85.3955375 C168.244219,85.3955375 155.109939,72.6612576 155.058418,56.988641 L160.359838,8.40162272 C160.366734,8.33955375 160.36998,8.27707911 160.36998,8.21460446 C160.36998,3.90872211 156.866531,0.405273834 152.560649,0.405273834 L33.6462475,0.405273834 C29.3403651,0.405273834 25.8369168,3.90872211 25.8369168,8.21460446 C25.8369168,8.28154158 25.8409736,8.3484787 25.8482759,8.41460446 L31.5286004,56.9947262 C31.4705882,72.5095335 17.8920892,85.5983773 1.82555781,85.5983773 C0.873022312,85.5983773 0.101419878,86.3699797 0.101419878,87.3225152 L0.101419878,184.641379 C0.101419878,192.88641 6.80892495,199.59432 15.0539554,199.59432 L171.15213,199.59432 C179.39716,199.59432 186.105071,192.88641 186.105071,184.641379 L186.105071,87.1196755 C186.105477,86.16714 185.333874,85.3955375 184.381339,85.3955375 Z M3.54969574,90.6705882 L81.9131846,90.6701826 L81.9131846,103.720081 L3.54969574,103.720081 L3.54969574,90.6705882 Z M85.1521298,66.621501 L57.5943205,15.8896552 L128.760649,15.8896552 L101.055578,66.6178499 C100.917241,66.8713996 100.844625,67.1553753 100.844625,67.4442191 L100.844625,196.146045 L85.3509128,196.146045 C85.3529412,196.109533 85.3614604,196.075456 85.3614604,196.03854 L85.3614604,67.4442191 C85.3614604,67.1565923 85.2896552,66.8738337 85.1521298,66.621501 Z M130.643408,12.4413793 L55.7208925,12.4413793 L51.0563895,3.85395538 L135.333469,3.85395538 L130.643408,12.4413793 Z M104.292901,90.6705882 L182.657201,90.6705882 L182.657201,103.720081 L104.292901,103.720081 L104.292901,90.6705882 Z M161.359838,79.5513185 C165.032454,83.0900609 169.388641,85.6864097 174.116024,87.2223124 L104.292901,87.2223124 L104.292901,67.8843813 L139.26288,3.85395538 L142.344828,3.85395538 L116.640974,50.1095335 C116.344422,50.6434077 116.35213,51.294929 116.662069,51.821501 C116.972008,52.348073 117.53712,52.6713996 118.148073,52.6713996 L131.670994,52.6713996 C132.302231,52.6713996 132.882759,52.326572 133.184584,51.7724138 L156.907099,8.25882353 L151.62069,56.7099391 C151.613793,56.7720081 151.610548,56.8344828 151.610548,56.8969574 C151.610142,65.4470588 155.072617,73.4924949 161.359838,79.5513185 Z M154.980122,4.58864097 L130.646653,49.2223124 L121.07789,49.2223124 L146.289249,3.85395538 L152.560649,3.85395538 C153.455578,3.85395538 154.287221,4.12494929 154.980122,4.58864097 Z M39.4352941,3.85395538 L64.6466531,49.2227181 L55.0787018,49.2227181 L30.9115619,4.82068966 C31.6604462,4.21663286 32.611359,3.85395538 33.6458418,3.85395538 L39.4352941,3.85395538 Z M34.9772819,56.8965517 C34.9772819,56.8296146 34.9732252,56.7626775 34.9655172,56.6965517 L29.4231237,9.29858012 L52.5395538,51.7707911 C52.8413793,52.3257606 53.4223124,52.6709939 54.0535497,52.6709939 L67.5764706,52.6709939 C68.1874239,52.6709939 68.7525355,52.3476673 69.0624746,51.8210953 C69.3724138,51.2945233 69.3801217,50.6434077 69.08357,50.1091278 L43.3801217,3.85395538 L47.1326572,3.85395538 L81.9131846,67.8823529 L81.9131846,87.2223124 L12.6129817,87.2223124 C25.4766734,82.7687627 34.9772819,70.6811359 34.9772819,56.8965517 Z M3.54969574,184.641379 L3.54969574,118.051116 L38.6624746,118.051116 C39.6150101,118.051116 40.3866126,117.279513 40.3866126,116.326978 C40.3866126,115.374442 39.6150101,114.60284 38.6624746,114.60284 L3.54969574,114.60284 L3.54969574,107.168357 L81.9131846,107.168357 L81.9131846,196.038945 C81.9131846,196.075862 81.9217039,196.109939 81.9237323,196.14645 L15.0539554,196.14645 C8.71075051,196.146045 3.54969574,190.98499 3.54969574,184.641379 Z M171.152535,196.146045 L104.292901,196.146045 L104.292901,107.168357 L182.657201,107.168357 L182.657201,114.60284 L148.866531,114.60284 C147.913996,114.60284 147.142394,115.374442 147.142394,116.326978 C147.142394,117.279513 147.913996,118.051116 148.866531,118.051116 L182.657201,118.051116 L182.657201,184.641379 C182.657201,190.98499 177.496146,196.146045 171.152535,196.146045 Z" id="Shape"></path>
                <path d="M71.7586207,140.91359 L17.6677485,140.91359 C16.715213,140.91359 15.9436105,141.685193 15.9436105,142.637728 L15.9436105,169.473022 C15.9436105,174.449899 19.9926978,178.499391 24.9699797,178.499391 L64.4563895,178.499391 C69.4336714,178.499391 73.4827586,174.449899 73.4827586,169.473022 L73.4827586,142.637728 C73.4827586,141.685193 72.7107505,140.91359 71.7586207,140.91359 Z M70.0344828,169.473022 C70.0344828,172.548884 67.5322515,175.051116 64.4563895,175.051116 L24.9699797,175.051116 C21.8941176,175.051116 19.3918864,172.548884 19.3918864,169.473022 L19.3918864,156.268966 C19.5825558,156.341582 19.7870183,156.385801 20.0028398,156.385801 L56.5119675,156.385801 C57.464503,156.385801 58.2361055,155.614199 58.2361055,154.661663 C58.2361055,153.709128 57.464503,152.937525 56.5119675,152.937525 L20.0028398,152.937525 C19.7870183,152.937525 19.5825558,152.981744 19.3918864,153.054361 L19.3918864,144.36146 L70.0344828,144.36146 L70.0344828,169.473022 Z" id="Shape"></path>
                <path d="M168.323327,140.91359 L114.232454,140.91359 C113.279919,140.91359 112.508316,141.685193 112.508316,142.637728 L112.508316,169.473022 C112.508316,174.449899 116.557809,178.499391 121.534686,178.499391 L161.021095,178.499391 C165.997972,178.499391 170.047465,174.449899 170.047465,169.473022 L170.047465,142.637728 C170.047465,141.685193 169.275862,140.91359 168.323327,140.91359 Z M161.021095,175.051116 L121.534686,175.051116 C118.458824,175.051116 115.956592,172.548884 115.956592,169.473022 L115.956592,144.361866 L166.599189,144.361866 L166.599189,153.544422 C166.283164,153.176065 165.819878,152.937931 165.296146,152.937931 L128.787018,152.937931 C127.834483,152.937931 127.06288,153.709533 127.06288,154.662069 C127.06288,155.614604 127.834483,156.386207 128.787018,156.386207 L165.296146,156.386207 C165.819878,156.386207 166.283164,156.148073 166.599189,155.779716 L166.599189,169.473428 C166.599189,172.548884 164.096957,175.051116 161.021095,175.051116 Z" id="Shape"></path>
            </g>
        </g>
    </g>
</svg>