<?xml version="1.0" encoding="UTF-8"?>
<svg width="76px" height="200px" viewBox="0 0 76 200" version="1.1" xmlns="http://www.w3.org/2000/svg" xmlns:xlink="http://www.w3.org/1999/xlink">
    <!-- Generator: Sketch 53.2 (72643) - https://sketchapp.com -->
    <title>008-flash-drive</title>
    <desc>Created with Sketch.</desc>
    <g id="Page-1" stroke="none" stroke-width="1" fill="none" fill-rule="evenodd">
        <g id="008-flash-drive" fill="#4A7CB2" fill-rule="nonzero">
            <path d="M72.3354207,48.288454 L67.77182,48.288454 L67.77182,37.8731898 C67.77182,36.2520548 66.4575342,34.9377691 64.8363992,34.9377691 C63.2152642,34.9377691 61.9009785,36.2520548 61.9009785,37.8731898 L61.9009785,48.288454 L13.4900196,48.288454 L13.4900196,5.87084149 L61.9009785,5.87084149 L61.9009785,26.1315068 C61.9009785,27.7526419 63.2152642,29.0669276 64.8363992,29.0669276 C66.4575342,29.0669276 67.77182,27.7526419 67.77182,26.1315068 L67.77182,2.93542074 C67.77182,1.31428571 66.4575342,0 64.8363992,0 L10.5545988,0 C8.9334638,0 7.61917808,1.31428571 7.61917808,2.93542074 L7.61917808,48.288454 L3.0555773,48.288454 C1.43444227,48.288454 0.120156556,49.6027397 0.120156556,51.2238748 L0.120156556,88.1831703 C0.120156556,89.8043053 1.43444227,91.118591 3.0555773,91.118591 C4.67671233,91.118591 5.99099804,89.8043053 5.99099804,88.1831703 L5.99099804,75.3776908 L69.4003914,75.3776908 L69.4003914,141.649706 C69.4003914,143.270841 70.7146771,144.585127 72.3358121,144.585127 C73.9569472,144.585127 75.2712329,143.270841 75.2712329,141.649706 L75.2712329,51.2238748 C75.2708415,49.6027397 73.9565558,48.288454 72.3354207,48.288454 Z M5.99060665,54.1592955 L69.4,54.1592955 L69.4,69.5068493 L5.99060665,69.5068493 L5.99060665,54.1592955 Z" id="Shape"></path>
            <path d="M72.3354207,150.455577 C70.7142857,150.455577 69.4,151.769863 69.4,153.390998 L69.4,162.277104 C69.4,179.758904 55.1772994,193.981605 37.695499,193.981605 C20.2136986,193.981605 5.99099804,179.758904 5.99099804,162.277104 L5.99099804,99.9248532 C5.99099804,98.3037182 4.67671233,96.9894325 3.0555773,96.9894325 C1.43444227,96.9894325 0.120156556,98.3037182 0.120156556,99.9248532 L0.120156556,162.277104 C0.120156556,182.996477 16.9765166,199.852446 37.695499,199.852446 C58.4144814,199.852446 75.2708415,182.996477 75.2708415,162.277104 L75.2708415,153.390998 C75.2708415,151.769863 73.9565558,150.455577 72.3354207,150.455577 Z" id="Path"></path>
            <path d="M22.5996086,22.4947162 C20.9784736,22.4947162 19.6641879,23.809002 19.6641879,25.430137 C19.6641879,27.051272 20.9784736,28.3655577 22.5996086,28.3655577 L29.7569472,28.3655577 C31.3780822,28.3655577 32.6923679,27.051272 32.6923679,25.430137 C32.6923679,23.809002 31.3780822,22.4947162 29.7569472,22.4947162 L22.5996086,22.4947162 L22.5996086,22.4947162 Z" id="Path"></path>
            <path d="M45.6336595,22.4947162 C44.0125245,22.4947162 42.6982387,23.809002 42.6982387,25.430137 C42.6982387,27.051272 44.0125245,28.3655577 45.6336595,28.3655577 L52.790998,28.3655577 C54.4121331,28.3655577 55.7264188,27.051272 55.7264188,25.430137 C55.7264188,23.809002 54.4121331,22.4947162 52.790998,22.4947162 L45.6336595,22.4947162 L45.6336595,22.4947162 Z" id="Path"></path>
            <path d="M57.7103718,161.782779 C57.7103718,150.809785 48.7831703,141.882975 37.8105675,141.882975 C26.8375734,141.882975 17.9107632,150.810176 17.9107632,161.782779 C17.9107632,172.755773 26.8379648,181.682975 37.8105675,181.682975 C48.7835616,181.682975 57.7103718,172.755773 57.7103718,161.782779 Z M23.7816047,161.782779 C23.7816047,154.046967 30.0751468,147.753816 37.8105675,147.753816 C45.5463796,147.753816 51.8395303,154.047358 51.8395303,161.782779 C51.8395303,169.518591 45.5459883,175.812133 37.8105675,175.812133 C30.0747554,175.812133 23.7816047,169.518591 23.7816047,161.782779 Z" id="Shape"></path>
        </g>
    </g>
</svg>