<?xml version="1.0" encoding="UTF-8"?>
<svg width="200px" height="80px" viewBox="0 0 200 80" version="1.1" xmlns="http://www.w3.org/2000/svg" xmlns:xlink="http://www.w3.org/1999/xlink">
    <!-- Generator: Sketch 53.2 (72643) - https://sketchapp.com -->
    <title>049-car</title>
    <desc>Created with Sketch.</desc>
    <g id="Page-1" stroke="none" stroke-width="1" fill="none" fill-rule="evenodd">
        <g id="049-car" fill="#4A7CB2" fill-rule="nonzero">
            <polygon id="Path" points="83.1944016 30.1200565 96.5049644 30.1200565 96.5049644 36.7766918 83.1944016 36.7766918"></polygon>
            <path d="M196.810819,20.1703093 L174.205881,16.9421932 C170.084075,14.4100718 165.80655,12.1433495 161.396327,10.1542126 C146.83189,3.55715655 131.024412,0.15301045 115.034134,0.170613692 L111.107315,0.170613692 C92.2369182,0.184154274 73.66848,4.91935637 57.0945953,13.9442698 L45.6865089,20.1676014 C32.3326161,20.3179035 19.2359974,23.8696437 7.6342781,30.4829487 C2.91938688,33.1870375 0.00812445328,38.2038876 0,43.6377927 L0,63.3978171 C0,65.2366515 1.4894831,66.726135 3.32831752,66.726135 L14.5021493,66.726135 C18.1364877,77.0942913 29.4877031,82.5539239 39.8558595,78.9195852 C45.563288,76.9196157 50.0493402,72.4322091 52.04931,66.726135 L140.95791,66.726135 C144.592249,77.0942913 155.943465,82.5539239 166.311621,78.9195852 C172.017695,76.9196157 176.505102,72.4322091 178.505071,66.726135 L179.699366,66.726135 C180.123192,66.726135 180.542955,66.6462444 180.936991,66.4891716 L191.715432,62.1642542 C196.530525,60.2577158 199.684167,55.596988 199.666564,50.420357 L199.666564,23.4647751 C199.666564,21.8100949 198.44925,20.4059187 196.810819,20.1703093 Z M46.3188623,62.7329659 C44.8469821,69.9352938 37.8152679,74.5811271 30.61294,73.1092469 C23.409258,71.6373667 18.7634248,64.6056525 20.235305,57.4019706 C21.7085392,50.1996426 28.7402534,45.5538094 35.9425813,47.0256896 C42.140185,48.2917503 46.5896774,53.7446126 46.5883234,60.0708536 C46.5883234,60.9645434 46.4976003,61.8568789 46.3188623,62.7329659 Z M106.488563,60.0708536 L53.2436045,60.0708536 C53.2436045,49.0432623 44.3053519,40.1036554 33.2777606,40.1036554 C22.2501694,40.1036554 13.3105628,49.0432623 13.3105628,60.0708536 L6.6552814,60.0708536 L6.6552814,43.6377927 C6.65934371,40.5897686 8.29235865,37.7746454 10.9382224,36.2607891 C21.797908,30.0604771 34.0847897,26.7971552 46.5883234,26.7930929 L106.488563,26.7930929 L106.488563,60.0708536 Z M106.488563,20.1378115 L59.6402574,20.1378115 L60.2820893,19.7871059 C74.5093608,12.0553347 90.3127766,7.67219187 106.488563,6.9721349 L106.488563,20.1378115 Z M113.143845,6.82582976 L115.027364,6.82589474 C128.438128,6.81100017 141.727025,9.3566622 154.183166,14.3274733 L148.372828,20.1378115 L113.143845,20.1378115 L113.143845,6.82582976 Z M172.774623,62.7329659 C171.302743,69.9352938 164.271029,74.5811271 157.067347,73.1092469 C149.865019,71.6373667 145.219186,64.6056525 146.691066,57.4019706 C148.162946,50.1996426 155.196015,45.5538094 162.398342,47.0256896 C168.595946,48.2917503 173.045439,53.7446126 173.044085,60.0708536 C173.044085,60.9645434 172.953361,61.8568789 172.774623,62.7329659 Z M193.011282,30.1200565 L183.027683,30.1200565 L183.027683,36.7766918 L193.011282,36.7766918 L193.011282,50.420357 C193.019407,52.872588 191.524508,55.0797309 189.244244,55.9801914 L179.699366,59.813579 C179.699366,59.5075581 179.660097,59.2042452 179.639786,58.898224 C179.619475,58.5922031 179.612705,58.2333731 179.580207,57.9002704 C179.546355,57.5671676 179.480006,57.2340652 179.427197,56.9023168 C179.373033,56.569214 179.333765,56.2361116 179.267416,55.9341527 C179.201066,55.6308398 179.103573,55.295029 179.016912,54.9781752 C178.930251,54.6626756 178.863901,54.3431138 178.7637,54.0330306 C178.664852,53.7243014 178.544339,53.4277588 178.431951,53.1244458 C178.318209,52.8224869 178.215299,52.5096957 178.098848,52.2090908 C177.982398,51.9098402 177.825325,51.6376711 177.685856,51.3546693 C177.546386,51.0716673 177.409624,50.7615841 177.253905,50.4758741 C177.096833,50.190164 176.920803,49.9464308 176.7705,49.6810316 C176.621552,49.4142788 176.438752,49.1109659 176.249181,48.8387968 C176.058257,48.5652734 175.882227,48.3499756 175.699427,48.1035337 C175.516626,47.8570921 175.309453,47.5673198 175.096863,47.3113996 C174.884273,47.0554794 174.685224,46.8550762 174.478051,46.6451944 C174.272231,46.436667 174.042038,46.1536649 173.813199,45.9207639 C173.583006,45.6878629 173.356876,45.5037087 173.128037,45.2978892 C172.897844,45.0920697 172.651402,44.8483361 172.398191,44.631684 C172.146332,44.4163859 171.889058,44.2498349 171.6372,44.0602643 C171.383988,43.8706937 171.130776,43.6675822 170.865377,43.4901986 C170.598624,43.3141686 170.299373,43.1584498 170.013663,42.9715876 C169.726599,42.784725 169.493698,42.6384848 169.224238,42.496307 C168.954776,42.3527751 168.618966,42.2024726 168.312944,42.0562325 C168.006924,41.9099923 167.767252,41.7800011 167.48425,41.6608424 C167.201248,41.5403298 166.818045,41.4144005 166.486297,41.2952419 C166.153194,41.1747292 165.936542,41.0812981 165.65354,40.9919289 C165.274399,40.8754786 164.885779,40.7915258 164.498514,40.6953866 C164.245301,40.635807 164.002922,40.5559168 163.747002,40.5031077 C163.338071,40.4191549 162.918307,40.3731165 162.502606,40.3121832 C162.256165,40.2796854 162.020556,40.2255223 161.774114,40.2025028 C161.107909,40.1361532 160.443057,40.0995934 159.744354,40.0995934 C148.720825,40.110426 139.787989,49.0432623 139.777157,60.0667912 L113.145199,60.0667912 L113.145199,26.7917386 L149.749923,26.7917386 C150.63278,26.7917386 151.479077,26.4410333 152.101952,25.8168042 L160.731476,17.1872808 C164.353628,18.9110193 167.875578,20.8378685 171.281078,22.958351 C171.67376,23.2034386 172.112481,23.3645736 172.571512,23.4309233 L193.011282,26.3489561 L193.011282,30.1200565 Z" id="Shape"></path>
        </g>
    </g>
</svg>