<?xml version="1.0" encoding="UTF-8"?>
<svg width="200px" height="200px" viewBox="0 0 200 200" version="1.1" xmlns="http://www.w3.org/2000/svg" xmlns:xlink="http://www.w3.org/1999/xlink">
    <!-- Generator: Sketch 53.2 (72643) - https://sketchapp.com -->
    <title>001-skiing</title>
    <desc>Created with Sketch.</desc>
    <g id="Page-1" stroke="none" stroke-width="1" fill="none" fill-rule="evenodd">
        <g id="001-skiing" fill="#4A7CB2" fill-rule="nonzero">
            <path d="M56.6665648,180.000305 C56.6818238,187.145996 60.5087281,193.739319 66.7037965,197.299195 C72.9003906,200.857544 80.5236816,200.842285 86.7034914,197.254944 C92.8848266,193.669129 96.6827391,187.059021 96.6659547,179.91333 C96.6766359,176.829529 96.3714602,173.751831 95.7565309,170.730591 C92.463684,154.862976 92.463684,45.1370238 95.7565309,29.2694094 C96.3760375,26.2191773 96.6796875,23.1124879 96.6659547,19.9996949 C96.6659547,8.95385742 87.7120973,-1.13686838e-13 76.6662598,-1.13686838e-13 C65.6204223,-1.13686838e-13 56.6665648,8.95385742 56.6665648,19.9996949 C56.6650391,23.1414797 56.9808961,26.2756348 57.6095582,29.3533324 C60.8932496,45.1995852 60.8932496,154.800415 57.6095582,170.646668 C56.9808961,173.724365 56.6650391,176.85852 56.6665648,180.000305 L56.6665648,180.000305 Z M64.1403199,27.9998781 C63.5986328,25.3677367 63.3285523,22.6867676 63.3331297,19.9996949 C63.356018,13.9389039 67.463684,8.65478516 73.3337402,7.1395875 L73.3337402,19.9996949 C73.3337402,21.8414305 74.82605,23.3337402 76.6662598,23.3337402 C78.5079957,23.3337402 80.0003051,21.8414305 80.0003051,19.9996949 L80.0003051,7.1395875 C85.8932496,8.6730957 90.005493,13.9968871 89.9993898,20.0866699 C90.0100707,22.7157594 89.7506715,25.3402711 89.2272949,27.9159547 C85.8734133,44.0872191 85.8734133,155.917359 89.2272949,172.084045 C89.7552492,174.688721 90.0146484,177.342224 89.9993898,180.000305 C89.9780273,186.061096 85.8688355,191.345215 80.0003051,192.860412 L80.0003051,180.000305 C80.0003051,178.15857 78.5079957,176.66626 76.6662598,176.66626 C74.82605,176.66626 73.3337402,178.15857 73.3337402,180.000305 L73.3337402,192.860412 C67.463684,191.345215 63.356018,186.061096 63.3331297,180.000305 C63.3285523,177.313232 63.5986328,174.632263 64.1403199,172.000122 C67.6193238,155.180359 67.6193238,44.819641 64.1403199,27.9998781 Z" id="Shape"></path>
            <path d="M76.6662598,123.33374 C78.5079957,123.33374 80.0003051,121.84143 80.0003051,119.999695 L80.0003051,83.3328246 C80.0003051,81.4926148 78.5079957,80.0003051 76.6662598,80.0003051 C74.82605,80.0003051 73.3337402,81.4926148 73.3337402,83.3328246 L73.3337402,119.999695 C73.3337402,121.84143 74.82605,123.33374 76.6662598,123.33374 Z" id="Path"></path>
            <path d="M80.0003051,69.9996949 C80.0003051,71.8414305 78.5079957,73.3337402 76.6662598,73.3337402 C74.82605,73.3337402 73.3337402,71.8414305 73.3337402,69.9996949 C73.3337402,68.1594848 74.82605,66.6671754 76.6662598,66.6671754 C78.5079957,66.6671754 80.0003051,68.1594848 80.0003051,69.9996949 Z" id="Path"></path>
            <path d="M80.0003051,133.332825 C80.0003051,135.174561 78.5079957,136.66687 76.6662598,136.66687 C74.82605,136.66687 73.3337402,135.174561 73.3337402,133.332825 C73.3337402,131.492615 74.82605,130.000305 76.6662598,130.000305 C78.5079957,130.000305 80.0003051,131.492615 80.0003051,133.332825 Z" id="Path"></path>
            <path d="M103.334045,180.000305 C103.356934,191.046143 112.330627,199.980164 123.376465,199.957275 C134.422302,199.932861 143.357849,190.959168 143.333435,179.91333 C143.34259,176.829529 143.037414,173.751831 142.424011,170.730591 C139.129639,154.862976 139.129639,45.1370238 142.424011,29.2694094 C143.041992,26.2191773 143.347168,23.1124879 143.333435,19.9996949 C143.333435,8.95385742 134.379578,0 123.33374,0 C112.287903,0 103.334045,8.95385742 103.334045,19.9996949 C103.330994,23.1414797 103.646851,26.2756348 104.277039,29.3533324 C107.56073,45.1995852 107.56073,154.800415 104.277039,170.646668 C103.646851,173.724365 103.330994,176.85852 103.334045,180.000305 L103.334045,180.000305 Z M110.806274,27.9998781 C110.266113,25.3677367 109.996033,22.6867676 110.00061,19.9996949 C110.021973,13.9389039 114.131164,8.65478516 119.999695,7.1395875 L119.999695,19.9996949 C119.999695,21.8414305 121.492004,23.3337402 123.33374,23.3337402 C125.17395,23.3337402 126.66626,21.8414305 126.66626,19.9996949 L126.66626,7.1395875 C132.56073,8.6730957 136.672973,13.9968871 136.66687,20.0866699 C136.676025,22.7157594 136.416626,25.3402711 135.89325,27.9159547 C132.539368,44.0872191 132.539368,155.917359 135.89325,172.084045 C136.421204,174.688721 136.680603,177.342224 136.66687,180.000305 C136.643982,186.061096 132.536316,191.345215 126.66626,192.860413 L126.66626,180.000305 C126.66626,178.15857 125.17395,176.66626 123.33374,176.66626 C121.492004,176.66626 119.999695,178.15857 119.999695,180.000305 L119.999695,192.860413 C114.131164,191.345215 110.021973,186.061096 110.00061,180.000305 C109.996033,177.313232 110.266113,174.632263 110.806274,172.000122 C114.286804,155.180359 114.286804,44.819641 110.806274,27.9998781 Z" id="Shape"></path>
            <path d="M123.33374,123.33374 C125.17395,123.33374 126.66626,121.84143 126.66626,119.999695 L126.66626,83.3328246 C126.66626,81.4926148 125.17395,80.0003051 123.33374,80.0003051 C121.492004,80.0003051 119.999695,81.4926148 119.999695,83.3328246 L119.999695,119.999695 C119.999695,121.84143 121.492004,123.33374 123.33374,123.33374 Z" id="Path"></path>
            <path d="M126.66626,69.9996949 C126.66626,71.8414305 125.17395,73.3337402 123.33374,73.3337402 C121.492004,73.3337402 119.999695,71.8414305 119.999695,69.9996949 C119.999695,68.1594848 121.492004,66.6671754 123.33374,66.6671754 C125.17395,66.6671754 126.66626,68.1594848 126.66626,69.9996949 Z" id="Path"></path>
            <path d="M126.66626,133.332825 C126.66626,135.174561 125.17395,136.66687 123.33374,136.66687 C121.492004,136.66687 119.999695,135.174561 119.999695,133.332825 C119.999695,131.492615 121.492004,130.000305 123.33374,130.000305 C125.17395,130.000305 126.66626,131.492615 126.66626,133.332825 Z" id="Path"></path>
            <path d="M9.33380117,53.3340453 C13.1011961,53.3340453 16.5008547,51.0681152 17.9504395,47.5906371 L26.6433715,26.7196656 L26.6662598,50.0259398 C26.6815187,53.6819457 29.6356203,56.6436766 33.2901,56.6665648 L33.2901,183.332825 L26.6235352,183.332825 C24.7817992,183.332825 23.2894898,184.825134 23.2894898,186.66687 C23.2894898,188.50708 24.7817992,189.99939 26.6235352,189.99939 L33.2901,189.99939 L33.2901,196.665955 C33.2901,198.507691 34.7824098,200 36.6226195,200 C38.4643555,200 39.9566648,198.507691 39.9566648,196.665955 L39.9566648,189.99939 L46.6232301,189.99939 C48.4649656,189.99939 49.9572754,188.50708 49.9572754,186.66687 C49.9572754,184.825134 48.4649656,183.332825 46.6232301,183.332825 L39.9566648,183.332825 L39.9566648,56.6665648 L43.3334352,56.6665648 C47.0153809,56.6665648 50,53.6819457 50,50 C50.0076293,47.001648 49.0539551,44.0811156 47.2763063,41.6671754 C46.775818,40.5410766 46.8032836,39.2501832 47.3526,38.1469727 C48.8632203,35.1089477 48.8632203,31.538391 47.3526,28.5003664 C46.775818,27.3391723 46.775818,25.9750367 47.3526,24.813843 C48.8693238,21.7697145 48.8693238,18.1900023 47.3526,15.1474 L47.0672609,14.5767211 C46.6079711,13.6749266 46.4981078,12.6358031 46.7559812,11.6561891 L47.7996828,9.15985117 C48.6373902,7.11364766 48.4024047,4.78515625 47.1725465,2.94647227 C45.9411621,1.10931406 43.8781738,0.00457765625 41.6671754,1.1389878e-14 L33.2733156,1.1389878e-14 C31.5063477,-0.00152587891 29.8110961,0.700378516 28.5644531,1.95159922 C27.3162844,3.20281992 26.6189574,4.89959727 26.6265867,6.66656484 L9.33380117,6.66656484 C4.17938242,6.66656484 0,10.8459473 0,16.0003664 L0,44.0002441 C0,49.1546633 4.17938242,53.3340453 9.33380117,53.3340453 Z M41.6427613,6.62689219 L40.5197145,9.35058594 C39.6087648,12.0620727 39.8178102,15.0268555 41.1026,17.5827027 L41.3894652,18.1594848 C41.9692992,19.3206789 41.9692992,20.6863402 41.3894652,21.8460082 C39.8834227,24.885559 39.8834227,28.4545898 41.3894652,31.4926148 C41.9692992,32.6538086 41.9692992,34.0194703 41.3894652,35.1806641 C39.8834227,38.2171633 39.8834227,41.7831422 41.3894652,44.819641 C41.4566039,44.9523926 41.5298461,45.0790406 41.610718,45.2026367 C42.7215578,46.5545656 43.3303832,48.2498168 43.3334352,50 L33.3206176,50 L33.2794187,10.5529785 C33.3374023,10.2050781 33.3374023,9.84954844 33.2794187,9.50012188 L33.2794187,6.66656484 L41.6427613,6.62689219 Z M6.66656484,16.0003664 C6.66656484,14.527893 7.86132812,13.3331297 9.33380117,13.3331297 L25,13.3331297 L11.7965699,45.0225828 C11.3098145,46.1990355 10.0601195,46.8658445 8.81195078,46.6171266 C7.56378164,46.3684082 6.66503906,45.2728273 6.66656484,44.0002441 L6.66656484,16.0003664 Z" id="Shape"></path>
            <path d="M190.666199,6.66656484 L173.373413,6.66656484 C173.381043,4.89959727 172.683716,3.20281992 171.435547,1.95159922 C170.188904,0.700378516 168.493652,-0.00152587891 166.726684,3.46944695e-16 L158.332825,3.46944695e-16 C156.112671,3.46944695e-16 154.040527,1.10931406 152.807617,2.95562734 C151.576233,4.8034668 151.348877,7.14416484 152.203369,9.19342031 L153.157043,11.4593508 C153.49884,12.4969484 153.417969,13.6260984 152.932739,14.6026609 L152.6474,15.1733398 C151.13678,18.2113648 151.13678,21.7819215 152.6474,24.8199461 C153.224182,25.9811402 153.224182,27.3452758 152.6474,28.5064695 C151.13678,31.5444945 151.13678,35.1150512 152.6474,38.1530762 C153.199768,39.2654418 153.224182,40.5670164 152.713012,41.7007445 C151.412964,44.1040039 150.512695,46.7041016 150.047302,49.3972777 C150.012207,49.5956422 149.996948,49.798584 150,50 C150,53.6819457 152.984619,56.6665648 156.666565,56.6665648 L160.043335,56.6665648 L160.043335,183.332825 L153.37677,183.332825 C151.535034,183.332825 150.042725,184.825134 150.042725,186.66687 C150.042725,188.50708 151.535034,189.99939 153.37677,189.99939 L160.043335,189.99939 L160.043335,196.665955 C160.043335,198.507691 161.535645,200 163.37738,200 C165.21759,200 166.7099,198.507691 166.7099,196.665955 L166.7099,189.99939 L173.376465,189.99939 C175.218201,189.99939 176.71051,188.50708 176.71051,186.66687 C176.71051,184.825134 175.218201,183.332825 173.376465,183.332825 L166.7099,183.332825 L166.7099,56.6665648 C170.36438,56.6436766 173.318481,53.6819457 173.33374,50.0259398 L173.353577,26.7227172 L182.046509,47.5936891 C183.753967,51.7074586 188.131714,54.0405273 192.498779,53.1661988 C196.865845,52.2918703 200.007629,48.4542848 200,44.0002441 L200,16.0003664 C200,10.8459473 195.820618,6.66656484 190.666199,6.66656484 L190.666199,6.66656484 Z M158.610535,35.1730348 C158.030701,34.0133668 158.030701,32.6477051 158.610535,31.4865113 C160.116577,28.4469605 160.116577,24.8794555 158.610535,21.8399047 C158.035278,20.6848145 158.035278,19.3283082 158.610535,18.173218 L158.8974,17.5964355 C160.205078,14.9612426 160.383606,11.9064332 159.393311,9.13696289 L158.332825,6.66656484 L166.706848,6.64672852 L166.706848,9.57641602 C166.667175,9.8815918 166.667175,10.1898195 166.706848,10.4934691 L166.706848,50 L156.733704,50 C157.048035,48.3245852 157.611084,46.7041016 158.399963,45.1934812 C158.479309,45.0698852 158.551025,44.9432375 158.616638,44.8135375 C160.119629,41.7755125 160.116577,38.2095336 158.610535,35.1730348 L158.610535,35.1730348 Z M193.333435,44.0002441 C193.336487,45.2728273 192.437744,46.369934 191.189575,46.6201781 C189.941406,46.8704223 188.690186,46.2020875 188.20343,45.0271605 L175,13.3331297 L190.666199,13.3331297 C192.138672,13.3331297 193.333435,14.527893 193.333435,16.0003664 L193.333435,44.0002441 Z" id="Shape"></path>
        </g>
    </g>
</svg>