<?xml version="1.0" encoding="UTF-8"?>
<svg width="190px" height="200px" viewBox="0 0 190 200" version="1.1" xmlns="http://www.w3.org/2000/svg" xmlns:xlink="http://www.w3.org/1999/xlink">
    <!-- Generator: Sketch 53.2 (72643) - https://sketchapp.com -->
    <title>007-sign</title>
    <desc>Created with Sketch.</desc>
    <g id="Page-1" stroke="none" stroke-width="1" fill="none" fill-rule="evenodd">
        <g id="007-sign" fill="#4A7CB2" fill-rule="nonzero">
            <path d="M157.79,70.0033333 L187.77,43.02 C188.626667,42.2566667 189.12,41.15 189.12,40 C189.12,38.85 188.626667,37.7466667 187.78,36.9933333 L157.79,10.0033333 L93.5466667,10.0033333 L93.5466667,3.33333333 C93.5466667,1.49 92.0533333,0 90.2133333,0 C88.3733333,0 86.88,1.49 86.88,3.33333333 L86.88,10.0033333 L28.2033333,10.0033333 C21.96,10.0033333 16.8833333,15.08 16.8833333,21.3233333 L16.8833333,58.6766667 C16.8833333,64.92 21.96,70 28.2033333,70 L86.8833333,70 L86.8833333,76.6666667 L31.5433333,76.6666667 L1.55,103.66 C0.7,104.426667 0.213333333,105.52 0.213333333,106.666667 C0.213333333,107.813333 0.7,108.906667 1.55333333,109.676667 L31.5433333,136.666667 L86.88,136.666667 L86.88,196.666667 C86.88,198.51 88.3733333,200 90.2133333,200 C92.0533333,200 93.5466667,198.51 93.5466667,196.666667 L93.5466667,136.666667 L162.226667,136.666667 C168.47,136.666667 173.546667,131.59 173.546667,125.346667 L173.546667,87.9866667 C173.546667,81.7433333 168.47,76.6666667 162.226667,76.6666667 L93.5466667,76.6666667 L93.5466667,70.0033333 L157.79,70.0033333 Z M166.88,87.9866667 L166.88,125.343333 C166.88,127.913333 164.793333,129.996667 162.226667,129.996667 L34.1033333,129.996667 L8.17666667,106.663333 L34.1033333,83.33 L162.226667,83.33 C164.793333,83.3333333 166.88,85.42 166.88,87.9866667 Z M23.5466667,58.68 L23.5466667,21.3233333 C23.5466667,18.7533333 25.6333333,16.67 28.2,16.67 L155.226667,16.67 L181.153333,40.0033333 L155.226667,63.3366667 L28.2033333,63.3366667 C25.6366667,63.3366667 23.5466667,61.2466667 23.5466667,58.68 Z" id="Shape"></path>
        </g>
    </g>
</svg>