<?xml version="1.0" encoding="UTF-8"?>
<svg width="178px" height="200px" viewBox="0 0 178 200" version="1.1" xmlns="http://www.w3.org/2000/svg" xmlns:xlink="http://www.w3.org/1999/xlink">
    <!-- Generator: Sketch 53.2 (72643) - https://sketchapp.com -->
    <title>004-socks</title>
    <desc>Created with Sketch.</desc>
    <g id="Page-1" stroke="none" stroke-width="1" fill="none" fill-rule="evenodd">
        <g id="Artboard" transform="translate(-624.000000, -441.000000)" fill="#4A7CB2" fill-rule="nonzero">
            <g id="004-socks" transform="translate(624.000000, 441.000000)">
                <path d="M170.489716,117.438074 C166.266083,112.647702 161.345733,109.846827 156.586433,107.137418 C151.503282,104.243764 146.701532,101.510722 143.378118,96.5260394 C137.84814,88.2301969 116.525602,26.0792123 108.776368,2.83150985 C108.465414,1.89782224 107.775861,1.13811503 106.876574,0.738431663 C105.977286,0.338748292 104.951308,0.33599767 104.049891,0.730853392 L48.0323851,25.238512 C47.131634,25.6330051 46.4383085,26.3881173 46.1219564,27.3191914 C45.8056044,28.2502654 45.8953931,29.2714572 46.3693654,30.1330416 C46.7531729,30.8306346 84.8078775,100.115536 91.6297593,120.581619 C98.6503282,141.642013 86.3991247,158.08709 78.4713348,166.014004 C73.5597374,170.925602 62.4354486,175.310722 47.9509847,178.045514 C42.3296334,179.101575 38.4378358,184.26545 38.9713817,189.960201 C39.5049275,195.654951 44.2881911,200.006053 50.0078775,199.999562 L113.898468,199.999562 C118.506272,200.000653 122.819456,197.733916 125.431947,193.938293 C133.099344,182.798687 139.480088,174.424945 142.941357,170.965427 C145.742232,168.164551 151.422757,164.313348 156.915536,160.593435 C166.75186,153.928665 172.880525,149.598249 175.042451,145.670022 C178.802188,138.842013 178.130853,126.10547 170.489716,117.438074 Z M111.127352,31.5098468 L66.0170678,51.8070022 C64.5877462,49.1159737 63.2201313,46.5553611 61.9387309,44.1645514 L108.307221,23.2984683 C109.185558,25.8678337 110.130853,28.6214442 111.127352,31.5098468 L111.127352,31.5098468 Z M103.350547,8.68140044 C104.020569,10.6752735 104.937418,13.3943107 106.039387,16.6415755 L58.6122538,37.9833698 C56.8652079,34.7479212 55.4035011,32.0603939 54.3452954,30.1207877 L103.350547,8.68140044 Z M137.989934,166.015317 C132.858643,171.146608 124.30547,183.225821 119.664333,189.969803 C118.357727,191.866421 116.201591,192.99874 113.898468,192.997812 L50.0074398,192.997812 C47.9030171,193.003052 46.1416221,191.403163 45.9450735,189.307933 C45.748525,187.212702 47.1816451,185.313143 49.2503282,184.926915 C69.843326,181.038512 79.2,175.189059 83.4227571,170.966302 C87.9960613,166.39256 94.2035011,158.891466 97.7991247,149.132166 C101.532913,139.244581 101.70053,128.364209 98.2730853,118.366302 C94.2984683,106.443326 80.6678337,79.5916849 69.2980306,58.0078775 L113.429759,38.1501094 C122.115974,63.1094092 133.309847,94.0450766 137.552735,100.40919 C140.984683,105.557112 145.40744,108.684902 149.919475,111.369803 C145.970241,117.959737 143.967615,124.206565 143.967615,129.976805 C143.967615,138.007877 148.018381,147.845514 151.948796,155.500656 C146.309409,159.325602 141.073961,162.932166 137.989934,166.014442 L137.989934,166.015317 Z M168.908534,142.295405 C167.775492,144.352298 162.777681,148.059081 157.781182,151.523851 C153.373304,142.778556 150.968928,135.217068 150.968928,129.979431 C150.968928,124.645952 153.411379,119.169803 155.985558,114.874398 C159.369803,116.872648 162.536105,119.005252 165.237199,122.069584 C169.043326,126.385558 172.280963,136.168928 168.908534,142.294092 L168.908534,142.295405 Z" id="Shape"></path>
                <polygon id="Path" transform="translate(108.942454, 53.540004) rotate(-24.206844) translate(-108.942454, -53.540004) " points="105.103585 50.0394017 112.781323 50.0394017 112.781323 57.0406061 105.103585 57.0406061"></polygon>
                <path d="M7.42407002,188.92779 C7.42478164,186.971624 8.81631289,185.292341 10.7382932,184.928228 C31.331291,181.039825 40.687965,175.190372 44.9107221,170.967615 C49.4844639,166.393873 55.6914661,158.892779 59.2870897,149.133479 C63.0208783,139.245894 63.1884948,128.365522 59.7610503,118.367615 C55.7864333,106.444201 42.1553611,79.5929978 30.785558,58.0078775 L49.1391685,49.7483589 L46.2656455,43.3632385 L27.5045952,51.8061269 C26.0752735,49.1150985 24.7080963,46.5544858 23.4262582,44.1641138 L42.1369803,35.7439825 L39.2634573,29.3588621 L20.0997812,37.9824945 C18.3527352,34.7483589 16.892779,32.0603939 15.8332604,30.1207877 L68.345733,7.14485777 L65.5396061,0.729978118 L9.52210066,25.2376368 C8.62134951,25.6321299 7.92802402,26.3872421 7.61167197,27.3183161 C7.29531993,28.2493901 7.38510866,29.2705819 7.85908096,30.1321663 C8.2428884,30.8297593 46.297593,100.114661 53.1194748,120.580744 C60.1400438,141.641138 47.8888403,158.086214 39.9610503,166.013129 C35.049453,170.924726 23.9256018,175.309847 9.44070022,178.044639 C3.81640507,179.097489 -0.0792125407,184.262397 0.453953497,189.959494 C0.987119535,195.656592 5.77342024,200.008998 11.4954048,200 L33.6980306,200 L33.6980306,192.997812 L11.4954048,192.997812 C9.2483804,192.995401 7.42720535,191.174813 7.42407002,188.92779 L7.42407002,188.92779 Z" id="Path"></path>
            </g>
        </g>
    </g>
</svg>