<?xml version="1.0" encoding="UTF-8"?>
<svg width="200px" height="200px" viewBox="0 0 200 200" version="1.1" xmlns="http://www.w3.org/2000/svg" xmlns:xlink="http://www.w3.org/1999/xlink">
    <!-- Generator: Sketch 53.2 (72643) - https://sketchapp.com -->
    <title>003-ping-pong</title>
    <desc>Created with Sketch.</desc>
    <g id="Page-1" stroke="none" stroke-width="1" fill="none" fill-rule="evenodd">
        <g id="003-ping-pong" fill="#4A7CB2" fill-rule="nonzero">
            <path d="M130.125129,0.414937759 C111.804655,0.366312033 94.2265303,7.64717344 81.3083506,20.6382909 L57.0750129,44.8862162 C46.8182701,55.1510631 40.7254929,68.8504929 39.9734183,83.3425183 L39.9734183,83.4268025 C39.4207079,93.5717062 41.5180888,103.685814 46.0613328,112.773924 C48.5477178,117.430627 49.3938017,122.787539 48.4650544,127.983986 C35.2859178,141.618581 21.2558349,154.403851 6.46071037,166.263615 L1.24481328,170.437305 C0.507326141,171.027295 0.0567298755,171.902554 0.00486257261,172.84589 C-0.0470045643,173.789224 0.304719917,174.708247 0.972510373,175.376037 L24.2090249,198.612552 C24.8314315,199.234959 25.6758946,199.585062 26.5560166,199.585062 L26.7391726,199.585062 C27.6825079,199.534816 28.5577672,199.08422 29.1493776,198.346732 L33.3214473,193.132456 C45.1844527,178.33409 57.9713436,164.302386 71.6091805,151.120008 C76.8056274,150.194502 82.1609178,151.042207 86.8192427,153.526971 C94.9299793,157.570993 103.865729,159.689445 112.929525,159.71862 C113.945799,159.71862 114.988006,159.681341 116.007521,159.621369 L116.242544,159.621369 C130.729707,158.867674 144.424274,152.779759 154.689121,142.5295 L178.938667,118.278332 C198.679007,98.5315095 204.583766,68.8391469 193.900739,43.0416884 C183.216092,17.2442299 158.047523,0.421421162 130.125129,0.414937759 Z M70.0823394,115.023664 L79.7912344,124.737422 L84.5646394,129.510827 C80.3925701,131.55472 75.3873834,130.757261 72.0565353,127.518802 C68.7678295,124.21875 67.9719917,119.179525 70.0823394,115.023664 L70.0823394,115.023664 Z M52.0001295,109.802905 C49.1685037,104.138032 47.3952929,98.003112 46.7680241,91.7012448 L65.125778,110.055757 L58.1544996,117.712656 C57.2419606,118.709479 56.2759336,119.678747 55.3536697,120.677191 C54.8528266,116.890884 53.7198523,113.214795 52.0001295,109.802905 Z M28.1363461,188.963628 L26.2804722,191.286307 L8.29875519,173.30459 L10.6230548,171.448716 C29.176932,156.59362 46.5427257,140.312176 62.5632133,122.75188 C63.7188797,130.1073 69.4826245,135.879149 76.8364237,137.046162 C59.277749,153.058545 42.9946838,170.416234 28.1363461,188.963628 Z M78.8981456,144.22653 C79.8933481,143.302645 80.8561332,142.336618 81.8594398,141.424079 L89.5212008,134.452801 L107.883817,152.823522 C101.585192,152.183286 95.4535141,150.410075 89.7853992,147.588174 C86.371888,145.861968 82.6909361,144.725752 78.8981456,144.22653 L78.8981456,144.22653 Z M174.254409,113.584349 L150.021071,137.832274 C141.27172,146.575143 129.695604,151.917466 117.364173,152.899702 L70.2379411,105.79292 L46.6853606,82.2403398 C47.6643544,69.9121498 53.0018154,58.3344141 61.7430627,49.5834415 L85.9926091,25.3322743 C110.362098,0.957922822 149.876815,0.956302075 174.249546,25.3257909 C198.622277,49.6969008 198.623898,89.2116183 174.254409,113.584349 Z" id="Shape"></path>
            <path d="M123.280278,20.8036178 C125.547847,20.4891726 127.834868,20.3319502 130.125129,20.3319502 L130.125129,13.6929461 C127.526906,13.6929461 124.933545,13.8712398 122.361255,14.2278266 L123.280278,20.8036178 Z" id="Path"></path>
            <path d="M90.6963174,30.0246369 L76.1832207,44.5409751 L80.8772041,49.2349585 L95.3903008,34.7186203 C101.395552,28.6987809 108.862811,24.3435556 117.059453,22.0776062 L115.307313,15.6849714 C105.998768,18.2523988 97.5184776,23.1943726 90.6963174,30.0246369 L90.6963174,30.0246369 Z" id="Path"></path>
            <polygon id="Path" points="20.8879021 174.003177 44.1244166 150.768283 48.8184 155.462266 25.5835062 178.69716"></polygon>
            <path d="M175.93361,153.112033 C163.101336,153.112033 152.697095,163.516273 152.697095,176.348548 C152.697095,189.182443 163.101336,199.585062 175.93361,199.585062 C188.767505,199.585062 199.170124,189.182443 199.170124,176.348548 C199.155537,163.521136 188.761022,153.126621 175.93361,153.112033 Z M175.93361,192.946058 C166.7677,192.946058 159.3361,185.516079 159.3361,176.348548 C159.3361,167.182637 166.7677,159.751037 175.93361,159.751037 C185.101141,159.751037 192.53112,167.182637 192.53112,176.348548 C192.519774,185.511216 185.096278,192.934712 175.93361,192.946058 Z" id="Shape"></path>
        </g>
    </g>
</svg>