<?xml version="1.0" encoding="UTF-8"?>
<svg width="83px" height="200px" viewBox="0 0 83 200" version="1.1" xmlns="http://www.w3.org/2000/svg" xmlns:xlink="http://www.w3.org/1999/xlink">
    <!-- Generator: Sketch 53.2 (72643) - https://sketchapp.com -->
    <title>006-clothes</title>
    <desc>Created with Sketch.</desc>
    <g id="Page-1" stroke="none" stroke-width="1" fill="none" fill-rule="evenodd">
        <g id="Artboard" transform="translate(-1589.000000, -85.000000)" fill="#4A7CB2" fill-rule="nonzero">
            <g id="006-clothes" transform="translate(1589.000000, 85.000000)">
                <path d="M53.4193694,59.9972973 L29.3972973,59.9972973 C28.1531532,59.9972973 27.145045,58.9891892 27.145045,57.745045 L27.145045,37.9936937 C27.145045,36.7495495 28.1531532,35.7414414 29.3972973,35.7414414 L53.4193694,35.7414414 C54.6635135,35.7414414 55.6716216,36.7495495 55.6716216,37.9936937 L55.6716216,57.745045 C55.6716216,58.9891892 54.6630631,59.9972973 53.4193694,59.9972973 Z M31.6495495,55.4927928 L51.1671171,55.4927928 L51.1671171,40.2459459 L31.6495495,40.2459459 L31.6495495,55.4927928 Z" id="Shape"></path>
                <path d="M82.6734234,197.38964 L77.4045045,75.981982 L77.4045045,55.3171171 C77.4045045,54.6977477 77.1495495,54.1058559 76.6995495,53.6801802 C76.25,53.2554054 75.6545045,53.0373874 75.0256757,53.0684685 C75.0018018,53.0662162 71.963964,53.1576577 69.0153153,50.3698198 C65.1932432,46.7567568 63.1725225,39.8842342 63.1725225,30.4945946 C63.1725225,29.2504505 62.1644144,28.2423423 60.9202703,28.2423423 L60.5324324,28.2423423 L60.5324324,26.6990991 L61.5743243,26.9207207 C62.2468468,27.0504505 62.9162162,26.8414414 63.2882883,26.5945946 C63.7927928,26.2599099 64.140991,25.7364865 64.254955,25.1418919 L68.3045045,4.0481982 C68.536036,2.84414414 67.7612613,1.67612613 66.5617117,1.42072072 L60.1207207,0.0495495495 C59.5301802,-0.0756756757 58.9112613,0.040990991 58.4067568,0.375675676 C57.9022523,0.71036036 57.5540541,1.23378378 57.4396396,1.82837838 L53.3900901,22.9220721 C53.1585586,24.1261261 53.9333333,25.2941441 55.1328829,25.5495495 L56.0274775,25.7400901 L56.0274775,28.2427928 L26.7887387,28.2427928 L26.7887387,25.7400901 L27.6833333,25.5495495 C28.8828829,25.2941441 29.6576577,24.1261261 29.4261261,22.9220721 L25.3765766,1.82837838 C25.2626126,1.23423423 24.9144144,0.71036036 24.4094595,0.375675676 C23.9045045,0.040990991 23.2864865,-0.0765765766 22.6954955,0.0495495495 L16.2545045,1.42117117 C15.054955,1.67657658 14.2801802,2.84459459 14.5117117,4.04864865 L18.5612613,25.1423423 C18.6752252,25.7364865 19.0234234,26.2599099 19.5279279,26.595045 C19.9,26.8418919 20.5738739,27.040991 21.2418919,26.9211712 L22.2837838,26.6995495 L22.2837838,28.2427928 L21.8959459,28.2427928 C20.6518018,28.2427928 19.6436937,29.2509009 19.6436937,30.495045 C19.6436937,39.7986486 17.6576577,46.6387387 13.9004505,50.2756757 C10.9441441,53.1369369 7.89054054,53.0666667 7.79099099,53.0689189 C7.16756757,53.0342342 6.56711712,53.254955 6.11711712,53.6806306 C5.66711712,54.1058559 5.41216216,54.6981982 5.41216216,55.3175676 L5.41216216,75.9824324 L0.134234234,197.593243 C0.107207207,198.206757 0.332432432,198.804505 0.757657658,199.248649 C1.18243243,199.692342 1.77027027,199.943243 2.38423423,199.943243 L34.5216216,199.943243 C35.695045,199.943243 36.6720721,199.041892 36.7662162,197.872072 L41.4081081,140.319369 L46.05,197.872072 C46.1441441,199.041892 47.1211712,199.943243 48.2945946,199.943243 L80.431982,199.943243 C80.4351351,199.943694 80.4387387,199.943243 80.440991,199.943243 C81.6851351,199.943243 82.6932432,198.935135 82.6932432,197.690991 C82.6932432,197.588288 82.6864865,197.487838 82.6734234,197.38964 Z M61.4301802,4.93423423 L63.4648649,5.36756757 L60.2648649,22.0364865 L58.2301802,21.6031532 L61.4301802,4.93423423 Z M19.3522523,5.36756757 L21.3869369,4.93423423 L24.5873874,21.6031532 L22.5527027,22.0364865 L19.3522523,5.36756757 Z M9.91711712,57.3351351 C11.7495495,56.9635135 14.3842342,56.018018 16.8963964,53.6436937 C21.368018,49.4166667 23.7914414,42.3927928 24.1126126,32.7468468 L58.704955,32.7468468 C59.0261261,42.3927928 61.4495495,49.4166667 65.9211712,53.6436937 C68.4333333,56.0184685 71.068018,56.9635135 72.9004505,57.3351351 L72.9004505,65.2108108 L9.91711712,65.2108108 L9.91711712,57.3351351 Z M4.73693694,195.438288 L4.9518018,190.484234 L32.8432432,190.484234 L32.4436937,195.438288 L4.73693694,195.438288 Z M39.1563063,112.216667 L33.2067568,185.97973 L5.1472973,185.97973 L9.82162162,78.2815315 L31.8193694,78.2815315 L31.8193694,99.0261261 C31.8193694,102.632883 34.7540541,105.566667 38.3603604,105.566667 L39.1563063,105.566667 L39.1563063,112.216667 L39.1563063,112.216667 Z M39.1563063,101.062162 L38.3603604,101.062162 C37.2373874,101.062162 36.3238739,100.148649 36.3238739,99.0261261 L36.3238739,78.2815315 L39.1563063,78.2815315 L39.1563063,101.062162 L39.1563063,101.062162 Z M9.91711712,73.777027 L9.91711712,69.7153153 L72.9,69.7153153 L72.9,73.777027 L9.91711712,73.777027 Z M43.6608108,112.214414 L43.6608108,78.2815315 L72.9954955,78.2815315 L77.6698198,185.97973 L49.6103604,185.97973 L43.6608108,112.214414 Z M50.372973,195.438288 L49.9734234,190.484234 L77.8648649,190.484234 L78.0801802,195.438288 L50.372973,195.438288 Z" id="Shape"></path>
            </g>
        </g>
    </g>
</svg>