<?xml version="1.0" encoding="UTF-8"?>
<svg width="200px" height="200px" viewBox="0 0 200 200" version="1.1" xmlns="http://www.w3.org/2000/svg" xmlns:xlink="http://www.w3.org/1999/xlink">
    <!-- Generator: Sketch 53.2 (72643) - https://sketchapp.com -->
    <title>014-table-tennis</title>
    <desc>Created with Sketch.</desc>
    <g id="Page-1" stroke="none" stroke-width="1" fill="none" fill-rule="evenodd">
        <g id="014-table-tennis" fill="#4A7CB2" fill-rule="nonzero">
            <path d="M21.2993419,132.016021 C25.1431532,135.833942 29.3981481,139.214791 33.9866593,142.096126 L14.8209064,161.275585 C12.9477341,163.147234 11.895407,165.685916 11.895407,168.334247 C11.895407,170.982578 12.9477341,173.522783 14.8209064,175.394432 L24.237025,184.809028 C26.1086745,186.6822 28.6473563,187.734527 31.2956873,187.734527 C33.9440179,187.734527 36.4842226,186.6822 38.3558721,184.809028 L69.8937014,153.271199 L70.2028507,153.271199 C70.9597345,153.262062 71.7105263,153.121954 72.4186768,152.858492 C72.6669103,152.840217 72.910575,152.791484 73.1481481,152.715339 C87.6157407,146.753168 99.2857579,145.39626 109.876035,148.463389 C113.22338,149.436526 116.427571,150.849781 119.403326,152.665083 C119.543433,154.187988 120.207419,155.614949 121.284113,156.70078 L161.275585,196.689205 C165.172697,200.584795 171.489705,200.584795 175.388341,196.689205 L184.796844,187.280702 C186.668494,185.409052 187.719298,182.87037 187.719298,180.223563 C187.719298,177.575232 186.668494,175.03655 184.796844,173.1649 L170.673428,159.06585 L149.471552,137.863974 C151.221369,137.295931 152.981847,136.659357 154.74537,135.934454 C172.516143,128.482883 186.647173,114.348806 194.097222,96.5780335 C197.636452,88.1289595 199.509625,79.0768152 199.617751,69.916545 C199.750244,60.8354655 198.099415,51.8153021 194.759686,43.3692741 C187.768031,25.7888647 173.844115,11.8649489 156.265229,4.87024873 C147.814632,1.54270214 138.795992,-0.106603509 129.713389,0.0137061209 C120.556165,0.120309552 111.50402,1.99195906 103.056469,5.52662027 C97.5374635,7.83838947 92.3260842,10.8263279 87.5426413,14.4219057 C81.7936768,12.8502682 75.8695786,12.0081018 69.910453,11.9136819 C60.8278511,11.7857579 51.8061645,13.4320175 43.3555676,16.7641326 C25.7614522,23.7375123 11.8314448,37.6705653 4.86111111,55.2662035 C1.52747329,63.715278 -0.121832359,72.7339181 0.00761450292,81.8165205 C0.118786745,90.9722222 1.98891306,100.019798 5.51596023,108.468872 C9.17854542,117.278874 14.5422148,125.280214 21.2993419,132.016021 L21.2993419,132.016021 Z M40.6935306,173.049159 L33.6318226,165.985928 C32.3084187,164.875731 30.356055,164.962536 29.1377314,166.185429 C27.917885,167.408321 27.8371712,169.360685 28.950414,170.67952 L36.0136452,177.742751 L33.6577119,180.095638 C32.3388768,181.347466 30.2707723,181.347466 28.950414,180.095638 L19.5251583,170.67952 C18.9007676,170.056652 18.5504994,169.209917 18.5504994,168.326632 C18.5504994,167.443348 18.9007676,166.596613 19.5251583,165.972222 L31.2789353,154.218445 L38.3421661,161.281676 C39.6472951,162.542641 41.723014,162.524366 43.0052998,161.240558 C44.289108,159.958273 44.3073832,157.882554 43.0464179,156.577425 L35.9831871,149.514193 L39.9929945,145.505909 C41.5889984,146.314571 43.1895712,147.118665 44.8495368,147.811586 C50.1461988,149.993908 55.6865255,151.535088 61.350207,152.398575 L40.6935306,173.049159 Z M84.0688963,142.169225 L130.266204,95.9719177 C127.799099,105.014924 127.767117,114.549829 130.176352,123.608065 C131.224111,127.231055 132.713511,130.712415 134.61105,133.97143 L122.071455,146.511026 C118.815485,144.610441 115.337171,143.117995 111.715704,142.068713 C102.6529,139.659478 93.1134261,139.692982 84.0688963,142.169225 L84.0688963,142.169225 Z M180.092593,182.58711 L170.673428,191.995614 C169.374391,193.293129 167.268214,193.293129 165.969177,191.995614 L163.626949,189.642727 L170.673428,182.584064 C171.538438,181.74799 171.88566,180.511391 171.58108,179.347892 C171.276499,178.184393 170.368848,177.276742 169.205349,176.972161 C168.04185,176.667581 166.805251,177.014803 165.969177,177.879812 L158.91356,184.938475 L144.797758,170.822673 L151.853375,163.767057 C153.11434,162.461927 153.096065,160.386209 151.813779,159.103923 C150.529971,157.820115 148.455775,157.80184 147.149123,159.062805 L140.093506,166.118421 L125.977704,152.002619 L140.093506,137.886818 L144.797758,142.595638 L137.737573,149.651255 C136.89693,150.491898 136.567982,151.716313 136.875609,152.864583 C137.183236,154.012853 138.080227,154.911367 139.228497,155.218994 C140.375244,155.52662 141.601182,155.199196 142.441825,154.358553 L149.498965,147.298367 L163.614766,161.414169 L156.557627,168.471308 C155.692617,169.30586 155.346918,170.543981 155.649976,171.705958 C155.954557,172.869457 156.863731,173.778631 158.02723,174.081688 C159.189205,174.386269 160.427327,174.04057 161.261879,173.17556 L168.344908,166.118421 L180.104776,177.879812 C180.727644,178.505726 181.076389,179.352461 181.074866,180.235746 C181.07182,181.11903 180.718506,181.964242 180.092593,182.58711 L180.092593,182.58711 Z M105.613426,11.6578339 C113.278204,8.4566885 121.488182,6.76169591 129.794103,6.66727563 C138.010173,6.53782885 146.172941,8.03027524 153.813353,11.0578094 C169.685064,17.3748172 182.25664,29.9479166 188.572125,45.8211501 C191.593567,53.4615618 193.084491,61.6212842 192.964181,69.8373536 C192.868238,78.1432749 191.174768,86.3517302 187.973623,94.0165084 C181.198221,110.162342 168.354045,123.004995 152.206688,129.777351 C149.524854,130.87232 146.771442,131.781494 143.966253,132.497259 C143.025097,131.825658 141.924037,131.412951 140.772722,131.303302 C138.957419,128.326023 137.545687,125.123355 136.571028,121.776011 C133.50999,111.185733 134.863852,99.5187622 140.826023,85.0572612 C140.894554,84.834917 140.938718,84.6064815 140.958516,84.375 C141.255482,83.5800437 141.398635,82.734832 141.377315,81.8865739 C141.08644,73.2501828 139.234588,64.7386698 135.908565,56.7632187 C128.470699,38.9878776 114.338146,24.8538012 96.5658503,17.4159357 C96.201876,17.2666908 95.8302877,17.1631337 95.4632674,17.0199805 C98.6857333,14.9427388 102.081811,13.1487571 105.613426,11.6578339 L105.613426,11.6578339 Z M11.0517177,57.7104655 C17.3443591,41.8296175 29.9235501,29.2549949 45.8074441,22.9684452 C53.1980994,20.0505606 61.0730386,18.559637 69.019554,18.5779119 L69.834308,18.5779119 C78.138706,18.6753778 86.3486842,20.3688476 94.0134624,23.566947 C110.154727,30.3316885 122.991289,43.1712963 129.752985,59.3140838 C132.777473,66.5539719 134.452668,74.2842347 134.693287,82.1256702 L85.4197123,131.423611 L85.3831626,131.446455 L85.3603193,131.479959 L70.2226487,146.617629 L70.2058967,146.640473 C62.3705532,146.378533 54.6479045,144.697247 47.4110624,141.680373 C31.2591376,134.915631 18.4134382,122.069932 11.6502191,105.916484 C8.4566885,98.2501828 6.76169591,90.0417275 6.66118441,81.7373294 C6.54087485,73.518214 8.03332125,65.355446 11.0517177,57.7104655 Z" id="Shape"></path>
            <path d="M117.476852,64.4203825 C119.363731,68.9586378 120.59576,73.7420811 121.136391,78.6260355 C121.322186,80.3118908 122.744579,81.5896078 124.441094,81.5911306 C124.564449,81.5911306 124.687805,81.5835162 124.809637,81.5713329 C126.631031,81.3687867 127.945297,79.7331871 127.750366,77.9117934 C127.139681,72.3973563 125.746223,66.9986596 123.61568,61.8756094 C120.615558,54.675317 116.225025,48.1359649 110.693835,42.6337111 C109.388706,41.3727462 107.31451,41.3910211 106.030702,42.6733064 C104.746893,43.957115 104.728618,46.0328339 105.989583,47.337963 C110.903996,52.2219177 114.808723,58.0272296 117.476852,64.4203825 L117.476852,64.4203825 Z" id="Path"></path>
            <path d="M20.8759747,105.41088 C21.9876951,105.413926 23.0278386,104.861111 23.646138,103.938231 C24.2659602,103.015351 24.3832238,101.844237 23.9598561,100.816277 C22.4369517,97.1125731 21.3480749,93.2443957 20.7160698,89.2894129 L20.5135236,73.9857458 C21.0343567,70.0947248 22.01663,66.2813719 23.4405458,62.624878 C23.8867567,61.5177267 23.7055314,60.255239 22.9653996,59.3186526 C22.2252678,58.3820663 21.0404483,57.9145345 19.8601973,58.0911914 C18.6799462,58.2693715 17.6854897,59.0658503 17.2529848,60.1790936 C14.5513524,67.0108429 13.2142421,74.3055556 13.314754,81.650524 C13.4046051,89.1066643 14.9275096,96.4759992 17.7997076,103.358004 C18.3144491,104.602218 19.5297271,105.412402 20.8759747,105.41088 L20.8759747,105.41088 Z" id="Path"></path>
            <path d="M177.473197,93.2581018 C179.171235,93.9632066 181.117507,93.1575903 181.822612,91.4610745 C184.69481,84.5805922 186.217715,77.2127801 186.309088,69.7566398 C186.418738,62.4010113 185.084674,55.0956382 182.384564,48.2532285 C181.952059,47.1399852 180.957602,46.3419836 179.777351,46.1653263 C178.5971,45.9871466 177.412281,46.4562012 176.672149,47.3927875 C175.932018,48.3293739 175.750792,49.5903388 176.197003,50.6974901 C177.620919,54.3555068 178.604715,58.1703825 179.124025,62.0629263 L178.921479,77.3650706 C178.289474,81.3215766 177.200597,85.1912768 175.677692,88.8965033 C175.335039,89.7127801 175.331993,90.6326144 175.668555,91.450414 C176.00664,92.2697368 176.655397,92.9200172 177.473197,93.2581018 Z" id="Path"></path>
            <path d="M79.8504507,179.663134 C79.8504507,190.687439 88.7883774,199.623842 99.8126827,199.623842 C110.836988,199.623842 119.773392,190.687439 119.773392,179.663134 C119.773392,168.638828 110.836988,159.700901 99.8126827,159.700901 C88.7929458,159.713085 79.8626339,168.643396 79.8504507,179.663134 L79.8504507,179.663134 Z M113.119822,179.663134 C113.119822,187.012671 107.16222,192.970273 99.8126827,192.970273 C92.4631458,192.970273 86.5040203,187.012671 86.5040203,179.663134 C86.5040203,172.313596 92.4631458,166.354471 99.8126827,166.354471 C107.16222,166.354471 113.119822,172.313596 113.119822,179.663134 L113.119822,179.663134 Z" id="Shape"></path>
            <path d="M94.1231115,173.973563 C93.1636819,174.925378 92.8758526,176.363 93.3936405,177.611781 C93.9114277,178.85904 95.1343201,179.670748 96.4851365,179.663134 C96.7090035,179.657042 96.9313474,179.634198 97.1506456,179.596126 C97.3592834,179.559576 97.5603072,179.492568 97.749147,179.396625 C97.9608308,179.323526 98.163377,179.223014 98.3476487,179.096613 C98.5227828,178.974781 98.6887793,178.840765 98.8471614,178.697612 C100.15229,177.392483 100.15229,175.278692 98.8471614,173.973563 C97.5435552,172.668433 95.4282409,172.668433 94.1231115,173.973563 Z" id="Path"></path>
        </g>
    </g>
</svg>