<?xml version="1.0" encoding="UTF-8"?>
<svg width="200px" height="175px" viewBox="0 0 200 175" version="1.1" xmlns="http://www.w3.org/2000/svg" xmlns:xlink="http://www.w3.org/1999/xlink">
    <!-- Generator: Sketch 53.2 (72643) - https://sketchapp.com -->
    <title>010-flashlight</title>
    <desc>Created with Sketch.</desc>
    <g id="Page-1" stroke="none" stroke-width="1" fill="none" fill-rule="evenodd">
        <g id="010-flashlight" fill="#4A7CB2" fill-rule="nonzero">
            <path d="M199.083212,105.369761 L179.78192,77.7259992 C185.115131,73.1786062 188.654362,67.0215033 189.842227,60.1136086 C191.186952,52.3041544 189.400585,44.3820055 184.81055,37.8076265 C180.193104,31.1951754 173.335465,26.7924585 165.50469,25.4111844 C158.663804,24.2035209 151.726974,25.4370737 145.67952,28.8818834 L141.0971,22.3196881 C140.172697,20.994761 138.349781,20.6703825 137.026377,21.5963084 C135.70145,22.5207115 135.378594,24.3436281 136.302997,25.6670324 L191.550926,104.795626 L125.790388,103.467653 L103.096065,70.9658261 L124.343628,8.54044834 L128.490497,14.4797758 C129.4149,15.8047025 131.237817,16.1290815 132.562744,15.2031556 C133.886148,14.2787524 134.210526,12.4558359 133.286123,11.132432 L126.385843,1.25030448 C125.941155,0.613730604 125.260417,0.179702924 124.495919,0.0441641326 C123.731421,-0.089851462 122.944079,0.0852826511 122.309028,0.531493567 C121.108979,1.37366004 120.18153,2.61939571 119.697247,4.0433115 L97.3897419,69.5799828 L36.8512429,112.09643 C35.5293614,113.023879 35.2095517,114.848319 36.1385232,116.168677 C37.0659723,117.492081 38.8904117,117.810368 40.21077,116.881396 L67.744883,97.545078 L88.7883774,127.686404 L37.0065789,164.047271 L15.960039,133.904423 L29.0417887,124.719786 C30.3636694,123.790814 30.6819567,121.967897 29.7545076,120.646016 C28.8270589,119.324135 27.0026195,119.005848 25.6822612,119.933297 L10.2125973,130.794651 C5.04385965,134.425256 1.560977,139.945785 0.408138402,146.338938 C-0.755360624,152.793007 0.577180897,159.292763 4.31743431,164.531555 C8.39424951,170.242446 15.4757552,174.786793 24.237025,174.786793 C29.1560062,174.786793 33.9942737,173.30653 37.9675318,170.518092 L59.3673856,155.490071 L61.3121345,158.27394 C62.7284359,160.302449 64.8483189,161.656311 67.2819201,162.08577 C67.8240741,162.181713 68.3647053,162.228923 68.9038133,162.228923 C70.7830776,162.228923 72.6151314,161.653265 74.1867688,160.549159 L86.9502316,151.588389 C91.1184211,148.659844 92.1357212,142.878899 89.2178363,138.698526 L87.2639497,135.90095 L125.14163,109.303423 L194.17489,110.696881 C194.222101,110.698404 194.26931,110.698404 194.31652,110.698404 C195.769372,110.698404 197.202425,110.252193 198.365924,109.435916 C199.686281,108.50999 200.006092,106.690119 199.083212,105.369761 L199.083212,105.369761 Z M164.488913,31.1692862 C170.780032,32.2794834 176.292946,35.8263279 180.014924,41.1564936 C187.177144,51.4132554 185.482152,64.8224292 176.417824,72.9060062 L149.043616,33.701876 C153.795078,31.1327365 159.181591,30.2342226 164.488913,31.1692862 Z M114.269615,109.792276 L93.2245981,79.6509505 L99.1319446,75.5025583 L120.176961,105.643884 L114.269615,109.792276 Z M88.439632,83.0120004 L109.484649,113.153326 L103.921479,117.059576 L82.876462,86.9182503 L88.439632,83.0120004 Z M78.0914963,90.2777778 L99.1365131,120.419103 L93.5748659,124.325353 L72.5298487,94.1855509 L78.0914963,90.2777778 Z M21.0176047,168.658626 C13.5599415,167.903265 8.832846,160.769981 8.82523158,160.75932 C4.02351345,153.440241 5.23574581,143.483492 11.3167033,137.468019 L32.0769372,167.202729 C28.7067493,168.79721 24.8477096,169.046966 21.0176047,168.658626 Z M84.4237329,142.047393 C85.5004265,143.590095 85.1257918,145.722161 83.5891813,146.801901 L70.8272417,155.764193 C70.0855871,156.283504 69.1885965,156.483004 68.2976975,156.326145 C67.4052752,156.169286 66.6285942,155.672819 66.1077606,154.926596 L64.1538745,152.129021 L82.478984,139.262 L84.4237329,142.047393 Z" id="Shape"></path>
        </g>
    </g>
</svg>