<?xml version="1.0" encoding="UTF-8"?>
<svg width="200px" height="157px" viewBox="0 0 200 157" version="1.1" xmlns="http://www.w3.org/2000/svg" xmlns:xlink="http://www.w3.org/1999/xlink">
    <!-- Generator: Sketch 53.2 (72643) - https://sketchapp.com -->
    <title>038-blanket</title>
    <desc>Created with Sketch.</desc>
    <g id="Page-1" stroke="none" stroke-width="1" fill="none" fill-rule="evenodd">
        <g id="038-blanket" fill="#4A7CB2" fill-rule="nonzero">
            <path d="M196.016016,24.675 C198.216406,24.675 200,22.8910156 200,20.6910156 C200,18.4910156 198.216406,16.7070313 196.016016,16.7070313 L183.339844,16.7070313 L183.339844,8.01445312 L196.016016,8.01445312 C198.216406,8.01445312 200,6.23046875 200,4.03046875 C200,1.83046875 198.216406,0.046484375 196.016016,0.046484375 L29.0839844,0.046484375 C13.046875,0.046484375 0,13.09375 0,29.1308594 L0,136.435938 C0,147.335938 8.86757812,156.203516 19.7671875,156.203516 L146.911719,156.203516 C149.112109,156.203516 150.895703,154.419531 150.895703,152.219531 L150.895703,124.636719 L196.015625,124.636719 C198.216016,124.636719 199.999609,122.852734 199.999609,120.652734 C199.999609,118.452734 198.216016,116.66875 196.015625,116.66875 L183.339844,116.66875 L183.339844,107.976563 L196.016016,107.976563 C198.216406,107.976563 200,106.192578 200,103.992578 C200,101.792578 198.216406,100.008594 196.016016,100.008594 L183.339844,100.008594 L183.339844,91.3164062 L196.016016,91.3164062 C198.216406,91.3164062 200,89.5324219 200,87.3324219 C200,85.1324219 198.216406,83.3484375 196.016016,83.3484375 L183.339844,83.3484375 L183.339844,74.65625 L196.016016,74.65625 C198.216406,74.65625 200,72.8722656 200,70.6722656 C200,68.4722656 198.216406,66.6882812 196.016016,66.6882812 L183.339844,66.6882812 L183.339844,57.9960937 L196.016016,57.9960937 C198.216406,57.9960937 200,56.2121094 200,54.0121094 C200,51.8121094 198.216406,50.028125 196.016016,50.028125 L183.339844,50.028125 L183.339844,41.3359375 L196.016016,41.3359375 C198.216406,41.3359375 200,39.5519531 200,37.3519531 C200,35.1519531 198.216406,33.3679687 196.016016,33.3679687 L183.339844,33.3679687 L183.339844,24.675 L196.016016,24.675 Z M142.927734,148.235547 L19.7671875,148.235547 C14.6589844,148.235547 10.2996094,144.971484 8.66171875,140.419922 L142.927734,140.419922 L142.927734,148.235547 Z M142.928125,132.451953 L8.66210938,132.451953 C10.3,127.900391 14.6589844,124.636719 19.7675781,124.636719 L142.928125,124.636719 L142.928125,132.451953 Z M175.371875,116.66875 L19.7671875,116.66875 C15.3480469,116.66875 11.2636719,118.126953 7.96796875,120.586328 L7.96796875,29.1308594 C7.96796875,17.4871094 17.440625,8.01445312 29.0839844,8.01445312 L175.371875,8.01445312 L175.371484,116.66875 L175.371875,116.66875 Z" id="Shape"></path>
            <path d="M93.8621094,103.515625 L91.23125,103.515625 C89.0308594,103.515625 87.2472656,105.299609 87.2472656,107.499609 C87.2472656,109.699609 89.0308594,111.483594 91.23125,111.483594 L93.8621094,111.483594 C96.0625,111.483594 97.8460938,109.699609 97.8460938,107.499609 C97.8460937,105.299609 96.0625,103.515625 93.8621094,103.515625 Z" id="Path"></path>
            <path d="M164.010547,103.515625 L110.522266,103.515625 C108.321875,103.515625 106.538281,105.299609 106.538281,107.499609 C106.538281,109.699609 108.321875,111.483594 110.522266,111.483594 L164.010156,111.483594 C166.210547,111.483594 167.994141,109.699609 167.994141,107.499609 C167.994531,105.299609 166.210938,103.515625 164.010547,103.515625 Z" id="Path"></path>
        </g>
    </g>
</svg>