<?xml version="1.0" encoding="UTF-8"?>
<svg width="200px" height="200px" viewBox="0 0 200 200" version="1.1" xmlns="http://www.w3.org/2000/svg" xmlns:xlink="http://www.w3.org/1999/xlink">
    <!-- Generator: Sketch 53.2 (72643) - https://sketchapp.com -->
    <title>004-baseball</title>
    <desc>Created with Sketch.</desc>
    <g id="Page-1" stroke="none" stroke-width="1" fill="none" fill-rule="evenodd">
        <g id="004-baseball" fill="#4A7CB2" fill-rule="nonzero">
            <path d="M15.6890867,158.996582 C15.6890867,181.642151 34.0469359,200 56.6925047,200 C79.3380738,200 97.6959227,181.642151 97.6959227,158.996582 C97.6959227,136.351013 79.3380738,117.993164 56.6925047,117.993164 C34.0576172,118.019104 15.7165527,136.361695 15.6890867,158.996582 Z M90.2404785,158.996582 C90.2404785,177.52533 75.2212523,192.544555 56.6925047,192.544555 C38.1637574,192.544555 23.1445313,177.52533 23.1445313,158.996582 C23.1445313,140.467834 38.1637574,125.448609 56.6925047,125.448609 C75.2120973,125.468445 90.2206422,140.47699 90.2404785,158.996582 Z" id="Shape"></path>
            <path d="M63.0859375,154.917908 L62.3062133,147.505188 C61.166382,147.624207 60.0143434,147.686768 58.857727,147.694397 L58.9111328,155.149841 C60.3118898,155.13916 61.706543,155.064392 63.0859375,154.917908 Z" id="Path"></path>
            <path d="M55.3955078,147.557068 C54.2434691,147.45636 53.0990602,147.296143 51.965332,147.087097 L50.5981445,154.415894 C51.9622805,154.669189 53.3493043,154.858398 54.7348023,154.981995 L55.3955078,147.557068 Z" id="Path"></path>
            <path d="M84.675598,146.453857 L85.8459473,145.573425 L81.3735961,139.608765 L80.2017211,140.492248 C79.6279906,140.917969 79.0512086,141.326904 78.4622191,141.719055 L82.5622559,147.937012 C83.2824707,147.463989 83.9874266,146.969605 84.675598,146.453857 Z" id="Path"></path>
            <path d="M38.7771605,150.378418 L42.1691895,143.739319 C41.1483766,143.217468 40.1458742,142.640686 39.1876219,142.018127 L35.1699828,148.294067 C36.3342285,149.047852 37.5381469,149.742127 38.7771605,150.378418 L38.7771605,150.378418 Z" id="Path"></path>
            <path d="M31.7520141,145.883179 L36.3433836,140.011597 C35.9375,139.691162 35.534668,139.363098 35.1394652,139.024353 L33.5449219,137.65564 L28.6987305,143.321228 L30.2902223,144.682312 C30.769348,145.097351 31.2561035,145.497131 31.7520141,145.883179 Z" id="Path"></path>
            <path d="M71.2631227,153.263855 L69.0948484,146.133423 C67.9885863,146.46759 66.8701172,146.751404 65.739441,146.983338 L67.2302246,154.289246 C68.5806273,154.013062 69.9325563,153.669739 71.2631227,153.263855 Z" id="Path"></path>
            <path d="M78.9794922,150.073242 L75.4867555,143.489075 C74.4659422,144.029236 73.4207152,144.520569 72.3526,144.961548 L75.1998902,151.853943 C76.4846801,151.322937 77.7450563,150.72937 78.9794922,150.073242 Z" id="Path"></path>
            <path d="M48.5961914,146.286011 C47.4853516,145.965576 46.3958742,145.591736 45.3277586,145.167541 L42.5765992,152.096558 C43.8735961,152.610779 45.1934812,153.062439 46.5347289,153.450012 L48.5961914,146.286011 Z" id="Path"></path>
            <path d="M43.6126711,168.994141 L46.1700438,175.997925 C47.1878051,175.62561 48.2192992,175.297546 49.2675781,175.013733 L47.3358156,167.816162 C46.0769652,168.148804 44.8349,168.540955 43.6126711,168.994141 Z" id="Path"></path>
            <path d="M77.8167727,170.81604 C76.6464234,170.242309 75.4516602,169.718933 74.2340086,169.247437 L71.5545656,176.20697 C72.5616453,176.594543 73.5549926,177.026367 74.5361328,177.503967 L77.8167727,170.81604 Z" id="Path"></path>
            <path d="M58.8882445,173.791504 C59.9731445,173.791504 61.0504148,173.858643 62.1231078,173.962402 L62.8692625,166.545105 C61.5798949,166.418457 60.2600098,166.346741 58.9630125,166.336059 L58.8882445,173.791504 Z" id="Path"></path>
            <path d="M51.1642457,166.973877 L52.4276734,174.316406 C53.4942625,174.134827 54.5684813,173.999023 55.6488039,173.907471 L55.0369262,166.477966 C53.7368773,166.586304 52.442932,166.75415 51.1642457,166.973877 L51.1642457,166.973877 Z" id="Path"></path>
            <path d="M36.541748,172.337341 L40.3320312,178.752136 C41.2597656,178.201294 42.1966555,177.700805 43.1915281,177.23999 L40.0009156,170.500183 C38.8229371,171.061707 37.6693727,171.673584 36.541748,172.337341 L36.541748,172.337341 Z" id="Path"></path>
            <path d="M70.526123,168.005371 C69.2703246,167.648316 67.9977418,167.347717 66.7083742,167.103577 L65.333557,174.432373 C66.3955688,174.630738 67.4423219,174.879455 68.4783938,175.178528 L70.526123,168.005371 Z" id="Path"></path>
            <path d="M30.2261352,176.889038 L35.1623535,182.479859 C35.9603883,181.797791 36.7797852,181.15387 37.6296996,180.545044 L33.2717895,174.465942 C32.2463988,175.196838 31.2515258,175.975037 30.2261352,176.889038 Z" id="Path"></path>
            <path d="M77.3574828,179.069519 C78.2775879,179.634094 79.1732789,180.236816 80.0460816,180.877686 L84.4848633,174.913025 C83.4335328,174.130249 82.3516844,173.399353 81.237793,172.721863 L77.3574828,179.069519 Z" id="Path"></path>
            <path d="M72.6547242,104.081726 C72.770691,104.200745 72.8958129,104.310608 73.0270387,104.412842 L138.729859,154.336548 L163.391113,179.00238 L161.303711,186.830139 C161.222839,187.14447 161.181641,187.467957 161.180115,187.791443 C161.180115,194.216919 166.387939,199.42627 172.813416,199.42627 C175.900269,199.427795 178.858948,198.200989 181.040955,196.018982 L196.220398,180.839539 C200.762939,176.296997 200.762939,168.93158 196.220398,164.387512 C194.038391,162.205505 191.079712,160.978699 187.992859,160.980225 C187.669373,160.978699 187.347412,161.021423 187.034607,161.106873 L179.206848,163.189697 L166.230774,150.210571 L154.541016,138.520813 L104.614258,72.833252 C104.515076,72.7005004 104.405213,72.5769043 104.286194,72.4609375 L38.3895875,6.55670156 C29.6554566,-2.18200703 15.4907227,-2.18658437 6.75201406,6.54754648 C-1.98669453,15.2816773 -1.99127188,29.4464109 6.74285898,38.1851195 L72.6547242,104.081726 Z M180.007934,170.681763 L188.398743,168.44635 C190.693664,168.667602 192.375183,170.707703 192.15393,173.002625 C192.059326,173.970032 191.63208,174.873352 190.945434,175.558472 L175.765991,190.736389 C174.113464,192.3172 171.510315,192.3172 169.857788,190.736389 C169.17572,190.05127 168.75,189.151001 168.65387,188.186645 L170.890808,179.800415 L180.007934,170.681763 Z M149.092102,143.6203 L172.810364,167.338562 L167.539978,172.613525 L143.817139,148.890686 L149.092102,143.615723 L149.092102,143.6203 Z M12.0330812,11.8270875 C17.9351805,6.20269766 27.2155762,6.20269766 33.1192016,11.8270875 L98.8372805,77.545166 L98.989868,77.746582 L93.7408445,82.9956055 L99.0158082,88.2659914 L103.540039,83.7371828 L144.517517,137.652588 L137.857055,144.309998 L83.9416504,103.335571 L93.7408445,93.536377 L88.470459,88.2659914 L77.9403687,98.7854004 L77.734375,98.6328125 L12.0330812,32.914734 C6.2210082,27.0874023 6.2210082,17.6559449 12.0330812,11.8270875 Z" id="Shape"></path>
        </g>
    </g>
</svg>