<?xml version="1.0" encoding="UTF-8"?>
<svg width="200px" height="127px" viewBox="0 0 200 127" version="1.1" xmlns="http://www.w3.org/2000/svg" xmlns:xlink="http://www.w3.org/1999/xlink">
    <!-- Generator: Sketch 53.2 (72643) - https://sketchapp.com -->
    <title>033-desk</title>
    <desc>Created with Sketch.</desc>
    <g id="Page-1" stroke="none" stroke-width="1" fill="none" fill-rule="evenodd">
        <g id="033-desk" fill="#4A7CB2" fill-rule="nonzero">
            <path d="M60,80 L140,80 L140,46.6666667 L60,46.6666667 L60,80 Z M66.6666667,53.3333333 L133.333333,53.3333333 L133.333333,73.3333333 L66.6666667,73.3333333 L66.6666667,53.3333333 Z" id="Shape"></path>
            <path d="M166.666667,33.3333333 L160,33.3333333 L126.666667,33.3333333 L120,33.3333333 L120,16.6666667 C119.98898,7.4664895 112.533511,0.0110203878 103.333333,0 L83.3333333,0 C74.1331562,0.0110203878 66.6776871,7.4664895 66.6666667,16.6666667 L66.6666667,33.3333333 L60,33.3333333 L6.66666667,33.3333333 L0,33.3333333 L0,106.666667 L6.66666667,106.666667 L6.66666667,126.666667 L33.3333333,126.666667 L33.3333333,106.666667 L66.6666667,106.666667 L66.6666667,126.666667 L86.6666667,126.666667 L86.6666667,106.666667 L103.333333,106.666667 L103.333333,126.666667 L123.333333,126.666667 L123.333333,106.666667 L166.666667,106.666667 L166.666667,126.666667 L193.333333,126.666667 L193.333333,106.666667 L200,106.666667 L200,33.3333333 L166.666667,33.3333333 Z M73.3333333,16.6666667 C73.3333333,11.1438192 77.8104858,6.66666667 83.3333333,6.66666667 L103.333333,6.66666667 C108.856181,6.66666667 113.333333,11.1438192 113.333333,16.6666667 L113.333333,33.3333333 L73.3333333,33.3333333 L73.3333333,16.6666667 Z M26.6666667,120 L13.3333333,120 L13.3333333,106.666667 L26.6666667,106.666667 L26.6666667,120 Z M80,120 L73.3333333,120 L73.3333333,106.666667 L80,106.666667 L80,120 Z M116.666667,120 L110,120 L110,106.666667 L116.666667,106.666667 L116.666667,120 Z M186.666667,120 L173.333333,120 L173.333333,106.666667 L186.666667,106.666667 L186.666667,120 Z M193.333333,100 L6.66666667,100 L6.66666667,40 L193.333333,40 L193.333333,100 Z" id="Shape"></path>
            <rect id="Rectangle" x="86.6666667" y="60" width="26.6666667" height="6.66666667"></rect>
            <polygon id="Path" points="20 76.6666667 13.3333333 76.6666667 13.3333333 93.3333333 30 93.3333333 30 86.6666667 20 86.6666667"></polygon>
            <rect id="Rectangle" x="36.6666667" y="86.6666667" width="6.66666667" height="6.66666667"></rect>
        </g>
    </g>
</svg>