<?xml version="1.0" encoding="UTF-8"?>
<svg width="202px" height="202px" viewBox="0 0 202 202" version="1.1" xmlns="http://www.w3.org/2000/svg" xmlns:xlink="http://www.w3.org/1999/xlink">
    <!-- Generator: Sketch 53.2 (72643) - https://sketchapp.com -->
    <title>007-ball</title>
    <desc>Created with Sketch.</desc>
    <g id="Page-1" stroke="none" stroke-width="1" fill="none" fill-rule="evenodd">
        <g id="007-ball" transform="translate(1.000000, 1.000000)" fill-rule="nonzero">
            <circle id="Oval-2" fill="#FFFFFF" cx="100" cy="100" r="95.8333333"></circle>
            <path d="M196.248377,73.0693575 C196.248377,72.650005 196.248377,72.650005 196.248377,73.0693575 C184.165182,30.8971981 145.833567,0 99.9987058,0 C44.9987704,0 0,45.0929275 0,100.207947 C0,123.171169 7.91740908,144.466493 20.8332435,161.167962 C21.2508575,162.421696 22.0834969,163.674565 23.3337504,164.089595 C34.9984685,178.285324 50.8332867,188.725903 68.3325208,194.987657 L68.7509975,194.987657 C78.7512996,198.327778 89.1657642,200 99.9987058,200 C154.997778,200 200,154.906208 200,99.7920529 C200,90.6052079 198.749747,81.4183625 196.248377,73.0693575 Z M100.833934,95.6140921 C98.3334267,93.5268408 84.9999783,80.5839808 78.3328229,59.2886571 C92.9173875,55.9485362 144.582451,46.7616912 188.33183,75.9909904 C190.414723,83.5056137 191.664977,91.8580771 191.664977,99.7920529 C191.664977,107.72257 190.832338,115.240652 188.749445,122.336787 C154.165139,87.6801162 110.830784,93.5268408 100.833934,95.6140921 Z M66.6681046,137.366899 C57.5004421,125.25842 25.4166433,78.4967296 44.5846079,27.9729712 L44.5846079,27.1385895 C51.6659263,21.7103528 59.583335,17.5358503 67.9149067,14.1957295 C64.5817604,30.4787103 65.8320138,44.67444 69.1651604,57.2014058 L69.1651604,57.6207583 C69.1651604,57.6207583 69.1651604,58.0357875 69.5836371,58.0357875 C76.6675437,82.6712321 92.0847479,98.5391833 95.4178946,101.879304 C92.4989108,107.306676 84.1673392,123.589657 66.6681046,137.366899 Z M184.165182,63.8825121 C139.166411,38.8311739 90.4160179,48.0145604 76.24993,51.3555463 C73.7494229,39.6655556 73.3343975,26.3042078 77.5001833,11.270638 C84.5815017,9.60187454 92.4989108,8.349005 99.9987058,8.349005 C137.497681,8.349005 169.999094,31.313092 184.165182,63.8825121 Z M32.9155755,37.9933336 C21.2508575,87.2650871 50.0006471,129.852275 59.9974979,142.379242 C51.2483121,148.222508 40.4153706,153.23485 27.4995362,156.156483 C15.8348181,140.70702 8.75004854,121.499812 8.75004854,100.622976 C8.33157171,75.9909904 17.4992342,54.2797729 32.9155755,37.9933336 Z M33.3340524,162.836725 C82.0844458,149.475377 100.41632,111.062691 103.749466,103.548068 C110.416622,102.295198 129.998749,99.7885946 151.663769,107.72257 C146.665344,120.249536 123.332456,173.692334 70.4154138,186.637788 C55.8317121,182.044797 43.3343542,173.695792 33.3340524,162.836725 Z M99.9987058,192.066024 C95.0002804,192.066024 90.4160179,191.646672 85.4141413,190.813155 C132.914281,172.442058 154.165139,124.424039 159.163564,111.482043 C168.331227,116.075034 177.498889,122.336787 186.248075,131.939527 C173.333103,167.014686 139.581437,192.066024 99.9987058,192.066024 Z" id="Fill-1" stroke="#4A7CB2" fill="#4A7CB2"></path>
        </g>
    </g>
</svg>