<?xml version="1.0" encoding="UTF-8"?>
<svg width="200px" height="200px" viewBox="0 0 200 200" version="1.1" xmlns="http://www.w3.org/2000/svg" xmlns:xlink="http://www.w3.org/1999/xlink">
    <!-- Generator: Sketch 54.1 (76490) - https://sketchapp.com -->
    <title>010-parkour-extreme-sport-silhouette</title>
    <desc>Created with Sketch.</desc>
    <g id="Page-1" stroke="none" stroke-width="1" fill="none" fill-rule="evenodd">
        <g id="010-parkour-extreme-sport-silhouette" fill="#487BB4" fill-rule="nonzero">
            <path d="M49.897417,142.412546 C50.9313653,145.457565 53.4719557,147.539852 56.400738,148.174539 L56.4077491,148.245018 L56.697048,148.245018 C57.2051661,148.336531 57.7239852,148.39631 58.2498155,148.39631 C58.7649446,148.39631 59.2874539,148.340221 59.8095941,148.245018 L80.8118081,148.245018 C84.7073801,148.245018 88.1088561,145.094096 88.4055351,141.208856 L91.1154982,105.683026 L111.704797,75.6583026 L122.085978,65.9686347 L156.514391,101.819188 C158.59631,103.981919 161.369742,105.072325 164.150185,105.072325 C166.789668,105.072325 169.429151,104.091513 171.482657,102.118819 C175.699262,98.0715867 175.83321,91.3708487 171.785978,87.1505535 L168.172694,83.3892989 C169.898155,79.5642066 169.256089,74.9206642 166.171956,71.7059041 L124.516605,28.3254613 C120.508487,24.1583026 113.884871,23.9712177 109.657565,27.9195572 L83.8918819,51.9704797 C82.702583,53.0785978 81.8627306,54.4051661 81.301845,55.8236162 L54.2660517,100.520295 L48.0944649,82.3907749 C47.3605166,80.2276753 45.8114391,78.4317343 43.7756458,77.3870849 L12.8546125,61.501107 C8.52509225,59.2745387 3.20405904,60.9826568 0.977121771,65.3154982 C-1.24944649,69.6487085 0.458302583,74.9660517 4.79151292,77.1926199 L32.5402214,91.4516605 L49.897417,142.412546 Z" id="Path"></path>
            <circle id="Oval" cx="70.0774908" cy="174.053137" r="21.0409594"></circle>
            <path d="M188.507749,0.1 C186.556458,0.1 184.979336,1.68081181 184.979336,3.62841328 L184.979336,196.050185 C184.979336,198.001107 186.556458,199.578598 188.507749,199.578598 L196.150923,199.578598 C198.102214,199.578598 199.679336,198.001107 199.679336,196.050185 L199.679336,3.62878229 C199.679336,1.68118081 198.102214,0.100369004 196.150923,0.100369004 L188.507749,0.100369004 L188.507749,0.1 Z" id="Path"></path>
            <path d="M144.079336,11.3848708 C145.967159,11.8929889 147.893727,10.7638376 148.394834,8.88302583 C148.899262,7.00221402 147.777122,5.06863469 145.89631,4.56752768 C145.201107,4.38376384 75.8538745,-13.4564576 46.0158672,35.7638376 C45.0066421,37.4328413 45.5394834,39.599631 47.2051661,40.6084871 C47.7767528,40.9575646 48.4084871,41.1199262 49.0332103,41.1199262 C50.2258303,41.1199262 51.3904059,40.5166052 52.0571956,39.4191882 C79.1284133,-5.25276753 143.433579,11.2154982 144.079336,11.3848708 Z" id="Path"></path>
            <path d="M86.9302583,28.5158672 C88.8250923,28.0782288 90.0140221,26.1870849 89.5804428,24.2885609 C89.1464945,22.3900369 87.2586716,21.1937269 85.3671587,21.6313653 C84.996679,21.7125461 48.4158672,30.4070111 52.9815498,64.9590406 C53.2143911,66.7339483 54.7317343,68.0254613 56.4749077,68.0254613 C56.6265683,68.0254613 56.7856089,68.0147601 56.9405904,67.9937269 C58.8745387,67.7398524 60.2328413,65.9645756 59.9752768,64.0346863 C56.2594096,35.9118081 85.6738007,28.801845 86.9302583,28.5158672 Z" id="Path"></path>
        </g>
    </g>
</svg>