<?xml version="1.0" encoding="UTF-8"?>
<svg width="200px" height="199px" viewBox="0 0 200 199" version="1.1" xmlns="http://www.w3.org/2000/svg" xmlns:xlink="http://www.w3.org/1999/xlink">
    <!-- Generator: Sketch 53.2 (72643) - https://sketchapp.com -->
    <title>003-tent</title>
    <desc>Created with Sketch.</desc>
    <g id="Page-1" stroke="none" stroke-width="1" fill="none" fill-rule="evenodd">
        <g id="003-tent" fill="#4A7CB2" fill-rule="nonzero">
            <rect id="Rectangle" x="141.183471" y="192.008264" width="6.61157025" height="6.61157025"></rect>
            <polygon id="Rectangle" transform="translate(132.926786, 163.921386) rotate(-28.299980) translate(-132.926786, -163.921386) " points="129.620917 139.515805 136.232656 139.515805 136.232656 188.326968 129.620917 188.326968"></polygon>
            <path d="M39.6727273,95.1719008 L44.3471074,90.4975207 L25.4809917,71.631405 L25.4809917,61.1454545 L39.6727273,75.3371901 L44.3471074,70.6628099 L24.5123967,50.8280992 L24.4892562,50.8512397 C23.2657025,49.5607438 21.2280992,49.5061983 19.9371901,50.7297521 C19.9020661,50.7628099 19.8681818,50.7966942 19.8347107,50.831405 L0,70.6661157 L4.67438017,75.3404959 L18.8694215,61.1454545 L18.8694215,71.631405 L0.00330578512,90.4975207 L4.67768595,95.1719008 L18.8694215,80.9801653 L18.8694215,91.4661157 L0.00330578512,110.332231 L4.67768595,115.006612 L18.8694215,100.814876 L18.8694215,111.300826 L0.00330578512,130.166942 L4.67768595,134.841322 L18.8694215,120.649587 L18.8694215,198.619835 L25.4809917,198.619835 L25.4809917,120.649587 L39.6727273,134.841322 L44.3471074,130.166942 L25.4809917,111.300826 L25.4809917,100.814876 L39.6727273,115.006612 L44.3471074,110.332231 L25.4809917,91.4661157 L25.4809917,80.9801653 L39.6727273,95.1719008 Z" id="Path"></path>
            <path d="M195.044628,108.395041 L199.719008,103.720661 L180.852893,84.8545455 L180.852893,74.368595 L195.044628,88.5603306 L199.719008,83.8859504 L179.884298,64.0512397 L179.861157,64.0743802 C178.637603,62.7838843 176.599587,62.7293388 175.309091,63.9528926 C175.273967,63.9859504 175.240083,64.0198347 175.206612,64.0545455 L155.371901,83.8892562 L160.046281,88.5636364 L174.241322,74.368595 L174.241322,84.8545455 L155.375207,103.720661 L160.049587,108.395041 L174.241322,94.2033058 L174.241322,104.689256 L155.375207,123.555372 L160.049587,128.229752 L174.241322,114.038017 L174.241322,145.727273 L167.299174,131.092562 C166.755372,129.940496 165.597934,129.203719 164.323967,129.198347 L121.34876,129.198347 L121.34876,104.120661 L135.540496,118.312397 L140.214876,113.638017 L121.34876,94.7719008 L121.34876,84.2859504 L135.540496,98.477686 L140.214876,93.8033058 L121.34876,74.9371901 L121.34876,64.4512397 L135.540496,78.6429752 L140.214876,73.968595 L121.34876,55.1024793 L121.34876,44.6165289 L135.540496,58.8082645 L140.214876,54.1338843 L120.380165,34.2991736 L120.357025,34.322314 C119.133471,33.0318182 117.095455,32.9772727 115.804959,34.2008264 C115.769835,34.2338843 115.73595,34.2677686 115.702479,34.3024793 L95.8677686,54.1371901 L100.542149,58.8115702 L114.73719,44.6165289 L114.73719,55.1024793 L95.8710744,73.968595 L100.545455,78.6429752 L114.73719,64.4512397 L114.73719,74.9371901 L95.8710744,93.8033058 L100.545455,98.477686 L114.73719,84.2859504 L114.73719,94.7719008 L95.8710744,113.638017 L100.545455,118.312397 L114.73719,104.120661 L114.73719,129.198347 L68.4561983,129.198347 C67.5235537,129.203719 66.6380165,129.608264 66.0231405,130.309091 C65.827686,130.504545 65.6619835,130.727273 65.5305785,130.970248 L32.4727273,193.780165 C31.6256198,195.397521 32.25,197.395455 33.8673554,198.242562 C34.3396694,198.490083 34.8652893,198.619421 35.3983471,198.619835 L134.571901,198.619835 L134.571901,192.008264 L103.497521,192.008264 L73.9305785,135.809917 L162.231405,135.809917 L188.852893,192.008264 L154.406612,192.008264 L154.406612,198.619835 L194.076033,198.619835 C195.901653,198.61281 197.376033,197.127273 197.369421,195.301653 C197.367769,194.816529 197.259091,194.337603 197.05124,193.899174 L180.852893,159.680992 L180.852893,114.038017 L195.044628,128.229752 L199.719008,123.555372 L180.852893,104.689256 L180.852893,94.2033058 L195.044628,108.395041 Z M65.1504132,192.008264 L40.8727273,192.008264 L65.1504132,145.882645 L65.1504132,192.008264 L65.1504132,192.008264 Z M96.0396694,192.008264 L71.7619835,192.008264 L71.7619835,145.882645 L96.0396694,192.008264 Z" id="Shape"></path>
            <path d="M63.4975207,0.272727273 C61.6719008,0.273140496 60.1921488,1.75330579 60.192562,3.57933884 C60.192562,4.45578512 60.5409091,5.29586777 61.1603306,5.91570248 C64.5743802,8.9838843 66.7805785,13.1702479 67.3818182,17.7206612 C68.0082645,23.3016529 63.9921488,28.3338843 58.411157,28.9603306 C57.6570248,29.0450413 56.8958678,29.0450413 56.1421488,28.9603306 L56.1520661,28.9504132 C51.6016529,28.3491736 47.4152893,26.1429752 44.3471074,22.7289256 C43.0557851,21.4380165 40.9628099,21.4384298 39.6719008,22.7297521 C39.0524793,23.3495868 38.7041322,24.1900826 38.7041322,25.0661157 C38.7041322,38.7590909 49.8045455,49.8595041 63.4975207,49.8595041 C77.1904959,49.8595041 88.2909091,38.7590909 88.2909091,25.0661157 C88.2909091,11.3731405 77.1904959,0.272727273 63.4975207,0.272727273 Z M79.8706612,32.9909091 C75.4938017,42.0285124 64.6194215,45.8070248 55.5822314,41.4301653 C51.9028926,39.6483471 48.931405,36.6785124 47.1475207,33 C49.7801653,34.4181818 52.6768595,35.2789256 55.6566116,35.5289256 C60.6413223,35.9822314 65.5731405,34.2194215 69.1409091,30.7090909 C74.7243802,24.7041322 75.6586777,15.7285124 71.4318182,8.70247934 C80.4690083,13.0793388 84.2471074,23.953719 79.8706612,32.9909091 Z" id="Shape"></path>
        </g>
    </g>
</svg>