<?xml version="1.0" encoding="UTF-8"?>
<svg width="126px" height="200px" viewBox="0 0 126 200" version="1.1" xmlns="http://www.w3.org/2000/svg" xmlns:xlink="http://www.w3.org/1999/xlink">
    <!-- Generator: Sketch 54.1 (76490) - https://sketchapp.com -->
    <title>002-jumping-rope</title>
    <desc>Created with Sketch.</desc>
    <g id="Page-1" stroke="none" stroke-width="1" fill="none" fill-rule="evenodd">
        <g id="002-jumping-rope" fill="#487BB4" fill-rule="nonzero">
            <path d="M120.012955,75.9975709 L94.6291498,67.2801619 L79.3307692,51.1631579 C76.6412955,47.6364372 72.4384615,45.3271255 67.6668016,45.3271255 L57.754251,45.3271255 C52.982996,45.3271255 48.7797571,47.6364372 46.0902834,51.1631579 L30.7919028,67.2801619 L5.40809717,75.9975709 C1.29676113,77.4072874 -0.889068826,81.882996 0.521052632,85.9939271 C0.770445344,86.7202429 1.14696356,87.3615385 1.5659919,87.957085 C3.28340081,153.223887 28.4210526,199.91498 62.7101215,199.91498 C96.9991903,199.91498 122.137652,153.223887 123.855061,87.957085 C124.273684,87.3611336 124.650607,86.7202429 124.9,85.9939271 C126.310121,81.8825911 124.123887,77.4072874 120.012955,75.9975709 Z M62.7105263,192.046964 C33.9040486,192.046964 11.8202429,149.289879 9.49959514,91.054251 C9.84210526,90.9850202 10.1793522,90.9959514 10.5178138,90.8809717 L37.7267206,81.537247 C38.9259109,81.1267206 40.0052632,80.4311741 40.8769231,79.5125506 L43.040081,77.2340081 L43.040081,88.602834 L43.040081,90.4890688 L36.0433198,118.112146 C35.8323887,118.938462 36.017004,119.81417 36.5392713,120.487045 C37.0619433,121.158704 37.8651822,121.551417 38.7182186,121.551417 L43.040081,121.551417 L43.040081,165.810526 C43.040081,170.155466 46.5635628,173.678947 50.9080972,173.678947 C55.2530364,173.678947 58.7765182,170.155466 58.7765182,165.810526 L58.7765182,121.551417 L66.6449393,121.551417 L66.6449393,165.810526 C66.6449393,170.155466 70.1684211,173.678947 74.5129555,173.678947 C78.8578947,173.678947 82.3813765,170.155466 82.3813765,165.810526 L82.3813765,121.551417 L86.7036437,121.551417 C87.5562753,121.551417 88.3595142,121.158704 88.8825911,120.487045 C89.4048583,119.81417 89.588664,118.938462 89.3781377,118.112146 L82.3817814,90.4890688 L82.3817814,88.602834 L82.3817814,77.2340081 L84.5449393,79.5125506 C85.4165992,80.4307692 86.4959514,81.1263158 87.6951417,81.537247 L114.903644,90.8809717 C115.242105,90.9959514 115.579352,90.9850202 115.922267,91.054251 C113.601215,149.289879 91.517004,192.046964 62.7105263,192.046964 Z" id="XMLID_302_"></path>
            <circle id="XMLID_301_" cx="62.7105263" cy="18.8522267" r="18.8522267"></circle>
            <path d="M35.3327935,29.0182186 C39.5894737,29.0182186 43.0396761,25.5680162 43.0396761,21.3109312 C43.0396761,17.0578947 39.5890688,13.6080972 35.3327935,13.6080972 C31.7105263,13.6080972 26.0506073,19.440081 18.0672065,15.6866397 C17.2757085,15.3178138 16.3380567,15.494332 15.7392713,16.1283401 C15.1396761,16.7623482 15.0165992,17.7072874 15.4315789,18.4757085 C18.094332,23.38583 24.091498,29.0182186 35.3327935,29.0182186 Z" id="XMLID_300_"></path>
        </g>
    </g>
</svg>