<?xml version="1.0" encoding="UTF-8"?>
<svg width="142px" height="200px" viewBox="0 0 142 200" version="1.1" xmlns="http://www.w3.org/2000/svg" xmlns:xlink="http://www.w3.org/1999/xlink">
    <!-- Generator: Sketch 54.1 (76490) - https://sketchapp.com -->
    <title>woman</title>
    <desc>Created with Sketch.</desc>
    <g id="Page-1" stroke="none" stroke-width="1" fill="none" fill-rule="evenodd">
        <g id="Artboard" transform="translate(-426.000000, -950.000000)" fill="#4A7CB2" fill-rule="nonzero">
            <g id="woman" transform="translate(426.000000, 950.000000)">
                <path d="M53.6324219,84.8917969 C55.2507813,84.8917969 56.5621094,83.5800781 56.5621094,81.9621094 L56.5621094,76.7117188 C56.5621094,75.09375 55.2507813,73.7820313 53.6324219,73.7820313 C52.0140625,73.7820313 50.7027344,75.09375 50.7027344,76.7117188 L50.7027344,81.9621094 C50.7027344,83.5800781 52.0140625,84.8917969 53.6324219,84.8917969 Z" id="Path"></path>
                <path d="M88.5550781,84.8917969 C90.1734375,84.8917969 91.4847656,83.5800781 91.4847656,81.9621094 L91.4847656,76.7117188 C91.4847656,75.09375 90.1734375,73.7820313 88.5550781,73.7820313 C86.9367188,73.7820313 85.6253906,75.09375 85.6253906,76.7117188 L85.6253906,81.9621094 C85.6253906,83.5800781 86.9371094,84.8917969 88.5550781,84.8917969 Z" id="Path"></path>
                <path d="M141.852344,191.692969 C141.697266,188.325 141.221094,184.947266 140.437891,181.654297 C140.063281,180.080469 138.482812,179.107031 136.909766,179.482031 C135.335547,179.85625 134.362891,181.435937 134.737109,183.010156 C135.435937,185.948047 135.860547,188.960156 135.998828,191.962891 C136.032422,192.689453 136.049609,193.416797 136.050391,194.141016 L116.744922,194.141016 L116.744922,182.806641 C116.744922,182.436719 116.674609,182.070312 116.538672,181.726562 L111.488281,168.993359 L111.488281,151.060938 C113.75625,152.617188 116.052344,154.359766 118.316797,156.306641 C123.192188,160.498437 127.185547,165.460156 130.185938,171.054297 C130.950781,172.480078 132.726953,173.016016 134.152344,172.251172 C135.578125,171.486328 136.114063,169.710547 135.349219,168.284766 C134.001172,165.771094 132.470703,163.375 130.771875,161.101562 C132.944922,157.923828 134.283203,154.243359 134.625781,150.359375 C134.682813,149.717187 134.711719,149.038672 134.711719,148.342187 C134.711719,142.469531 132.688672,139.428125 130.904297,136.744922 C129.324609,134.369922 128.077344,132.494531 128.077344,128.392188 C128.077344,124.290625 129.324609,122.415234 130.903906,120.041016 C132.688672,117.357813 134.711719,114.317187 134.711719,108.444531 C134.711719,102.571875 132.688672,99.53125 130.904297,96.8480469 C129.324609,94.4734375 128.077344,92.5984375 128.077344,88.4964844 C128.077344,84.3949219 129.324609,82.5199219 130.903906,80.1457031 C132.688672,77.4628906 134.711719,74.421875 134.711719,68.5496094 C134.711719,62.6773437 132.688672,59.6363281 130.903906,56.9535156 C129.324609,54.5792969 128.077344,52.7039062 128.077344,48.6027344 C128.077344,48.5019531 128.072266,48.4023438 128.062109,48.3042969 C127.881641,38.9195312 124.585156,29.8457031 118.764453,22.7265625 C106.957031,8.28359375 89.4960937,0 70.8597656,0 C53.1144531,0 36.2007812,7.6390625 24.4558594,20.9585938 C17.7839844,28.5246094 14.1097656,38.3367187 14.1097656,48.6027344 C14.1097656,52.7039062 12.8625,54.5792969 11.2832031,56.9535156 C9.4984375,59.6363281 7.47539062,62.6773437 7.47539062,68.5496094 C7.47539062,74.421875 9.4984375,77.4628906 11.2832031,80.1457031 C12.8625,82.5199219 14.1097656,84.3953125 14.1097656,88.4964844 C14.1097656,92.5980469 12.8625,94.4734375 11.2828125,96.8480469 C9.4984375,99.53125 7.47539062,102.572266 7.47539062,108.444531 C7.47539062,114.316797 9.4984375,117.357812 11.2832031,120.041016 C12.8625,122.415234 14.1097656,124.290625 14.1097656,128.392188 C14.1097656,132.494531 12.8625,134.370312 11.2828125,136.744922 C9.4984375,139.428125 7.47539062,142.469531 7.47539062,148.342187 C7.47539062,149.038672 7.50429687,149.717578 7.56132812,150.358203 C7.90507812,154.250781 9.24921875,157.937109 11.4300781,161.11875 C4.79335937,170.019531 0.8625,180.647266 0.33984375,191.603516 C0.25,193.491797 0.258203125,195.3875 0.364453125,197.237891 C0.453515625,198.788281 1.73632812,199.999609 3.2890625,199.999609 L28.3722656,199.999609 L113.815234,199.999609 L138.898437,199.999609 C140.451172,199.999609 141.734375,198.788281 141.823047,197.237891 C141.928125,195.417578 141.9375,193.551953 141.852344,191.692969 L141.852344,191.692969 Z M16.1617188,139.989844 C17.9460938,137.306641 19.9691406,134.265234 19.9691406,128.392187 C19.9691406,122.519922 17.9460938,119.478906 16.1613281,116.795703 C14.5820313,114.421484 13.3347656,112.546094 13.3347656,108.444531 C13.3347656,104.342969 14.5820313,102.467578 16.1613281,100.093359 C17.9460938,97.4101562 19.9691406,94.3691406 19.9691406,88.4964844 C19.9691406,82.6242187 17.9460938,79.5832031 16.1613281,76.9003906 C14.5820313,74.5261719 13.3347656,72.6507812 13.3347656,68.5496094 C13.3347656,64.4484375 14.5820313,62.5730469 16.1613281,60.1988281 C17.9460938,57.5160156 19.9691406,54.475 19.9691406,48.5882812 C19.9691406,39.7652344 23.1230469,31.3289062 28.8503906,24.8339844 C39.4839844,12.7753906 54.7957031,5.859375 70.8597656,5.859375 C87.7304688,5.859375 103.537891,13.3589844 114.228125,26.4347656 C119.266797,32.5976562 122.100781,40.4839844 122.207813,48.6410156 C122.208594,48.7179687 122.212891,48.7941406 122.219531,48.8691406 C122.279687,54.5671875 124.267969,57.5566406 126.025781,60.1984375 C127.605078,62.5726562 128.852344,64.4480469 128.852344,68.5492187 C128.852344,72.6503906 127.605078,74.5257812 126.025781,76.9 C124.241016,79.5828125 122.217969,82.6238281 122.217969,88.4960937 C122.217969,94.36875 124.241016,97.4097656 126.025781,100.092969 C127.605078,102.467578 128.852344,104.342578 128.852344,108.444141 C128.852344,112.545703 127.605078,114.421094 126.025781,116.795312 C124.241016,119.478516 122.217969,122.519141 122.217969,128.391797 C122.217969,134.264844 124.241016,137.30625 126.025391,139.989453 C127.605078,142.364453 128.852344,144.239844 128.852344,148.342187 C128.852344,148.866406 128.830859,149.371094 128.789453,149.842578 C128.583203,152.178516 127.883984,154.377344 126.801563,156.346484 C125.338672,154.776172 123.783203,153.279687 122.136328,151.863672 C109.295313,140.823047 95.5058594,135.910547 90.1738281,134.310937 C89.3011719,134.048828 88.3683594,133.849219 87.5035156,133.658594 C85.628125,133.244922 84.8570313,130.785547 84.5726563,128.509375 C91.5953125,126.349609 98.0300781,122.496094 103.372656,117.153516 C110.802734,109.723047 115.469531,99.8949219 116.512891,89.4800781 C116.665625,87.9585937 116.742969,86.4089844 116.742969,84.8738281 L116.742969,61.2257812 C116.742969,59.6191406 115.448828,58.3121094 113.842188,58.2960937 C99.9667969,58.1597656 80.5417969,56.0175781 66.7921875,46.5882812 C64.8324219,45.2441406 62.9769531,43.7414062 61.2925781,42.0636719 C60.1519531,40.9273437 59.0890625,39.7140625 58.1441406,38.409375 C57.1609375,37.0519531 56.6101563,34.8574219 55.1058594,33.9792969 C53.815625,33.2269531 52.025,33.6632812 51.2105469,34.8714844 C50.803125,35.4757812 50.696875,36.2917969 50.6160156,36.9964844 C50.3796875,39.0570312 50.1277344,40.9421875 49.415625,42.9195312 C48.4707031,45.5433594 46.9808594,47.9457031 45.0609375,49.9671875 C43.9464844,51.1402344 43.9949219,52.9945312 45.1675781,54.1089844 C45.734375,54.6472656 46.4601563,54.9144531 47.1847656,54.9144531 C47.9597656,54.9144531 48.7335938,54.6085937 49.309375,54.0023437 C52.0261719,51.1417969 53.9902344,47.8421875 55.1929688,44.1453125 C61.7046875,51.7023437 77.0878906,63.1546875 110.883203,64.1003906 L110.883203,76.2050781 C110.016406,77.2980469 107.961328,79.6433594 104.501953,82.19375 C100.135938,85.4132812 92.5738281,89.6242187 81.3441406,91.4042969 C74.5417969,92.4824219 67.6441406,92.4824219 60.8417969,91.4042969 C42.1953125,88.4492187 33.35625,78.771875 31.3027344,76.2019531 L31.3027344,63.6617187 C32.8019531,63.3253906 34.8386719,62.7742187 37.103125,61.9007812 C38.6125,61.3183594 39.3644531,59.6226562 38.7820313,58.1128906 C38.2003906,56.6035156 36.5046875,55.8519531 34.9945313,56.4339844 C31.1382813,57.9214844 28.0523438,58.3132812 28.0273438,58.3164062 C26.5535156,58.4917969 25.44375,59.7414062 25.44375,61.2253906 L25.44375,84.8734375 C25.44375,86.4085937 25.5210938,87.9582031 25.6738281,89.4789062 C26.7960938,100.678906 32.0175781,111.036719 40.3773438,118.644531 C45.3832031,123.200391 51.2703125,126.538281 57.6160156,128.496094 C57.7398438,128.534375 57.2222656,130.513672 57.1636719,130.703906 C56.9539063,131.382031 56.6722656,132.061719 56.2308594,132.623828 C55.2332031,133.89375 53.4261719,133.885547 51.9851563,134.31875 C46.7097656,135.904687 33.0628906,140.767187 20.3035156,151.647266 C18.5660156,153.128516 16.9308594,154.704687 15.396875,156.358594 C14.3089844,154.386328 13.6046875,152.183203 13.3980469,149.841016 C13.3566406,149.370703 13.3351563,148.866016 13.3351563,148.341797 C13.3347656,144.240234 14.5820313,142.364453 16.1617188,139.989844 L16.1617188,139.989844 Z M63.3734375,129.867578 C65.9058594,130.300391 68.4871094,130.523828 71.09375,130.523828 C73.7082031,130.523828 76.2890625,130.303906 78.815625,129.875781 C78.6980469,129.895703 79.5308594,132.808203 79.6242188,133.065234 C80.4535156,135.348047 81.8722656,137.463672 84.0851563,138.594531 C85.4648438,139.299609 87.0214844,139.482422 88.490625,139.923047 C89.6507813,140.271094 91.2449219,140.790234 93.1527344,141.508203 L93.1527344,163.935547 C93.1527344,165.417578 91.9472656,166.623437 90.4652344,166.623437 L51.7230469,166.623437 C50.2410156,166.623437 49.0355469,165.417578 49.0355469,163.935547 L49.0355469,141.508984 C50.934375,140.794141 52.5195313,140.276953 53.6722656,139.930469 C54.2957031,139.742969 54.9660156,139.596094 55.675,139.440234 C60.3519531,138.411719 62.6625,134.323828 63.3734375,129.867578 L63.3734375,129.867578 Z M44.3210938,114.311328 C37.0339844,107.679297 32.4820313,98.6535156 31.5042969,88.8949219 C31.3707031,87.5675781 31.303125,86.2148437 31.303125,84.8746094 L31.303125,84.5980469 C36.4632813,89.0976562 45.6082031,94.9238281 59.925,97.1929687 C67.3355469,98.3671875 74.8511719,98.3675781 82.2617188,97.1929687 C96.5785156,94.9238281 105.723828,89.0976562 110.883594,84.5980469 L110.883594,84.8746094 C110.883594,86.2148437 110.816016,87.5675781 110.682422,88.8957031 C109.773828,97.9695312 105.70625,106.533984 99.2292969,113.010937 C91.7148438,120.525781 81.7226563,124.664453 71.09375,124.664453 C61.165625,124.664453 51.6574219,120.987891 44.3210938,114.311328 Z M30.6992188,168.993359 L25.6488281,181.726562 C25.5125,182.070312 25.4425781,182.436719 25.4425781,182.806641 L25.4425781,194.140625 L6.13710938,194.140625 C6.13789063,193.389844 6.15625,192.635547 6.1921875,191.882422 C6.840625,178.299609 13.3695313,165.259766 24.1046875,156.10625 C26.2933594,154.240234 28.5089844,152.565234 30.6992188,151.0625 L30.6992188,168.993359 Z M110.885547,194.140625 L31.3019531,194.140625 L31.3019531,183.366016 L36.3523438,170.632812 C36.4886719,170.289062 36.5585938,169.922656 36.5585938,169.552734 L36.5585938,147.397656 C38.7132813,146.166797 40.9257813,145.023828 43.1757812,143.979297 L43.1757812,163.935156 C43.1757812,168.648047 47.0097656,172.482422 51.7226562,172.482422 L90.4648438,172.482422 C95.1773438,172.482422 99.0117188,168.648047 99.0117188,163.935156 L99.0117188,143.979297 C101.262109,145.023828 103.474609,146.166797 105.628906,147.397656 L105.628906,169.552734 C105.628906,169.922656 105.699219,170.289062 105.835156,170.632812 L110.885547,183.366016 L110.885547,194.140625 Z" id="Shape"></path>
            </g>
        </g>
    </g>
</svg>