<?xml version="1.0" encoding="UTF-8"?>
<svg width="161px" height="200px" viewBox="0 0 161 200" version="1.1" xmlns="http://www.w3.org/2000/svg" xmlns:xlink="http://www.w3.org/1999/xlink">
    <!-- Generator: Sketch 53.2 (72643) - https://sketchapp.com -->
    <title>001-first</title>
    <desc>Created with Sketch.</desc>
    <g id="Page-1" stroke="none" stroke-width="1" fill="none" fill-rule="evenodd">
        <g id="Artboard" transform="translate(-1362.000000, -382.000000)" fill="#4A7CB2" fill-rule="nonzero">
            <g id="001-first" transform="translate(1362.000000, 382.000000)">
                <path d="M135.54269,67.7192982 C133.766082,54.460039 127.234698,42.2619883 117.150877,33.37154 C106.974659,24.4 93.8920078,19.4592593 80.3118908,19.4592593 C66.7341131,19.4592593 53.6530214,24.3984405 43.4779727,33.3672515 C33.3949318,42.2545809 26.8623782,54.4499025 25.0830409,67.7060429 C24.8682261,69.3060429 25.991423,70.7777778 27.5918129,70.9925926 C29.1890838,71.2101365 30.6635478,70.0842105 30.8783626,68.4838207 C34.1824561,43.868616 55.4339181,25.3068226 80.3118908,25.3068226 C105.195712,25.3068226 126.447953,43.8740741 129.746979,68.4959064 C129.94386,69.9645224 131.19883,71.0315789 132.641326,71.0315789 C132.77076,71.0315789 132.901365,71.0230019 133.033138,71.0054581 C134.633528,70.7910331 135.757115,69.3196881 135.54269,67.7192982 Z" id="Path"></path>
                <path d="M133.071735,78.837037 C131.467057,78.6389864 130.009357,79.7769981 129.810916,81.3793372 C126.728265,106.2846 105.448343,125.065497 80.3118908,125.065497 C55.157115,125.065497 33.8752437,106.269396 30.808577,81.3438596 C30.611306,79.7415205 29.1551657,78.6015595 27.5497076,78.7992203 C25.9469786,78.9964912 24.8077973,80.4553606 25.0050682,82.0580897 C28.4319688,109.909942 52.208577,130.91306 80.3122807,130.91306 C108.394932,130.91306 132.169591,109.927096 135.614035,82.0978558 C135.812476,80.4951267 134.674074,79.0354776 133.071735,78.837037 Z" id="Path"></path>
                <path d="M97.2304094,93.6249513 L90.6768031,93.6249513 L90.6768031,43.4732943 C90.6768031,41.3957115 88.9867446,39.705653 86.9091618,39.705653 L77.0502924,39.705653 C76.165692,39.705653 75.3052632,40.0187135 74.62846,40.5871345 L56.7165692,55.6187135 C55.1536062,56.9306043 54.9134503,59.217154 56.1699805,60.8245614 L62.0444444,68.3426901 C62.6674464,69.1395712 63.6015595,69.6592593 64.6070175,69.7684211 C65.6136452,69.8775828 66.6362573,69.5699805 67.4155945,68.9247563 L71.497076,65.5454191 L71.497076,93.6245614 L63.2230019,93.6245614 L63.2230019,93.6249513 C61.1454191,93.6249513 59.4553606,95.3153996 59.4553606,97.3925926 L59.4553606,106.333723 C59.4553606,108.411306 61.1454191,110.101365 63.2230019,110.101365 L97.2304094,110.101365 C99.3079922,110.101365 100.998051,108.410916 100.998051,106.333723 L100.998051,97.3925926 C100.998051,95.3150097 99.3079922,93.6249513 97.2304094,93.6249513 Z M95.1508772,104.254581 L65.3033138,104.254581 L65.3033138,99.4729045 L73.5773879,99.4729045 C75.6549708,99.4729045 77.3450292,97.782846 77.3450292,95.7052632 L77.3450292,61.1235867 C77.3446394,59.6483431 76.5157895,58.3419103 75.1808967,57.71423 C73.845614,57.0861598 72.3111111,57.2803119 71.174269,58.2214425 L65.3345029,63.0565302 L62.0140351,58.8074074 L77.8074074,45.5536062 L84.8296296,45.5536062 L84.8296296,95.7052632 C84.8296296,97.782846 86.5196881,99.4729045 88.597271,99.4729045 L95.1508772,99.4729045 L95.1508772,104.254581 Z" id="Shape"></path>
                <path d="M159.603509,167.290448 L133.260429,126.0846 C136.225731,125.470175 138.899415,123.795322 140.740741,121.357115 C142.863548,118.546199 143.710331,114.947758 143.063548,111.48538 C142.516179,108.554386 143.998051,105.578558 146.667057,104.248733 C149.819883,102.678363 152.180897,99.834308 153.145029,96.4463938 C154.108772,93.0584795 153.59883,89.397271 151.745029,86.4019493 C150.175828,83.8666667 150.482651,80.5567251 152.490838,78.3528265 C154.863158,75.7493177 156.037817,72.2444444 155.712671,68.737232 C155.387524,65.2296296 153.589474,62.0003899 150.778558,59.8768031 C148.39922,58.0795322 147.489669,54.8822612 148.566472,52.1013645 C149.838207,48.8163743 149.667057,45.1243665 148.097076,41.9707602 C146.527096,38.8175439 143.683431,36.4561404 140.295517,35.4912281 C137.42768,34.6744639 135.424172,32.0218324 135.423782,29.0401559 C135.423002,25.5177388 133.929435,22.1364522 131.326316,19.7633528 C128.723197,17.3902534 125.217934,16.2155945 121.711111,16.5395712 C118.741131,16.8148148 115.915789,15.0639376 114.837817,12.2838207 C113.564522,8.99922027 110.950487,6.38596491 107.665887,5.11345029 C104.381287,3.84132554 100.688889,4.01130604 97.5356725,5.58089669 C94.8662768,6.90916179 91.5980507,6.29863548 89.5890838,4.09551657 C87.2159844,1.49278752 83.834308,0 80.3118908,0 C76.7894737,0 73.4081871,1.49278752 71.034308,4.09512671 C69.0253411,6.29785575 65.7567251,6.90916179 63.0877193,5.58050682 C59.9341131,4.01091618 56.2421053,3.84093567 52.9575049,5.11306043 C49.6729045,6.38557505 47.0588694,8.99883041 45.785575,12.2834308 C44.7079922,15.0635478 41.8779727,16.8136452 38.9126706,16.5391813 C35.4042885,16.2148148 31.9005848,17.3894737 29.2974659,19.762963 C26.694347,22.1360624 25.2007797,25.5173489 25.2,29.0397661 C25.1996101,32.0214425 23.1961014,34.6744639 20.3282651,35.4908382 C16.9403509,36.4553606 14.0966862,38.817154 12.5267057,41.9703704 C10.9567251,45.1235867 10.785575,48.8159844 12.0573099,52.1009747 C13.1337232,54.8814815 12.2241715,58.0791423 9.84522417,59.8764133 C7.03469786,62 5.23625731,65.2292398 4.91111111,68.7368421 C4.58635478,72.2440546 5.76062378,75.7489279 8.13294347,78.3524366 C10.1411306,80.5563353 10.4479532,83.8662768 8.87875244,86.4019493 C7.02495127,89.397271 6.51500975,93.0584795 7.47875244,96.4463938 C8.44288499,99.834308 10.8038986,102.678363 13.9567251,104.248733 C16.625731,105.578558 18.1076023,108.554386 17.5602339,111.48538 C16.9134503,114.948148 17.7602339,118.546199 19.8830409,121.357115 C21.7243665,123.794932 24.3980507,125.470175 27.3633528,126.0846 L1.0202729,167.290448 C0.0506822612,168.807407 0.0280701754,170.706043 0.961013645,172.245614 C1.89395712,173.785185 3.59103314,174.642885 5.38089669,174.48577 L31.0916179,172.223392 L39.8296296,196.509162 C40.4393762,198.203119 41.9290448,199.380117 43.7181287,199.580507 C43.897076,199.60039 44.0752437,199.610526 44.2522417,199.610526 C45.8424951,199.610526 47.3177388,198.811696 48.1902534,197.447173 L80.3118908,147.202339 L112.433138,197.446394 C113.305653,198.811306 114.780507,199.609747 116.37115,199.609747 C116.548148,199.609747 116.726706,199.6 116.905653,199.579727 C118.694737,199.378947 120.184405,198.202339 120.794152,196.507992 L129.532554,172.222222 L155.242885,174.4846 C157.036647,174.641715 158.730214,173.784016 159.663158,172.244834 C160.595712,170.705653 160.573099,168.807018 159.603509,167.290448 Z M7.21676413,168.453801 L32.9001949,128.279532 C33.8140351,129.208577 34.4658869,130.4 34.7165692,131.738791 C35.188694,134.261988 36.4292398,136.563353 38.2253411,138.345419 L19.9348928,167.334503 L7.21676413,168.453801 Z M37.4019493,172.489669 L36.2912281,169.402339 C35.5711501,167.40117 33.588694,166.131774 31.4690058,166.319688 L27.2553606,166.690448 L43.2245614,141.380117 C45.5625731,142.128265 48.0951267,142.188304 50.4927875,141.506433 C52.5161793,140.930994 54.6526316,141.362963 56.2881092,142.555556 L37.4019493,172.489669 Z M44.5337232,192.310721 L39.9130604,179.468226 L60.3083821,147.14269 C62.0093567,148.671735 64.1122807,149.730214 66.3976608,150.157505 C68.1220273,150.479532 69.8803119,150.431189 71.5578947,150.039766 L44.5337232,192.310721 Z M82.1337232,140.784795 C81.9465887,140.74347 81.7555556,140.721248 81.5637427,140.716959 C81.1473684,140.675634 80.7302144,140.647563 80.3118908,140.647563 C79.8939571,140.647563 79.477193,140.675634 79.0608187,140.716959 C78.8678363,140.720858 78.6764133,140.74347 78.488499,140.784795 C76.4471735,141.081092 74.4647173,141.872515 72.7465887,143.169591 C71.2226121,144.319688 69.3489279,144.759454 67.4717349,144.409357 C65.5945419,144.05848 64.0070175,142.97115 63.0011696,141.347368 C62.7883041,141.003899 62.5563353,140.677193 62.3146199,140.360234 C62.2775828,140.311891 62.2401559,140.263938 62.1996101,140.217934 C59.0888889,136.260819 53.8116959,134.483431 48.8927875,135.881871 C47.0561404,136.404288 45.1500975,136.138402 43.5263158,135.132943 C41.9025341,134.127485 40.8148148,132.539961 40.4635478,130.662768 C39.7146199,126.660819 37.0604288,123.355166 33.5239766,121.655361 C33.3430799,121.549708 33.1559454,121.465497 32.9641326,121.402339 C31.8093567,120.9154 30.5734893,120.589474 29.2822612,120.469786 C27.3808967,120.293177 25.6998051,119.356725 24.5489279,117.832749 C23.3980507,116.308772 22.957115,114.435478 23.3079922,112.557895 C24.3321637,107.072125 21.5590643,101.502924 16.5637427,99.014425 C14.8545809,98.162963 13.6253411,96.6822612 13.1025341,94.845614 C12.580117,93.008577 12.845614,91.1025341 13.8506823,89.4787524 C16.7879142,84.7337232 16.2136452,78.5384016 12.4545809,74.4132554 C11.1680312,73.0019493 10.557115,71.1769981 10.7329435,69.2756335 C10.9091618,67.3738791 11.8452242,65.6927875 13.3692008,64.5415205 C17.8218324,61.1773879 19.5247563,55.1933723 17.5095517,49.9890838 C16.819883,48.2081871 16.9091618,46.2861598 17.7606238,44.5766082 C18.6116959,42.8670565 20.0920078,41.6374269 21.9290448,41.1146199 C27.2962963,39.5859649 31.045614,34.6210526 31.0467836,29.0405458 C31.0471735,27.1306043 31.8245614,25.3707602 33.2358674,24.0838207 C34.6471735,22.797271 36.4717349,22.1847953 38.3734893,22.3614035 C43.9325536,22.8764133 49.219883,19.6 51.237037,14.3964912 C51.9274854,12.6159844 53.288499,11.2549708 55.0693957,10.5653021 C56.8499025,9.87563353 58.7727096,9.96413255 60.4818713,10.8152047 C65.4783626,13.3013645 71.5937622,12.1582846 75.354386,8.03508772 C76.6413255,6.62417154 78.4015595,5.84717349 80.311501,5.84717349 C82.2214425,5.84717349 83.9816764,6.62417154 85.268616,8.03508772 C89.0288499,12.1582846 95.1450292,13.3013645 100.141131,10.8152047 C101.850682,9.96452242 103.77271,9.87563353 105.553606,10.5653021 C107.334503,11.2549708 108.695517,12.6159844 109.385575,14.3964912 C111.402729,19.5996101 116.689279,22.8756335 122.249513,22.3614035 C124.150097,22.1847953 125.975049,22.797271 127.386745,24.0838207 C128.798051,25.3707602 129.575439,27.1306043 129.575828,29.0405458 C129.576608,34.6210526 133.325926,39.5859649 138.693567,41.1146199 C140.530214,41.6374269 142.010526,42.8670565 142.861598,44.5766082 C143.71306,46.2861598 143.801949,48.2081871 143.112281,49.9890838 C141.097076,55.1933723 142.8,61.1773879 147.252632,64.5415205 C148.776608,65.6927875 149.712671,67.3738791 149.888889,69.2756335 C150.065107,71.1773879 149.453801,73.0019493 148.167251,74.4132554 C144.408187,78.5384016 143.834308,84.7333333 146.77115,89.4783626 C147.776218,91.1025341 148.041715,93.0081871 147.518908,94.8452242 C146.996491,96.6822612 145.767251,98.1625731 144.0577,99.0140351 C139.062768,101.502534 136.289669,107.072125 137.31384,112.557505 C137.664327,114.435088 137.223782,116.307992 136.072904,117.832359 C134.922027,119.356335 133.240936,120.292788 131.339181,120.469396 C130.046784,120.589474 128.810136,120.915789 127.654191,121.403509 C127.463938,121.466277 127.277973,121.550097 127.098635,121.654581 C123.561793,123.353996 120.906823,126.660039 120.157895,130.662378 C119.806628,132.539571 118.718908,134.127096 117.095127,135.132554 C115.471345,136.138012 113.564912,136.403509 111.728655,135.881871 C106.808577,134.482651 101.530604,136.261209 98.4202729,140.219883 C98.3812865,140.264327 98.3454191,140.310721 98.3095517,140.357115 C98.0670565,140.674854 97.834308,141.002339 97.6206628,141.346979 C96.6152047,142.97076 95.0272904,144.05809 93.1500975,144.408967 C91.2736842,144.759064 89.3996101,144.319688 87.8752437,143.169201 C86.1578947,141.872125 84.1758285,141.081092 82.1337232,140.784795 Z M116.090058,192.310721 L89.062768,150.034308 C90,150.253411 90.9610136,150.369981 91.9282651,150.369981 C92.6939571,150.369981 93.4635478,150.299805 94.2261209,150.157505 C96.511501,149.730214 98.6140351,148.672125 100.31501,147.14308 L120.710721,179.469396 L116.090058,192.310721 Z M129.154776,166.319688 C127.033138,166.132943 125.052632,167.40078 124.332554,169.402729 L123.221442,172.491228 L104.334893,142.556725 C105.97076,141.363743 108.107212,140.931384 110.131384,141.507212 C112.528265,142.188694 115.060819,142.128655 117.39883,141.380897 L133.367251,166.690448 L129.154776,166.319688 Z M140.687719,167.334503 L122.398051,138.346199 C124.194542,136.564133 125.435088,134.262378 125.907602,131.738791 C126.158285,130.4 126.809747,129.208577 127.723587,128.279922 L153.407018,168.453801 L140.687719,167.334503 Z" id="Shape"></path>
            </g>
        </g>
    </g>
</svg>