<?xml version="1.0" encoding="UTF-8"?>
<svg width="202px" height="202px" viewBox="0 0 101 101" version="1.1" xmlns="http://www.w3.org/2000/svg" xmlns:xlink="http://www.w3.org/1999/xlink">
    <!-- Generator: Sketch 53.1 (72631) - https://sketchapp.com -->
    <title>Combined Shape</title>
    <desc>Created with Sketch.</desc>
    <g id="design" stroke="none" stroke-width="1" fill="none" fill-rule="evenodd">
        <g id="catalogue-v2" transform="translate(-567.000000, -492.000000)" fill="#4A7CB2">
            <g id="icons" transform="translate(120.000000, 468.000000)">
                <g id="Group-2">
                    <g id="baseball" transform="translate(406.000000, 0.000000)">
                        <path d="M136.465486,103.147563 C135.140389,103.147563 133.843013,103.683852 132.905768,104.621098 L131.192818,106.334047 L129.868729,104.961822 C118.981912,93.6861452 108.393481,81.8678786 98.2163389,69.6796533 L100.706,67.1889842 L98.4260158,64.907992 L96.1419994,67.1920084 C92.0999229,62.3031598 88.1188341,57.3603799 84.2224226,52.3634167 L81.6778221,54.3460226 C85.6548786,59.4473202 89.7206446,64.4926704 93.8511786,69.4828292 L86.8784139,76.4555939 C74.7128699,66.3807705 62.1997966,56.7313493 49.4029539,47.5889832 C46.4742818,45.5017909 44.7260503,42.1056301 44.7260503,38.5063448 C44.7260503,32.3488502 49.7338502,27.3410503 55.8913448,27.3410503 C59.4886139,27.3410503 62.8867909,29.0892818 64.9787715,32.0169458 C68.8890439,37.4924864 73.0462915,43.1086517 77.6987495,49.1935658 L79.7098331,51.7973899 L82.26149,49.8246126 L80.2562027,47.227593 C75.6324745,41.1761969 71.493876,35.5857372 67.6032608,30.1406905 C64.9079551,26.3682705 60.5291859,24.115 55.8913448,24.115 C47.956889,24.115 41.5,30.571889 41.5,38.5063448 C41.5,43.1441859 43.7515064,47.5229551 47.5256905,50.2182608 C60.1776243,59.2555364 72.550073,68.795583 84.5838128,78.7491869 L82.292992,81.0389997 L84.5739842,83.3199919 L87.0775061,80.81647 C99.2223848,90.9631178 111.010914,101.535924 122.347831,112.480957 L123.719047,113.805046 L122.004081,115.51976 C121.054235,116.470866 120.532563,117.735732 120.532563,119.080486 C120.532563,121.856689 122.789866,124.115 125.565816,124.115 C126.891922,124.115 128.18829,123.577451 129.125535,122.640205 L140.025205,111.740535 C140.97732,110.790689 141.5,109.525571 141.5,108.180816 C141.5,105.404866 139.241689,103.147563 136.465486,103.147563 Z M89.3663108,78.5296814 L95.9224939,71.9732463 C97.1886197,73.4873554 98.4575177,74.9974323 99.7372524,76.5007047 L93.8809164,82.3570407 C92.378652,81.077306 90.8801679,79.7937911 89.3663108,78.5296814 Z M96.3499122,84.4490213 L101.842086,78.9568477 C102.63039,79.8744361 103.41315,80.7968128 104.204479,81.710369 L99.0905807,86.8245194 C98.1770245,86.0311746 97.2662405,85.2375778 96.3499122,84.4490213 Z M101.517994,88.9588386 L106.339806,84.1360181 C107.137183,85.0437779 107.931788,85.9553179 108.733954,86.8580374 L104.237997,91.3539939 C103.335278,90.5515765 102.425754,89.7572237 101.517994,88.9588386 Z M106.664654,93.4890691 L110.883898,89.2698257 C116.34961,95.373389 121.907811,101.363545 127.546658,107.203248 L128.282039,107.965343 L125.353115,110.895023 L124.590264,110.159642 C118.728888,104.502902 112.749568,98.9419284 106.664654,93.4890691 Z M137.745221,109.459543 L126.844543,120.360221 C126.50785,120.694898 126.04137,120.88895 125.565816,120.88895 C124.569599,120.88895 123.757353,120.077712 123.757353,119.080486 C123.757353,118.597121 123.944601,118.143241 124.28709,117.80176 L135.18676,106.90209 C135.524461,106.566405 135.990185,106.372353 136.465486,106.372353 C137.462712,106.372353 138.27395,107.184599 138.27395,108.180816 C138.27395,108.66519 138.086954,109.118062 137.745221,109.459543 Z M52.7905461,32.1794958 L56.0165965,32.1794958 C56.0165965,35.7371985 53.1221985,38.6315965 49.5644958,38.6315965 L49.5644958,35.4055461 C51.3434732,35.4055461 52.7905461,33.9584732 52.7905461,32.1794958 Z M62.4674371,82.1788658 C74.0286479,82.1788658 83.4348742,91.5863521 83.4348742,103.147563 C83.4348742,114.708774 74.0286479,124.115 62.4674371,124.115 C50.9062263,124.115 41.5,114.708774 41.5,103.147563 C41.5,91.5863521 50.9062263,82.1788658 62.4674371,82.1788658 Z M44.7260503,103.147563 C44.7260503,107.410153 46.2391514,111.324206 48.7512418,114.38569 C49.6836991,113.250612 50.4712476,112.01624 51.0904496,110.703995 L49.6511891,110.179299 L50.754765,107.147301 L52.1940255,107.670989 C52.4450329,106.719883 52.62598,105.748363 52.7156975,104.759958 L51.1768909,104.759958 L51.1768909,101.533908 L52.7177137,101.533908 C52.6269881,100.545503 52.4450329,99.5749913 52.1950335,98.6228767 L50.7565291,99.146817 L49.6532053,96.1145665 L51.0922137,95.5908783 C50.4740197,94.2776256 49.6854632,93.0452698 48.7532579,91.9081759 C46.2391514,94.9696601 44.7260503,98.8839648 44.7260503,103.147563 Z M62.4674371,120.88895 C67.247919,120.88895 71.5833415,118.979176 74.7768819,115.898791 C73.8013299,114.625861 72.9870678,113.253636 72.3325836,111.809587 L70.7436259,112.387459 L69.6400501,109.356217 L71.2131308,108.784393 C70.8499764,107.475929 70.6206423,106.12941 70.5163079,104.761974 L68.8288122,104.761974 L68.8288122,101.535924 L70.5163079,101.535924 C70.6206423,100.16748 70.8479603,98.8199529 71.2131308,97.5135045 L69.6400501,96.9406733 L70.7436259,93.909431 L72.3325836,94.4873025 C72.9870678,93.0422456 73.8013299,91.6710293 74.7768819,90.3991071 C71.5833415,87.3146895 67.247919,85.4049161 62.4674371,85.4049161 C58.1113493,85.4049161 54.122448,86.9888335 51.032234,89.6034942 C52.2953357,91.0921498 53.3308674,92.7340307 54.1254722,94.4852864 L55.7141779,93.909431 L56.8177537,96.9424374 L55.244673,97.5145126 C55.6078273,98.8209609 55.8374135,100.16748 55.9417479,101.535924 L57.6289916,101.535924 L57.6289916,104.761974 L55.9417479,104.761974 C55.8374135,106.127394 55.6098435,107.475929 55.244673,108.782377 L56.8177537,109.355209 L55.7141779,112.387459 L54.1254722,111.808579 C53.3308674,113.557819 52.2953357,115.201968 51.032234,116.690372 C54.122448,119.305032 58.1113493,120.88895 62.4674371,120.88895 Z M76.9338825,113.382668 C78.9883128,110.487514 80.2100839,106.960053 80.2100839,103.147563 C80.2100839,99.3338125 78.9883128,95.8066036 76.9356466,92.9111976 C76.3343376,93.7617499 75.8076252,94.6546408 75.3676062,95.5908783 L76.8048505,96.1135585 L75.7012747,99.1458089 L74.2640303,98.6228767 C74.0130229,99.5749913 73.8318238,100.545503 73.7423583,101.533908 L75.2788967,101.533908 L75.2788967,104.759958 L73.7403421,104.759958 C73.8308157,105.748363 74.0130229,106.719883 74.2630223,107.670989 L75.7002666,107.148309 L76.8028344,110.181315 L75.3655901,110.703995 C75.8066172,111.637209 76.3323215,112.532116 76.9338825,113.382668 Z" id="Combined-Shape"></path>
                    </g>
                </g>
            </g>
        </g>
    </g>
</svg>