<?xml version="1.0" encoding="UTF-8"?>
<svg width="127px" height="200px" viewBox="0 0 127 200" version="1.1" xmlns="http://www.w3.org/2000/svg" xmlns:xlink="http://www.w3.org/1999/xlink">
    <!-- Generator: Sketch 53.2 (72643) - https://sketchapp.com -->
    <title>031-hoop</title>
    <desc>Created with Sketch.</desc>
    <g id="Page-1" stroke="none" stroke-width="1" fill="none" fill-rule="evenodd">
        <g id="031-hoop" fill="#4A7CB2" fill-rule="nonzero">
            <path d="M20,166.666667 L20,180 L0,180 L0,200 L126.666667,200 L126.666667,180 L106.666667,180 L106.666667,166.666667 L76.6666667,166.666667 L76.6666667,106.666667 L82.7333333,106.666667 L89.4,73.3333333 L120,73.3333333 L120,30 C119.98163,13.4390728 106.560927,0.0183704299 90,0 L36.6666667,0 C20.1057394,0.0183704299 6.6850371,13.4390728 6.66666667,30 L6.66666667,73.3333333 L37.2666667,73.3333333 L43.9333333,106.666667 L50,106.666667 L50,166.666667 L20,166.666667 Z M120,186.666667 L120,193.333333 L6.66666667,193.333333 L6.66666667,186.666667 L120,186.666667 Z M77.2666667,100 L76.6666667,100 L76.6666667,90 L79.2666667,90 L77.2666667,100 Z M80.6,83.3333333 L76.6666667,83.3333333 L76.6666667,73.3333333 L82.6,73.3333333 L80.6,83.3333333 Z M20,30 L20,66.6666667 L13.3333333,66.6666667 L13.3333333,30 C13.3480288,17.1194478 23.7861145,6.68136212 36.6666667,6.66666667 L90,6.66666667 C102.880552,6.68136212 113.318638,17.1194478 113.333333,30 L113.333333,66.6666667 L106.666667,66.6666667 L106.666667,30 C106.655646,20.7998228 99.2001772,13.3443537 90,13.3333333 L36.6666667,13.3333333 C27.4664895,13.3443537 20.0110204,20.7998228 20,30 Z M36.6666667,26.6666667 L36.6666667,66.6666667 L26.6666667,66.6666667 L26.6666667,30 C26.6666667,24.4771525 31.1438192,20 36.6666667,20 L90,20 C95.5228475,20 100,24.4771525 100,30 L100,66.6666667 L90,66.6666667 L90,26.6666667 L36.6666667,26.6666667 Z M43.3333333,66.6666667 L43.3333333,33.3333333 L60,33.3333333 L60,40 L66.6666667,40 L66.6666667,33.3333333 L83.3333333,33.3333333 L83.3333333,66.6666667 L43.3333333,66.6666667 Z M60,90 L60,100 L56.6666667,100 L56.6666667,90 L60,90 Z M56.6666667,83.3333333 L56.6666667,73.3333333 L60,73.3333333 L60,83.3333333 L56.6666667,83.3333333 Z M70,106.666667 L70,166.666667 L56.6666667,166.666667 L56.6666667,106.666667 L70,106.666667 Z M66.6666667,100 L66.6666667,90 L70,90 L70,100 L66.6666667,100 Z M66.6666667,83.3333333 L66.6666667,73.3333333 L70,73.3333333 L70,83.3333333 L66.6666667,83.3333333 Z M44.0666667,73.3333333 L50,73.3333333 L50,83.3333333 L46.0666667,83.3333333 L44.0666667,73.3333333 Z M49.4,100 L47.4,90 L50,90 L50,100 L49.4,100 Z M100,173.333333 L100,180 L26.6666667,180 L26.6666667,173.333333 L100,173.333333 Z" id="Shape"></path>
        </g>
    </g>
</svg>