<?xml version="1.0" encoding="UTF-8"?>
<svg width="166px" height="198px" viewBox="0 0 166 198" version="1.1" xmlns="http://www.w3.org/2000/svg" xmlns:xlink="http://www.w3.org/1999/xlink">
    <!-- Generator: Sketch 53.2 (72643) - https://sketchapp.com -->
    <title>008-camouflage</title>
    <desc>Created with Sketch.</desc>
    <g id="Page-1" stroke="none" stroke-width="1" fill="none" fill-rule="evenodd">
        <g id="Artboard" transform="translate(-1547.000000, -695.000000)" fill="#4A7CB2" fill-rule="nonzero">
            <g id="008-camouflage" transform="translate(1547.000000, 693.000000)">
                <polygon id="Path" points="120.634921 161.904762 126.984127 161.904762 126.984127 168.253968 120.634921 168.253968"></polygon>
                <polygon id="Path" points="82.5396825 161.904762 88.8888889 161.904762 88.8888889 168.253968 82.5396825 168.253968"></polygon>
                <polygon id="Path" points="44.4444444 161.904762 50.7936508 161.904762 50.7936508 168.253968 44.4444444 168.253968"></polygon>
                <path d="M151.314286,114.025397 C146.733333,110.206349 141.238095,107.479365 135.422222,106.136508 L104.193651,98.9301587 L102.085714,90.4984127 C104.368254,88.9555556 106.457143,87.0857143 108.228571,84.8698413 C109.587302,83.1714286 110.720635,81.3174603 111.638095,79.3650794 L114.285714,79.3650794 C121.288889,79.3650794 126.984127,73.6698413 126.984127,66.6666667 C126.984127,64.1714286 126.234921,61.8603175 124.987302,59.8952381 C126.025397,55.8730159 126.660317,51.7650794 126.873016,47.6190476 L132.120635,47.6190476 L125.177778,33.7333333 C134.726984,30.5777778 139.68254,21.5936508 139.68254,12.6984127 L139.68254,9.52380952 L136.507937,9.52380952 C130.514286,9.52380952 125.819048,10.5365079 122.07619,12.0984127 C119.984127,7.63174603 116.704762,4.27936508 116.530159,4.1047619 L115.142857,2.71746032 L113.279365,3.33650794 C113.171429,3.37142857 112.492063,3.61269841 111.533333,4.08253968 C109.844444,3.48253968 108.073016,3.17460317 106.250794,3.17460317 L65.1777778,3.17460317 C57.1873016,3.17460317 50.4190476,9.15238095 49.4285714,17.0793651 L47.7111111,30.8126984 L39.4412698,47.352381 C36.415873,39.6190476 30.6603175,35.6730159 30.3333333,35.4539683 L28.5714286,34.2793651 L26.8095238,35.4539683 C26.3650794,35.752381 15.8730159,42.9111111 15.8730159,57.1428571 C15.8730159,65.784127 22.0095238,70.1460317 25.3968254,71.8952381 L25.3968254,80.7968254 C21.2666667,76.552381 14.4825397,73.015873 3.17460317,73.015873 L0,73.015873 L0,76.1904762 C0,87.2349206 7.63174603,98.4126984 22.2222222,98.4126984 L25.3968254,98.4126984 L25.3968254,110.409524 C23.5460317,111.485714 21.7555556,112.657143 20.1142857,114.025397 C11.3650794,121.31746 6.34920635,132.028571 6.34920635,143.415873 L6.34920635,200 L165.079365,200 L165.079365,143.415873 C165.079365,132.028571 160.063492,121.31746 151.314286,114.025397 Z M22.2222222,92.0634921 C12.8857143,92.0634921 7.9015873,86.0349206 6.66031746,79.5015873 C19.8603175,80.5714286 23.7650794,87.7206349 24.9174603,92.0634921 L22.2222222,92.0634921 Z M108.520635,193.650794 L101,193.650794 C101.35873,192.653968 101.587302,191.593651 101.587302,190.47619 L101.587302,168.253968 L101.587302,155.555556 C101.587302,152.053968 98.7396825,149.206349 95.2380952,149.206349 L95.2380952,133.333333 L104.761905,133.333333 L104.761905,126.984127 L95.2380952,126.984127 L95.2380952,119.980952 C107.174603,118.304762 113.834921,113.673016 117.250794,110.174603 C116.35873,123.907937 112.711111,143.749206 111.542857,149.857143 C109.415873,150.88254 107.936508,153.04127 107.936508,155.555556 L107.936508,168.253968 L107.936508,190.47619 C107.936508,191.593651 108.165079,192.653968 108.520635,193.650794 L108.520635,193.650794 Z M70.4253968,193.650794 L62.9047619,193.650794 C63.2634921,192.653968 63.4920635,191.593651 63.4920635,190.47619 L63.4920635,168.253968 L63.4920635,155.555556 C63.4920635,153.04127 62.0126984,150.88254 59.8857143,149.857143 C59.3142857,146.866667 58.152381,140.603175 57,133.333333 L69.8412698,133.333333 L69.8412698,126.984127 L56.0380952,126.984127 C55.2095238,121.203175 54.5079365,115.27619 54.1777778,110.177778 C57.5936508,113.67619 64.2507937,118.307937 76.1904762,119.984127 L76.1904762,139.68254 L63.4920635,139.68254 L63.4920635,146.031746 L76.1904762,146.031746 L76.1904762,149.206349 C72.6888889,149.206349 69.8412698,152.053968 69.8412698,155.555556 L69.8412698,168.253968 L69.8412698,190.47619 C69.8412698,191.593651 70.0698413,192.653968 70.4253968,193.650794 L70.4253968,193.650794 Z M69.2349206,104.984127 C71.215873,106.079365 75.1873016,107.52381 82.5396825,107.857143 L82.5396825,114.2 C70.4888889,113.647619 63.7269841,110.019048 60.184127,107.073016 L69.2349206,104.984127 Z M88.8888889,149.206349 L82.5396825,149.206349 L82.5396825,120.546032 C83.5777778,120.590476 84.6126984,120.634921 85.7142857,120.634921 C86.815873,120.634921 87.8507937,120.590476 88.8888889,120.546032 L88.8888889,149.206349 Z M40.5396825,149.206349 C40.1619048,147.714286 39.6380952,145.533333 39.0571429,142.857143 L52.1428571,142.857143 C52.5809524,145.352381 52.9777778,147.520635 53.2952381,149.206349 L40.5396825,149.206349 Z M50.7777778,134.704762 L41.6984127,123.809524 L49.1873016,123.809524 C49.6698413,127.51746 50.2222222,131.225397 50.7777778,134.704762 Z M47.7968254,109.933333 C47.9365079,112.301587 48.1587302,114.838095 48.4380952,117.460317 L35.2984127,117.460317 C35.1904762,115.993651 35.1079365,114.514286 35.0444444,113.025397 C35.8349206,112.774603 36.6222222,112.511111 37.431746,112.32381 L47.7968254,109.933333 Z M44.015873,136.507937 L37.7936508,136.507937 C37.2761905,133.68254 36.7714286,130.574603 36.3301587,127.28254 L44.015873,136.507937 Z M38.0952381,155.555556 L57.1428571,155.555556 L57.1428571,168.253968 C57.1428571,171.755556 54.2952381,174.603175 50.7936508,174.603175 L44.4444444,174.603175 C40.9428571,174.603175 38.0952381,171.755556 38.0952381,168.253968 L38.0952381,155.555556 Z M76.1904762,155.555556 L95.2380952,155.555556 L95.2380952,168.253968 C95.2380952,171.755556 92.3904762,174.603175 88.8888889,174.603175 L82.5396825,174.603175 C79.0380952,174.603175 76.1904762,171.755556 76.1904762,168.253968 L76.1904762,155.555556 Z M118.130159,149.206349 C118.447619,147.520635 118.844444,145.352381 119.28254,142.857143 L132.368254,142.857143 C131.790476,145.533333 131.266667,147.714286 130.885714,149.206349 L118.130159,149.206349 Z M122.24127,123.809524 L129.730159,123.809524 L120.650794,134.704762 C121.206349,131.225397 121.75873,127.51746 122.24127,123.809524 Z M114.285714,155.555556 L133.333333,155.555556 L133.333333,168.253968 C133.333333,171.755556 130.485714,174.603175 126.984127,174.603175 L120.634921,174.603175 C117.133333,174.603175 114.285714,171.755556 114.285714,168.253968 L114.285714,155.555556 Z M133.634921,136.507937 L127.412698,136.507937 L135.098413,127.28254 C134.657143,130.574603 134.155556,133.68254 133.634921,136.507937 Z M136.384127,113.025397 C136.320635,114.514286 136.238095,115.993651 136.130159,117.460317 L122.990476,117.460317 C123.269841,114.838095 123.488889,112.301587 123.631746,109.930159 L133.996825,112.320635 C134.806349,112.511111 135.593651,112.774603 136.384127,113.025397 Z M111.244444,107.073016 C107.698413,110.019048 100.933333,113.647619 88.8888889,114.2 L88.8888889,107.857143 C96.2412698,107.52381 100.215873,106.07619 102.193651,104.984127 L111.244444,107.073016 Z M97.9142857,99.9777778 C96.0666667,100.673016 92.368254,101.587302 85.7142857,101.587302 C79.0603175,101.587302 75.3619048,100.673016 73.5142857,99.9777778 L75.1365079,93.4920635 C78.1746032,94.6190476 81.4222222,95.2380952 84.768254,95.2380952 L86.6666667,95.2380952 C90.0126984,95.2380952 93.2571429,94.6222222 96.2984127,93.4920635 L97.9142857,99.9777778 Z M86.6634921,88.8888889 L84.7650794,88.8888889 C78.2666667,88.8888889 72.2126984,85.9777778 68.152381,80.9015873 C67.7650794,80.4190476 67.4666667,79.8793651 67.1238095,79.3650794 L73.015873,79.3650794 C76.5174603,79.3650794 79.3650794,76.5174603 79.3650794,73.015873 L79.3650794,66.6666667 C79.3650794,63.1650794 76.5174603,60.3174603 73.015873,60.3174603 L63.4920635,60.3174603 L63.4920635,47.6190476 L107.936508,47.6190476 L107.936508,60.3174603 L98.4126984,60.3174603 C94.9111111,60.3174603 92.0634921,63.1650794 92.0634921,66.6666667 L92.0634921,73.015873 C92.0634921,76.5174603 94.9111111,79.3650794 98.4126984,79.3650794 L104.304762,79.3650794 C103.961905,79.8793651 103.663492,80.4190476 103.273016,80.9047619 C99.215873,85.9777778 93.1619048,88.8888889 86.6634921,88.8888889 L86.6634921,88.8888889 Z M50.4793651,79.5015873 C49.2412698,86.0349206 44.2539683,92.0634921 34.9206349,92.0634921 L32.2349206,92.0634921 C33.4,87.7777778 37.3142857,80.584127 50.4793651,79.5015873 Z M52.7555556,34.9206349 L117.460317,34.9206349 C117.866667,34.9206349 118.266667,34.9111111 118.660317,34.8952381 L121.847619,41.2698413 L49.5809524,41.2698413 L52.7555556,34.9206349 Z M107.15873,73.015873 L98.4126984,73.015873 L98.4126984,66.6666667 L107.936508,66.6666667 L107.936508,67.6126984 C107.936508,69.4507937 107.622222,71.2539683 107.15873,73.015873 L107.15873,73.015873 Z M63.4920635,67.6126984 L63.4920635,66.6666667 L73.015873,66.6666667 L73.015873,73.015873 L64.2698413,73.015873 C63.8063492,71.2539683 63.4920635,69.4507937 63.4920635,67.6126984 Z M57.1428571,47.6190476 L57.1428571,53.968254 C55.2507937,53.968254 53.4730159,54.4095238 51.8603175,55.1555556 C51.3714286,52.6698413 51.0507937,50.152381 50.9047619,47.6190476 L57.1428571,47.6190476 Z M50.7936508,66.6666667 C50.7936508,63.1650794 53.6412698,60.3174603 57.1428571,60.3174603 L57.1428571,67.6126984 C57.1428571,69.4349206 57.3460317,71.2412698 57.7015873,73.015873 L57.1428571,73.015873 C53.6412698,73.015873 50.7936508,70.168254 50.7936508,66.6666667 Z M114.285714,73.015873 L113.726984,73.015873 C114.08254,71.2412698 114.285714,69.4349206 114.285714,67.6126984 L114.285714,60.3174603 C117.787302,60.3174603 120.634921,63.1650794 120.634921,66.6666667 C120.634921,70.168254 117.787302,73.015873 114.285714,73.015873 Z M119.568254,55.1555556 C117.955556,54.4095238 116.177778,53.968254 114.285714,53.968254 L114.285714,47.6190476 L120.52381,47.6190476 C120.377778,50.152381 120.060317,52.6666667 119.568254,55.1555556 Z M117.460317,28.5714286 L114.774603,28.5714286 C115.936508,24.2857143 119.853968,17.0920635 133.019048,16.0095238 C131.780952,22.5428571 126.793651,28.5714286 117.460317,28.5714286 L117.460317,28.5714286 Z M113.463492,10.2285714 C114.444444,11.4539683 115.711111,13.2507937 116.55873,15.2349206 C112.590476,18.2952381 110.460317,22.0698413 109.304762,25.2412698 C108.539683,23.7396825 107.936508,21.7238095 107.936508,19.047619 C107.936508,14.1904762 111.28254,11.4793651 113.463492,10.2285714 L113.463492,10.2285714 Z M55.7301587,17.8666667 C56.3238095,13.1111111 60.384127,9.52380952 65.1777778,9.52380952 L104.75873,9.52380952 C102.961905,11.8698413 101.587302,14.9746032 101.587302,19.047619 C101.587302,23.1142857 102.590476,26.2253968 103.885714,28.5714286 L54.3904762,28.5714286 L55.7301587,17.8666667 Z M41.2698413,57.1428571 C41.2698413,53.5047619 40.5809524,50.3365079 39.552381,47.6190476 L44.5555556,47.6190476 C44.768254,51.7650794 45.4031746,55.8730159 46.4412698,59.8952381 C45.1936508,61.8603175 44.4444444,64.1714286 44.4444444,66.6666667 C44.4444444,69.247619 45.2285714,71.647619 46.5555556,73.6539683 C39.568254,74.8253968 34.8698413,77.5873016 31.7460317,80.7968254 L31.7460317,71.8952381 C35.1333333,70.1460317 41.2698413,65.784127 41.2698413,57.1428571 Z M22.2222222,57.1428571 C22.2222222,49.4825397 26.1777778,44.5174603 28.568254,42.2190476 C30.952381,44.5206349 34.9206349,49.4984127 34.9206349,57.1428571 C34.9206349,62.6603175 30.6031746,65.4095238 28.5714286,66.4 C26.5396825,65.4095238 22.2222222,62.6603175 22.2222222,57.1428571 Z M31.7460317,98.4126984 L34.9206349,98.4126984 C48.1174603,98.4126984 55.6,89.2603175 56.9142857,79.3428571 C56.9904762,79.3428571 57.0634921,79.3650794 57.1428571,79.3650794 L59.7873016,79.3650794 C60.7047619,81.3174603 61.8349206,83.1714286 63.1936508,84.8698413 C64.968254,87.0888889 67.0571429,88.9555556 69.3396825,90.4984127 L67.231746,98.9301587 L36.0031746,106.136508 C34.5587302,106.469841 33.1365079,106.888889 31.7428571,107.390476 L31.7428571,98.4126984 L31.7460317,98.4126984 Z M15.8730159,149.206349 C17.6253968,149.206349 19.047619,150.631746 19.047619,152.380952 L19.047619,165.079365 C19.047619,166.828571 17.6253968,168.253968 15.8730159,168.253968 L12.6984127,168.253968 L12.6984127,149.206349 L15.8730159,149.206349 Z M12.6984127,187.301587 L19.047619,187.301587 L19.047619,180.952381 L12.6984127,180.952381 L12.6984127,174.603175 L15.8730159,174.603175 C21.1238095,174.603175 25.3968254,170.330159 25.3968254,165.079365 L25.3968254,152.380952 C25.3968254,147.130159 21.1238095,142.857143 15.8730159,142.857143 L12.7301587,142.857143 C12.768254,140.701587 13,138.574603 13.4539683,136.507937 L19.047619,136.507937 L19.047619,130.15873 L15.5904762,130.15873 C17.552381,125.866667 20.4539683,122.009524 24.1809524,118.901587 C25.6190476,117.704762 27.1904762,116.68254 28.815873,115.755556 C28.9777778,118.501587 29.2095238,121.193651 29.4952381,123.809524 L22.2222222,123.809524 L22.2222222,130.15873 L30.2952381,130.15873 C31.6063492,139.238095 33.3365079,146.673016 34.3079365,150.488889 C32.7619048,151.650794 31.7460317,153.479365 31.7460317,155.555556 L31.7460317,168.253968 L31.7460317,174.603175 L25.3968254,174.603175 L25.3968254,180.952381 L31.7460317,180.952381 L31.7460317,190.47619 C31.7460317,191.593651 31.9746032,192.653968 32.3301587,193.650794 L12.6984127,193.650794 L12.6984127,187.301587 Z M41.2698413,193.650794 C39.5174603,193.650794 38.0952381,192.225397 38.0952381,190.47619 L38.0952381,179.187302 C39.9714286,180.279365 42.1206349,180.952381 44.4444444,180.952381 L50.7936508,180.952381 C53.1174603,180.952381 55.2666667,180.279365 57.1428571,179.187302 L57.1428571,190.47619 C57.1428571,192.225397 55.7206349,193.650794 53.968254,193.650794 L41.2698413,193.650794 Z M79.3650794,193.650794 C77.6126984,193.650794 76.1904762,192.225397 76.1904762,190.47619 L76.1904762,179.187302 C78.0666667,180.279365 80.215873,180.952381 82.5396825,180.952381 L88.8888889,180.952381 C91.2126984,180.952381 93.3619048,180.279365 95.2380952,179.187302 L95.2380952,190.47619 C95.2380952,192.225397 93.815873,193.650794 92.0634921,193.650794 L79.3650794,193.650794 Z M117.460317,193.650794 C115.707937,193.650794 114.285714,192.225397 114.285714,190.47619 L114.285714,179.187302 C116.161905,180.279365 118.311111,180.952381 120.634921,180.952381 L126.984127,180.952381 C129.307937,180.952381 131.457143,180.279365 133.333333,179.187302 L133.333333,190.47619 C133.333333,192.225397 131.911111,193.650794 130.15873,193.650794 L117.460317,193.650794 Z M139.098413,193.650794 C139.453968,192.653968 139.68254,191.593651 139.68254,190.47619 L139.68254,180.952381 L146.031746,180.952381 L146.031746,174.603175 L139.68254,174.603175 L139.68254,168.253968 L139.68254,155.555556 C139.68254,153.479365 138.666667,151.650794 137.120635,150.488889 C138.092063,146.669841 139.822222,139.234921 141.133333,130.15873 L149.206349,130.15873 L149.206349,123.809524 L141.933333,123.809524 C142.219048,121.193651 142.450794,118.498413 142.612698,115.755556 C144.238095,116.68254 145.812698,117.704762 147.247619,118.901587 C150.974603,122.009524 153.879365,125.866667 155.838095,130.15873 L152.380952,130.15873 L152.380952,136.507937 L157.974603,136.507937 C158.431746,138.574603 158.660317,140.701587 158.698413,142.857143 L155.555556,142.857143 C150.304762,142.857143 146.031746,147.130159 146.031746,152.380952 L146.031746,165.079365 C146.031746,170.330159 150.304762,174.603175 155.555556,174.603175 L158.730159,174.603175 L158.730159,180.952381 L152.380952,180.952381 L152.380952,187.301587 L158.730159,187.301587 L158.730159,193.650794 L139.098413,193.650794 Z M158.730159,149.206349 L158.730159,168.253968 L155.555556,168.253968 C153.803175,168.253968 152.380952,166.828571 152.380952,165.079365 L152.380952,152.380952 C152.380952,150.631746 153.803175,149.206349 155.555556,149.206349 L158.730159,149.206349 Z" id="Shape"></path>
                <polygon id="Path" points="101.587302 139.68254 107.936508 139.68254 107.936508 146.031746 101.587302 146.031746"></polygon>
            </g>
        </g>
    </g>
</svg>