<?xml version="1.0" encoding="UTF-8"?>
<svg width="126px" height="195px" viewBox="0 0 126 195" version="1.1" xmlns="http://www.w3.org/2000/svg" xmlns:xlink="http://www.w3.org/1999/xlink">
    <!-- Generator: Sketch 53.2 (72643) - https://sketchapp.com -->
    <title>Group 4</title>
    <desc>Created with Sketch.</desc>
    <g id="Page-1" stroke="none" stroke-width="1" fill="none" fill-rule="evenodd">
        <g id="Group-4" transform="translate(-2.000000, -2.000000)" fill-rule="nonzero">
            <g id="Group-3" transform="translate(64.905660, 100.000000) rotate(-330.000000) translate(-64.905660, -100.000000) translate(57.358491, -3.773585)" fill="#4A7CB2">
                <path d="M11.3207547,7.54716981 L13.5849057,7.54716981 C14.418543,7.54716981 15.0943396,6.87137321 15.0943396,6.03773585 L15.0943396,1.50943396 C15.0943396,0.675796604 14.418543,-5.32907052e-15 13.5849057,-5.32907052e-15 L1.50943396,-5.32907052e-15 C0.675796604,-5.32907052e-15 -8.8817842e-16,0.675796604 -8.8817842e-16,1.50943396 L-8.8817842e-16,6.03773585 C-8.8817842e-16,6.87137321 0.675796604,7.54716981 1.50943396,7.54716981 L3.77358491,7.54716981 L3.77358491,206.037736 C3.77358491,206.871373 4.44938151,207.54717 5.28301887,207.54717 L9.81132075,207.54717 C10.6449581,207.54717 11.3207547,206.871373 11.3207547,206.037736 L11.3207547,7.54716981 Z M15.8490566,206.037736 C15.8490566,209.372285 13.1458702,212.075472 9.81132075,212.075472 L5.28301887,212.075472 C1.94846943,212.075472 -0.754716981,209.372285 -0.754716981,206.037736 L-0.754716981,11.6365909 C-2.96741912,10.7409118 -4.52830189,8.5716057 -4.52830189,6.03773585 L-4.52830189,1.50943396 C-4.52830189,-1.82511547 -1.82511547,-4.52830189 1.50943396,-4.52830189 L13.5849057,-4.52830189 C16.9194551,-4.52830189 19.6226415,-1.82511547 19.6226415,1.50943396 L19.6226415,6.03773585 C19.6226415,8.5716057 18.0617587,10.7409118 15.8490566,11.6365909 L15.8490566,206.037736 Z" id="Combined-Shape"></path>
                <polygon id="Line" points="1.50943396 203.038564 1.50943396 198.510262 13.5849057 198.510262 13.5849057 203.038564"></polygon>
                <polygon id="Line" points="1.50943396 40.0196963 1.50943396 35.4913944 13.5849057 35.4913944 13.5849057 40.0196963"></polygon>
            </g>
            <g id="Group-3" transform="translate(64.905660, 100.000000) rotate(-30.000000) translate(-64.905660, -100.000000) translate(52.830189, -8.301887)">
                <path d="M20.3773585,210.566038 C20.3773585,213.900587 17.6741721,216.603774 14.3396226,216.603774 L9.81132075,216.603774 C6.47677132,216.603774 3.77358491,213.900587 3.77358491,210.566038 L3.77358491,16.1648928 C1.56088276,15.2692137 1.17021696e-13,13.0999076 1.16351373e-13,10.5660377 L1.16351373e-13,6.03773585 C1.1568105e-13,2.70318642 2.70318642,3.44211033e-14 6.03773585,3.37507799e-14 L18.1132075,3.37507799e-14 C21.447757,3.30804566e-14 24.1509434,2.70318642 24.1509434,6.03773585 L24.1509434,10.5660377 C24.1509434,13.0999076 22.5900606,15.2692137 20.3773585,16.1648928 L20.3773585,210.566038 Z" id="Path" fill="#FFFFFF"></path>
                <path d="M15.8490566,12.0754717 L18.1132075,12.0754717 C18.9468449,12.0754717 19.6226415,11.3996751 19.6226415,10.5660377 L19.6226415,6.03773585 C19.6226415,5.20409849 18.9468449,4.52830189 18.1132075,4.52830189 L6.03773585,4.52830189 C5.20409849,4.52830189 4.52830189,5.20409849 4.52830189,6.03773585 L4.52830189,10.5660377 C4.52830189,11.3996751 5.20409849,12.0754717 6.03773585,12.0754717 L8.30188679,12.0754717 L8.30188679,210.566038 C8.30188679,211.399675 8.9776834,212.075472 9.81132075,212.075472 L14.3396226,212.075472 C15.17326,212.075472 15.8490566,211.399675 15.8490566,210.566038 L15.8490566,12.0754717 Z M20.3773585,210.566038 C20.3773585,213.900587 17.6741721,216.603774 14.3396226,216.603774 L9.81132075,216.603774 C6.47677132,216.603774 3.77358491,213.900587 3.77358491,210.566038 L3.77358491,16.1648928 C1.56088276,15.2692137 5.75137422e-14,13.0999076 5.68434189e-14,10.5660377 L5.68434189e-14,6.03773585 C5.61730955e-14,2.70318642 2.70318642,6.70323336e-16 6.03773585,0 L18.1132075,0 C21.447757,-6.70323336e-16 24.1509434,2.70318642 24.1509434,6.03773585 L24.1509434,10.5660377 C24.1509434,13.0999076 22.5900606,15.2692137 20.3773585,16.1648928 L20.3773585,210.566038 Z" id="Combined-Shape" fill="#4A7CB2"></path>
                <polygon id="Line" fill="#4A7CB2" points="6.03773585 207.566866 6.03773585 203.038564 18.1132075 203.038564 18.1132075 207.566866"></polygon>
                <polygon id="Line" fill="#4A7CB2" points="6.03773585 44.5479982 6.03773585 40.0196963 18.1132075 40.0196963 18.1132075 44.5479982"></polygon>
            </g>
            <path d="M64.5283019,196.462264 C54.1746345,196.462264 45.8018868,193.736253 45.8018868,188.679245 C45.8018868,183.622237 54.1746345,180.896226 64.5283019,180.896226 C74.8819693,180.896226 83.254717,183.622237 83.254717,188.679245 C83.254717,193.736253 74.8819693,196.462264 64.5283019,196.462264 Z M51.1019755,188.754582 C51.6626878,189.186197 52.5990532,189.637454 53.8284589,190.037725 C56.5835753,190.93474 60.4142843,191.462264 64.5283019,191.462264 C68.6423195,191.462264 72.4730285,190.93474 75.2281449,190.037725 C76.4575506,189.637454 77.393916,189.186197 77.9546283,188.754582 C77.9884273,188.728565 78.0198377,188.703416 78.0489016,188.679245 C78.0198377,188.655075 77.9884273,188.629925 77.9546283,188.603908 C77.393916,188.172294 76.4575506,187.721037 75.2281449,187.320765 C72.4730285,186.423751 68.6423195,185.896226 64.5283019,185.896226 C60.4142843,185.896226 56.5835753,186.423751 53.8284589,187.320765 C52.5990532,187.721037 51.6626878,188.172294 51.1019755,188.603908 C51.0681764,188.629925 51.0367661,188.655075 51.0077022,188.679245 C51.0367661,188.703416 51.0681764,188.728565 51.1019755,188.754582 Z" id="Oval" fill="#4A7CB2"></path>
        </g>
    </g>
</svg>