<?xml version="1.0" encoding="UTF-8"?>
<svg width="180px" height="200px" viewBox="0 0 180 200" version="1.1" xmlns="http://www.w3.org/2000/svg" xmlns:xlink="http://www.w3.org/1999/xlink">
    <!-- Generator: Sketch 53.2 (72643) - https://sketchapp.com -->
    <title>006-traffic-cone</title>
    <desc>Created with Sketch.</desc>
    <g id="Page-1" stroke="none" stroke-width="1" fill="none" fill-rule="evenodd">
        <g id="006-traffic-cone" fill="#4A7CB2" fill-rule="nonzero">
            <path d="M169.114471,179.697624 L147.501512,179.697624 L109.720518,15.9801296 C107.54946,6.57149028 99.2889849,0 89.6328294,0 C79.9766739,0 71.7161987,6.57149028 69.5451404,15.9801296 L31.7641469,179.697624 L10.1511879,179.697624 C4.5537797,179.697624 0,184.251404 0,189.848812 C0,195.44622 4.5537797,200 10.1511879,200 L169.114471,200 C174.711879,200 179.265659,195.44622 179.265659,189.848812 C179.265659,184.251404 174.711879,179.697624 169.114471,179.697624 Z M56.8557235,99.7831533 C56.862635,99.7831533 56.8691145,99.7840173 56.875594,99.7840173 L122.390065,99.7840173 C122.396976,99.7840173 122.403456,99.7831533 122.409935,99.7831533 L124.104968,107.12743 L55.1606911,107.12743 L56.8557235,99.7831533 Z M116.130454,72.5701944 L63.1352052,72.5701944 L64.8298056,65.2267819 L114.435421,65.2267819 L116.130454,72.5701944 Z M61.6401728,79.049676 L117.625486,79.049676 L120.914903,93.3045356 L58.3507559,93.3045356 L61.6401728,79.049676 Z M75.8583153,17.437149 C77.3477322,10.9857451 83.0116631,6.47948164 89.6328294,6.47948164 C96.2539957,6.47948164 101.917927,10.9857451 103.407343,17.437149 L112.940389,58.7473002 L66.32527,58.7473002 L75.8583153,17.437149 Z M53.6652268,113.606911 L125.6,113.606911 L140.851836,179.697624 L38.4138229,179.697624 L53.6652268,113.606911 Z M169.114471,193.520518 L10.1511879,193.520518 C8.12656587,193.520518 6.47948164,191.873434 6.47948164,189.848812 C6.47948164,187.82419 8.12656587,186.177106 10.1511879,186.177106 L144.911447,186.177106 C144.914903,186.177106 144.917927,186.17797 144.921382,186.17797 C144.926134,186.17797 144.931317,186.177106 144.936069,186.177106 L169.114471,186.177106 C171.139093,186.177106 172.786177,187.82419 172.786177,189.848812 C172.786177,191.873434 171.139093,193.520518 169.114471,193.520518 Z" id="Shape"></path>
        </g>
    </g>
</svg>