<?xml version="1.0" encoding="UTF-8"?>
<svg width="155px" height="200px" viewBox="0 0 155 200" version="1.1" xmlns="http://www.w3.org/2000/svg" xmlns:xlink="http://www.w3.org/1999/xlink">
    <!-- Generator: Sketch 53.2 (72643) - https://sketchapp.com -->
    <title>001-lanyard</title>
    <desc>Created with Sketch.</desc>
    <g id="Page-1" stroke="none" stroke-width="1" fill="none" fill-rule="evenodd">
        <g id="001-lanyard" fill="#4A7CB2" fill-rule="nonzero">
            <path d="M111.866406,184.626172 C110.248438,184.626172 108.936719,185.937891 108.936719,187.555859 C108.936719,191.186719 105.982812,194.140625 102.351953,194.140625 L47.4480469,194.140625 C43.8171875,194.140625 40.8632813,191.186719 40.8632813,187.555859 L40.8632813,117.069531 C40.8632813,115.451562 39.5515625,114.139844 37.9335938,114.139844 C36.315625,114.139844 35.0039063,115.451562 35.0039063,117.069531 L35.0039063,187.555859 C35.0039063,194.417578 40.5863281,200 47.4480469,200 L102.351562,200 C109.213281,200 114.795703,194.417578 114.795703,187.555859 C114.796094,185.9375 113.484375,184.626172 111.866406,184.626172 Z" id="Path"></path>
            <path d="M74.9,131.865234 C66.9960938,131.865234 60.5660156,138.294141 60.5660156,146.196484 C60.5660156,154.098828 66.9960938,160.527734 74.9,160.527734 C82.8039063,160.527734 89.234375,154.098828 89.234375,146.196484 C89.234375,138.294141 82.8042969,131.865234 74.9,131.865234 Z M74.9,154.668359 C70.2269531,154.668359 66.4253906,150.867969 66.4253906,146.196484 C66.4253906,141.525 70.2269531,137.724609 74.9,137.724609 C79.5730469,137.724609 83.375,141.525 83.375,146.196484 C83.375,150.867969 79.5730469,154.668359 74.9,154.668359 Z" id="Shape"></path>
            <path d="M83.3660156,103.139062 L66.4335938,103.139062 C64.815625,103.139062 63.5039062,104.450781 63.5039062,106.06875 C63.5039062,107.686719 64.815625,108.998437 66.4335938,108.998437 L83.3660156,108.998437 C84.9839844,108.998437 86.2957031,107.686719 86.2957031,106.06875 C86.2957031,104.450781 84.9839844,103.139062 83.3660156,103.139062 Z" id="Path"></path>
            <path d="M126.985547,0 L110.483984,0 L82.4800781,0 C80.8621094,0 79.5503906,1.31171875 79.5503906,2.9296875 C79.5503906,4.54765625 80.8621094,5.859375 82.4800781,5.859375 L110.483984,5.859375 C122.488672,5.859375 132.255469,15.6234375 132.255469,27.6246094 C132.255469,39.6257813 122.488672,49.3898437 110.483984,49.3898437 C110.483984,49.3898437 100.539844,49.3886719 100.352734,49.3886719 L85.1492188,49.3886719 C81.5152344,49.3886719 78.0074219,50.3238281 74.8910156,52.1015625 C71.8671875,50.3792969 68.3738281,49.3898437 64.6519531,49.3898437 L50.5367188,49.3898437 L44.203125,49.3898437 C32.1984375,49.3898437 22.4316406,39.6257813 22.4316406,27.6246094 C22.4316406,15.6234375 32.1984375,5.859375 44.2035156,5.859375 L69.2171875,5.859375 C70.8351562,5.859375 72.146875,4.54765625 72.146875,2.9296875 C72.146875,1.31171875 70.8351562,0 69.2171875,0 L44.2035156,0 L27.7019531,0 C12.4664063,0 0.07109375,12.3925781 0.07109375,27.6246094 C0.07109375,42.8566406 12.4664063,55.2492187 27.7019531,55.2492187 L44.2035156,55.2492187 L49.4460938,55.2492187 C57.6609375,55.2492187 64.3441406,61.9304687 64.3441406,70.1425781 L64.3441406,92.3921875 L47.4484375,92.3921875 C40.5867188,92.3921875 35.0042969,97.9746094 35.0042969,104.836328 C35.0042969,106.454297 36.3160156,107.766016 37.9339844,107.766016 C39.5519531,107.766016 40.8636719,106.454297 40.8636719,104.836328 C40.8636719,101.205469 43.8175781,98.2515625 47.4484375,98.2515625 L67.2738281,98.2515625 L67.31875,98.2515625 L82.4800781,98.2515625 L82.5265625,98.2515625 L102.351953,98.2515625 C105.982813,98.2515625 108.936719,101.205469 108.936719,104.836328 L108.936719,173.439844 C108.936719,175.057812 110.248438,176.369531 111.866406,176.369531 C113.484375,176.369531 114.796094,175.057812 114.796094,173.439844 L114.796094,104.837109 C114.796094,97.9753906 109.213672,92.3929687 102.351953,92.3929687 L85.45625,92.3929687 L85.45625,70.1445312 C85.45625,66.1621094 87.0054688,62.421875 89.8203125,59.6117188 C92.6347656,56.7980469 96.375,55.2484375 100.352734,55.2484375 C100.537109,55.2484375 110.483984,55.2496094 110.483984,55.2496094 L126.985547,55.2496094 C142.221094,55.2496094 154.616406,42.8570312 154.616406,27.625 C154.616406,12.3929687 142.221094,0 126.985547,0 Z M5.93046875,27.6246094 C5.93046875,15.7917969 15.4257813,6.13359375 27.1988281,5.86484375 C20.7351563,10.9257812 16.5726563,18.7988281 16.5726563,27.6246094 C16.5726563,36.4503906 20.7347656,44.3234375 27.1988281,49.384375 C15.4257813,49.115625 5.93046875,39.4578125 5.93046875,27.6246094 Z M79.5503906,92.3925781 L70.2035156,92.3925781 L70.2035156,70.1429688 C70.2035156,64.30625 67.7800781,59.0238281 63.8875,55.2496094 L64.6523437,55.2496094 C72.8671875,55.2496094 79.5503906,61.9308594 79.5503906,70.1429688 L79.5503906,92.3925781 Z M85.6785156,55.4664062 C84.4351562,56.7082031 83.3703125,58.0808594 82.49375,59.5523438 C81.7726562,58.3425781 80.934375,57.2101562 79.990625,56.175 C81.628125,55.5699219 83.3660156,55.2480469 85.1492187,55.2480469 L85.9003906,55.2480469 C85.8257812,55.3203125 85.7519531,55.3929688 85.6785156,55.4664062 Z M127.488672,49.384375 C133.952734,44.3234375 138.114844,36.4503906 138.114844,27.6246094 C138.114844,18.7988281 133.952734,10.9257813 127.488672,5.86484375 C139.261719,6.13359375 148.757031,15.7914063 148.757031,27.6246094 C148.757031,39.4578125 139.261719,49.115625 127.488672,49.384375 Z" id="Shape"></path>
        </g>
    </g>
</svg>