<?xml version="1.0" encoding="UTF-8"?>
<svg width="187px" height="200px" viewBox="0 0 187 200" version="1.1" xmlns="http://www.w3.org/2000/svg" xmlns:xlink="http://www.w3.org/1999/xlink">
    <!-- Generator: Sketch 53.2 (72643) - https://sketchapp.com -->
    <title>002-fabric</title>
    <desc>Created with Sketch.</desc>
    <g id="Page-1" stroke="none" stroke-width="1" fill="none" fill-rule="evenodd">
        <g id="Artboard" transform="translate(-278.000000, -482.000000)" fill="#4A7CB2" fill-rule="nonzero">
            <g id="002-fabric" transform="translate(278.000000, 482.000000)">
                <path d="M146.692578,0 C125.814844,0 108.542187,16.2109375 106.833594,36.6667969 L0.026171875,36.6667969 L0.026171875,200 L146.692969,200 C168.692969,200 186.692969,182 186.692969,160 L186.692969,40 C186.692578,18 168.692578,0 146.692578,0 Z M6.69257813,68.525 L47.6382812,43.3335938 L71.034375,43.3335938 L6.69257813,80.8671875 L6.69257813,68.525 Z M106.692578,109.060156 L94.5328125,106.020703 L106.692578,99.0726562 L106.692578,109.060156 Z M106.692578,91.3945313 L85.1855469,103.683984 L67.6609375,99.303125 L106.692969,75.8765625 L106.692969,91.3945313 L106.692578,91.3945313 Z M106.692578,68.1019531 L58.5152344,97.0171875 L40.9425781,92.6246094 L106.692578,52.5863281 L106.692578,68.1019531 Z M101.323437,114.589453 L81.9355469,126.1125 L6.69257813,104.166797 L6.69257813,90.934375 L101.323437,114.589453 Z M30.5628906,156.645703 L6.69257813,147.694531 L6.69257813,131.190625 L50.4058594,144.851953 L30.5628906,156.645703 Z M6.69257813,124.205859 L6.69257813,111.111328 L74.0976562,130.771094 L57.6164062,140.566797 L57.7433594,140.160547 L6.69257813,124.205859 Z M6.69257813,154.814453 L23.2179688,161.011328 L6.69257813,170.833203 L6.69257813,154.814453 Z M6.69257813,178.587891 L106.692578,119.153125 L106.692578,134.777734 L6.69257812,192.789453 L6.69257813,178.587891 Z M106.692578,142.485156 L106.692578,158.073438 L45.7992187,193.333203 L19.0410156,193.333203 L106.692578,142.485156 Z M106.692578,44.7808594 L31.8550781,90.3527344 L12.1199219,85.4195312 L84.265625,43.3332031 L106.692969,43.3332031 L106.692969,44.7808594 L106.692578,44.7808594 Z M34.9160156,43.3332031 L6.69257813,60.6972656 L6.69257813,43.3332031 L34.9160156,43.3332031 L34.9160156,43.3332031 Z M59.1035156,193.333203 L107.082813,165.551562 C108.70625,177.111719 115.317578,187.126562 124.654687,193.333203 L59.1035156,193.333203 Z M146.692578,193.333203 C128.359375,193.333203 113.359375,178.333203 113.359375,160 C113.359375,141.666797 128.359375,126.666797 146.692578,126.666797 C165.025781,126.666797 180.025781,141.666797 180.025781,160 C180.025781,178.333203 165.026172,193.333203 146.692578,193.333203 Z M146.692578,120 C132.820312,120 120.540625,127.158203 113.359375,137.962109 L113.359375,40 C113.359375,21.6667969 128.359375,6.66679688 146.692578,6.66679688 C165.025781,6.66679688 180.025781,21.6667969 180.025781,40 L180.025781,137.962109 C172.844531,127.158203 160.564844,120 146.692578,120 Z" id="Shape"></path>
                <path d="M146.692578,136.666797 C133.692578,136.666797 123.359375,147 123.359375,160 C123.359375,173 133.692578,183.333203 146.692578,183.333203 C159.692578,183.333203 170.025781,173 170.025781,160 C170.025781,147 159.692578,136.666797 146.692578,136.666797 Z M146.692578,176.666797 C137.359375,176.666797 130.025781,169.333594 130.025781,160 C130.025781,150.666797 137.358984,143.333203 146.692578,143.333203 C156.026172,143.333203 163.359375,150.666797 163.359375,160 C163.359375,169.333203 156.026172,176.666797 146.692578,176.666797 Z" id="Shape"></path>
            </g>
        </g>
    </g>
</svg>