<?xml version="1.0" encoding="UTF-8"?>
<svg width="158px" height="200px" viewBox="0 0 158 200" version="1.1" xmlns="http://www.w3.org/2000/svg" xmlns:xlink="http://www.w3.org/1999/xlink">
    <!-- Generator: Sketch 53.2 (72643) - https://sketchapp.com -->
    <title>028-air-pump</title>
    <desc>Created with Sketch.</desc>
    <g id="Page-1" stroke="none" stroke-width="1" fill="none" fill-rule="evenodd">
        <g id="028-air-pump" fill="#4A7CB2" fill-rule="nonzero">
            <path d="M156.491016,147.619141 C155.882422,145.55 153.711719,144.364062 151.641406,144.973828 C149.571484,145.582812 148.387109,147.753906 148.996094,149.823828 C149.6625,152.088672 150,154.448047 150,156.835938 C150,170.283203 139.241797,181.257422 125.88125,181.623047 C124.300781,177.525391 120.323047,174.609375 115.674609,174.609375 L105.476172,174.609375 C105.094922,174.609375 104.727344,174.666406 104.378906,174.768359 C103.096875,173.639062 101.617969,172.730469 100.000391,172.098828 L100.000391,132.03125 L125.195703,132.03125 C127.5125,132.03125 129.804687,132.349609 132.007812,132.977344 C132.365625,133.079297 132.725781,133.127734 133.080078,133.127734 C134.780859,133.127734 136.345703,132.007812 136.834766,130.290625 C137.426172,128.215625 136.223438,126.054688 134.148438,125.463672 C131.248047,124.6375 128.235937,124.218359 125.195312,124.218359 L100,124.218359 L100,78.3519531 C100,77.5621094 99.7605469,76.7910156 99.3132813,76.1398437 L88.6675781,60.6449219 C87.9390625,59.584375 86.7347656,58.9507812 85.4480469,58.9507812 L82.8195313,58.9507812 L82.8195313,24.21875 L96.6136719,24.21875 C97.2167969,25.5980469 98.5914063,26.5625 100.192578,26.5625 L131.838672,26.5625 C139.162109,26.5625 145.119922,20.6046875 145.119922,13.28125 C145.119922,5.9578125 139.162109,0 131.838672,0 L100.192578,0 C98.5914063,0 97.2164063,0.964453125 96.6136719,2.34375 L61.1988281,2.34375 C60.5957031,0.964453125 59.2210938,0 57.6199219,0 L25.9738281,0 C18.6503906,0 12.6925781,5.9578125 12.6925781,13.28125 C12.6925781,20.6046875 18.6503906,26.5625 25.9738281,26.5625 L57.6199219,26.5625 C59.2210938,26.5625 60.5960938,25.5980469 61.1988281,24.21875 L75.0066406,24.21875 L75.0070312,58.9507812 L72.3789062,58.9507812 C71.0921875,58.9507812 69.8878906,59.584375 69.159375,60.6449219 L58.5136719,76.1398437 C58.0664062,76.7910156 57.8269531,77.5621094 57.8269531,78.3519531 L57.8269531,124.21875 L43.5949219,124.21875 C29.6363281,124.21875 18.2796875,112.8625 18.2796875,98.9035156 L18.2796875,80.8257812 L21.484375,80.8257812 C27.5152344,80.8257812 32.421875,75.9191406 32.421875,69.8882812 C32.421875,63.8574219 27.5152344,58.9507812 21.484375,58.9507812 L3.90625,58.9507812 C1.74921875,58.9507812 0,60.6996094 0,62.8570312 L0,76.9195312 C0,79.0769531 1.74921875,80.8257812 3.90625,80.8257812 L10.4679688,80.8257812 L10.4679688,98.9035156 C10.4679688,117.170312 25.3289062,132.03125 43.5957031,132.03125 L57.8277344,132.03125 L57.8277344,172.098828 C52.3425781,174.240234 48.4449219,179.577344 48.4449219,185.811328 L48.4449219,196.09375 C48.4449219,198.251172 50.1941406,200 52.3511719,200 L105.476172,200 C107.501563,200 109.166797,198.458203 109.3625,196.484375 L115.674609,196.484375 C120.336328,196.484375 124.323828,193.551563 125.895313,189.435547 C143.557422,189.060156 157.8125,174.586328 157.8125,156.835938 C157.8125,153.701562 157.367969,150.600391 156.491016,147.619141 Z M104.098828,7.8125 L131.838672,7.8125 C134.854297,7.8125 137.307422,10.265625 137.307422,13.28125 C137.307422,16.296875 134.854297,18.75 131.838672,18.75 L104.098828,18.75 L104.098828,7.8125 Z M53.7136719,18.75 L25.9738281,18.75 C22.9582031,18.75 20.5050781,16.296875 20.5050781,13.28125 C20.5050781,10.265625 22.9582031,7.8125 25.9738281,7.8125 L53.7136719,7.8125 L53.7136719,18.75 Z M7.8125,73.0132812 L7.8125,66.7632812 L21.484375,66.7632812 C23.2074219,66.7632812 24.609375,68.1652344 24.609375,69.8882812 C24.609375,71.6113281 23.2074219,73.0132812 21.484375,73.0132812 L7.8125,73.0132812 Z M61.5261719,16.40625 L61.5261719,10.15625 L96.2863281,10.15625 L96.2863281,16.40625 L61.5261719,16.40625 Z M74.4351563,66.7632812 L83.3925781,66.7632812 L88.7832031,74.609375 L69.0445313,74.609375 L74.4351563,66.7632812 Z M65.6398438,82.421875 L92.1875,82.421875 L92.1875,89.84375 L65.6398438,89.84375 L65.6398438,82.421875 Z M65.6398438,97.65625 L92.1875,97.65625 L92.1875,171.09375 L65.6398438,171.09375 L65.6398438,97.65625 Z M101.569922,192.1875 L56.2574219,192.1875 L56.2574219,185.810937 L56.2574219,185.810937 C56.2574219,182.003516 59.3550781,178.90625 63.1625,178.90625 L94.6652344,178.90625 C98.4722656,178.90625 101.569922,182.003906 101.569922,185.810937 L101.569922,192.1875 Z M115.674609,188.671875 L109.382422,188.671875 L109.382422,185.810937 L109.382422,182.421875 L115.674609,182.421875 C117.397656,182.421875 118.799609,183.823828 118.799609,185.546875 C118.799609,187.269922 117.397656,188.671875 115.674609,188.671875 Z" id="Shape"></path>
            <path d="M148.548438,134.065234 L148.407031,133.921484 C146.891406,132.385938 144.417969,132.369531 142.882813,133.885156 C141.347656,135.4 141.33125,137.873437 142.846875,139.408984 L142.964063,139.528516 C143.729297,140.310547 144.742578,140.703125 145.756641,140.703125 C146.741797,140.703125 147.728125,140.332422 148.487891,139.589063 C150.030078,138.080469 150.057422,135.607422 148.548438,134.065234 Z" id="Path"></path>
            <path d="M78.9136719,126.094141 C76.7566406,126.094141 75.0074219,127.842969 75.0074219,130.000391 L75.0074219,154.609766 C75.0074219,156.767188 76.7566406,158.516016 78.9136719,158.516016 C81.0707031,158.516016 82.8199219,156.767188 82.8199219,154.609766 L82.8199219,130.000391 C82.8199219,127.842969 81.0707031,126.094141 78.9136719,126.094141 Z" id="Path"></path>
            <path d="M81.6757812,112.210938 C80.9488281,111.484375 79.9410156,111.066406 78.9140625,111.066406 C77.8828125,111.066406 76.8789062,111.484375 76.1527344,112.210938 C75.4261719,112.9375 75.0078125,113.945312 75.0078125,114.972656 C75.0078125,116.003906 75.4257812,117.007812 76.1527344,117.738281 C76.8789063,118.464844 77.8832031,118.878906 78.9140625,118.878906 C79.9414062,118.878906 80.9492187,118.464844 81.6757812,117.738281 C82.4023438,117.007812 82.8203125,116.003906 82.8203125,114.972656 C82.8203125,113.945312 82.4027344,112.9375 81.6757812,112.210938 Z" id="Path"></path>
        </g>
    </g>
</svg>