<?xml version="1.0" encoding="UTF-8"?>
<svg width="200px" height="200px" viewBox="0 0 200 200" version="1.1" xmlns="http://www.w3.org/2000/svg" xmlns:xlink="http://www.w3.org/1999/xlink">
    <!-- Generator: Sketch 53.2 (72643) - https://sketchapp.com -->
    <title>012-rugby-ball</title>
    <desc>Created with Sketch.</desc>
    <g id="Page-1" stroke="none" stroke-width="1" fill="none" fill-rule="evenodd">
        <g id="012-rugby-ball" fill="#4A7CB2" fill-rule="nonzero">
            <path d="M188.9125,11.4703125 C188.747656,11.2882813 188.580469,11.1097656 188.409375,10.9386719 C181.457812,3.98710938 168.182813,0 151.988672,0 C138.716406,0 124.456641,2.59375 110.290625,7.53125 C110.073828,7.60664063 109.857813,7.684375 109.641016,7.76054688 C108.735938,8.08085938 107.83125,8.40976563 106.927344,8.74921875 C106.575,8.88125 106.222656,9.01445312 105.871484,9.14921875 C105.309375,9.36484375 104.748047,9.58242187 104.186719,9.80546875 C103.571094,10.05 102.95625,10.2988281 102.342188,10.5515625 C102.135547,10.6367188 101.928125,10.7164063 101.721484,10.8027344 C81.8605469,19.09375 63.6332031,31.4546875 47.5457031,47.5421875 C36.5757813,58.5121094 27.228125,70.7222656 19.7914063,83.6304687 C19.6929688,83.7609375 19.6011719,83.896875 19.5191406,84.0402344 C15.578125,90.9359375 12.1835938,98.0558594 9.37382813,105.296094 C9.3140625,105.449609 9.2546875,105.602734 9.1953125,105.75625 C8.92851563,106.450391 8.66640625,107.145703 8.4109375,107.841406 C8.25507813,108.264453 8.10351563,108.688281 7.95117188,109.112109 C7.80234375,109.528906 7.653125,109.946094 7.50820313,110.363281 C7.33632813,110.85625 7.16875,111.349219 7.00234375,111.842969 C6.9390625,112.030859 6.87734375,112.219531 6.81445313,112.408203 C4.83164063,118.382031 3.24960938,124.414062 2.10820313,130.462109 C-2.5484375,155.132031 0.727734375,177.520312 10.4363281,187.871094 C10.6011719,188.054297 10.76875,188.233984 10.9410156,188.40625 C18.3097656,195.774219 32.0320312,200 48.5894531,200 C60.51875,200 73.2425781,197.811719 85.9429687,193.629687 C85.965625,193.622266 85.9882813,193.617578 86.0105469,193.610156 C86.6488281,193.399609 87.2863281,193.183594 87.9238281,192.963281 C88.3523438,192.814844 88.7804687,192.661719 89.2089844,192.508594 C89.6257812,192.359766 90.0433594,192.208203 90.4597656,192.055469 C91.2304688,191.772656 91.9992187,191.481641 92.76875,191.184375 C93.0851562,191.062109 93.4011719,190.940625 93.7171875,190.816016 C94.2617188,190.601172 94.8058594,190.383594 95.3496094,190.160937 C95.4578125,190.117187 95.565625,190.071484 95.6738281,190.026562 C96.3402344,189.752344 97.0074219,189.481641 97.6726563,189.196875 C117.102734,180.873437 135.315625,168.292187 151.805859,151.802734 C165.008594,138.6 175.78125,124.174219 183.825391,108.926172 C190.935156,95.4484375 195.783594,81.6308594 198.235547,67.8570312 C202.486719,43.9765625 198.822656,21.9824219 188.9125,11.4703125 Z M168.914453,12.8316406 C175.485156,12.8316406 180.577344,14.1554688 182.885156,16.4632813 C182.980078,16.5582031 183.073047,16.6628906 183.166797,16.7617188 C186.025391,19.9632813 187.3625,26.9238281 186.751563,35.5367188 C186.265234,42.3972656 184.36875,53.2933594 178.319922,67.6738281 L132.130469,21.484375 C145.714063,15.8824219 158.616406,12.8316406 168.914453,12.8316406 Z M148.168359,7.90351563 C141.144141,9.6765625 133.717578,12.2429687 126.173437,15.5273438 L122.611719,11.965625 C133.442969,9.1015625 142.363281,8.16484375 148.168359,7.90351563 Z M108.236328,140.503125 C106.875391,138.828906 104.414844,138.575391 102.741406,139.935937 C97.3261719,144.338281 93.515625,147.167578 91.1886719,148.732812 L40.3488281,97.8925781 C41.7199219,95.9121094 43.1339844,93.9441406 44.5878906,91.990625 L46.0339844,93.4367187 C46.796875,94.1992187 47.7964844,94.5808594 48.7960937,94.5808594 C49.7957031,94.5808594 50.7953125,94.1992187 51.5582031,93.4367187 C53.0835937,91.9113281 53.0835937,89.4378906 51.5582031,87.9121094 L49.4015625,85.7554687 C50.7765625,84.0394531 52.1851562,82.3375 53.6214844,80.6480469 L55.3863281,82.4128906 C56.1492187,83.1753906 57.1488281,83.5570312 58.1484375,83.5570312 C59.1484375,83.5570312 60.1476562,83.1753906 60.9105469,82.4128906 C62.4359375,80.8875 62.4359375,78.4140625 60.9105469,76.8882812 L58.7925781,74.7703125 C60.4449219,72.9539062 62.1332031,71.1558594 63.8554687,69.3769531 L65.846875,71.3683594 C66.6097656,72.1308594 67.609375,72.5125 68.6089844,72.5125 C69.6085938,72.5125 70.6085938,72.1308594 71.3710938,71.3683594 C72.8964844,69.8429687 72.8964844,67.3695312 71.3710938,65.84375 L69.3796875,63.8523437 C71.1585937,62.1304687 72.9558594,60.4421875 74.7722656,58.7894531 L76.890625,60.9078125 C77.6535156,61.6703125 78.653125,62.0519531 79.6527344,62.0519531 C80.6527344,62.0519531 81.6519531,61.6703125 82.4148438,60.9078125 C83.9402344,59.3824219 83.9402344,56.9089844 82.4148438,55.3832031 L80.65,53.6179687 C82.3394531,52.1816406 84.0417969,50.7726562 85.7574219,49.3980469 L87.9144531,51.5550781 C88.6773437,52.3175781 89.6769531,52.6992187 90.6765625,52.6992187 C91.6761719,52.6992187 92.6757812,52.3175781 93.4386719,51.5550781 C94.9640625,50.0296875 94.9640625,47.55625 93.4386719,46.0304687 L91.9917969,44.5835937 C93.9460937,43.1300781 95.9136719,41.7160156 97.8945312,40.3453125 L159.175391,101.626172 C151.625,112.304297 142.75,122.762891 132.757812,132.755078 C122.768359,142.744922 112.308984,151.620312 101.628906,159.172656 L96.8042969,154.348047 C100.429687,151.804297 104.812109,148.320703 107.669141,145.998047 C109.343359,144.637109 109.597266,142.176953 108.236328,140.503125 Z M53.0699219,53.0667969 C63.8589844,42.2777344 74.8019531,34.0503906 85.3226562,27.7734375 L92.2859375,34.7367187 C90.3148437,36.1199219 88.3566406,37.5433594 86.4128906,39.0050781 L84.0488281,36.6410156 C82.5230469,35.1160156 80.0503906,35.1160156 78.5242187,36.6410156 C76.9988281,38.1664062 76.9988281,40.6398437 78.5242187,42.165625 L80.2011719,43.8425781 C78.4902344,45.2238281 76.7933594,46.6375 75.1085937,48.0777344 L73.0242187,45.9933594 C71.4984375,44.4683594 69.025,44.4683594 67.4996094,45.9933594 C65.9742187,47.51875 65.9742187,49.9921875 67.4996094,51.5179687 L69.240625,53.2589844 C67.4269531,54.9140625 65.6316406,56.6054687 63.8546875,58.328125 L61.9800781,56.4539062 C60.4542969,54.9289062 57.9816406,54.9289062 56.4554687,56.4539062 C54.9300781,57.9792969 54.9300781,60.4527344 56.4554687,61.9785156 L58.3300781,63.853125 C56.6074219,65.6300781 54.9164062,67.4253906 53.2601562,69.2394531 L51.5195312,67.4984375 C49.99375,65.9734375 47.5210937,65.9734375 45.9949219,67.4984375 C44.4695312,69.0238281 44.4695312,71.4972656 45.9949219,73.0226562 L48.0792969,75.1070312 C46.6390625,76.7917969 45.2257812,78.4886719 43.8445312,80.1996094 L42.1671875,78.521875 C40.6417969,76.9976563 38.1691406,76.996875 36.6425781,78.521875 C35.1171875,80.0472656 35.1171875,82.5207031 36.6425781,84.0464844 L39.0070312,86.4109375 C37.5453125,88.3546875 36.1222656,90.3128906 34.7386719,92.2839844 L27.8207031,85.3660156 C34.7027344,73.8496094 43.1972656,62.9394531 53.0699219,53.0667969 Z M7.8671875,148.444922 C8.06289062,143.353906 8.66835937,137.829297 9.78554687,131.910937 C10.375,128.789453 11.09375,125.671094 11.9238281,122.562891 L15.5300781,126.169531 C12.1824219,133.866406 9.61953125,141.392187 7.8671875,148.444922 Z M31.4917969,186.897656 C24.4949219,186.897656 19.0183594,185.433984 16.4660156,182.881641 C11.5855469,178.001172 10.2617187,159.3 21.4863281,132.125781 L67.6753906,178.314453 C54.4320312,183.871875 41.7445313,186.897656 31.4917969,186.897656 Z M50.7710937,192.158594 C58.0683594,190.389062 65.7957031,187.725391 73.6167969,184.255859 L77.4167969,188.055859 C66.2558594,191.105078 57.0175781,191.999219 50.7710937,192.158594 Z M85.8300781,185.420312 L14.4910156,114.081641 C15.0929687,112.299219 15.7351562,110.523437 16.4121094,108.753516 C16.4386719,108.684375 16.4640625,108.614844 16.4902344,108.546094 C16.7328125,107.915625 16.9859375,107.286719 17.2375,106.658594 C17.3644531,106.342187 17.4875,106.024219 17.6167969,105.708203 C17.6886719,105.532812 17.7648437,105.358203 17.8371094,105.182812 C19.6207031,100.880859 21.6265625,96.6257812 23.8445312,92.4363281 L107.253516,175.845703 C100.233594,179.681641 93.0539062,182.890625 85.8300781,185.420312 Z M146.28125,146.278516 C135.417578,157.142187 124.606641,165.460938 114.285156,171.828906 L107.228516,164.772266 C117.890625,157.135156 128.319531,148.242578 138.282422,138.279687 C148.246875,128.314844 157.139844,117.885937 164.775391,107.226172 L171.753906,114.204687 C164.812891,125.482031 156.253516,136.30625 146.28125,146.278516 Z M175.815234,107.217969 L92.4230469,23.8242188 C96.8253906,21.5 101.307422,19.4074219 105.841797,17.559375 C105.859375,17.5519531 105.877344,17.5449219 105.894922,17.5378906 C106.514844,17.2855469 107.136719,17.0433594 107.758594,16.8003906 C109.920703,15.9621094 112.039063,15.2003906 114.107813,14.5097656 L113.982422,14.5519531 C114.045312,14.5300781 114.106641,14.5089844 114.107813,14.5097656 L185.412109,85.8144531 C182.874609,93.0292969 179.660156,100.19375 175.815234,107.217969 Z M190.54375,66.4882812 C189.896484,70.1246094 189.061719,73.76875 188.054688,77.4089844 L184.260156,73.6144531 C187.746094,65.7640625 190.403516,58.0726562 192.167969,50.7871094 C192.049219,55.6507812 191.538672,60.8988281 190.54375,66.4882812 Z" id="Shape"></path>
            <path d="M116.617969,133.275391 C115.199219,131.65 112.731641,131.482422 111.10625,132.900391 L110.914062,133.069141 C109.294141,134.49375 109.136328,136.9625 110.561719,138.582031 C111.333203,139.459766 112.411328,139.907813 113.495312,139.907813 C114.411719,139.907813 115.331641,139.5875 116.074219,138.934375 L116.242969,138.787109 C117.868359,137.368359 118.036328,134.901172 116.617969,133.275391 Z" id="Path"></path>
        </g>
    </g>
</svg>