<?xml version="1.0" encoding="UTF-8"?>
<svg width="150px" height="200px" viewBox="0 0 150 200" version="1.1" xmlns="http://www.w3.org/2000/svg" xmlns:xlink="http://www.w3.org/1999/xlink">
    <!-- Generator: Sketch 53.2 (72643) - https://sketchapp.com -->
    <title>037-advertising</title>
    <desc>Created with Sketch.</desc>
    <g id="Page-1" stroke="none" stroke-width="1" fill="none" fill-rule="evenodd">
        <g id="037-advertising" fill="#4A7CB2" fill-rule="nonzero">
            <path d="M145.833203,16.6667969 L141.666406,16.6667969 L141.666406,12.5 C141.666406,10.196875 139.802734,8.33320312 137.499609,8.33320312 L79.1667969,8.33320312 L79.1667969,4.16679688 C79.1667969,1.86367187 77.303125,0 75,0 C72.696875,0 70.8332031,1.86367187 70.8332031,4.16679688 L70.8332031,8.33359375 L12.5,8.33359375 C10.196875,8.33359375 8.33320312,10.1972656 8.33320312,12.5003906 L8.33320312,16.6671875 L4.16679688,16.6671875 C1.86367188,16.6667969 0,18.5304688 0,20.8332031 C0,23.1363281 1.86367188,25 4.16679688,25 L8.33359375,25 L8.33359375,29.1667969 C8.33359375,31.4699219 10.1972656,33.3335937 12.5003906,33.3335937 L16.6671875,33.3335937 L16.6671875,141.666797 L12.5,141.666797 C10.196875,141.666797 8.33320312,143.530469 8.33320312,145.833594 L8.33320312,162.5 C8.33320312,164.803125 10.196875,166.666797 12.5,166.666797 L70.8332031,166.666797 L70.8332031,176.749219 L43.7660156,192.216016 C41.7640625,193.355469 41.0722656,195.902734 42.2117187,197.900391 C43.359375,199.90625 45.9144531,200.582031 47.9003906,199.450781 L70.8332031,186.344922 L70.8332031,195.833203 C70.8332031,198.136328 72.696875,200 75,200 C77.303125,200 79.1667969,198.136328 79.1667969,195.833203 L79.1667969,186.344922 L102.099609,199.450781 C102.750781,199.825 103.458594,200 104.166797,200 C105.607422,200 107.015234,199.247266 107.788281,197.900391 C108.927734,195.902344 108.235938,193.355469 106.233984,192.216016 L79.1667969,176.749219 L79.1667969,166.666797 L137.5,166.666797 C139.803125,166.666797 141.666797,164.803125 141.666797,162.5 L141.666797,145.833203 C141.666797,143.530078 139.803125,141.666406 137.5,141.666406 L133.333203,141.666406 L133.333203,33.3332031 L137.5,33.3332031 C139.803125,33.3332031 141.666797,31.4695312 141.666797,29.1664062 L141.666797,25 L145.833594,25 C148.136328,25 150,23.1363281 150,20.8332031 C150,18.5304688 148.136328,16.6667969 145.833203,16.6667969 Z M133.333594,158.333203 L16.6667969,158.333203 L16.6667969,150 L133.333594,150 L133.333594,158.333203 L133.333594,158.333203 Z M25,141.666797 L25,33.3332031 L125,33.3332031 L125,141.666797 L25,141.666797 L25,141.666797 Z M133.333594,25 L16.6667969,25 L16.6667969,16.6667969 L133.333594,16.6667969 L133.333594,25 L133.333594,25 Z" id="Shape"></path>
        </g>
    </g>
</svg>