<?xml version="1.0" encoding="UTF-8"?>
<svg width="165px" height="200px" viewBox="0 0 165 200" version="1.1" xmlns="http://www.w3.org/2000/svg" xmlns:xlink="http://www.w3.org/1999/xlink">
    <!-- Generator: Sketch 53.2 (72643) - https://sketchapp.com -->
    <title>005-teddy-bear</title>
    <desc>Created with Sketch.</desc>
    <g id="Page-1" stroke="none" stroke-width="1" fill="none" fill-rule="evenodd">
        <g id="005-teddy-bear" fill="#4A7CB2" fill-rule="nonzero">
            <path d="M160.067578,146.673047 C156.886719,141.160938 152.192969,137.575391 146.116797,136.017188 C144.665234,135.644922 143.202344,135.411328 141.750781,135.31875 C141.938281,133.230859 142.035938,131.127344 142.035938,129.027344 C142.035938,126.361719 141.883203,123.692969 141.580469,121.049609 C152.380078,119.571875 160.710938,110.595313 160.710938,99.7761719 C160.710938,87.9289062 150.718359,78.2898438 138.435938,78.2898438 C137.23125,78.2898438 136.042188,78.3867188 134.874609,78.5667969 C137.399609,72.4851563 138.789844,65.8550781 138.789844,58.9191406 C138.789844,54.4097656 138.205859,49.9597656 137.05,45.640625 C145.911328,41.8976563 151.808203,33.4171875 151.808203,23.825 C151.808594,10.6878906 140.719922,0 127.090234,0 C118.78125,0 111.091406,4.04609375 106.55,10.5664062 C99.3140625,7.36796875 91.3675781,5.69101563 83.3496094,5.69101563 C75.3316406,5.69101563 67.3851563,7.36796875 60.1492188,10.5664062 C55.6070313,4.04609375 47.9167969,0 39.6078125,0 C25.9777344,0 14.8886719,10.6882812 14.8886719,23.8257812 C14.8886719,33.4183594 20.7863281,41.8988281 29.6476562,45.6417969 C28.4917969,49.9621094 27.9074219,54.4125 27.9074219,58.9199219 C27.9074219,65.8558594 29.2980469,72.4855469 31.8226562,78.5675781 C30.6550781,78.3875 29.4664062,78.290625 28.2617188,78.290625 C15.9789062,78.290625 5.98632812,87.9292969 5.98632812,99.7769531 C5.98632812,110.595312 14.3183594,119.571484 25.1167969,121.050391 C24.8140625,123.695312 24.6609375,126.364844 24.6609375,129.028125 C24.6609375,131.185937 24.7644531,133.346484 24.9625,135.491406 C24.8117188,135.488281 24.6613281,135.483594 24.5097656,135.483594 C22.5980469,135.483594 20.6527344,135.733984 18.7269531,136.227344 C12.6507812,137.785547 7.95742187,141.370312 4.77617187,146.882812 C-0.7296875,156.424219 -0.441796875,170.525391 2.28554687,180.268359 C5.5390625,191.886328 16.5273438,200 29.0085938,200 C29.5316406,200 30.0554688,199.982812 30.578125,199.953906 C30.6007813,199.953516 30.6230469,199.953516 30.6457031,199.952344 C30.6800781,199.950781 30.7144531,199.947656 30.7488281,199.945703 C30.7894531,199.943359 30.8296875,199.940625 30.8699219,199.937891 C41.1015625,199.38125 50.1089844,193.341797 54.3691406,184.626172 C63.1746094,190.085938 73.0957031,192.948438 83.3480469,192.948438 C93.1355469,192.948438 102.669922,190.312891 111.194141,185.299609 C111.331641,185.556641 111.466797,185.814844 111.613281,186.06875 C115.298437,192.454297 121.364063,197.00625 128.692187,198.885547 C131.030469,199.485156 133.433594,199.789844 135.833984,199.789844 C148.315234,199.789844 159.303516,191.675781 162.555859,180.058203 C165.285547,170.315625 165.573047,156.214063 160.067578,146.673047 Z M22.7035156,23.8257812 C22.7035156,14.9972656 30.2867187,7.81445313 39.6078125,7.81445313 C46.2757812,7.81445313 52.3402344,11.5445313 55.0574219,17.3175781 C55.5113281,18.2820312 56.3398438,19.01875 57.35,19.3578125 C58.3605469,19.6964844 59.4652344,19.6078125 60.409375,19.1125 C67.3933594,15.4441406 75.3257813,13.5054687 83.3484375,13.5054687 C91.3714844,13.5054687 99.3035156,15.4441406 106.2875,19.1125 C107.23125,19.6082031 108.336719,19.696875 109.346875,19.3578125 C110.357422,19.01875 111.185547,18.2816406 111.639453,17.3175781 C114.357031,11.5445312 120.421094,7.81445312 127.089453,7.81445312 C136.410547,7.81445312 143.99375,14.996875 143.99375,23.8257812 C143.99375,30.0722656 140.194141,35.6265625 134.436719,38.2507812 C133.508594,36.1371094 132.440625,34.0789062 131.239844,32.1019531 C130.119141,30.2578125 127.716797,29.6714844 125.872266,30.7910156 C124.028125,31.9113281 123.441016,34.3144531 124.561328,36.1585937 C126.154687,38.7816406 127.476953,41.5691406 128.491016,44.4445312 C128.515625,44.5148438 128.544531,44.5820312 128.572656,44.65 C130.164453,49.2378906 130.975,54.0367187 130.975,58.9199219 C130.975,82.7066406 111.696094,102.278906 87.2550781,104.180859 L87.2550781,75.1285156 C92.9113281,73.1914062 96.9066406,67.315625 96.9066406,62.128125 C96.9066406,59.2835937 95.5855469,52.6671875 83.3480469,52.6671875 C71.1105469,52.6671875 69.7894531,59.2835937 69.7894531,62.128125 C69.7894531,67.315625 73.784375,73.1914062 79.4410156,75.1285156 L79.4410156,104.180859 C55.0003906,102.279297 35.7210938,82.7070312 35.7210938,58.9199219 C35.7210938,53.9652344 36.5527344,49.0933594 38.1933594,44.4394531 C38.5609375,43.3964844 38.4695313,42.2472656 37.9414063,41.2753906 C37.4136719,40.3035156 36.4988281,39.6015625 35.4238281,39.3421875 C27.934375,37.5367187 22.7035156,31.1558594 22.7035156,23.8257812 Z M83.3492188,134.405469 C81.1914063,134.405469 79.4421875,136.154687 79.4421875,138.3125 L79.4421875,150.155078 C66.2058594,148.252734 55.9992188,136.842578 55.9992188,123.088281 C55.9992188,117.521094 57.70625,112.107031 60.8425781,107.560156 C67.7242188,110.507031 75.340625,112.148437 83.3492188,112.148437 C91.3578125,112.148437 98.9742188,110.507031 105.85625,107.560156 C108.992578,112.107422 110.7,117.521094 110.7,123.088281 C110.7,136.842187 100.492969,148.252734 87.2570313,150.155078 L87.2570313,138.3125 C87.25625,136.154687 85.5070313,134.405469 83.3492188,134.405469 Z M77.6050781,62.128125 C77.6050781,61.7472656 77.6050781,61.5894531 78.2507813,61.2714844 C78.8496094,60.9765625 80.3085938,60.4820313 83.3492188,60.4820313 C86.3898438,60.4820313 87.8488281,60.9769531 88.4476563,61.2714844 C89.0933594,61.5894531 89.0933594,61.7472656 89.0933594,62.128125 C89.0933594,64.3304688 86.4082031,67.9746094 83.3488281,67.9746094 C80.2894531,67.9742188 77.6050781,64.3304688 77.6050781,62.128125 Z M46.4621094,182.373437 C43.8363281,186.923047 39.4851563,190.173828 34.2101562,191.526562 C32.9332031,191.853906 31.63125,192.060156 30.325,192.143359 C30.3214844,192.143359 30.3179688,192.14375 30.3148438,192.144141 C29.8800781,192.171484 29.4449219,192.185156 29.0101563,192.185156 C20.01875,192.185547 12.1246094,186.418359 9.81210938,178.160938 C7.59960938,170.258203 7.1984375,158.321875 11.5457031,150.787891 C13.6660156,147.114063 16.65,144.826562 20.6691406,143.796094 C21.9609375,143.464844 23.2535156,143.296875 24.5105469,143.296875 C25.8320313,143.296875 27.1144531,143.480078 28.3539063,143.818359 C28.4125,143.836328 28.4707031,143.854297 28.5304688,143.869531 C38.5957031,146.746094 45.8210938,159.855859 48.2363281,168.483984 C49.5507812,173.180078 48.9207031,178.112891 46.4621094,182.373437 Z M109.083203,166.167187 C108.008594,170.005469 107.841406,173.951172 108.544531,177.763672 C100.890625,182.588672 92.2355469,185.133984 83.3496094,185.133984 C73.7929688,185.133984 64.5570313,182.218359 56.5050781,176.685547 C56.9542969,173.277344 56.7160156,169.785156 55.7621094,166.377734 C52.9179688,156.21875 44.9101563,142.008594 33.0128906,137.172656 C32.6582031,134.484375 32.4769531,131.754687 32.4769531,129.027344 C32.4769531,125.329688 32.8082031,121.620313 33.4621094,118.002734 C33.6765625,116.815625 33.33125,115.596875 32.5257813,114.698828 C31.7203125,113.800781 30.5449219,113.324609 29.3429688,113.410156 C28.9847656,113.435547 28.621875,113.448047 28.2636719,113.448047 C20.2898438,113.448047 13.8027344,107.314453 13.8027344,99.7757813 C13.8027344,92.2371094 20.2898438,86.1039063 28.2636719,86.1039063 C32.078125,86.1039063 35.6644531,87.4945313 38.3839844,90.0179688 C42.5542969,95.5605469 47.8070313,100.304297 53.8425781,103.9625 C50.1703125,109.629687 48.1855469,116.271875 48.1855469,123.088281 C48.1855469,142.478125 63.9605469,158.252734 83.35,158.252734 C102.739453,158.252734 118.514453,142.477734 118.514453,123.088281 C118.514453,116.271875 116.529688,109.630078 112.857422,103.9625 C118.893359,100.304688 124.146094,95.5609375 128.316016,90.0179687 C131.035938,87.49375 134.622266,86.1039062 138.436719,86.1039062 C146.410156,86.1039062 152.897266,92.2371094 152.897266,99.7757812 C152.897266,107.314453 146.410156,113.448047 138.436719,113.448047 C138.078906,113.448047 137.715234,113.435156 137.35625,113.410156 C136.153906,113.324609 134.978516,113.800781 134.173047,114.698828 C133.368359,115.596875 133.022266,116.816016 133.236719,118.003125 C133.890234,121.616406 134.221875,125.325391 134.221875,129.026953 C134.221875,131.446484 134.079688,133.869922 133.800781,136.260156 C120.818359,140.245703 112.082031,155.458203 109.083203,166.167187 Z M155.032422,177.951562 C152.721094,186.208984 144.826953,191.976172 135.835547,191.976172 C134.089453,191.976172 132.339844,191.754687 130.634766,191.317187 C125.359375,189.964453 121.007813,186.713672 118.382812,182.164062 C115.924219,177.903125 115.29375,172.970313 116.608203,168.275391 C119.151953,159.190625 127.027344,145.137891 137.935547,143.292969 C137.978125,143.285938 138.020703,143.278516 138.062891,143.270313 C138.80625,143.151172 139.563672,143.088672 140.334375,143.088672 C141.591797,143.088672 142.884375,143.256641 144.175781,143.587891 C148.194531,144.61875 151.178906,146.905469 153.299609,150.579688 C157.646484,158.112109 157.245313,170.048828 155.032422,177.951562 Z" id="Shape"></path>
            <path d="M107.915625,44.2597656 C104.309766,44.2597656 101.367969,47.075 101.367969,50.5261719 C101.367969,53.9777344 104.309375,56.7929688 107.915625,56.7929688 C111.521875,56.7929688 114.462891,53.9777344 114.462891,50.5261719 C114.462891,47.075 111.521875,44.2597656 107.915625,44.2597656 Z" id="Path"></path>
            <path d="M58.7832031,44.2597656 C55.1769531,44.2597656 52.2355469,47.075 52.2355469,50.5261719 C52.2355469,53.9777344 55.1765625,56.7929688 58.7832031,56.7929688 C62.3890625,56.7929688 65.3304688,53.9777344 65.3304688,50.5261719 C65.3304688,47.075 62.3890625,44.2597656 58.7832031,44.2597656 Z" id="Path"></path>
            <path d="M123.388672,22.1007813 L123.297656,22.0105469 C121.748047,20.5089844 119.26875,20.5414062 117.766797,22.0910156 C116.264844,23.6402344 116.297266,26.1078125 117.846875,27.6097656 C117.849609,27.6121094 117.867969,27.6308594 117.871094,27.6335938 C118.631641,28.3945313 119.626563,28.7742188 120.622266,28.7742188 C121.621094,28.7742188 122.620312,28.3921875 123.384766,27.6300781 C124.910547,26.1082031 124.908203,23.6296875 123.388672,22.1007813 Z" id="Path"></path>
            <path d="M83.3480469,123.087891 C81.1902344,123.087891 79.4410156,124.837109 79.4410156,126.994922 L79.4410156,127.087109 C79.4410156,129.244922 81.1902344,130.994141 83.3480469,130.994141 C85.5058594,130.994141 87.2550781,129.244922 87.2550781,127.087109 L87.2550781,126.994922 C87.2550781,124.837109 85.5058594,123.087891 83.3480469,123.087891 Z" id="Path"></path>
        </g>
    </g>
</svg>