<?xml version="1.0" encoding="UTF-8"?>
<svg width="140px" height="200px" viewBox="0 0 140 200" version="1.1" xmlns="http://www.w3.org/2000/svg" xmlns:xlink="http://www.w3.org/1999/xlink">
    <!-- Generator: Sketch 54.1 (76490) - https://sketchapp.com -->
    <title>011-racquetball-racquet</title>
    <desc>Created with Sketch.</desc>
    <g id="Page-1" stroke="none" stroke-width="1" fill="none" fill-rule="evenodd">
        <g id="011-racquetball-racquet" fill="#487BB4" fill-rule="nonzero">
            <path d="M108.44697,63.9746212 C98.4212121,23.9132576 77.9518939,0 53.7018939,0 C46.0265152,0 37.9780303,2.32537879 29.7700758,6.91098485 C12.4272727,16.6037879 3.25227273,26.8037879 0.890530303,39.0106061 C-2.22083333,55.1181818 6.54469697,74.1200758 31.15,104.586364 C42.1431818,118.201894 96.5007576,152.6125 105.183333,158.064394 L126.379924,195.995076 C128.332197,199.490909 132.664773,200.780303 136.062121,198.882576 C139.459848,196.984091 140.626136,192.61553 138.677273,189.124242 L118.179545,152.438636 C118.140152,144.038636 117.498864,100.13447 108.44697,63.9746212 Z M100.109091,66.0643939 C100.398864,67.2234848 100.65947,68.4117424 100.931439,69.5924242 L87.1420455,77.2965909 L76.8079545,55.9837121 L93.7344697,46.5261364 C96.9863636,54.5170455 99.0439394,61.8121212 100.109091,66.0643939 Z M50.0761364,64.3621212 L35.2253788,72.6640152 L20.030303,55.4151515 L38.0106061,45.3708333 L50.0761364,64.3621212 Z M43.0238636,42.5674242 L59.4791667,33.3708333 L69.2950758,53.6223485 L55.0890152,61.5587121 L43.0238636,42.5674242 Z M53.1549242,69.2121212 L65.8507576,89.1992424 L55.0931818,95.2121212 L39.1049242,77.0651515 L53.1549242,69.2121212 Z M58.167803,66.4087121 L71.8018939,58.7840909 L82.1356061,80.0969697 L70.8670455,86.3924242 L58.167803,66.4087121 Z M91.4450758,41.2416667 L74.3087121,50.8223485 L64.4924242,30.5708333 L79.6113636,22.1238636 C84.4503788,27.7746212 88.3625,34.5662879 91.4450758,41.2416667 Z M75.5143939,17.842803 L61.9856061,25.4022727 L53.8431818,8.60606061 C62.3734848,8.64621212 69.5412879,12.3227273 75.5143939,17.842803 Z M33.9647727,14.419697 C39.1659091,11.5109848 44.2117424,9.68901515 49.0257576,8.96098485 L47.9102273,9.50416667 L56.9765152,28.2018939 L39.9488636,37.7174242 L27.6079545,18.2916667 C29.5784091,16.9984848 31.6575758,15.7090909 33.9647727,14.419697 Z M9.33409091,40.6443182 C10.6488636,33.8382576 15.082197,27.6443182 22.9208333,21.6132576 L34.9318182,40.5212121 L16.1545455,51.0147727 L9.02234848,42.9193182 C9.09128788,42.1473485 9.18901515,41.3867424 9.33409091,40.6443182 Z M10.2503788,54.3106061 C10.0765152,53.6912879 9.94621212,53.0897727 9.80833333,52.4886364 L11.0291667,53.8761364 L10.2503788,54.3106061 Z M12.1666667,59.8090909 L14.9087121,58.2768939 L30.1037879,75.5257576 L23.080303,79.4522727 C18.0886364,72.0484848 14.4920455,65.5753788 12.1666667,59.8090909 Z M37.8367424,99.1856061 C33.4939394,93.8106061 29.6867424,88.8299242 26.3655303,84.1825758 L33.9829545,79.9231061 L49.9708333,98.0700758 L41.3901515,102.862121 C39.9049242,101.489394 38.6916667,100.24697 37.8367424,99.1856061 Z M45.9977273,106.857576 L53.8503788,102.471212 L78.4306818,130.361742 C66.3829545,122.222727 54.1473485,113.565152 45.9977273,106.857576 Z M91.1768939,136.164015 L58.9685606,99.6094697 L68.9295455,94.0420455 L93.9223485,133.385985 C92.9734848,134.211364 92.0568182,135.139394 91.1768939,136.164015 Z M98.6564394,130.151515 L73.942803,91.2424242 L84.6386364,85.2659091 L105.220076,127.717803 C103.064394,128.202652 100.844318,128.992045 98.6564394,130.151515 Z M89.6481061,82.4621212 L102.20947,75.4424242 C105.346212,90.7859848 107.154167,107.002652 108.185985,120.701136 L89.6481061,82.4621212 Z M109.295076,150.49697 C109.276894,150.482197 109.251515,150.468182 109.229545,150.457197 C109.327652,150.388258 109.443182,150.344697 109.548485,150.287121 C109.548485,150.333712 109.548485,150.392045 109.548485,150.438636 L109.295076,150.49697 Z" id="Shape"></path>
        </g>
    </g>
</svg>