<?xml version="1.0" encoding="UTF-8"?>
<svg width="200px" height="167px" viewBox="0 0 200 167" version="1.1" xmlns="http://www.w3.org/2000/svg" xmlns:xlink="http://www.w3.org/1999/xlink">
    <!-- Generator: Sketch 53.2 (72643) - https://sketchapp.com -->
    <title>curling</title>
    <desc>Created with Sketch.</desc>
    <g id="Page-1" stroke="none" stroke-width="1" fill="none" fill-rule="evenodd">
        <g id="curling" fill="#487BB4" fill-rule="nonzero">
            <path d="M166.653516,66.9269531 L33.35,66.9269531 C14.9601563,66.9269531 0,81.8871094 0,100.276953 L0,133.576953 C0,151.966797 14.9601563,166.926953 33.35,166.926953 L166.65,166.926953 C185.039844,166.926953 200,151.966797 200,133.576953 L200,100.276953 C200,81.8871094 185.039844,66.9269531 166.653516,66.9269531 Z M193.333203,133.576953 C193.333203,148.290234 181.363281,160.260156 166.653125,160.260156 L33.35,160.260156 C18.6367188,160.260156 6.66679688,148.290234 6.66679688,133.576953 L6.66679688,100.276953 C6.66679688,85.5636719 18.6367188,73.59375 33.35,73.59375 L166.65,73.59375 C181.363281,73.59375 193.333203,85.5636719 193.333203,100.276953 L193.333203,133.576953 Z" id="Shape"></path>
            <path d="M143.333203,46.9269531 L56.6667969,46.9269531 C43.8,46.9269531 33.3335937,57.396875 33.3335937,70.2601563 C33.3335937,72.1035156 34.8269531,73.5933594 36.6667969,73.5933594 L163.333594,73.5933594 C165.173437,73.5933594 166.666797,72.1035156 166.666797,70.2601563 C166.666797,57.396875 156.2,46.9269531 143.333203,46.9269531 Z M40.3332031,66.9269531 C41.8832031,59.3304688 48.6164062,53.59375 56.6664062,53.59375 L143.333203,53.59375 C151.383203,53.59375 158.116406,59.3304688 159.666406,66.9269531 L40.3332031,66.9269531 Z" id="Shape"></path>
            <path d="M130,0.260546875 L83.3332031,0.260546875 C70.4664063,0.260546875 60,10.7304687 60,23.59375 L60,50.2605469 C60,52.1039062 61.4933594,53.59375 63.3332031,53.59375 L83.3332031,53.59375 C85.1730469,53.59375 86.6664062,52.1039062 86.6664062,50.2605469 L86.6664062,26.9273437 L130,26.9273437 C137.353516,26.9273437 143.333203,20.9472656 143.333203,13.5941406 C143.333203,6.24101562 137.353516,0.260546875 130,0.260546875 Z M130,20.2605469 L83.3332031,20.2605469 C81.4933594,20.2605469 80,21.7503906 80,23.59375 L80,46.9269531 L66.6667969,46.9269531 L66.6667969,23.59375 C66.6667969,14.4039063 74.1433594,6.92695312 83.3335938,6.92695312 L130,6.92695312 C133.676563,6.92695312 136.666797,9.91679687 136.666797,13.59375 C136.666797,17.2707031 133.676563,20.2605469 130,20.2605469 Z" id="Shape"></path>
            <path d="M160,96.9269531 L3.33320312,96.9269531 C1.49335937,96.9269531 0,98.4167969 0,100.260156 C0,102.103516 1.49335938,103.593359 3.33320312,103.593359 L160,103.593359 C161.839844,103.593359 163.333203,102.103516 163.333203,100.260156 C163.333203,98.4167969 161.839844,96.9269531 160,96.9269531 Z" id="Path"></path>
            <path d="M196.666797,96.9269531 L176.666797,96.9269531 C174.826953,96.9269531 173.333594,98.4167969 173.333594,100.260156 C173.333594,102.103516 174.826953,103.593359 176.666797,103.593359 L196.666797,103.593359 C198.506641,103.593359 200,102.103516 200,100.260156 C200,98.4167969 198.506641,96.9269531 196.666797,96.9269531 Z" id="Path"></path>
            <path d="M196.666797,130.260547 L40,130.260547 C38.1601562,130.260547 36.6667969,131.750391 36.6667969,133.59375 C36.6667969,135.437109 38.1601562,136.926953 40,136.926953 L196.666797,136.926953 C198.506641,136.926953 200,135.437109 200,133.59375 C200,131.750391 198.506641,130.260547 196.666797,130.260547 Z" id="Path"></path>
            <path d="M23.3332031,130.260547 L3.33320312,130.260547 C1.49335938,130.260547 0,131.750391 0,133.59375 C0,135.437109 1.49335938,136.926953 3.33320312,136.926953 L23.3332031,136.926953 C25.1730469,136.926953 26.6664063,135.437109 26.6664063,133.59375 C26.6664063,131.750391 25.1734375,130.260547 23.3332031,130.260547 Z" id="Path"></path>
        </g>
    </g>
</svg>