<?xml version="1.0" encoding="UTF-8"?>
<svg width="200px" height="193px" viewBox="0 0 200 193" version="1.1" xmlns="http://www.w3.org/2000/svg" xmlns:xlink="http://www.w3.org/1999/xlink">
    <!-- Generator: Sketch 53.2 (72643) - https://sketchapp.com -->
    <title>013-snowshoes</title>
    <desc>Created with Sketch.</desc>
    <g id="Page-1" stroke="none" stroke-width="1" fill="none" fill-rule="evenodd">
        <g id="013-snowshoes" fill="#4A7CB2" fill-rule="nonzero">
            <path d="M96.1285156,40.5027344 C95.8078125,31.8628906 96.384375,22.7039063 93.7871094,14.3304688 C88.6019531,-2.3859375 69.7359375,-1.4546875 56.2625,3.5234375 C40.8960937,9.20117188 27.2992187,19.6789062 17.3390625,32.571875 C7.39882812,45.4390625 2.33476562,60.7835938 0.698046875,76.8292969 C-1.15585938,95.0011719 0.703125,113.658984 6.04335937,131.16875 C8.60039062,139.553125 11.5933594,148.030859 15.6054687,155.840625 C19.2171875,162.871875 23.3136719,170.419531 28.8394531,176.15 C39.5832031,187.291406 60.8074219,199.335156 75.1820312,188.175 C82.1246094,182.784766 83.4394531,174.160547 84.7261719,166.005078 C85.465625,161.318359 86.0855469,156.624219 86.66875,151.914453 C86.8882812,150.141797 87.0371094,148.338281 87.1859375,146.529297 C88.55,138.499609 89.9082031,130.471484 91.1253906,122.417578 C93.8027344,104.705469 95.1207031,86.6484375 95.7105469,68.7441406 C96.0207031,59.3351563 96.4785156,49.915625 96.1285156,40.5027344 Z M91.0878906,69.4945313 C90.7433594,87.5519531 89.5835937,105.6375 87.0910156,123.51875 C85.8851562,132.168359 84.2730469,140.760156 83.0847656,149.412891 C82.6308594,152.146484 82.20625,154.871484 81.6734375,157.503125 C80.253125,164.517578 79.6066406,173.423828 75.909375,179.663281 C66.321875,195.842578 44.7140625,183.196875 34.5945312,174.420313 C28.9921875,169.561719 25.4160156,162.797266 21.775,156.450781 C17.5769531,149.133984 14.6597656,141.217188 11.9632812,133.249219 C6.91523437,118.331641 4.01445312,101.733984 4.5453125,85.9707031 C5.0828125,70.0007812 7.796875,54.1175781 16.4359375,40.3964844 C24.8203125,27.0796875 37.2335937,16.5996094 51.578125,10.1667969 C58.2777344,7.16210937 66.2109375,4.6890625 73.6292969,5.184375 C82.2867187,5.7625 87.7457031,10.471875 89.5933594,18.9390625 C91.3925781,27.1839844 91.1425781,36.0242187 91.3789062,44.4261719 C91.6140625,52.7777344 91.2472656,61.1441406 91.0878906,69.4945313 Z" id="Shape"></path>
            <path d="M87.3332031,38.5957031 C87.0203125,31.6605469 86.253125,22.6601562 81.8070313,17.0179688 C78.2546875,12.5101563 71.6324219,8.77890625 65.7671875,9.61601562 C63.1585938,9.98828125 60.4933594,11.4769531 58.0828125,12.7582031 C56.540625,13.328125 55.0195313,13.99375 53.5296875,14.7070312 C53.2339844,14.6289062 52.9636719,14.7996094 52.8199219,15.0550781 C50.5203125,16.1863281 48.2980469,17.4132812 46.2,18.5703125 C42.9375,20.3691406 39.7207031,22.5195312 36.7347656,24.9410156 C36.3589844,24.8792969 36.0847656,25.1800781 36.0304688,25.5292969 C33.5734375,27.584375 31.28125,29.8171875 29.2902344,32.2117187 C19.0097656,44.5753906 12.3835938,57.8011719 10.3097656,73.8617187 C9.24921875,82.0730469 8.80273438,90.4628906 10.0582031,98.6773437 C11.2757813,106.646094 12.9980469,114.560156 14.8601563,122.398438 C18.26875,136.747266 23.3347656,151.629297 31.2523438,164.164062 C34.6921875,169.610156 39.5101563,175.311719 45.3160156,178.270312 C50.0578125,180.686719 56.39375,183.884375 61.8777344,182.719531 C67.7132813,181.479688 70.9375,176.046484 73.0730469,170.953516 C75.7667969,164.529687 76.6574219,157.491797 77.9289063,150.68125 C80.5953125,136.398438 81.1070313,122.013281 81.9269531,107.571875 C82.7589844,92.9152344 84.3132813,78.2929688 85.9648438,63.6828125 C86.4285156,59.5820313 86.4554688,55.4832031 86.7453125,51.3742188 C87.0414062,47.1816406 87.521875,42.7851562 87.3332031,38.5957031 Z M77.7578125,17.2886719 C78.61875,18.1296875 79.3792969,19.0703125 80,20.1 C81.8503906,23.1695312 82.3808594,26.475 82.9488281,29.9410156 C83.5179688,33.4144531 82.0707031,34.8042969 79.8183594,35.6308594 C76.2714844,32.1457031 71.9871094,29.359375 68.0917969,26.2660156 C69.4449219,24.9992187 70.815625,23.7507812 72.1839844,22.5089844 C73.9964844,20.8640625 76.2128906,19.278125 77.7578125,17.2886719 Z M77.0996094,36.384375 C76.1871094,36.5925781 75.2332031,36.7992188 74.2804687,37.0628906 C71.2585938,37.8992188 68.2183594,38.6714844 65.2160156,39.5730469 C62.2203125,40.4730469 59.1835937,41.284375 56.1609375,42.1367188 C55.6535156,41.1890625 54.8886719,40.4496094 54.0433594,39.7765625 C57.5457031,36.6746094 60.890625,33.3808594 64.171875,30.0640625 C64.9144531,29.3136719 65.6710937,28.5746094 66.4335938,27.8414062 C66.8046875,28.1332031 67.1757812,28.4269531 67.5460937,28.7148438 C70.1335938,30.7238281 72.6691406,32.79375 75.2585938,34.8117187 C75.9191406,35.3261719 76.5007813,35.8886719 77.0996094,36.384375 Z M63.0125,13.6628906 C67.2761719,12.0800781 72.2355469,13.1167969 75.99375,15.8160156 C73.9078125,17.5457031 71.9617188,19.8476562 70.1808594,21.5179687 C68.9507813,22.671875 67.7191406,23.81875 66.4941406,24.9730469 C62.9671875,22.065625 59.5339844,19.0550781 55.871875,16.3335937 C58.2140625,15.3472656 60.6222656,14.55 63.0125,13.6628906 Z M54.4015625,17.3917969 C57.6710937,20.6125 61.2296875,23.6769531 64.825,26.5625 C63.7804687,27.5636719 62.7429687,28.5726562 61.725,29.6074219 C58.7070312,32.6765625 55.49375,35.5421875 52.4164062,38.5507812 C52.2957031,38.4605469 52.1742187,38.3710937 52.0554687,38.2792969 C50.3359375,36.95 48.7578125,35.490625 47.1519531,34.0289062 C45.4132812,32.4460937 43.584375,31.053125 41.8414062,29.496875 C44.7054687,26.7835937 47.509375,23.925 50.2550781,21.0929687 C51.3144531,20.0007812 53.0902344,18.7757812 54.4015625,17.3917969 Z M52.1808594,41.3945312 C52.7351562,41.8609375 53.2855469,42.3335937 53.8363281,42.8050781 C51.9621094,43.3546875 50.0980469,43.9308594 48.2605469,44.571875 C49.5941406,43.5488281 50.8980469,42.4851562 52.1808594,41.3945312 Z M45.9707031,45.3613281 C41.8226563,46.809375 37.6066406,48.1132812 33.4171875,49.4714844 C33.3902344,49.3269531 33.3609375,49.184375 33.3023438,49.0816406 C33.0972656,48.7222656 32.6875,48.4050781 32.3808594,48.1492187 C31.3335938,47.2761719 30.1003906,46.6695312 29.0714844,45.7742187 C28.2722656,45.0785156 27.4625,44.3296875 26.7011719,43.5625 C27.9441406,42.3882812 29.1617188,41.1980469 30.3878906,40.109375 C33.7191406,37.1523437 36.9878906,34.0703125 40.2382813,31.0121094 C41.9441406,32.6792969 43.7113281,34.0488281 45.5054688,35.675 C47.1890625,37.2007812 48.9207031,38.659375 50.6566406,40.1144531 C48.8390625,41.6289062 46.653125,43.3773437 45.9707031,45.3613281 Z M42.9511719,23.4367187 C44.7011719,22.1417969 46.578125,21.0558594 48.4847656,20.0335937 C48.1277344,20.3945312 47.7695312,20.7570312 47.4035156,21.1191406 C45.0617187,23.4355469 42.7828125,25.8445312 40.3816406,28.1019531 C39.9105469,27.5867187 39.4386719,27.0226562 38.9390625,26.5015625 C40.2515625,25.4503906 41.5972656,24.4382812 42.9511719,23.4367187 Z M26.3363281,40.8609375 C29.0617188,37.2683594 31.4417969,33.5378906 34.6335938,30.3191406 C35.5445312,29.4003906 36.5085938,28.54375 37.4910156,27.7085937 C37.9402344,28.3101562 38.3816406,28.921875 38.8574219,29.5171875 C35.5054688,32.5234375 32.3015625,35.6597656 28.9910156,38.7121094 C28.0023438,39.6234375 26.934375,40.5363281 25.8804688,41.4832031 C26.0332031,41.2761719 26.1800781,41.0667969 26.3363281,40.8609375 Z M21.8953125,47.6140625 C23.1613281,46.7371094 24.3632812,45.7140625 25.534375,44.6460937 C26.3980469,45.7398437 27.2835937,46.8128906 28.3976562,47.7414062 C29.3355469,48.5234375 30.3699219,49.1597656 31.275,49.9855469 C31.33125,50.0367187 31.38125,50.0820312 31.4328125,50.1289062 C30.6046875,50.4023437 29.775,50.671875 28.9507812,50.9539062 C25.8628906,52.0109375 22.7691406,53.1730469 19.6550781,54.1152344 C19.2925781,54.225 18.9234375,54.3285156 18.5558594,54.4375 C19.5265625,52.1140625 20.6355469,49.8378906 21.8953125,47.6140625 Z M15.4523438,63.68125 C17.7417969,66.1960937 20.0835937,68.6328125 22.4871094,70.9964844 C19.0839844,74.3636719 15.6242188,77.834375 12.6324219,81.5207031 C13.0554687,75.4230469 13.9289063,69.4472656 15.4523438,63.68125 Z M62.0859375,105.441406 C61.659375,100.088281 60.8683594,95.2980469 61.3316406,89.8957031 C61.4105469,88.975 61.5242187,88.03125 61.9601562,87.2167969 C63.2828125,84.7445312 64.2980469,85.9835937 64.7,87.8082031 C65.1339844,89.7785156 65.2027344,91.80625 65.4476562,93.8011719 C65.8390625,96.9871094 66.3242188,100.165625 66.4925781,103.362891 C66.8824219,110.766406 64.6828125,118.438281 58.4941406,123.126953 C55.1144531,125.6875 50.2324219,125.512891 46.5644531,123.512109 C42.8433594,121.482031 40.6800781,117.483984 39.459375,113.569922 C38.3628906,110.053516 37.5035156,106.404297 37.1203125,102.728906 C36.9402344,101.005078 36.7480469,99.1238281 36.6449219,97.2285156 C36.78125,95.3316406 35.6832031,89.2878906 38.5386719,89.3367188 C41.5550781,89.3882813 40.5683594,94.3464844 40.6882813,96.1054688 C40.9132813,99.4042969 40.85625,102.709766 41.1042969,106.007422 C41.4269531,110.298047 42.1238281,115.862109 45.7488281,118.737109 C48.7570312,121.122656 54.3527344,120.502344 57.490625,118.514453 C61.6589844,115.873437 62.4441406,109.936719 62.0859375,105.441406 Z M42.7714844,88.85625 C43.7796875,89.6785156 44.7890625,90.4964844 45.7996094,91.3152344 C45.5203125,91.6804687 45.2414062,92.0429687 44.9621094,92.415625 C44.4644531,93.0800781 43.8421875,93.8003906 43.3679687,94.5761719 C43.2988281,92.9769531 43.1816406,90.8105469 42.7714844,88.85625 Z M54.4292969,116.923828 C50.8980469,117.949219 48.5378906,117.228516 46.9449219,115.522266 C49.6589844,113.578906 51.8445313,110.212109 53.9644531,107.837109 C55.2425781,106.405469 56.5246094,104.979687 57.7390625,103.501953 C58.1558594,102.994922 58.6027344,102.527734 59.0320313,102.051562 C59.2761719,102.054297 59.4679688,101.947656 59.5898438,101.782031 C60.3019531,108.210937 60.4191406,115.184375 54.4292969,116.923828 Z M50.5492188,108.396094 C49.1519531,109.987891 47.8808594,111.674609 46.5578125,113.321484 C46.3339844,113.6 46.0992187,113.837891 45.8824219,114.067969 C43.2699219,109.482031 43.7105469,101.25625 43.4640625,96.5367187 C44.478125,95.0527344 45.8507812,93.7242188 47.1109375,92.3777344 C47.7421875,92.8882812 48.3726562,93.4011719 49.003125,93.9113281 C51.2027344,95.6894531 53.2605469,97.4804688 55.3597656,99.3699219 C55.9695313,99.9183594 56.5632812,100.605859 57.225,101.156641 C55.0480469,103.603125 52.7066406,105.9375 50.5492188,108.396094 Z M37.2941406,81.5074219 C36.7472656,81.028125 36.1949219,80.5546875 35.6445312,80.0796875 C37.6667969,77.95 39.6890625,75.8207031 41.6953125,73.6769531 C43.9910156,71.2238281 46.2757812,68.7605469 48.5613281,66.2980469 C51.5851562,68.478125 54.6734375,70.5808594 57.4867187,73.0011719 C58.4230469,73.8070312 59.396875,74.5617187 60.3839844,75.2976562 C57.1355469,78.9039062 53.8191406,82.5050781 50.4167969,85.9148438 C49.2789063,87.0550781 48.2511719,88.2378906 47.2601563,89.4582031 C43.8769531,86.8269531 40.4382813,84.2636719 37.2941406,81.5074219 Z M37.2953125,84.3414062 C37.3105469,84.3542969 37.3265625,84.3671875 37.3421875,84.3800781 C37.2519531,84.4164062 37.1640625,84.4480469 37.0710938,84.490625 C32.8960937,86.3980469 34.0222656,92.0738281 34.3652344,95.61875 C34.6078125,98.1277344 34.3835937,100.710937 34.6203125,103.277344 C33.6726563,103.848437 32.8804688,104.571094 32.1414063,105.353125 C29.684375,103.335156 27.1816406,101.385547 24.7351562,99.3542969 C23.3660156,98.2171875 22.0035156,97.1105469 20.6578125,95.9851562 C22.9238281,93.5273437 25.2222656,91.0992187 27.5132812,88.6640625 C29.7152344,86.3234375 31.9300781,83.9957031 34.1429688,81.6671875 C35.1851562,82.5636719 36.2351563,83.4546875 37.2953125,84.3414062 Z M35.2996094,107.957031 C34.8667969,107.578516 34.421875,107.211719 33.9757813,106.848828 C34.2941406,106.402344 34.5980469,105.950391 34.8804688,105.491406 C34.9984375,106.330859 35.1433594,107.15 35.2996094,107.957031 Z M32.4460937,108.812891 C33.6917969,109.867578 34.9535156,110.896875 36.2410156,111.883594 C36.3042969,112.101172 36.3632812,112.329297 36.4285156,112.540234 C37.2527344,115.204687 38.2105469,117.837891 39.5585938,120.152344 C36.4878906,122.796094 33.7984375,126.042578 31.1867188,129.232031 C30.9183594,129.042578 30.6496094,128.851953 30.3820313,128.663672 C27.2285156,126.444922 24.3195313,123.915234 21.4265625,121.371875 C21.3703125,121.322266 21.3125,121.266016 21.2558594,121.214844 C23.1246094,119.291016 24.9117187,117.279297 26.6460937,115.26875 C28.4421875,113.186719 30.5738281,111.067578 32.4460937,108.812891 Z M38.5136719,123.902344 C39.1644531,123.1375 39.8996094,122.348437 40.3808594,121.450391 C42.1320313,123.979297 44.4796875,126.001953 47.8429688,127.055078 C51.5574219,128.218359 55.1609375,128.007031 58.2847656,126.484375 C58.7300781,126.907812 59.11875,127.396484 59.5917969,127.789453 C60.1589844,128.260156 60.7785156,128.660156 61.3890625,129.075391 C60.8980469,129.580078 60.4066406,130.084766 59.9167969,130.589844 C58.8382813,131.701562 57.6535156,132.785937 56.8738281,134.126562 C54.0078125,135.059766 51.1429688,136.001172 48.2992188,136.965625 C46.7363281,137.495312 45.1828125,138.055859 43.6320313,138.623828 C42.2839844,136.990625 40.1136719,135.914844 38.4828125,134.614844 C36.7105469,133.202344 34.8632812,131.849219 33.003125,130.521094 C34.8375,128.311719 36.6496094,126.09375 38.5136719,123.902344 Z M61.1035156,131.776953 C61.6707031,131.237109 62.23125,130.687891 62.7921875,130.139453 C63.3878906,130.648047 63.9761719,131.165625 64.5757813,131.669141 C63.9304688,131.85625 63.2941406,132.047266 62.6742188,132.246875 C61.7183594,132.555078 60.7570313,132.86875 59.7988281,133.178906 C60.2378906,132.693359 60.6628906,132.196094 61.1035156,131.776953 Z M60.6539062,125.973437 C60.4335938,125.811719 60.2277344,125.6375 60.0242188,125.46875 C61.1714844,124.675391 62.2347656,123.683203 63.1898438,122.492188 C66.3179688,118.592578 68.1050781,114.714453 68.9171875,110.466797 C70.5484375,112.320703 72.4339844,113.977734 74.2425781,115.647266 C71.9191406,118.319531 69.3265625,120.840234 66.9972656,123.277734 C65.6542969,124.683594 64.3,126.080469 62.9441406,127.475391 C62.18125,126.973438 61.3925781,126.514844 60.6539062,125.973437 Z M67.9671875,89.7605469 C67.5921875,87.0496094 67.2917969,83.5734375 64.9070313,81.7921875 C61.8003906,79.4714844 58.5691406,81.2566406 58.4738281,85.0535156 C58.4074219,87.7136719 58.8949219,90.2425781 58.7753906,92.9136719 C58.7039063,94.5089844 58.9585937,96.6140625 59.246875,98.91875 C59.1472656,98.9609375 59.053125,99.0210937 58.9742187,99.1183594 C58.8339844,99.2910156 58.6808594,99.4550781 58.5378906,99.6261719 C55.6464844,96.2933594 52.2332031,93.3804687 48.6996094,90.5871094 C50.2949219,88.7464844 52.0761719,87.1230469 53.6902344,85.2984375 C56.3644531,82.2746094 59.1851563,79.3878906 61.9644531,76.4578125 C64.0292969,77.953125 66.1085937,79.4242187 68.0140625,81.1203125 C69.71875,82.6378906 71.5410156,83.9234375 73.3226562,85.3511719 C71.5089844,87.4308594 69.7460938,89.8980469 68.3164062,92.2859375 C68.2003906,91.4402344 68.0828125,90.5964844 67.9671875,89.7605469 Z M61.6816406,73.8519531 C61.5234375,73.7242188 61.3582031,73.603125 61.2011719,73.4742187 C57.5175781,70.4542969 53.7890625,67.609375 49.9894531,64.765625 C51.7300781,62.8921875 53.4699219,61.0175781 55.2203125,59.153125 C57.1140625,57.1359375 58.8941406,54.7199219 60.9375,52.8734375 C61.95,51.9585937 63.0953125,51.2726562 64.0511719,50.3769531 C65.1917969,51.6847656 66.2402344,53.0738281 67.5332031,54.2859375 C69.3933594,56.0300781 71.3078125,57.75 73.2742188,59.3722656 C73.5253906,59.5796875 73.7710937,59.7992187 74.0183594,60.0148437 C70.4195313,64.2667969 66.6199219,68.3292969 62.8957031,72.4984375 C62.4941406,72.9488281 62.0859375,73.4007812 61.6816406,73.8519531 Z M58.5582031,52.0011719 C56.4574219,54.11875 54.5324219,56.4457031 52.5222656,58.6507812 C51.0773437,60.2355469 49.6257812,61.821875 48.1699219,63.4058594 C48.0640625,63.3269531 47.9597656,63.2484375 47.8535156,63.1695312 C45.0566406,61.0886719 42.6152344,58.6660156 39.9457031,56.4816406 C44.1546875,55.3207031 48.3570312,54.109375 52.5039062,52.8304687 C55.0207031,52.0546875 57.5699219,51.3492187 60.121875,50.6488281 C59.5769531,51.0710937 59.0457031,51.5101562 58.5582031,52.0011719 Z M44.5511719,63.2738281 C45.2664062,63.8503906 45.9984375,64.4074219 46.7359375,64.9585937 C43.8515625,68.078125 40.9378906,71.1742187 37.9605469,74.1816406 C36.5570312,75.5992187 35.1800781,77.0445312 33.8152344,78.5011719 C31.1109375,76.1835937 28.4,73.8753906 25.7941406,71.4570312 C25.6527344,71.3253906 25.5117188,71.1890625 25.3707031,71.0535156 C25.846875,70.559375 26.3238281,70.0675781 26.8089844,69.590625 C30.6113281,65.8503906 35.2214844,62.0277344 38.7949219,57.8085937 C40.3617187,59.9082031 42.8914062,61.9359375 44.5511719,63.2738281 Z M34.5835938,58.8492187 C31.6859375,61.8054687 28.7625,64.7457031 25.8382813,67.6726562 C25.2035156,68.3082031 24.5589844,68.946875 23.9109375,69.5878906 C21.6398438,67.2195312 19.3675781,64.5515625 16.8398438,62.5671875 C17.6039063,62.4632812 18.3832031,62.4074219 19.0355469,62.2363281 C20.728125,61.7925781 22.3304688,61.0824219 24.0257813,60.6324219 C26.7550781,59.9078125 29.496875,59.2625 32.2316406,58.5527344 C33.3820312,58.2539062 34.5355469,57.9449219 35.6882813,57.6375 C35.3019531,58.0746094 34.9328125,58.4925781 34.5835938,58.8492187 Z M12.3648437,86.8445312 C12.396875,85.7542969 12.4429687,84.6675781 12.5003906,83.5839844 C16.8269531,80.5363281 20.3761719,76.3816406 24.0207031,72.4773437 C26.7246094,75.0808594 29.4972656,77.6128906 32.3378906,80.0960937 C29.3515625,83.3269531 26.4152344,86.6074219 23.45,89.8546875 C21.9949219,91.4484375 20.559375,93.0617187 19.1382812,94.6875 C18.1230469,93.8113281 17.1164062,92.9203125 16.1339844,91.9753906 C15.078125,90.9601562 13.771875,89.2742187 12.3421875,88.3246094 C12.3457031,87.83125 12.3503906,87.3375 12.3648437,86.8445312 Z M12.3917969,91.2554687 C13.9160156,93.1398437 15.734375,94.8425781 17.6304687,96.4429687 C17.1375,97.01875 16.634375,97.5863281 16.1480469,98.1679687 C15.3292969,99.1464844 14.2460937,100.210937 13.4,101.358594 C12.8746094,97.9871094 12.5167969,94.6132812 12.3917969,91.2554687 Z M13.7066406,103.226562 C15.1617187,101.261719 17.2476562,99.4125 19.0640625,97.628125 C20.4929688,98.7847656 21.9339844,99.8960937 23.2964844,100.993359 C25.7507812,102.969531 28.1300781,105.090234 30.5355469,107.175781 C30.1574219,107.620312 29.7753906,108.065234 29.3746094,108.498047 C27.4070313,110.620703 25.3980469,112.786328 23.5933594,115.048047 C22.5292969,116.381641 20.8460938,117.853516 19.4035156,119.437109 C18.5976563,118.655469 17.7539063,117.893359 16.8613281,117.304687 C15.6429687,112.657031 14.525,107.948437 13.7066406,103.226562 Z M20.6445312,131.090625 C19.9878906,128.69375 19.3042969,126.262109 18.6234375,123.807812 C18.9910156,123.467187 19.3445313,123.109375 19.7046875,122.759375 C22.2335938,125.23125 25.0933594,127.458984 27.7605469,129.4375 C28.4359375,129.938281 29.1046875,130.445312 29.7761719,130.950391 C29.4511719,131.344531 29.1265625,131.738281 28.8019531,132.125781 C27.5113281,133.665234 24.5953125,136.694141 23.2136719,139.422656 C22.2640625,136.642187 21.4015625,133.853516 20.6445312,131.090625 Z M23.9742187,141.620313 C24.6308594,140.932813 25.1136719,140.038281 25.71875,139.290625 C27.6292969,136.928906 29.5953125,134.598437 31.5425781,132.276562 C34.7699219,134.717187 37.99375,137.153125 41.3042969,139.480859 C38.7414062,140.432812 36.1816406,141.392187 33.6042969,142.289453 C30.978125,143.203516 27.7007812,143.670703 25.3339844,145.212891 C24.8609375,144.020703 24.4089844,142.822266 23.9742187,141.620313 Z M29.6433594,154.706641 C31.0816406,156.478516 33.05625,158.041406 34.7507813,159.428125 C34.2207031,159.982031 33.7351563,160.548047 33.4039063,161.239453 C32.0640625,159.13125 30.8097656,156.948828 29.6433594,154.706641 Z M58.071875,154.074609 C59.203125,155.041797 60.3707031,155.9875 61.5429687,156.926953 C61.3296875,157.176562 61.121875,157.43125 60.9066406,157.678516 C58.3691406,160.587891 55.8488281,163.565234 53.5601563,166.675 C52.884375,167.592969 52.1605469,168.524219 51.4296875,169.467187 C49.4261719,167.966797 47.4304688,166.464844 45.4382813,164.9875 C42.7460938,162.991406 39.9898437,161.070703 37.3394531,159.020312 C38.9175781,157.510547 40.559375,156.040625 42.0476562,154.518359 C43.5007812,153.032422 44.8699219,151.425 46.2761719,149.889062 C46.8679688,149.242969 47.784375,148.583203 48.1472656,147.750391 C48.8335938,147.561328 49.5148438,147.359375 50.2007813,147.168359 C51.3898437,149.775 56.23125,152.500781 58.071875,154.074609 Z M52.1519531,146.616016 C53.8996094,146.123437 55.6515625,145.641016 57.3914062,145.13125 C61.7746094,143.846875 66.3019531,142.526953 70.5453125,140.836719 C71.5535156,140.435156 72.8613281,140.013281 74.1765625,139.503125 C70.7097656,144.831641 67.0988281,150.151563 63.0851562,155.08125 C62.6535156,154.745313 62.2265625,154.404297 61.7914062,154.071875 C59.8957031,152.622656 58.1355469,151.038281 56.1972656,149.677344 C54.8683594,148.745313 53.5863281,147.480859 52.1519531,146.616016 Z M43.8996094,150.003906 C42.4125,151.442969 41.0246094,152.951562 39.5007812,154.351172 C38.2785156,155.473828 37.2230469,156.798437 36.0886719,158.028906 C34.1144531,156.367578 32.225,154.042187 30.0476562,152.603516 C31.459375,152.30625 33.0679687,152.189844 34.1179687,151.844922 C36.5628906,151.041406 38.9097656,150.218359 41.4101562,149.566406 C42.8722656,149.185156 44.3316406,148.780469 45.7925781,148.385547 C45.121875,148.965625 44.3992188,149.520703 43.8996094,150.003906 Z M36.6371094,165.954297 C35.7617188,164.794531 34.9304688,163.591406 34.1222656,162.367578 C34.6929687,161.694531 35.3035156,161.040625 35.9359375,160.398438 C38.6625,162.644922 41.5539062,164.678125 44.3675781,166.819922 C46.2773437,168.273828 48.2449219,169.663672 50.1960937,171.073047 C49.1125,172.501953 48.0621094,173.960156 47.1789062,175.453516 C43.0902344,173.083984 39.6363281,169.928516 36.6371094,165.954297 Z M53.2980469,178.251172 C51.5875,177.666406 49.9765625,176.974219 48.4515625,176.178906 C49.6015625,174.897656 50.7007812,173.577734 51.7804688,172.238281 C53.1347656,173.235937 54.4769531,174.247266 55.7699219,175.316016 C57.1871094,176.4875 58.8746094,178.2125 60.665625,179.539844 C58.2105469,179.837109 55.615625,179.043359 53.2980469,178.251172 Z M68.9726562,172.123047 C67.6160156,174.561328 66.25,176.916406 63.8695313,178.390234 C60.203125,175.948047 56.6007813,173.324219 53.0320313,170.664062 C53.8027344,169.686328 54.5695313,168.703125 55.3386719,167.714453 C57.8539063,164.480469 60.6925781,161.498047 63.2753906,158.312891 C63.709375,158.660156 64.1429688,159.007031 64.5722656,159.354688 C66.7652344,161.13125 70.0527344,162.803906 71.7019531,165.2375 C71.0292969,167.633984 70.175,169.961719 68.9726562,172.123047 Z M73.9742187,154.583594 C73.4636719,157.153516 73.0101563,159.80625 72.4152344,162.422656 C71.2476562,161.203516 69.653125,160.226172 68.425,159.270312 C67.203125,158.319141 65.9902344,157.358203 64.775,156.399609 C64.7910156,156.378125 64.8082031,156.357422 64.8242188,156.335937 C67.4667969,152.792578 70.428125,149.429297 72.7277344,145.646875 C73.5335937,144.321484 75.196875,142.428125 76.2847656,140.542187 C75.6652344,145.244922 74.8996094,149.925781 73.9742187,154.583594 Z M76.9605469,135.008984 C74.6804688,135.378125 72.2648438,136.828516 70.3183594,137.647656 C65.0574219,139.861719 59.3707031,141.463281 53.8894531,143.048437 C48.1046875,144.721484 42.0515625,146.037891 36.403125,148.120703 C34.0863281,148.975 31.8496094,150.016406 29.5269531,150.880469 C28.9808594,151.083594 28.4558594,151.200391 28.0023438,151.407422 C27.2828125,149.876562 26.6039063,148.324219 25.9566406,146.759375 C35.3277344,145.227344 44.3851563,140.940625 53.4816406,138.302734 C58.246875,136.920703 62.9148438,135.219531 67.6328125,133.679297 C67.6871094,133.666406 67.7367188,133.651172 67.7871094,133.628516 C68.1867188,133.498437 68.5847656,133.361719 68.9855469,133.234375 C70.959375,132.607031 75.1355469,131.875391 77.390625,130.261328 C77.2660156,131.844922 77.125,133.427734 76.9605469,135.008984 Z M77.6046875,127.130469 C77.4109375,127.128516 77.2164062,127.162891 77.0386719,127.266406 C74.1523437,128.951172 70.6664062,129.960156 67.2625,130.910156 C67.1851562,130.845703 67.1070313,130.780859 67.0257813,130.714453 C66.1457031,130 65.2820313,129.263281 64.3976562,128.553125 C66.3808594,126.573828 68.3351562,124.560937 70.2726562,122.546875 C72.0632813,120.685156 73.8316406,118.821094 75.5273437,116.883203 C76.3769531,117.754688 77.1742187,118.675781 78.0160156,119.56875 C77.8980469,122.090234 77.7691406,124.610938 77.6046875,127.130469 Z M78.1566406,116.448437 C77.7519531,116.01875 77.3546875,115.607812 76.9511719,115.20625 C77.1042969,115.021875 77.2625,114.843359 77.4140625,114.657422 C77.7078125,114.296484 78.0074219,113.958594 78.284375,113.622656 C78.2425781,114.564453 78.1984375,115.50625 78.1566406,116.448437 Z M79.309375,97.1960937 C78.9015625,101.521875 78.6519531,105.858203 78.44375,110.198047 C78.3246094,110.249219 78.2199219,110.331641 78.15,110.444922 C77.4082031,111.653125 76.5582031,112.825781 75.6433594,113.970312 C73.5105469,112.071875 71.4808594,110.004687 69.2574219,108.208594 C69.5,105.988281 69.5113281,103.657422 69.3273437,101.159766 C69.1613281,98.9035156 68.8890625,96.6109375 68.5890625,94.3285156 C68.6175781,94.3070312 68.6480469,94.2964844 68.675,94.2691406 C71.0472656,91.8847656 72.9054688,89.1421875 75.0601563,86.6183594 C76.6730469,87.7757812 78.7714844,89.3472656 79.0566406,90.3050781 C79.1992188,90.7835937 79.5597656,91.009375 79.9390625,91.0371094 C79.7175781,93.0902344 79.5027344,95.1429687 79.309375,97.1960937 Z M80.2414062,88.2535156 C79.8914063,87.9171875 79.4542969,87.6371094 78.9207031,87.2316406 C78.0476562,86.5679687 77.1960938,85.875 76.3480469,85.1765625 C78.0957031,83.3214844 79.7542969,81.3792969 81.2613281,79.3242187 C80.9214844,82.3011719 80.5742188,85.2777344 80.2414062,88.2535156 Z M81.6792969,75.5878906 C79.1632812,78.1007812 77.021875,81.128125 74.6910156,83.809375 C74.065625,83.2921875 73.4382812,82.7773437 72.8027344,82.2738281 C69.6890625,79.80625 66.3980469,77.515625 63.2535156,75.0878906 C64.1132812,74.1695312 64.9707031,73.2484375 65.8105469,72.3097656 C69.0539062,68.684375 72.5132812,65.2164062 75.6519531,61.4933594 C77.8761719,63.5871094 80.0511719,65.8144531 82.5152344,67.5042969 C82.2609375,70.1996094 81.9773437,72.8941406 81.6792969,75.5878906 Z M83.19375,59.0070312 C83.078125,60.8394531 82.9339844,62.6707031 82.7785156,64.5011719 C81.3023437,62.7078125 79.0109375,60.9992187 77.1765625,59.6265625 C77.2617187,59.5183594 77.3511719,59.4132812 77.4355469,59.3046875 C79.35625,56.840625 81.459375,54.5007812 83.3308594,51.9863281 C83.4324219,51.8503906 83.5609375,51.6347656 83.7023437,51.3832031 C83.5371094,53.9386719 83.3527344,56.4886719 83.19375,59.0070312 Z M83.8667969,48.6089844 C83.059375,49.3246094 82.2699219,50.5570312 82.0960938,50.7507812 C80.3800781,52.6640625 78.5074219,54.4847656 76.9125,56.5027344 C76.4335938,57.1085937 75.93125,57.6914062 75.4421875,58.2875 C75.4082031,58.259375 75.3683594,58.2285156 75.3355469,58.2011719 C71.9300781,55.3402344 68.5996094,51.9441406 64.7371094,49.6378906 C64.8289063,49.5246094 64.9230469,49.4140625 65.0082031,49.2925781 C67.1882813,48.6742187 69.3578125,48.0304687 71.4953125,47.315625 C74.04375,46.4636719 76.5710938,45.5449219 79.1171875,44.6792969 C80.6453125,44.1597656 82.6390625,43.8175781 84.1183594,42.91875 C84.0699219,44.8070312 83.975,46.7074219 83.8667969,48.6089844 Z M84.1613281,40.1386719 C84.1292969,40.1472656 84.1007812,40.1425781 84.0675781,40.1542969 C71.9363281,44.4980469 59.2414062,48.0523437 46.803125,51.5382812 C40.1515625,53.4019531 33.5074219,55.2480469 26.8859375,57.1929687 C23.5113281,58.184375 20.4363281,59.1253906 17.1964844,60.5675781 C16.8707031,60.7125 16.5382812,60.8347656 16.2171875,60.9589844 C16.653125,59.528125 17.1273437,58.1097656 17.6535156,56.7085937 C22.3789062,55.0339844 27.5144531,54.1875 32.2695312,52.6074219 C38.4644531,50.5492187 44.7175781,48.6324219 50.9410156,46.6804688 C57.1746094,44.7257812 63.5511719,42.921875 69.8707031,41.2613281 C72.871875,40.4726562 75.8632812,39.6515625 78.8421875,38.78125 C80.4816406,38.3023438 82.7136719,38.103125 83.9875,36.8648437 C84.0941406,37.9214844 84.1644531,38.9777344 84.1628906,40.0265625 C84.1628906,40.0644531 84.1617187,40.1015625 84.1613281,40.1386719 Z" id="Shape"></path>
            <path d="M199.301953,76.8289062 C197.664844,60.7835938 192.600781,45.4390625 182.660938,32.5714844 C172.701172,19.6785156 159.104297,9.20078125 143.737891,3.52304687 C130.264063,-1.4546875 111.398438,-2.3859375 106.213281,14.3304688 C103.616016,22.7039062 104.192578,31.8628906 103.871094,40.5023438 C103.521094,49.9152344 103.978906,59.3351563 104.289063,68.74375 C104.879297,86.6480469 106.196875,104.705469 108.874219,122.417187 C110.091406,130.471094 111.449609,138.499219 112.813672,146.528906 C112.9625,148.337891 113.111328,150.141406 113.330859,151.914062 C113.914063,156.623828 114.533984,161.317969 115.273438,166.004688 C116.560156,174.160547 117.875,182.784375 124.817578,188.174609 C139.192188,199.335156 160.416406,187.291406 171.160156,176.149609 C176.685938,170.419141 180.782031,162.871484 184.394141,155.840234 C188.40625,148.030078 191.399219,139.552734 193.95625,131.168359 C199.296875,113.658594 201.15625,95.0011719 199.301953,76.8289062 Z M188.035938,133.249219 C185.339453,141.217188 182.422266,149.133984 178.224609,156.450781 C174.583594,162.797266 171.007812,169.561719 165.405078,174.420313 C155.285547,183.196484 133.677734,195.842578 124.090234,179.663281 C120.392969,173.423437 119.746484,164.517187 118.326172,157.503125 C117.793359,154.871094 117.36875,152.146094 116.915234,149.412891 C115.726953,140.760156 114.114844,132.16875 112.908984,123.51875 C110.416406,105.6375 109.257031,87.5519531 108.912109,69.4945312 C108.752734,61.1441406 108.386328,52.7777344 108.621094,44.4261719 C108.857422,36.0246094 108.607422,27.184375 110.406641,18.9390625 C112.254297,10.471875 117.713281,5.7625 126.370703,5.184375 C133.789062,4.6890625 141.721875,7.16210938 148.421875,10.1667969 C162.766406,16.5996094 175.179297,27.0796875 183.564063,40.3964844 C192.203125,54.1175781 194.917188,70.0007813 195.454688,85.9707031 C195.984766,101.733984 193.083984,118.331641 188.035938,133.249219 Z" id="Shape"></path>
            <path d="M189.691016,73.8617188 C187.616406,57.8011719 180.990625,44.5753906 170.710156,32.2117188 C168.719141,29.8171875 166.426953,27.584375 163.969922,25.5292969 C163.915625,25.1800781 163.641406,24.8792969 163.265625,24.9410156 C160.279687,22.5199219 157.062891,20.3695313 153.800391,18.5703125 C151.702344,17.4136719 149.480078,16.1863281 147.180469,15.0550781 C147.037109,14.7996094 146.766406,14.6289063 146.470703,14.7070313 C144.980859,13.99375 143.459766,13.328125 141.917578,12.7582031 C139.507031,11.4769531 136.841406,9.98828125 134.233203,9.61601563 C128.367969,8.77890625 121.745312,12.5101563 118.193359,17.0179688 C113.746875,22.6601563 112.979687,31.6605469 112.667578,38.5957031 C112.478906,42.7847656 112.959375,47.18125 113.255078,51.3742188 C113.545312,55.4832031 113.572266,59.5824219 114.035937,63.6828125 C115.6875,78.2929688 117.241797,92.9152344 118.073828,107.571875 C118.89375,122.013281 119.405469,136.398047 122.071875,150.68125 C123.343359,157.491797 124.233984,164.529297 126.927734,170.953516 C129.063281,176.046094 132.2875,181.479687 138.123047,182.719531 C143.607031,183.884375 149.942578,180.686719 154.684766,178.270312 C160.490625,175.311719 165.308594,169.610156 168.748437,164.164062 C176.665625,151.629297 181.732031,136.747266 185.140625,122.398438 C187.002344,114.560156 188.725,106.646094 189.942578,98.6773437 C191.197656,90.4628906 190.751172,82.0730469 189.691016,73.8617188 Z M187.367578,81.5207031 C184.375781,77.834375 180.916016,74.3636719 177.512891,70.9964844 C179.916406,68.6328125 182.258203,66.1957031 184.547656,63.68125 C186.071094,69.4472656 186.944531,75.4230469 187.367578,81.5207031 Z M163.355078,97.2285156 C163.252344,99.1238281 163.059766,101.005078 162.879688,102.728906 C162.496875,106.404688 161.637109,110.053516 160.540625,113.569922 C159.319922,117.483984 157.156641,121.482422 153.435547,123.512109 C149.767578,125.512891 144.885547,125.687109 141.505859,123.126953 C135.316797,118.438281 133.117188,110.766406 133.507422,103.362891 C133.675781,100.165625 134.160937,96.9871094 134.552344,93.8011719 C134.797656,91.80625 134.866016,89.778125 135.3,87.8082031 C135.701562,85.9835937 136.716797,84.7445312 138.039844,87.2167969 C138.475391,88.03125 138.589453,88.975 138.667969,89.8957031 C139.13125,95.2984375 138.340625,100.088281 137.914062,105.441406 C137.555469,109.936719 138.341016,115.873437 142.509375,118.514062 C145.647266,120.501953 151.242969,121.122656 154.251172,118.736719 C157.876172,115.861719 158.573438,110.297656 158.895703,106.007031 C159.14375,102.709375 159.087109,99.4039062 159.311719,96.1050781 C159.431641,94.3460937 158.444922,89.3878906 161.461328,89.3363281 C164.316797,89.2878906 163.21875,95.3320312 163.355078,97.2285156 Z M156.536328,96.5363281 C156.289844,101.255469 156.730078,109.481641 154.117969,114.067578 C153.901563,113.8375 153.666797,113.599609 153.442578,113.321094 C152.119531,111.674219 150.848047,109.9875 149.451172,108.395703 C147.29375,105.9375 144.952344,103.602734 142.775781,101.155859 C143.4375,100.605078 144.03125,99.9175781 144.640625,99.3691406 C146.739844,97.4796875 148.798047,95.6886719 150.997266,93.9105469 C151.627734,93.4007813 152.258594,92.8875 152.889453,92.3769531 C154.149609,93.7238281 155.521875,95.0523438 156.536328,96.5363281 Z M154.200391,91.3148438 C155.210938,90.4960938 156.220313,89.6785156 157.228125,88.8558594 C156.818359,90.8105469 156.700781,92.9765625 156.631641,94.5753906 C156.157422,93.7996094 155.535547,93.0792969 155.0375,92.4148438 C154.758203,92.0429688 154.479297,91.6800781 154.200391,91.3148438 Z M146.035547,107.837109 C148.155469,110.212109 150.341016,113.578906 153.055078,115.522266 C151.462109,117.228125 149.101953,117.949219 145.570703,116.923828 C139.580859,115.184375 139.698047,108.210547 140.410156,101.782031 C140.532031,101.947656 140.723828,102.054297 140.967969,102.051563 C141.397266,102.527734 141.844141,102.994922 142.260938,103.501953 C143.475391,104.979687 144.757422,106.405078 146.035547,107.837109 Z M152.739844,89.4585938 C151.748828,88.2378906 150.720703,87.0550781 149.583203,85.9152344 C146.180859,82.5054687 142.864062,78.9042969 139.616016,75.2980469 C140.603125,74.5621094 141.576953,73.8070313 142.513281,73.0015625 C145.326562,70.58125 148.414844,68.4785156 151.438672,66.2984375 C153.724609,68.7609375 156.008984,71.2242187 158.304687,73.6773438 C160.310937,75.8214844 162.333203,77.9503906 164.355469,80.0800781 C163.805078,80.5550781 163.252734,81.0285156 162.705859,81.5078125 C159.561719,84.2636719 156.123047,86.8269531 152.739844,89.4585938 Z M151.830469,63.4058594 C150.374219,61.821875 148.922656,60.2355469 147.478125,58.6507812 C145.467578,56.4460937 143.542578,54.11875 141.441797,52.0011719 C140.954688,51.5101562 140.423047,51.0710937 139.878125,50.6484375 C142.430078,51.3488281 144.979688,52.0542969 147.496094,52.8300781 C151.643359,54.1089844 155.845703,55.3207031 160.054688,56.48125 C157.385156,58.665625 154.94375,61.0882812 152.146875,63.1691406 C152.040625,63.2480469 151.936328,63.3269531 151.830469,63.4058594 Z M144.779688,59.153125 C146.530078,61.0179688 148.269922,62.8921875 150.010547,64.765625 C146.210547,67.609375 142.482422,70.4542969 138.798828,73.4742188 C138.641797,73.603125 138.476563,73.7242188 138.318359,73.8519531 C137.914062,73.4007813 137.505859,72.9488281 137.103906,72.4988281 C133.379688,68.3296875 129.580078,64.2671875 125.98125,60.0152344 C126.228516,59.7996094 126.474609,59.5800781 126.725781,59.3726563 C128.692188,57.7503906 130.60625,56.0304687 132.466797,54.2863281 C133.759766,53.0738281 134.808594,51.6847656 135.948828,50.3773438 C136.905078,51.2730469 138.050391,51.9589844 139.062891,52.8738281 C141.105859,54.7199219 142.885938,57.1359375 144.779688,59.153125 Z M138.035156,76.4578125 C140.814453,79.3878906 143.634766,82.2746094 146.308984,85.2984375 C147.923047,87.1230469 149.703906,88.746875 151.299609,90.5871094 C147.766016,93.3804688 144.352734,96.2933594 141.461328,99.6261719 C141.31875,99.4550781 141.165625,99.2910156 141.025391,99.1183594 C140.946484,99.0214844 140.852344,98.9609375 140.752734,98.91875 C141.041016,96.6140625 141.295703,94.5089844 141.224219,92.9136719 C141.104688,90.2425781 141.592188,87.7136719 141.525781,85.0535156 C141.430469,81.2566406 138.199219,79.4714844 135.092578,81.7921875 C132.708203,83.5734375 132.407813,87.0496094 132.032813,89.7605469 C131.917188,90.5964844 131.799609,91.4402344 131.683203,92.2863281 C130.253906,89.8984375 128.490625,87.43125 126.676953,85.3515625 C128.458594,83.9234375 130.280859,82.6378906 131.985547,81.1207031 C133.891406,79.4246094 135.970313,77.9535156 138.035156,76.4578125 Z M136.810547,122.492187 C137.765625,123.682812 138.828906,124.675391 139.976172,125.46875 C139.772656,125.6375 139.566797,125.811719 139.346484,125.973437 C138.607422,126.514844 137.819141,126.973828 137.055859,127.475781 C135.7,126.080859 134.346094,124.683984 133.002734,123.278125 C130.673828,120.840234 128.080859,118.319531 125.757812,115.647656 C127.566406,113.978125 129.452344,112.320703 131.083203,110.467187 C131.894922,114.714453 133.682031,118.592578 136.810547,122.492187 Z M137.207813,130.139453 C137.76875,130.687891 138.329297,131.236719 138.896484,131.776953 C139.3375,132.196484 139.762109,132.69375 140.200781,133.178906 C139.242188,132.86875 138.280859,132.555078 137.325391,132.246875 C136.705469,132.047266 136.069141,131.85625 135.423828,131.669141 C136.023828,131.165234 136.612109,130.648047 137.207813,130.139453 Z M140.083203,130.590234 C139.593359,130.085156 139.101953,129.580469 138.610938,129.075781 C139.221484,128.660937 139.841016,128.260547 140.408203,127.789844 C140.88125,127.396875 141.270312,126.908203 141.715234,126.484766 C144.839063,128.007031 148.442578,128.218359 152.157031,127.055469 C155.520312,126.002344 157.867969,123.979687 159.619141,121.450781 C160.100781,122.348438 160.835938,123.137891 161.486719,123.902734 C163.350781,126.094141 165.162891,128.311719 166.997656,130.521484 C165.1375,131.849609 163.289844,133.202734 161.517969,134.615234 C159.887109,135.915234 157.716406,136.990625 156.368359,138.624219 C154.817578,138.05625 153.264062,137.495703 151.701172,136.966016 C148.857422,136.001953 145.992578,135.060156 143.126563,134.126953 C142.346484,132.786328 141.161328,131.701562 140.083203,130.590234 Z M160.441016,120.152734 C161.789062,117.838281 162.746875,115.205078 163.571094,112.540625 C163.636328,112.329687 163.695703,112.101562 163.758594,111.883984 C165.046094,110.897266 166.307812,109.867969 167.553516,108.813281 C169.425781,111.067578 171.557031,113.187109 173.353125,115.269141 C175.0875,117.279687 176.874609,119.291406 178.743359,121.215234 C178.686719,121.266406 178.628906,121.322656 178.572656,121.372266 C175.679687,123.915625 172.770312,126.445703 169.617187,128.664062 C169.349219,128.852734 169.080469,129.043359 168.812109,129.232422 C166.201172,126.042969 163.511719,122.796484 160.441016,120.152734 Z M164.700391,107.957031 C164.856641,107.15 165.001563,106.330859 165.119531,105.491406 C165.401953,105.950781 165.705859,106.402734 166.023828,106.848828 C165.578125,107.211719 165.133594,107.578516 164.700391,107.957031 Z M165.380078,103.277734 C165.617188,100.710938 165.392578,98.128125 165.635156,95.6191406 C165.978125,92.0738281 167.104297,86.3980469 162.929297,84.4910156 C162.836328,84.4484375 162.748437,84.4167969 162.658203,84.3804688 C162.673437,84.3675781 162.689453,84.3546875 162.705078,84.3417969 C163.765234,83.4550781 164.815234,82.5636719 165.857813,81.6679688 C168.071094,83.9964844 170.285938,86.3242188 172.487891,88.6648438 C174.778516,91.1 177.076953,93.5285156 179.343359,95.9859375 C177.997656,97.1113281 176.635156,98.2183594 175.266016,99.3550781 C172.819141,101.386719 170.316797,103.335938 167.859766,105.353906 C167.119922,104.571484 166.327734,103.849219 165.380078,103.277734 Z M162.039453,74.1816406 C159.062109,71.1742188 156.148438,68.0777344 153.264063,64.9585938 C154.001563,64.4078125 154.733203,63.8503906 155.448828,63.2738281 C157.108984,61.9363281 159.638672,59.9082031 161.205469,57.8082031 C164.778906,62.0273438 169.389063,65.85 173.191406,69.5902344 C173.676172,70.0671875 174.153516,70.5589844 174.629297,71.053125 C174.488281,71.1886719 174.347266,71.3253906 174.205859,71.4566406 C171.6,73.875 168.889063,76.1835938 166.184766,78.5007813 C164.819531,77.0445313 163.442969,75.5992187 162.039453,74.1816406 Z M174.161719,67.6726563 C171.2375,64.7457031 168.314453,61.8050781 165.416797,58.8492187 C165.067578,58.4929687 164.698438,58.075 164.311719,57.6378906 C165.464844,57.9453125 166.617969,58.2542969 167.768359,58.553125 C170.503125,59.2628906 173.244922,59.9085937 175.974219,60.6328125 C177.669531,61.0828125 179.271484,61.7929687 180.964453,62.2367187 C181.616797,62.4078125 182.396094,62.4636719 183.160156,62.5675781 C180.632812,64.5519531 178.360156,67.2199219 176.089062,69.5882812 C175.440625,68.946875 174.796484,68.3082031 174.161719,67.6726563 Z M178.104688,47.6140625 C179.364453,49.8378906 180.473047,52.1144531 181.444141,54.4378906 C181.076562,54.3289063 180.707422,54.225 180.344922,54.115625 C177.230859,53.1734375 174.137109,52.0113281 171.049219,50.9542969 C170.225391,50.6722656 169.395312,50.4027344 168.567578,50.1292969 C168.619141,50.0824219 168.669141,50.0371094 168.725391,49.9859375 C169.630859,49.1601563 170.664844,48.5238281 171.602734,47.7417969 C172.716406,46.8132813 173.602344,45.7402344 174.466016,44.6464844 C175.636719,45.7140625 176.838672,46.7371094 178.104688,47.6140625 Z M149.343359,40.1148438 C151.078906,38.6597656 152.810938,37.2011719 154.494531,35.6753906 C156.288672,34.0492188 158.055469,32.6796875 159.761719,31.0125 C163.012109,34.0707031 166.280469,37.1527344 169.611719,40.1097656 C170.837891,41.1980469 172.055859,42.3886719 173.298438,43.5628906 C172.537109,44.3300781 171.727344,45.0789063 170.928125,45.7746094 C169.899219,46.6699219 168.666016,47.2765625 167.61875,48.1496094 C167.312109,48.4054688 166.902734,48.7226563 166.697656,49.0820313 C166.639063,49.1847656 166.609766,49.3273438 166.582813,49.471875 C162.393359,48.1136719 158.177734,46.8097656 154.029297,45.3617188 C153.346875,43.3773438 151.160937,41.6289062 149.343359,40.1148438 Z M151.739453,44.5722656 C149.901563,43.93125 148.037891,43.3550781 146.163672,42.8054688 C146.714453,42.3339844 147.264844,41.8613281 147.819141,41.3949219 C149.101953,42.4851563 150.405859,43.5488281 151.739453,44.5722656 Z M162.509375,27.7085938 C163.491797,28.54375 164.455859,29.4003906 165.366797,30.3191406 C168.558594,33.5375 170.938672,37.2683594 173.664062,40.8609375 C173.820312,41.0667969 173.966797,41.2761719 174.119922,41.4832031 C173.066406,40.5363281 171.998047,39.6234375 171.009766,38.7121094 C167.699219,35.6601562 164.495312,32.5234375 161.143359,29.5171875 C161.61875,28.9222656 162.060156,28.3105469 162.509375,27.7085938 Z M157.048828,23.4367188 C158.402734,24.4382813 159.748438,25.4503906 161.060938,26.5015625 C160.561328,27.0230469 160.089453,27.5867188 159.618359,28.1019531 C157.217578,25.8441406 154.938281,23.4351563 152.596484,21.1191406 C152.230078,20.7566406 151.872266,20.3945313 151.515234,20.0335938 C153.421875,21.0558594 155.298828,22.1417969 157.048828,23.4367188 Z M149.744531,21.0929688 C152.490234,23.925 155.294141,26.7832031 158.158203,29.496875 C156.415625,31.0535156 154.586719,32.4460938 152.848047,34.0289063 C151.242188,35.490625 149.664453,36.95 147.944531,38.2792969 C147.825781,38.3710938 147.703906,38.4605469 147.583594,38.5507812 C144.50625,35.5421875 141.292969,32.6761719 138.275,29.6074219 C137.257422,28.5726563 136.219531,27.5636719 135.175,26.5625 C138.770313,23.6769531 142.328906,20.6125 145.598438,17.3917969 C146.910156,18.7757813 148.685547,20.0007813 149.744531,21.0929688 Z M145.956641,39.7761719 C145.111328,40.4492188 144.346875,41.1886719 143.839063,42.1363281 C140.816406,41.2839844 137.779687,40.4726562 134.783984,39.5726562 C131.78125,38.6707031 128.741016,37.8984375 125.719141,37.0625 C124.766797,36.7992187 123.812891,36.5925781 122.9,36.3839844 C123.498828,35.8882812 124.080469,35.3257812 124.741016,34.8109375 C127.330078,32.7929688 129.866016,30.7230469 132.453516,28.7140625 C132.824219,28.4261719 133.195312,28.1324219 133.566016,27.840625 C134.328906,28.5738281 135.085547,29.3128906 135.827734,30.0632812 C139.109375,33.3804687 142.454297,36.6746094 145.956641,39.7761719 Z M136.9875,13.6628906 C139.377734,14.5503906 141.786328,15.3476563 144.128125,16.3332031 C140.466016,19.0550781 137.032813,22.0652344 133.505859,24.9726562 C132.280859,23.81875 131.049219,22.6714844 129.819141,21.5175781 C128.037891,19.8472656 126.092187,17.5453125 124.00625,15.815625 C127.764063,13.1164063 132.723437,12.0796875 136.9875,13.6628906 Z M117.051172,29.9410156 C117.619141,26.475 118.149609,23.1695313 120,20.1 C120.620703,19.0703125 121.380859,18.1296875 122.242188,17.2886719 C123.787109,19.278125 126.003516,20.8640625 127.816406,22.5089844 C129.184766,23.7503906 130.555469,24.9992188 131.908594,26.2660156 C128.013281,29.359375 123.728516,32.1457031 120.182031,35.6308594 C117.929297,34.8042969 116.482031,33.4144531 117.051172,29.9410156 Z M115.837109,40.0273438 C115.835547,38.978125 115.905859,37.9222656 116.0125,36.865625 C117.286328,38.1039063 119.518359,38.3035156 121.157813,38.7820313 C124.136719,39.6519531 127.127734,40.4734375 130.128906,41.2621094 C136.448438,42.9230469 142.825,44.7265625 149.058594,46.68125 C155.282031,48.6328125 161.535156,50.55 167.730078,52.6082031 C172.484766,54.1878906 177.620313,55.0347656 182.346094,56.709375 C182.872266,58.1105469 183.346484,59.5289063 183.782422,60.9597656 C183.460938,60.8351563 183.128906,60.7132813 182.803125,60.5683594 C179.563281,59.1261719 176.488281,58.1851563 173.113672,57.19375 C166.492188,55.2484375 159.848047,53.4027344 153.196484,51.5390625 C140.758594,48.0535156 128.063672,44.4988281 115.932031,40.1550781 C115.898828,40.1433594 115.870703,40.1480469 115.838672,40.1394531 C115.838672,40.1015625 115.837109,40.0644531 115.837109,40.0273438 Z M115.881641,42.9183594 C117.360937,43.8175781 119.355078,44.159375 120.882812,44.6789063 C123.428906,45.5445313 125.95625,46.4632813 128.504687,47.3152344 C130.642187,48.0300781 132.811719,48.6738281 134.991797,49.2921875 C135.076562,49.4136719 135.170703,49.5242188 135.262891,49.6375 C131.400391,51.94375 128.069531,55.3398438 124.664453,58.2007813 C124.631641,58.2285156 124.591797,58.259375 124.557812,58.2871094 C124.06875,57.6914062 123.566406,57.1082031 123.0875,56.5023438 C121.492969,54.4839844 119.619922,52.6632813 117.903906,50.7503906 C117.730078,50.5570313 116.940625,49.3242188 116.133203,48.6085938 C116.025,46.7074219 115.930078,44.8070313 115.881641,42.9183594 Z M116.805859,59.0070312 C116.647266,56.4886719 116.462891,53.9386719 116.296875,51.3828125 C116.438281,51.6347656 116.566797,51.85 116.668359,51.9859375 C118.539844,54.5003906 120.642969,56.840625 122.563672,59.3042969 C122.648438,59.4128906 122.7375,59.5179688 122.823047,59.6261719 C120.989063,60.9988281 118.697656,62.7074219 117.221094,64.5007813 C117.066016,62.6707031 116.921875,60.8394531 116.805859,59.0070312 Z M117.485156,67.5035156 C119.948828,65.8136719 122.124219,63.5863281 124.348438,61.4925781 C127.487109,65.215625 130.946094,68.6835937 134.189844,72.3089844 C135.029687,73.2476562 135.887109,74.16875 136.746875,75.0871094 C133.602344,77.5148437 130.311719,79.8058594 127.197656,82.2730469 C126.562109,82.7765625 125.935156,83.2914062 125.309375,83.8085938 C122.978516,81.1273437 120.837109,78.1003906 118.321094,75.5871094 C118.023047,72.8941406 117.739062,70.1996094 117.485156,67.5035156 Z M118.738672,79.3242188 C120.245703,81.3792969 121.904297,83.321875 123.651953,85.1765625 C122.803906,85.875 121.951953,86.5683594 121.079297,87.2316406 C120.545703,87.6371094 120.108594,87.9171875 119.758203,88.2535156 C119.425781,85.2777344 119.078906,82.3011719 118.738672,79.3242188 Z M120.690625,97.1960938 C120.496875,95.1429688 120.282422,93.0902344 120.060547,91.0375 C120.439844,91.009375 120.800391,90.7839844 120.942969,90.3054688 C121.228516,89.3476563 123.326563,87.7761719 124.939453,86.61875 C127.09375,89.1425781 128.952344,91.8851563 131.324609,94.2695313 C131.351563,94.296875 131.382031,94.3074219 131.410547,94.3289063 C131.110547,96.6109375 130.838281,98.9039063 130.672266,101.160156 C130.488281,103.657813 130.499609,105.989063 130.742188,108.208984 C128.51875,110.005078 126.488672,112.072266 124.35625,113.970703 C123.441797,112.826563 122.591406,111.653516 121.85,110.445313 C121.780078,110.331641 121.675391,110.249609 121.55625,110.198438 C121.348047,105.857812 121.098438,101.521875 120.690625,97.1960938 Z M121.715625,113.622656 C121.992578,113.958594 122.292187,114.296484 122.585938,114.657422 C122.737109,114.843359 122.895703,115.022266 123.048828,115.20625 C122.645312,115.607422 122.247656,116.018359 121.843359,116.448438 C121.801563,115.50625 121.757812,114.564453 121.715625,113.622656 Z M121.983984,119.569531 C122.825781,118.676563 123.622656,117.755469 124.472266,116.883984 C126.168359,118.821875 127.936719,120.685938 129.727344,122.547656 C131.664453,124.561719 133.619141,126.574609 135.602344,128.553906 C134.717578,129.263672 133.853906,130.000391 132.974219,130.715234 C132.892969,130.78125 132.814844,130.846094 132.7375,130.910937 C129.333594,129.960938 125.847656,128.951562 122.961328,127.267188 C122.783594,127.163672 122.589063,127.129297 122.395313,127.13125 C122.230859,124.610938 122.102344,122.090234 121.983984,119.569531 Z M126.025781,154.583594 C125.100391,149.925781 124.334766,145.244531 123.715234,140.542578 C124.803125,142.428516 126.466406,144.321484 127.272266,145.647266 C129.572266,149.429688 132.533594,152.792969 135.176172,156.336328 C135.192187,156.357812 135.208984,156.378516 135.225391,156.4 C134.010156,157.358594 132.797266,158.319531 131.575391,159.270703 C130.347266,160.226562 128.752734,161.203906 127.585156,162.423047 C126.989844,159.806641 126.536328,157.153516 126.025781,154.583594 Z M157.952344,154.51875 C159.440625,156.041016 161.082031,157.510937 162.660547,159.020703 C160.010156,161.070703 157.253906,162.991797 154.561328,164.987891 C152.569531,166.464844 150.573438,167.967187 148.570313,169.467578 C147.839453,168.524609 147.115625,167.593359 146.439844,166.675391 C144.151172,163.565234 141.630859,160.588281 139.093359,157.678906 C138.877734,157.431641 138.669922,157.176953 138.457031,156.927344 C139.629297,155.987891 140.796875,155.042187 141.928125,154.075 C143.76875,152.501172 148.610156,149.775391 149.799219,147.169531 C150.485156,147.360547 151.166406,147.5625 151.852734,147.751562 C152.216016,148.583984 153.132422,149.244141 153.723828,149.890234 C155.130469,151.425781 156.499609,153.032813 157.952344,154.51875 Z M154.207422,148.385156 C155.667969,148.780078 157.127734,149.184766 158.589844,149.566016 C161.089844,150.217969 163.437109,151.041016 165.882031,151.844531 C166.932031,152.189844 168.540625,152.30625 169.952344,152.603125 C167.775391,154.041406 165.885547,156.367188 163.911328,158.028516 C162.777344,156.798047 161.721484,155.473438 160.499219,154.350781 C158.975391,152.950781 157.5875,151.442578 156.100391,150.003516 C155.601172,149.520703 154.878125,148.965625 154.207422,148.385156 Z M143.802734,149.678125 C141.864062,151.039062 140.103906,152.623047 138.208594,154.072656 C137.773828,154.405078 137.346484,154.745703 136.914844,155.082031 C132.901562,150.151953 129.290625,144.832422 125.823828,139.503906 C127.139062,140.014062 128.446484,140.435938 129.454687,140.8375 C133.698437,142.527734 138.225781,143.847656 142.608594,145.132031 C144.348437,145.641797 146.100391,146.124219 147.848047,146.616797 C146.413672,147.480859 145.131641,148.745313 143.802734,149.678125 Z M136.130469,178.390234 C133.750391,176.916406 132.383984,174.561328 131.027344,172.123047 C129.825,169.961719 128.970703,167.633984 128.298047,165.238281 C129.947656,162.804687 133.234766,161.132031 135.427734,159.355469 C135.857031,159.007812 136.290625,158.660547 136.724609,158.313672 C139.307031,161.498437 142.145703,164.48125 144.661328,167.715234 C145.430469,168.703906 146.197266,169.686719 146.967969,170.664844 C143.399219,173.324219 139.796875,175.948047 136.130469,178.390234 Z M146.701953,178.251172 C144.384375,179.043359 141.789062,179.837109 139.334375,179.539844 C141.125391,178.2125 142.812891,176.4875 144.230078,175.316016 C145.523047,174.247266 146.865234,173.235937 148.219531,172.238281 C149.299219,173.577734 150.398828,174.897656 151.548828,176.178906 C150.023438,176.973828 148.4125,177.666406 146.701953,178.251172 Z M163.362891,165.954297 C160.363672,169.928906 156.909766,173.083984 152.821094,175.453516 C151.937891,173.960547 150.8875,172.501953 149.803906,171.073047 C151.755078,169.663281 153.722656,168.273437 155.632422,166.819922 C158.446094,164.678516 161.3375,162.644922 164.064062,160.398437 C164.696484,161.041016 165.307031,161.694531 165.877734,162.367578 C165.069141,163.591406 164.238281,164.794531 163.362891,165.954297 Z M166.596094,161.239844 C166.264844,160.548438 165.779297,159.982031 165.249219,159.428516 C166.943359,158.041797 168.918359,156.479297 170.356641,154.707031 C169.190625,156.948828 167.935938,159.13125 166.596094,161.239844 Z M171.998047,151.407422 C171.544141,151.200391 171.019531,151.083594 170.473437,150.880469 C168.150781,150.016406 165.914062,148.975 163.597266,148.120703 C157.948828,146.037891 151.895703,144.721484 146.110937,143.048438 C140.630078,141.463281 134.942969,139.861719 129.682031,137.647656 C127.735547,136.828516 125.319531,135.378125 123.039844,135.008984 C122.875391,133.427344 122.734375,131.844922 122.610547,130.261328 C124.865625,131.875 129.041797,132.607031 131.015625,133.234375 C131.416406,133.361719 131.814062,133.498047 132.214062,133.628516 C132.264062,133.650781 132.314062,133.666406 132.368359,133.679297 C137.086328,135.219531 141.754687,136.920703 146.519531,138.302734 C155.616016,140.941016 164.673828,145.227734 174.044531,146.759375 C173.396484,148.323828 172.717578,149.876563 171.998047,151.407422 Z M174.666016,145.212891 C172.299219,143.670703 169.021875,143.203516 166.395703,142.289453 C163.818359,141.392578 161.258594,140.432813 158.695703,139.480859 C162.00625,137.153125 165.230078,134.717187 168.457422,132.276563 C170.404297,134.598438 172.370703,136.928906 174.280859,139.290625 C174.885938,140.038281 175.36875,140.932813 176.025391,141.620313 C175.591406,142.822266 175.139063,144.020703 174.666016,145.212891 Z M179.355469,131.090625 C178.598437,133.853516 177.735937,136.642187 176.786328,139.422656 C175.404688,136.694531 172.488672,133.665234 171.198047,132.125781 C170.873437,131.738672 170.548828,131.344531 170.223828,130.950391 C170.895312,130.445312 171.564062,129.938281 172.239453,129.4375 C174.906641,127.458984 177.766406,125.23125 180.295313,122.759375 C180.655469,123.109375 181.008984,123.466797 181.376562,123.807812 C180.695703,126.262109 180.0125,128.69375 179.355469,131.090625 Z M183.138672,117.304687 C182.246094,117.893359 181.402344,118.655078 180.596484,119.437109 C179.153516,117.853516 177.470703,116.381641 176.406641,115.048047 C174.601953,112.786328 172.592969,110.620703 170.625391,108.498047 C170.224609,108.065234 169.842969,107.620312 169.464844,107.175781 C171.870313,105.090234 174.249609,102.969531 176.703906,100.993359 C178.066797,99.8960937 179.507422,98.784375 180.936328,97.628125 C182.752344,99.4125 184.838281,101.262109 186.29375,103.226562 C185.475,107.948437 184.357031,112.657031 183.138672,117.304687 Z M186.6,101.358594 C185.753906,100.210938 184.671094,99.1464844 183.851953,98.1679688 C183.365625,97.5867188 182.8625,97.0191406 182.369531,96.4429688 C184.265234,94.8425781 186.083594,93.1398438 187.607813,91.2554688 C187.483203,94.6132813 187.125391,97.9871094 186.6,101.358594 Z M183.865625,91.9761719 C182.883203,92.9210938 181.876563,93.8121094 180.861719,94.6882813 C179.440625,93.0625 178.005078,91.4492188 176.55,89.8554688 C173.584766,86.6078125 170.648438,83.3277344 167.662109,80.096875 C170.502734,77.6136719 173.275391,75.0816406 175.979297,72.478125 C179.623828,76.3820313 183.173047,80.5367188 187.499609,83.5847656 C187.557031,84.6683594 187.603125,85.7550781 187.635156,86.8453125 C187.649609,87.3382813 187.654297,87.8320313 187.657422,88.3257813 C186.227734,89.275 184.921484,90.9609375 183.865625,91.9761719 Z" id="Shape"></path>
        </g>
    </g>
</svg>