<?xml version="1.0" encoding="UTF-8"?>
<svg width="136px" height="200px" viewBox="0 0 136 200" version="1.1" xmlns="http://www.w3.org/2000/svg" xmlns:xlink="http://www.w3.org/1999/xlink">
    <!-- Generator: Sketch 54.1 (76490) - https://sketchapp.com -->
    <title>012-rhythmic-gymnastics</title>
    <desc>Created with Sketch.</desc>
    <g id="Page-1" stroke="none" stroke-width="1" fill="none" fill-rule="evenodd">
        <g id="012-rhythmic-gymnastics" fill="#487BB4" fill-rule="nonzero">
            <path d="M76.1258065,183.487097 C76.7419355,177.983871 77.1354839,172.451613 77.2967742,166.916129 C122.803226,162.987097 135.483871,160.593548 135.483871,153.729032 C135.483871,146.874194 122.825806,144.483871 77.4193548,140.56129 L77.4193548,123.9 C122.825806,119.977419 135.483871,117.587097 135.483871,110.735484 C135.483871,105.429032 129.474194,102.480645 93.8580645,99.0354839 L93.2387097,105.454839 C115.193548,107.580645 124.016129,109.464516 127.474194,110.758065 C120.512903,113.451613 98.4903226,115.619355 78.4741935,117.341935 L93.6354839,79.4322581 C125.922581,76.283871 135.483871,73.6967742 135.483871,67.7419355 L135.483871,64.516129 L129.032258,64.516129 L129.032258,66.9870968 C125.874194,69.2193548 112.070968,71.1096774 96.3290323,72.7032258 L96.7741935,71.5870968 L96.7741935,34.0709677 C96.7741935,29.6225806 93.7580645,25.7612903 89.4451613,24.683871 L69.4032258,19.6709677 L72.183871,10.4 C72.9225806,7.92903226 72.4677419,5.32903226 70.9258065,3.25806452 C69.3870968,1.18709677 67.0258065,0 64.4451613,0 C61.2548387,0 58.3580645,1.88387097 57.0612903,4.79677419 L45.1612903,31.5741935 L45.1612903,77.2322581 C10.2064516,80.5258065 0,83.083871 0,89.2354839 C0,95.9967742 12.3483871,98.416129 56.3064516,102.248387 C57.4258065,103.86129 58.0645161,105.780645 58.0645161,107.751613 L58.0645161,119.064516 C12.6580645,122.983871 0,125.374194 0,132.222581 C0,139.077419 12.6580645,141.470968 58.0645161,145.396774 L58.0645161,161.022581 C58.0645161,168.032258 58.4774194,175.067742 59.2096774,182.06129 C38.5935484,180.306452 15.1290323,178.064516 7.96451613,175.26129 C12.9645161,173.33871 26.616129,171.36129 48.6774194,169.364516 L48.0935484,162.93871 C6.68387097,166.690323 0,169.641935 0,175.251613 C0,182.203226 13.0354839,184.570968 60,188.593548 C60.2548387,190.43871 60.4967742,192.290323 60.8032258,194.122581 C61.3741935,197.529032 64.2903226,200 67.7419355,200 C71.1935484,200 74.1096774,197.529032 74.6806452,194.122581 C74.916129,192.716129 75.0935484,191.296774 75.2967742,189.883871 C97.9774194,191.806452 124.496774,194.319355 129.032258,197.529032 L129.032258,200 L135.483871,200 L135.483871,196.774194 C135.483871,189.854839 122.570968,187.477419 76.1258065,183.487097 Z M58.0645161,138.925806 C37.716129,137.187097 14.9645161,134.977419 7.9516129,132.225806 C14.9709677,129.474194 37.7193548,127.270968 58.0645161,125.532258 L58.0645161,138.925806 Z M127.53871,153.729032 C120.532258,156.487097 97.783871,158.693548 77.4193548,160.435484 L77.4193548,147.029032 C97.7709677,148.770968 120.529032,150.977419 127.53871,153.729032 Z M7.9516129,89.2387097 C13.516129,87.0580645 28.9612903,85.2193548 45.2580645,83.6870968 C45.4870968,86.9419355 46.6516129,90.0935484 48.6967742,92.6483871 L50.8193548,95.3032258 C32.5903226,93.6709677 14.1451613,91.6677419 7.9516129,89.2387097 Z M51.6129032,32.9419355 L62.9580645,7.41935484 C63.2193548,6.82903226 63.8032258,6.4516129 64.4451613,6.4516129 C65.1548387,6.4516129 65.5677419,6.86129032 65.7516129,7.10645161 C65.9322581,7.3516129 66.2096774,7.86451613 66.0032258,8.54516129 L58.2,34.5548387 L58.0645161,72.9612903 L69.6516129,67.1677419 L75.7032258,61.116129 C76.2709677,61.1935484 76.8322581,61.2903226 77.4193548,61.2903226 C84.5354839,61.2903226 90.3225806,55.5032258 90.3225806,48.3870968 C90.3225806,41.2709677 84.5354839,35.483871 77.4193548,35.483871 C70.3032258,35.483871 64.516129,41.2709677 64.516129,48.3870968 C64.516129,52.4258065 66.4193548,55.9935484 69.3354839,58.3612903 L65.8322581,61.8645161 L64.516129,62.5225806 L64.516129,48.3870968 L64.516129,35.9548387 L67.5451613,25.8548387 L87.8774194,30.9354839 C89.316129,31.3 90.3225806,32.5870968 90.3225806,34.0709677 L90.3225806,48.3870968 L90.3225806,70.3483871 L89.1,73.4 C81.7419355,74.083871 74.2612903,74.7096774 67.4677419,75.2774194 C61.7322581,75.7548387 56.4741935,76.2064516 51.6129032,76.6419355 L51.6129032,32.9419355 L51.6129032,32.9419355 Z M70.9677419,48.3870968 C70.9677419,44.8290323 73.8612903,41.9354839 77.4193548,41.9354839 C80.9774194,41.9354839 83.8709677,44.8290323 83.8709677,48.3870968 C83.8709677,51.9451613 80.9774194,54.8387097 77.4193548,54.8387097 C73.8612903,54.8387097 70.9677419,51.9451613 70.9677419,48.3870968 Z M59.7,96.0741935 L53.7322581,88.616129 C52.4774194,87.0483871 51.7709677,85.1032258 51.6580645,83.1032258 C57.2645161,82.6032258 62.8354839,82.1387097 68.0032258,81.7096774 C74.7516129,81.1483871 80.8709677,80.6225806 86.4193548,80.116129 L79.3129032,97.8709677 L71.2354839,97.0419355 L67.9774194,96.7677419 C65.3096774,96.5451613 62.5322581,96.3129032 59.7,96.0741935 Z M68.316129,193.06129 C68.2225806,193.629032 67.2612903,193.625806 67.1677419,193.064516 C66.9516129,191.767742 66.7903226,190.458065 66.6,189.154839 C66.8967742,189.180645 67.1774194,189.203226 67.4741935,189.229032 C67.9258065,189.267742 68.4,189.306452 68.8580645,189.345161 C68.6741935,190.580645 68.5225806,191.825806 68.316129,193.06129 Z M69.6967742,182.941935 C69.1290323,182.893548 68.583871,182.848387 68.0096774,182.8 C67.2709677,182.73871 66.5064516,182.674194 65.7516129,182.612903 C65.2129032,177.76129 64.8354839,172.890323 64.6612903,168.016129 L68.0096774,167.706452 C68.9741935,167.625806 69.8967742,167.548387 70.8354839,167.467742 C70.6612903,172.635484 70.2774194,177.8 69.6967742,182.941935 Z M70.9709677,160.983871 C69.7806452,161.083871 68.6,161.180645 67.4483871,161.277419 L64.5290323,161.545161 C64.5290323,161.370968 64.5193548,161.196774 64.5193548,161.022581 L64.5193548,145.945161 C65.5032258,146.029032 66.4741935,146.109677 67.483871,146.193548 C68.6258065,146.287097 69.7967742,146.387097 70.9709677,146.483871 L70.9709677,160.983871 Z M64.516129,139.470968 L64.516129,124.987097 C65.6903226,124.890323 66.8612903,124.790323 68.0032258,124.696774 C69.016129,124.612903 69.9870968,124.529032 70.9677419,124.448387 L70.9677419,140.012903 C69.9903226,139.929032 69.0225806,139.848387 68.016129,139.764516 C66.8709677,139.667742 65.6967742,139.570968 64.516129,139.470968 Z M71.283871,117.948387 C69.9935484,118.054839 68.716129,118.16129 67.4709677,118.267742 C66.4645161,118.351613 65.4967742,118.432258 64.5193548,118.516129 L64.5193548,107.751613 C64.516129,106.090323 64.2225806,104.454839 63.7258065,102.883871 C64.9483871,102.987097 66.1741935,103.090323 67.4419355,103.196774 L76.816129,104.116129 L71.283871,117.948387 Z" id="Shape"></path>
        </g>
    </g>
</svg>