<?xml version="1.0" encoding="UTF-8"?>
<svg width="155px" height="200px" viewBox="0 0 155 200" version="1.1" xmlns="http://www.w3.org/2000/svg" xmlns:xlink="http://www.w3.org/1999/xlink">
    <!-- Generator: Sketch 54.1 (76490) - https://sketchapp.com -->
    <title>003-hooded-jacket</title>
    <desc>Created with Sketch.</desc>
    <g id="Page-1" stroke="none" stroke-width="1" fill="none" fill-rule="evenodd">
        <g id="003-hooded-jacket" fill="#487BB4" fill-rule="nonzero">
            <g id="Group" transform="translate(61.057692, 37.019231)">
                <path d="M4.58269231,75.0125 C3.25528846,75.0125 2.17884615,73.9360577 2.17884615,72.6086538 L2.17884615,9.51875 C2.17884615,6.21298077 1.70673077,4.93653846 1.53125,4.57596154 C0.728365385,4.04567308 0.290865385,3.06009615 0.505769231,2.0625 C0.785576923,0.764903846 2.06442308,-0.0615384615 3.36201923,0.219230769 C5.01538462,0.575480769 6.98605769,2.47836538 6.98605769,9.51875 L6.98605769,72.6091346 C6.98653846,73.9360577 5.91009615,75.0125 4.58269231,75.0125 Z" id="Path"></path>
                <path d="M27.9884615,75.0125 C26.6605769,75.0125 25.5846154,73.9360577 25.5846154,72.6086538 L25.5846154,9.51875 C25.5846154,2.47836538 27.5557692,0.575480769 29.2086538,0.219230769 C30.50625,-0.0615384615 31.7846154,0.764903846 32.0649038,2.0625 C32.2798077,3.05961538 31.8423077,4.04567308 31.0394231,4.57596154 C30.8639423,4.93701923 30.3918269,6.21346154 30.3918269,9.51875 L30.3918269,72.6091346 C30.3923077,73.9360577 29.3163462,75.0125 27.9884615,75.0125 Z" id="Path"></path>
            </g>
            <path d="M154.235577,179.150962 C152.532692,124.024038 145.875,89.6014423 140.589904,70.4317308 C135.001442,50.1625 129.762981,42.1394231 129.186058,41.29375 C128.617788,40.3860577 123.611058,32.8725962 111.398077,29.1384615 C112.689423,27.0538462 113.996635,24.0475962 113.960096,20.45625 C113.912981,15.7788462 111.648077,11.3538462 107.229327,7.30384615 C102.596154,3.23894231 92.3528846,0 77.3451923,0 C77.3447115,0 77.34375,0.000480769231 77.3432692,0.000480769231 C77.3427885,0.000480769231 77.3418269,0 77.3413462,0 C62.3413462,0 52.7841346,2.71634615 47.4639423,7.29615385 C47.4634615,7.29615385 47.4634615,7.29615385 47.4634615,7.29615385 C43.0399038,11.3480769 40.7730769,15.7759615 40.7259615,20.4557692 C40.6894231,24.0471154 41.9966346,27.0538462 43.2875,29.1379808 C31.0793269,32.8711538 26.0721154,40.38125 25.5019231,41.2923077 C24.9269231,42.1341346 19.6875,50.15625 14.0975962,70.43125 C8.8125,89.6014423 2.15480769,124.024038 0.452403846,179.150962 C0.451923077,179.163942 0.451442308,195.225962 0.451442308,195.225962 C0.451442308,196.419712 1.32836538,197.433173 2.51009615,197.604808 C2.51009615,197.604808 18.2432692,199.879808 18.3581731,199.879808 C19.3706731,199.879808 20.2923077,199.238462 20.6298077,198.257212 L25.9153846,182.878846 C25.9201923,182.865865 27.7389423,176.8 27.7389423,176.8 L30.0490385,187.004327 C30.2971154,188.099038 31.2706731,188.877404 32.39375,188.877404 L122.293269,188.877404 C123.416346,188.877404 124.389423,188.099519 124.637981,187.004327 L126.948558,176.799038 C126.948558,176.799038 128.767788,182.864904 128.772596,182.878846 L134.057212,198.257212 C134.394231,199.238462 135.315865,199.879808 136.329327,199.879808 C136.44375,199.879808 152.178365,197.604808 152.178365,197.604808 C153.360096,197.433173 154.236538,196.419712 154.236538,195.225962 C154.236538,195.225481 154.236058,179.164423 154.235577,179.150962 Z M50.4206731,11.1706731 C52.4538462,8.81730769 58.5918269,4.80769231 77.3413462,4.80769231 C77.3418269,4.80769231 77.3427885,4.80769231 77.3432692,4.80769231 C77.34375,4.80769231 77.3447115,4.80769231 77.3451923,4.80769231 C95.7134615,4.80769231 101.928846,8.70865385 104.079327,10.9586538 C105.923558,12.8879808 105.201923,15.0307692 104.990865,15.5514423 C104.695673,15.4971154 100.503846,14.9884615 97.7990385,14.8177885 C92.3269231,14.4721154 85.0620192,14.2817308 77.3427885,14.2817308 C69.6235577,14.2817308 62.3591346,14.4721154 56.8870192,14.8177885 C54.1817308,14.9889423 49.9899038,15.4966346 49.6942308,15.5509615 C49.4846154,15.0302885 48.6485577,13.2206731 50.4206731,11.1706731 Z M101.211538,19.9009615 C100.126923,20.7572115 93.6846154,25.2798077 91.7389423,26.8235577 L62.9490385,26.8235577 C61.0033654,25.2798077 54.5600962,20.7567308 53.475,19.9004808 C57.8798077,19.4788462 66.0230769,19.0889423 77.3432692,19.0889423 C88.6682692,19.0889423 96.8081731,19.4793269 101.211538,19.9009615 Z M16.7302885,194.811058 L5.25913462,193.145192 L5.25913462,181.983654 L20.4192308,184.078365 L16.7302885,194.811058 Z M28.6774038,85.3105769 C23.4264423,109.380769 25.1985577,149.044712 26.2153846,165.135577 L21.9302885,179.434135 L5.32692308,177.140385 C7.10721154,124.114423 13.5009615,90.8653846 18.5879808,72.2360577 C22.10625,59.3528846 25.4923077,51.5269231 27.53125,47.4759615 C35.7355769,64.1298077 28.6971154,85.2192308 28.6774038,85.3105769 Z M74.9375,184.069231 L34.3139423,184.069231 L32.1201923,174.38125 L74.9375,174.38125 L74.9375,184.069231 Z M74.9375,169.573558 L42.05625,169.573558 L42.05625,159.397596 C43.9855769,156.285096 52.2173077,142.229808 54.2461538,125.970673 L74.9370192,125.970673 L74.9370192,169.573558 L74.9375,169.573558 Z M74.9375,121.162981 L52.0860577,121.162981 C50.8403846,121.162981 49.8009615,122.114423 49.6918269,123.355769 C48.1259615,141.108654 37.7442308,157.228846 37.6403846,157.388462 C37.3850962,157.779327 37.2495192,158.235577 37.2495192,158.701923 L37.2495192,169.573558 L31.3418269,169.573558 C30.58125,158.958654 27.7024038,112.536058 33.3471154,86.4644231 C34.0918269,84.2293269 41.3783654,61.0711538 30.4120192,42.7043269 C32.2360577,40.4586538 37.1668269,35.5346154 46.7543269,33.1692308 C48.2456731,34.4528846 51.2346154,36.9432692 53.8629808,38.6288462 C54.2644231,38.8865385 54.7144231,39.0091346 55.1581731,39.0091346 C55.95,39.0091346 56.725,38.6182692 57.1841346,37.9028846 C57.9009615,36.7855769 57.5759615,35.2985577 56.4581731,34.5817308 C53.3394231,32.5817308 49.4370192,29.1360577 49.0509615,28.7923077 C48.8658654,28.6076923 45.4870192,25.1519231 45.5341346,20.5038462 C45.5413462,19.825 45.6245192,19.1485577 45.7759615,18.4745192 C47.5538462,21.7317308 50.8927885,24.0730769 54.6081731,26.6692308 C57.6158654,28.7697115 61.0235577,31.1509615 64.3350962,34.4625 C74.4471154,44.5745192 74.9225962,57.2822115 74.9394231,59.0192308 C74.9389423,59.0798077 74.9375,121.162981 74.9375,121.162981 Z M77.3432692,46.3033654 C75.6985577,41.6927885 72.9288462,36.4586538 68.2841346,31.63125 L86.4028846,31.63125 C81.7581731,36.4586538 78.9889423,41.6927885 77.3432692,46.3033654 Z M120.373077,184.069231 L79.7490385,184.069231 L79.7490385,174.38125 L122.565865,174.38125 L120.373077,184.069231 Z M79.7490385,169.573558 L79.7490385,125.970673 L100.439904,125.970673 C102.470192,142.229808 110.701923,156.285577 112.630769,159.397596 L112.630769,169.573558 L79.7490385,169.573558 Z M123.345673,169.573558 L117.438942,169.573558 L117.438942,158.701923 C117.438942,158.236058 117.302885,157.779327 117.048558,157.389423 C116.94375,157.228846 106.561538,141.108654 104.995192,123.355769 C104.885577,122.114904 103.846154,121.162981 102.600962,121.162981 L79.7495192,121.162981 C79.7495192,121.162981 79.7490385,59.2461538 79.7485577,59.2221154 C79.7485577,59.21875 80.2850962,44.5298077 90.3528846,34.4634615 C93.6649038,31.1514423 97.0730769,28.7706731 100.080288,26.6697115 C103.796635,24.0740385 107.135096,21.7317308 108.912981,18.4745192 C109.061058,19.1341346 109.143269,19.7961538 109.153365,20.4596154 C109.223077,25.15625 105.798077,28.6326923 105.635096,28.7951923 C105.23125,29.1538462 101.346154,32.5831731 98.2298077,34.5822115 C97.1125,35.2990385 96.7875,36.7860577 97.5038462,37.9033654 C97.9629808,38.6192308 98.7379808,39.0096154 99.5298077,39.0096154 C99.9740385,39.0096154 100.423558,38.8865385 100.825,38.6293269 C103.453365,36.94375 106.442308,34.4528846 107.933654,33.1697115 C117.527885,35.5370192 122.459135,40.4658654 124.277404,42.7043269 C113.310577,61.0706731 120.596635,84.2302885 121.341346,86.4649038 C126.986058,112.536058 124.10625,158.958654 123.345673,169.573558 Z M126.009135,85.3105769 C125.989423,85.2206731 118.950962,64.1293269 127.156731,47.475 C132.391346,57.8932692 146.553365,93.4451923 149.360577,177.139904 L132.757692,179.433654 L128.471635,165.132692 C129.488462,149.040865 131.261058,109.379808 126.009135,85.3105769 Z M137.95625,194.811058 L134.268269,184.078846 L149.428365,181.984135 L149.428365,193.145673 L137.95625,194.811058 Z" id="Shape"></path>
        </g>
    </g>
</svg>