<?xml version="1.0" encoding="UTF-8"?>
<svg width="200px" height="125px" viewBox="0 0 200 125" version="1.1" xmlns="http://www.w3.org/2000/svg" xmlns:xlink="http://www.w3.org/1999/xlink">
    <!-- Generator: Sketch 53.2 (72643) - https://sketchapp.com -->
    <title>021-gym-bag</title>
    <desc>Created with Sketch.</desc>
    <g id="Page-1" stroke="none" stroke-width="1" fill="none" fill-rule="evenodd">
        <g id="021-gym-bag" fill="#4A7CB2" fill-rule="nonzero">
            <path d="M75.942678,96.7790569 C81.6413864,100.09442 89.1645345,101.57316 100.335039,101.57316 C111.507066,101.57316 119.030214,100.09442 124.7274,96.7790569 C132.178972,92.444871 135.957298,85.0009138 135.957298,74.6558238 L135.957298,62.693409 C135.957298,60.5400218 134.212049,58.7932507 132.058662,58.7932507 L123.990314,58.7932507 C121.836927,58.7932507 120.090156,60.5400218 120.090156,62.693409 C120.090156,64.8467957 121.836927,66.5920444 123.990314,66.5920444 L128.160027,66.5920444 L128.160027,74.6558238 C128.160027,82.2337965 125.823891,87.1207969 120.805921,90.0386819 C116.426048,92.5880238 109.921723,93.7743665 100.335039,93.7743665 C90.7498784,93.7743665 84.2440304,92.5880238 79.8641567,90.0386819 C74.8477096,87.1207969 72.5115743,82.2322733 72.5115743,74.6558238 L72.5115743,66.5920444 L92.5362452,66.5920444 C94.689632,66.5920444 96.4364035,64.8467957 96.4364035,62.693409 C96.4364035,60.5400218 94.689632,58.7932507 92.5362452,58.7932507 L68.6114156,58.7932507 C66.4580288,58.7932507 64.7127801,60.5400218 64.7127801,62.693409 L64.7127801,74.6558238 C64.7127801,85.0009138 68.4911064,92.444871 75.942678,96.7790569 L75.942678,96.7790569 Z" id="Path"></path>
            <path d="M199.840095,99.1151926 L195.449561,68.3631821 C194.343933,60.6207361 187.611172,54.7834429 179.791057,54.7834429 L177.896565,54.7834429 C176.021869,49.4959185 172.898392,44.7002924 168.705836,40.8016569 C163.454861,35.919225 156.924647,32.8048854 149.932992,31.7723563 C149.865984,31.7586503 149.797454,31.7495127 149.728923,31.7373294 C149.724354,31.7373294 149.719786,31.7373294 149.71674,31.7358066 C149.617751,31.7205774 149.518762,31.7083942 149.419773,31.7007797 C147.883163,31.4967103 146.328277,31.3885844 144.758163,31.3885844 L137.410149,31.3885844 C136.094359,23.784722 132.454618,16.7245372 126.944749,11.2177146 C119.8404,4.1087961 110.390777,0.194931774 100.335039,0.194931774 C90.7772904,0.194931774 81.6657528,3.78289474 74.6786671,10.2963571 C68.622076,15.9432869 64.6442495,23.3308967 63.2553606,31.3885844 L55.911915,31.3885844 C54.3296175,31.3885844 52.7625489,31.4982335 51.215278,31.7053485 C51.1970027,31.7068713 51.1802511,31.7099173 51.1619762,31.7114402 C44.0088936,32.6800074 37.3218203,35.8202363 31.9642421,40.8016569 C27.7716862,44.7002924 24.648209,49.4974417 22.7735135,54.7834429 L20.2089427,54.7834429 C12.4847712,54.7834429 6.06420585,60.4943349 4.94030214,68.3631821 L0.548245614,99.1167154 C-0.098988694,103.658016 1.25335049,108.251096 4.25804094,111.715704 C7.26425419,115.181835 11.6197614,117.169225 16.2067493,117.169225 L20.793738,117.169225 C21.2871587,117.894128 21.8354043,118.585526 22.4384749,119.234284 C25.746223,122.793312 30.4276316,124.835526 35.2856967,124.844664 C35.2948343,124.844664 35.3039719,124.846187 35.3115864,124.846187 C35.3161552,124.846187 35.3192008,124.844664 35.3237696,124.844664 L165.355446,124.844664 L165.384381,124.844664 C165.391996,124.844664 165.39961,124.846187 165.407225,124.846187 C165.428545,124.846187 165.448343,124.841618 165.469664,124.841618 C170.297271,124.809637 174.943653,122.771991 178.233126,119.234284 C178.836196,118.585526 179.384442,117.894128 179.877863,117.169225 L184.183114,117.169225 C188.770102,117.169225 193.125609,115.181835 196.131823,111.715704 C199.136513,108.251096 200.488852,103.658016 199.840095,99.1151926 L199.840095,99.1151926 Z M100.335039,7.99372554 C108.305921,7.99372554 115.797088,11.0958823 121.430312,16.7321517 C125.476669,20.7754628 128.248355,25.8726242 129.466679,31.3885844 L121.626766,31.3885844 C120.635356,27.6635598 118.673855,24.2248417 115.917398,21.463816 C111.7553,17.3032405 106.222588,15.0112694 100.335039,15.0112694 C90.1391934,15.0112694 81.53326,21.8414963 79.0356967,31.3885844 L71.2033992,31.3885844 C74.1700172,17.9763645 86.2375123,7.99372554 100.335039,7.99372554 Z M113.395468,31.3885844 L87.2578581,31.3885844 C89.4417033,26.2899002 94.482517,22.8100632 100.335039,22.8100632 C104.139255,22.8100632 107.713511,24.2903267 110.399915,26.9767298 C111.676109,28.2544468 112.687317,29.7560308 113.395468,31.3885844 L113.395468,31.3885844 Z M118.37232,39.1858554 L118.379934,39.1858554 L118.387549,39.1858554 L144.758163,39.1858554 C144.915022,39.1858554 145.067312,39.1949926 145.222649,39.1980386 L145.222649,54.7971493 C145.222649,76.2487817 150.012183,97.6349294 159.119152,117.04587 L41.5996589,117.04587 C50.7051049,97.6349294 55.4946394,76.2487817 55.4946394,54.7971493 L55.4946394,39.1965154 C55.6332238,39.1949926 55.7718082,39.1858554 55.9103922,39.1858554 L118.37232,39.1858554 Z M16.2067493,109.370431 C13.8812745,109.370431 11.6730628,108.363791 10.1486355,106.606359 C8.62420819,104.848928 7.93890097,102.520407 8.26784834,100.217775 L12.6599049,69.4657653 C13.2386086,65.4117934 16.3422881,62.5807138 20.2089427,62.5807138 L20.9734405,62.5807138 C20.9201388,63.0528144 20.8714058,63.5264374 20.8363789,64.0015836 L17.7783867,105.985014 C17.6961501,107.121101 17.7296538,108.254142 17.8667154,109.371954 L16.2067493,109.371954 L16.2067493,109.370431 Z M28.1493665,113.925439 C27.4762425,113.202059 26.9279969,112.397965 26.5091984,111.54057 C26.4863548,111.49336 26.4650339,111.44615 26.4406674,111.400463 C25.7416546,109.908016 25.4325049,108.254142 25.55586,106.551535 L28.6138522,64.5681045 C29.4438355,53.1813474 37.2867934,43.7743665 47.6958456,40.4666179 L47.6958456,54.7971493 C47.6958456,76.2381212 42.6413255,97.610563 33.0592105,116.785453 C31.1921294,116.349903 29.495614,115.372198 28.1493665,113.925439 Z M167.653509,116.776316 C158.07444,97.6029481 153.021442,76.2335524 153.021442,54.7971493 L153.021442,40.4818472 C163.407651,43.8033018 171.227766,53.1980994 172.056226,64.5681045 L175.114218,106.551535 C175.237573,108.252619 174.929946,109.906494 174.230933,111.397417 C174.201998,111.452242 174.176109,111.508589 174.148696,111.564936 C173.731421,112.413195 173.187743,113.20815 172.520712,113.925439 C171.185124,115.361538 169.503838,116.334674 167.653509,116.776316 Z M190.239705,106.606359 C188.715278,108.363791 186.507066,109.370431 184.181591,109.370431 L182.803363,109.370431 C182.940424,108.254142 182.973928,107.121101 182.891691,105.985014 L179.833699,64.0015836 C179.798672,63.5249146 179.749939,63.0528144 179.696637,62.5807138 L179.791057,62.5807138 C183.755178,62.5807138 187.168007,65.5412402 187.728436,69.4657653 L192.120492,100.217775 C192.449439,102.520407 191.764133,104.848928 190.239705,106.606359 L190.239705,106.606359 Z" id="Shape"></path>
            <path d="M104.533687,64.1447368 C104.631152,64.3792639 104.752985,64.6046542 104.893092,64.8148148 C105.033199,65.0295442 105.197673,65.2320904 105.375853,65.4117934 C105.555556,65.5914963 105.755056,65.7544468 105.969786,65.8960772 C106.179946,66.0346612 106.405336,66.1564936 106.644432,66.2539595 C106.877437,66.3514253 107.122624,66.4260476 107.372381,66.4763037 C107.622137,66.5265595 107.879508,66.5539719 108.133833,66.5539719 C108.386635,66.5539719 108.644006,66.5265595 108.896808,66.4763037 C109.143519,66.4260476 109.388706,66.3514253 109.626279,66.2539595 C109.860807,66.1564936 110.086196,66.0346612 110.29788,65.8960772 C110.511087,65.7544468 110.710587,65.5914963 110.89029,65.4117934 C111.069993,65.2320904 111.232943,65.0295442 111.377619,64.8148148 C111.517727,64.6046542 111.638036,64.3792639 111.735502,64.1447368 C111.832968,63.9071637 111.90759,63.6650218 111.957846,63.4152655 C112.009625,63.1624635 112.032468,62.9081384 112.032468,62.6507676 C112.032468,62.3979653 112.009625,62.1451634 111.957846,61.8908382 C111.90759,61.6410819 111.832968,61.3958943 111.735502,61.1613669 C111.638036,60.9283626 111.517727,60.7014499 111.377619,60.4882433 C111.232943,60.2735135 111.069993,60.0740133 110.89029,59.8943103 C110.710587,59.7146078 110.511087,59.5516569 110.29788,59.4115497 C110.086196,59.2714425 109.860807,59.1496101 109.626279,59.0521442 C109.388706,58.9546784 109.143519,58.8815789 108.896808,58.8298004 C108.39425,58.7292885 107.876462,58.7292885 107.372381,58.8298004 C107.122624,58.8815789 106.877437,58.9546784 106.644432,59.0521442 C106.405336,59.1496101 106.179946,59.2714425 105.969786,59.4115497 C105.755056,59.5516569 105.555556,59.7146078 105.375853,59.8943103 C105.197673,60.0740133 105.033199,60.2735135 104.893092,60.4882433 C104.752985,60.7014499 104.631152,60.9283626 104.533687,61.1613669 C104.436221,61.3958943 104.363121,61.6410819 104.311343,61.8908382 C104.261087,62.1451634 104.233674,62.3979653 104.233674,62.6507676 C104.233674,62.9081384 104.261087,63.1624635 104.311343,63.4152655 C104.363121,63.6650218 104.436221,63.9071637 104.533687,64.1447368 Z" id="Path"></path>
        </g>
    </g>
</svg>