<?xml version="1.0" encoding="UTF-8"?>
<svg width="200px" height="193px" viewBox="0 0 200 193" version="1.1" xmlns="http://www.w3.org/2000/svg" xmlns:xlink="http://www.w3.org/1999/xlink">
    <!-- Generator: Sketch 53.2 (72643) - https://sketchapp.com -->
    <title>005-whistle</title>
    <desc>Created with Sketch.</desc>
    <g id="Page-1" stroke="none" stroke-width="1" fill="none" fill-rule="evenodd">
        <g id="Artboard" transform="translate(-712.000000, -700.000000)" fill="#4A7CB2" fill-rule="nonzero">
            <g id="005-whistle" transform="translate(712.000000, 700.000000)">
                <path d="M188.183594,72.6246094 L92.0914062,72.6246094 C91.7285156,72.4628906 91.3273437,72.3710938 90.9042969,72.3710938 C89.2894531,72.3710938 87.9800781,73.6800781 87.9800781,75.2949219 L87.9796875,75.3367188 C87.9785156,75.353125 87.9796875,75.3691406 87.9789062,75.3855469 C87.978125,75.4019531 87.975,75.4179688 87.9746094,75.434375 C87.90625,77.1839844 86.4773438,78.5542969 84.7207031,78.5542969 L77.1378906,78.5542969 C75.3816406,78.5542969 73.9527344,77.1839844 73.884375,75.434375 C73.884375,75.4339844 73.8789062,75.3371094 73.8789062,75.3371094 L73.8785156,75.2953125 C73.8785156,73.6804688 72.5695312,72.3714844 70.9546875,72.3714844 C70.5316406,72.3714844 70.1304687,72.4632813 69.7675781,72.625 L64.7832031,72.625 C55.3382812,72.625 46.2597656,75.4636719 38.5289062,80.8335938 C37.2027344,81.7550781 36.8742187,83.5769531 37.7957031,84.903125 C38.7167969,86.2292969 40.5390625,86.5578125 41.8652344,85.6363281 C48.6117187,80.95 56.5363281,78.4730469 64.7832031,78.4730469 L68.0308594,78.4730469 L68.0308594,100.547266 C64.4378906,100.547266 59.0113281,100.306641 51.840625,102.403516 C39.8769531,105.901953 30.2367187,113.960156 24.5613281,124.124609 C24.5613281,118.148438 23.5421875,105.508594 33.7105469,93.1535156 C34.7367187,91.9066406 34.5578125,90.0640625 33.3109375,89.0378906 C32.0640625,88.0117188 30.2214844,88.190625 29.1953125,89.4375 C22.4359375,97.6503906 18.7136719,108.041406 18.7136719,118.695313 L18.7136719,127.675391 C18.3890625,127.657422 18.0644531,127.642969 17.7390625,127.642969 C7.95742187,127.641797 0,135.599609 0,145.380859 L0,165.392578 C0,181.567187 19.9558594,189.229297 30.8273438,177.353125 C39.6304688,187.013281 52.0609375,192.683203 64.7792969,192.683203 C64.7792969,192.683203 64.7886719,192.683203 64.7921875,192.683203 C81.2601563,192.679297 96.5808594,183.79375 104.772656,169.497266 C109.188281,161.816016 114.640234,155.109375 121.386719,149.235547 C122.604687,148.175391 122.732031,146.328125 121.671875,145.110547 C120.611719,143.892578 118.764453,143.764844 117.546875,144.825391 C109.896484,151.485937 103.248047,160.071484 100.372266,165.433594 C100.148047,165.816797 99.9234375,166.199609 99.7011719,166.586328 C92.5460937,179.073047 79.1691406,186.832031 64.7910156,186.835547 C64.7871094,186.835547 64.7835937,186.835547 64.7800781,186.835547 C52.2339844,186.835547 39.909375,180.466797 32.1460937,169.719922 C13.0078125,143.225 32.2539062,106.394531 64.7835937,106.394531 L68.9523437,106.394531 C69.8621094,108.261328 71.4296875,109.786328 73.3070312,110.655469 C74.4773438,111.196875 75.8304688,111.498047 77.1382812,111.498047 C83.4890625,111.498047 89.8226562,112.722656 92.9070312,106.394922 L194.151953,106.394922 L194.151953,113.073828 C194.151953,115.908594 192.133984,118.369922 189.354297,118.925781 L157.301562,125.336328 C146.169531,127.562891 135.755469,131.861719 126.349609,138.113672 C125.004688,139.007422 124.639063,140.822656 125.532813,142.167578 C126.426563,143.512109 128.241016,143.878125 129.586328,142.983984 C138.355469,137.155078 148.066016,133.147266 158.448047,131.070703 L190.500781,124.660156 C196.005469,123.559375 200,118.686719 200,113.073828 L200,103.470703 L200,84.4410156 C200,77.9253906 194.699219,72.6246094 188.183594,72.6246094 Z M21.0527344,165.392188 C21.0527344,167.219531 19.5660156,168.705859 17.7390625,168.705859 C15.9121094,168.705859 14.4253906,167.219141 14.4253906,165.392188 C14.4253906,163.564844 15.9121094,162.078516 17.7390625,162.078516 C19.5660156,162.078516 21.0527344,163.565234 21.0527344,165.392188 Z M17.7390625,133.489844 C18.0644531,133.489844 18.3898437,133.503125 18.7136719,133.530078 C18.7136719,147.763672 18.7089844,146.9375 18.7257812,147.680859 C14.16875,147.430078 9.44726562,148.960547 5.8484375,152.227734 L5.8484375,145.380859 L5.84804687,145.380859 C5.84804687,138.824609 11.1820313,133.489844 17.7390625,133.489844 Z M25.4875,170.275 C25.7246094,170.659766 26.54375,171.929297 27.1035156,172.722656 C24.8699219,175.572266 21.4226563,177.283203 17.7386719,177.283203 C10.0324219,177.283203 4.31953125,170.012109 6.2046875,162.501953 C7.62890625,156.773438 13.1664063,152.823828 19.2644531,153.602734 C19.4183594,154.569531 19.7300781,156.082812 19.8179688,156.468359 C14.1070313,155.136719 8.5765625,159.480469 8.5765625,165.392187 C8.5765625,174.439844 20.5464844,178.098828 25.4875,170.275 Z M87.9308594,102.963281 C87.6566406,104.519922 86.3066406,105.649609 84.7207031,105.649609 C84.4894531,105.649609 77.0726563,105.657031 76.84375,105.636719 C75.1757813,105.487891 73.8789063,104.098047 73.8789063,102.390625 L73.8789063,83.8074219 C74.890625,84.1921875 75.9894531,84.4023438 77.1382813,84.4023438 L84.7210938,84.4023438 C85.8699219,84.4023438 86.96875,84.1921875 87.9800781,83.8074219 C87.9800781,103.870313 88.0011719,102.566797 87.9308594,102.963281 Z M194.152344,100.546484 L93.8285156,100.546484 L93.8285156,78.4722656 L188.183984,78.4722656 C191.475,78.4722656 194.152344,81.1496094 194.152344,84.440625 L194.152344,100.546484 Z" id="Shape"></path>
                <path d="M103.11875,80.7921875 C101.503516,80.7921875 100.194922,82.1011719 100.194922,83.7160156 L100.194922,94.0472656 C100.194922,95.6621094 101.503906,96.9710938 103.11875,96.9710938 C104.733594,96.9710938 106.042578,95.6621094 106.042578,94.0472656 L106.042578,83.7160156 C106.042969,82.1015625 104.733984,80.7921875 103.11875,80.7921875 Z" id="Path"></path>
                <path d="M125.925781,80.7921875 C124.310937,80.7921875 123.001953,82.1011719 123.001953,83.7160156 L123.001953,94.0472656 C123.001953,95.6621094 124.310937,96.9710938 125.925781,96.9710938 C127.541016,96.9710938 128.85,95.6621094 128.85,94.0472656 L128.85,83.7160156 C128.85,82.1015625 127.541016,80.7921875 125.925781,80.7921875 Z" id="Path"></path>
                <path d="M148.732812,80.7921875 C147.117578,80.7921875 145.808984,82.1011719 145.808984,83.7160156 L145.808984,94.0472656 C145.808984,95.6621094 147.117969,96.9710938 148.732812,96.9710938 C150.348047,96.9710938 151.656641,95.6621094 151.656641,94.0472656 L151.656641,83.7160156 C151.657031,82.1015625 150.348047,80.7921875 148.732812,80.7921875 Z" id="Path"></path>
                <path d="M171.539844,80.7921875 C169.924609,80.7921875 168.615625,82.1011719 168.615625,83.7160156 L168.615625,94.0472656 C168.615625,95.6621094 169.924609,96.9710938 171.539844,96.9710938 C173.154688,96.9710938 174.463672,95.6621094 174.463672,94.0472656 L174.463672,83.7160156 C174.464063,82.1015625 173.155078,80.7921875 171.539844,80.7921875 Z" id="Path"></path>
                <path d="M80.9296875,0.285546875 C79.3148437,0.285546875 78.0054688,1.59453125 78.0054688,3.209375 L78.0054688,57.9851563 C78.0058594,59.6003906 79.3148438,60.909375 80.9296875,60.909375 C82.5445313,60.909375 83.8535156,59.6003906 83.8535156,57.9855469 L83.8535156,3.209375 C83.8535156,1.59414062 82.5445313,0.285546875 80.9296875,0.285546875 Z" id="Path"></path>
                <path d="M135.108984,21.9015625 C133.966797,20.7597656 132.115625,20.7597656 130.973437,21.9015625 L94.4238281,58.4511719 C93.2816406,59.5929687 93.2816406,61.4445313 94.4238281,62.5863281 C94.9945312,63.1574219 95.7429688,63.4429688 96.4914062,63.4429688 C97.2398437,63.4429688 97.9878906,63.1574219 98.5589844,62.5863281 L135.108984,26.0367188 C136.250781,24.8953125 136.250781,23.04375 135.108984,21.9015625 Z" id="Path"></path>
                <path d="M66.4925781,58.4519531 L29.9425781,21.9023438 C28.8007813,20.7605469 26.9492188,20.7605469 25.8074219,21.9023438 C24.6652344,23.0441406 24.6652344,24.8957031 25.8074219,26.0375 L62.3574219,62.5871094 C62.9285156,63.1582031 63.6765625,63.44375 64.425,63.44375 C65.1734375,63.44375 65.9214844,63.1582031 66.4925781,62.5871094 C67.634375,61.4449219 67.634375,59.59375 66.4925781,58.4519531 Z" id="Path"></path>
                <path d="M64.9125,117.700391 C48.9691406,117.700391 35.9980469,130.671484 35.9980469,146.614453 C35.9980469,162.557422 48.9691406,175.528906 64.9125,175.528906 C80.8558594,175.528906 93.8265625,162.557813 93.8265625,146.614453 C93.8265625,130.671094 80.8554688,117.700391 64.9125,117.700391 Z M64.9125,169.680859 C52.19375,169.680859 41.8460938,159.333203 41.8460938,146.614453 C41.8460938,133.895703 52.19375,123.548047 64.9125,123.548047 C77.63125,123.548047 87.9785156,133.895703 87.9785156,146.614453 C87.9785156,159.333203 77.6308594,169.680859 64.9125,169.680859 Z" id="Shape"></path>
            </g>
        </g>
    </g>
</svg>