<?xml version="1.0" encoding="UTF-8"?>
<svg width="200px" height="132px" viewBox="0 0 200 132" version="1.1" xmlns="http://www.w3.org/2000/svg" xmlns:xlink="http://www.w3.org/1999/xlink">
    <!-- Generator: Sketch 53.2 (72643) - https://sketchapp.com -->
    <title>019-water-polo-game</title>
    <desc>Created with Sketch.</desc>
    <g id="Page-1" stroke="none" stroke-width="1" fill="none" fill-rule="evenodd">
        <g id="019-water-polo-game" fill="#4A7CB2" fill-rule="nonzero">
            <path d="M196.309227,94.8872818 L196.249377,94.8872818 C193.258853,94.8872818 190.503741,93.5261845 188.690773,91.153616 C185.638404,87.1586035 181.007481,84.8673317 175.985037,84.8673317 C170.9601,84.8673317 166.327182,87.1586035 163.274314,91.153616 C161.643392,93.2887781 159.25187,94.6009975 156.613965,94.8438903 C161.042394,86.9256858 163.702743,78.1770574 164.449377,69.1002494 C165.966584,68.113217 167.300249,66.8753117 168.425436,65.4009975 C170.242394,63.0269327 172.998005,61.6653367 175.985536,61.6653367 C178.970075,61.6653367 181.723691,63.0264339 183.539651,65.3995012 C186.592519,69.394015 191.225436,71.6852868 196.249875,71.6852868 L196.309726,71.6852868 C198.100249,71.6852868 199.551621,70.2339152 199.551621,68.4433915 C199.551621,66.6528678 198.100249,65.2014963 196.309726,65.2014963 L196.249875,65.2014963 C193.262344,65.2014963 190.506733,63.8389027 188.689776,61.4608479 C185.636409,57.4703242 181.005985,55.1815461 175.985536,55.1815461 C171.620948,55.1815461 167.552618,56.9112219 164.555611,59.9845387 C162.570075,26.6648379 134.837406,0.164089776 101.02793,0.164089776 C65.9336658,0.164089776 37.3820449,28.7157107 37.3820449,63.8099751 C37.3820449,64.0822943 37.3900249,64.353616 37.3935162,64.6254364 C36.357606,65.0029925 35.2558603,65.2014963 34.1351621,65.2014963 C31.1471322,65.2014963 28.3945137,63.8399002 26.5815461,61.4628429 C23.5311721,57.4698254 18.8987531,55.1800499 13.872818,55.1800499 C8.84738155,55.1800499 4.21546135,57.4703242 1.16508728,61.4628429 C0.0778054863,62.8862843 0.350124688,64.9206983 1.77306733,66.0069825 C3.19650873,67.0947631 5.23092269,66.8214464 6.31720698,65.3990025 C8.13067332,63.0249377 10.8842893,61.6638404 13.872818,61.6638404 C16.8613466,61.6638404 19.6154613,63.0249377 21.4274314,65.3965087 C24.474813,69.3930175 29.1067332,71.684788 34.1346633,71.684788 C35.3790524,71.684788 36.6094763,71.5321696 37.8064838,71.2503741 C38.5446384,77.6593516 40.2488778,83.8518703 42.8932668,89.7546135 C42.4708229,90.194015 42.0703242,90.6603491 41.6937656,91.1531172 C39.8802993,93.5261845 37.1256858,94.886783 34.1351621,94.886783 C31.1446384,94.886783 28.3915212,93.5266833 26.5820449,91.1541147 C23.5316708,87.1586035 18.8992519,84.8673317 13.872818,84.8673317 C8.84688279,84.8673317 4.21496259,87.1591022 1.16458853,91.1541147 C0.0783042394,92.5775561 0.351122195,94.6119701 1.77456359,95.6977556 C3.19800499,96.7850374 5.23341646,96.5117207 6.31820449,95.0882793 C8.13167082,92.7127182 10.8852868,91.3506234 13.8733167,91.3506234 C16.8613466,91.3506234 19.6154613,92.7127182 21.4274314,95.086783 C24.4723192,99.0802993 29.1047382,101.370574 34.1351621,101.370574 C39.1625935,101.370574 43.7955112,99.0812968 46.8458853,95.0892768 C48.6618454,92.713217 51.4164589,91.3506234 54.40399,91.3506234 C57.3925187,91.3506234 60.1451372,92.7122195 61.9566085,95.0872818 C65.001995,99.0802993 69.6339152,101.370574 74.6638404,101.370574 C79.6912718,101.370574 84.3241895,99.0812968 87.3745636,95.0892768 C89.1905237,92.713217 91.9451372,91.3506234 94.9331671,91.3506234 C97.9216958,91.3506234 100.674314,92.7122195 102.485287,95.0872818 C105.530673,99.0802993 110.162594,101.370574 115.193017,101.370574 C120.21995,101.370574 124.852868,99.0812968 127.903242,95.0892768 C129.719202,92.713217 132.472319,91.3506234 135.457357,91.3506234 C138.442394,91.3506234 141.195012,92.713217 143.010973,95.0892768 L144.095761,96.3630923 C147.106234,99.5650873 151.259352,101.37207 155.722693,101.37207 C160.746633,101.37207 165.377556,99.0817955 168.42793,95.0892768 C170.24389,92.713217 172.998504,91.3506234 175.986534,91.3506234 C178.971571,91.3506234 181.724688,92.713217 183.54015,95.0892768 C186.590524,99.0812968 191.223441,101.370574 196.250873,101.370574 L196.310723,101.370574 C198.101247,101.370574 199.552618,99.919202 199.552618,98.1286783 C199.552618,96.3381546 198.099751,94.8872818 196.309227,94.8872818 Z M150.138653,93.0837905 C149.586035,92.680798 149.074813,92.2134663 148.61197,91.6897756 C150.736658,74.9182045 149.80399,58.1137157 145.836908,41.6837905 L152.065835,38.0877805 C155.980549,45.8239401 158.190025,54.563591 158.190025,63.8104738 C158.189526,74.2004988 155.408978,84.2573566 150.138653,93.0837905 Z M148.813466,32.4783042 L101.026933,60.0678304 L86.3815461,51.6124688 C102.710723,39.3481297 120.537157,29.2448878 139.44788,21.5201995 C143.009476,24.7591022 146.158105,28.4428928 148.813466,32.4783042 Z M65.2952618,39.438404 C80.5042394,25.4453865 98.9137157,15.1331671 118.806484,9.48179551 C124.146633,11.2339152 129.142145,13.7521197 133.662344,16.9072319 C114.630923,25.0109726 96.7112219,35.4857855 80.2997506,48.1012469 L65.2952618,39.438404 Z M97.7855362,65.6832918 L97.7855362,82.59601 C78.9910224,74.5760599 61.3216958,64.1760599 45.1720698,51.646384 C46.2094763,46.8793017 47.8413965,42.3326683 49.9890274,38.0877805 L97.7855362,65.6832918 Z M101.027431,6.6478803 C102.718204,6.6478803 104.390524,6.72618454 106.044389,6.87032419 C88.765586,13.3850374 72.8528678,23.3241895 59.4239401,36.0488778 L53.2408978,32.4793017 C63.4683292,16.9326683 81.0683292,6.6478803 101.027431,6.6478803 Z M82.2219451,91.1531172 C80.4084788,93.5261845 77.6538653,94.886783 74.6633416,94.886783 C71.672818,94.886783 68.9201995,93.5266833 67.1112219,91.1551122 C64.0633416,87.1591022 59.4319202,84.8673317 54.4034913,84.8673317 C52.2837905,84.8673317 50.236409,85.2793017 48.3456359,86.0508728 C45.3715711,79.0334165 43.8648379,71.5680798 43.8648379,63.8104738 C43.8648379,62.1790524 43.9376559,60.5645885 44.0718204,58.967581 C58.1306733,69.5471322 73.2733167,78.5715711 89.2558603,85.9017456 C86.5077307,86.9396509 84.0733167,88.7306733 82.2219451,91.1531172 Z M107.640399,91.155611 C106.666334,89.8778055 105.528678,88.7770574 104.269327,87.8668329 L104.269327,65.682793 L118.899252,57.236409 C120.372569,69.1411471 120.949127,81.2089776 120.617456,93.194015 C119.048379,94.286783 117.173067,94.8872818 115.192519,94.8872818 C112.201496,94.8872818 109.448878,93.527182 107.640399,91.155611 Z M127.193516,87.1625935 C127.218454,75.9885287 126.476309,64.7795511 124.982544,53.7241895 L139.974065,45.0688279 C143.066833,58.7291771 143.965586,72.6483791 142.657855,86.5700748 C140.462344,85.4623441 138.010973,84.8673317 135.456858,84.8673317 C132.481796,84.8673317 129.646883,85.676808 127.193516,87.1625935 Z" id="Shape"></path>
            <path d="M196.309227,124.573067 L196.249377,124.573067 C193.258853,124.573067 190.503741,123.21197 188.690773,120.839401 C185.640898,116.847382 181.009975,114.558105 175.985037,114.558105 C170.957606,114.558105 166.324688,116.847382 163.274314,120.839401 C161.460848,123.212968 158.708229,124.574065 155.720698,124.574065 C152.733167,124.574065 149.98005,123.212968 148.166584,120.839401 L147.081297,119.565586 C144.071322,116.364589 139.918703,114.558105 135.45586,114.558105 C130.431421,114.558105 125.800499,116.847382 122.749626,120.839401 C120.93616,123.212469 118.181546,124.573067 115.191521,124.573067 C112.200998,124.573067 109.44788,123.212469 107.639401,120.841895 C104.594514,116.848379 99.9620948,114.558105 94.9316708,114.558105 C89.9042394,114.558105 85.2713217,116.847382 82.2209476,120.839401 C80.4074813,123.212469 77.6528678,124.573067 74.6623441,124.573067 C71.6718204,124.573067 68.919202,123.212469 67.1102244,120.841397 C64.0648379,116.848379 59.4329177,114.558105 54.4024938,114.558105 C49.3755611,114.558105 44.7426434,116.847382 41.6922693,120.839401 C39.878803,123.212469 37.1241895,124.573067 34.1336658,124.573067 C31.1431421,124.573067 28.3900249,123.212968 26.5800499,120.839401 C23.5296758,116.846384 18.8972569,114.556608 13.8713217,114.556608 C8.84588529,114.556608 4.21396509,116.846883 1.16359102,120.839401 C0.0763092269,122.262843 0.348628429,124.297257 1.77157107,125.383541 C3.19501247,126.471322 5.22942643,126.198005 6.31571072,124.775561 C8.12917706,122.401496 10.882793,121.040399 13.8713217,121.040399 C16.8598504,121.040399 19.6139651,122.401496 21.4254364,124.773067 C24.4703242,128.766584 29.1027431,131.056858 34.1331671,131.056858 C39.1605985,131.056858 43.7935162,128.767581 46.8438903,124.775561 C48.6573566,122.402494 51.4119701,121.041895 54.401995,121.041895 C57.3925187,121.041895 60.1456359,122.402494 61.9546135,124.773566 C65,128.766584 69.6319202,131.056858 74.6618454,131.056858 C79.6892768,131.056858 84.3221945,128.767581 87.3725686,124.775561 C89.1860349,122.402494 91.9406484,121.041895 94.9311721,121.041895 C97.9216958,121.041895 100.674813,122.401995 102.483292,124.773566 C105.528678,128.766584 110.160599,131.056858 115.191022,131.056858 C120.217955,131.056858 124.850873,128.767581 127.901247,124.775561 C129.714713,122.402494 132.46783,121.041895 135.455362,121.041895 C138.442893,121.041895 141.195511,122.402993 143.008978,124.775561 L144.094264,126.049377 C147.104239,129.251372 151.257357,131.057855 155.720698,131.057855 C160.744638,131.057855 165.375561,128.76808 168.425935,124.775561 C170.239401,122.402494 172.994015,121.041895 175.984539,121.041895 C178.971571,121.041895 181.725187,122.402993 183.538155,124.775561 C186.588529,128.767581 191.221446,131.056858 196.248878,131.056858 L196.308728,131.056858 C198.099252,131.056858 199.550623,129.605486 199.550623,127.814963 C199.550623,126.024439 198.099751,124.573067 196.309227,124.573067 Z" id="Path"></path>
        </g>
    </g>
</svg>