<?xml version="1.0" encoding="UTF-8"?>
<svg width="200px" height="200px" viewBox="0 0 200 200" version="1.1" xmlns="http://www.w3.org/2000/svg" xmlns:xlink="http://www.w3.org/1999/xlink">
    <!-- Generator: Sketch 53.2 (72643) - https://sketchapp.com -->
    <title>039-event-tent</title>
    <desc>Created with Sketch.</desc>
    <g id="Page-1" stroke="none" stroke-width="1" fill="none" fill-rule="evenodd">
        <g id="039-event-tent" fill="#4A7CB2" fill-rule="nonzero">
            <path d="M196.985844,194.215245 L189.483848,194.215245 L189.483848,92.3038113 L191.873684,92.3038113 C193.377495,92.3038113 194.596007,91.0852995 194.596007,89.5814882 L194.596007,69.1666062 C194.596007,69.1629764 194.596007,69.1593466 194.596007,69.1560799 L194.596007,69.1328494 C194.596007,69.108167 194.593103,69.0842105 194.592377,69.0595281 C194.590563,68.9985481 194.589111,68.937931 194.583303,68.877314 C194.578947,68.8323049 194.571688,68.7883848 194.565154,68.7437387 C194.558984,68.7019964 194.553902,68.6602541 194.546279,68.6188748 C194.536116,68.5655172 194.522686,68.5132486 194.509256,68.46098 C194.50127,68.4290381 194.494011,68.3967332 194.484574,68.3651543 C194.468603,68.3110708 194.449728,68.2580762 194.43049,68.2054446 C194.419601,68.1756806 194.4098,68.1455535 194.397822,68.1157895 C194.377858,68.0660617 194.355354,68.0177858 194.332486,67.969873 C194.317241,67.9375681 194.302359,67.9049002 194.286025,67.8729583 C194.263884,67.830853 194.239927,67.7905626 194.215971,67.7499093 C194.194192,67.7132486 194.17314,67.676588 194.149909,67.6410163 C194.127405,67.6068966 194.103448,67.5742287 194.079855,67.5415608 C194.051543,67.5019964 194.02323,67.4627949 193.992377,67.4246824 C193.96951,67.3963702 193.944828,67.36951 193.920871,67.3419238 C193.886751,67.3030853 193.852995,67.2642468 193.816697,67.2272232 C193.789837,67.2 193.761525,67.1745917 193.733575,67.1484574 C193.698004,67.1150635 193.662795,67.0813067 193.625045,67.0500907 C193.588022,67.0188748 193.549183,66.9905626 193.510345,66.9611615 C193.479492,66.937931 193.449365,66.9136116 193.41706,66.8914701 C193.360799,66.8526316 193.302722,66.8174229 193.243557,66.7829401 C193.227949,66.7738657 193.21343,66.7629764 193.197459,66.754265 C193.195281,66.753176 193.186207,66.7480944 193.182214,66.7459165 C193.176044,66.7426497 193.170236,66.73902 193.164428,66.7361162 C191.939746,66.0540835 154.400726,45.1346642 141.054083,36.1981851 C129.333938,28.3506352 102.053358,1.12014519 101.77931,0.846098004 C100.715789,-0.216696915 98.9927405,-0.216696915 97.9295826,0.846098004 C97.6555354,1.12014519 70.3782214,28.3484574 58.6551724,36.1978221 C45.307441,45.1350272 7.75789474,66.0602541 6.54373866,66.7361162 C6.53793103,66.73902 6.53248639,66.7422868 6.52704174,66.7455535 C6.52268603,66.7480944 6.51324864,66.753176 6.51107078,66.754265 C6.49401089,66.7637024 6.47912886,66.7749546 6.46243194,66.784755 C6.40471869,66.8185118 6.34736842,66.8529946 6.29219601,66.8907441 C6.2584392,66.9136116 6.22722323,66.93902 6.19491833,66.9633394 C6.15753176,66.9916515 6.12014519,67.0188748 6.08421053,67.0490018 C6.04500907,67.0816697 6.00871143,67.1165154 5.97205082,67.1509982 C5.94555354,67.1760436 5.91833031,67.2 5.89292196,67.2261343 C5.85517241,67.2642468 5.82032668,67.3045372 5.78511797,67.3448276 C5.76225045,67.3709619 5.73901996,67.3963702 5.71724138,67.4232305 C5.68529946,67.4627949 5.65589837,67.5038113 5.6261343,67.5448276 C5.60362976,67.5760436 5.58076225,67.6068966 5.55970962,67.6392015 C5.53502722,67.676951 5.51252269,67.7150635 5.49001815,67.753902 C5.46715064,67.7923775 5.44428312,67.830853 5.42359347,67.8707804 C5.40580762,67.9049002 5.38983666,67.9397459 5.37350272,67.9749546 C5.35208711,68.0206897 5.33030853,68.0664247 5.31143376,68.1136116 C5.29836661,68.1459165 5.28747731,68.1785844 5.27586207,68.2112523 C5.25771325,68.261706 5.2399274,68.3117967 5.2246824,68.3633394 C5.21451906,68.3978221 5.20653358,68.4330309 5.19782214,68.4678766 C5.18548094,68.5172414 5.17241379,68.5666062 5.16297641,68.6170599 C5.15426497,68.661706 5.14882033,68.7067151 5.14228675,68.7520871 C5.13647913,68.7931034 5.12958258,68.8341198 5.12558984,68.8758621 C5.11941924,68.9401089 5.11724138,69.0047187 5.11578947,69.0693285 C5.1154265,69.0907441 5.11252269,69.1114338 5.11252269,69.1328494 L5.11252269,69.153539 C5.11252269,69.1586207 5.11252269,69.1637024 5.11252269,69.168784 L5.11252269,89.5818512 C5.11252269,91.0856624 6.33139746,92.3041742 7.83484574,92.3041742 L10.2246824,92.3041742 L10.2246824,194.215971 L2.72232305,194.215971 C1.21887477,194.215971 0,195.434483 0,196.938294 C0,198.442105 1.21887477,199.660617 2.72232305,199.660617 L12.9466425,199.660617 L23.5941924,199.660617 L40.9582577,199.660617 L51.6058076,199.660617 L148.102722,199.660617 L158.750272,199.660617 L176.114338,199.660617 L186.761887,199.660617 L196.986207,199.660617 C198.490018,199.660617 199.70853,198.442105 199.70853,196.938294 C199.70853,195.434483 198.489655,194.215245 196.985844,194.215245 Z M61.6842105,40.7212341 C72.1165154,33.7357532 93.3183303,13.06098 99.8540835,6.6061706 C106.389474,13.06098 127.592377,33.7361162 138.024682,40.7215971 C147.699819,47.199637 169.154628,59.4656987 181.458076,66.4098004 L176.537205,66.4098004 C175.033394,66.4098004 173.814882,67.6283122 173.814882,69.1321234 C173.814882,70.6359347 175.033394,71.8544465 176.537205,71.8544465 L189.151724,71.8544465 L189.151724,86.8588022 L186.761887,86.8588022 L176.114338,86.8588022 L158.750272,86.8588022 L148.102722,86.8588022 L51.6058076,86.8588022 L40.9582577,86.8588022 L23.5941924,86.8588022 L12.9466425,86.8588022 L10.5568058,86.8588022 L10.5568058,71.8548094 L161.200363,71.8548094 C162.704174,71.8548094 163.922686,70.6362976 163.922686,69.1324864 C163.922686,67.6286751 162.704174,66.4101633 161.200363,66.4101633 L18.2500907,66.4101633 C30.553539,59.4656987 52.0094374,47.199274 61.6842105,40.7212341 Z M173.391652,92.3038113 L173.391652,194.215608 L161.472232,194.215608 L161.472232,92.3038113 L173.391652,92.3038113 Z M145.380036,92.3038113 L145.380036,194.215608 L54.3281307,194.215608 L54.3281307,92.3038113 L145.380036,92.3038113 Z M38.2359347,92.3038113 L38.2359347,194.215608 L26.3165154,194.215608 L26.3165154,92.3038113 L38.2359347,92.3038113 Z M15.6689655,194.215608 L15.6689655,92.3038113 L20.8718693,92.3038113 L20.8718693,194.215608 L15.6689655,194.215608 L15.6689655,194.215608 Z M43.6805808,194.215608 L43.6805808,92.3038113 L48.8834846,92.3038113 L48.8834846,194.215608 L43.6805808,194.215608 L43.6805808,194.215608 Z M150.824682,194.215608 L150.824682,92.3038113 L156.027586,92.3038113 L156.027586,194.215608 L150.824682,194.215608 L150.824682,194.215608 Z M178.836298,194.215608 L178.836298,92.3038113 L184.039201,92.3038113 L184.039201,194.215608 L178.836298,194.215608 L178.836298,194.215608 Z" id="Shape"></path>
        </g>
    </g>
</svg>