<?xml version="1.0" encoding="UTF-8"?>
<svg width="200px" height="200px" viewBox="0 0 200 200" version="1.1" xmlns="http://www.w3.org/2000/svg" xmlns:xlink="http://www.w3.org/1999/xlink">
    <!-- Generator: Sketch 53.2 (72643) - https://sketchapp.com -->
    <title>006-helmet</title>
    <desc>Created with Sketch.</desc>
    <g id="Page-1" stroke="none" stroke-width="1" fill="none" fill-rule="evenodd">
        <g id="006-helmet" fill="#4A7CB2" fill-rule="nonzero">
            <path d="M190,90 L189.866667,90 C188.6025,53.045 164.760417,20.665 129.846667,8.48666667 C129.101667,3.61916667 124.924167,0.01875 120,0 L80,0 C75.0758333,0.01875 70.8983333,3.61916667 70.1533333,8.48666667 C35.2395833,20.665 11.3975,53.045 10.1333333,90 L10,90 C4.47708333,90 0,94.4770833 0,100 L0,106.666667 C0,112.189583 4.47708333,116.666667 10,116.666667 L190,116.666667 C195.522917,116.666667 200,112.189583 200,106.666667 L200,100 C200,94.4770833 195.522917,90 190,90 Z M70,15.6366667 L70,73.3333333 C70,75.1741667 71.4925,76.6666667 73.3333333,76.6666667 C75.1741667,76.6666667 76.6666667,75.1741667 76.6666667,73.3333333 L76.6666667,10 C76.6666667,8.15916667 78.1591667,6.66666667 80,6.66666667 L96.6666667,6.66666667 L96.6666667,80 C96.6666667,81.8408333 98.1591667,83.3333333 100,83.3333333 C101.840833,83.3333333 103.333333,81.8408333 103.333333,80 L103.333333,6.66666667 L120,6.66666667 C121.840833,6.66666667 123.333333,8.15916667 123.333333,10 L123.333333,73.3333333 C123.333333,75.1741667 124.825833,76.6666667 126.666667,76.6666667 C128.5075,76.6666667 130,75.1741667 130,73.3333333 L130,15.6366667 C161.03,27.5275 181.96625,56.7925 183.2,90 L16.8,90 C18.03375,56.7925 38.97,27.5275 70,15.6366667 Z M193.333333,106.666667 C193.333333,108.5075 191.840833,110 190,110 L10,110 C8.15916667,110 6.66666667,108.5075 6.66666667,106.666667 L6.66666667,100 C6.66666667,98.1591667 8.15916667,96.6666667 10,96.6666667 L190,96.6666667 C191.840833,96.6666667 193.333333,98.1591667 193.333333,100 L193.333333,106.666667 Z" id="Shape"></path>
            <path d="M83.3333333,146.666667 L40,146.666667 C34.4770833,146.666667 30,151.14375 30,156.666667 L30,170 C30,171.840833 31.4925,173.333333 33.3333333,173.333333 C35.1741667,173.333333 36.6666667,171.840833 36.6666667,170 L36.6666667,156.666667 C36.6666667,154.825833 38.1591667,153.333333 40,153.333333 L83.3333333,153.333333 C85.1741667,153.333333 86.6666667,151.840833 86.6666667,150 C86.6666667,148.159167 85.1741667,146.666667 83.3333333,146.666667 Z" id="Path"></path>
            <path d="M196.666667,146.666667 L183,146.666667 C181.405417,138.912083 174.58375,133.343333 166.666667,133.333333 L33.3333333,133.333333 C24.1333333,133.344167 16.6775,140.8 16.6666667,150 L3.33333333,150 C1.4925,150 0,151.4925 0,153.333333 L0,180 C0,181.840833 1.4925,183.333333 3.33333333,183.333333 L17.6666667,183.333333 C20.6204167,193.20625 29.6945833,199.977917 40,200 L60,200 C75.2533333,199.956667 89.3729167,191.939583 97.2266667,178.863333 C98.1833333,177.331667 100.200833,176.865833 101.7325,177.8225 C102.154167,178.085833 102.51,178.441667 102.773333,178.863333 C110.627083,191.939583 124.746667,199.956667 140,200 L160,200 C171.58875,199.98625 181.41125,191.469583 183.066667,180 L196.666667,180 C198.5075,180 200,178.5075 200,176.666667 L200,150 C200,148.159167 198.5075,146.666667 196.666667,146.666667 Z M16.6666667,176.666667 L6.66666667,176.666667 L6.66666667,166.666667 L16.6666667,166.666667 L16.6666667,176.666667 Z M16.6666667,160 L6.66666667,160 L6.66666667,156.666667 L16.6666667,156.666667 L16.6666667,160 Z M176.666667,176.666667 C176.655833,185.866667 169.2,193.3225 160,193.333333 L140,193.333333 C127.090417,193.295417 115.140417,186.51 108.493333,175.443333 C105.654583,170.74875 99.5475,169.244583 94.8533333,172.083333 C93.4779167,172.915 92.325,174.067917 91.4933333,175.443333 C84.84875,186.505833 72.9045833,193.290833 60,193.333333 L40,193.333333 C30.8,193.3225 23.3441667,185.866667 23.3333333,176.666667 L23.3333333,150 C23.3333333,144.477083 27.8104167,140 33.3333333,140 L166.666667,140 C172.189583,140 176.666667,144.477083 176.666667,150 L176.666667,176.666667 Z M193.333333,173.333333 L183.333333,173.333333 L183.333333,163.333333 L193.333333,163.333333 L193.333333,173.333333 Z M193.333333,156.666667 L183.333333,156.666667 L183.333333,153.333333 L193.333333,153.333333 L193.333333,156.666667 Z" id="Shape"></path>
            <path d="M103.333333,146.666667 L96.6666667,146.666667 C94.8258333,146.666667 93.3333333,148.159167 93.3333333,150 C93.3333333,151.840833 94.8258333,153.333333 96.6666667,153.333333 L103.333333,153.333333 C105.174167,153.333333 106.666667,151.840833 106.666667,150 C106.666667,148.159167 105.174167,146.666667 103.333333,146.666667 Z" id="Path"></path>
        </g>
    </g>
</svg>