<?xml version="1.0" encoding="UTF-8"?>
<svg width="200px" height="200px" viewBox="0 0 200 200" version="1.1" xmlns="http://www.w3.org/2000/svg" xmlns:xlink="http://www.w3.org/1999/xlink">
    <!-- Generator: Sketch 53.2 (72643) - https://sketchapp.com -->
    <title>001-coach</title>
    <desc>Created with Sketch.</desc>
    <g id="Page-1" stroke="none" stroke-width="1" fill="none" fill-rule="evenodd">
        <g id="001-coach" fill="#4A7CB2" fill-rule="nonzero">
            <path d="M191.276861,150.688934 C188.379477,133.948491 175.502213,120.749296 158.761771,117.208048 L123.027364,109.48169 C122.705433,109.48169 122.705433,109.48169 122.383501,109.48169 L122.383501,89.2 C132.36338,82.117505 138.48008,70.2060362 138.48008,57.9726358 L138.48008,38.6567404 C138.48008,17.4092555 121.095775,0.0249496982 99.8482897,0.0249496982 C78.6008048,0.0249496982 61.216499,17.4092555 61.216499,38.6567404 L61.216499,57.9726358 C61.216499,70.5279678 67.3331992,82.117505 77.3130785,89.2 L77.3130785,109.48169 C76.9911469,109.48169 76.9911469,109.48169 76.6692153,109.48169 L40.9348089,116.886117 C24.1943662,120.427364 11.3171026,133.626559 8.41971831,150.367002 L0.0494969819,195.759356 C-0.272434608,197.369014 1.01529175,199.300604 2.6249497,199.622535 C2.94688129,199.622535 2.94688129,199.622535 3.26881288,199.622535 L196.427767,199.622535 C198.359356,199.622535 199.647082,198.334809 199.647082,196.403219 C199.647082,196.081288 199.647082,196.081288 199.647082,195.759356 L191.276861,150.688934 Z M99.8482897,6.46358149 C115.301006,6.46358149 128.17827,17.0873239 131.397586,32.2181087 L68.298994,32.2181087 C71.5183099,17.0873239 84.3955734,6.46358149 99.8482897,6.46358149 Z M130.753722,38.6567404 L121.095775,48.3146881 L78.6008048,48.3146881 L68.9428571,38.6567404 L130.753722,38.6567404 Z M67.6551308,57.9726358 L67.6551308,46.3830986 L75.0595573,53.7875252 C75.7034205,54.4313883 76.3472837,54.7533199 77.3130785,54.7533199 L122.383501,54.7533199 C123.349296,54.7533199 123.993159,54.4313883 124.637022,53.7875252 L132.041449,46.3830986 L132.041449,57.9726358 C132.041449,75.6788732 117.554527,90.1657948 99.8482897,90.1657948 C82.1420523,90.1657948 67.6551308,75.6788732 67.6551308,57.9726358 Z M115.944869,93.0631791 L115.944869,114.632596 L113.691348,116.886117 C110.150101,120.427364 104.999195,122.680885 100.170221,122.680885 L99.5263581,122.680885 C94.3754527,122.680885 89.5464789,120.749296 86.0052314,116.886117 L83.7517103,114.632596 L83.7517103,93.0631791 C88.9026157,95.3167002 94.3754527,96.6044266 99.8482897,96.6044266 C105.321127,96.6044266 110.793964,95.3167002 115.944869,93.0631791 Z M70.8744467,117.52998 L76.3472837,116.242254 L81.1762575,121.393159 C86.0052314,126.222133 92.4438632,128.797586 99.5263581,128.797586 L100.170221,128.797586 C106.930785,128.797586 113.691348,126.222133 118.520322,121.393159 L123.671227,116.242254 L129.144064,117.52998 L129.144064,127.831791 L112.08169,150.367002 C106.286922,143.606439 96.3070423,142.962575 89.5464789,148.757344 C88.9026157,149.401207 88.5806841,149.723139 87.9368209,150.367002 L70.8744467,127.831791 L70.8744467,117.52998 Z M99.8482897,170.648692 C94.3754527,170.648692 90.1903421,166.463581 90.1903421,160.990744 C90.1903421,155.517907 94.3754527,151.332797 99.8482897,151.332797 C105.321127,151.332797 109.506237,155.517907 109.506237,160.990744 L109.506237,180.30664 L103.067606,180.30664 L103.067606,173.868008 C103.067606,171.936419 101.779879,170.648692 99.8482897,170.648692 Z M48.3392354,193.183903 L7.13199195,193.183903 L8.41971831,186.745272 L48.3392354,186.745272 L48.3392354,193.183903 Z M144.918712,193.505835 L54.7778672,193.505835 L54.7778672,151.332797 L48.3392354,151.332797 L48.3392354,180.30664 L9.38551308,180.30664 L14.5364185,151.654728 C17.1118712,137.489738 28.0575453,126.222133 42.2225352,123.324748 L64.4358149,118.495775 L64.4358149,128.797586 C64.4358149,129.441449 64.7577465,130.085312 65.0796781,130.729175 L84.3955734,156.483702 C84.0736419,157.771429 83.7517103,159.381087 83.7517103,160.990744 C83.7517103,168.717103 89.2245473,175.155734 96.6289738,176.765392 L96.6289738,183.525956 C96.6289738,185.457545 97.9167002,186.745272 99.8482897,186.745272 L112.725553,186.745272 C114.657143,186.745272 115.944869,185.457545 115.944869,183.525956 L115.944869,160.990744 C115.944869,159.381087 115.622938,157.771429 115.301006,156.483702 L134.616901,130.729175 C134.938833,130.085312 135.260765,129.441449 135.260765,128.797586 L135.260765,118.817706 L157.474044,123.64668 C171.639034,126.544064 182.584708,137.81167 185.160161,151.97666 L190.311066,180.628571 L151.357344,180.628571 L151.357344,151.654728 L144.918712,151.654728 L144.918712,193.505835 Z M151.357344,193.183903 L151.357344,186.745272 L191.276861,186.745272 L192.564588,193.183903 L151.357344,193.183903 Z" id="Shape"></path>
            <rect id="Rectangle" x="96.6289738" y="157.771429" width="6.43863179" height="6.43863179"></rect>
        </g>
    </g>
</svg>