<?xml version="1.0" encoding="UTF-8"?>
<svg width="192px" height="200px" viewBox="0 0 192 200" version="1.1" xmlns="http://www.w3.org/2000/svg" xmlns:xlink="http://www.w3.org/1999/xlink">
    <!-- Generator: Sketch 54.1 (76490) - https://sketchapp.com -->
    <title>009-rings</title>
    <desc>Created with Sketch.</desc>
    <g id="Page-1" stroke="none" stroke-width="1" fill="none" fill-rule="evenodd">
        <g id="009-rings" fill="#487BB4" fill-rule="nonzero">
            <path d="M31.5994262,107.781982 L31.5994262,109.106445 C13.3316039,115.470886 0.1953125,132.76825 0.1953125,153.259277 C0.1953125,179.032898 21.1624145,200 46.9345094,200 C72.7081297,200 93.6737062,179.032898 93.6737062,153.259277 C93.6737062,132.814026 80.5816648,115.486145 62.271118,109.106445 L62.271118,107.781982 C62.271118,105.384827 60.8078004,103.323364 58.7280273,102.442932 L58.7280273,99.5224 C61.0824586,98.728943 62.7838133,96.5057375 62.7838133,93.8888551 L62.7838133,88.8839723 C62.7838133,86.2655641 61.0824586,84.0423586 58.7280273,83.2504273 L58.7280273,80.0048828 C61.1175539,78.9093016 62.7838133,76.4999391 62.7838133,73.7045289 C62.7838133,70.9091188 61.1175539,68.4997559 58.7280273,67.404175 L58.7280273,5.33905039 C58.7295531,2.39562969 56.3339234,0 53.3905031,0 L40.4800414,0 C37.5350953,0 35.1409914,2.39562969 35.1409914,5.33905039 L35.1409914,67.404175 C32.7514648,68.4997559 31.0852051,70.9091188 31.0852051,73.7045289 C31.0852051,76.4999391 32.7514648,78.9093016 35.1409914,80.0048828 L35.1409914,83.2504273 C32.7865602,84.0423586 31.0852051,86.2655641 31.0852051,88.8839723 L31.0852051,93.8888551 C31.0852051,96.5057375 32.7865602,98.728943 35.1409914,99.5224 L35.1409914,102.442932 C33.0612184,103.323364 31.5994262,105.384827 31.5994262,107.781982 Z M37.0330813,93.9758301 C36.9903562,93.9758301 36.9445801,93.9300539 36.9445801,93.8888551 L36.9445801,88.8839723 C36.9445801,88.8412477 36.9903562,88.7954711 37.0330813,88.7954711 L56.8374633,88.7954711 C56.8786621,88.7954711 56.9244383,88.8412477 56.9244383,88.8839723 L56.9244383,93.8888551 C56.9244383,93.9300539 56.8801879,93.9758301 56.8374633,93.9758301 L37.0330813,93.9758301 Z M38.0203246,74.7802734 C37.4374391,74.7802734 36.9445801,74.2874145 36.9445801,73.7045289 C36.9445801,73.121643 37.4374391,72.6287844 38.0203246,72.6287844 L55.8502195,72.6287844 C56.4331055,72.6287844 56.9259645,73.121643 56.9259645,73.7045289 C56.9259645,74.2874145 56.4331055,74.7802734 55.8502195,74.7802734 L38.0203246,74.7802734 Z M41.0003664,80.6396484 L52.8701781,80.6396484 L52.8701781,82.9360961 L41.0003664,82.9360961 L41.0003664,80.6396484 Z M41.0003664,99.8352051 L52.8701781,99.8352051 L52.8701781,101.986695 L41.0003664,101.986695 L41.0003664,99.8352051 Z M55.7998656,107.84607 L56.411743,107.84607 L56.411743,120.93811 L37.4588012,120.93811 L37.4588012,107.84607 L55.7998656,107.84607 Z M77.560425,153.260803 C77.560425,170.146179 63.8214109,183.885193 46.9345094,183.885193 C30.0491332,183.885193 16.3101195,170.146179 16.3101195,153.260803 C16.3101195,141.270447 23.1292727,130.622864 33.8485719,125.575256 C34.8297117,126.338196 36.0580445,126.797485 37.3947145,126.797485 L56.4758301,126.797485 C57.8125,126.797485 59.0408324,126.338196 60.0219727,125.575256 C70.7412719,130.622864 77.560425,141.270447 77.560425,153.260803 Z M87.815857,153.260803 C87.815857,175.801086 69.4763184,194.140625 46.9345094,194.140625 C24.3927,194.140625 6.0546875,175.801086 6.0546875,153.260803 C6.0546875,136.595154 16.3803102,121.537781 31.5994262,115.357971 L31.5994262,120.15686 C19.0307617,125.975037 10.4507445,138.677979 10.4507445,153.260803 C10.4507445,173.377991 26.8173219,189.744568 46.9345094,189.744568 C67.0516969,189.744568 83.4198,173.377991 83.4198,153.260803 C83.4198,138.685608 74.8458863,125.978088 62.271118,120.15686 L62.271118,115.357971 C77.4902344,121.537781 87.815857,136.595154 87.815857,153.260803 Z M41.0003664,5.859375 L52.8701781,5.859375 L52.8701781,66.7694094 L41.0003664,66.7694094 L41.0003664,5.859375 Z" id="Shape"></path>
            <path d="M185.987854,153.260803 C185.987854,173.527527 171.478271,190.512085 151.489258,193.644714 C149.891663,193.894959 148.797607,195.394898 149.049377,196.992493 C149.275207,198.4375 150.521851,199.468994 151.939392,199.468994 C152.090454,199.468994 152.243042,199.456787 152.397156,199.432373 C174.824524,195.918274 191.847229,176.502991 191.847229,153.260803 C191.847229,132.806396 178.746033,115.483093 160.443115,109.106445 L160.443115,107.781982 C160.443115,105.384827 158.981323,103.323364 156.90155,102.442932 L156.90155,99.5224 C159.254455,98.728943 160.957336,96.5072633 160.957336,93.8888551 L160.957336,88.8839723 C160.957336,86.2670898 159.254455,84.0438844 156.90155,83.2504273 L156.90155,80.0064086 C159.291077,78.9093016 160.957336,76.5014648 160.957336,73.7045289 C160.957336,70.9091188 159.291077,68.5012816 156.90155,67.404175 L156.90155,40.4022219 C156.90155,38.7832641 155.589295,37.4725344 153.971863,37.4725344 C152.352905,37.4725344 151.042175,38.7832641 151.042175,40.4022219 L151.042175,66.7709352 L139.172363,66.7709352 L139.172363,5.859375 L151.042175,5.859375 L151.042175,26.7288207 C151.042175,28.3477781 152.354431,29.6585082 153.971863,29.6585082 C155.59082,29.6585082 156.90155,28.3477781 156.90155,26.7288207 L156.90155,5.33905039 C156.90155,2.39562969 154.50592,2.84217094e-14 151.5625,2.84217094e-14 L138.652039,2.84217094e-14 C135.708618,2.84217094e-14 133.312988,2.39562969 133.312988,5.33905039 L133.312988,67.404175 C130.924988,68.4997559 129.257202,70.9091188 129.257202,73.7045289 C129.257202,76.4999391 130.924988,78.9093016 133.312988,80.0048828 L133.312988,83.2504273 C130.960083,84.0423586 129.257202,86.2655641 129.257202,88.8839723 L129.257202,93.8888551 C129.257202,96.5057375 130.960083,98.728943 133.312988,99.5224 L133.312988,102.442932 C131.233215,103.323364 129.771423,105.384827 129.771423,107.781982 L129.771423,109.106445 C111.506653,115.46936 98.3673094,132.765198 98.3673094,153.260803 C98.3673094,176.541138 115.429688,195.924377 137.817383,199.432373 C139.419555,199.687195 140.914917,198.590088 141.165161,196.992493 C141.416931,195.393371 140.322876,193.893433 138.725281,193.644714 C118.734741,190.512085 104.226684,173.527527 104.226684,153.260803 C104.226684,136.595154 114.552307,121.537781 129.771423,115.357971 L129.771423,120.15686 C117.202759,125.976562 108.622742,138.677979 108.622742,153.260803 C108.622742,173.377991 124.989319,189.744568 145.106506,189.744568 C165.22522,189.744568 181.591797,173.377991 181.591797,153.260803 C181.591797,138.684082 173.019409,125.979614 160.443115,120.15686 L160.443115,115.357971 C175.662231,121.537781 185.987854,136.595154 185.987854,153.260803 L185.987854,153.260803 Z M135.630798,120.93811 L135.630798,107.84607 L154.58374,107.84607 L154.58374,120.93811 L135.630798,120.93811 Z M135.205078,93.9758301 C135.163879,93.9758301 135.116577,93.9300539 135.116577,93.8888551 L135.116577,88.8839723 C135.116577,88.8412477 135.162354,88.7954711 135.205078,88.7954711 L155.010986,88.7954711 C155.052185,88.7954711 155.097961,88.8412477 155.097961,88.8839723 L155.097961,93.8888551 C155.097961,93.9300539 155.052185,93.9758301 155.010986,93.9758301 L135.205078,93.9758301 Z M139.172363,80.6396484 L151.042175,80.6396484 L151.042175,82.9360961 L139.172363,82.9360961 L139.172363,80.6396484 Z M139.172363,99.8352051 L151.042175,99.8352051 L151.042175,101.986695 L139.172363,101.986695 L139.172363,99.8352051 Z M153.971863,72.6287844 L154.022217,72.6287844 C154.605102,72.6287844 155.097961,73.121643 155.097961,73.7045289 C155.097961,74.2874145 154.605102,74.7802734 154.022217,74.7802734 L136.192322,74.7802734 C135.609436,74.7802734 135.116577,74.2874145 135.116577,73.7045289 C135.116577,73.121643 135.609436,72.6287844 136.192322,72.6287844 L153.971863,72.6287844 Z M175.732422,153.260803 C175.732422,170.146179 161.993408,183.885193 145.106506,183.885193 C128.22113,183.885193 114.482117,170.146179 114.482117,153.260803 C114.482117,141.270447 121.30127,130.622864 132.020569,125.575256 C133.001709,126.338196 134.230041,126.797485 135.566711,126.797485 L154.647827,126.797485 C155.984497,126.797485 157.21283,126.338196 158.19397,125.575256 C168.914795,130.622864 175.732422,141.270447 175.732422,153.260803 L175.732422,153.260803 Z" id="Shape"></path>
        </g>
    </g>
</svg>