<?xml version="1.0" encoding="UTF-8"?>
<svg width="200px" height="200px" viewBox="0 0 200 200" version="1.1" xmlns="http://www.w3.org/2000/svg" xmlns:xlink="http://www.w3.org/1999/xlink">
    <!-- Generator: Sketch 53.2 (72643) - https://sketchapp.com -->
    <title>012-insurance</title>
    <desc>Created with Sketch.</desc>
    <g id="Page-1" stroke="none" stroke-width="1" fill="none" fill-rule="evenodd">
        <g id="012-insurance" fill="#4A7CB2" fill-rule="nonzero">
            <path d="M100,46.875 C97.8439332,46.875 96.09375,48.6251832 96.09375,50.78125 C96.09375,52.9373168 97.8439332,54.6875 100,54.6875 C102.156067,54.6875 103.90625,52.9373168 103.90625,50.78125 C103.90625,48.6251832 102.156067,46.875 100,46.875 Z" id="Path"></path>
            <path d="M103.90625,15.6951906 L103.90625,3.90625 C103.90625,1.74865703 102.157593,0 100,0 C97.842407,0 96.09375,1.74865703 96.09375,3.90625 L96.09375,15.6951906 C48.3612063,17.2119141 6.9519043,46.2966918 0.804138281,92.9794313 C0.27160625,94.4992066 0,96.0708617 0,97.65625 C0,99.813843 1.74865703,101.5625 3.90625,101.5625 C3.95507812,101.5625 4.00238047,101.556396 4.05120859,101.554871 C4.11224375,101.557922 4.17175312,101.5625 4.23126211,101.5625 C6.24084453,101.5625 7.94830313,100.021362 8.11920156,97.9827883 C8.20617656,96.9375609 8.3114625,95.9182738 8.42895508,94.9356078 C10.7498168,89.7781371 19.0109254,85.9375 27.9296875,85.9375 C38.6459352,85.9375 48.046875,91.4138793 48.046875,97.65625 C48.046875,99.813843 49.795532,101.5625 51.953125,101.5625 C52.0416258,101.5625 52.130127,101.554871 52.217102,101.548767 C52.2598266,101.547241 52.3025512,101.547241 52.3452758,101.542664 C52.3574828,101.541138 52.3712156,101.539612 52.3849488,101.538086 C54.3167113,101.347351 55.8639527,99.7268676 55.9020996,97.7279664 C55.9066773,97.4151609 55.9158324,97.0993043 55.9249879,96.7788695 C56.7703246,90.888977 65.8996582,85.9375 75.9765625,85.9375 C86.6928102,85.9375 96.09375,91.4138793 96.09375,97.65625 L96.09375,137.5 L92.1875,137.5 C90.029907,137.5 88.28125,139.248657 88.28125,141.40625 L88.28125,172.65625 C88.28125,174.810791 86.529541,176.5625 84.375,176.5625 C82.220459,176.5625 80.46875,174.810791 80.46875,172.65625 C80.46875,166.194153 75.2120973,160.9375 68.75,160.9375 C62.2879027,160.9375 57.03125,166.194153 57.03125,172.65625 C57.03125,187.733459 69.2977906,200 84.375,200 C99.4522094,200 111.71875,187.733459 111.71875,172.65625 L111.71875,141.40625 C111.71875,139.248657 109.970093,137.5 107.8125,137.5 L103.90625,137.5 L103.90625,97.65625 C103.90625,91.4138793 113.30719,85.9375 124.023438,85.9375 C134.107971,85.9375 143.243408,90.8966063 144.073486,96.7636109 C144.082641,97.0825195 144.091797,97.4029539 144.0979,97.7249145 C144.136047,99.7329711 145.680237,101.356506 147.634887,101.539612 C147.769165,101.554871 147.90802,101.5625 148.046875,101.5625 C150.204468,101.5625 151.953125,99.813843 151.953125,97.65625 C151.953125,91.4138793 161.354065,85.9375 172.070312,85.9375 C180.986023,85.9375 189.242554,89.7750855 191.571045,94.9356078 C191.688537,95.9182738 191.793823,96.9375609 191.880798,97.9827883 C192.051697,100.021363 193.759155,101.5625 195.768738,101.5625 C195.828247,101.5625 195.889282,101.557922 195.948791,101.554871 C195.99762,101.557922 196.044922,101.5625 196.09375,101.5625 C198.251343,101.5625 200,99.813843 200,97.65625 C200,96.0678102 199.726868,94.4946289 199.194336,92.9779055 C193.054199,46.3516234 151.702881,17.2134398 103.90625,15.6951906 Z M48.8891602,84.7686766 C43.7667848,80.6991578 36.2716676,78.125 27.9296875,78.125 C21.6918945,78.125 15.8279418,79.5761109 11.0977172,82.0678711 C19.3603516,54.423523 42.7886961,33.9004516 73.7396242,26.475525 C58.2092285,40.5731203 51.0528562,63.9068602 48.8891602,84.7686766 Z M103.90625,172.65625 C103.90625,183.425903 95.1446531,192.1875 84.375,192.1875 C73.6053469,192.1875 64.84375,183.425903 64.84375,172.65625 C64.84375,170.501709 66.595459,168.75 68.75,168.75 C70.904541,168.75 72.65625,170.501709 72.65625,172.65625 C72.65625,179.118347 77.9129027,184.375 84.375,184.375 C90.8370973,184.375 96.09375,179.118347 96.09375,172.65625 L96.09375,145.3125 L103.90625,145.3125 L103.90625,172.65625 Z M142.256164,82.8582766 C137.165832,79.8065187 130.690002,78.125 124.023438,78.125 C116.127014,78.125 108.990479,80.4321289 103.90625,84.1278078 L103.90625,66.40625 C103.90625,64.248657 102.157593,62.5 100,62.5 C97.842407,62.5 96.09375,64.248657 96.09375,66.40625 L96.09375,84.1278078 C91.0095215,80.4321289 83.8729859,78.125 75.9765625,78.125 C69.3099977,78.125 62.8341676,79.8065187 57.7438355,82.8582766 C57.4630738,83.026123 57.1914672,83.2000734 56.9229125,83.3755492 C60.9817504,50.2197266 76.3244629,26.4953613 96.09375,23.7106324 L96.09375,35.15625 C96.09375,37.313843 97.842407,39.0625 100,39.0625 C102.157593,39.0625 103.90625,37.313843 103.90625,35.15625 L103.90625,23.7106324 C123.675537,26.4923094 139.019775,50.2197266 143.077088,83.3755492 C142.808533,83.2000734 142.536926,83.026123 142.256164,82.8582766 L142.256164,82.8582766 Z M172.070312,78.125 C163.728332,78.125 156.234741,80.6991578 151.112366,84.7671508 C148.954773,63.9572145 141.812134,40.5914305 126.260376,26.475525 C157.209778,33.9004516 180.639648,54.423523 188.902283,82.0678711 C184.170532,79.5761109 178.308105,78.125 172.070313,78.125 L172.070312,78.125 Z" id="Shape"></path>
        </g>
    </g>
</svg>