<?xml version="1.0" encoding="UTF-8"?>
<svg width="200px" height="184px" viewBox="0 0 200 184" version="1.1" xmlns="http://www.w3.org/2000/svg" xmlns:xlink="http://www.w3.org/1999/xlink">
    <!-- Generator: Sketch 53.2 (72643) - https://sketchapp.com -->
    <title>004-track</title>
    <desc>Created with Sketch.</desc>
    <g id="Page-1" stroke="none" stroke-width="1" fill="none" fill-rule="evenodd">
        <g id="004-track" fill="#4A7CB2" fill-rule="nonzero">
            <path d="M115.789084,101.511111 C113.637037,101.511111 111.890448,103.2577 111.890448,105.409747 C111.890448,107.561793 113.637037,109.308382 115.789084,109.308382 C117.941131,109.308382 119.687719,107.561793 119.687719,105.409747 C119.687719,103.2577 117.941131,101.511111 115.789084,101.511111 Z" id="Path"></path>
            <path d="M150.573099,122.502144 C146.918519,118.849513 138.05575,108.963353 131.063938,92.9306043 C125.864717,80.4557505 113.774659,72.3968811 100.253801,72.3968811 C86.7356725,72.3968811 74.6475634,80.4569201 69.4471735,92.9345029 C60.6752437,113.053801 48.6916179,123.700975 48.5766082,123.801559 C48.5625731,123.813645 48.5489279,123.826121 48.5352827,123.838207 C41.4670565,130.166862 37.4132554,139.232749 37.4132554,148.711111 C37.4132554,160.298246 42.9309942,170.375049 52.502924,176.759844 C61.4214425,182.709942 72.4752437,184.493957 82.8280702,181.655361 C88.0163743,180.233918 94.0214425,179.482261 100.195322,179.482261 C106.473294,179.482261 112.567251,180.258869 117.818324,181.727875 C127.867057,184.540741 138.896686,182.998441 148.001949,176.982456 C157.683821,170.585185 163.297076,160.413255 163.297076,148.711111 C163.297076,138.419103 158.663158,128.881092 150.573099,122.502144 Z M143.702534,170.476803 C136.676023,175.119298 128.007407,176.483041 119.918908,174.219103 C113.992593,172.561014 107.17232,171.68499 100.194152,171.68499 C93.3341131,171.68499 86.6163743,172.532554 80.765692,174.135673 C72.5918129,176.376998 63.8674464,174.969201 56.8288499,170.273684 C49.479922,165.37115 45.2093567,157.706823 45.2093567,148.710721 C45.2093567,141.453801 48.3111111,134.511501 53.7196881,129.660819 C54.5516569,128.931384 67.2035088,117.604288 76.6070175,96.0194932 C76.6155945,95.9992203 76.6245614,95.9789474 76.6327485,95.9586745 C80.6124756,86.3820663 89.8834308,80.194152 100.252242,80.194152 C110.624951,80.1937622 119.897856,86.3805068 123.876413,95.9547758 C123.8846,95.9750487 123.893567,95.9953216 123.902144,96.0155945 C131.538012,113.539961 141.369591,124.358674 145.241715,128.197271 C145.353216,128.307212 145.470955,128.410916 145.594152,128.506823 C151.888889,133.397661 155.498635,140.761793 155.498635,148.710721 C155.499415,157.781676 151.159454,165.550097 143.702534,170.476803 Z" id="Shape"></path>
            <path d="M126.409357,117.031579 C125.234308,115.22768 122.819493,114.716569 121.014815,115.892008 C119.210136,117.067836 118.700195,119.483041 119.875244,121.28694 C125.807797,130.395322 131.432749,136.461598 134.25848,139.267057 C135.785965,140.783626 138.254581,140.775439 139.77232,139.247173 C141.289279,137.719298 141.280312,135.250682 139.752437,133.733333 C137.146589,131.146199 131.948148,125.536452 126.409357,117.031579 Z" id="Path"></path>
            <path d="M87.5594542,53.3898635 C91.305653,46.8421053 92.8674464,38.1454191 91.8444444,29.5321637 C89.8654971,12.762963 78.3001949,-1.28499025 65.3789474,0.266666667 C59.5442495,0.95711501 54.3567251,4.7871345 50.7695906,11.0510721 C47.025731,17.5937622 45.4639376,26.2904483 46.4846004,34.9099415 C49.7169591,62.2959064 75.211306,74.9598441 87.5594542,53.3898635 Z M57.5368421,14.9243665 C59.6709552,11.1961014 63,7.9539961 67.2912281,7.9539961 C74.9641326,7.9539961 82.6623782,18.2538012 84.1017544,30.4487329 C84.9321637,37.4401559 83.7259259,44.3902534 80.7925926,49.5169591 C71.8074074,65.214425 56.3508772,51.980117 54.2276803,33.9945419 C53.3992203,26.9976608 54.605848,20.0467836 57.5368421,14.9243665 Z" id="Shape"></path>
            <path d="M50.2152047,95.3216374 C51.3438596,88.3730994 49.9723197,80.688499 46.3536062,73.6830409 C42.7333333,66.6760234 37.2588694,61.1099415 30.9380117,58.0097466 C24.2249513,54.7169591 17.3500975,54.5469786 11.580117,57.5306043 C5.81013645,60.5118908 1.97309942,66.2167641 0.774658869,73.5957115 C-0.353996101,80.5446394 1.01754386,88.2288499 4.63625731,95.2350877 C8.25692008,102.240156 13.731384,107.805068 20.0522417,110.905263 C26.3251462,113.982066 33.2748538,114.557115 39.4089669,111.387914 C45.1797271,108.406628 49.0175439,102.700585 50.2152047,95.3216374 Z M35.8304094,104.460429 C32.3099415,106.280312 27.9263158,106.082651 23.4861598,103.904873 C18.6557505,101.535673 14.4218324,97.1847953 11.5637427,91.6553606 C8.70721248,86.1251462 7.608577,80.1559454 8.47095517,74.845614 C9.26354776,69.9653021 11.6393762,66.2768031 15.1602339,64.4576998 C15.1606238,64.4573099 15.1610136,64.4573099 15.1614035,64.4569201 C19.0545809,62.4440546 23.5637427,63.077193 27.5044834,65.0101365 C32.3345029,67.3793372 36.5684211,71.7306043 39.4265107,77.2619883 C42.2830409,82.7922027 43.3816764,88.7621832 42.5192982,94.0721248 C41.7270955,98.9524366 39.3512671,102.641326 35.8304094,104.460429 Z" id="Shape"></path>
            <path d="M129.433918,64.3621832 C141.252632,64.3621832 152.041326,51.4584795 153.994932,34.9847953 C156.070955,17.4354776 147.22885,0.231189084 133.184016,0.231189084 C121.363353,0.231189084 110.575828,13.1352827 108.626901,29.608577 C106.548538,47.1898635 115.416764,64.3621832 129.433918,64.3621832 Z M116.37037,30.5243665 C117.813645,18.3302144 125.51345,8.02807018 133.184795,8.02807018 C133.545809,8.02807018 133.85692,8.04561404 134.135673,8.08187135 C138.292788,8.54385965 141.510721,12.1769981 143.406238,15.8865497 C145.984795,20.9317739 147.021832,27.5586745 146.252242,34.0674464 C144.753996,46.7005848 136.380507,57.5360624 128.483431,56.5111111 C128.469006,56.5095517 128.454581,56.5076023 128.440156,56.505653 C124.895127,56.088499 121.532554,53.2463938 119.215205,48.7083821 C116.637427,43.662768 115.60078,37.0350877 116.37037,30.5243665 Z" id="Shape"></path>
            <path d="M199.615205,73.611306 C197.149708,58.4276803 183.424172,51.1692008 169.451852,58.0253411 C156.380117,64.4378168 147.838986,80.9563353 150.174659,95.3376218 C152.669396,110.700975 166.531774,117.693957 180.337622,110.921248 C193.413255,104.507602 201.950487,87.9910331 199.615205,73.611306 Z M176.903704,103.920468 C172.463938,106.097856 168.080312,106.294737 164.559454,104.476023 L164.559454,104.476413 C161.038596,102.65692 158.662768,98.9672515 157.870565,94.0877193 C156.088109,83.1107212 162.875634,69.9368421 172.88577,65.0249513 C182.059259,60.5247563 190.278752,64.7617934 191.918908,74.8608187 C193.698246,85.8175439 186.932164,99.0019493 176.903704,103.920468 Z" id="Shape"></path>
        </g>
    </g>
</svg>