<?xml version="1.0" encoding="UTF-8"?>
<svg width="200px" height="200px" viewBox="0 0 200 200" version="1.1" xmlns="http://www.w3.org/2000/svg" xmlns:xlink="http://www.w3.org/1999/xlink">
    <!-- Generator: Sketch 53.2 (72643) - https://sketchapp.com -->
    <title>009-tissues</title>
    <desc>Created with Sketch.</desc>
    <g id="Page-1" stroke="none" stroke-width="1" fill="none" fill-rule="evenodd">
        <g id="009-tissues" fill="#4A7CB2" fill-rule="nonzero">
            <path d="M199.884033,99.1241453 L191.217041,67.3675539 C190.022278,63.0249023 186.077881,60.0112914 181.573486,60.0006102 L146.864319,60.0006102 L156.617737,3.90472422 C156.800842,2.84423828 156.462097,1.76086406 155.708313,0.994873047 C154.954529,0.228882031 153.875732,-0.126648047 152.813721,0.0411988281 L93.3334352,9.43450937 L93.3334352,3.33404531 C93.3334352,1.49383555 91.8411254,0 90.0009156,0 L46.6674805,0 C45.6832887,0.00152587891 44.7494508,0.436401563 44.1177367,1.18865977 C43.4844969,1.94091797 43.2159422,2.93426523 43.3837891,3.90472422 L53.137207,60.0006102 L18.4265137,60.0006102 C13.9205934,60.0082398 9.97314453,63.0218508 8.77685547,67.3675539 L0.109863281,99.1241453 C0.103759766,99.2446898 0.103759766,99.3667602 0.109863281,99.4873047 C0.059509375,99.6551516 0.0228882031,99.8275758 5.68434189e-14,100 L5.68434189e-14,190.000916 C5.68434189e-14,195.523071 4.47692891,200 10.0006102,200 L190.000916,200 C195.523071,200 200,195.523071 200,190.000916 L200,100 C199.914551,99.7161867 199.874878,99.420166 199.884033,99.1241453 L199.884033,99.1241453 Z M100,153.334045 C22.4533082,153.334045 8.17108164,126.184082 6.66656484,122.714234 L6.66656484,117.544555 C16.6671754,128.123474 41.2567141,143.333435 100,143.333435 C178.666687,143.333435 192.163086,177.04773 193.333435,180.503845 L193.333435,185.087586 C186.334229,173.603821 164.784241,153.334045 100,153.334045 L100,153.334045 Z M100,136.66687 C22.4533082,136.66687 8.17108164,109.516907 6.66656484,106.047058 L6.66656484,103.334045 L193.333435,103.334045 L193.333435,167.303467 C183.303833,154.707336 158.706665,136.66687 100,136.66687 L100,136.66687 Z M86.6668703,6.66809063 L86.6668703,50 C86.6668703,51.8417359 88.1591797,53.3340453 90.0009156,53.3340453 C91.8411254,53.3340453 93.3334352,51.8417359 93.3334352,50 L93.3334352,16.1804199 L149.250793,7.35473633 L137.19635,76.6677855 L62.80365,76.6677855 L50.6301879,6.66809063 L86.6668703,6.66809063 Z M15.2099609,69.1238402 C15.6051637,67.6727297 16.923523,66.6671754 18.4265137,66.6671754 L54.296875,66.6671754 L56.036377,76.6677855 L53.3340453,76.6677855 C51.4923094,76.6677855 50,78.1600953 50,80.0003051 C50,81.842041 51.4923094,83.3343508 53.3340453,83.3343508 L146.66748,83.3343508 C148.507691,83.3343508 150,81.842041 150,80.0003051 C150,78.1600953 148.507691,76.6677855 146.66748,76.6677855 L143.963623,76.6677855 L145.703125,66.6671754 L181.573486,66.6671754 C183.078003,66.6671754 184.394836,67.6727297 184.790039,69.1238402 L192.303467,96.6674805 L7.6965332,96.6674805 L15.2099609,69.1238402 Z M6.66656484,190.000916 L6.66656484,134.210205 C16.6671754,144.790649 41.2567141,160.00061 100,160.00061 C176.187134,160.00061 188.442993,188.861084 189.880371,193.333435 L10.0006102,193.333435 C8.15887461,193.333435 6.66656484,191.841125 6.66656484,190.000916 Z" id="Shape"></path>
            <path d="M16.6671754,153.334045 C14.8254395,153.334045 13.3331297,154.826355 13.3331297,156.668091 L13.3331297,170.001221 C13.3331297,171.84143 14.8254395,173.33374 16.6671754,173.33374 C18.5073852,173.33374 19.9996949,171.84143 19.9996949,170.001221 L19.9996949,156.668091 C19.9996949,154.826355 18.5073852,153.334045 16.6671754,153.334045 L16.6671754,153.334045 Z" id="Path"></path>
            <path d="M19.9996949,183.334351 C19.9996949,185.174561 18.5073852,186.66687 16.6671754,186.66687 C14.8254395,186.66687 13.3331297,185.174561 13.3331297,183.334351 C13.3331297,181.492615 14.8254395,180.000305 16.6671754,180.000305 C18.5073852,180.000305 19.9996949,181.492615 19.9996949,183.334351 Z" id="Path"></path>
            <path d="M33.3343508,73.3337402 L23.3337402,73.3337402 C21.4920043,73.3337402 19.9996949,74.82605 19.9996949,76.6677855 C19.9996949,78.5079957 21.4920043,80.0003051 23.3337402,80.0003051 L33.3343508,80.0003051 C35.1745605,80.0003051 36.6668703,78.5079957 36.6668703,76.6677855 C36.6668703,74.82605 35.1745605,73.3337402 33.3343508,73.3337402 Z" id="Path"></path>
            <path d="M163.33313,110.00061 L143.333435,110.00061 C141.493225,110.00061 140.000916,111.49292 140.000916,113.334656 C140.000916,115.174866 141.493225,116.667175 143.333435,116.667175 L163.33313,116.667175 C165.174866,116.667175 166.667175,115.174866 166.667175,113.334656 C166.667175,111.49292 165.174866,110.00061 163.33313,110.00061 L163.33313,110.00061 Z" id="Path"></path>
            <path d="M183.334351,110.00061 L176.667786,110.00061 C174.82605,110.00061 173.33374,111.49292 173.33374,113.334656 C173.33374,115.174866 174.82605,116.667175 176.667786,116.667175 L183.334351,116.667175 C185.174561,116.667175 186.66687,115.174866 186.66687,113.334656 C186.66687,111.49292 185.174561,110.00061 183.334351,110.00061 L183.334351,110.00061 Z" id="Path"></path>
        </g>
    </g>
</svg>