<?xml version="1.0" encoding="UTF-8"?>
<svg width="200px" height="167px" viewBox="0 0 200 167" version="1.1" xmlns="http://www.w3.org/2000/svg" xmlns:xlink="http://www.w3.org/1999/xlink">
    <!-- Generator: Sketch 53.2 (72643) - https://sketchapp.com -->
    <title>029-volley-net</title>
    <desc>Created with Sketch.</desc>
    <g id="Page-1" stroke="none" stroke-width="1" fill="none" fill-rule="evenodd">
        <g id="029-volley-net" fill="#4A7CB2" fill-rule="nonzero">
            <path d="M190,2.96059473e-15 C184.477153,0 180,4.4771525 180,10 L180,11.2733333 L169.213333,16.6666667 L30.7866667,16.6666667 L20,11.2733333 L20,10 C20,4.4771525 15.5228475,0 10,0 C4.4771525,0 1.48029737e-15,4.4771525 0,10 L0,166.666667 L20,166.666667 L20,121.38 L31.38,110 L168.62,110 L180,121.38 L180,166.666667 L200,166.666667 L200,10 C200,4.4771525 195.522847,0 190,2.96059473e-15 Z M13.3333333,160 L6.66666667,160 L6.66666667,130 L13.3333333,130 L13.3333333,160 Z M13.3333333,123.333333 L6.66666667,123.333333 L6.66666667,116.666667 L13.3333333,116.666667 L13.3333333,123.333333 Z M13.3333333,110 L6.66666667,110 L6.66666667,20 L13.3333333,20 L13.3333333,110 Z M13.3333333,13.3333333 L6.66666667,13.3333333 L6.66666667,10 C6.66666667,8.15905083 8.15905083,6.66666667 10,6.66666667 C11.8409492,6.66666667 13.3333333,8.15905083 13.3333333,10 L13.3333333,13.3333333 Z M26.6666667,105.286667 L20,111.953333 L20,18.7266667 L26.6666667,22.06 L26.6666667,105.286667 Z M46.6666667,103.333333 L33.3333333,103.333333 L33.3333333,96.6666667 L46.6666667,96.6666667 L46.6666667,103.333333 Z M46.6666667,90 L33.3333333,90 L33.3333333,83.3333333 L46.6666667,83.3333333 L46.6666667,90 Z M46.6666667,76.6666667 L33.3333333,76.6666667 L33.3333333,70 L46.6666667,70 L46.6666667,76.6666667 Z M46.6666667,63.3333333 L33.3333333,63.3333333 L33.3333333,56.6666667 L46.6666667,56.6666667 L46.6666667,63.3333333 Z M46.6666667,50 L33.3333333,50 L33.3333333,43.3333333 L46.6666667,43.3333333 L46.6666667,50 Z M66.6666667,103.333333 L53.3333333,103.333333 L53.3333333,96.6666667 L66.6666667,96.6666667 L66.6666667,103.333333 Z M66.6666667,90 L53.3333333,90 L53.3333333,83.3333333 L66.6666667,83.3333333 L66.6666667,90 Z M66.6666667,76.6666667 L53.3333333,76.6666667 L53.3333333,70 L66.6666667,70 L66.6666667,76.6666667 Z M66.6666667,63.3333333 L53.3333333,63.3333333 L53.3333333,56.6666667 L66.6666667,56.6666667 L66.6666667,63.3333333 Z M66.6666667,50 L53.3333333,50 L53.3333333,43.3333333 L66.6666667,43.3333333 L66.6666667,50 Z M86.6666667,103.333333 L73.3333333,103.333333 L73.3333333,96.6666667 L86.6666667,96.6666667 L86.6666667,103.333333 Z M86.6666667,90 L73.3333333,90 L73.3333333,83.3333333 L86.6666667,83.3333333 L86.6666667,90 Z M86.6666667,76.6666667 L73.3333333,76.6666667 L73.3333333,70 L86.6666667,70 L86.6666667,76.6666667 Z M86.6666667,63.3333333 L73.3333333,63.3333333 L73.3333333,56.6666667 L86.6666667,56.6666667 L86.6666667,63.3333333 Z M86.6666667,50 L73.3333333,50 L73.3333333,43.3333333 L86.6666667,43.3333333 L86.6666667,50 Z M106.666667,103.333333 L93.3333333,103.333333 L93.3333333,96.6666667 L106.666667,96.6666667 L106.666667,103.333333 Z M106.666667,90 L93.3333333,90 L93.3333333,83.3333333 L106.666667,83.3333333 L106.666667,90 Z M106.666667,76.6666667 L93.3333333,76.6666667 L93.3333333,70 L106.666667,70 L106.666667,76.6666667 Z M106.666667,63.3333333 L93.3333333,63.3333333 L93.3333333,56.6666667 L106.666667,56.6666667 L106.666667,63.3333333 Z M106.666667,50 L93.3333333,50 L93.3333333,43.3333333 L106.666667,43.3333333 L106.666667,50 Z M126.666667,103.333333 L113.333333,103.333333 L113.333333,96.6666667 L126.666667,96.6666667 L126.666667,103.333333 Z M126.666667,90 L113.333333,90 L113.333333,83.3333333 L126.666667,83.3333333 L126.666667,90 Z M126.666667,76.6666667 L113.333333,76.6666667 L113.333333,70 L126.666667,70 L126.666667,76.6666667 Z M126.666667,63.3333333 L113.333333,63.3333333 L113.333333,56.6666667 L126.666667,56.6666667 L126.666667,63.3333333 Z M126.666667,50 L113.333333,50 L113.333333,43.3333333 L126.666667,43.3333333 L126.666667,50 Z M146.666667,103.333333 L133.333333,103.333333 L133.333333,96.6666667 L146.666667,96.6666667 L146.666667,103.333333 Z M146.666667,90 L133.333333,90 L133.333333,83.3333333 L146.666667,83.3333333 L146.666667,90 Z M146.666667,76.6666667 L133.333333,76.6666667 L133.333333,70 L146.666667,70 L146.666667,76.6666667 Z M146.666667,63.3333333 L133.333333,63.3333333 L133.333333,56.6666667 L146.666667,56.6666667 L146.666667,63.3333333 Z M146.666667,50 L133.333333,50 L133.333333,43.3333333 L146.666667,43.3333333 L146.666667,50 Z M166.666667,103.333333 L153.333333,103.333333 L153.333333,96.6666667 L166.666667,96.6666667 L166.666667,103.333333 Z M166.666667,90 L153.333333,90 L153.333333,83.3333333 L166.666667,83.3333333 L166.666667,90 Z M166.666667,76.6666667 L153.333333,76.6666667 L153.333333,70 L166.666667,70 L166.666667,76.6666667 Z M166.666667,63.3333333 L153.333333,63.3333333 L153.333333,56.6666667 L166.666667,56.6666667 L166.666667,63.3333333 Z M166.666667,50 L153.333333,50 L153.333333,43.3333333 L166.666667,43.3333333 L166.666667,50 Z M166.666667,36.6666667 L33.3333333,36.6666667 L33.3333333,23.3333333 L56.6666667,23.3333333 L56.6666667,30 L63.3333333,30 L63.3333333,23.3333333 L70,23.3333333 L70,30 L76.6666667,30 L76.6666667,23.3333333 L96.6666667,23.3333333 L96.6666667,30 L103.333333,30 L103.333333,23.3333333 L143.333333,23.3333333 L143.333333,30 L150,30 L150,23.3333333 L166.666667,23.3333333 L166.666667,36.6666667 Z M180,111.953333 L173.333333,105.286667 L173.333333,22.06 L180,18.7266667 L180,111.953333 Z M193.333333,160 L186.666667,160 L186.666667,130 L193.333333,130 L193.333333,160 Z M193.333333,123.333333 L186.666667,123.333333 L186.666667,116.666667 L193.333333,116.666667 L193.333333,123.333333 Z M193.333333,110 L186.666667,110 L186.666667,20 L193.333333,20 L193.333333,110 Z M193.333333,13.3333333 L186.666667,13.3333333 L186.666667,10 C186.666667,8.15905083 188.159051,6.66666667 190,6.66666667 C191.840949,6.66666667 193.333333,8.15905083 193.333333,10 L193.333333,13.3333333 Z" id="Shape"></path>
        </g>
    </g>
</svg>