<?xml version="1.0" encoding="UTF-8"?>
<svg width="200px" height="200px" viewBox="0 0 200 200" version="1.1" xmlns="http://www.w3.org/2000/svg" xmlns:xlink="http://www.w3.org/1999/xlink">
    <!-- Generator: Sketch 53.2 (72643) - https://sketchapp.com -->
    <title>014-pen</title>
    <desc>Created with Sketch.</desc>
    <g id="Page-1" stroke="none" stroke-width="1" fill="none" fill-rule="evenodd">
        <g id="014-pen" fill="#4A7CB2" fill-rule="nonzero">
            <path d="M11.4837648,30.4443359 L11.4501953,30.480957 C8.84704609,33.0841063 8.84704609,37.3031617 11.4501953,39.9063109 L30.4763793,58.9340211 C31.7276,60.1852418 33.4243773,60.8871461 35.1928711,60.8840941 C35.7772828,60.8734133 36.3586426,60.7864379 36.920166,60.6262207 L109.463501,133.169555 C109.303284,133.734131 109.217834,134.317016 109.210205,134.902954 C109.205627,136.672973 109.909058,138.369751 111.16333,139.616394 L153.910828,182.363891 C155.157471,183.618164 156.854248,184.321594 158.624268,184.317016 C159.481812,184.317016 160.331726,184.152222 161.126709,183.830261 L190.153504,199.197388 C192.749023,200.572205 195.93811,200.093079 198.016357,198.016357 C200.093079,195.93811 200.572205,192.749023 199.197388,190.153504 L183.830261,161.126709 C184.152222,160.331726 184.317016,159.481812 184.317016,158.624268 C184.321594,156.854248 183.618164,155.157471 182.363891,153.910828 L139.627075,111.174011 C137.927246,109.541321 135.499573,108.909607 133.21991,109.506226 L60.6262207,36.920166 C61.2579344,34.6237184 60.6109617,32.1670531 58.9340211,30.4763793 L47.0336914,18.5775758 L51.826477,13.8061523 L108.807373,70.8068848 L106.430054,73.1796266 C105.128479,74.4812012 105.126953,76.5930176 106.428528,77.8945922 C107.730102,79.197693 109.840393,79.1992188 111.143494,77.8976441 L113.520813,75.5203246 C116.127014,72.9049684 116.127014,68.6721801 113.520813,66.0568238 L56.5399172,9.09423828 C53.9260863,6.48651133 49.6948242,6.48651133 47.0809937,9.09423828 L42.314148,13.8595582 L39.9032594,11.4501953 C37.3001098,8.84704609 33.0795289,8.84704609 30.4763793,11.4501953 L30.4443359,11.4837648 L20.9136961,1.953125 C19.6640016,0.703430078 17.9672242,1.13686838e-13 16.1987305,1.13686838e-13 C14.4302367,1.13686838e-13 12.7334594,0.703430078 11.4837648,1.953125 L1.953125,11.4837648 C0.703430078,12.7334594 -2.84217094e-14,14.4302367 -2.84217094e-14,16.1987305 C-2.84217094e-14,17.9672242 0.703430078,19.6640016 1.953125,20.9136961 L11.4837648,30.4443359 Z M113.537598,127.816773 L42.2805785,56.5597535 L56.5597535,42.2805785 L127.816773,113.537598 L113.537598,127.816773 Z M166.566467,179.17633 L179.173279,166.569519 L193.293762,193.339539 L166.566467,179.17633 Z M139.672852,120.674133 L137.283325,123.06366 C136.398316,123.898316 136.038208,125.14801 136.34491,126.324463 C136.650086,127.502441 137.571716,128.419495 138.749695,128.718567 C139.929199,129.019165 141.177368,128.652954 142.007446,127.763367 L144.396973,125.370789 L149.180603,130.152893 L146.786499,132.546997 C145.9198,133.383179 145.573425,134.623718 145.878601,135.787964 C146.182251,136.953735 147.093201,137.864685 148.258972,138.169861 C149.424744,138.475037 150.663757,138.127136 151.499939,137.260437 L153.894043,134.866333 L158.673096,139.649963 L156.280518,142.044067 C154.978943,143.348694 154.981995,145.462036 156.286621,146.763611 C157.592773,148.065186 159.706116,148.062134 161.006164,146.757507 L163.400269,144.363403 L168.183899,149.147034 L165.789795,151.53656 C164.94751,152.378845 164.61792,153.605652 164.926148,154.757691 C165.234375,155.908203 166.133118,156.806946 167.282105,157.115173 C168.432617,157.423401 169.66095,157.095337 170.503235,156.253052 L172.897339,153.860473 L177.67334,158.639527 L158.644104,177.67334 L153.860473,172.889709 L156.253052,170.500183 C157.554627,169.197082 157.554627,167.086792 156.251526,165.785217 C154.949951,164.483643 152.838135,164.485168 151.53656,165.786743 L149.147034,168.17627 L144.366455,163.397217 L146.757507,161.003113 C148.019409,159.695434 148.002625,157.617188 146.716309,156.330871 C145.429993,155.044555 143.351746,155.026245 142.044067,156.289673 L139.653015,158.683777 L134.866333,153.900146 L137.260437,151.507568 C138.523865,150.198364 138.505554,148.120117 137.219238,146.833801 C135.934448,145.549011 133.854675,145.530701 132.546997,146.794129 L130.152893,149.183655 L125.37384,144.400024 L127.763367,142.010498 C129.026795,140.70282 129.008484,138.623047 127.723694,137.338257 C126.437378,136.051941 124.357605,136.03363 123.049927,137.297058 L120.674133,139.672852 L115.890503,134.890747 L134.890747,115.890503 L139.672852,120.674133 Z M35.1928711,16.1636352 L39.9505617,20.9198 L54.2099,35.1730348 L54.2099,35.1898195 L35.1898195,54.2099 L16.1636352,35.1898195 L35.1928711,16.1636352 Z M16.1972047,6.67419453 L25.7308961,16.2002563 L16.1972047,25.7339477 L6.67419453,16.1972047 L16.1972047,6.67419453 Z" id="Shape"></path>
        </g>
    </g>
</svg>