<?xml version="1.0" encoding="UTF-8"?>
<svg width="200px" height="200px" viewBox="0 0 200 200" version="1.1" xmlns="http://www.w3.org/2000/svg" xmlns:xlink="http://www.w3.org/1999/xlink">
    <!-- Generator: Sketch 53.2 (72643) - https://sketchapp.com -->
    <title>008-house</title>
    <desc>Created with Sketch.</desc>
    <g id="Page-1" stroke="none" stroke-width="1" fill="none" fill-rule="evenodd">
        <g id="008-house" fill="#4A7CB2" fill-rule="nonzero">
            <path d="M195.711891,191.813645 L178.557895,191.813645 L178.557895,161.014425 C178.557895,158.861209 176.812086,157.115789 174.659259,157.115789 C172.506433,157.115789 170.760624,158.861209 170.760624,161.014425 L170.760624,191.813645 L123.976998,191.813645 L123.976998,117.739571 C123.976998,115.586355 122.231189,113.840936 120.078363,113.840936 L79.5325536,113.840936 C77.3797271,113.840936 75.6339181,115.586355 75.6339181,117.739571 L75.6339181,191.813645 L28.8502924,191.813645 L28.8502924,103.704094 L30.3504873,103.704094 C31.3844055,103.704094 32.3758285,103.293177 33.1072125,102.562183 L99.8054581,35.8639376 L166.503704,102.562183 C167.235088,103.293177 168.226511,103.704094 169.260429,103.704094 L170.760624,103.704094 L170.760624,132.94386 C170.760624,135.097076 172.506433,136.842495 174.659259,136.842495 C176.812086,136.842495 178.557895,135.097076 178.557895,132.94386 L178.557895,103.704094 L195.711891,103.704094 C197.288889,103.704094 198.710331,102.753996 199.31384,101.297466 C199.917349,99.8409357 199.583236,98.1637427 198.468616,97.0487329 L102.562183,1.14230019 C101.039376,-0.380116959 98.57154,-0.380116959 97.0483431,1.14230019 L60.4011696,37.7894737 C58.8787524,39.3118908 58.8787524,41.7805068 60.4011696,43.302924 C61.9239766,44.825731 64.3925926,44.825731 65.9150097,43.302924 L99.8054581,9.41247563 L186.299415,95.9068226 L170.875244,95.9068226 L102.562183,27.5937622 C101.039376,26.071345 98.57154,26.071345 97.0483431,27.5937622 L28.7352827,95.9068226 L13.3111111,95.9068226 L44.0826511,65.1356725 C45.6050682,63.6132554 45.6050682,61.1446394 44.0826511,59.6218324 C42.5602339,58.0998051 40.0916179,58.0994152 38.5688109,59.6218324 L1.14191033,97.0487329 C0.0272904483,98.1637427 -0.306822612,99.8405458 0.29668616,101.297466 C0.900194932,102.754386 2.32202729,103.704094 3.89902534,103.704094 L21.0530214,103.704094 L21.0530214,191.813255 L3.89902534,191.813255 C1.74619883,191.813255 0.000389863548,193.558674 0.000389863548,195.711891 C0.000389863548,197.865107 1.74619883,199.610526 3.89902534,199.610526 L24.9516569,199.610526 L79.5325536,199.610526 L120.078363,199.610526 L174.659259,199.610526 L195.711891,199.610526 C197.864717,199.610526 199.610526,197.865107 199.610526,195.711891 C199.610526,193.558674 197.864717,191.813645 195.711891,191.813645 Z M116.179727,191.813645 L83.4311891,191.813645 L83.4311891,121.638207 L116.179727,121.638207 L116.179727,191.813645 Z" id="Shape"></path>
            <path d="M158.28499,113.840936 L136.452632,113.840936 C134.299805,113.840936 132.553996,115.586355 132.553996,117.739571 L132.553996,156.725926 C132.553996,158.879142 134.299805,160.624561 136.452632,160.624561 L158.28499,160.624561 C160.437817,160.624561 162.183626,158.879142 162.183626,156.725926 L162.183626,117.739571 C162.183626,115.586355 160.437817,113.840936 158.28499,113.840936 Z M154.386355,152.82729 L140.351267,152.82729 L140.351267,121.638207 L154.386355,121.638207 L154.386355,152.82729 Z" id="Shape"></path>
            <path d="M63.1582846,113.840936 L41.3259259,113.840936 C39.1730994,113.840936 37.4272904,115.586355 37.4272904,117.739571 L37.4272904,156.725926 C37.4272904,158.879142 39.1730994,160.624561 41.3259259,160.624561 L63.1582846,160.624561 C65.3111111,160.624561 67.0569201,158.879142 67.0569201,156.725926 L67.0569201,117.739571 C67.0569201,115.586355 65.3111111,113.840936 63.1582846,113.840936 Z M59.2596491,152.82729 L45.2245614,152.82729 L45.2245614,121.638207 L59.2596491,121.638207 L59.2596491,152.82729 Z" id="Shape"></path>
            <path d="M99.8054581,64.0631579 C89.9169591,64.0631579 81.8717349,72.1083821 81.8717349,81.9968811 C81.8717349,91.8853801 89.9169591,99.9306043 99.8054581,99.9306043 C109.693957,99.9306043 117.739181,91.8853801 117.739181,81.9968811 C117.739181,72.1083821 109.693957,64.0631579 99.8054581,64.0631579 Z M99.8054581,92.1333333 C94.2159844,92.1333333 89.6690058,87.5859649 89.6690058,81.9968811 C89.6690058,76.4077973 94.2159844,71.8604288 99.8054581,71.8604288 C105.394932,71.8604288 109.94191,76.4077973 109.94191,81.9968811 C109.94191,87.5859649 105.394932,92.1333333 99.8054581,92.1333333 Z" id="Shape"></path>
            <path d="M95.1539961,153.969591 C94.4292398,153.244444 93.4230019,152.82729 92.3980507,152.82729 C91.3727096,152.82729 90.3668616,153.244444 89.6417154,153.969591 C88.9165692,154.694737 88.4994152,155.700585 88.4994152,156.725926 C88.4994152,157.751267 88.9161793,158.757115 89.6417154,159.482261 C90.3672515,160.207407 91.3727096,160.624561 92.3980507,160.624561 C93.4233918,160.624561 94.4292398,160.207407 95.1539961,159.482261 C95.8791423,158.757115 96.2966862,157.751267 96.2966862,156.725926 C96.2966862,155.700585 95.8795322,154.694737 95.1539961,153.969591 Z" id="Path"></path>
            <path d="M54.6081871,49.0962963 C53.8834308,48.3711501 52.8775828,47.9539961 51.8522417,47.9539961 C50.8269006,47.9539961 49.8210526,48.3711501 49.0959064,49.0962963 C48.3707602,49.8214425 47.9536062,50.8272904 47.9536062,51.8526316 C47.9536062,52.8779727 48.3703704,53.8838207 49.0959064,54.6089669 C49.8214425,55.3341131 50.8269006,55.7512671 51.8522417,55.7512671 C52.8775828,55.7512671 53.8834308,55.3341131 54.6081871,54.6089669 C55.3333333,53.8838207 55.7508772,52.8779727 55.7508772,51.8526316 C55.7508772,50.8272904 55.3337232,49.8214425 54.6081871,49.0962963 Z" id="Path"></path>
            <path d="M177.415205,143.181676 C176.690448,142.45692 175.684211,142.039376 174.659259,142.039376 C173.633918,142.039376 172.62807,142.45653 171.902924,143.181676 C171.177778,143.910721 170.760624,144.912671 170.760624,145.938012 C170.760624,146.963353 171.177388,147.969201 171.902924,148.698246 C172.62807,149.423392 173.633918,149.836647 174.659259,149.836647 C175.6846,149.836647 176.690448,149.423392 177.415205,148.698246 C178.140351,147.969201 178.557895,146.967251 178.557895,145.938012 C178.557895,144.912671 178.140741,143.906823 177.415205,143.181676 Z" id="Path"></path>
        </g>
    </g>
</svg>