<?xml version="1.0" encoding="UTF-8" standalone="no"?>
<svg width="125px" height="109px" viewBox="0 0 125 109" version="1.1" xmlns="http://www.w3.org/2000/svg" xmlns:xlink="http://www.w3.org/1999/xlink">
    <!-- Generator: Sketch 50.2 (55047) - http://www.bohemiancoding.com/sketch -->
    <title>Group 6</title>
    <desc>Created with Sketch.</desc>
    <defs>
        <polygon id="path-1" points="0.0199468085 0.131987713 125 0.131987713 125 107.315297 0.0199468085 107.315297"></polygon>
    </defs>
    <g id="design" stroke="none" stroke-width="1" fill="none" fill-rule="evenodd">
        <g id="home" transform="translate(-1043.000000, -846.000000)">
            <g id="specialty-04" transform="translate(992.000000, 816.000000)">
                <g id="001-education" transform="translate(21.000000, 30.000000)">
                    <g id="Group-6" transform="translate(30.000000, 0.000000)">
                        <path d="M40.1422764,96.5284553 C39.300813,96.5284553 38.6178862,97.3464431 38.6178862,98.3577236 L38.6178862,103.845528 C38.6178862,104.855285 39.300813,105.674797 40.1422764,105.674797 C40.9837398,105.674797 41.6666667,104.855285 41.6666667,103.845528 L41.6666667,98.3577236 C41.6666667,97.3464431 40.9837398,96.5284553 40.1422764,96.5284553 Z" id="Fill-1" fill="#90B5DD"></path>
                        <path d="M83.8414634,96.5284553 C83,96.5284553 82.3170732,97.4373306 82.3170732,98.5609756 L82.3170732,106.691057 C82.3170732,107.813008 83,108.723577 83.8414634,108.723577 C84.6829268,108.723577 85.3658537,107.813008 85.3658537,106.691057 L85.3658537,98.5609756 C85.3658537,97.4373306 84.6829268,96.5284553 83.8414634,96.5284553 Z" id="Fill-2" fill="#90B5DD"></path>
                        <path d="M17.2473868,84.3333333 L106.736353,84.3333333 C107.842276,84.3333333 108.739837,83.4402752 108.739837,82.3398999 L108.739837,51.7739212 C108.739837,50.6718848 107.842276,49.7804878 106.736353,49.7804878 L92.8789199,49.7804878 C91.7729965,49.7804878 90.8754355,50.6718848 90.8754355,51.7739212 C90.8754355,52.8742964 91.7729965,53.7673546 92.8789199,53.7673546 L104.732869,53.7673546 L104.732869,80.3464665 L19.2508711,80.3464665 L19.2508711,53.7673546 L84.8649826,53.7673546 C85.9709059,53.7673546 86.8684669,52.8742964 86.8684669,51.7739212 C86.8684669,50.6718848 85.9709059,49.7804878 84.8649826,49.7804878 L17.2473868,49.7804878 C16.1414634,49.7804878 15.2439024,50.6718848 15.2439024,51.7739212 L15.2439024,82.3398999 C15.2439024,83.4402752 16.1414634,84.3333333 17.2473868,84.3333333 Z" id="Fill-5" fill="#90B5DD"></path>
                        <g id="Group-9">
                            <mask id="mask-2" fill="white">
                                <use xlink:href="#path-1"></use>
                            </mask>
                            <g id="Clip-7"></g>
                            <path d="M43.3686835,29.0445927 C44.4660904,29.1314791 45.4281915,28.3166705 45.5166223,27.2206419 L46.8919548,10.2157827 C47.159242,6.90713591 50.1968085,4.11151676 53.5239362,4.11151676 L71.4760638,4.11151676 C74.8031915,4.11151676 77.840758,6.90713591 78.1080452,10.2157827 L79.4833777,27.2206419 C79.5664894,28.2622837 80.440492,29.0512253 81.4690824,29.0512253 C81.5222739,29.0512253 81.5767952,29.0485723 81.6313165,29.0445927 C82.7287234,28.9550533 83.5478723,27.9966501 83.4584441,26.9006215 L82.0844415,9.89576223 C81.6496011,4.51179105 76.8899601,0.131987713 71.4760638,0.131987713 L53.5239362,0.131987713 C48.1100399,0.131987713 43.3503989,4.51179105 42.9155585,9.89576223 L41.5415559,26.9006215 C41.4521277,27.9966501 42.2712766,28.9550533 43.3686835,29.0445927 Z" id="Fill-6" fill="#90B5DD" mask="url(#mask-2)"></path>
                            <path d="M123.005319,33.0307543 L109.042553,33.0307543 L94.4148936,33.0307543 L1.99468085,33.0307543 C0.893617021,33.0307543 0,33.9205107 0,35.0205189 L0,42.9795769 C0,44.077927 0.893617021,44.9693415 1.99468085,44.9693415 L7.9787234,44.9693415 L7.9787234,105.325532 C7.9787234,106.423882 8.87234043,107.315297 9.97340426,107.315297 C11.0744681,107.315297 11.9680851,106.423882 11.9680851,105.325532 L11.9680851,91.3971803 L113.031915,91.3971803 L113.031915,105.325532 C113.031915,106.423882 113.925532,107.315297 115.026596,107.315297 C116.12766,107.315297 117.021277,106.423882 117.021277,105.325532 L117.021277,44.9693415 L123.005319,44.9693415 C124.106383,44.9693415 125,44.077927 125,42.9795769 L125,35.0205189 C125,33.9205107 124.106383,33.0307543 123.005319,33.0307543 Z M11.9680851,87.4176513 L113.031915,87.4176513 L113.031915,44.9693415 L11.9680851,44.9693415 L11.9680851,87.4176513 Z M3.9893617,40.9898124 L121.010638,40.9898124 L121.010638,37.0102834 L3.9893617,37.0102834 L3.9893617,40.9898124 Z" id="Fill-8" fill="#4A7CB2" mask="url(#mask-2)"></path>
                        </g>
                    </g>
                </g>
            </g>
        </g>
    </g>
</svg>