<?xml version="1.0" encoding="UTF-8" standalone="no"?>
<svg width="142px" height="118px" viewBox="0 0 142 118" version="1.1" xmlns="http://www.w3.org/2000/svg" xmlns:xlink="http://www.w3.org/1999/xlink">
    <!-- Generator: Sketch 50.2 (55047) - http://www.bohemiancoding.com/sketch -->
    <title>Group 2</title>
    <desc>Created with Sketch.</desc>
    <defs>
        <polygon id="path-1" points="0 0 55 0 55 55 0 55"></polygon>
    </defs>
    <g id="design" stroke="none" stroke-width="1" fill="none" fill-rule="evenodd">
        <g id="home" transform="translate(-260.000000, -847.000000)">
            <g id="specialty-01" transform="translate(221.000000, 816.000000)">
                <g id="Group-2" transform="translate(40.000000, 31.000000)">
                    <g id="007-ball" transform="translate(0.000000, 52.000000)">
                        <circle id="Oval-2" fill="#FFFFFF" cx="24" cy="24" r="23"></circle>
                        <path d="M47.0996104,17.5366458 C47.0996104,17.4360012 47.0996104,17.4360012 47.0996104,17.5366458 C44.1996436,7.41532755 35.0000561,0 23.9996894,0 C10.7997049,0 0,10.8223026 0,24.0499073 C0,29.5610806 1.90017818,34.6719583 4.99997843,38.6803108 C5.10020579,38.981207 5.30003926,39.2818956 5.60010009,39.3815027 C8.39963243,42.7884778 12.1999888,45.2942168 16.399805,46.7970377 L16.5002394,46.7970377 C18.9003119,47.5986667 21.3997834,48 23.9996894,48 C37.1994668,48 48,37.1774899 48,23.9500927 C48,21.7452499 47.6999392,19.540407 47.0996104,17.5366458 Z M24.2001441,22.9473821 C23.6000224,22.4464418 20.3999948,19.3401554 18.7998775,14.2292777 C22.300173,13.4276487 34.6997882,11.2228059 45.1996393,18.2378377 C45.6995336,20.0413473 45.9995945,22.0459385 45.9995945,23.9500927 C45.9995945,25.8534169 45.799761,27.6577565 45.2998667,29.360829 C36.9996333,21.0432279 26.5993882,22.4464418 24.2001441,22.9473821 Z M16.0003451,32.9680557 C13.8001061,30.0620209 6.09999439,18.8392151 10.7003059,6.71351309 L10.7003059,6.51326148 C12.3998223,5.21048468 14.3000004,4.20860408 16.2995776,3.40697509 C15.4996225,7.31489047 15.7996833,10.7218656 16.5996385,13.7283374 L16.5996385,13.828982 C16.5996385,13.828982 16.5996385,13.928589 16.7000729,13.928589 C18.4002105,19.8410957 22.1003395,23.649404 22.9002947,24.451033 C22.1997386,25.7536023 20.2001614,29.6615177 16.0003451,32.9680557 Z M44.1996436,15.3318029 C33.3999387,9.31948173 21.6998443,11.5234945 18.2999832,12.3253311 C17.6998615,9.51973334 17.6002554,6.31300987 18.600044,2.70495311 C20.2995604,2.30444989 22.1997386,2.0037612 23.9996894,2.0037612 C32.9994435,2.0037612 40.7997826,7.51514208 44.1996436,15.3318029 Z M7.89973813,9.11840006 C5.10020579,20.9436209 12.0001553,31.1645461 14.3993995,34.171018 C12.2995949,35.5734018 9.69968895,36.7763641 6.59988869,37.477556 C3.80035635,33.7696847 2.10001165,29.1599549 2.10001165,24.1495143 C1.99957721,18.2378377 4.19981622,13.0271455 7.89973813,9.11840006 Z M8.00017257,39.080814 C19.700267,35.8740905 24.0999167,26.6550458 24.8998719,24.8515363 C26.4999892,24.5508476 31.1996997,23.9492627 36.3993046,25.8534169 C35.1996825,28.8598887 29.5997895,41.6861601 16.8996993,44.793069 C13.3996109,43.6907513 10.400245,41.6869901 8.00017257,39.080814 Z M23.9996894,46.0958458 C22.8000673,46.0958458 21.6998443,45.9952012 20.4993939,45.7951571 C31.8994275,41.3860939 36.9996333,29.8617693 38.1992554,26.7556904 C40.3994944,27.8580081 42.5997334,29.360829 44.6995379,31.6654864 C41.5999448,40.0835246 33.4995449,46.0958458 23.9996894,46.0958458 Z" id="Fill-1" stroke="#90B5DD" fill="#90B5DD"></path>
                    </g>
                    <polygon id="Path" fill="#FFFFFF" points="60.2861328 79.1181641 44.4589844 82.1484375 27.7705078 82.1484375 15.7148438 82.1484375 12.7402344 85.1132812 12.7402344 88.5791016 15.7148438 96.9833984 18.3183594 100.263672 25.5722656 100.263672 27.7705078 106.574219 31.3261719 108.121094 40.9726562 108.121094 55.3730469 108.121094 60.2861328 106.574219 62.0537109 101.561523 62.0537109 96.9833984 68.6044922 90.2382812 78.0097656 75.3378906 70.0400391 65.0146484"></polygon>
                    <path d="M128.90986,83.7276596 C127.804328,81.6034043 125.838371,80.2068085 123.535392,79.8774468 C123.175392,79.8289362 122.807732,79.8085106 122.427307,79.8085106 L89.3864557,79.8085106 C85.5847536,79.7982979 82.8324131,78.6697872 80.230711,75.9787234 L123.354115,9.75404255 C125.021349,7.1906383 124.7022,3.8612766 122.588158,1.84680851 C121.291137,0.608510638 119.524328,0.00085106383 117.780498,0.169361702 C116.023903,0.340425532 114.417945,1.25702128 113.401775,2.67404255 L90.1626259,34.4893617 L90.1626259,34.4995745 L69.9081578,62.2246809 L48.8545408,33.3812766 L26.4349663,2.69446809 C25.4060302,1.25702128 23.8102855,0.340425532 22.0460302,0.169361702 C20.2894344,0.0110638298 18.5353919,0.618723404 17.2383706,1.84680851 C15.124328,3.87148936 14.8051791,7.1906383 16.4800727,9.76425532 L59.6060302,75.9991489 C57.0426259,78.6697872 54.3285834,79.7880851 50.5702855,79.8085106 L17.5166685,79.8085106 C14.3660302,79.8085106 12.1217748,81.0238298 10.8553919,83.4187234 C9.68858336,85.6323404 9.71922165,88.4357447 10.924328,90.907234 L14.524328,98.2476596 C15.8622004,100.920851 17.6775195,102.268936 19.9319876,102.268936 L23.8102855,102.268936 C24.7575195,106.925957 28.8860302,110.446809 33.8136897,110.446809 L54.2392217,110.446809 C59.8741153,110.446809 64.4519876,105.858723 64.4519876,100.234043 C64.4519876,99.307234 64.2936897,98.4289362 64.0639025,97.5812766 C66.3464557,95.9548936 68.3022004,94.0093617 69.8877323,91.7651064 C74.2256046,98.3497872 81.497094,102.268936 89.3762429,102.268936 L119.115817,102.268936 C121.541349,102.268936 124.132839,100.58383 125.299647,98.2578723 L128.981349,90.9378723 C130.11752,88.6834043 130.097094,85.9821277 128.90986,83.7276596 Z M116.713264,5.06638298 C117.052839,4.59914894 117.581349,4.29021277 118.158371,4.23914894 C118.768583,4.18042553 119.325179,4.38978723 119.764328,4.80851064 C120.45369,5.45702128 120.512413,6.62382979 119.925179,7.53021277 L111.287732,20.8042553 L107.286881,17.972766 L116.713264,5.06638298 Z M104.874115,21.2740426 L109.05369,24.2255319 L99.8290089,38.3982979 L94.750711,35.1480851 L104.874115,21.2740426 Z M92.3379451,38.4493617 L97.5949663,41.8297872 L77.5268812,72.6468085 L72.4409238,65.6944681 L92.3379451,38.4493617 Z M19.9013493,7.53021277 C19.3115621,6.62382979 19.3830514,5.45702128 20.0596472,4.80851064 C20.4987961,4.38978723 21.0579451,4.17021277 21.6656046,4.23914894 C22.2451791,4.30042553 22.7736897,4.59914894 23.1336897,5.08680851 L31.6102855,16.706383 L27.8187961,19.6987234 L19.9013493,7.53021277 Z M34.1532642,29.413617 L30.0630514,23.1302128 L34.0230514,20.0076596 L42.9387961,32.2144681 L44.3073068,34.0910638 L39.38986,37.4510638 L34.1532642,29.413617 Z M40.3473068,83.8859574 L41.7132642,90.0212766 L33.8136897,90.0212766 C33.3056046,90.0212766 32.8077323,90.0697872 32.297094,90.1514894 C32.1592217,90.1693617 32.0187961,90.1897872 31.8783706,90.2102128 C31.7992217,90.2306383 31.7200727,90.2408511 31.6485834,90.2612766 L30.2341153,83.8859574 L40.3473068,83.8859574 Z M26.3839025,93.2612766 C26.123477,93.5421277 25.8962429,93.8408511 25.6664557,94.1395745 C25.5158174,94.3387234 25.3677323,94.52 25.2375195,94.7293617 C25.0179451,95.066383 24.8290089,95.4365957 24.6477323,95.8144681 C24.5583706,96.0059574 24.4485834,96.1846809 24.3694344,96.373617 C24.1396472,96.9225532 23.9711365,97.4919149 23.8409238,98.0791489 C23.830711,98.1097872 23.8102855,98.1480851 23.8102855,98.1787234 C23.8102855,98.1889362 23.8000727,98.1889362 23.8000727,98.1889362 L19.9319876,98.1889362 C19.7226259,98.1889362 19.0639025,98.1889362 18.1856046,96.4425532 L14.5958174,89.1123404 C13.9575195,87.8076596 13.9064557,86.3906383 14.4656046,85.333617 C14.8639025,84.5855319 15.5124131,83.8859574 17.5166685,83.8859574 L26.0545408,83.8859574 L27.8494344,91.9744681 C27.8187961,91.9948936 27.8009238,92.0153191 27.7804983,92.0357447 C27.4817748,92.2553191 27.190711,92.4953191 26.9226259,92.7429787 C26.7336897,92.9140426 26.5626259,93.0825532 26.3839025,93.2612766 Z M54.2392217,106.356596 L33.8136897,106.356596 C30.4332642,106.356596 27.6911365,103.604255 27.6911365,100.234043 C27.6911365,97.8595745 29.057094,95.8144681 31.0409238,94.7982979 C31.0511365,94.7880851 31.0715621,94.7982979 31.0817748,94.7880851 C31.9779451,94.3285106 32.9073068,94.0987234 33.8136897,94.0987234 L54.2392217,94.0987234 C54.6094344,94.0987234 54.9566685,94.1497872 55.3064557,94.2085106 C55.4468812,94.2391489 55.577094,94.2697872 55.7047536,94.3004255 C55.8962429,94.3489362 56.0851791,94.4102128 56.2639025,94.4689362 C56.9532642,94.7191489 57.5915621,95.0765957 58.1481578,95.5565957 C58.1685834,95.5668085 58.1890089,95.5846809 58.2094344,95.6051064 C58.8579451,96.1642553 59.3966685,96.853617 59.7745408,97.6604255 C59.7847536,97.6808511 59.8051791,97.6910638 59.8153919,97.7114894 C60.1626259,98.4774468 60.364328,99.3251064 60.364328,100.234043 C60.3719876,103.614468 57.6196472,106.356596 54.2392217,106.356596 Z M67.0153919,88.7829787 C65.7387961,90.7489362 64.1328387,92.4646809 62.2179451,93.9097872 C62.1183706,93.7795745 62.0085834,93.6697872 61.8987961,93.5523404 C61.6102855,93.212766 61.2911365,92.893617 60.9617748,92.6051064 C60.7626259,92.4238298 60.563477,92.2553191 60.3541153,92.1046809 C60.1345408,91.9361702 59.9251791,91.7753191 59.6953919,91.627234 C59.3047536,91.387234 58.9166685,91.1778723 58.5081578,90.9787234 C58.3090089,90.8893617 58.10986,90.7974468 57.9004983,90.7182979 C57.4204983,90.5395745 56.9328387,90.3787234 56.4247536,90.2689362 C56.3047536,90.2408511 56.1847536,90.2204255 56.0545408,90.2 C55.457094,90.0902128 54.857094,90.0212766 54.2392217,90.0212766 L45.8928387,90.0212766 L44.524328,83.8859574 L50.5804983,83.8859574 C55.1277323,83.8782979 58.7073068,82.4995745 61.8783706,79.4995745 L67.4749663,88.0757447 L67.0153919,88.7829787 Z M93.4562429,98.1889362 L89.3762429,98.1889362 C82.8324131,98.1889362 76.7992217,94.9080851 73.22986,89.4314894 L71.6239025,86.9676596 C71.6239025,86.9676596 71.6239025,86.9676596 71.6239025,86.96 L41.6136897,40.8825532 L46.7200727,37.3923404 L68.2613493,66.8919149 L68.2613493,66.9021277 L74.8945408,75.9787234 C78.923477,81.5038298 83.2613493,83.8680851 89.3762429,83.8859574 L96.6273068,83.8859574 L93.4562429,98.1889362 Z M107.756668,98.1889362 L97.643477,98.1889362 L100.814541,83.8859574 L110.927732,83.8859574 L107.756668,98.1889362 Z M125.330285,89.1021277 L121.648583,96.4246809 C121.181349,97.3514894 119.983903,98.1889362 119.115817,98.1889362 L111.936243,98.1889362 L115.11752,83.8859574 L122.427307,83.8859574 C122.616243,83.8859574 122.79752,83.906383 122.96603,83.9268085 C124.321775,84.1157447 125.000924,85.0731915 125.299647,85.6221277 C125.869009,86.7097872 125.879222,88.0170213 125.330285,89.1021277 Z" id="004-hockey" fill="#4A7CB2"></path>
                    <g id="006-basketball" transform="translate(86.000000, 63.000000)">
                        <mask id="mask-2" fill="white">
                            <use xlink:href="#path-1"></use>
                        </mask>
                        <g id="Clip-2"></g>
                        <circle id="Oval" fill="#FFFFFF" mask="url(#mask-2)" cx="27.5" cy="27.5" r="26.5"></circle>
                        <path d="M52.8054768,16.7886833 C51.3490149,13.3938103 49.4001757,10.4780905 46.9409851,8.0329817 C44.4976341,5.60372099 41.5528064,3.6533887 38.1601995,2.19614699 C34.7571452,0.734971349 31.1843482,0 27.4551767,0 C23.726567,0 20.1830902,0.734634154 16.7800359,2.19614699 C13.3875413,3.6533887 10.4645072,5.59619032 8.02868283,8.0329817 C5.59274615,10.4702227 3.62593286,13.3829077 2.1647528,16.7886833 C0.708740293,20.1829944 0,23.7389339 0,27.4695401 C0,31.2010455 0.709526658,34.7864333 2.16508982,38.1816435 C5.07014989,44.9562158 10.0199858,49.902183 16.7800359,52.803853 C20.1839889,54.2650287 23.726567,55 27.4551767,55 C28.5080082,55 29.4997279,54.9403166 30.4923463,54.819601 C30.5221158,54.8499485 30.582666,54.879734 30.6721994,54.879734 C30.7928503,54.879734 30.970232,54.8402823 31.2136684,54.7590184 C34.4728178,54.0346125 37.6459163,53.2486124 40.5658049,51.6602021 C43.5095093,50.0593156 46.0383495,48.0791978 48.1437878,45.7031014 C50.2782094,43.2953087 51.9326107,40.5279544 53.1657447,37.3688927 C54.3987663,34.2094938 54.9999992,30.8998185 54.9999992,27.4695401 C55.0008979,23.7389339 54.2666569,20.193897 52.8054768,16.7886833 Z M46.310432,12.3655923 C46.2802131,12.3655923 46.2187642,12.394591 46.1301296,12.4863079 C45.8939952,12.6435528 45.0664013,13.3196276 43.6644233,15.0438148 C42.9618616,15.907482 42.2926643,16.8562346 41.6488554,17.9020992 C40.3679778,19.9853985 39.1291146,23.2884422 38.8526508,26.5369729 C38.7987286,27.1692123 38.7623311,27.8010022 38.7623311,28.402557 C38.7623311,29.3653593 38.8224319,30.2684783 38.9725154,31.110565 C37.2887938,31.3512094 36.0859911,31.5013733 35.3641073,31.5317208 C35.454427,29.3957068 35.5141908,27.3198258 35.5141908,25.3335261 C35.5141908,21.753421 35.3447852,18.4724073 35.0029407,15.4648582 C34.4728178,10.800336 33.7698067,6.95025055 32.9585019,3.9414651 C38.2506316,5.17469734 42.9425395,8.15369729 46.310432,12.3655923 Z M13.862731,7.58170322 L13.9232811,7.58170322 L13.9834943,7.61193832 L15.3665994,8.66522116 C15.945814,9.10604661 16.8099178,9.89901539 17.9526197,11.0423291 C19.0952092,12.1851933 20.1177095,13.3890896 21.0497777,14.6526694 C21.9822952,15.9157995 22.8186514,17.4831914 23.6361349,19.3764254 C24.4422722,21.2441451 24.9333015,23.1369295 25.0794532,25.0626466 C25.1137163,25.5140375 25.1400034,25.9952139 25.1400034,26.4768399 C25.1400034,27.7408692 24.9894705,29.1546128 24.6888541,30.6895216 C23.485602,30.4489896 21.5758564,29.9848978 19.0355577,29.1248273 C13.4862864,27.2465422 8.54071933,24.5814702 4.11965827,21.3021425 C5.59364485,15.6760543 9.08140201,10.8012352 13.862731,7.58170322 Z M13.8026301,47.4483071 C10.5848211,45.221363 8.05890174,42.363191 6.16454645,38.8432189 C4.27019116,35.32246 3.33767361,31.5317208 3.33767361,27.4695401 C3.33767361,26.9580162 3.36789253,26.1159295 3.4583246,24.9427178 C7.879498,28.0416466 12.6665562,30.4603419 17.8025361,32.2236437 C19.7636202,32.8975828 21.7118977,33.4573255 23.726567,33.8788185 C22.0726149,38.3014599 18.7648232,42.8144695 13.8026301,47.4483071 Z M29.3202118,51.6298546 C28.9292757,51.6298546 27.8466746,51.6904372 27.4556261,51.6904372 C23.7270163,51.6904372 20.1782596,50.8483504 16.8103671,49.1632777 C21.8619812,44.2889081 25.260205,39.3850903 27.0343587,34.4803732 C28.8984951,34.6906701 30.4927956,34.840834 31.7854687,34.8711815 C31.3344317,40.5279544 30.4927956,46.1241448 29.3202118,51.6298546 Z M31.9658835,31.5918538 C31.0939161,31.5615063 29.7704624,31.4416899 27.9664269,31.2906268 C28.2973745,29.7566172 28.4263385,28.1918105 28.4477951,26.6274533 C28.4565575,25.9947643 28.4399314,25.3945583 28.3872449,24.7623188 C28.2297471,22.8669492 27.8027504,21.0360961 27.1243414,19.1960264 C26.4489655,17.3651733 25.70394,15.7994674 24.8987014,14.472158 C24.0802069,13.1216945 23.1087081,11.8378831 22.0419467,10.5909383 C19.8907868,8.07647977 18.5239706,6.88966796 16.9897709,5.71656871 C20.3278938,4.12186409 23.8165497,3.30922564 27.4543904,3.30922564 C28.3262454,3.30922564 28.9884778,3.33946073 29.3789646,3.36980823 C31.2133314,9.98904629 32.115967,17.4204732 32.115967,25.6948861 C32.1164164,27.6206032 32.0562032,29.5756562 31.9658835,31.5918538 Z M32.8381879,51.0586473 C33.9506709,45.4018744 34.7023243,39.9865327 35.0938221,34.8113857 C36.3268437,34.7811506 37.8601448,34.6001896 39.7250675,34.2998619 C40.7480171,37.6397722 42.5217214,40.8888648 45.0781968,44.0482638 C41.6488554,47.6889515 37.559079,50.0053645 32.8381879,51.0586473 Z M47.2425002,41.4002763 C45.1980614,38.7528508 43.7841756,36.1649964 43.0026403,33.6382865 C46.0396975,32.7953005 48.8670197,31.6519868 51.4832588,30.2382432 C51.0615421,34.2998619 49.648555,38.0305805 47.2425002,41.4002763 Z M42.2508746,30.3580596 C42.1605548,29.7267193 42.1009034,29.0940302 42.1009034,28.4323425 C42.1009034,27.920931 42.1416821,27.4107559 42.1912231,26.8684349 C42.3820853,24.7627684 42.9784877,22.7193705 43.9658261,20.730036 C45.083926,18.4763412 46.607566,16.703036 48.205686,15.1039478 L48.2355679,15.0737127 C50.2804561,18.4136231 51.4236074,22.1741272 51.6640106,26.3570235 C48.5953865,28.1918105 45.4678972,29.5159728 42.2508746,30.3580596 Z" id="Fill-1" fill="#90B5DD" mask="url(#mask-2)"></path>
                    </g>
                </g>
            </g>
        </g>
    </g>
</svg>