<?xml version="1.0" encoding="UTF-8" standalone="no"?>
<svg width="139px" height="120px" viewBox="0 0 139 120" version="1.1" xmlns="http://www.w3.org/2000/svg" xmlns:xlink="http://www.w3.org/1999/xlink">
    <!-- Generator: Sketch 50.2 (55047) - http://www.bohemiancoding.com/sketch -->
    <title>Group 5</title>
    <desc>Created with Sketch.</desc>
    <defs></defs>
    <g id="design" stroke="none" stroke-width="1" fill="none" fill-rule="evenodd">
        <g id="home" transform="translate(-775.000000, -847.000000)">
            <g id="specialty-03" transform="translate(735.000000, 816.000000)">
                <g id="Group-5" transform="translate(36.000000, 27.000000)">
                    <path d="M136.016651,106.961354 L135.912006,108.06465 C136.144605,108.377595 136.754867,109.204575 136.754867,109.204575 C137.007552,109.546283 137.127819,109.967885 137.093846,110.390471 L136.654934,115.803457 C136.452588,118.315619 134.223805,120.359962 131.686792,120.359962 L116.775422,120.359962 C114.162033,120.359962 112.03492,118.252194 112.03492,115.662349 L112.03492,103.966131 C112.03492,103.668428 113.141128,101.514444 113.329091,101.17372 C113.334795,101.147662 113.34273,101.122833 113.349425,101.097758 C113.114099,94.7810924 112.922168,89.8595262 112.729492,85.2032132 C112.559879,81.0941233 112.385554,76.9840502 112.210237,72.8749603 L112.070876,69.5753968 C111.764629,69.5409802 111.452927,69.5227886 111.138993,69.5227886 C110.824067,69.5227886 110.513356,69.5409802 110.206118,69.5753968 L110.046423,73.3378628 C109.878793,77.2933074 109.710171,81.2477686 109.547501,85.2032132 C109.35681,89.8364179 109.159175,94.9000753 108.927568,101.098741 C108.934263,101.12357 108.942198,101.147662 108.947902,101.172737 C109.148512,101.537552 110.242074,103.668428 110.242074,103.966131 L110.242074,115.662349 C110.242074,118.252194 108.11496,120.359224 105.501571,120.359224 L90.5911935,120.359224 C88.0541802,120.359224 85.8244056,118.315619 85.6220596,115.803457 L85.184139,110.390471 C85.1501666,109.967885 86.0820497,108.444953 86.3639952,108.06465 L86.2603424,106.970942 C85.442775,98.3360758 84.5971865,89.4062111 84.2842444,80.5879543 C83.9809732,72.0145466 84.3375586,62.7633788 85.3740864,52.3056652 C85.3768141,52.2798528 85.3797898,52.2547779 85.3837574,52.2289655 C85.6500805,50.3822719 87.0362504,48.7949316 88.7777659,48.120859 L88.7777659,41.8051768 C88.7777659,40.827501 89.5769833,40.035183 90.5629246,40.035183 L131.714069,40.035183 C132.70001,40.035183 133.499227,40.827501 133.499227,41.8051768 L133.499227,48.120859 C135.240743,48.7949316 136.626913,50.3822719 136.892244,52.2289655 C136.896212,52.2547779 136.900179,52.2808362 136.902163,52.3056652 C137.939435,62.7614122 138.29602,72.0128258 137.991757,80.5879543 C137.679807,89.4035069 136.834218,98.3291925 136.016651,106.961354 Z M132.66273,109.95445 C132.556401,109.808935 131.404168,109.223217 131.098899,108.803489 L127.454531,103.784794 C126.884172,102.999206 127.062042,101.901381 127.851675,101.333944 C128.641309,100.767483 129.744541,100.94371 130.315145,101.729054 L131.845412,103.838174 C132.586045,95.9610883 133.313449,87.8680455 133.593728,79.9112558 C133.888708,71.5790998 133.542033,62.5749408 132.536311,52.3842343 C132.415771,51.6739634 131.625157,51.0102476 130.889179,51.0102476 L123.379454,51.0102476 C122.405091,51.0102476 121.615703,50.2249033 121.615703,49.2555322 C121.615703,48.286161 122.405091,47.5008168 123.379454,47.5008168 L129.153113,47.5008168 L129.153113,43.3362013 L92.0234392,43.3362013 L92.0234392,47.5008168 L97.7970973,47.5008168 C98.7714603,47.5008168 99.5608486,48.286161 99.5608486,49.2555322 C99.5608486,50.2249033 98.7714603,51.0102476 97.7970973,51.0102476 L90.2873728,51.0102476 C89.5513943,51.0102476 88.7598009,51.6729884 88.6392612,52.3832593 C87.6345183,62.575672 87.288089,71.5810498 87.5818434,79.9112558 C87.8631028,87.8680455 88.5905063,95.9601134 89.3301598,103.837199 L90.8614066,101.729054 C91.4320104,100.942735 92.5354881,100.766508 93.3248765,101.333944 C94.1145099,101.901381 94.2923795,102.998231 93.7220207,103.784794 L90.0776532,108.803489 C89.7723838,109.223217 88.6201512,109.808935 88.5138214,109.953475 L88.8938157,114.67139 C88.9494305,115.356799 89.6001492,115.958604 90.2873728,115.958604 L105.018947,115.958604 C105.645656,115.958604 106.173875,115.433091 106.173875,114.811299 L106.173875,112.713879 L94.7747835,112.713879 C93.8006655,112.713879 93.0110322,111.928292 93.0110322,110.95892 C93.0110322,109.989793 93.8006655,109.204205 94.7747835,109.204205 L106.173875,109.204205 L106.173875,103.664871 L105.92716,103.215407 C105.642961,102.700375 101.627174,96.8332055 101.627174,96.8332055 C101.056816,96.0478613 101.234685,94.9510119 102.024319,94.3835751 C102.813952,93.8158945 103.91743,93.9921217 104.487788,94.7777096 L105.054227,95.5593977 C105.210292,91.4488934 105.352882,87.8424524 105.491551,84.467081 C105.652516,80.5452348 105.818871,76.6224137 105.98449,72.6998362 L106.074405,70.5687796 C105.758601,70.8049679 105.387427,70.9212339 105.017967,70.9212339 C104.509593,70.9212339 104.005384,70.7040577 103.656995,70.2840862 C103.035921,69.5367661 103.142006,68.4304107 103.89342,67.8134938 C105.666726,66.355659 108.044936,65.5530089 110.588766,65.5530089 C113.132596,65.5530089 115.510806,66.355659 117.283132,67.8134938 C118.034546,68.4304107 118.14063,69.5367661 117.519557,70.2840862 C116.916613,71.0106881 115.85062,71.1276854 115.102147,70.5678046 L115.172951,72.2398907 C115.345186,76.3150521 115.518401,80.3909446 115.685,84.467081 C115.82563,87.8719454 115.96528,91.4213503 116.122324,95.5584227 L116.688763,94.7777096 C117.259367,93.9921217 118.3626,93.8149196 119.152233,94.3826001 C119.941867,94.9510119 120.119736,96.0478613 119.549377,96.8332055 C119.549377,96.8332055 115.559561,102.654551 115.287856,103.14594 L115.001697,103.663896 L115.001697,109.204205 L126.401768,109.204205 C127.376131,109.204205 128.16552,109.989793 128.16552,110.95892 C128.16552,111.928292 127.376131,112.713879 126.401768,112.713879 L115.001697,112.713879 L115.001697,114.811299 C115.001697,115.433091 115.530896,115.958604 116.157604,115.958604 L130.889179,115.958604 C131.576403,115.958604 132.227121,115.356799 132.281756,114.67139 L132.66273,109.95445 Z" id="009-sweat-pants" fill="#4A7CB2" transform="translate(111.138265, 80.197572) rotate(13.000000) translate(-111.138265, -80.197572) "></path>
                    <path d="M123.060891,60.982386 C123.395989,61.88046 122.936136,62.8790161 122.035047,63.2122697 C121.835826,63.2867277 121.630802,63.3214266 121.428921,63.3214266 C120.722459,63.3214266 120.057582,62.8893776 119.79695,62.191063 L116.567825,53.5312875 L113.339908,62.191063 C113.079034,62.8893776 112.414157,63.3214266 111.707937,63.3214266 C111.505815,63.3214266 111.300791,63.2867277 111.10157,63.2122697 C110.20048,62.8790161 109.740627,61.88046 110.075967,60.982386 L114.064261,50.2857392 L113.131016,50.2857392 C112.169725,50.2857392 111.390489,49.5093522 111.390489,48.5510371 C111.390489,47.592963 112.169725,46.8163351 113.131016,46.8163351 L120.005601,46.8163351 C120.966892,46.8163351 121.746128,47.592963 121.746128,48.5510371 C121.746128,49.5093522 120.966892,50.2857392 120.005601,50.2857392 L119.072355,50.2857392 L123.060891,60.982386 Z" id="Path" fill="#90B5DD" transform="translate(116.568365, 55.068881) rotate(13.000000) translate(-116.568365, -55.068881) "></path>
                    <g id="010-hoodie-1" transform="translate(47.000000, 54.000000) rotate(-9.000000) translate(-47.000000, -54.000000) translate(8.000000, 6.000000)">
                        <polygon id="Path-3" fill="#FFFFFF" points="50.7787204 95.201065 65.2492536 94.2934243 65.3144725 82.8571634 76.8391247 80.0482858 77.2080303 31.8732321 75.1383736 20.831493 66.5752432 13.9501726 56.4673999 1.88941491 22.4127672 1.69347337 19.214315 4.88278151 15.8401371 8.41997692 13.7067944 12.4068176 6.35242505 17.3207456 2.99540288 21.9294813 1.93137353 28.6474981 1.51276613 70.4442572 1.82205956 79.5658812 12.481389 82.6324504 12.5464999 94.4818815"></polygon>
                        <path d="M76.4766232,49.2684437 C75.6359283,49.2684437 74.9534819,49.9467283 74.9534819,50.7836855 L74.9534819,70.0857328 L66.8934081,72.2619153 L66.8934081,34.3975117 C66.8934081,33.5605545 66.2116682,32.8822699 65.3700313,32.8822699 C64.5293365,32.8822699 63.8475965,33.5605545 63.8475965,34.3975117 L63.8475965,86.4262033 L26.806863,86.4262033 C25.9652262,86.4262033 25.2837217,87.1047222 25.2837217,87.9423825 C25.2837217,88.7791054 25.9661681,89.4576243 26.806863,89.4576243 L63.8475965,89.4576243 L63.8475965,92.9685789 L14.1512261,92.9685789 L14.1512261,89.4583274 L21.8321629,89.4583274 C22.6730933,89.4583274 23.3545978,88.7791054 23.3545978,87.9423825 C23.3545978,87.1047222 22.6730933,86.4262033 21.8321629,86.4262033 L14.1512261,86.4262033 L14.1512261,34.3975117 C14.1512261,33.5605545 13.4697216,32.8822699 12.6287912,32.8822699 C11.7871544,32.8822699 11.1056499,33.5605545 11.1056499,34.3975117 L11.1056499,72.2628528 L3.04557613,70.0857328 L3.04557613,25.1698885 C3.04557613,20.6213507 8.48018573,17.0278956 13.3832972,14.8095254 C13.4089655,14.7996816 13.4365177,14.7921816 13.4621859,14.7811659 C15.775863,13.7503796 17.8281475,13.0847514 18.7745769,12.7981094 L28.1004027,17.5993047 L28.1004027,41.7299694 C28.1004027,42.5676297 28.7828492,43.2452112 29.623544,43.2452112 C30.4644744,43.2452112 31.1469208,42.5676297 31.1469208,41.7299694 L31.1469208,19.1675155 L38.2998919,22.8497991 C38.7386075,23.0759721 39.2602151,23.0759721 39.6991661,22.8497991 L47.2981529,18.9378268 L47.2981529,41.7299694 C47.2981529,42.5666922 47.9808348,43.2452112 48.8215297,43.2452112 C49.6622246,43.2452112 50.3449065,42.5666922 50.3449065,41.7299694 L50.3449065,17.3693817 L59.2244812,12.7981094 C60.1994046,13.0929546 62.3437653,13.7888173 64.7408054,14.8718695 C64.7657672,14.8828852 64.7904935,14.8910883 64.8163973,14.900229 C69.6658173,17.1249274 74.9534819,20.6836947 74.9534819,25.1698885 L74.9534819,45.6309259 C74.9534819,46.4688206 75.6349864,47.1471052 76.4766232,47.1471052 C77.3184955,47.1471052 78,46.4688206 78,45.6309259 L78,25.1698885 C78,19.0575931 71.8257202,14.8517131 66.5990472,12.385373 C62.9122352,2.03602557 55.8346205,0.124453733 55.5291915,0.0475783573 C55.4997555,0.0393751923 55.4703194,0.0365626785 55.4408833,0.0311720272 C55.4123891,0.0255469997 55.383895,0.0192188438 55.3554008,0.0154688255 C55.3057127,0.00820316505 55.2560246,0.00539065132 55.2063365,0.00468752289 C55.1879683,0.00375001831 55.1705422,0 55.152174,0 L23.0253845,0 C23.0089003,0 22.9931225,0.00281251373 22.9766383,0.00375001831 C22.9250663,0.00539065132 22.8734942,0.00820316505 22.8212157,0.014531321 C22.7927216,0.0182813393 22.763992,0.0255469997 22.7354978,0.0311720272 C22.7060617,0.0365626785 22.6766256,0.0393751923 22.6481315,0.0475783573 C22.3445865,0.124453733 15.3140695,2.02524426 11.6171315,12.2836537 C6.34524464,14.7345251 0,18.9725145 0,25.1698885 L0,79.8214835 C0,80.5063306 0.460851503,81.1051616 1.12398785,81.2844594 L11.1056499,83.9797851 L11.1056499,94.4847582 C11.1056499,95.3214811 11.7880963,96 12.6287912,96 L65.3700313,96 C66.2116682,96 66.8934081,95.3214811 66.8934081,94.4847582 L66.8934081,83.9797851 L76.8760121,81.2837563 C77.5391485,81.1051616 78,80.5053931 78,79.8214835 L78,50.7836855 C78,49.9467283 77.3184955,49.2684437 76.4766232,49.2684437 Z M39.0883083,15.8459367 L33.3685218,9.96637679 L44.8090367,9.96637679 L39.0883083,15.8459367 Z M55.5550953,3.28032852 C57.0019383,3.93212857 60.1765622,5.84112227 62.5995061,10.7236461 C60.9520267,10.1248151 59.7698731,9.79340719 59.4976481,9.71934433 C59.480222,9.71465681 59.4672701,9.71114117 59.4616184,9.70926616 C59.3697777,9.68442229 59.2758177,9.66895346 59.1830351,9.6616878 C58.9013906,9.64059395 58.6190396,9.69637547 58.3651827,9.82739174 L50.2547143,14.0030371 C50.0430099,13.4170968 49.4827821,12.9977978 48.8215297,12.9977978 C47.9808348,12.9977978 47.2990949,13.6763168 47.2990949,14.5139771 L47.2990949,15.5246071 L39.9704492,19.2975942 L40.18286,19.0796244 L52.9461153,5.96182599 L55.5550953,3.28032852 Z M51.5572026,3.03142105 L47.7580625,6.93519011 L30.4183186,6.93519011 L26.6201204,3.03142105 L51.5572026,3.03142105 Z M22.6215213,3.27939101 L36.9679675,18.0249318 L36.6201506,18.382121 L36.49699,18.5093873 L31.1469208,15.7545301 L31.1469208,14.5130396 C31.1469208,13.6763168 30.4654164,12.9977978 29.623544,12.9977978 C28.8895256,12.9977978 28.2770193,13.5141285 28.1333712,14.2027256 L19.6336399,9.82739174 C19.5841872,9.80161036 19.5335571,9.77981338 19.4819851,9.75965703 C19.4664429,9.754032 19.4497231,9.74864135 19.4341809,9.74301632 C19.3974446,9.73036001 19.359531,9.71934433 19.3218528,9.70926616 C19.3044266,9.70457864 19.2870004,9.70012549 19.2695742,9.69543797 C19.2281282,9.6862973 19.1857402,9.67903164 19.1433523,9.67340661 C19.1315778,9.67176598 19.1195679,9.66895346 19.106616,9.66707845 C19.0533956,9.6616878 18.9989977,9.65793778 18.9448352,9.65793778 C18.9410674,9.65793778 18.9372996,9.65700028 18.9347092,9.65700028 C18.9255252,9.65700028 18.9172831,9.65887529 18.9078635,9.65887529 C18.8591173,9.65981279 18.8103712,9.66332843 18.7625669,9.66895346 C18.7460827,9.67082847 18.7305405,9.67270348 18.7147627,9.67434411 C18.6549486,9.68254728 18.5970184,9.69356296 18.5381462,9.70926616 C18.3596457,9.75778202 17.2337739,10.0652835 15.6185565,10.6448957 C18.0358486,5.81182525 21.1782106,3.92673792 22.6215213,3.27939101 Z M11.1056499,80.838676 L3.04557613,78.6624935 L3.04557613,73.2270763 L11.1056499,75.4041963 L11.1056499,80.838676 Z M74.9534819,78.6624935 L66.8934081,80.838676 L66.8934081,75.4041963 L74.9534819,73.2270763 L74.9534819,78.6624935 Z" id="Fill-1" fill="#4A7CB2"></path>
                        <path d="M49.4109922,56.4921271 C49.4109922,55.6679375 48.7303194,55 47.8906504,55 L29.1093496,55 C28.2696806,55 27.5887726,55.6679375 27.5887726,56.4921271 C27.5887726,61.1261455 24.9905029,65.3525696 20.8102688,67.5227894 C20.3114066,67.7815171 20,68.2890481 20,68.8415852 L20,80.5069497 C20,81.3320625 20.6806728,82 21.5212825,82 L55.4794231,82 C56.3193272,82 57,81.3320625 57,80.5069497 L57,68.8425084 C57,68.2890481 56.6885934,67.7815171 56.190672,67.5227894 C52.0092618,65.3525696 49.4109922,61.1261455 49.4109922,56.4921271 Z M53.9579053,79.0148225 L23.0418595,79.0148225 L23.0418595,69.710781 C27.311235,67.1728954 30.0833185,62.8308401 30.5581901,57.9849467 L46.4425155,57.9849467 C46.9176223,62.8317633 49.6885298,67.1728954 53.9588461,69.7117042 L53.9588461,79.0148225 L53.9579053,79.0148225 Z" id="Fill-2" fill="#90B5DD"></path>
                    </g>
                </g>
            </g>
        </g>
    </g>
</svg>