<?xml version="1.0" encoding="UTF-8" standalone="no"?>
<svg width="152px" height="117px" viewBox="0 0 152 117" version="1.1" xmlns="http://www.w3.org/2000/svg" xmlns:xlink="http://www.w3.org/1999/xlink">
    <!-- Generator: Sketch 50.2 (55047) - http://www.bohemiancoding.com/sketch -->
    <title>Group 3</title>
    <desc>Created with Sketch.</desc>
    <defs>
        <polygon id="path-1" points="0.0138612552 0.0496094218 94.6263462 0.0496094218 94.6263462 83.3934381 0.0138612552 83.3934381"></polygon>
    </defs>
    <g id="design" stroke="none" stroke-width="1" fill="none" fill-rule="evenodd">
        <g id="home" transform="translate(-512.000000, -847.000000)">
            <g id="specialty-02" transform="translate(478.000000, 816.000000)">
                <g id="Group-3" transform="translate(30.000000, 27.000000)">
                    <g id="012-football-jersey" transform="translate(52.861761, 48.441435) rotate(-7.000000) translate(-52.861761, -48.441435) translate(5.361761, 6.441435)">
                        <g id="Group-4">
                            <mask id="mask-2" fill="white">
                                <use xlink:href="#path-1"></use>
                            </mask>
                            <g id="Clip-2"></g>
                            <path d="M39.920646,71.4871769 C38.8999955,71.4871769 38.0724786,72.3766738 38.0724786,73.4715538 C38.0724786,74.5664337 38.8999955,75.4559306 39.920646,75.4559306 C40.9403723,75.4559306 41.7688133,74.5664337 41.7688133,73.4715538 C41.7688133,72.3766738 40.9403723,71.4871769 39.920646,71.4871769 Z" id="Fill-1" fill="#90B5DD" mask="url(#mask-2)"></path>
                            <path d="M94.1851498,29.7192683 C91.8109478,26.7243475 75.3994527,6.01911115 73.0649863,3.07355173 C73.0324124,3.032872 72.9989143,2.99417666 72.9637992,2.9564735 C71.2184361,1.08247758 68.8973689,0.0496094218 66.4284484,0.0496094218 L54.7059848,0.0496094218 C53.6853344,0.0496094218 52.8578175,0.938114167 52.8578175,2.0339863 L52.8578175,6.00274004 C52.8578175,9.28539549 50.3706463,11.9558707 47.3133154,11.9558707 C44.2557535,11.9558707 41.7688133,9.28539549 41.7688133,6.00274004 L41.7688133,2.0339863 C41.7688133,0.938114167 40.9412964,0.0496094218 39.920646,0.0496094218 L28.1972584,0.0496094218 C25.7290309,0.0496094218 23.4079637,1.08247758 21.6619076,2.9564735 C21.6274855,2.99417666 21.5932944,3.032872 21.5616445,3.07355173 C19.226254,6.02010334 2.81475889,26.7243475 0.440325873,29.7192683 C-0.183199589,30.5070659 -0.139767657,31.6776002 0.541513036,32.4090912 L11.6305172,44.3153524 C12.3515335,45.0904996 13.5218855,45.0904996 14.2438258,44.3153524 L23.2871397,34.6055483 L23.2871397,81.4090613 C23.2871397,82.5049334 24.1146567,83.3934381 25.1353071,83.3934381 L69.4913237,83.3934381 C70.5119741,83.3934381 71.3394911,82.5049334 71.3394911,81.4090613 L71.3394911,34.6055483 C73.359076,36.7742242 78.3043098,42.0839206 80.3816499,44.3153524 C81.1035902,45.0904996 82.2741733,45.0904996 82.9961136,44.3153524 L94.0851178,32.4090912 C94.7663985,31.6776002 94.8098304,30.5070659 94.1851498,29.7192683 Z M34.3761439,4.01836317 L38.0724786,4.01836317 L38.0724786,6.00274004 C38.0724786,11.473419 42.2172249,15.9246244 47.3133154,15.9246244 C52.4082508,15.9246244 56.5541522,11.473419 56.5541522,6.00274004 L56.5541522,4.01836317 L60.2504869,4.01836317 L60.2504869,6.00274004 C60.2504869,13.6621867 54.4470104,19.8933782 47.3133154,19.8933782 C40.1796204,19.8933782 34.3761439,13.6621867 34.3761439,6.00274004 L34.3761439,4.01836317 Z M12.9371715,40.106241 L4.36144395,30.8974921 L7.05607196,27.4975103 L15.8683649,36.9592673 L12.9371715,40.106241 Z M76.1449572,34.1531104 L70.797978,28.4123081 C70.2691711,27.8445282 69.4742282,27.674864 68.7837066,27.9819463 C68.0934161,28.2892767 67.6431564,29.0130782 67.6431564,29.8152625 L67.6431564,71.4871769 L47.3133154,71.4871769 C46.292665,71.4871769 45.465148,72.3756816 45.465148,73.4715538 C45.465148,74.5674259 46.292665,75.4559306 47.3133154,75.4559306 L67.6431564,75.4559306 L67.6431564,79.4246844 L26.9834745,79.4246844 L26.9834745,75.6206339 L32.5279765,75.6206339 C33.548627,75.6206339 34.3761439,74.7321292 34.3761439,73.636257 C34.3761439,72.5403849 33.548627,71.6518802 32.5279765,71.6518802 L26.9834745,71.6518802 L26.9834745,29.8152625 C26.9834745,29.0130782 26.5332147,28.2892767 25.8426932,27.9819463 C25.1524026,27.674864 24.3574597,27.8445282 23.8286528,28.4123081 L18.4816736,34.1531104 L9.45915156,24.4658786 L24.3248857,5.71103664 C25.3672521,4.61913327 26.7397474,4.01836317 28.1972584,4.01836317 L30.6798092,4.01836317 L30.6798092,6.00274004 C30.6798092,15.8499622 38.1410918,23.8621319 47.3133154,23.8621319 C56.4846149,23.8621319 63.9468216,15.8499622 63.9468216,6.00274004 L63.9468216,4.01836317 L66.4284484,4.01836317 C67.8866524,4.01836317 69.2593787,4.61913327 70.300821,5.71103664 L85.1663241,24.4658786 L76.1449572,34.1531104 Z M81.6894593,40.106241 L78.7582659,36.9592673 L87.5705589,27.4975103 L90.2651869,30.8974921 L81.6894593,40.106241 Z" id="Fill-3" fill="#4A7CB2" mask="url(#mask-2)"></path>
                        </g>
                        <path d="M58.1895135,43.9151686 L52.6826195,43.9151686 L52.6826195,39.9121773 L58.1895135,39.9121773 C59.2032409,39.9121773 60.0251448,39.0160077 60.0251448,37.9106817 C60.0251448,36.8053558 59.2032409,35.9091861 58.1895135,35.9091861 L50.8469881,35.9091861 C49.8332607,35.9091861 49.0113568,36.8053558 49.0113568,37.9106817 L49.0113568,45.9166642 C49.0113568,47.0219901 49.8332607,47.9181598 50.8469881,47.9181598 L56.3538821,47.9181598 L56.3538821,51.921151 L50.8469881,51.921151 C49.8332607,51.921151 49.0113568,52.8173207 49.0113568,53.9226467 C49.0113568,55.0279726 49.8332607,55.9241423 50.8469881,55.9241423 L58.1895135,55.9241423 C59.2032409,55.9241423 60.0251448,55.0279726 60.0251448,53.9226467 L60.0251448,45.9166642 C60.0251448,44.8113382 59.2032409,43.9151686 58.1895135,43.9151686 Z" id="Fill-5" fill="#90B5DD"></path>
                        <path d="M43.3208996,35.9091861 L35.9783743,35.9091861 C34.9646469,35.9091861 34.1427429,36.8053558 34.1427429,37.9106817 L34.1427429,53.9226467 C34.1427429,55.0279726 34.9646469,55.9241423 35.9783743,55.9241423 L43.3208996,55.9241423 C44.334627,55.9241423 45.156531,55.0279726 45.156531,53.9226467 L45.156531,37.9106817 C45.156531,36.8053558 44.334627,35.9091861 43.3208996,35.9091861 Z M37.8140056,51.921151 L41.4852683,51.921151 L41.4852683,39.9121773 L37.8140056,39.9121773 L37.8140056,51.921151 Z" id="Fill-6" fill="#90B5DD"></path>
                    </g>
                    <g id="013-american-football-jersey" transform="translate(109.968789, 66.683728) rotate(-345.000000) translate(-109.968789, -66.683728) translate(67.968789, 17.183728)">
                        <path d="M22.3253764,2.89603031 L10.7174201,7.22140239 L3.95995518,25.943837 L1.66780093,29.5051668 L2.59943552,33.3378181 L4.24263825,36.1400915 L13.4696248,42.4512353 L15.5689644,43.0386212 L15.2274409,88.1970856 L17.4771443,90.5855225 L17.181058,96.2340707 L66.0705004,97.4654692 L66.4297596,90.6315685 L67.9176746,88.7036149 L68.4719259,42.1636891 L81.9471925,34.5852881 L81.9704728,29.409509 L80.0571691,26.8099213 L73.9443789,7.04240319 L60.7421698,1.44156344 L55.5215641,1.57165561 L53.7572329,4.24334672 L52.7773041,8.5238753 L50.4180668,11.3712807 L47.1287761,14.0252314 L43.5222228,15.09048 L39.881167,16.1659193 C38.902928,14.5756299 38.0384634,13.8913489 37.2877734,14.1130762 C36.5370834,14.3348035 35.5280434,13.7341941 34.2606534,12.3112479 L31.8776494,8.55523365 L29.7874056,4.56019505 L29.1135079,1.7878472 L22.3253764,2.89603031 Z" id="Path-2" fill="#FFFFFF"></path>
                        <path d="M82.1995318,27.3040815 C82.086676,27.2300708 81.9701797,27.1664803 81.8517418,27.1101039 L76.5635389,8.75143492 C75.9766888,6.69730316 74.5185438,5.06399054 72.662127,4.38346588 L61.4192653,0.257835217 C60.9527948,0.0865685081 60.4673936,0 59.9764103,0 L55.7337615,0 C54.1969814,0 52.9123672,1.26299178 52.7456319,2.93691679 C52.1349973,9.06137156 47.4469928,13.6796946 41.8410948,13.6796946 C36.2354395,13.6796946 31.5481632,9.06137156 30.9375285,2.93691679 C30.7707932,1.26299178 29.4852082,0 27.9484281,0 L23.706022,0 C23.214796,0 22.7293948,0.0865685081 22.2629243,0.257835217 L11.0200626,4.38346588 C9.16461665,5.06505929 7.70671426,6.69730316 7.12083505,8.74822868 L1.83069048,27.1101039 C1.7120099,27.1664803 1.59648442,27.2300708 1.48265785,27.3040815 C0.554570828,27.9052517 0,28.9731972 0,30.1597735 L0,33.0873388 C0,34.2896792 0.592432119,35.3990386 1.54721621,35.9836432 L13.9788254,43.5859079 L13.9788254,88.8123425 C13.9788254,90.0587687 14.6074199,91.1440813 15.5328372,91.7097156 L15.5328372,95.6528577 C15.5328372,97.4793464 16.8827378,98.9654391 18.541839,98.9654391 L65.1403506,98.9654391 C66.8004226,98.9654391 68.1505659,97.4793464 68.1505659,95.6528577 L68.1505659,91.7097156 C69.0747697,91.1440813 69.7033642,90.0587687 69.7033642,88.8123425 L69.7033642,43.5859079 L82.1352161,35.9825745 C83.0897575,35.3990386 83.6834031,34.2896792 83.6834031,33.0873388 L83.6834031,30.1587048 C83.6834031,28.9731972 83.1285896,27.9052517 82.1995318,27.3040815 Z M78.8966195,27.4566452 L69.7033642,33.079056 L69.7033642,26.0747553 C69.7033642,24.7869151 69.9176688,23.5239233 70.3414241,22.3237204 L74.2360403,11.2782201 L78.8966195,27.4566452 Z M28.0423533,3.28666425 C28.8148692,11.0401567 34.7479276,16.8859356 41.8410948,16.8859356 C48.9354755,16.8859356 54.8673204,11.0401567 55.640079,3.28666425 C55.6446904,3.24284563 55.6864349,3.20624104 55.7337615,3.20624104 L58.9609511,3.20624104 C58.6168017,7.73906431 56.8193612,11.9483244 53.8339013,15.1513592 C50.6067117,18.613298 46.3482873,20.5202099 41.8410948,20.5202099 C37.3142436,20.5202099 33.040529,18.597534 29.8094562,15.1086093 C26.8448686,11.9074449 25.0653879,7.71822375 24.7231801,3.20624104 L27.9484281,3.20624104 C27.9957547,3.20624104 28.0374992,3.24284563 28.0423533,3.28666425 Z M21.8440231,3.79164722 C22.3017564,8.94861875 24.3724778,13.7277882 27.7702859,17.3973311 C31.549134,21.4783416 36.5463389,23.7264509 41.8410948,23.7264509 C47.1123087,23.7264509 52.0925247,21.4959759 55.8665187,17.4475622 C59.2890823,13.7748131 61.3784916,8.9737343 61.83938,3.79164722 L71.7415637,7.42592144 C71.9597515,7.50527591 72.1645908,7.61375373 72.3587513,7.74013306 L67.62609,21.1630612 C67.0724899,22.7349209 66.7909573,24.3880053 66.7909573,26.0747553 L66.7909573,78.6592458 L16.8912324,78.6592458 L16.8912324,26.0747553 C16.8912324,24.3880053 16.6106705,22.7349209 16.0560997,21.1630612 L11.3244091,7.74013306 C11.5178415,7.61375373 11.7234089,7.50527591 11.9406259,7.42592144 L21.8440231,3.79164722 Z M66.7909573,88.8123425 C66.7909573,88.8719251 66.7472711,88.9200187 66.6943624,88.9200187 L16.9890407,88.9200187 C16.9349185,88.9200187 16.8912324,88.8719251 16.8912324,88.8123425 L16.8912324,81.8654869 L66.7909573,81.8654869 L66.7909573,88.8123425 Z M9.44736282,11.2771513 L13.3410082,22.3237204 C13.7647635,23.5239233 13.9788254,24.7858464 13.9788254,26.0747553 L13.9788254,33.0779873 L4.78654086,27.4566452 L9.44736282,11.2771513 Z M2.96264599,33.1803198 C2.93133762,33.1613495 2.91240697,33.1258137 2.91240697,33.0873388 L2.91240697,30.1587048 C2.91240697,30.134658 2.91240697,30.0980534 2.95973359,30.0667926 C2.97963504,30.0542348 2.99662408,30.050227 3.00997261,30.050227 C3.03084486,30.050227 3.04516419,30.0585098 3.05657112,30.0657238 L13.9788254,36.7464614 L13.9788254,39.9182353 L2.96264599,33.1803198 Z M65.1403506,95.7591981 L18.541839,95.7591981 C18.4886876,95.7591981 18.4452442,95.7124404 18.4452442,95.6528577 L18.4452442,92.1262598 L65.2381589,92.1262598 L65.2381589,95.6528577 C65.2381589,95.7124404 65.1944728,95.7591981 65.1403506,95.7591981 Z M80.7709961,33.0873388 C80.7709961,33.1258137 80.7510947,33.1613495 80.7207571,33.1803198 L69.7033642,39.9182353 L69.7033642,36.7464614 L80.626832,30.0657238 C80.6457626,30.053166 80.6751294,30.0366005 80.722456,30.0667926 C80.7709961,30.0980534 80.7709961,30.134658 80.7709961,30.1587048 L80.7709961,33.0873388 Z" id="Fill-1" fill="#4A7CB2"></path>
                        <path d="M30.9091448,44.2565174 C31.6608204,44.5348662 32.473999,44.0831808 32.7255147,43.247071 L33.929488,39.2332125 L34.5222611,39.2332125 L34.5222611,61.5649199 L32.8947076,61.5649199 C32.1009132,61.5649199 31.458842,62.2795346 31.458842,63.1600419 C31.458842,64.0408151 32.1009132,64.7551639 32.8947076,64.7551639 L39.0203492,64.7551639 C39.8141435,64.7551639 40.4562147,64.0408151 40.4562147,63.1600419 C40.4562147,62.2795346 39.8141435,61.5649199 39.0203492,61.5649199 L37.3939922,61.5649199 L37.3939922,37.6380905 C37.3939922,36.7575832 36.7507244,36.0429686 35.9581267,36.0429686 L32.8947076,36.0429686 C32.2768068,36.0429686 31.7280668,36.4834881 31.5325498,37.1345637 L30.0004813,42.2386881 C29.7499227,43.0747979 30.156512,43.9771052 30.9091448,44.2565174 Z" id="Fill-2" fill="#90B5DD"></path>
                        <path d="M48.0211629,64.7551639 L48.4087188,64.7551639 C51.6632685,64.7551639 54.3110828,61.8453956 54.3110828,58.2688663 L54.3110828,42.5305954 C54.3110828,38.9530027 51.6632685,36.0429686 48.4087188,36.0429686 L48.0211629,36.0429686 C44.7666133,36.0429686 42.1187989,38.9530027 42.1187989,42.5305954 L42.1187989,58.2688663 C42.1187989,61.8453956 44.7666133,64.7551639 48.0211629,64.7551639 Z M45.0218389,42.5305954 C45.0218389,40.7121564 46.3673979,39.2332125 48.0211629,39.2332125 L48.4087188,39.2332125 C50.0624839,39.2332125 51.4080429,40.7121564 51.4080429,42.5305954 L51.4080429,58.2688663 C51.4080429,60.0862419 50.0624839,61.5649199 48.4087188,61.5649199 L48.0211629,61.5649199 C46.3673979,61.5649199 45.0218389,60.0862419 45.0218389,58.2688663 L45.0218389,42.5305954 Z" id="Fill-3" fill="#90B5DD"></path>
                    </g>
                </g>
            </g>
        </g>
    </g>
</svg>