<?xml version="1.0" encoding="UTF-8"?>
<svg width="120px" height="58px" viewBox="0 0 120 58" version="1.1" xmlns="http://www.w3.org/2000/svg" xmlns:xlink="http://www.w3.org/1999/xlink">
    <!-- Generator: Sketch 53.2 (72643) - https://sketchapp.com -->
    <title>logo_long_white</title>
    <desc>Created with Sketch.</desc>
    <defs>
        <path d="M0.00228716645,27.3187111 L0.00228716645,27.3027351 L0.0349555273,27.2591655 C1.19134689,25.7077319 2.93931385,23.3630752 5.08696315,22.001308 C6.73856417,20.9542354 8.45321474,20.6087011 10.0265565,20.4839765 L10.2810801,51.0813094 C7.14213469,49.8598574 4.10218551,48.9643283 1.15212198,48.0991079 L0.555819568,47.923894 L0.252312579,28.7316978 L0.00228716645,27.3187111 Z M21.5801398,3.57832309 C20.9671029,3.69838195 20.3424015,3.66500065 19.7424015,3.75513015 C19.0430241,3.85997776 18.3303812,4.1159516 17.6091233,4.3216259 C17.5028463,4.37275997 17.3965693,4.42362852 17.2902922,4.47419359 C17.0093901,4.6078705 16.7442694,4.7278535 16.5205083,4.88444212 C16.0322363,5.22667626 15.6099873,5.57008633 15.1673825,5.91175147 C14.7996823,6.19602354 14.3984371,6.41854022 14.0049301,6.70080183 C13.8021347,6.84566906 13.0559085,7.27359451 12.8387421,7.26559058 C12.6658323,7.25902812 12.4768361,7.1022119 12.3185642,7.03677698 C12.1224015,6.95563767 11.8506861,6.94877175 11.6789199,6.81338784 C11.2626938,7.08449706 10.7563151,7.28505036 10.3125286,7.39589143 C10.1183863,7.43959058 9.92390089,7.48272073 9.73002541,7.52615435 C9.70360864,7.56788097 9.67719187,7.60900065 9.65047014,7.65099281 C9.56054638,7.71669326 9.47008895,7.78326619 9.38047014,7.84927011 C9.29401525,7.94182734 9.21388818,8.10467495 9.13860229,8.21578156 C9.02142313,8.38864356 8.87233799,8.53290386 8.88011436,8.74688555 C8.85110546,8.74631655 8.82152478,8.74601308 8.79251588,8.74544408 C8.79251588,8.73945062 8.79251588,8.73402616 8.79278272,8.72772923 C9.01654384,8.1495121 9.28166455,7.72898365 9.73147395,7.2221949 C9.81994917,7.12277175 9.89317662,7.00506475 10.0109276,6.91565598 C10.3016264,6.69423937 10.9889581,6.63195291 11.2819441,6.5862433 C11.4221093,6.56454545 11.5617027,6.54823414 11.6875349,6.5231223 C11.8601398,6.48856508 11.9647014,6.40454284 12.1362008,6.36972008 C12.2088564,6.36368869 12.281817,6.35769523 12.3544727,6.35200523 C12.4383736,6.320862 12.5219314,6.28971877 12.6055273,6.25827207 C12.7258704,6.2391537 12.8513977,6.24943362 13.0001779,6.208845 C13.1880305,6.11628777 13.3764549,6.02373054 13.5640407,5.93090778 C13.8168107,5.86805232 14.1916391,5.83288816 14.4622109,5.64178025 C14.6922618,5.4780981 14.803723,5.27466187 14.9631385,5.09041988 C15.0834816,4.96615043 15.2038628,4.84244997 15.3244727,4.71844604 C15.5327192,4.47559712 15.6932783,4.16450621 15.9035451,3.91308437 C16.0207243,3.7993983 16.1367598,3.68597776 16.2536722,3.57229169 C16.5104828,3.30031001 16.80831,3.0180484 17.1036213,2.76806802 C17.2233926,2.68522171 17.3431639,2.60180641 17.4629352,2.51865664 C17.6347014,2.35611249 17.8061626,2.19299935 17.9773571,2.03072073 C18.42831,1.61648921 19.1748412,1.36279137 19.720864,0.981979071 C19.9095934,0.850274689 20.1773062,0.79769915 20.3174714,0.645169392 C20.5084498,0.57457554 20.7643837,0.53030739 20.9576874,0.400310007 C21.1067726,0.300052322 21.3357179,0.181207325 21.5143456,0.126355788 C21.5393901,0.118617397 21.5608513,0.106440811 21.5801398,0.0929744931 L21.5801398,0.0778011772 C21.6226429,0.0449509483 21.6556925,0.00864879006 21.68554,7.58665794e-05 C21.6970521,0.000379332897 21.8693901,-0.000189666449 21.881169,7.58665794e-05 C21.9627446,0.122069326 21.9113215,0.390599084 21.9078526,0.52488293 C21.9029733,0.960850229 21.898094,1.39651406 21.8932147,1.83274689 C21.875413,2.55696926 21.8757179,3.28801962 21.8843329,4.02051145 C21.8892122,4.43963636 21.8935197,4.85872335 21.907014,5.27724133 C21.9068615,5.45970046 21.906709,7.75162982 21.9065947,9.98335906 C22.1622236,10.0553564 22.3482084,10.2755213 22.3482084,10.5358954 C22.3482084,10.7319346 22.2429225,10.9053277 22.0819822,11.0099097 C23.5275476,11.1588358 28.8932783,13.0759084 32.5954765,14.5648659 L32.0101906,16.3598692 L32.2848793,51.6537227 C28.5201271,53.3453578 25.2366328,55.4279712 22.2839771,57.9978378 C19.2594663,55.3879516 15.9899238,53.3509339 12.0871029,51.643898 L11.8137484,16.4854284 L11.8126429,16.3571001 L11.2465311,14.5682041 C15.2014994,12.9640052 19.6806861,11.3557096 21.4438628,11.051826 C21.2412198,10.9563859 21.1021982,10.7610674 21.1021982,10.5358954 C21.1021982,10.2499163 21.3267598,10.0124539 21.6211563,9.96655461 C21.617878,7.9722119 21.615324,6.04337999 21.6145997,6.01716808 C21.6091487,5.35181818 21.6036976,4.68616481 21.5988183,4.02051145 L21.5969504,3.79640157 C21.5975985,3.87109222 21.5982465,3.9458208 21.5988183,4.02051145 L21.5801398,4.02051145 L21.5801398,3.57832309 Z M21.6245068,3.57536429 C21.6260068,3.64918247 21.6277068,3.72277305 21.6294068,3.79640157 C21.6277068,3.72273512 21.6260068,3.64903074 21.6245068,3.57536429 Z M43.7630241,47.8804604 L43.3334562,48.0094336 C40.3340661,48.9076939 37.237014,49.8389562 34.0338755,51.11507 L33.7811055,20.559843 C35.2666963,20.7252701 36.8469377,21.1071825 38.3775476,22.0343859 C40.6385642,23.4036259 42.4755019,25.7570072 43.6906353,27.3143584 L43.7220839,27.3544539 L43.4587166,28.7050687 L43.7630241,47.7140092 L43.7630241,47.8804604 Z M15.1463787,18.1854088 C15.1463787,17.5807142 14.6539898,17.0905023 14.0464041,17.0905023 C13.4386658,17.0905023 12.9460864,17.5807142 12.9460864,18.1854088 C12.9460864,18.7900654 13.4386658,19.2801256 14.0464041,19.2801256 C14.6539898,19.2801256 15.1463787,18.7900654 15.1463787,18.1854088 Z M18.8385515,18.1854088 C18.8385515,17.5807142 18.3463532,17.0905023 17.7383863,17.0905023 C17.130648,17.0905023 16.6382592,17.5807142 16.6382592,18.1854088 C16.6382592,18.7900654 17.130648,19.2801256 17.7383863,19.2801256 C18.3463532,19.2801256 18.8385515,18.7900654 18.8385515,18.1854088 Z M23.0244091,18.1854088 C23.0244091,17.5807142 22.5320203,17.0905023 21.9244346,17.0905023 C21.3166963,17.0905023 20.8241169,17.5807142 20.8241169,18.1854088 C20.8241169,18.7900654 21.3166963,19.2801256 21.9244346,19.2801256 C22.5320203,19.2801256 23.0244091,18.7900654 23.0244091,18.1854088 Z M26.8686023,18.1854088 C26.8686023,17.5807142 26.3762135,17.0905023 25.7686277,17.0905023 C25.1606989,17.0905023 24.66831,17.5807142 24.66831,18.1854088 C24.66831,18.7900654 25.1606989,19.2801256 25.7686277,19.2801256 C26.3762135,19.2801256 26.8686023,18.7900654 26.8686023,18.1854088 Z M30.6154765,18.1854088 C30.6154765,17.5807142 30.1230877,17.0905023 29.5155019,17.0905023 C28.9073825,17.0905023 28.4151842,17.5807142 28.4151842,18.1854088 C28.4151842,18.7900654 28.9073825,19.2801256 29.5155019,19.2801256 C30.1230877,19.2801256 30.6154765,18.7900654 30.6154765,18.1854088 Z M18.9392249,29.2471733 C18.9392249,28.6035971 18.4315883,28.2820746 17.9241042,28.2820746 C17.4164676,28.2820746 16.9090216,28.6035971 16.9090216,29.2471733 L16.9090216,30.5399019 L18.9392249,30.5399019 L18.9392249,29.2471733 Z" id="path-1"></path>
        <path d="M54.886925,18.0802577 C53.51169,19.3944944 51.8883355,20.683847 50.6065311,20.683847 C48.603202,20.683847 47.3081321,19.8589876 47.1551588,18.0498731 C45.7733291,19.3745036 44.134803,20.683847 42.8426302,20.683847 C40.7293266,20.683847 39.4304447,19.7652165 39.4042567,17.740603 C37.9618933,19.1626082 36.1663914,20.683847 34.7730496,20.683847 C32.9653875,20.683847 31.7539517,20.0113277 31.4254003,18.5486579 C30.1698983,19.6844944 28.776709,20.683847 27.6479543,20.683847 C25.8452859,20.683847 24.6251207,20.0219111 24.265197,18.5880706 C23.4330877,19.7185206 22.1853621,20.8489706 20.4941169,20.8489706 C17.8320457,20.8489706 17.055629,18.9740419 17.055629,17.3464761 C17.055629,12.6029562 18.7744346,6.92183911 24.3206226,6.92183911 C24.9858831,6.92183911 25.6786658,7.19810726 26.178183,7.61150425 L26.3447649,6.89441334 L30.3373189,6.89441334 L28.3413469,16.2711812 C28.2858831,16.5748371 28.2296188,16.8776586 28.2296188,17.1261975 C28.2296188,17.7332819 28.5073571,18.1744081 29.6163659,18.1744081 C30.1416137,18.1744081 30.7413469,17.828153 31.3450445,17.369843 C31.3652859,17.035537 31.4174714,16.6692531 31.5014867,16.2711812 L34.5797459,1.93065271 L38.6834562,1.37872335 L35.4946125,16.2711812 C35.4115883,16.6848437 35.3561626,16.9330791 35.3561626,17.1533578 C35.3561626,17.7604421 35.6611944,18.1738012 36.742338,18.1738012 C37.5786023,18.1738012 38.6041677,17.2956455 39.5335578,16.4854284 C39.8984371,14.1955853 40.9321601,9.93609418 41.3173952,7.99743754 L40.4022618,7.99743754 L40.6240025,6.89441334 L41.5394409,6.89441334 L42.3709784,3.08852845 L46.4746887,2.53716808 C46.4746887,2.53716808 46.0590343,4.4120968 45.5322618,6.89441334 L47.1956417,6.89441334 L46.9739009,7.99743754 L45.3099492,7.99743754 C43.3969632,16.712535 43.4245235,16.9882341 43.4245235,17.1261975 C43.4245235,17.7604421 43.7017281,18.1744081 44.8113088,18.1744081 C45.5302414,18.1744081 46.3890343,17.5253695 47.2063914,16.8283453 C47.2322363,16.6500968 47.265629,16.4643754 47.306493,16.2711812 L49.30277,6.89441334 L53.2958958,6.89441334 L51.299352,16.2711812 C51.2436213,16.5742681 51.1881957,16.8776586 51.1881957,17.1261975 C51.1881957,17.7332819 51.4653621,18.1744081 52.5749428,18.1744081 C53.2086785,18.1744081 53.9511309,17.670085 54.6780305,17.0730909 C54.6441804,16.788174 54.6266455,16.4843283 54.6266455,16.1608712 C54.6266455,12.1344421 56.3736213,6.8118705 61.7529225,6.8118705 C63.2502541,6.8118705 64.8030496,7.19810726 64.8030496,8.71452845 C64.8030496,9.01822237 64.7751842,9.26645782 64.664028,9.6246998 L63.0836722,9.6246998 C63.1666963,9.32104382 63.222122,9.07277044 63.222122,8.85249182 C63.222122,8.19059385 62.8065057,7.9148947 62.1961372,7.9148947 C59.866925,7.9148947 58.3695934,12.4101413 58.3695934,15.3883976 C58.3695934,16.7399608 58.6746252,18.3397973 60.3661372,18.3397973 C61.863507,18.3397973 63.1666963,17.65017 64.2484117,16.712535 C64.2484117,19.1120052 62.1961372,20.683847 58.7027954,20.683847 C56.924028,20.683847 55.4603558,19.9260916 54.886925,18.0802577 Z M3.44908513,27.9636625 L2.88930114,27.9636625 L2.47852605,26.8766462 L0.936937738,26.8766462 L0.53252859,27.9636625 L0,27.9636625 L1.43069886,24.3837462 L2.05200762,24.3837462 L3.44908513,27.9636625 Z M10.9137103,24.7585651 L9.69930114,24.7585651 L9.69930114,27.9636625 L9.15587039,27.9636625 L9.15587039,24.7585651 L7.93570521,24.7585651 L7.93570521,24.3837462 L10.9137103,24.3837462 L10.9137103,24.7585651 Z M19.215629,27.9636625 L18.6776493,27.9636625 L18.6776493,26.3032466 L16.7643964,26.3032466 L16.7643964,27.9636625 L16.2266836,27.9636625 L16.2266836,24.3837462 L16.7643964,24.3837462 L16.7643964,25.9281622 L18.6776493,25.9281622 L18.6776493,24.3837462 L19.215629,24.3837462 L19.215629,27.9636625 Z M27.1676874,27.9636625 L24.8609276,27.9636625 L24.8609276,24.3837462 L25.3986404,24.3837462 L25.3986404,27.5882747 L27.1676874,27.5882747 L27.1676874,27.9636625 Z M34.9316264,27.9636625 L32.4582465,27.9636625 L32.4582465,24.3837462 L34.8762008,24.3837462 L34.8762008,24.7591341 L32.9962262,24.7591341 L32.9962262,25.9281622 L34.6932274,25.9281622 L34.6932274,26.3032466 L32.9962262,26.3032466 L32.9962262,27.5882747 L34.9316264,27.5882747 L34.9316264,27.9636625 Z M43.0336086,24.7585651 L41.8197713,24.7585651 L41.8197713,27.9636625 L41.2760356,27.9636625 L41.2760356,24.7585651 L40.0558704,24.7585651 L40.0558704,24.3837462 L43.0336086,24.3837462 L43.0336086,24.7585651 Z M48.3463151,27.9636625 L48.3463151,24.3837462 L48.8842948,24.3837462 L48.8842948,27.9636625 L48.3463151,27.9636625 Z M56.9420584,27.913932 C56.6206353,27.9836534 56.2840025,28.0187796 55.9326938,28.0187796 C54.9236722,28.0187796 54.4192757,27.6953983 54.4192757,27.0480288 L54.4192757,25.3490726 C54.4192757,24.6648698 54.9236722,24.3229012 55.9326938,24.3229012 C56.2693266,24.3229012 56.5987929,24.3580275 56.920216,24.4277489 L56.920216,24.825138 C56.5652097,24.7368672 56.2397459,24.6928646 55.9442058,24.6928646 C55.8031639,24.6928646 55.6799238,24.7011341 55.5728081,24.7174075 C55.4656544,24.7339843 55.3599492,24.763724 55.2568361,24.8059817 C55.1531512,24.8479738 55.073291,24.9142433 55.0178653,25.004259 C54.9624396,25.0945402 54.9348793,25.2073538 54.9348793,25.3433447 L54.9348793,27.020034 C54.9348793,27.4319895 55.2786785,27.6382708 55.966582,27.6382708 C56.2621601,27.6382708 56.5875858,27.5936991 56.9420584,27.5054284 L56.9420584,27.913932 Z M64.7562389,26.7500628 L64.7562389,27.0088816 C64.7562389,27.3917044 64.646798,27.6556821 64.4287929,27.8008149 C64.2104828,27.9459477 63.8704193,28.0187796 63.4082592,28.0187796 C63.1126811,28.0187796 62.7467344,27.9888123 62.3104193,27.9308123 L62.3104193,27.4836926 C62.7467344,27.5759843 63.1238882,27.6216939 63.4418806,27.6216939 C63.6966328,27.6216939 63.8916518,27.5931302 64.0269377,27.5356991 C64.1616518,27.4794061 64.2294282,27.3642786 64.2294282,27.1914545 L64.2294282,26.7283649 C64.2294282,26.5772387 64.1857814,26.4701151 64.0987548,26.4052492 C64.0117281,26.3409523 63.8557433,26.308671 63.6302668,26.308671 L63.2086277,26.308671 C62.8466836,26.308671 62.5942186,26.2361426 62.4517662,26.0910098 C62.3092757,25.9455736 62.2380686,25.7318954 62.2380686,25.4481923 L62.2380686,25.1616821 C62.2380686,24.8785481 62.3388564,24.6688528 62.5402033,24.5325965 C62.7418551,24.3966056 63.1126811,24.3283257 63.6521093,24.3283257 C63.911474,24.3283257 64.2199746,24.349189 64.5784498,24.3891707 L64.5784498,24.7922878 C64.1682465,24.7296978 63.8468615,24.6982891 63.6136086,24.6982891 C63.2698094,24.6982891 63.0414358,24.7325808 62.9285642,24.8005572 C62.8156925,24.8679647 62.759695,24.9831302 62.759695,25.1453708 L62.759695,25.5533434 C62.759695,25.6781818 62.8039136,25.769032 62.8926557,25.8261596 C62.9813977,25.8835906 63.138526,25.9115853 63.3640025,25.9115853 L63.7963151,25.9115853 C64.17,25.9115853 64.4236086,25.9789928 64.5566074,26.1127077 C64.6896061,26.247257 64.7562389,26.4592283 64.7562389,26.7500628 Z M10.4286023,2.59258862 L9.0978526,8.71452845 L9.29199492,8.71452845 C11.5930368,8.71452845 13.2291233,6.2599032 13.2291233,4.16412688 C13.2291233,2.61971092 12.342122,1.26845128 10.1786912,1.26845128 C5.68696315,1.26845128 2.69279543,3.77819359 2.69279543,7.96974624 C2.69279543,9.37703336 3.05302414,9.59727404 3.0805845,9.84554742 C1.16733164,9.84554742 0.113748412,9.15592021 0.113748412,7.17011249 C0.113748412,3.50249444 5.2158831,0 9.84609911,0 C14.1996823,0 16.1405337,2.15119686 16.1405337,4.41266579 C16.1405337,6.03966252 15.1426811,7.74920209 13.3681449,8.76994899 C15.6418933,9.21103728 16.5564168,11.1139987 16.5564168,13.2648921 C16.5564168,16.8225415 14.0890978,21.152361 11.0389708,21.152361 C9.37501906,21.152361 7.7670648,20.9872374 7.7670648,19.2497031 C7.7670648,18.781189 7.8776493,18.2018339 8.1272554,17.5121687 C8.65406607,18.3669575 9.5970648,18.5054899 9.98481576,18.5054899 C11.5100127,18.5054899 12.7296061,15.7746344 12.7296061,13.4305847 C12.7296061,11.6385023 12.0368234,10.0386658 10.2068615,10.0386658 C9.84609911,10.0386658 9.31928844,10.0660916 8.82064803,10.1212466 L6.54689962,20.683847 L2.55381194,20.683847 L6.32489199,3.14368345 L10.4286023,2.59258862 Z M52.02,1.04790713 C53.2404701,1.04790713 54.2383227,2.04065925 54.2383227,3.25422106 C54.2383227,4.4672518 53.2404701,5.43257816 52.02,5.43257816 C50.7998348,5.43257816 49.8298475,4.4672518 49.8298475,3.25422106 C49.8298475,2.04065925 50.7998348,1.04790713 52.02,1.04790713 Z M23.2589581,34.4311746 L21.6268361,34.4311746 L21.6268361,32.0689928 L23.2223634,32.0689928 L23.2223634,32.3165075 L21.9818043,32.3165075 L21.9818043,33.0881086 L23.101601,33.0881086 L23.101601,33.3356233 L21.9818043,33.3356233 L21.9818043,34.1836599 L23.2589581,34.1836599 L23.2589581,34.4311746 Z M26.0852859,33.6304408 L26.0852859,33.801482 C26.0852859,34.0538522 26.0133164,34.227966 25.8693774,34.3237855 C25.7254384,34.4196429 25.5009911,34.4675526 25.1960356,34.4675526 C25.000864,34.4675526 24.7593393,34.4481687 24.4714612,34.409325 L24.4714612,34.1145075 C24.7593393,34.1751629 25.008183,34.2055095 25.2179924,34.2055095 C25.3863278,34.2055095 25.5150191,34.1866946 25.6040661,34.1491027 C25.6931131,34.1114729 25.7376366,34.0356442 25.7376366,33.9216167 L25.7376366,33.6158744 C25.7376366,33.5163754 25.7089708,33.4454022 25.6516391,33.4029549 C25.5943075,33.3604696 25.4912325,33.3392649 25.3424142,33.3392649 L25.0642948,33.3392649 C24.8252097,33.3392649 24.6587039,33.2913172 24.5647776,33.1954977 C24.4708513,33.0996403 24.4238882,32.9583009 24.4238882,32.7714415 L24.4238882,32.5821923 C24.4238882,32.3953329 24.4903685,32.2570281 24.6233291,32.167278 C24.7562897,32.0774899 25.000864,32.0325768 25.3570521,32.0325768 C25.5278272,32.0325768 25.7315375,32.0459294 25.968183,32.0726344 L25.968183,32.3383192 C25.6973825,32.2970857 25.4851334,32.27645 25.3314358,32.27645 C25.1045489,32.27645 24.9539009,32.2989065 24.8794917,32.3437816 C24.8050826,32.3886946 24.767878,32.4645232 24.767878,32.5712675 L24.767878,32.8405939 C24.767878,32.9230988 24.7971537,32.9831851 24.8557052,33.020777 C24.9142567,33.0584068 25.0179416,33.0771838 25.1667598,33.0771838 L25.4521982,33.0771838 C25.6986023,33.0771838 25.8657179,33.1214899 25.9535451,33.2100262 C26.0413723,33.2986004 26.0852859,33.438726 26.0852859,33.6304408 Z M28.9189327,32.3165075 L28.1175095,32.3165075 L28.1175095,34.4311746 L27.7588818,34.4311746 L27.7588818,32.3165075 L26.9537992,32.3165075 L26.9537992,32.0689928 L28.9189327,32.0689928 L28.9189327,32.3165075 Z M29.6593647,34.4311746 L29.6593647,34.0380719 L30.0838628,34.0380719 L30.0838628,34.4311746 L29.6593647,34.4311746 Z M34.5654892,34.4311746 L32.9699619,34.4311746 L32.9699619,34.0089771 C32.9699619,33.9386109 32.9821601,33.873707 33.0065565,33.8142276 C33.030953,33.7547861 33.0596188,33.7056625 33.092554,33.6668188 C33.1254892,33.6280131 33.1736722,33.5885625 33.2371029,33.5485428 C33.3005337,33.5084853 33.3535959,33.4775697 33.3962897,33.4557201 C33.4389835,33.4338705 33.5005845,33.4059895 33.5810928,33.3720013 L33.9763151,33.1973185 C34.1324524,33.1269523 34.210521,33.0213839 34.210521,32.8806514 L34.210521,32.5567011 C34.210521,32.4426736 34.1745362,32.3674519 34.1025667,32.331036 C34.0305972,32.2946579 33.9128844,32.27645 33.7494282,32.27645 C33.5810928,32.27645 33.3493266,32.3019411 33.0541296,32.3528855 L33.0541296,32.0980876 C33.3078526,32.0519987 33.5627954,32.0289353 33.8189581,32.0289353 C34.08,32.0289353 34.2696823,32.0677789 34.3880051,32.1454284 C34.5063278,32.2230778 34.5654892,32.3553133 34.5654892,32.5421727 L34.5654892,32.9279542 C34.5654892,33.0590137 34.5313342,33.1584748 34.4630241,33.2264133 C34.3947141,33.2943519 34.2727319,33.3683597 34.0970775,33.4484369 L33.5481576,33.6995932 C33.387141,33.7723872 33.3066328,33.8791315 33.3066328,34.0199019 L33.3066328,34.1763767 L34.5654892,34.1763767 L34.5654892,34.4311746 Z M39.9619822,34.4311746 L39.6436086,34.4311746 L39.6436086,32.3965468 L38.9226938,32.866085 L38.9226938,32.5676259 L39.6472681,32.0689928 L39.9619822,32.0689928 L39.9619822,34.4311746 Z M43.2933164,33.9143336 L43.0371537,33.9143336 L43.0371537,34.4311746 L42.733418,34.4311746 L42.733418,33.9143336 L41.5514104,33.9143336 L41.5514104,33.6267992 L42.6272935,32.0689928 L43.0371537,32.0689928 L43.0371537,33.6631772 L43.2933164,33.6631772 L43.2933164,33.9143336 Z M37.4906226,32.6659111 L37.4906226,33.8633891 C37.4906226,33.9677057 37.474155,34.0581007 37.4412198,34.1345363 C37.4082846,34.2109719 37.3668107,34.2704133 37.316798,34.3128986 C37.2667853,34.355346 37.2027446,34.3887273 37.124676,34.4129666 C37.0466074,34.437244 36.9721982,34.4524173 36.9014485,34.4584866 C36.8306989,34.4645559 36.7465311,34.4675526 36.6489454,34.4675526 C36.5489199,34.4675526 36.4641423,34.4645559 36.3946125,34.4584866 C36.3250826,34.4524173 36.2506734,34.4378509 36.171385,34.4147874 C36.0920966,34.3917619 36.0286658,34.3589876 35.9810928,34.3165402 C35.9335197,34.2740549 35.8938755,34.2146135 35.8621601,34.1381779 C35.8304447,34.0617423 35.814587,33.9701334 35.814587,33.8633891 L35.814587,32.6695526 C35.814587,32.5554872 35.8310546,32.457847 35.8639898,32.3765559 C35.896925,32.2952649 35.9377891,32.2321818 35.986582,32.1872688 C36.0353748,32.1423937 36.1000254,32.1077986 36.1805337,32.0835592 C36.2610419,32.0592819 36.3348412,32.0441086 36.4019314,32.0380392 C36.4690216,32.0319699 36.5513596,32.0289353 36.6489454,32.0289353 C36.7489708,32.0289353 36.8331385,32.0319699 36.9014485,32.0380392 C36.9697586,32.0441086 37.0441677,32.0592819 37.124676,32.0835592 C37.2051842,32.1077986 37.2698348,32.1417868 37.3186277,32.185448 C37.3674206,32.2291472 37.4082846,32.2916233 37.4412198,32.3729143 C37.474155,32.4542054 37.4906226,32.5518457 37.4906226,32.6659111 Z M2.34556544,26.5072518 L1.73546379,24.8914075 L1.68606099,24.8914075 L1.07599746,26.5072518 L2.34556544,26.5072518 Z M20.7985769,16.6022629 C20.7985769,18.2572544 21.7142821,18.5600759 22.4071029,18.5600759 C23.0447649,18.5600759 23.6548285,17.9535605 24.1816391,17.1813525 C24.2095044,16.9056534 24.265197,16.6022629 24.3482211,16.2711812 L25.9010165,8.9627639 C25.45723,8.57683061 24.9304574,8.46625507 24.5420966,8.46625507 C22.4625286,8.46625507 20.7985769,12.851533 20.7985769,16.6022629 Z M37.1576112,33.8815592 L37.1576112,32.6440615 C37.1576112,32.4717685 37.1191868,32.3619895 37.042338,32.3146867 C36.9654892,32.267346 36.8355781,32.2437135 36.6526048,32.2437135 C36.4647522,32.2437135 36.3336213,32.267346 36.2592122,32.3146867 C36.184803,32.3619895 36.1475985,32.4717685 36.1475985,32.6440615 L36.1475985,33.8815592 C36.1475985,34.0392858 36.1866328,34.1406056 36.2647014,34.1854807 C36.34277,34.2303937 36.473291,34.2528123 36.6562643,34.2528123 C36.8392376,34.2528123 36.9685388,34.2303937 37.0441677,34.1854807 C37.1197967,34.1406056 37.1576112,34.0392858 37.1576112,33.8815592 Z M42.733418,33.6631772 L42.733418,32.3565271 L41.8441677,33.6631772 L42.733418,33.6631772 Z" id="path-3"></path>
    </defs>
    <g id="Symbols" stroke="none" stroke-width="1" fill="none" fill-rule="evenodd">
        <g id="footer" transform="translate(-153.000000, -465.000000)">
            <g id="logo_long_white" transform="translate(153.000000, 465.000000)">
                <g id="Group-3">
                    <mask id="mask-2" fill="white">
                        <use xlink:href="#path-1"></use>
                    </mask>
                    <g id="Clip-2"></g>
                    <polygon id="Fill-1" fill="#FFFFFF" mask="url(#mask-2)" points="0.00228716645 57.9992413 43.7649301 57.9992413 43.7649301 -0.00227599738 0.00228716645 -0.00227599738"></polygon>
                </g>
                <g id="Group-6" transform="translate(55.196950, 13.504251)">
                    <mask id="mask-4" fill="white">
                        <use xlink:href="#path-3"></use>
                    </mask>
                    <g id="Clip-5"></g>
                    <polygon id="Fill-4" fill="#FFFFFF" mask="url(#mask-4)" points="-0.000762388818 34.4714977 64.8038119 34.4714977 64.8038119 -0.000758665795 -0.000762388818 -0.000758665795"></polygon>
                </g>
            </g>
        </g>
    </g>
</svg>