<?xml version="1.0" encoding="UTF-8" standalone="no"?>
<svg width="85px" height="86px" viewBox="0 0 85 86" version="1.1" xmlns="http://www.w3.org/2000/svg" xmlns:xlink="http://www.w3.org/1999/xlink">
    <!-- Generator: Sketch 50.2 (55047) - http://www.bohemiancoding.com/sketch -->
    <title>logo</title>
    <desc>Created with Sketch.</desc>
    <defs></defs>
    <g id="Symbols" stroke="none" stroke-width="1" fill="none" fill-rule="evenodd">
        <g id="footer" transform="translate(-120.000000, -44.000000)" fill="#FFFFFF">
            <g id="footer-top">
                <g>
                    <g id="logo" transform="translate(120.000000, 44.000000)">
                        <path d="M45.0420559,16.5944416 L45.0420559,17.1871003 C45.1208795,16.9884942 45.2014811,16.7916936 45.2862313,16.5944416 L45.0420559,16.5944416" id="Fill-1"></path>
                        <path d="M30.3910415,68.7484011 L32.003566,61.0453941 C31.9796825,61.0442277 31.9584955,61.0438389 31.9403902,61.0438389 C31.3174919,61.0438389 30.3787145,62.2538004 29.6329315,64.1655552 L29.6652899,68.4120847 C29.9122149,68.5213389 30.1479686,68.6372028 30.3910415,68.7484011" id="Fill-2"></path>
                        <path d="M42.6714214,73.7204727 C43.0791317,74.2905794 43.8783545,74.6749874 45.4195153,74.6749874 C45.8197193,74.6749874 46.2989369,74.501511 46.8200318,74.2129092 C45.1172882,73.7677844 44.7356523,72.4568545 44.6594042,71.7116943 C44.002801,72.3988976 43.3390865,73.077427 42.6714214,73.7204727" id="Fill-3"></path>
                        <path d="M55.8098726,57.8659273 L55.58648,59.1114406 C55.4168797,60.0605111 55.1410652,61.4319369 54.8488045,62.8839014 C54.5688785,64.2761236 54.2231681,65.9961722 53.9319354,67.5630838 L55.909577,67.5630838 C56.0171618,66.9826762 56.1466747,66.2948836 56.3025699,65.4777755 L56.2343871,55.7099112 L55.8098726,57.8659273" id="Fill-4"></path>
                        <path d="M35.0961656,71.0896749 C35.0961656,70.6351416 35.1756503,70.170202 35.2526839,69.7208719 L35.2624882,69.6699553 L37.3374937,59.265863 L35.31256,59.265863 L35.1742497,59.9025069 L35.1980601,59.9248062 L33.1888833,70.010019 C33.8384167,70.3690371 34.4746444,70.7377183 35.0972161,71.1190356 C35.0968659,71.109001 35.0961656,71.0997096 35.0961656,71.0896749" id="Fill-5"></path>
                        <polyline id="Fill-6" points="45.3570939 67.5630838 48.5980077 52.1539595 46.4504539 52.4479079 43.26408 67.5630838 45.3570939 67.5630838"></polyline>
                        <path d="M27.592214,62.387788 C27.6773329,62.1940511 27.7651726,62.0086879 27.8549556,61.8263697 L27.8444615,60.4511803 C26.3092107,61.6558507 24.8746257,63.7835309 24.2990038,67.5201028 C24.900278,67.7244971 25.5038842,67.935362 26.1105998,68.1557425 C26.3321423,66.1296885 26.8510182,64.0781328 27.592214,62.387788" id="Fill-7"></path>
                        <path d="M22.9308176,54.6323937 C22.9308176,56.5945492 22.0960241,58.5161422 20.6543853,60.0328702 C21.6107766,60.7175017 22.3445562,61.6644615 22.8259919,62.8218148 C22.98952,62.4609238 23.16334,62.1136799 23.3482143,61.7823577 C24.4849057,59.7443848 26.0107863,58.2720101 27.8549556,57.3951814 L27.6201461,27.262297 C25.552984,27.4177227 23.2555866,27.8654247 21.0085054,29.2919299 C17.9880015,31.2101112 15.6250404,34.5627585 14.2238071,36.4309003 L14.6023231,38.463945 L14.7311634,47.3429257 C20.3780267,47.9001839 22.9308176,51.2793674 22.9308176,54.6323937" id="Fill-8"></path>
                        <path d="M20.1503934,66.0126946 C20.1503934,64.3305636 19.6563002,62.2295151 17.3044745,61.7739829 L16.5944416,61.6364975 C17.561649,62.5436134 18.1309774,63.9759017 18.2087446,65.7930053 C18.8482445,65.9829001 19.4931699,66.1781795 20.1424359,66.3777666 C20.1467763,66.2564349 20.1503934,66.1347442 20.1503934,66.0126946" id="Fill-9"></path>
                        <path d="M19.5577348,54.2628251 C19.5577348,53.1866263 19.1580219,52.2685492 18.4338948,51.5613008 C18.7049035,52.2543444 18.8498616,53.0531762 18.8498616,53.9379843 C18.8498616,55.3465 18.4637489,56.8196849 17.7797589,58.0805458 C18.8936475,57.0619137 19.5577348,55.6653599 19.5577348,54.2628251" id="Fill-10"></path>
                        <path d="M16.001783,53.8882333 C16.001783,53.0988697 15.7723791,52.5228379 15.3062948,52.1539595 L14.8164658,54.3054475 L14.8551465,56.8952285 C15.5663369,56.0513509 16.001783,54.9261809 16.001783,53.8882333" id="Fill-11"></path>
                        <path d="M67.5630838,59.265863 L65.5456125,59.265863 L64.0071321,66.9704252 C64.7339011,66.7158741 65.4560881,66.4699202 66.1715785,66.2333111 L67.5630838,59.265863" id="Fill-12"></path>
                        <path d="M62.113149,52.3690826 C62.108682,52.3891456 61.7609988,53.9945657 61.2759548,56.3025699 L64.9966111,56.3025699 C64.0909226,55.495128 63.5183994,54.3110314 63.5183994,52.9929289 C63.5183994,50.5459978 65.4596922,48.5555949 67.845826,48.5555949 C69.0307033,48.5555949 70.1053941,49.0397572 70.8923343,49.8214578 L70.7300325,38.3825089 L71.1190356,36.3523586 C69.6773046,34.4868764 67.2483619,31.1390021 64.1408043,29.2235517 C62.0952809,27.9622314 60.0076931,27.4670912 58.0805458,27.262297 L58.2603434,50.8446718 L62.5721354,50.2522449 L62.113149,52.3690826" id="Fill-13"></path>
                        <path d="M58.6732044,68.7484011 C59.3419401,68.4738217 60.0077069,68.2143916 60.6708759,67.9640509 L62.2291562,60.4511803 L60.401823,60.4511803 C59.5055984,64.655464 58.9804814,67.2035607 58.6732044,68.7484011" id="Fill-14"></path>
                        <path d="M70.3197174,64.9102095 C70.5331394,64.1246097 70.8001198,63.3631462 71.1190356,62.6355515 L71.041944,57.4878871 L69.3410597,65.1924493 C69.6697134,65.0978503 69.9947154,65.0044192 70.3197174,64.9102095" id="Fill-15"></path>
                        <path d="M58.6732044,53.9319354 L58.0805458,54.0031256 L58.1003325,56.3025699 C58.313275,55.4164609 58.507373,54.6132677 58.6732044,53.9319354" id="Fill-16"></path>
                        <path d="M3.07031583,83.3442285 L2.27209387,81.2077397 L2.20704799,81.2077397 L1.40882604,83.3442285 L3.07031583,83.3442285 Z M4.5148607,85.2699392 L3.78206061,85.2699392 L3.24439815,83.8326444 L1.22647199,83.8326444 L0.697081257,85.2699392 L0,85.2699392 L1.8727949,80.5364985 L2.68643235,80.5364985 L4.5148607,85.2699392 Z" id="Fill-19"></path>
                        <polyline id="Fill-21" points="14.2238071 81.0979862 12.5316318 81.0979862 12.5316318 85.3428428 11.7749746 85.3428428 11.7749746 81.0979862 10.0751967 81.0979862 10.0751967 80.6015737 14.2238071 80.6015737 14.2238071 81.0979862"></polyline>
                        <polyline id="Fill-22" points="25.4843211 85.3428428 24.7376031 85.3428428 24.7376031 83.1434176 22.0824287 83.1434176 22.0824287 85.3428428 21.3357107 85.3428428 21.3357107 80.6015737 22.0824287 80.6015737 22.0824287 82.6470051 24.7376031 82.6470051 24.7376031 80.6015737 25.4843211 80.6015737 25.4843211 85.3428428"></polyline>
                        <polyline id="Fill-23" points="35.5595178 85.3428428 32.5962247 85.3428428 32.5962247 80.6015737 33.2872416 80.6015737 33.2872416 84.8452952 35.5595178 84.8452952 35.5595178 85.3428428"></polyline>
                        <polyline id="Fill-24" points="45.6347145 85.3428428 42.6714214 85.3428428 42.6714214 80.6015737 45.5679535 80.6015737 45.5679535 81.0987429 43.3159746 81.0987429 43.3159746 82.6470051 45.3490876 82.6470051 45.3490876 83.1434176 43.3159746 83.1434176 43.3159746 84.8452952 45.6347145 84.8452952 45.6347145 85.3428428"></polyline>
                        <polyline id="Fill-25" points="56.3025699 81.0979862 54.6110317 81.0979862 54.6110317 85.3428428 53.8539013 85.3428428 53.8539013 81.0979862 52.1539595 81.0979862 52.1539595 80.6015737 56.3025699 80.6015737 56.3025699 81.0979862"></polyline>
                        <polygon id="Fill-26" points="62.9420428 85.2724531 63.6501779 85.2724531 63.6501779 80.7022345 62.9420428 80.7022345"></polygon>
                        <path d="M74.2563252,85.2089931 C73.8332589,85.2979831 73.3901546,85.3428428 72.9277685,85.3428428 C71.5992117,85.3428428 70.9353115,84.9296229 70.9353115,84.103548 L70.9353115,81.9345997 C70.9353115,81.0611121 71.5992117,80.6245506 72.9277685,80.6245506 C73.3708727,80.6245506 73.8041471,80.6694103 74.2272134,80.7584003 L74.2272134,81.2657161 C73.7599123,81.1530198 73.3315529,81.096854 72.9425134,81.096854 C72.7572565,81.096854 72.5946841,81.1074306 72.453662,81.1282193 C72.3126399,81.1493726 72.1738862,81.1873028 72.0377791,81.2412803 C71.9012939,81.2948931 71.7965671,81.3795065 71.7232204,81.4943911 C71.6502519,81.6096405 71.6139567,81.7537021 71.6139567,81.9273055 L71.6139567,84.0678061 C71.6139567,84.5937222 72.0668909,84.857045 72.9720033,84.857045 C73.3610428,84.857045 73.7894021,84.8001498 74.2563252,84.6874535 L74.2563252,85.2089931" id="Fill-28"></path>
                        <path d="M84.5418646,83.7231523 L84.5418646,84.0535823 C84.5418646,84.5422977 84.3978179,84.8792925 84.1104807,85.0645667 C83.8231434,85.2494762 83.3758803,85.3428428 82.767179,85.3428428 C82.3781395,85.3428428 81.8968496,85.3045479 81.3221751,85.2305111 L81.3221751,84.6597353 C81.8968496,84.7775376 82.3928844,84.8358917 82.8117919,84.8358917 C83.1467666,84.8358917 83.4038579,84.7994204 83.5819313,84.7261131 C83.7588706,84.6542646 83.8484745,84.5072853 83.8484745,84.2866339 L83.8484745,83.6954341 C83.8484745,83.5021362 83.7906289,83.3653689 83.6764502,83.2829437 C83.5618934,83.2008833 83.3565984,83.1596707 83.0598093,83.1596707 L82.5044166,83.1596707 C82.0280417,83.1596707 81.6957135,83.0670336 81.5081881,82.8817594 C81.3206628,82.6957558 81.2269001,82.4229505 81.2269001,82.0611552 L81.2269001,81.6949833 C81.2269001,81.3339174 81.3599826,81.0662181 81.6250134,80.89225 C81.8900442,80.7186466 82.3781395,80.6314802 83.088543,80.6314802 C83.429567,80.6314802 83.835998,80.6581042 84.307836,80.709164 L84.307836,81.2234094 C83.7679444,81.1439019 83.3448781,81.1037835 83.0375029,81.1037835 C82.5849467,81.1037835 82.2843768,81.1471844 82.1357932,81.2343508 C81.9875877,81.320423 81.913863,81.4670377 81.913863,81.6745594 L81.913863,82.1950048 C81.913863,82.3547491 81.9720866,82.4707279 82.0885338,82.5436705 C82.2053591,82.6169778 82.4121663,82.6523549 82.7089554,82.6523549 L83.2783369,82.6523549 C83.7702129,82.6523549 84.1040534,82.7387919 84.2787242,82.9094776 C84.4537731,83.0812574 84.5418646,83.3518745 84.5418646,83.7231523" id="Fill-29"></path>
                        <path d="M52.8766859,25.7458702 C52.0836116,25.7458702 51.4410642,25.0988832 51.4410642,24.3007064 C51.4410642,23.5025296 52.0836116,22.8555427 52.8766859,22.8555427 C53.6693857,22.8555427 54.3123076,23.5025296 54.3123076,24.3007064 C54.3123076,25.0988832 53.6693857,25.7458702 52.8766859,25.7458702 Z M47.9883078,25.7458702 C47.1948591,25.7458702 46.5526861,25.0988832 46.5526861,24.3007064 C46.5526861,23.5025296 47.1948591,22.8555427 47.9883078,22.8555427 C48.7810077,22.8555427 49.4231807,23.5025296 49.4231807,24.3007064 C49.4231807,25.0988832 48.7810077,25.7458702 47.9883078,25.7458702 Z M42.972244,25.7458702 C42.1795442,25.7458702 41.5366223,25.0988832 41.5366223,24.3007064 C41.5366223,23.5025296 42.1795442,22.8555427 42.972244,22.8555427 C43.7653183,22.8555427 44.4078658,23.5025296 44.4078658,24.3007064 C44.4078658,25.0988832 43.7653183,25.7458702 42.972244,25.7458702 Z M39.0772682,40.6092268 L36.4284451,40.6092268 L36.4284451,38.9027799 C36.4284451,38.0537037 37.0908381,37.6287887 37.7528567,37.6287887 C38.4148752,37.6287887 39.0772682,38.0537037 39.0772682,38.9027799 L39.0772682,40.6092268 Z M37.5109653,22.8555427 C38.3036651,22.8555427 38.9462125,23.5025296 38.9462125,24.3007064 C38.9462125,25.0988832 38.3036651,25.7458702 37.5109653,25.7458702 C36.717891,25.7458702 36.0753435,25.0988832 36.0753435,24.3007064 C36.0753435,23.5025296 36.717891,22.8555427 37.5109653,22.8555427 Z M32.6933573,25.7458702 C31.9006574,25.7458702 31.2577355,25.0988832 31.2577355,24.3007064 C31.2577355,23.5025296 31.9006574,22.8555427 32.6933573,22.8555427 C33.4860571,22.8555427 34.128979,23.5025296 34.128979,24.3007064 C34.128979,25.0988832 33.4860571,25.7458702 32.6933573,25.7458702 Z M56.8952285,19.5214484 C51.8671825,17.4756727 44.4857503,14.8164658 42.972244,14.8164658 C41.3434087,14.8164658 34.7704031,17.1748011 29.0402729,19.5259728 L29.7790527,21.8873244 L30.0449085,56.4532438 C30.6893282,56.3310854 31.3610823,56.2681211 32.0601709,56.2681211 C32.5188659,56.2681211 32.991041,56.3397571 33.4519826,56.4739805 L33.5074005,56.232303 L41.7519281,56.232303 L38.7717212,70.4064451 C38.7271623,70.652647 38.6803567,70.9139302 38.6623833,71.1043314 C38.7387701,71.1126261 38.8376235,71.1190356 38.9638114,71.1190356 C39.1573995,71.1190356 39.4580787,70.9636984 39.7988236,70.734463 C39.8385147,70.4347225 39.8890648,70.1263103 39.9560904,69.805079 L44.1895644,49.8370857 L52.6920846,48.6792204 L48.0624479,70.5795028 C48.0216334,70.7831001 47.9845634,70.9689769 47.96322,71.1054625 C48.0384834,71.1126261 48.1343413,71.1182816 48.2537893,71.1182816 C48.7023742,71.1182816 49.7261066,70.2884341 50.5027053,69.616186 C50.8015123,67.8799535 51.3204929,65.4816527 51.9566748,62.5962266 C52.1019594,61.9367976 52.2434996,61.294335 52.3715597,60.7042799 L51.1984239,60.7042799 L52.0854838,56.232303 L53.2998086,56.232303 L54.350501,51.3640655 L56.3564023,51.0914713 L56.1317354,21.8914718 L56.8952285,19.5214484 Z" id="Fill-31"></path>
                        <path d="M43.26408,13.9268185 C43.26408,14.4177948 42.8656954,14.8164658 42.3746822,14.8164658 C41.8840789,14.8164658 41.4861041,14.4177948 41.4861041,13.9268185 C41.4861041,13.4362818 41.8840789,13.0384899 42.3746822,13.0384899 C42.8656954,13.0384899 43.26408,13.4362818 43.26408,13.9268185" id="Fill-32"></path>
                        <path d="M42.1423409,18.9650762 L42.6703157,18.9345131 C42.6703157,18.4655013 42.6714214,7.46240325 42.6714214,6.99376885 C42.6454373,6.44099155 42.5487321,1.15246993 42.5398865,0.598937988 L42.0513306,0.598937988 C42.0607291,1.47809915 42.0981126,7.09224999 42.1091697,7.97103382 C42.1119339,8.04197043 42.1296252,18.763586 42.1423409,18.9650762 Z" id="Fill-33"></path>
                        <path d="M41.9671184,0.655742742 C41.7360146,0.72699068 41.4394129,0.881361213 41.245896,1.01161135 C40.9958127,1.18045412 40.6638569,1.23797199 40.4167508,1.32962949 C40.2347705,1.52741674 39.8883009,1.59606709 39.6437998,1.76713636 C38.9359747,2.26179001 37.9691348,2.59131173 37.3848628,3.12938209 C37.1626906,3.34015725 36.9408905,3.55204564 36.7183461,3.76319188 C36.5627884,3.87117703 36.4079749,3.97953327 36.2524171,4.08714735 C35.8702213,4.41184498 35.4843041,4.778475 35.1512318,5.13174602 C35.0001398,5.27943706 34.8497921,5.42675702 34.6975837,5.57444806 C34.4251715,5.90100111 34.2171409,6.3051105 33.9477059,6.62053106 C33.7914038,6.78158109 33.6351018,6.94226003 33.479544,7.10368114 C33.273002,7.3426586 33.1286086,7.60724079 32.8305183,7.81950027 C32.4795829,8.06812589 31.9939301,8.1137691 31.6668122,8.19540736 C31.4234275,8.31563826 31.1796707,8.43624024 30.9362861,8.55647113 C30.7431414,8.60879384 30.5808849,8.59580593 30.4245829,8.62066849 C30.3162879,8.66148763 30.2079929,8.70156459 30.0996979,8.74238372 C30.0051723,8.74980538 29.9106468,8.75759813 29.8168656,8.76501979 C29.5943212,8.810663 29.4592315,8.91939032 29.2355707,8.96466245 C29.07257,8.99694667 28.8917062,9.01846948 28.7100981,9.04667179 C28.3305073,9.10567399 27.4403298,9.18694117 27.062972,9.47415942 C26.9103914,9.59067949 26.8158659,9.74356569 26.7008722,9.87270257 C26.1180888,10.5310038 25.7749685,11.077238 25.4850654,11.82831 C25.4843211,11.8364739 25.4843211,11.8435244 25.4843211,11.8513172 C25.521908,11.8520594 25.5606114,11.8524304 25.5981983,11.8531726 C25.5881503,11.5752314 25.7809229,11.3878345 25.9327592,11.1633293 C26.030634,11.018978 26.1340911,10.8074607 26.2461076,10.6872298 C26.3622177,10.6015096 26.4798164,10.5150473 26.5962987,10.4296982 C26.6305363,10.375149 26.665146,10.321713 26.6993836,10.2675349 C26.9502112,10.2111303 27.2025274,10.1550967 27.4540993,10.098321 C28.0286955,9.95396975 28.6851642,9.69384056 29.2244063,9.34168279 C29.4469507,9.51757613 29.7986303,9.52648212 30.0531794,9.6318697 C30.2582328,9.71684771 30.5031061,9.92057228 30.7267669,9.92910719 C31.0081106,9.93949752 31.9749505,9.38324408 32.238059,9.19547608 C32.7475293,8.82884606 33.2674198,8.5397724 33.7441411,8.1705448 C34.3176208,7.72672952 34.8643059,7.28031666 35.4973293,6.83613029 C35.7872324,6.6327768 36.1303526,6.47692194 36.4946853,6.30325509 C36.6320078,6.2375734 36.7700747,6.17152062 36.9073972,6.10509676 C37.8422324,5.83791699 38.7651589,5.50542662 39.6717109,5.36923915 C40.4573149,5.25086367 41.2764121,5.29650688 42.0787627,5.1343436 L42.0787627,0.59265863 C42.046758,0.617521192 42.011404,0.642012671 41.9671184,0.655742742" id="Fill-34"></path>
                        <path d="M13.3842039,52.0117361 L11.6574143,60.0739138 L11.9093698,60.0739138 C14.8955642,60.0739138 17.0181775,56.8415185 17.0181775,54.0816429 C17.0181775,52.0478523 15.8672328,50.2683795 13.0603144,50.2683795 C7.23142091,50.2683795 3.34623734,53.5733833 3.34623734,59.0931347 C3.34623734,60.9459683 3.81362224,61.2364023 3.84940291,61.5633287 C1.36711947,61.5633287 0,60.6551581 0,58.0401232 C0,53.2103408 6.62016793,48.5980077 12.6287102,48.5980077 C18.2775822,48.5980077 20.7963917,51.4304919 20.7963917,54.4085693 C20.7963917,56.5514607 19.5012063,58.8027006 17.1985716,60.1465223 C20.1493581,60.7277666 21.3357107,63.2333244 21.3357107,66.0661848 C21.3357107,70.7511264 18.1340869,76.4529633 14.1762238,76.4529633 C12.0170845,76.4529633 9.93062462,76.235514 9.93062462,73.9474055 C9.93062462,73.3300451 10.07412,72.5674677 10.3980095,71.659297 C11.0815693,72.784917 12.3055661,72.9673788 12.8083589,72.9673788 C14.7878495,72.9673788 16.3703984,69.3711885 16.3703984,66.2843865 C16.3703984,63.9240457 15.4714092,61.8176466 13.0968405,61.8176466 C12.6287102,61.8176466 11.9451504,61.8537628 11.2977441,61.9263713 L8.34733032,75.8359791 L3.16584317,75.8359791 L8.05922144,52.7378212 L13.3842039,52.0117361" id="Fill-39"></path>
                        <path d="M27.4325688,70.2687647 C27.4325688,72.4476825 28.6336953,72.8467558 29.5427374,72.8467558 C30.3797948,72.8467558 31.1799177,72.048233 31.8711214,71.0315552 C31.9080559,70.6685903 31.9807944,70.2687647 32.0897136,69.8332069 L34.1271437,60.2110641 C33.5448593,59.7029133 32.8536557,59.5573512 32.3444866,59.5573512 C29.6158528,59.5573512 27.4325688,65.3309378 27.4325688,70.2687647 M39.9484805,57.4878871 L37.3291428,69.8332069 C37.2564043,70.2330325 37.1829121,70.6317296 37.1829121,70.9585861 C37.1829121,71.7578611 37.5469812,72.3389811 39.0025038,72.3389811 C40.4576496,72.3389811 42.3496029,70.3056254 43.8047486,69.1433855 L45.0420559,69.1433855 C43.3683179,70.8134001 39.2572768,75.6429019 36.4193469,75.6429019 C34.0544053,75.6429019 32.4534058,74.77141 31.9807944,72.8836165 C30.8889639,74.3719606 29.2521605,75.8603047 27.0326958,75.8603047 C23.539743,75.8603047 22.5210279,73.3917673 22.5210279,71.248958 C22.5210279,65.0037052 24.7766734,57.5239956 32.0535328,57.5239956 C32.926771,57.5239956 33.8358131,57.8873366 34.490836,58.431972 L34.7094282,57.4878871 L39.9484805,57.4878871" id="Fill-40"></path>
                        <path d="M50.465032,50.3759836 L46.3115576,70.0352092 C46.2034274,70.5809112 46.1308416,70.9090113 46.1308416,71.1997758 C46.1308416,72.0011695 46.5285665,72.5468715 47.9365049,72.5468715 C49.3814844,72.5468715 51.2593592,70.5081258 52.7043388,69.3435593 L53.9319354,69.3435593 C52.2706953,71.0187551 48.1894324,75.8603047 45.3716848,75.8603047 C42.5909784,75.8603047 40.8934455,74.6225756 40.8934455,71.8914257 C40.8934455,71.3457237 40.9660312,70.7268592 41.109706,70.0352092 L45.1195056,51.1045919 L50.465032,50.3759836" id="Fill-41"></path>
                        <path d="M60.7707725,51.5613008 C60.7707725,51.5613008 60.2294349,54.0103096 59.5433168,57.2535108 L61.7097891,57.2535108 L61.4213502,58.6944774 L59.2541296,58.6944774 C56.7621813,70.0796438 56.7980959,70.4397921 56.7980959,70.6196797 C56.7980959,71.4485807 57.1591123,71.989363 58.6043001,71.989363 C60.0491138,71.989363 61.9267731,69.9717859 63.3712127,68.8185647 L64.5997907,68.8185647 C62.937993,70.4756203 58.8571986,75.267646 56.0405227,75.267646 C53.2593872,75.267646 51.5613008,74.0427684 51.5613008,71.3407228 C51.5613008,69.4310035 53.4400824,61.793246 54.0536232,58.6944774 L52.8620821,58.6944774 L53.1505211,57.2535108 L54.3431845,57.2535108 L55.4258595,52.2815975 L60.7707725,51.5613008" id="Fill-42"></path>
                        <path d="M67.9753519,49.7833249 C69.560252,49.7833249 70.8567511,51.1017237 70.8567511,52.7133951 C70.8567511,54.3243077 69.560252,55.6062846 67.9753519,55.6062846 C66.3904518,55.6062846 65.1305158,54.3243077 65.1305158,52.7133951 C65.1305158,51.1017237 66.3904518,49.7833249 67.9753519,49.7833249 M69.632259,57.5476505 L67.0388878,70.0001643 C66.9668808,70.4027027 66.8945007,70.8056206 66.8945007,71.1353151 C66.8945007,71.9415302 67.2545357,72.527696 68.6961681,72.527696 C70.1366811,72.527696 72.0092361,70.4766848 73.4501223,69.3043532 L74.6749874,69.3043532 C73.0180803,70.9888685 68.9472598,75.8603047 66.1389869,75.8603047 C63.3646655,75.8603047 61.6364975,74.6151292 61.6364975,71.8683069 C61.6364975,71.3185631 61.7085045,70.6959753 61.8528916,70.0001643 L64.4455166,57.5476505 L69.632259,57.5476505" id="Fill-43"></path>
                        <path d="M71.1190356,69.8696033 C71.1190356,64.5372623 73.3572545,57.4878871 80.2496586,57.4878871 C82.1680794,57.4878871 84.1575255,57.9990624 84.1575255,60.0078184 C84.1575255,60.4100236 84.1214608,60.7388254 83.9790421,61.213299 L81.9542673,61.213299 C82.0609893,60.8110937 82.1320147,60.4822919 82.1320147,60.1901918 C82.1320147,59.3138914 81.5995085,58.9487662 80.8174935,58.9487662 C77.8329563,58.9487662 75.9145355,64.9023875 75.9145355,68.8468744 C75.9145355,70.6369337 76.305727,72.7554164 78.4729206,72.7554164 C80.3909733,72.7554164 82.0609893,71.842036 83.4465359,70.6006104 C83.4465359,73.7785236 80.8174935,75.8603047 76.3417917,75.8603047 C73.3925832,75.8603047 71.1190356,74.1795938 71.1190356,69.8696033" id="Fill-44"></path>
                    </g>
                </g>
            </g>
        </g>
    </g>
</svg>