<svg width="35" height="45" viewBox="0 0 35 45" fill="none" xmlns="http://www.w3.org/2000/svg">
<path d="M29.1617 16.6418C29.1617 10.2115 23.9302 4.9801 17.5 4.9801C11.0695 4.9801 5.83801 10.2115 5.83801 16.6418C5.83801 23.0723 11.0695 28.3038 17.5 28.3038C23.9302 28.3038 29.1617 23.0723 29.1617 16.6418ZM17.5 26.9967C11.7904 26.9967 7.14502 22.3514 7.14502 16.6418C7.14502 10.9324 11.7904 6.28711 17.5 6.28711C23.2097 6.28711 27.8547 10.9324 27.8547 16.6418C27.8547 22.3514 23.2097 26.9967 17.5 26.9967Z" fill="#4A7CB2"/>
<path d="M25.6215 14.0853C25.4983 13.7054 25.1474 13.4505 24.7481 13.4505H19.8781L18.3734 8.81914C18.2498 8.43963 17.8989 8.18469 17.5 8.18469C17.1011 8.18469 16.7502 8.43963 16.6266 8.81914L15.1218 13.4509H10.2519C9.85262 13.4509 9.50171 13.7058 9.37849 14.0853C9.25528 14.4648 9.38938 14.8773 9.71205 15.1118L13.6518 17.9743L12.147 22.6057C12.0238 22.9852 12.1576 23.3981 12.4806 23.6326C12.8033 23.8671 13.2372 23.8671 13.5602 23.6326L17.5 20.7701L21.4397 23.6326C21.6014 23.75 21.7903 23.8086 21.9796 23.8086C22.1688 23.8086 22.3581 23.75 22.5194 23.6326C22.8424 23.3981 22.9762 22.9852 22.8529 22.6057L21.3478 17.9743L25.2876 15.1118C25.6106 14.8773 25.7447 14.4648 25.6215 14.0853ZM20.3512 17.0829C20.0286 17.3174 19.8945 17.7299 20.0177 18.1098L21.2399 21.8719L18.0398 19.5468C17.8781 19.4294 17.6892 19.3709 17.5 19.3709C17.3107 19.3709 17.1215 19.4294 16.9602 19.5468L13.76 21.8719L14.9823 18.1095C15.1055 17.7299 14.9714 17.3174 14.6487 17.0829L11.4483 14.7575H15.4044C15.8033 14.7575 16.1542 14.5026 16.2777 14.1231L17.5 10.3607L18.7222 14.1231C18.8458 14.5026 19.1967 14.7575 19.5956 14.7575H23.5517L20.3512 17.0829Z" fill="#4A7CB2"/>
<path d="M34.8659 38.2616L28.7383 27.5039L29.8118 27.1595C31.1052 26.7449 31.9589 25.508 31.8881 24.1517L31.8067 22.5938C31.7819 22.1224 31.9575 21.6588 32.2887 21.3222L33.383 20.2102C34.3353 19.2419 34.5164 17.75 33.8234 16.5819L33.0273 15.2405C32.7863 14.8344 32.7267 14.3423 32.8632 13.8903L33.3152 12.3971C33.7087 11.0972 33.1757 9.69218 32.0195 8.98013L30.691 8.16189C30.289 7.91444 30.0072 7.50668 29.9184 7.04276L29.6246 5.51077C29.369 4.17687 28.2441 3.18028 26.8891 3.08702L25.3326 2.98014C24.8615 2.94781 24.4228 2.71738 24.1287 2.34808L23.1563 1.12786C22.3101 0.0659179 20.8507 -0.29351 19.608 0.25346L18.1801 0.882118C18.1801 0.882118 18.1801 0.882118 18.1798 0.882118C17.7479 1.07238 17.2523 1.07238 16.82 0.882118L15.3922 0.25346C14.1492 -0.29351 12.69 0.0659179 11.8435 1.1282L10.8714 2.34808C10.5774 2.71738 10.1386 2.94781 9.66755 2.98014L8.11106 3.08702C6.75605 3.18028 5.63114 4.17687 5.37553 5.51077L5.08179 7.04276C4.99261 7.50634 4.71113 7.91444 4.30916 8.16189L2.9807 8.97979C1.82448 9.69184 1.29146 11.0972 1.68493 12.3971L2.13659 13.8903C2.27342 14.3423 2.21386 14.8341 1.97288 15.2402L1.17676 16.5819C0.483771 17.7497 0.664846 19.2419 1.61719 20.2099L2.71147 21.3222C3.04231 21.6588 3.21828 22.122 3.19343 22.5935L3.11209 24.1517C3.04129 25.5077 3.89493 26.7446 5.18798 27.1595L6.26184 27.5036L0.134214 38.2616C-0.0509459 38.5866 -0.0441386 38.9862 0.152253 39.3048C0.348645 39.6234 0.704329 39.8099 1.07635 39.7895L6.19785 39.5243L8.58212 44.0652C8.75605 44.396 9.09642 44.606 9.47048 44.6121C9.47627 44.6121 9.48205 44.6125 9.48784 44.6125C9.8551 44.6125 10.1948 44.4157 10.3769 44.0958L16.6127 33.1476C16.9014 33.2371 17.2006 33.2837 17.5001 33.2837C17.7996 33.2837 18.0984 33.2371 18.3874 33.1476L24.6233 44.0958C24.8054 44.4157 25.1447 44.6125 25.512 44.6125C25.5178 44.6125 25.5239 44.6125 25.5297 44.6121C25.9037 44.606 26.2441 44.3963 26.418 44.0652L28.802 39.5243L33.9238 39.7895C34.2989 39.8092 34.6515 39.623 34.8476 39.3048C35.044 38.9862 35.0511 38.5866 34.8659 38.2616ZM9.49805 42.9981L7.32651 38.8627L8.60867 36.6121C8.78737 36.2983 8.67811 35.8994 8.36429 35.7207C8.05115 35.5424 7.6519 35.6516 7.47321 35.9651L6.19105 38.216L1.52666 38.4576L7.41569 28.119C7.52665 28.2432 7.62059 28.3838 7.69138 28.5376L8.34353 29.9552C8.68185 30.6908 9.29179 31.2361 10.0123 31.5066L8.99125 33.2997C8.81255 33.6132 8.92215 34.0124 9.23563 34.1911C9.33774 34.249 9.44904 34.2766 9.55864 34.2766C9.78566 34.2766 10.0066 34.1581 10.1271 33.9464L11.4201 31.6765C11.4732 31.67 11.5263 31.6629 11.5794 31.6533L13.1165 31.3848C13.5811 31.3034 14.0624 31.4222 14.4364 31.7102L15.4729 32.5083L9.49805 42.9981ZM18.3496 31.7463C18.3473 31.7476 18.3452 31.7483 18.3432 31.7497C18.3398 31.7517 18.3364 31.7541 18.333 31.7561C17.8173 32.0492 17.1829 32.0492 16.6672 31.7561C16.6638 31.7541 16.6607 31.7517 16.657 31.7497C16.6549 31.7483 16.6529 31.7476 16.6509 31.7463C16.5889 31.7102 16.5283 31.6714 16.4705 31.6268L15.2343 30.6748C14.7077 30.2691 14.0614 30.0526 13.4044 30.0526C13.2336 30.0526 13.062 30.0676 12.8915 30.0972L11.3544 30.3657C11.2554 30.3831 11.1563 30.3909 11.0583 30.3906C11.0501 30.3902 11.0423 30.3899 11.0345 30.3899C10.3963 30.3787 9.8054 30.0053 9.53107 29.4086L8.87892 27.9913C8.60016 27.3851 8.12535 26.8926 7.54094 26.5877C7.53958 26.587 7.53856 26.586 7.5372 26.5853C7.53345 26.5832 7.52971 26.5815 7.52631 26.5798C7.51235 26.5727 7.4984 26.5655 7.48444 26.5587C7.48104 26.557 7.47831 26.5557 7.47491 26.5543C7.34557 26.4907 7.21147 26.4359 7.07294 26.3913L5.58723 25.9151C4.85851 25.6813 4.37723 24.9842 4.41739 24.2201L4.49874 22.6619C4.54231 21.8252 4.23053 21.0029 3.64306 20.4059L2.54912 19.2936C2.01236 18.748 1.91025 17.9073 2.30065 17.249L3.09677 15.9073C3.52427 15.1867 3.63046 14.3137 3.38778 13.5118L2.93577 12.0186C2.71386 11.2861 3.0144 10.4941 3.6662 10.0931L4.99466 9.27489C5.70806 8.83548 6.20772 8.11185 6.36531 7.28885L6.65905 5.75686C6.80303 5.00532 7.43713 4.44372 8.20057 4.39096L9.75707 4.28409C10.5927 4.22656 11.3714 3.81778 11.8936 3.16258L12.8656 1.9427C13.3428 1.344 14.1652 1.14148 14.8656 1.44985L16.2931 2.07817C17.06 2.41581 17.9398 2.41581 18.7063 2.07817L20.1342 1.44985C20.835 1.14148 21.657 1.344 22.1338 1.9427L23.1063 3.16292C23.628 3.81812 24.4071 4.22656 25.2428 4.28409L26.7992 4.3913C27.5627 4.44372 28.1968 5.00532 28.3408 5.75686L28.6345 7.28919C28.7924 8.11186 29.2921 8.83582 30.0052 9.27489L31.3336 10.0931C31.9854 10.4944 32.286 11.2861 32.064 12.0186L31.612 13.5121C31.3694 14.3137 31.4756 15.1867 31.9031 15.9076L32.6992 17.249C33.0896 17.9073 32.9878 18.748 32.4507 19.2936L31.3568 20.4059C30.7693 21.0029 30.4575 21.8252 30.5011 22.6622L30.5824 24.2201C30.6226 24.9842 30.1413 25.6813 29.4126 25.9151L27.9269 26.3913C27.7884 26.4359 27.6543 26.4907 27.5249 26.554C27.5215 26.5557 27.5184 26.557 27.5154 26.5584C27.5014 26.5655 27.4871 26.5727 27.4732 26.5798C27.4698 26.5819 27.466 26.5832 27.4626 26.5853C27.4613 26.586 27.4602 26.5866 27.4592 26.5873C26.8745 26.8923 26.3997 27.3851 26.1209 27.9913L25.4688 29.409C25.1948 30.0049 24.6046 30.3783 23.9667 30.3899C23.9575 30.3899 23.948 30.3902 23.9388 30.3909C23.8415 30.3909 23.7434 30.3831 23.6451 30.3657L22.1083 30.0972C21.2829 29.9529 20.4289 30.1636 19.7652 30.6748L18.5294 31.6268C18.4718 31.6714 18.4112 31.7102 18.3496 31.7463ZM28.8091 38.216L27.5164 35.9467C27.3377 35.6329 26.9385 35.5237 26.6253 35.7023C26.3115 35.881 26.2022 36.28 26.3809 36.5938L27.6733 38.8627L25.5021 42.9981L19.5273 32.5083L20.5634 31.7102C20.9374 31.4222 21.4187 31.3034 21.8837 31.3848L23.4204 31.6533C23.4735 31.6629 23.527 31.67 23.5801 31.6765L24.8724 33.9457C24.9929 34.1571 25.2138 34.2759 25.4408 34.2759C25.5504 34.2759 25.6617 34.2483 25.7639 34.1901C26.0773 34.0114 26.1866 33.6125 26.0082 33.2987L24.9875 31.5066C25.708 31.2357 26.318 30.6908 26.6563 29.9552L27.3084 28.5376C27.3792 28.3838 27.4732 28.2432 27.5841 28.119L33.4732 38.4576L28.8091 38.216Z" fill="#4A7CB2"/>
</svg>
