<?xml version="1.0" encoding="UTF-8"?>
<svg width="34px" height="30px" viewBox="0 0 34 30" version="1.1" xmlns="http://www.w3.org/2000/svg" xmlns:xlink="http://www.w3.org/1999/xlink">
    <!-- Generator: Sketch 53.2 (72643) - https://sketchapp.com -->
    <title>title-attire-accessories</title>
    <desc>Created with Sketch.</desc>
    <g id="Page-1" stroke="none" stroke-width="1" fill="none" fill-rule="evenodd">
        <g id="title-attire-accessories" fill="#4A7CB2" fill-rule="nonzero">
            <path d="M32.4062444,25.4016367 L32.3811584,25.6661255 C32.4369184,25.7411465 32.5832141,25.9393953 32.5832141,25.9393953 C32.6437892,26.0213114 32.6726203,26.1223805 32.6644762,26.2236854 L32.5592575,27.5213189 C32.5107499,28.1235495 31.9764527,28.6136317 31.3682645,28.6136317 L27.7936212,28.6136317 C27.1671238,28.6136317 26.6571993,28.1083449 26.6571993,27.4874917 L26.6571993,24.6836039 C26.6571993,24.6122367 26.9223862,24.0958706 26.9674459,24.0141902 C26.9688132,24.0079434 26.9707155,24.0019912 26.9723205,23.9959801 C26.9159066,22.481711 26.8698957,21.3018835 26.8237065,20.185644 C26.7830456,19.2005883 26.7412554,18.2152967 26.6992273,17.230241 L26.6658189,16.4392497 C26.5924036,16.4309992 26.5176804,16.4266382 26.4424223,16.4266382 C26.3669264,16.4266382 26.292441,16.4309992 26.2187879,16.4392497 L26.1805049,17.3412108 C26.1403196,18.2894337 26.0998966,19.2374211 26.0609003,20.185644 C26.0151866,21.2963438 25.9678085,22.5102343 25.9122862,23.9962158 C25.9138913,24.002168 25.9157935,24.0079434 25.9171608,24.0139545 C25.9652523,24.1014103 26.2274075,24.6122367 26.2274075,24.6836039 L26.2274075,27.4874917 C26.2274075,28.1083449 25.717483,28.6134549 25.0909856,28.6134549 L21.51658,28.6134549 C20.9083919,28.6134549 20.3738569,28.1235495 20.3253493,27.5213189 L20.2203683,26.2236854 C20.2122243,26.1223805 20.4356209,25.757294 20.5032105,25.6661255 L20.4783623,25.4039351 C20.2823701,23.333933 20.0796605,21.1932121 20.0046402,19.0792464 C19.9319382,17.0239774 20.017421,14.8062317 20.2659036,12.2992456 C20.2665576,12.2930577 20.2672709,12.2870465 20.268222,12.2808586 C20.3320666,11.8381581 20.6643676,11.4576313 21.0818542,11.2960386 L21.0818542,9.78200516 C21.0818542,9.54763083 21.2734474,9.35769157 21.5098032,9.35769157 L31.3748035,9.35769157 C31.6111593,9.35769157 31.8027526,9.54763083 31.8027526,9.78200516 L31.8027526,11.2960386 C32.2202391,11.4576313 32.5525401,11.8381581 32.616147,12.2808586 C32.6170981,12.2870465 32.6180492,12.2932934 32.6185248,12.2992456 C32.8671858,14.8057603 32.9526686,17.0235649 32.8797288,19.0792464 C32.8049462,21.1925638 32.6022366,23.3322829 32.4062444,25.4016367 Z M31.6022224,26.1191597 C31.5767324,26.0842759 31.3005122,25.9438642 31.2273312,25.8432445 L30.3536815,24.6401325 C30.2169516,24.4518066 30.2595916,24.1886296 30.4488873,24.0526002 C30.6381829,23.9168045 30.9026565,23.9590507 31.0394451,24.1473182 L31.4062899,24.6529291 C31.583839,22.7645867 31.7582166,20.8244737 31.8254069,18.9170241 C31.8961211,16.9195895 31.8130143,14.7610582 31.5719163,12.3180806 C31.5430198,12.1478102 31.3534892,11.9887002 31.177056,11.9887002 L29.3767795,11.9887002 C29.1431994,11.9887002 28.9539625,11.8004328 28.9539625,11.5680493 C28.9539625,11.3356658 29.1431994,11.1473983 29.3767795,11.1473983 L30.7608757,11.1473983 L30.7608757,10.1490316 L21.8599266,10.1490316 L21.8599266,11.1473983 L23.2440227,11.1473983 C23.4776029,11.1473983 23.6668398,11.3356658 23.6668398,11.5680493 C23.6668398,11.8004328 23.4776029,11.9887002 23.2440227,11.9887002 L21.4437463,11.9887002 C21.2673131,11.9887002 21.0775475,12.1475764 21.048651,12.3178469 C20.807788,14.7612335 20.7247399,16.9200569 20.7951605,18.9170241 C20.8625856,20.8244737 21.0369632,22.764353 21.2142774,24.6526954 L21.5813571,24.1473182 C21.7181457,23.958817 21.982678,23.9165708 22.171915,24.0526002 C22.3612107,24.1886296 22.4038506,24.4515729 22.2671208,24.6401325 L21.3934711,25.8432445 C21.32029,25.9438642 21.0440699,26.0842759 21.0185799,26.118926 L21.1096744,27.249933 C21.1230067,27.4142434 21.2790009,27.5585117 21.4437463,27.5585117 L24.9752881,27.5585117 C25.1255265,27.5585117 25.2521543,27.4325326 25.2521543,27.2834729 L25.2521543,26.7806668 L22.5194954,26.7806668 C22.285974,26.7806668 22.0966783,26.5923409 22.0966783,26.3599574 C22.0966783,26.1276323 22.285974,25.9393065 22.5194954,25.9393065 L25.2521543,25.9393065 L25.2521543,24.611384 L25.1930104,24.5036357 C25.1248805,24.3801692 24.1621919,22.9736559 24.1621919,22.9736559 C24.025462,22.7853885 24.068102,22.5224451 24.2573977,22.3864157 C24.4466934,22.2503279 24.7112257,22.2925741 24.8479555,22.4809 L24.9837456,22.668291 C25.0211584,21.6828962 25.0553409,20.8183384 25.0885836,20.009174 C25.1271711,19.0690054 25.1670506,18.128603 25.2067539,17.1882592 L25.2283088,16.6773894 C25.1526023,16.7340099 25.0636222,16.7618819 24.9750532,16.7618819 C24.8531827,16.7618819 24.7323107,16.7098191 24.6487927,16.609141 C24.4999052,16.4299889 24.5253365,16.1647667 24.7054699,16.0168757 C25.1305775,15.6673947 25.7006964,15.4749786 26.3105186,15.4749786 C26.9203408,15.4749786 27.4904597,15.6673947 27.9153324,16.0168757 C28.0954658,16.1647667 28.120897,16.4299889 27.9720095,16.609141 C27.8274682,16.7833264 27.571922,16.8113737 27.3924934,16.6771557 L27.4094672,17.0779982 C27.4507563,18.0549205 27.4922804,19.032018 27.5322186,20.009174 C27.5659312,20.8254086 27.5994089,21.6762933 27.6370566,22.6680573 L27.7728467,22.4809 C27.9096353,22.2925741 28.1741089,22.2500942 28.3634046,22.386182 C28.5527002,22.5224451 28.5953402,22.7853885 28.4586104,22.9736559 C28.4586104,22.9736559 27.5021475,24.369184 27.4370129,24.4869826 L27.368413,24.6111503 L27.368413,25.9393065 L30.1013068,25.9393065 C30.334887,25.9393065 30.5241239,26.1276323 30.5241239,26.3599574 C30.5241239,26.5923409 30.334887,26.7806668 30.1013068,26.7806668 L27.368413,26.7806668 L27.368413,27.2834729 C27.368413,27.4325326 27.4952757,27.5585117 27.6455141,27.5585117 L31.177056,27.5585117 C31.3418013,27.5585117 31.4977955,27.4142434 31.510893,27.249933 L31.6022224,26.1191597 Z M28.0667671,14.3176718 C28.1470987,14.5329635 28.03686,14.7723434 27.8208454,14.8522329 C27.7730869,14.8700825 27.7239373,14.8784007 27.6755412,14.8784007 C27.5061839,14.8784007 27.3467956,14.7748273 27.2843154,14.6074231 L26.5102099,12.5314495 L25.7363943,14.6074231 C25.6738561,14.7748273 25.5144678,14.8784007 25.3451685,14.8784007 C25.2967144,14.8784007 25.2475648,14.8700825 25.1998063,14.8522329 C24.9837917,14.7723434 24.873553,14.5329635 24.9539426,14.3176718 L25.9100406,11.7534071 L25.6863173,11.7534071 C25.4558708,11.7534071 25.2690678,11.5672869 25.2690678,11.3375539 C25.2690678,11.1078786 25.4558708,10.9217006 25.6863173,10.9217006 L27.3343344,10.9217006 C27.5647809,10.9217006 27.7515839,11.1078786 27.7515839,11.3375539 C27.7515839,11.5672869 27.5647809,11.7534071 27.3343344,11.7534071 L27.1106112,11.7534071 L28.0667671,14.3176718 Z" id="009-sweat-pants" transform="translate(26.442248, 18.985662) rotate(13.000000) translate(-26.442248, -18.985662) "></path>
            <path d="M20.0183993,13.131815 C20.220218,13.131815 20.3835923,13.2944175 20.3835923,13.4950579 L20.3835923,20.4561738 C20.3835923,20.6201248 20.2731142,20.7639049 20.1141432,20.8067187 L17.7210532,21.4530269 L17.7210532,23.9713425 C17.7210532,24.1719267 17.5576224,24.3345853 17.3558601,24.3345853 L4.71241216,24.3345853 C4.51087572,24.3345853 4.34727555,24.1719267 4.34727555,23.9713425 L4.34727555,21.4530269 L1.95441136,20.8068872 C1.79544031,20.7639049 1.68496222,20.6203495 1.68496222,20.4561738 L1.68496222,7.35476407 C1.68496222,5.86909223 3.20608251,4.85313585 4.469891,4.26559821 C5.35614327,1.80639046 7.04154115,1.3507215 7.11430881,1.33229247 C7.1211396,1.33032595 7.12819621,1.32965172 7.13525277,1.32835944 C7.14208355,1.32701098 7.14897081,1.32526921 7.15580159,1.32437023 C7.16833411,1.32285321 7.18069728,1.32217898 7.19306045,1.32178567 C7.19701213,1.32156093 7.20079447,1.3208867 7.20474615,1.3208867 L14.9063738,1.3208867 C14.9107771,1.3208867 14.9149546,1.32178567 14.919358,1.32201042 C14.9312695,1.32217898 14.943181,1.32285321 14.9550925,1.32459498 C14.9619233,1.32549396 14.9687541,1.32701098 14.9755849,1.32835944 C14.9826415,1.32965172 14.9896981,1.33032595 14.9967547,1.33229247 C15.069974,1.3507215 16.7666624,1.80897502 17.6504872,4.28998296 C18.9034568,4.8812289 20.3835923,5.88948776 20.3835923,7.35476407 L20.3835923,12.2598073 C20.3835923,12.4606725 20.220218,12.6232749 20.0183993,12.6232749 C19.8166371,12.6232749 19.6532627,12.4606725 19.6532627,12.2598073 L19.6532627,7.35476407 C19.6532627,6.27930665 18.3856719,5.4261775 17.2231396,4.8928594 C17.2169298,4.89066817 17.2110023,4.88870163 17.2050183,4.88606091 C16.6303854,4.6264251 16.1163264,4.45960868 15.8826118,4.38892661 L13.7539467,5.48477959 L13.7539467,11.3246465 C13.7539467,11.5252307 13.59029,11.6878894 13.3887536,11.6878894 C13.1872171,11.6878894 13.0235605,11.5252307 13.0235605,11.3246465 L13.0235605,5.8607767 L11.2018856,6.79857827 C11.0966576,6.8527978 10.9716147,6.8527978 10.8664432,6.79857827 L9.1516898,5.91583903 L9.1516898,11.3246465 C9.1516898,11.5254555 8.98808963,11.6878894 8.78649677,11.6878894 C8.58496033,11.6878894 8.42136015,11.5254555 8.42136015,11.3246465 L8.42136015,5.5398981 L6.18571695,4.38892661 C5.95883319,4.45764217 5.46684719,4.61721059 4.91219855,4.8643169 C4.90604523,4.86695763 4.89944026,4.8687556 4.89328689,4.87111539 C3.71788345,5.40291645 2.41506608,6.26436119 2.41506608,7.35476407 L2.41506608,18.122261 L4.34727555,18.6441733 L4.34727555,9.56686552 C4.34727555,9.36622513 4.51064991,9.20362264 4.71241216,9.20362264 C4.91400507,9.20362264 5.07737942,9.36622513 5.07737942,9.56686552 L5.07737942,22.0394971 L6.91869993,22.0394971 C7.12029279,22.0394971 7.28366714,22.2021557 7.28366714,22.4029647 C7.28366714,22.6035489 7.12029279,22.7663761 6.91869993,22.7663761 L5.07737942,22.7663761 L5.07737942,23.6078748 L16.9908929,23.6078748 L16.9908929,22.7662076 L8.11126501,22.7662076 C7.90972852,22.7662076 7.74612839,22.6035489 7.74612839,22.4029647 C7.74612839,22.2021557 7.90950275,22.0394971 8.11126501,22.0394971 L16.9908929,22.0394971 L16.9908929,9.56686552 C16.9908929,9.36622513 17.1543237,9.20362264 17.3558601,9.20362264 C17.5576224,9.20362264 17.7210532,9.36622513 17.7210532,9.56686552 L17.7210532,18.6439486 L19.6532627,18.122261 L19.6532627,13.4950579 C19.6532627,13.2944175 19.8168628,13.131815 20.0183993,13.131815 Z M13.5300631,14.8635199 C13.5300631,15.9744147 14.1529359,16.9875986 15.1553288,17.5078568 C15.2746935,17.5698805 15.3493458,17.6915489 15.3493458,17.8242277 L15.3493458,20.6204979 C15.3493458,20.818299 15.1861708,20.978421 14.9848239,20.978421 L6.84417377,20.978421 C6.64265773,20.978421 6.47948278,20.818299 6.47948278,20.6204979 L6.47948278,17.8240064 C6.47948278,17.6915489 6.55413503,17.5698805 6.67372527,17.5078568 C7.67583621,16.9875986 8.29870909,15.9744147 8.29870909,14.8635199 C8.29870909,14.6659402 8.46194046,14.5058182 8.66323097,14.5058182 L13.1655976,14.5058182 C13.3668881,14.5058182 13.5300631,14.6659402 13.5300631,14.8635199 Z M11.0554471,5.11957017 L12.4268546,3.71008662 L9.68426539,3.71008662 L11.0554471,5.11957017 Z M15.0029645,2.10726682 L14.3775241,2.75009156 L11.3178396,5.89476926 L11.2669192,5.9470223 L13.0237863,5.04253909 L13.0237863,4.80026475 C13.0237863,4.59945579 13.1872171,4.43679714 13.3887536,4.43679714 C13.547273,4.43679714 13.6815742,4.537314 13.7323253,4.67777917 L15.6766156,3.67676828 C15.7374717,3.64536027 15.8051586,3.63198799 15.8726761,3.63704473 C15.8949185,3.6387865 15.9174432,3.64249478 15.9394598,3.6484505 C15.9408146,3.64889999 15.9439195,3.64974278 15.948097,3.6508665 C16.0133565,3.6686213 16.2967494,3.74806839 16.6916931,3.89162378 C16.1108504,2.72115574 15.3498104,2.26352026 15.0029645,2.10726682 Z M14.0445656,2.04759722 L8.06649791,2.04759722 L8.97702491,2.98343227 L13.1338128,2.98343227 L14.0445656,2.04759722 Z M7.10792962,2.10704208 C6.76193054,2.26222798 6.00862456,2.71413248 5.4291367,3.87274527 C5.81634637,3.73379713 6.08624714,3.66008102 6.12903833,3.6484505 C6.14315154,3.64468604 6.15703893,3.64204529 6.17137792,3.64007878 C6.17516025,3.63968548 6.17888617,3.63923599 6.18283785,3.6387865 C6.19429779,3.63743803 6.20598349,3.63659524 6.2176692,3.6363705 C6.21992735,3.6363705 6.22190317,3.63592101 6.22410486,3.63592101 C6.22472581,3.63592101 6.22562909,3.63614576 6.22653232,3.63614576 C6.23951643,3.63614576 6.25255706,3.63704473 6.26531535,3.63833701 C6.26842027,3.6387865 6.27129937,3.63946073 6.27412201,3.63985404 C6.28428349,3.6412025 6.29444501,3.64294427 6.30438072,3.64513552 C6.30855823,3.64625925 6.31273573,3.64732678 6.31691319,3.6484505 C6.32594567,3.6508665 6.33503456,3.65350725 6.34384121,3.6565413 C6.34756708,3.65788976 6.35157523,3.65918204 6.3553011,3.66053051 C6.36766427,3.66536251 6.37980161,3.67058781 6.39165672,3.67676828 L8.42926353,4.7256497 C8.4636997,4.56057503 8.61053343,4.43679714 8.78649677,4.43679714 C8.98831545,4.43679714 9.1516898,4.59945579 9.1516898,4.80004005 L9.1516898,5.09765761 L10.4342406,5.75806859 L10.4637655,5.72755956 L10.5471462,5.64193197 L7.10792962,2.10704208 Z M4.34727555,20.7000214 L4.34727555,19.3972351 L2.41506608,18.8753228 L2.41506608,20.1783338 L4.34727555,20.7000214 Z M19.6532627,20.1783338 L19.6532627,18.8753228 L17.7210532,19.3972351 L17.7210532,20.7000214 L19.6532627,20.1783338 Z M14.6200765,20.2627962 L14.620302,20.2627962 L14.620302,18.0325966 C13.5965961,17.4239781 12.9323374,16.3832957 12.818442,15.2213876 L9.01055571,15.2213876 C8.89671667,16.3830744 8.2321761,17.4239781 7.20869565,18.0323753 L7.20869565,20.2627962 L14.6200765,20.2627962 Z" id="Fill-1" transform="translate(11.034277, 12.827736) rotate(-9.000000) translate(-11.034277, -12.827736) "></path>
        </g>
    </g>
</svg>