<?xml version="1.0" encoding="UTF-8"?>
<svg width="35px" height="38px" viewBox="0 0 35 38" version="1.1" xmlns="http://www.w3.org/2000/svg" xmlns:xlink="http://www.w3.org/1999/xlink">
    <!-- Generator: Sketch 53.2 (72643) - https://sketchapp.com -->
    <title>002-pdf</title>
    <desc>Created with Sketch.</desc>
    <g id="design-v2" stroke="none" stroke-width="1" fill="none" fill-rule="evenodd">
        <g id="item-v2" transform="translate(-232.000000, -414.000000)" fill="#4A7CB2" fill-rule="nonzero">
            <g id="002-pdf" transform="translate(232.000000, 414.000000)">
                <path d="M34.7453822,10.0196178 L25.3128099,0.218243802 C25.1785227,0.078822314 24.9932541,0 24.7997417,0 L10.7411674,0 C9.16783058,0 7.88779959,1.27952479 7.88779959,2.85221074 L7.88779959,12.8162913 L2.19039256,12.8162913 C1.01326446,12.8162913 0.0556095041,13.773657 0.0556095041,14.9504959 L0.0556095041,25.6344628 C0.0556095041,26.8112293 1.01326446,27.768595 2.19039256,27.768595 L7.88779959,27.768595 L7.88779959,34.1775723 C7.88779959,35.7475103 9.16783058,37.0247934 10.7411674,37.0247934 L32.0910227,37.0247934 C33.6643595,37.0247934 34.9443905,35.7482335 34.9443905,34.1791632 L34.9443905,10.5133781 C34.9443905,10.3292665 34.8730165,10.152314 34.7453822,10.0196178 Z M24.976188,1.92217975 L32.7195041,9.96820248 L24.976188,9.96820248 L24.976188,1.92217975 Z M2.19039256,26.3445868 C1.79845041,26.3445868 1.47969008,26.0260434 1.47969008,25.6344628 L1.47969008,14.9504959 C1.47969008,14.5589153 1.79852273,14.2402996 2.19039256,14.2402996 L21.4173967,14.2402996 C21.8093388,14.2402996 22.1280992,14.5589153 22.1280992,14.9504959 L22.1280992,25.6344628 C22.1280992,26.0260434 21.8092665,26.3445868 21.4173967,26.3445868 L2.19039256,26.3445868 Z M33.5203099,34.1791632 C33.5203099,34.9630475 32.8791012,35.6007851 32.0909504,35.6007851 L10.7411674,35.6007851 C9.95301653,35.6007851 9.31180785,34.9623967 9.31180785,34.1776446 L9.31180785,27.768595 L21.4173967,27.768595 C22.5945248,27.768595 23.5521798,26.8112293 23.5521798,25.6344628 L23.5521798,14.9504959 C23.5521798,13.773657 22.5945248,12.8162913 21.4173967,12.8162913 L9.31180785,12.8162913 L9.31180785,2.85221074 C9.31180785,2.06463843 9.95301653,1.42400826 10.7411674,1.42400826 L23.5521074,1.42400826 L23.5521074,10.6802066 C23.5521074,11.0734504 23.8709401,11.3922107 24.2641116,11.3922107 L33.5203099,11.3922107 L33.5203099,34.1791632 Z" id="Shape"></path>
                <path d="M8.56784091,18.0708471 C8.33144628,17.7635124 8.03799587,17.5639256 7.68756198,17.4721591 C7.45948347,17.4109814 6.96998967,17.3803926 6.21900826,17.3803926 L4.23731405,17.3803926 L4.23731405,23.4964979 L5.47222107,23.4964979 L5.47222107,21.1893905 L6.27743802,21.1893905 C6.83649793,21.1893905 7.26344008,21.1601756 7.55826446,21.1017459 C7.77520661,21.0544525 7.98867769,20.9578409 8.19867769,20.8117665 C8.40867769,20.6657645 8.58179752,20.4648037 8.7181095,20.2089566 C8.85442149,19.9531095 8.92254132,19.6373864 8.92254132,19.2619318 C8.92246901,18.775186 8.80423554,18.3781818 8.56784091,18.0708471 Z M7.51024793,19.7542459 C7.41710744,19.8905579 7.28846074,19.9906405 7.12430785,20.0546384 C6.96015496,20.1186364 6.63481405,20.1505992 6.14806818,20.1505992 L5.47222107,20.1505992 L5.47222107,18.415062 L6.06881198,18.415062 C6.51383264,18.415062 6.81003099,18.4289463 6.95740702,18.4567872 C7.15764463,18.4929442 7.32317149,18.5833368 7.45384298,18.7279649 C7.58458678,18.872593 7.64995868,19.0561983 7.64995868,19.2786364 C7.65003099,19.4594215 7.60338843,19.6179339 7.51024793,19.7542459 Z" id="Shape"></path>
                <path d="M14.8591632,19.051281 C14.7256715,18.6604959 14.5309298,18.3302376 14.2750826,18.0604339 C14.0192355,17.7906302 13.7118285,17.6029029 13.3530785,17.4971798 C13.086095,17.4192975 12.6980579,17.3803926 12.1891116,17.3803926 L9.93204545,17.3803926 L9.93204545,23.4964979 L12.2558574,23.4964979 C12.7120145,23.4964979 13.0763326,23.4533988 13.3488843,23.3671281 C13.7132748,23.2503409 14.002531,23.0876343 14.2166529,22.8790083 C14.5003409,22.6036364 14.718657,22.2435124 14.8716736,21.7984917 C14.9968492,21.4341012 15.0594008,21.0002169 15.0594008,20.4968388 C15.0594008,19.9238946 14.992655,19.4420661 14.8591632,19.051281 Z M13.657593,21.5628202 C13.5741426,21.8368182 13.4663946,22.0335847 13.3342769,22.1531198 C13.2021591,22.2727273 13.0359814,22.3575517 12.8357438,22.407593 C12.6827996,22.4465702 12.4338223,22.4660227 12.0889566,22.4660227 L11.1669525,22.4660227 L11.1669525,22.4660227 L11.1669525,18.415062 L11.7218182,18.415062 C12.2251963,18.415062 12.5631921,18.4345145 12.7355888,18.4734917 C12.9664153,18.5235331 13.1569628,18.6194938 13.3071591,18.761374 C13.4573554,18.9032541 13.5741426,19.1006715 13.657593,19.3537707 C13.7410434,19.6068698 13.7827686,19.969814 13.7827686,20.4426756 C13.7827686,20.9154649 13.7410434,21.2888223 13.657593,21.5628202 Z" id="Shape"></path>
                <polygon id="Path" points="20.3077376 18.415062 20.3077376 17.3803926 16.1148967 17.3803926 16.1148967 23.4964979 17.3498037 23.4964979 17.3498037 20.8973864 19.9030682 20.8973864 19.9030682 19.8627169 17.3498037 19.8627169 17.3498037 18.415062"></polygon>
            </g>
        </g>
    </g>
</svg>