<?xml version="1.0" encoding="UTF-8"?>
<svg width="35px" height="38px" viewBox="0 0 35 38" version="1.1" xmlns="http://www.w3.org/2000/svg" xmlns:xlink="http://www.w3.org/1999/xlink">
    <!-- Generator: Sketch 53.2 (72643) - https://sketchapp.com -->
    <title>box</title>
    <desc>Created with Sketch.</desc>
    <g id="design-v2" stroke="none" stroke-width="1" fill="none" fill-rule="evenodd">
        <g id="item-v2" transform="translate(-323.000000, -293.000000)" fill="#4A7CB2" fill-rule="nonzero">
            <g id="PRODUCT-INFO" transform="translate(323.000000, 287.000000)">
                <g id="TITLE">
                    <g id="box" transform="translate(0.000000, 6.000000)">
                        <path d="M34.6885729,8.23746875 L17.7377813,0.0543229167 C17.5875,-0.01815625 17.4125,-0.01815625 17.2622917,0.0543229167 L0.311427083,8.23746875 C0.122427083,8.3286875 0.00233333333,8.52009375 0.00233333333,8.72994792 L0.00233333333,28.6033125 C0.00233333333,28.8131667 0.122427083,29.0045729 0.311427083,29.0957917 L17.2622188,37.2789375 C17.3373229,37.3151771 17.4186979,37.3333333 17.5,37.3333333 C17.5813021,37.3333333 17.6626042,37.3151771 17.7377813,37.2789375 L34.6885729,29.0957917 C34.8775729,29.0045729 34.9976667,28.8131667 34.9976667,28.6033125 L34.9976667,8.73002083 C34.9976667,8.52002083 34.8775,8.32876042 34.6885729,8.23746875 Z M17.5,1.154125 L33.1929063,8.72994792 L28.6438542,10.9260521 C28.6150521,10.9041042 28.5846458,10.8838333 28.55125,10.8677188 L12.9649479,3.34344792 L17.5,1.154125 Z M11.7298854,3.96178125 L27.3999688,11.5265938 L24.1905417,13.076 L8.52694792,5.51425 L11.7298854,3.96178125 Z M27.7665938,12.5640521 L27.7665938,18.2913646 L24.7687708,19.7386146 L24.7687708,14.0113021 L27.7665938,12.5640521 Z M33.9039167,28.2601667 L18.046875,35.9151042 L18.046875,17.2563125 L21.8292813,15.4303333 C22.1012604,15.2990104 22.2153021,14.972125 22.0839792,14.7000729 C21.9526563,14.4281667 21.6257708,14.3139792 21.3537188,14.445375 L17.5,16.3058438 L15.983625,15.5737604 C15.7115729,15.4422917 15.3846875,15.5564792 15.2533646,15.8284583 C15.1220417,16.1004375 15.2360833,16.4273958 15.5080625,16.5587188 L16.953125,17.2563125 L16.953125,35.9151042 L1.09608333,28.2600208 L1.09608333,9.60122917 L13.1710833,15.4305521 C13.2477188,15.4675938 13.3287292,15.4850938 13.4084271,15.4850938 C13.6117188,15.4850938 13.8069896,15.3711979 13.9012708,15.1758542 C14.0325938,14.903875 13.9185521,14.5769167 13.6465729,14.4455938 L1.80709375,8.72994792 L7.23975,6.10728125 L23.6674375,14.0379167 C23.6698438,14.0412708 23.6725417,14.0442604 23.6750208,14.0475417 L23.6750208,20.6099688 C23.6750208,20.7981667 23.7717813,20.9730938 23.9311771,21.0732083 C24.0196979,21.1287708 24.1206875,21.1568438 24.2219688,21.1568438 C24.3030521,21.1568438 24.3843542,21.1388333 24.4596771,21.1024479 L28.55125,19.1272083 C28.74025,19.0359896 28.8603437,18.8446563 28.8603437,18.6347292 L28.8603437,12.0361354 L33.9039167,9.60130208 L33.9039167,28.2601667 L33.9039167,28.2601667 Z" id="Shape"></path>
                        <path d="M5.6091875,26.1390938 L3.12163542,24.9382292 C2.84951042,24.8067604 2.52269792,24.9209479 2.391375,25.1929271 C2.26005208,25.4649063 2.37409375,25.7918646 2.64607292,25.9231875 L5.133625,27.1240521 C5.21026042,27.1610937 5.29127083,27.1785938 5.37096875,27.1785938 C5.57426042,27.1785938 5.76953125,27.0646979 5.8638125,26.8693542 C5.99520833,26.5973021 5.88116667,26.2704896 5.6091875,26.1390938 Z" id="Path"></path>
                        <path d="M7.89855208,24.6488958 L3.1250625,22.3444375 C2.85301042,22.2131146 2.526125,22.3271563 2.39480208,22.5992083 C2.26355208,22.8711875 2.37759375,23.1981458 2.64957292,23.3294688 L7.4230625,25.6339271 C7.49969792,25.6708958 7.58070833,25.6884688 7.66040625,25.6884688 C7.86369792,25.6884688 8.05896875,25.5745729 8.15325,25.3792292 C8.28457292,25.1071042 8.17053125,24.7801458 7.89855208,24.6488958 Z" id="Path"></path>
                    </g>
                </g>
            </g>
        </g>
    </g>
</svg>