<?xml version="1.0" encoding="UTF-8"?>
<svg width="35px" height="27px" viewBox="0 0 35 27" version="1.1" xmlns="http://www.w3.org/2000/svg" xmlns:xlink="http://www.w3.org/1999/xlink">
    <!-- Generator: Sketch 53.2 (72643) - https://sketchapp.com -->
    <title></title>
    <desc>Created with Sketch.</desc>
    <g id="design-v2" stroke="none" stroke-width="1" fill="none" fill-rule="evenodd">
        <g id="item-v2" transform="translate(-323.000000, -573.000000)" fill="#4A7CB2" fill-rule="nonzero">
            <g id="PHOTOS" transform="translate(323.000000, 561.000000)">
                <g id="TITLE-Copy">
                    <g id="icon---photo" transform="translate(0.000000, 12.000000)">
                        <path d="M32.0833333,0.5 L6.80555556,0.5 C6.12760022,0.5 5.5662336,0.731150963 5.09313672,1.20424784 C4.62003985,1.67734471 4.38888889,2.23871133 4.38888889,2.91666667 L4.38888889,4.38888889 L2.91666667,4.38888889 C2.23871133,4.38888889 1.67734471,4.62003985 1.20424784,5.09313672 C0.731150963,5.5662336 0.5,6.12760022 0.5,6.80555556 L0.5,24.3055556 C0.5,24.9835109 0.731150963,25.5448775 1.20424784,26.0179744 C1.67734471,26.4910713 2.23871133,26.7222222 2.91666667,26.7222222 L28.1944444,26.7222222 C28.8723998,26.7222222 29.4337664,26.4910713 29.9068633,26.0179744 C30.3799601,25.5448775 30.6111111,24.9835109 30.6111111,24.3055556 L30.6111111,22.8333333 L32.0833333,22.8333333 C32.7612887,22.8333333 33.3226553,22.6021824 33.7957522,22.1290855 C34.268849,21.6559886 34.5,21.094622 34.5,20.4166667 L34.5,2.91666667 C34.5,2.23871133 34.268849,1.67734471 33.7957522,1.20424784 C33.3226553,0.731150963 32.7612887,0.5 32.0833333,0.5 Z M29.6666667,24.3055556 C29.6666667,24.7183626 29.525465,25.0792112 29.2467826,25.3578937 C28.9681001,25.6365762 28.6072515,25.7777778 28.1944444,25.7777778 L2.91666667,25.7777778 C2.50385962,25.7777778 2.14301105,25.6365762 1.86432855,25.3578937 C1.58564606,25.0792112 1.44444444,24.7183626 1.44444444,24.3055556 L1.44444444,6.80555556 C1.44444444,6.39274851 1.58564606,6.03189994 1.86432855,5.75321744 C2.14301105,5.47453495 2.50385962,5.33333333 2.91666667,5.33333333 L4.38888889,5.33333333 L4.38888889,20.4166667 C4.38888889,21.094622 4.62003985,21.6559886 5.09313672,22.1290855 C5.5662336,22.6021824 6.12760022,22.8333333 6.80555556,22.8333333 L29.6666667,22.8333333 L29.6666667,24.3055556 Z M33.5555556,20.4166667 C33.5555556,20.8294737 33.4143539,21.1903223 33.1356714,21.4690048 C32.856989,21.7476873 32.4961404,21.8888889 32.0833333,21.8888889 L6.80555556,21.8888889 C6.39274851,21.8888889 6.03189994,21.7476873 5.75321744,21.4690048 C5.47453495,21.1903223 5.33333333,20.8294737 5.33333333,20.4166667 L5.33333333,2.91666667 C5.33333333,2.50385962 5.47453495,2.14301105 5.75321744,1.86432855 C6.03189994,1.58564606 6.39274851,1.44444444 6.80555556,1.44444444 L32.0833333,1.44444444 C32.4961404,1.44444444 32.856989,1.58564606 33.1356714,1.86432855 C33.4143539,2.14301105 33.5555556,2.50385962 33.5555556,2.91666667 L33.5555556,20.4166667 Z M10.6944444,9.70833333 C11.4930121,9.70833333 12.1660492,9.42719125 12.7410647,8.85217578 C13.3160801,8.2771603 13.5972222,7.60412319 13.5972222,6.80555556 C13.5972222,6.00698792 13.3160801,5.33395081 12.7410647,4.75893534 C12.1660492,4.18391986 11.4930121,3.90277778 10.6944444,3.90277778 C9.89587681,3.90277778 9.2228397,4.18391986 8.64782422,4.75893534 C8.07280875,5.33395081 7.79166667,6.00698792 7.79166667,6.80555556 C7.79166667,7.60412319 8.07280875,8.2771603 8.64782422,8.85217578 C9.2228397,9.42719125 9.89587681,9.70833333 10.6944444,9.70833333 Z M10.6944444,4.84722222 C11.231773,4.84722222 11.7033821,5.04141423 12.0809839,5.41901605 C12.4585858,5.79661788 12.6527778,6.26822704 12.6527778,6.80555556 C12.6527778,7.34288408 12.4585858,7.81449323 12.0809839,8.19209506 C11.7033821,8.56969688 11.231773,8.76388889 10.6944444,8.76388889 C10.1571159,8.76388889 9.68550677,8.56969688 9.30790494,8.19209506 C8.93030312,7.81449323 8.73611111,7.34288408 8.73611111,6.80555556 C8.73611111,6.26822704 8.93030312,5.79661788 9.30790494,5.41901605 C9.68550677,5.04141423 10.1571159,4.84722222 10.6944444,4.84722222 Z M24.3055556,6.81944444 C24.0326948,6.81944444 23.8156535,6.90881442 23.6261228,7.09834506 L17.5,13.2244679 L15.2627661,10.9872339 C15.0732354,10.7977033 14.856194,10.7083333 14.5833333,10.7083333 C14.3104726,10.7083333 14.0934313,10.7977033 13.9039006,10.9872339 L8.55667839,16.3344562 C8.36714775,16.5239868 8.27777778,16.7410282 8.27777778,17.0138889 L8.27777778,18.7152778 C8.27777778,18.7855912 8.29625726,18.8304699 8.34400478,18.8782174 C8.3917523,18.925965 8.43663104,18.9444444 8.50694444,18.9444444 L30.3819444,18.9444444 C30.4522579,18.9444444 30.4971366,18.925965 30.5448841,18.8782174 C30.5926316,18.8304699 30.6111111,18.7855912 30.6111111,18.7152778 L30.6111111,13.125 C30.6111111,12.8521393 30.5217411,12.6350979 30.3322105,12.4455673 L24.9849883,7.09834506 C24.7954576,6.90881442 24.5784163,6.81944444 24.3055556,6.81944444 Z M24.3055556,7.73907377 L29.6666667,13.1001849 L29.6666667,18 L9.22222222,18 L9.22222222,16.9890738 L14.5833333,11.6279627 L17.5,14.5446293 L24.3055556,7.73907377 Z" id=""></path>
                    </g>
                </g>
            </g>
        </g>
    </g>
</svg>