<?xml version="1.0" encoding="UTF-8"?>
<svg width="35px" height="35px" viewBox="0 0 35 35" version="1.1" xmlns="http://www.w3.org/2000/svg" xmlns:xlink="http://www.w3.org/1999/xlink">
    <!-- Generator: Sketch 53.2 (72643) - https://sketchapp.com -->
    <title>Shape</title>
    <desc>Created with Sketch.</desc>
    <g id="Page-1" stroke="none" stroke-width="1" fill="none" fill-rule="evenodd">
        <g id="title-promotional-items" fill="#4A7CB2" fill-rule="nonzero">
            <path d="M2.00990385,5.32840832 L2.00402846,5.33481778 C1.54842182,5.79042441 1.54842182,6.52884913 2.00402846,6.9844558 L5.33401656,10.314711 C5.55300689,10.5337014 5.84997913,10.6565496 6.15950328,10.6560154 C6.26178781,10.654146 6.36353816,10.6389235 6.46181675,10.6108821 L19.158448,23.3075133 C19.1304065,23.4063261 19.1154511,23.5083435 19.1141158,23.610895 C19.1133147,23.9206862 19.23643,24.2176584 19.4559544,24.4358476 L26.9376785,31.9175717 C27.1558676,32.1370961 27.4528398,32.2602114 27.762631,32.2594102 C27.9127195,32.2594102 28.0614727,32.2305676 28.2006117,32.1742177 L33.2809199,34.8637926 C33.7351913,35.104415 34.2933495,35.0205576 34.6570871,34.6570871 C35.0205576,34.2933495 35.104415,33.7351913 34.8637926,33.2809199 L32.1742177,28.2006117 C32.2305676,28.0614727 32.2594102,27.9127195 32.2594102,27.762631 C32.2602114,27.4528398 32.1370961,27.1558676 31.9175717,26.9376785 L24.437717,19.4578238 C24.1402107,19.1720682 23.715316,19.0615048 23.3163264,19.1659258 L10.6108821,6.46181675 C10.7214454,6.0598894 10.6082114,5.62992056 10.314711,5.33401656 L8.23189945,3.25147211 L9.07073918,2.41637121 L19.0436116,12.3927155 L18.6275301,12.8079959 C18.3997267,13.0357992 18.3994596,13.4054122 18.627263,13.6332155 C18.8550663,13.8612859 19.2244122,13.8615529 19.4524826,13.6337497 L19.8685642,13.217668 C20.324705,12.7599248 20.324705,12.0190966 19.8685642,11.5613534 L9.89569174,1.59168572 C9.43821561,1.13527787 8.69765446,1.13527787 8.24017838,1.59168572 L7.40587865,2.42571837 L6.98392172,2.00402846 C6.52831501,1.54842182 5.78962328,1.54842182 5.33401656,2.00402846 L5.32840832,2.00990385 L3.660343,0.341838544 C3.4416198,0.123115271 3.14464756,1.13686838e-13 2.83512343,1.13686838e-13 C2.52559929,1.13686838e-13 2.22862706,0.123115271 2.00990385,0.341838544 L0.341838544,2.00990385 C0.123115271,2.22862706 -2.84217094e-14,2.52559929 -2.84217094e-14,2.83512343 C-2.84217094e-14,3.14464756 0.123115271,3.4416198 0.341838544,3.660343 L2.00990385,5.32840832 Z M19.8715019,22.3706621 L7.40000326,9.89916356 L9.89916356,7.40000326 L22.3706621,19.8715019 L19.8715019,22.3706621 Z M29.1526854,31.3596805 L31.3591464,29.1532195 L33.8305322,33.8385441 L29.1526854,31.3596805 Z M24.4457289,21.1205479 L24.0275108,21.538766 C23.8726153,21.6848486 23.8095887,21.9035718 23.8632681,22.1094761 C23.9166803,22.3156474 24.0779854,22.4761513 24.2841568,22.5284953 C24.4905952,22.5811064 24.7090514,22.5170117 24.8543327,22.3613149 L25.2725508,21.9425628 L26.1097883,22.779533 L25.690769,23.1985523 C25.5390781,23.344902 25.4784552,23.5620229 25.5318674,23.7657907 C25.5850126,23.9698255 25.7444483,24.1292612 25.9484832,24.1826735 C26.1525181,24.2360857 26.3693719,24.1751957 26.5157215,24.0235049 L26.9347408,23.6044856 L27.771177,24.4417229 L27.3524248,24.8607422 C27.1246214,25.0890797 27.1251555,25.4589597 27.353493,25.686763 C27.5820975,25.9145664 27.9519775,25.9140322 28.1795138,25.6856948 L28.5985331,25.2666755 L29.4357704,26.1039129 L29.0167512,26.522131 C28.8693333,26.6695489 28.8116481,26.8842662 28.8655945,27.0858976 C28.9195408,27.2872618 29.07684,27.4445609 29.2779372,27.4985073 C29.4793014,27.5524537 29.6942858,27.4950355 29.8417037,27.3476176 L30.260723,26.9288654 L31.096625,27.7653017 L27.7661028,31.096625 L26.9288654,30.2593877 L27.3476176,29.8411696 C27.575421,29.6130992 27.575421,29.2437534 27.3473506,29.0159499 C27.1195472,28.7881467 26.7499343,28.7884137 26.522131,29.016217 L26.1039129,29.4344351 L25.2672097,28.5979989 L25.6856948,28.1789797 C25.9065546,27.9501081 25.9036169,27.5863705 25.6784841,27.3612378 C25.4533514,27.136105 25.0896138,27.1329003 24.8607422,27.3540271 L24.4422571,27.7730464 L23.6044856,26.935809 L24.0235049,26.5170568 C24.2446317,26.2879181 24.241427,25.9241806 24.0162942,25.6990478 C23.7914286,25.4741822 23.4274239,25.4709775 23.1985523,25.6921043 L22.779533,26.1103223 L21.9430968,25.273085 L22.3613149,24.8548669 C22.5824417,24.6259953 22.579237,24.2619907 22.3543714,24.037125 C22.1292387,23.8119923 21.765234,23.8087875 21.5363624,24.0299143 L21.1205479,24.4457289 L20.2833105,23.6087585 L23.6087585,20.2833105 L24.4457289,21.1205479 Z M6.15950328,2.82898099 L6.99220061,3.66141131 L9.48788904,6.15603147 L9.48788904,6.15896917 L6.15896917,9.48788904 L2.82898099,6.15896917 L6.15950328,2.82898099 Z M2.83485638,1.16812643 L4.50345578,2.83539047 L2.83485638,4.50398986 L1.16812643,2.83485638 L2.83485638,1.16812643 Z" id="Shape"></path>
        </g>
    </g>
</svg>