<?xml version="1.0" encoding="UTF-8"?>
<svg width="35px" height="32px" viewBox="0 0 35 32" version="1.1" xmlns="http://www.w3.org/2000/svg" xmlns:xlink="http://www.w3.org/1999/xlink">
    <!-- Generator: Sketch 53.2 (72643) - https://sketchapp.com -->
    <title>001-www</title>
    <desc>Created with Sketch.</desc>
    <g id="design-v2" stroke="none" stroke-width="1" fill="none" fill-rule="evenodd">
        <g id="item-v2" transform="translate(-232.000000, -297.000000)" fill="#4A7CB2" fill-rule="nonzero">
            <g id="001-www" transform="translate(232.000000, 297.000000)">
                <path d="M21.1916733,11.5185547 C17.8746414,11.5185547 15.1760483,14.2171478 15.1760483,17.5341797 C15.1760483,20.8512116 17.8746414,23.5498047 21.1916733,23.5498047 C24.5087052,23.5498047 27.2072983,20.8512116 27.2072983,17.5341797 C27.2072983,14.2171478 24.5087052,11.5185547 21.1916733,11.5185547 Z M21.1916733,22.1826172 C18.6284637,22.1826172 16.5432358,20.0973892 16.5432358,17.5341797 C16.5432358,14.9709701 18.6284637,12.8857422 21.1916733,12.8857422 C23.7548828,12.8857422 25.8401108,14.9709701 25.8401108,17.5341797 C25.8401108,20.0973892 23.7548828,22.1826172 21.1916733,22.1826172 Z" id="Shape"></path>
                <path d="M21.1916733,14.4582748 C20.8140946,14.4582748 20.5080795,14.7642899 20.5080795,15.1418686 C20.5080795,15.5194473 20.8140946,15.8254623 21.1916733,15.8254623 C22.1337509,15.8254623 22.9003906,16.5921021 22.9003906,17.5341797 C22.9003906,17.9117585 23.2064056,18.2177734 23.5839844,18.2177734 C23.9615631,18.2177734 24.2675781,17.9117585 24.2675781,17.5341797 C24.2675781,15.8380127 22.8878403,14.4582748 21.1916733,14.4582748 L21.1916733,14.4582748 Z" id="Path"></path>
                <path d="M4.21398161,5.1886368 C4.04041292,4.85351562 3.62812044,4.72240446 3.29273226,4.89570621 C2.95734407,5.0692749 2.82623291,5.48183439 2.9998016,5.81722258 L4.83989714,9.37191008 C4.95899202,9.60208895 5.19985197,9.74281314 5.45726774,9.74121094 C5.71628572,9.73720549 5.95100406,9.58713533 6.06315609,9.35348511 L7.17720035,7.03407291 L8.38710783,9.37191008 C8.50486752,9.5988846 8.73905184,9.74121094 8.99433138,9.74121094 L9.00447844,9.74121094 C9.26376343,9.73720549 9.49821469,9.58713533 9.61063387,9.35348511 L11.317749,5.79879761 C11.4811707,5.45860287 11.3377762,5.05004883 10.9975815,4.8866272 C10.6571198,4.72320557 10.2488327,4.86660002 10.0854111,5.20706177 L8.97136687,7.52647396 L7.7611923,5.1886368 C7.64209749,4.95845793 7.40177156,4.81719971 7.14408871,4.81933594 C6.88480379,4.82334139 6.65008545,4.97341154 6.53793335,5.20706177 L5.42415617,7.52647396 L4.21398161,5.1886368 Z" id="Path"></path>
                <path d="M8.61248015,1.40136719 C8.7924576,1.40136719 8.96869661,1.32820133 9.09580232,1.20109555 C9.22317505,1.0739899 9.2960739,0.897483809 9.2960739,0.717773437 C9.2960739,0.538063066 9.22317505,0.361556973 9.09580232,0.234451328 C8.96869661,0.107345547 8.7924576,0.0341796875 8.61248015,0.0341796875 C8.43276978,0.0341796875 8.25653076,0.107345547 8.12942505,0.234451328 C8.00205232,0.361556973 7.9288864,0.538063066 7.9288864,0.717773437 C7.9288864,0.897483809 8.00205232,1.0739899 8.12942505,1.20109555 C8.25653076,1.32820133 8.43276978,1.40136719 8.61248015,1.40136719 Z" id="Path"></path>
                <path d="M35,11.7919922 L35,2.76855469 C35,1.26091 33.7732697,0.0341796875 32.265625,0.0341796875 L11.4835739,0.0341796875 C11.1062622,0.0341796875 10.7999801,0.340194668 10.7999801,0.717773437 C10.7999801,1.09535221 11.1062622,1.40136719 11.4835739,1.40136719 L32.265625,1.40136719 C33.0194473,1.40136719 33.6328125,2.01473234 33.6328125,2.76855469 L33.6328125,11.7919922 C33.6328125,12.5458145 33.0194473,13.1591797 32.265625,13.1591797 L28.984375,13.1591797 C28.9646149,13.1591797 28.9453888,13.1605148 28.9261628,13.162117 C27.8711319,11.3030624 26.1656189,9.86003874 24.1209793,9.14413452 L25.1343537,7.03433992 L26.3445282,9.37191008 C26.4620208,9.59915161 26.6962052,9.74121094 26.9514847,9.74121094 L26.9618988,9.74121094 C27.2209167,9.73720549 27.4556351,9.58713533 27.5677872,9.35348511 L29.2749023,5.79879761 C29.438324,5.45860287 29.2949295,5.05031584 28.9547348,4.88689421 C28.6145401,4.72320557 28.205986,4.86660002 28.0425644,5.20706177 L26.9287873,7.52647396 L25.7186126,5.1886368 C25.5995178,4.95845793 25.3594589,4.81719971 25.101242,4.81960295 C24.8419571,4.82334139 24.6075058,4.97341154 24.4953537,5.20706177 L23.3813095,7.52647396 L22.171402,5.1886368 C21.9978333,4.85351562 21.5852738,4.72240446 21.2498856,4.89597322 C20.9144974,5.06954191 20.7836532,5.48183439 20.9569549,5.81722258 L22.4699402,8.73985287 C22.0525741,8.67950439 21.6258621,8.64746094 21.1919403,8.64746094 C20.3516007,8.64746094 19.5379639,8.76495361 18.7667847,8.98391724 L20.2965927,5.79879761 C20.4600143,5.45860287 20.3166199,5.05031584 19.9761581,4.88689421 C19.6359635,4.72320557 19.2274093,4.86660002 19.0642547,5.20706177 L17.9502106,7.52647396 L16.740036,5.1886368 C16.6209412,4.95845793 16.3819504,4.81719971 16.1226654,4.81960295 C15.8636475,4.82334139 15.6289291,4.97341154 15.516777,5.20706177 L14.4029998,7.52647396 L13.1928254,5.1886368 C13.0192566,4.85351562 12.6069641,4.72240446 12.2715759,4.89597322 C11.9361877,5.06954191 11.8050766,5.48183439 11.9786453,5.81722258 L13.8187409,9.37191008 C13.9378357,9.60208895 14.1776276,9.74281314 14.4361115,9.74121094 C14.6951294,9.73720549 14.9298477,9.58713533 15.0419998,9.35348511 L16.156044,7.03433992 L17.3659515,9.37191008 C17.3862458,9.41116333 17.4110794,9.44667814 17.4380493,9.48059082 C15.7616424,10.2651214 14.3688202,11.5575409 13.4590531,13.1591797 L2.734375,13.1591797 C1.98055266,13.1591797 1.3671875,12.5458145 1.3671875,11.7919922 L1.3671875,2.76855469 C1.3671875,2.01473234 1.98055266,1.40136719 2.734375,1.40136719 L5.53657535,1.40136719 C5.91415405,1.40136719 6.2201691,1.09535221 6.2201691,0.717773437 C6.2201691,0.340194668 5.91415405,0.0341796875 5.53657535,0.0341796875 L2.734375,0.0341796875 C1.22673031,0.0341796875 2.84217094e-14,1.26091 2.84217094e-14,2.76855469 L2.84217094e-14,11.7919922 C2.84217094e-14,13.2999039 1.22673031,14.5263672 2.734375,14.5263672 L12.8293991,14.5263672 C12.4902725,15.4663086 12.3049545,16.4788818 12.3049545,17.5341797 C12.3049545,22.4344254 16.2914276,26.4208984 21.1916733,26.4208984 C22.801857,26.4208984 24.3135071,25.990448 25.6174088,25.2384949 L31.0429001,30.6639862 C31.4947128,31.115799 32.0883179,31.3417053 32.6819229,31.3417053 C33.275528,31.3417053 33.869133,31.115799 34.3209457,30.6639862 C35.2248382,29.7600937 35.2248382,28.2895661 34.3209457,27.3856735 L32.1892547,25.2539826 C31.9222259,24.9872208 31.4893722,24.9869538 31.2226105,25.2539826 C30.9555817,25.5210114 30.9555817,25.953598 31.2226105,26.2206268 L33.3543014,28.3525848 C33.7249374,28.7232209 33.7249374,29.3264389 33.3543014,29.697342 C32.9836654,30.0679779 32.3804474,30.0679779 32.0098114,29.697342 L26.7640304,24.4512939 C28.7838363,22.8210831 30.078392,20.3262329 30.078392,17.5341797 C30.078392,16.4788818 29.8930741,15.4663086 29.5539474,14.5263672 L32.265625,14.5263672 C33.7735367,14.5263672 35,13.2996369 35,11.7919922 Z M21.1916733,25.0537109 C17.0455169,25.0537109 13.672142,21.680336 13.672142,17.5341797 C13.672142,13.3880234 17.0455169,10.0146484 21.1916733,10.0146484 C25.3378296,10.0146484 28.7112045,13.3880234 28.7112045,17.5341797 C28.7112045,21.680336 25.3380966,25.0537109 21.1916733,25.0537109 Z" id="Shape"></path>
                <path d="M29.6009445,23.6325837 C29.4738388,23.7596893 29.4006729,23.9359284 29.4006729,24.1159058 C29.4006729,24.2956161 29.4738388,24.4718551 29.6009445,24.5992279 C29.7288513,24.7263337 29.9045563,24.7994995 30.0842667,24.7994995 C30.2639771,24.7994995 30.4404831,24.7263337 30.5675888,24.5992279 C30.6954956,24.4718551 30.7678604,24.2956161 30.7678604,24.1159058 C30.7678604,23.9359284 30.6954956,23.7596893 30.5675888,23.6325837 C30.4404831,23.5054779 30.2647782,23.432312 30.0842667,23.432312 C29.9045563,23.432312 29.7280502,23.5054779 29.6009445,23.6325837 Z" id="Path"></path>
            </g>
        </g>
    </g>
</svg>