<?xml version="1.0" encoding="UTF-8"?>
<svg width="35px" height="31px" viewBox="0 0 35 31" version="1.1" xmlns="http://www.w3.org/2000/svg" xmlns:xlink="http://www.w3.org/1999/xlink">
    <!-- Generator: Sketch 53.2 (72643) - https://sketchapp.com -->
    <title>Combined Shape 2</title>
    <desc>Created with Sketch.</desc>
    <g id="design-v2" stroke="none" stroke-width="1" fill="none" fill-rule="evenodd">
        <g id="item-v2" transform="translate(-323.000000, -854.000000)" fill="#4A7CB2">
            <g id="SUPPLIERS" transform="translate(323.000000, 844.000000)">
                <g id="TITLE-suppliers">
                    <g id="Combined-Shape-2" transform="translate(0.000000, 10.000000)">
                        <path d="M34.8410126,21.5932304 C34.839372,21.5948027 34.8378681,21.5965117 34.8362275,21.598289 C34.8264521,21.6073807 34.8159932,21.6157889 34.8054659,21.6241971 C34.8028683,21.6262478 34.8005441,21.628572 34.7978781,21.6306228 C34.7895383,21.6369118 34.7805832,21.6425856 34.7718333,21.6484645 C34.7665013,21.6519508 34.7614427,21.6559156 34.755974,21.6593336 C34.7463354,21.6652125 34.7362182,21.6703394 34.7261011,21.675603 C34.7209058,21.6783374 34.7160523,21.6814136 34.7107887,21.6839428 C34.6984157,21.6899584 34.6854959,21.6950854 34.6724393,21.7001439 C34.6690897,21.7014427 34.6659452,21.7030834 34.6625272,21.7043138 L34.6624589,21.7043138 C34.6623905,21.7043822 34.6623222,21.7043822 34.6623222,21.7043822 L21.7970888,26.3827359 C21.7860146,26.9715803 21.6529196,27.5568702 21.3965734,28.1066133 C20.9142322,29.140885 20.0581724,29.9253046 18.9857563,30.3156346 C18.5141475,30.487284 18.0226463,30.5743051 17.524856,30.5743051 C15.735559,30.5743051 14.1220813,29.444194 13.5098581,27.7622206 C12.8895001,26.0579622 13.4265968,24.2106284 14.7162578,23.0825681 L7.48640424,3.21928654 L1.38966953,5.41825906 C1.38946445,5.41832741 1.38925938,5.41846413 1.3890543,5.41853249 C1.38878086,5.41860085 1.38850743,5.41873757 1.38823399,5.41880593 L1.38768712,5.419011 C1.38317543,5.42065162 1.37859537,5.42188208 1.37401532,5.42331762 C1.36430834,5.4265305 1.35466972,5.42988009 1.34489438,5.43240937 C1.33573428,5.43487029 1.32650581,5.43664763 1.31727734,5.43856168 C1.31194534,5.43965542 1.30661334,5.44109096 1.30128134,5.44204799 C1.28966031,5.4440304 1.27810763,5.44532922 1.2664866,5.44655968 C1.26347881,5.44683312 1.26053937,5.44744835 1.25753157,5.44772179 C1.24290274,5.44888389 1.22834228,5.44956748 1.21385017,5.44956748 C1.18760031,5.44956748 1.16155553,5.44758507 1.13598926,5.44355189 C1.13045218,5.44273158 1.12512018,5.44081753 1.11965146,5.43979214 C1.09969063,5.43596404 1.07986651,5.43206757 1.06058927,5.42598362 C1.0550522,5.42420629 1.04992527,5.42147193 1.04445655,5.41955788 C1.02565782,5.41299541 1.0068591,5.40622787 0.988949036,5.39747792 C0.983685393,5.39488028 0.978900262,5.39132561 0.973704978,5.38859125 C0.956205072,5.37936278 0.938705166,5.36986088 0.922367364,5.35858164 C0.916761925,5.35475354 0.911840077,5.34990005 0.906371356,5.34573015 C0.891264016,5.33438255 0.876019957,5.32303496 0.862143079,5.30997839 C0.856127487,5.30430459 0.851137279,5.29753705 0.845395123,5.29158982 C0.833090501,5.27887504 0.820512444,5.26629698 0.809506644,5.25214667 C0.803217616,5.24414867 0.798295767,5.2349202 0.792485252,5.22651204 C0.783256786,5.21304532 0.773618166,5.20019383 0.765620162,5.18577007 C0.759946365,5.17558458 0.755913183,5.16423699 0.750922976,5.15357298 C0.744565588,5.13983282 0.737319533,5.12663953 0.73205589,5.11214742 L0.0306241253,3.18510703 C0.0304874072,3.18476524 0.0304190482,3.1844918 0.0303506892,3.18415001 C0.0302823302,3.18401329 0.0302139712,3.18380821 0.0301456122,3.1836715 C0.027479611,3.17622036 0.0256339178,3.16863251 0.0233097116,3.16118138 C0.0205069923,3.15215799 0.017294119,3.14320296 0.0150382718,3.13411122 C0.0131242196,3.12638665 0.0119621165,3.11859372 0.0103898594,3.11086915 C0.00854416619,3.10177741 0.00635667799,3.09268566 0.00498949786,3.08359391 C0.00389575376,3.0759377 0.00348559972,3.06828149 0.00273365065,3.06069364 C0.00184498356,3.05153354 0.000546162442,3.04230507 0.000136008404,3.03314496 C-0.000205786628,3.0254204 0.00020436741,3.01769583 0.00020436741,3.00997126 C0.00020436741,3.00094787 -0.000137427622,2.99192448 0.000341085423,2.98290109 C0.000751239461,2.97517653 0.00191334257,2.96752032 0.00266529164,2.95986411 C0.00355395872,2.9510458 0.00403247177,2.94215913 0.0053996519,2.93340917 C0.00656175501,2.92582132 0.00840744818,2.91830183 0.00991134632,2.91078234 C0.0116203215,2.90216911 0.0130558606,2.89341915 0.0151749898,2.88494264 C0.017020683,2.87769658 0.0194816072,2.8706556 0.0216007364,2.86354627 C0.0241300197,2.85493303 0.0264542259,2.84618308 0.0294620222,2.83770656 C0.0317862284,2.83100738 0.0347940247,2.82471835 0.0374600259,2.81808753 C0.0410146942,2.80940594 0.0442275675,2.80065598 0.0481923899,2.79217947 C0.0510634682,2.78609551 0.0544814185,2.780285 0.0575575738,2.77433776 C0.0620009092,2.76572453 0.0662391676,2.75697458 0.0711610161,2.74863478 C0.0744422484,2.7430977 0.0782703527,2.73790241 0.081756662,2.73243369 C0.0871570236,2.72402554 0.092352308,2.71554902 0.0982311826,2.70748266 C0.101717492,2.70262917 0.105750673,2.69811747 0.10944206,2.69346906 C0.115936165,2.68519762 0.122293553,2.67678946 0.129266172,2.66892818 C0.133162635,2.6645532 0.137469252,2.66065674 0.141502434,2.65635012 C0.148885206,2.64862555 0.156131261,2.64062755 0.164060906,2.63344985 C0.168162446,2.62955339 0.1727425,2.62627216 0.176980758,2.62251241 C0.185388916,2.615198 0.193660356,2.60781523 0.202547026,2.60104768 C0.206648567,2.59803989 0.211160261,2.59523717 0.21539852,2.59229773 C0.22496878,2.58553019 0.234402323,2.57862593 0.244519456,2.57254198 C0.248757715,2.56987598 0.253337768,2.56775685 0.257644386,2.56529592 C0.268171673,2.55928033 0.278698959,2.55312802 0.289773119,2.54779602 C0.294011377,2.54574525 0.298523071,2.54424135 0.302829689,2.5423273 C0.314108925,2.53726873 0.325319802,2.53214181 0.33714591,2.52783519 C0.337556064,2.52769847 0.337897859,2.52763011 0.338239654,2.52749339 C0.338376372,2.52735667 0.33851309,2.52735667 0.338581449,2.52735667 L6.91622176,0.154957358 C6.91642684,0.154888999 6.91663192,0.154752281 6.91683699,0.154683922 C8.24518921,-0.328614254 9.71900938,0.358598838 10.2024443,1.68674597 L17.6064766,22.0290875 C18.0049413,22.036812 18.3939724,22.1003859 18.7644098,22.2135884 L12.8027525,5.83299315 C12.7555848,5.70440986 12.7617371,5.56502584 12.8198423,5.44061245 C12.8779474,5.31688265 12.9804859,5.22254722 13.1090009,5.1760631 L17.5980685,3.54207777 C17.6005977,3.54112074 17.6029903,3.53989028 17.6055196,3.53893325 C17.6070235,3.53838638 17.6085274,3.53824966 17.6100313,3.53770279 L20.1711015,2.60549102 C20.1724686,2.60494415 20.1736991,2.60426056 20.1750663,2.60378204 C20.1758182,2.60357697 20.1766385,2.60350861 20.1773905,2.60316681 L24.6715167,0.967267431 C24.727571,0.946759729 24.7870434,0.936505878 24.8465157,0.936505878 C24.8733124,0.936505878 24.8998357,0.938625007 24.9258122,0.942726547 C25.1077155,0.97143733 25.2638474,1.09714954 25.3284467,1.27358414 L26.2635979,3.84313083 C26.3599157,4.10897901 26.2225825,4.40367468 25.9573496,4.49999252 C25.9006116,4.52125217 25.8411393,4.53150602 25.7816669,4.53150602 C25.5670196,4.53150602 25.3735636,4.3954716 25.2997359,4.19381253 L24.5399939,2.10674371 L21.0074739,3.39237154 L21.7670792,5.4797138 C21.7730264,5.49611996 21.778085,5.51259448 21.7822549,5.52920572 C21.7831436,5.53296547 21.7836221,5.53652014 21.7845107,5.54027988 C21.7875869,5.55347317 21.790458,5.56687154 21.7924404,5.58020154 C21.7925087,5.58068005 21.7925087,5.58122693 21.7925771,5.5817738 C21.8068641,5.67973226 21.7928505,5.78001492 21.7499211,5.87202614 C21.6918159,5.99575594 21.5892774,6.09009137 21.4607625,6.13657549 L18.8912158,7.07165834 C18.8344778,7.09291799 18.7756891,7.10317185 18.7155331,7.10317185 C18.5008859,7.10317185 18.3074982,6.96706906 18.2343541,6.76540999 L17.4744754,4.67813609 L13.9412034,5.96403736 L16.6301049,13.3505698 L20.6440091,11.8897378 C20.6442141,11.8897378 20.6443509,11.8896011 20.6445559,11.8895328 C20.6446927,11.8894644 20.6448294,11.8894644 20.6448977,11.8894644 L27.2288954,9.49320779 L26.0010993,6.12092128 C25.9047131,5.85568834 26.0421147,5.56037743 26.3079629,5.46399123 C26.3640173,5.44348353 26.4234896,5.43322968 26.482962,5.43322968 C26.6976092,5.43322968 26.8910652,5.56864887 26.964893,5.77030794 L28.3672096,9.62356841 C28.367278,9.62377349 28.367483,9.62397857 28.3675514,9.624252 L31.9339775,19.4233789 L33.6104821,18.8136849 C33.7248467,18.7719859 33.8444066,18.7739683 33.9511834,18.8105404 C33.9530291,18.8110872 33.9549432,18.8114974 33.9567205,18.812181 C33.96424,18.814847 33.971486,18.8182649 33.9788688,18.8212727 C33.9867301,18.8244856 33.9947281,18.8272883 34.0023843,18.8309113 C34.0034097,18.8313899 34.0044351,18.8320051 34.0054605,18.8324836 C34.1229012,18.8882645 34.2194242,18.9882738 34.2674122,19.1201383 L34.9689123,21.0471787 C34.9991953,21.1303716 35.0066465,21.2163672 34.9943418,21.2981246 C34.9938633,21.3014742 34.9929063,21.3047554 34.9923594,21.3081734 C34.9901719,21.3210249 34.9878477,21.3338764 34.9847032,21.3465228 C34.9825841,21.3550677 34.9796447,21.3634075 34.977047,21.3718156 C34.9748595,21.3790617 34.9730138,21.3864444 34.9704846,21.3936221 C34.9667248,21.4040127 34.9622815,21.4141298 34.9579065,21.424247 C34.9558557,21.4291688 34.9540784,21.4342957 34.9518225,21.4391492 C34.946012,21.4515222 34.9395179,21.463485 34.9327504,21.4753795 C34.9313832,21.4777721 34.9302895,21.4803014 34.9289223,21.4826256 C34.9213344,21.4955454 34.9129946,21.5079868 34.904313,21.520223 C34.9034927,21.5214535 34.9028091,21.5227523 34.9019205,21.5239144 C34.8939225,21.5349202 34.8852409,21.5454475 34.8763542,21.5558381 C34.8744402,21.5580255 34.8728679,21.5604181 34.8709538,21.5625372 C34.8614519,21.5732012 34.8513348,21.58325 34.8410126,21.5932304 Z M20.4671643,27.6732172 C20.8337737,26.887157 20.8722598,26.0053941 20.5755817,25.1904864 C20.1103303,23.9118996 18.8839697,23.0529003 17.5241724,23.0529003 C17.1462838,23.0529003 16.7727702,23.1191402 16.4139538,23.2497742 C14.7315019,23.8622026 13.8610183,25.7291554 14.4733783,27.4114705 C14.9386297,28.689989 16.1649219,29.5489883 17.5247876,29.5489883 C17.9026078,29.5489883 18.2761898,29.4827484 18.6350062,29.3521144 C19.4499823,29.0555046 20.1006917,28.459209 20.4671643,27.6732172 Z M17.5243775,24.7626274 C18.1685244,24.7626274 18.7493708,25.1694319 18.9696919,25.7749559 C19.2597392,26.5718169 18.8473977,27.4561773 18.0505367,27.746293 C17.880938,27.8078844 17.7040249,27.8391928 17.5246509,27.8391928 C16.880504,27.8391928 16.2996575,27.4324568 16.0792681,26.827001 C15.7892892,26.0300717 16.2016307,25.1457113 16.9984233,24.8555957 C17.1680903,24.7939358 17.3450034,24.7626274 17.5243775,24.7626274 Z M21.5391019,24.8398047 C21.5982324,25.0022257 21.645947,25.1666975 21.6849117,25.3323997 L33.8299145,20.9159294 L33.4791645,19.9524092 L21.3343667,24.3687428 C21.4113389,24.5203631 21.4800397,24.6774521 21.5391019,24.8398047 Z M8.27533553,2.38810938 L15.5920734,22.4914678 C15.7432835,22.4149057 15.8998257,22.3455213 16.0629986,22.2861173 C16.2249411,22.2271235 16.3893445,22.1789304 16.5553885,22.1401025 L9.23865065,2.03735932 C8.94860338,1.24036166 8.06437963,0.828020135 7.26731362,1.1180674 C7.26690347,1.11820412 7.26656167,1.11827248 7.26621988,1.11840919 C7.26608316,1.11840919 7.2660148,1.11847755 7.26587808,1.11854591 L1.16989533,3.31724499 L1.52064539,4.28090191 L7.61738009,2.08192939 C7.61758517,2.08186103 7.61779025,2.08172431 7.61799532,2.08165595 C7.61826876,2.08158759 7.6185422,2.08151924 7.61874727,2.08145088 L7.61943086,2.08117744 C7.62448943,2.07940011 7.62961635,2.07816964 7.63467492,2.07652903 C7.64609087,2.072906 7.65750683,2.06900954 7.66899114,2.06613846 C7.67910827,2.06360918 7.68929377,2.0619002 7.6994109,2.06005451 C7.70604172,2.05875569 7.71260419,2.05711507 7.71923501,2.05608968 C7.73304353,2.05403891 7.74685205,2.05294517 7.76066057,2.0520565 C7.76360001,2.05185143 7.76653944,2.05130455 7.76947888,2.05116784 C7.78554325,2.05041589 7.8014709,2.05048425 7.81733019,2.0512362 C7.81808213,2.05130455 7.81876572,2.0512362 7.81951767,2.0512362 C7.90154848,2.05554281 7.98084493,2.07953682 8.05084455,2.12021043 C8.05180158,2.12068895 8.05282696,2.12116746 8.05378399,2.12171433 C8.06636205,2.12916546 8.07852995,2.13723183 8.09042442,2.14570834 C8.09192831,2.14687045 8.09356893,2.14769075 8.09507283,2.1487845 C8.10566847,2.15644071 8.11578561,2.16484886 8.12576602,2.17339374 C8.12836366,2.17558123 8.13116638,2.17756364 8.13376403,2.17981949 C8.14278742,2.18781749 8.15119557,2.19643072 8.15967209,2.20504396 C8.16288496,2.20832519 8.16637127,2.21133299 8.16944743,2.21468258 C8.177172,2.22295402 8.18421297,2.23177233 8.19132231,2.24059064 C8.19474026,2.24489726 8.19850001,2.24879372 8.20178124,2.2531687 C8.20813863,2.26144014 8.21374406,2.27032681 8.21955458,2.27907676 C8.22317761,2.28447713 8.22707407,2.28953569 8.23049202,2.29507277 C8.23541387,2.30313913 8.23972049,2.31175237 8.24423218,2.32016053 C8.24785521,2.32692807 8.25182003,2.33335381 8.25516962,2.34039479 C8.25886101,2.34811936 8.2618688,2.35625408 8.2652184,2.36411537 C8.26856799,2.37218173 8.27232773,2.3799063 8.27533553,2.38810938 Z M16.9809917,14.3141584 L20.1055452,22.8995027 C20.3365986,23.0747068 20.5494686,23.273905 20.7415574,23.493269 L30.9707307,19.773377 L27.5797822,10.4568647 L24.0465103,11.7428343 L24.8062523,13.8299715 C24.903322,14.095888 24.7659204,14.390447 24.5000039,14.4868332 L21.9305256,15.4219844 C21.8737876,15.4425605 21.8149988,15.4534296 21.7555265,15.4534296 C21.5401956,15.4534296 21.3467397,15.3174635 21.2735955,15.1158044 L20.5137168,13.0285305 L16.9809917,14.3141584 Z M20.6280814,5.34880631 L20.0440221,3.74305324 L18.4377221,4.32759111 L19.0221916,5.93327581 L20.6280814,5.34880631 Z M22.0614331,14.2836019 L23.6678014,13.699064 L23.0832635,12.0934477 L21.4771003,12.6779172 L22.0614331,14.2836019 Z M17.699855,26.7827044 C17.9654981,26.6859764 18.1028997,26.3912124 18.0061717,26.1256376 C17.9326858,25.9236368 17.7390247,25.7880809 17.5243091,25.7880809 C17.4649051,25.7880809 17.4059113,25.7985398 17.349105,25.8192526 C17.0835302,25.9158438 16.9460603,26.2106762 17.0427199,26.4763193 C17.1162058,26.6782518 17.3098669,26.8138761 17.5246509,26.8138761 C17.5840549,26.8138761 17.6430487,26.8034172 17.699855,26.7827044 Z" id="Combined-Shape"></path>
                    </g>
                </g>
            </g>
        </g>
    </g>
</svg>