<?xml version="1.0" encoding="UTF-8"?>
<svg width="35px" height="32px" viewBox="0 0 35 32" version="1.1" xmlns="http://www.w3.org/2000/svg" xmlns:xlink="http://www.w3.org/1999/xlink">
    <!-- Generator: Sketch 53.2 (72643) - https://sketchapp.com -->
    <title>title-gym-equipment</title>
    <desc>Created with Sketch.</desc>
    <g id="Page-1" stroke="none" stroke-width="1" fill="none" fill-rule="evenodd">
        <g id="title-gym-equipment" fill="#4A7CB2" fill-rule="nonzero">
            <path d="M0,31.2666667 L35,31.2666667 L35,0 L0,0 L0,31.2666667 Z M0.933333333,0.933333333 L34.0597168,0.933333333 L34.0597168,28.9333333 L0.933333333,28.9333333 L0.933333333,0.933333333 Z" id="Shape"></path>
            <polygon id="Path" points="3.5 6.3 5.25 6.3 5.25 5.13333333 2.33333333 5.13333333 2.33333333 8.63333333 3.5 8.63333333"></polygon>
            <rect id="Rectangle" x="2.33333333" y="9.8" width="1.16666667" height="1.16666667"></rect>
            <polygon id="Path" points="8.16666667 18.55 9.33333333 18.55 9.33333333 17.9666667 10.5 17.9666667 10.5 18.7728333 8.16666667 19.9395 8.16666667 22.6333333 11.6666667 22.6333333 11.6666667 21.4666667 9.33333333 21.4666667 9.33333333 20.6605 11.6666667 19.4938333 11.6666667 16.8 8.16666667 16.8"></polygon>
            <polygon id="Path" points="22.75 18.55 23.9166667 18.55 23.9166667 17.9666667 25.0833333 17.9666667 25.0833333 18.7728333 22.75 19.9395 22.75 22.6333333 26.25 22.6333333 26.25 21.4666667 23.9166667 21.4666667 23.9166667 20.6605 26.25 19.4938333 26.25 16.8 22.75 16.8"></polygon>
            <path d="M30.3333333,10.9666667 L20.4166667,10.9666667 L20.4166667,14.4666667 L19.25,14.4666667 L19.25,9.8 L24.5,9.8 L24.5,5.13333333 L10.5,5.13333333 L10.5,9.8 L15.75,9.8 L15.75,14.4666667 L14.5833333,14.4666667 L14.5833333,10.9666667 L4.66666667,10.9666667 L4.66666667,14.4666667 L2.33333333,14.4666667 L2.33333333,24.9666667 L32.6666667,24.9666667 L32.6666667,14.4666667 L30.3333333,14.4666667 L30.3333333,10.9666667 Z M21.5833333,12.1333333 L29.1666667,12.1333333 L29.1666667,14.4666667 L21.5833333,14.4666667 L21.5833333,12.1333333 Z M11.6666667,8.63333333 L11.6666667,6.3 L23.3333333,6.3 L23.3333333,8.63333333 L11.6666667,8.63333333 Z M5.83333333,12.1333333 L13.4166667,12.1333333 L13.4166667,14.4666667 L5.83333333,14.4666667 L5.83333333,12.1333333 Z M16.9166667,23.8 L3.5,23.8 L3.5,15.6333333 L16.9166667,15.6333333 L16.9166667,23.8 Z M16.9166667,14.4666667 L16.9166667,9.8 L18.0833333,9.8 L18.0833333,14.4666667 L16.9166667,14.4666667 Z M31.5,15.6333333 L31.5,23.8 L18.0833333,23.8 L18.0833333,15.6333333 L31.5,15.6333333 Z" id="Shape"></path>
            <rect id="Rectangle" x="31.5" y="5.13333333" width="1.16666667" height="1.16666667"></rect>
            <rect id="Rectangle" x="29.1666667" y="5.13333333" width="1.16666667" height="1.16666667"></rect>
        </g>
    </g>
</svg>