<?xml version="1.0" encoding="UTF-8"?>
<svg width="35px" height="35px" viewBox="0 0 35 35" version="1.1" xmlns="http://www.w3.org/2000/svg" xmlns:xlink="http://www.w3.org/1999/xlink">
    <!-- Generator: Sketch 53.2 (72643) - https://sketchapp.com -->
    <title>003-information</title>
    <desc>Created with Sketch.</desc>
    <g id="design-v2" stroke="none" stroke-width="1" fill="none" fill-rule="evenodd">
        <g id="item-v2" transform="translate(-232.000000, -351.000000)" fill="#4A7CB2" fill-rule="nonzero">
            <g id="003-information" transform="translate(232.000000, 351.000000)">
                <path d="M30.9180592,27.4586317 C31.289605,27.7080169 31.7931225,27.6089591 32.0421912,27.2370967 C33.9771412,24.3527108 35,20.9856952 35,17.5 C35,12.8256113 33.1796152,8.43098958 29.8743128,5.12537075 C26.5690104,1.82038484 22.1743887,0 17.5,0 C12.8256113,0 8.43098958,1.82038484 5.12568721,5.12568721 C1.82038484,8.43098958 0,12.8256113 0,17.5 C0,22.1743887 1.82038484,26.5690104 5.12568721,29.8743128 C8.43098958,33.1796152 12.8256113,35 17.5,35 C20.9863281,35 24.3536603,33.9771412 27.2380461,32.0418746 C27.609592,31.7924895 27.7086498,31.2892886 27.4592647,30.9177427 C27.2098795,30.5461969 26.7063621,30.4471391 26.3351327,30.6965241 C23.7188042,32.4517144 20.6638364,33.3796296 17.5,33.3796296 C8.74398689,33.3796296 1.62037037,26.2560131 1.62037037,17.5 C1.62037037,8.74398689 8.74398689,1.62037037 17.5,1.62037037 C26.2560131,1.62037037 33.3796296,8.74398689 33.3796296,17.5 C33.3796296,20.6632035 32.4520309,23.7181713 30.6965241,26.3344998 C30.4474555,26.7060456 30.5465133,27.2095631 30.9180592,27.4586317 Z" id="Path"></path>
                <path d="M28.7023926,28.756194 L28.7020761,28.7565104 C28.4011049,29.0875471 28.4254738,29.5996094 28.7568269,29.9005805 C28.9119014,30.0417299 29.1068522,30.1113552 29.3014865,30.1113552 C29.5217556,30.1113552 29.7413918,30.0217919 29.9015299,29.8461462 C30.2025011,29.5151096 30.1778158,29.0024143 29.8467791,28.7014431 C29.5157426,28.400472 29.0033637,28.4248409 28.7023926,28.756194 L28.7023926,28.756194 Z" id="Path"></path>
                <path d="M13.0518934,26.412037 C13.0518934,27.7523239 14.1421622,28.8425926 15.482449,28.8425926 L19.517551,28.8425926 C20.8578378,28.8425926 21.9481066,27.7523239 21.9481066,26.412037 C21.9481066,25.2125831 21.0749421,24.2131438 19.9305556,24.0166106 L19.9305556,15.0694444 C19.9305556,13.7294741 18.8402868,12.6388889 17.5,12.6388889 L15.482449,12.6388889 C14.1421622,12.6388889 13.0518934,13.7294741 13.0518934,15.0694444 C13.0518934,16.2692148 13.9253743,17.2683377 15.0694444,17.4648709 L15.0694444,24.0166106 C13.9250579,24.2131438 13.0518934,25.2125831 13.0518934,26.412037 Z M15.8796296,15.8796296 L15.482449,15.8796296 C15.0355812,15.8796296 14.6722638,15.5163122 14.6722638,15.0694444 C14.6722638,14.6228931 15.0355812,14.2592593 15.482449,14.2592593 L17.5,14.2592593 C17.9468678,14.2592593 18.3101852,14.6228931 18.3101852,15.0694444 L18.3101852,24.7916667 C18.3101852,25.2391674 18.6728696,25.6018519 19.1203704,25.6018519 L19.517551,25.6018519 C19.9644188,25.6018519 20.3277362,25.9654857 20.3277362,26.412037 C20.3277362,26.8589048 19.9644188,27.2222222 19.517551,27.2222222 L15.482449,27.2222222 C15.0355812,27.2222222 14.6719473,26.8589048 14.6719473,26.412037 C14.6719473,25.9654857 15.0355812,25.6018519 15.482449,25.6018519 L15.8796296,25.6018519 C16.3268139,25.6018519 16.6898148,25.2391674 16.6898148,24.7916667 L16.6898148,16.6898148 C16.6898148,16.2423141 16.3271304,15.8796296 15.8796296,15.8796296 L15.8796296,15.8796296 Z" id="Shape"></path>
                <path d="M19.4444444,8.58796296 C19.4444444,7.24767612 18.3541757,6.15740741 17.0138889,6.15740741 C15.673602,6.15740741 14.5833333,7.24767612 14.5833333,8.58796296 C14.5833333,9.9282498 15.673602,11.0185185 17.0138889,11.0185185 C18.3541757,11.0185185 19.4444444,9.9282498 19.4444444,8.58796296 Z M16.2037037,8.58796296 C16.2037037,8.1410952 16.5670211,7.77777778 17.0138889,7.77777778 C17.4607567,7.77777778 17.8240741,8.1410952 17.8240741,8.58796296 C17.8240741,9.03451427 17.4607567,9.39814815 17.0138889,9.39814815 C16.5670211,9.39814815 16.2037037,9.03483073 16.2037037,8.58796296 Z" id="Shape"></path>
            </g>
        </g>
    </g>
</svg>