<?xml version="1.0" encoding="UTF-8"?>
<svg width="35px" height="35px" viewBox="0 0 35 35" version="1.1" xmlns="http://www.w3.org/2000/svg" xmlns:xlink="http://www.w3.org/1999/xlink">
    <!-- Generator: Sketch 53.2 (72643) - https://sketchapp.com -->
    <title>Combined Shape</title>
    <desc>Created with Sketch.</desc>
    <g id="design" stroke="none" stroke-width="1" fill="none" fill-rule="evenodd">
        <g id="catalogue-v2" transform="translate(-485.000000, -351.000000)" fill="#4A7CB2">
            <path d="M512.187589,380.185678 C512.423396,379.678481 512.388542,379.086703 512.094841,378.610714 L513.360645,376.078523 L516.7229,376.078523 L516.982477,376.597678 C515.794036,378.261087 514.118669,379.514714 512.187589,380.185678 Z M509.065661,381.362817 C506.567959,383.227909 503.535717,384.238511 500.418528,384.245 L498.749067,384.245 C495.631806,384.238511 492.599637,383.227909 490.101935,381.362817 L488.225395,379.955266 C487.96764,379.761969 487.915433,379.396373 488.108658,379.138619 C488.130241,379.109817 488.154521,379.083057 488.181062,379.058704 L489.842357,377.533323 C491.029923,376.450973 492.390371,375.575118 493.867264,374.942216 C493.955856,374.925664 494.039343,374.888696 494.111091,374.834302 C499.276097,372.700956 505.209261,373.753556 509.325238,377.533323 L510.988866,379.058704 C511.226278,379.276428 511.242246,379.645451 511.024449,379.882862 C511.000095,379.909403 510.973336,379.933611 510.944534,379.955266 L509.065661,381.362817 Z M489.838857,371.482546 L494.578331,366.745406 C496.081473,368.42019 497.03644,370.514673 497.315267,372.747767 C496.070681,372.930054 494.852928,373.263057 493.688768,373.739411 C492.266051,373.255182 490.956352,372.487388 489.838857,371.482546 Z M486.182609,363.039576 L487.124087,363.106657 C489.584822,363.278591 491.917299,364.268485 493.7506,365.918842 L489.02046,370.649566 C487.142097,368.56551 486.127485,365.844615 486.182609,363.039576 Z M504.654013,355.016595 L499.929123,359.741485 C498.277453,357.910153 497.285882,355.578988 497.112272,353.119056 L497.044607,352.177578 C499.849646,352.1226 502.570468,353.137722 504.654013,355.016595 Z M515.933668,363.828807 L515.916752,363.828807 C515.6563,363.828953 515.427566,364.001762 515.356182,364.252297 L514.26304,368.077709 L512.388834,368.942189 L509.500234,367.01665 L509.500234,364.716037 L512.751659,362.441089 C512.958519,362.294822 513.047402,362.031818 512.97157,361.790105 C514.074555,362.284104 515.078376,362.9749 515.933668,363.828807 Z M516.918312,364.995447 C517.974194,366.433622 518.619346,368.131666 518.784936,369.908166 L518.29028,370.155494 L515.42618,368.246288 L516.356575,364.995447 L516.918312,364.995447 Z M499.170224,372.585021 C499.123558,372.323693 499.079226,372.060033 499.05356,371.796372 L499.322471,371.931119 C499.547049,372.04319 499.818219,371.999003 499.995622,371.821455 L502.640394,369.177266 L504.93459,370.094829 L506.022482,373.902157 C506.033054,373.931687 506.046325,373.960197 506.062147,373.987322 C504.028986,373.057656 501.819371,372.577146 499.583798,372.578604 C499.446134,372.578604 499.309054,372.584437 499.171391,372.587937 L499.170224,372.585021 Z M497.249352,364.068552 L499.027894,365.847094 C498.366409,367.155918 497.973471,368.583957 497.872338,370.046996 C497.332694,368.519573 496.492932,367.115596 495.402562,365.917675 L497.249352,364.068552 Z M501.507586,362.610252 C500.863601,363.18752 500.289104,363.837849 499.795543,364.548041 C499.732982,364.599154 499.681723,364.662736 499.645046,364.734703 C499.638265,364.755557 499.632578,364.776775 499.62813,364.798285 L498.075333,363.245487 L499.92854,361.392281 C500.421445,361.840343 500.949933,362.247719 501.508753,362.610252 L501.507586,362.610252 Z M500.405112,365.766596 L500.871768,365.999924 L501.813246,368.353036 L499.467134,370.702064 L499.016811,370.476903 C499.074049,368.81466 499.551715,367.194125 500.405112,365.766596 Z M505.348747,369.006354 L502.94897,368.046209 L501.875661,365.362938 C501.822579,365.230014 501.72254,365.121225 501.594501,365.057279 L501.069513,364.793618 C502.067355,363.49493 503.370054,362.462308 504.862259,361.787188 C504.786427,362.028901 504.87531,362.291905 505.08217,362.438173 L508.333595,364.716037 L508.333595,367.01665 L505.348747,369.006354 Z M511.67835,369.87375 C511.683017,369.886 511.68185,369.898833 511.687684,369.911083 C511.698402,369.93128 511.710506,369.950749 511.723849,369.969415 L510.810371,373.161924 L507.023458,373.161924 L506.094813,369.911083 L508.916915,368.02871 L511.67835,369.87375 Z M511.57277,361.287283 L511.724433,361.737023 L508.916915,363.699894 L506.109396,361.734106 L506.26106,361.284366 C507.996873,360.788107 509.836956,360.788107 511.57277,361.284366 L511.57277,361.287283 Z M505.485828,355.837326 C506.521147,356.984424 507.304837,358.335612 507.786441,359.803901 C505.867392,360.002302 504.034163,360.701776 502.470647,361.832104 C501.859328,361.466362 501.284685,361.042653 500.754521,360.566883 L505.485828,355.837326 Z M495.948549,353.201887 C496.141117,355.942324 497.252342,358.537805 499.102559,360.568633 L497.250519,362.420673 L489.847024,355.016595 C491.527714,353.500255 493.634738,352.538653 495.881467,352.262742 L495.948549,353.201887 Z M489.02221,355.841409 L496.425704,363.245487 L494.578331,365.092861 C492.545607,363.2433 489.948521,362.133534 487.206918,361.942934 L486.26719,361.875853 C486.543538,359.629051 487.505505,357.521954 489.02221,355.841409 Z M511.240861,377.711818 L510.11097,376.673509 C509.100077,375.747781 507.971499,374.959278 506.754548,374.328564 L511.008699,374.328564 L512.292003,375.611867 L511.240861,377.711818 Z M517.608379,375.234459 C517.509069,375.035693 517.305564,374.910644 517.083392,374.911883 L513.241648,374.911883 L511.905262,373.575498 L512.933655,369.975831 L514.698197,369.1621 L517.926289,371.313967 C518.100118,371.429756 518.322582,371.443756 518.509609,371.350716 L518.814685,371.197886 C518.763571,372.673102 518.382664,374.118131 517.699961,375.426955 L517.608379,375.234459 Z M519.961492,370.070329 C519.994449,370.169056 519.999845,370.274929 519.977241,370.376572 C519.983074,370.527652 519.999991,370.675815 519.999991,370.828645 C520.007136,376.367412 515.915221,381.056939 510.426546,381.800307 L509.766228,382.295545 C507.06626,384.311936 503.788367,385.40464 500.418528,385.41164 L498.749067,385.41164 C495.378864,385.404859 492.100534,384.312155 489.400201,382.295545 L487.524244,380.888578 C487.43784,380.823684 487.357634,380.750987 487.284646,380.671364 C486.631619,379.958839 486.679889,378.851844 487.392414,378.19889 L489.056625,376.673509 C490.017572,375.793353 491.084974,375.037151 492.233968,374.422478 C488.985242,372.963887 486.532309,370.163514 485.51427,366.751021 C483.580784,360.269536 487.267584,353.447829 493.749069,351.51427 C500.230481,349.580784 507.052187,353.267584 508.985746,359.749069 C514.77906,359.793401 519.56148,364.290651 519.961492,370.070329 Z M504.833676,378.411802 L504.250356,378.411802 L504.250356,377.828482 C504.250356,377.506271 503.989175,377.245163 503.667036,377.245163 C503.344898,377.245163 503.083717,377.506271 503.083717,377.828482 L503.083717,378.411802 L501.917077,378.411802 L501.917077,377.828482 C501.917077,377.506271 501.655896,377.245163 501.333757,377.245163 C501.011619,377.245163 500.750437,377.506271 500.750437,377.828482 L500.750437,378.411802 L499.583798,378.411802 L499.583798,377.828482 C499.583798,377.506271 499.322616,377.245163 499.000478,377.245163 C498.67834,377.245163 498.417158,377.506271 498.417158,377.828482 L498.417158,378.411802 L497.250519,378.411802 L497.250519,377.828482 C497.250519,377.506271 496.989337,377.245163 496.667199,377.245163 C496.34506,377.245163 496.083879,377.506271 496.083879,377.828482 L496.083879,378.411802 L494.917239,378.411802 L494.917239,377.828482 C494.917239,377.506271 494.656058,377.245163 494.33392,377.245163 C494.011781,377.245163 493.7506,377.506271 493.7506,377.828482 L493.7506,378.411802 L493.16728,378.411802 C492.845142,378.411802 492.58396,378.672911 492.58396,378.995122 C492.58396,379.31726 492.845142,379.578442 493.16728,379.578442 L493.7506,379.578442 L493.7506,380.161762 C493.7506,380.4839 494.011781,380.745081 494.33392,380.745081 C494.656058,380.745081 494.917239,380.4839 494.917239,380.161762 L494.917239,379.578442 L496.083879,379.578442 L496.083879,380.161762 C496.083879,380.4839 496.34506,380.745081 496.667199,380.745081 C496.989337,380.745081 497.250519,380.4839 497.250519,380.161762 L497.250519,379.578442 L498.417158,379.578442 L498.417158,380.161762 C498.417158,380.4839 498.67834,380.745081 499.000478,380.745081 C499.322616,380.745081 499.583798,380.4839 499.583798,380.161762 L499.583798,379.578442 L500.750437,379.578442 L500.750437,380.161762 C500.750437,380.4839 501.011619,380.745081 501.333757,380.745081 C501.655896,380.745081 501.917077,380.4839 501.917077,380.161762 L501.917077,379.578442 L503.083717,379.578442 L503.083717,380.161762 C503.083717,380.4839 503.344898,380.745081 503.667036,380.745081 C503.989175,380.745081 504.250356,380.4839 504.250356,380.161762 L504.250356,379.578442 L504.833676,379.578442 C505.155814,379.578442 505.416996,379.31726 505.416996,378.995122 C505.416996,378.672911 505.155814,378.411802 504.833676,378.411802 Z" id="Combined-Shape"></path>
        </g>
    </g>
</svg>